<svg width="105" height="105" viewBox="0 0 105 105" fill="none" xmlns="http://www.w3.org/2000/svg">
<path d="M52.4622 103.924C80.884 103.924 103.924 80.884 103.924 52.4622C103.924 24.0404 80.884 1 52.4622 1C24.0404 1 1 24.0404 1 52.4622C1 80.884 24.0404 103.924 52.4622 103.924Z" fill="#27536B" stroke="black" stroke-width="0.178428"/>
<path d="M31.1699 36.0713L38.4886 35.2622L31.1699 34.4531L30.3608 27.1342L29.5517 34.4531L22.2329 35.2622L29.5517 36.0713L30.3608 43.39L31.1699 36.0713Z" fill="white" stroke="black" stroke-width="0.134771"/>
<path d="M65.4056 59.0286L71.0232 58.4076L65.4056 57.7865L64.7845 52.1688L64.1636 57.7865L58.5459 58.4076L64.1636 59.0286L64.7845 64.6461L65.4056 59.0286Z" fill="white" stroke="black" stroke-width="0.134771"/>
<path d="M34.5723 71.7443L38.9356 71.2621L34.5723 70.7797L34.0899 66.4163L33.6073 70.7797L29.2441 71.2621L33.6073 71.7443L34.0899 76.1076L34.5723 71.7443Z" fill="white" stroke="black" stroke-width="0.134771"/>
<path d="M35.7556 41.5339L36.8682 42.6464L37.9807 41.5339L36.8682 40.4213L35.7556 41.5339Z" fill="white" stroke="black" stroke-width="0.134771"/>
<path d="M50.4402 71.8273L51.5527 72.9399L52.6653 71.8273L51.5527 70.7148L50.4402 71.8273Z" fill="white" stroke="black" stroke-width="0.134771"/>
<path d="M68.7473 36.071L69.8599 37.1835L70.9724 36.071L69.8599 34.9585L68.7473 36.071Z" fill="white" stroke="black" stroke-width="0.134771"/>
<path d="M51.9573 43.5051L53.0698 44.6177L54.1824 43.5051L53.0698 42.3926L51.9573 43.5051Z" fill="white" stroke="black" stroke-width="0.134771"/>
<path d="M75.2214 50.4846L76.334 51.5971L77.4465 50.4846L76.334 49.372L75.2214 50.4846Z" fill="white" stroke="black" stroke-width="0.134771"/>
<path d="M62.5774 26.5634L63.6899 27.676L64.8025 26.5634L63.6899 25.4509L62.5774 26.5634Z" fill="white" stroke="black" stroke-width="0.134771"/>
<path d="M20.5999 74.761L21.7124 75.8735L22.8249 74.761L21.7124 73.6485L20.5999 74.761Z" fill="white" stroke="black" stroke-width="0.134771"/>
<path d="M47.8084 21.4041L48.9209 22.5167L50.0334 21.4041L48.9209 20.2916L47.8084 21.4041Z" fill="white" stroke="black" stroke-width="0.134771"/>
<path d="M63.5891 87.0014L64.7017 88.1139L65.8142 87.0014L64.7017 85.8888L63.5891 87.0014Z" fill="white" stroke="black" stroke-width="0.134771"/>
<path d="M17.969 38.3466L19.0815 39.4592L20.1941 38.3466L19.0815 37.2341L17.969 38.3466Z" fill="white" stroke="black" stroke-width="0.134771"/>
<path d="M15.7702 58.8087L18.2928 57.146L25.7224 63.8953L26.1219 63.709L25.5239 54.2605L28.5336 52.3706L34.2535 62.1948C34.4556 62.5434 34.6407 62.813 34.8086 63.0036C34.9766 63.1942 35.1395 63.3317 35.2976 63.4162C35.4591 63.4911 35.6249 63.5245 35.7951 63.5163C35.9687 63.4986 36.159 63.4573 36.366 63.3925L36.7778 63.2835L37.6008 65.201C37.3289 65.2962 37.0277 65.405 36.6973 65.5275C36.4154 65.6352 36.0797 65.7719 35.6904 65.9377C35.2981 66.0969 34.8713 66.284 34.4101 66.4991C33.9684 66.7051 33.484 66.9468 32.9569 67.2242C32.4333 67.4921 31.8312 67.8203 31.1504 68.2089L30.3566 66.2777C30.5164 66.1795 30.6827 66.0782 30.8555 65.9739C31.0053 65.8882 31.1714 65.795 31.3537 65.6941C31.5395 65.5838 31.7266 65.4847 31.915 65.3968L28.4595 59.3093L28.06 59.4956L28.6223 68.6642L26.6638 69.5774L19.8848 63.3077L19.4853 63.494C19.8263 64.2761 20.1112 64.938 20.3401 65.4798C20.5755 66.0185 20.7685 66.4663 20.9191 66.8231C21.0762 67.1769 21.1969 67.4528 21.2813 67.6507C21.3691 67.8391 21.4325 67.9835 21.4715 68.084C21.5139 68.1749 21.5411 68.2334 21.5532 68.2594C21.5623 68.2789 21.5699 68.2951 21.576 68.3081C21.7274 68.6329 21.8793 68.8823 22.0317 69.0565C22.181 69.2241 22.3349 69.3421 22.4934 69.4106C22.6583 69.476 22.8276 69.4999 23.0013 69.4822C23.1814 69.4614 23.3717 69.4201 23.5722 69.3583L24.0035 69.2402L24.8071 71.1669C24.5221 71.2681 24.2177 71.3784 23.8938 71.4979C23.6118 71.6056 23.2892 71.7363 22.9259 71.8899C22.5595 72.037 22.1717 72.206 21.7625 72.3968C21.5351 72.5028 21.3255 72.6045 21.1337 72.7019C20.9483 72.7962 20.7515 72.8999 20.5432 73.0128C20.3318 73.1193 20.1023 73.2461 19.8546 73.3932C19.6103 73.5308 19.3189 73.6944 18.9802 73.884L18.1767 71.9573C18.3365 71.8591 18.5028 71.7578 18.6756 71.6535C18.8254 71.5678 18.9915 71.4745 19.1738 71.3737C19.3596 71.2633 19.5467 71.1642 19.7351 71.0764L15.7702 58.8087ZM48.3928 55.044C48.7456 55.3935 49.0507 55.6664 49.3083 55.8627C49.5694 56.0494 49.8029 56.1856 50.009 56.2714C50.2151 56.3572 50.4045 56.4073 50.5773 56.4216C50.7535 56.4264 50.9317 56.4185 51.1118 56.3977L51.6471 56.3498L52.4506 58.2765C52.0037 58.4374 51.4998 58.6289 50.939 58.8509C50.3782 59.0728 49.7925 59.3262 49.1819 59.6109C48.5323 59.9138 47.9162 60.2209 47.3338 60.532C46.7578 60.8401 46.2353 61.1273 45.7662 61.3934L44.9627 59.4668C45.2793 59.2638 45.5565 59.095 45.7942 58.9604C46.032 58.8258 46.2743 58.701 46.5211 58.5859L44.957 56.8597C44.3784 57.1453 43.7199 57.48 42.9816 57.8639C42.2466 58.2382 41.4853 58.6407 40.6975 59.0713C40.7126 59.341 40.7383 59.5742 40.7746 59.7708C40.8174 59.9644 40.8706 60.1294 40.9343 60.2658C41.0584 60.5321 41.2208 60.6937 41.4212 60.7505C41.6187 60.8007 41.8564 60.7848 42.1344 60.7026L42.5462 60.5936L43.3497 62.5203C43.1363 62.5882 42.8838 62.6743 42.5923 62.7786C42.3429 62.8711 42.0398 62.9927 41.6829 63.1433C41.3296 63.2844 40.9223 63.4624 40.4611 63.6775C40.2337 63.7835 40.0273 63.8837 39.842 63.978C39.6601 64.0628 39.4715 64.1587 39.2762 64.2656C39.0778 64.366 38.8565 64.485 38.6123 64.6226C38.3745 64.7572 38.0893 64.9258 37.7567 65.1283L36.9532 63.2017C37.0251 63.1523 37.115 63.0907 37.2228 63.0166C37.3142 62.9582 37.4283 62.8892 37.5652 62.8095C37.7085 62.7269 37.8714 62.6351 38.0537 62.5343L37.8012 48.5354L40.1094 46.9728L48.3928 55.044ZM40.3983 56.2926L43.2435 54.9658L40.3444 51.7506L39.9449 51.9369L40.3983 56.2926ZM50.5242 47.0986C50.3576 46.7413 50.1936 46.4659 50.0321 46.2723C49.8772 46.0756 49.7157 45.9414 49.5477 45.8694C49.3832 45.788 49.2141 45.7561 49.0405 45.7738C48.8638 45.785 48.6704 45.8198 48.4604 45.8782L48.0044 46.0197L47.1866 44.0878C47.4001 44.0199 47.6511 43.9305 47.9395 43.8198C48.1859 43.7207 48.4875 43.5958 48.8443 43.4453C49.2012 43.2947 49.6102 43.1119 50.0714 42.8968C50.721 42.5939 51.3113 42.291 51.8422 41.988C52.3767 41.6755 52.9037 41.3981 53.4234 41.1558C54.1834 40.8014 54.8904 40.5706 55.5442 40.4634C56.1981 40.3562 56.7848 40.3594 57.3044 40.473C57.824 40.5866 58.2781 40.8059 58.6669 41.1307C59.0526 41.4491 59.362 41.8584 59.5953 42.3586C59.7407 42.6704 59.8473 42.9923 59.9152 43.3245C59.9896 43.6536 60.0289 43.9753 60.0331 44.2897C60.0374 44.604 60.0132 44.9 59.9608 45.1775C59.9083 45.4551 59.8359 45.6984 59.7436 45.9075C60.1255 45.8955 60.4951 45.9248 60.8523 45.9955C61.2095 46.0662 61.5459 46.194 61.8615 46.379C62.1836 46.561 62.4784 46.8031 62.7459 47.1054C63.0199 47.4047 63.2614 47.7785 63.4705 48.2267C63.7522 48.8308 63.9022 49.441 63.9207 50.0571C63.9361 50.6668 63.8157 51.2567 63.5597 51.8269C63.3036 52.3971 62.9122 52.9315 62.3855 53.4302C61.8589 53.9289 61.1928 54.366 60.3873 54.7416C60.0235 54.9113 59.6489 55.0662 59.2635 55.2063C58.8876 55.35 58.5087 55.4871 58.1267 55.6178C57.7513 55.7454 57.3789 55.8795 57.0095 56.0202C56.6435 56.1512 56.2949 56.294 55.9636 56.4485C55.5154 56.6575 55.07 56.881 54.6274 57.1191C54.1818 57.3506 53.6933 57.6258 53.1619 57.9448L52.3584 56.0181C52.5182 55.9199 52.6845 55.8186 52.8573 55.7143C53.0071 55.6286 53.1732 55.5354 53.3555 55.4345C53.5413 55.3242 53.7284 55.2251 53.9168 55.1372C53.7974 54.8133 53.6507 54.4309 53.4768 53.9901C53.2998 53.5427 53.1075 53.0709 52.8998 52.5746C52.689 52.0718 52.4738 51.5593 52.254 51.037C52.0311 50.5083 51.8141 50.0005 51.603 49.5138C51.3918 49.027 51.1925 48.5742 51.0052 48.1555C50.8178 47.7367 50.6575 47.3844 50.5242 47.0986ZM59.884 49.9228C59.7598 49.6565 59.6008 49.4341 59.4068 49.2556C59.2099 49.0707 58.9776 48.9457 58.71 48.8806C58.4394 48.8091 58.1318 48.8023 57.7871 48.8602C57.4459 48.9086 57.0674 49.0298 56.6516 49.2236C56.4698 49.3084 56.2747 49.4073 56.0664 49.5203C55.8615 49.6237 55.6987 49.7154 55.5778 49.7955L57.0733 53.1552C57.2266 53.1786 57.3916 53.1847 57.5682 53.1735C57.7484 53.1528 57.924 53.1223 58.095 53.0821C58.2661 53.0419 58.4228 52.9965 58.5653 52.9459C58.7143 52.8922 58.8277 52.8472 58.9057 52.8109C59.1655 52.6897 59.3909 52.5371 59.5819 52.3532C59.7764 52.1597 59.9235 51.9408 60.0232 51.6966C60.1228 51.4524 60.1638 51.1842 60.1461 50.8919C60.1319 50.5901 60.0446 50.2671 59.884 49.9228ZM55.6267 47.1274C55.8476 47.0244 56.0699 46.9246 56.2938 46.8281C56.5212 46.7221 56.7498 46.6274 56.9798 46.5439C57.0478 46.2828 57.0735 45.9901 57.0567 45.6657C57.0464 45.3384 56.9731 45.0286 56.8368 44.7362C56.6853 44.4114 56.4986 44.1466 56.2765 43.9417C56.0514 43.7304 55.8005 43.5824 55.5238 43.4979C55.2506 43.4039 54.9564 43.375 54.6412 43.4113C54.3229 43.441 53.9949 43.5347 53.6571 43.6922C53.6051 43.7164 53.5174 43.7573 53.394 43.8149C53.2771 43.8694 53.1957 43.9153 53.1498 43.9525C53.3211 44.3708 53.494 44.7924 53.6684 45.2172C53.8155 45.5836 53.9762 45.9792 54.1506 46.404C54.325 46.8289 54.492 47.2294 54.6516 47.6058C54.7071 47.572 54.777 47.5354 54.8615 47.4961C54.9494 47.4472 55.0388 47.4015 55.1298 47.3591C55.2272 47.3137 55.3181 47.2712 55.4026 47.2319C55.4935 47.1895 55.5682 47.1546 55.6267 47.1274ZM76.2019 42.0764C76.5547 42.4259 76.8599 42.6988 77.1175 42.895C77.3785 43.0817 77.6121 43.218 77.8182 43.3038C78.0243 43.3896 78.2137 43.4396 78.3865 43.454C78.5627 43.4588 78.7409 43.4508 78.921 43.4301L79.4562 43.3822L80.2597 45.3089C79.8128 45.4698 79.309 45.6613 78.7482 45.8832C78.1874 46.1052 77.6016 46.3586 76.991 46.6433C76.3414 46.9462 75.7254 47.2532 75.1429 47.5644C74.5669 47.8725 74.0444 48.1597 73.5754 48.4258L72.7719 46.4992C73.0885 46.2962 73.3656 46.1274 73.6034 45.9928C73.8412 45.8582 74.0835 45.7333 74.3303 45.6182L72.7662 43.892C72.1876 44.1776 71.5291 44.5124 70.7907 44.8962C70.0558 45.2706 69.2945 45.673 68.5067 46.1036C68.5218 46.3734 68.5475 46.6066 68.5838 46.8032C68.6266 46.9968 68.6798 47.1617 68.7434 47.2982C68.8676 47.5645 69.0299 47.726 69.2304 47.7828C69.4278 47.8331 69.6656 47.8172 69.9436 47.735L70.3554 47.626L71.1589 49.5527C70.9454 49.6206 70.6929 49.7067 70.4015 49.8109C70.1521 49.9035 69.8489 50.0251 69.4921 50.1757C69.1387 50.3167 68.7314 50.4948 68.2702 50.7099C68.0429 50.8159 67.8365 50.9161 67.6511 51.0104C67.4693 51.0952 67.2807 51.1911 67.0853 51.298C66.887 51.3984 66.6657 51.5174 66.4214 51.655C66.1837 51.7896 65.8985 51.9582 65.5659 52.1607L64.7624 50.234C64.8343 50.1847 64.9241 50.123 65.032 50.049C65.1234 49.9906 65.2375 49.9216 65.3743 49.8419C65.5177 49.7593 65.6805 49.6675 65.8628 49.5667L65.6104 35.5678L67.9186 34.0051L76.2019 42.0764ZM68.2074 43.325L71.0527 41.9982L68.1536 38.783L67.7541 38.9693L68.2074 43.325ZM84.3275 38.8449C84.4972 39.2087 84.6595 39.4889 84.8144 39.6855C84.9759 39.8791 85.1389 40.0166 85.3034 40.0981C85.4714 40.17 85.6437 40.2004 85.8204 40.1892C86.0005 40.1684 86.1941 40.1256 86.4011 40.0607L86.8129 39.9517L87.6164 41.8784C87.312 41.9887 86.9815 42.1112 86.6251 42.2457C86.3172 42.3656 85.9621 42.5114 85.5598 42.6832C85.161 42.8454 84.7309 43.0341 84.2697 43.2492C83.8215 43.4582 83.3244 43.6979 82.7783 43.9684C82.2387 44.2358 81.6362 44.5721 80.971 44.9772L80.1675 43.0505C80.3273 42.9523 80.4936 42.851 80.6664 42.7467C80.8163 42.661 80.9824 42.5677 81.1647 42.4669C81.3505 42.3565 81.5376 42.2574 81.7259 42.1696C81.5762 41.7807 81.4051 41.3544 81.2126 40.8906C81.017 40.4203 80.8153 39.937 80.6076 39.4407C80.4034 38.9349 80.1912 38.4289 79.9709 37.9226C79.7572 37.4133 79.5508 36.9283 79.3517 36.4675C79.1497 36.0003 78.9595 35.567 78.7812 35.1677C78.6029 34.7684 78.4471 34.4259 78.3139 34.14C78.1473 33.7828 77.9832 33.5073 77.8218 33.3137C77.6603 33.1201 77.4956 32.9874 77.3276 32.9154C77.1631 32.834 76.9908 32.8036 76.8106 32.8244C76.6275 32.8386 76.4309 32.8749 76.2209 32.9333L75.8136 33.052L75.0153 31.1111C75.3392 30.9917 75.6616 30.869 75.9825 30.7431C76.2614 30.6289 76.5597 30.5055 76.8776 30.3731C77.202 30.2377 77.5038 30.1049 77.7831 29.9746C78.056 29.8474 78.3453 29.7046 78.651 29.5462C78.9537 29.3813 79.2677 29.2151 79.5929 29.0477C79.9151 28.8737 80.2389 28.703 80.5641 28.5355C80.8928 28.3585 81.2195 28.1942 81.5443 28.0428C82.3563 27.6642 83.1181 27.4236 83.8295 27.3212C84.541 27.2188 85.1864 27.2461 85.7657 27.403C86.3515 27.5569 86.8697 27.8372 87.3203 28.2439C87.7679 28.6441 88.1387 29.1593 88.4325 29.7894C88.6445 30.2441 88.7784 30.6839 88.8341 31.1087C88.8899 31.5335 88.8835 31.9437 88.8149 32.3395C88.7464 32.7352 88.619 33.1149 88.4327 33.4786C88.2529 33.8392 88.0255 34.1825 87.7504 34.5085L89.3725 35.6976C89.8284 36.0307 90.265 36.3056 90.6823 36.5222C91.1062 36.7358 91.4978 36.8972 91.8572 37.0064C92.2135 37.1091 92.5343 37.1612 92.8197 37.1626C93.1115 37.1609 93.3581 37.1132 93.5595 37.0193L94.254 38.7121C94.1656 38.777 94.0643 38.848 93.9499 38.925C93.8456 38.9895 93.7217 39.0631 93.5784 39.1457C93.435 39.2284 93.2659 39.3152 93.071 39.406C92.6033 39.6241 92.1341 39.7797 91.6634 39.8726C91.1962 39.9561 90.7119 39.9605 90.2105 39.8858C89.7091 39.8112 89.1876 39.6511 88.6459 39.4054C88.1078 39.1502 87.5387 38.7947 86.9387 38.339L84.7991 36.727C84.7337 36.7733 84.6652 36.8131 84.5938 36.8464C84.5288 36.8767 84.4606 36.9085 84.3892 36.9419C84.2462 37.0085 84.1051 37.0704 83.9656 37.1275C83.8262 37.1846 83.711 37.2344 83.62 37.2768C83.7403 37.5687 83.8671 37.8575 84.0004 38.1433C84.1306 38.4227 84.2397 38.6565 84.3275 38.8449ZM81.0174 30.9576C81.1039 31.1941 81.2069 31.4742 81.3263 31.7982C81.4492 32.1126 81.5842 32.4529 81.7313 32.8193C81.8784 33.1857 82.0346 33.5715 82.1999 33.9769C82.3717 34.3792 82.545 34.7847 82.7198 35.1935C82.8423 35.168 82.9603 35.1328 83.0738 35.0878C83.1907 35.0333 83.3142 34.9757 83.4441 34.9151C84.2366 34.5456 84.7736 34.0777 85.0553 33.5114C85.3339 32.9386 85.3111 32.3047 84.987 31.6096C84.8143 31.2393 84.6024 30.9546 84.3514 30.7553C84.0972 30.5496 83.8186 30.4185 83.5156 30.3621C83.2159 30.2962 82.8986 30.2939 82.5634 30.3553C82.2282 30.4167 81.8885 30.5277 81.5442 30.6882C81.4468 30.7337 81.3493 30.7791 81.2519 30.8245C81.161 30.8669 81.0828 30.9113 81.0174 30.9576Z" fill="white"/>
</svg>
