<svg width="29" height="25" viewBox="0 0 29 25" fill="none" xmlns="http://www.w3.org/2000/svg">
<path d="M28.3654 14.4231H27.8846V12.9808C27.8834 12.0261 27.3173 11.1626 26.4423 10.7808V3.36538C26.4422 3.17428 26.329 3.00144 26.1538 2.925C26.3414 2.6244 26.4413 2.2774 26.4423 1.92308C26.4423 0.860998 25.5813 0 24.5192 0C23.4571 0 22.5962 0.860998 22.5962 1.92308C22.5981 2.26166 22.6904 2.59357 22.8635 2.88462H5.98269C6.15571 2.59357 6.24802 2.26166 6.25 1.92308C6.25 0.860998 5.389 0 4.32692 0C3.26484 0 2.40385 0.860998 2.40385 1.92308C2.40487 2.2774 2.50475 2.6244 2.69231 2.925C2.51719 3.00144 2.40397 3.17428 2.40385 3.36538V10.7808C1.52885 11.1626 0.9628 12.0261 0.961538 12.9808V14.4231H0.480769C0.215264 14.4231 0 14.6383 0 14.9038V21.6346C0 21.9001 0.215264 22.1154 0.480769 22.1154H0.961538V24.5192C0.961538 24.7847 1.1768 25 1.44231 25H3.36538C3.63089 25 3.84615 24.7847 3.84615 24.5192V22.1154H25V24.5192C25 24.7847 25.2153 25 25.4808 25H27.4038C27.6693 25 27.8846 24.7847 27.8846 24.5192V22.1154H28.3654C28.6309 22.1154 28.8462 21.9001 28.8462 21.6346V14.9038C28.8462 14.6383 28.6309 14.4231 28.3654 14.4231ZM24.5192 0.961538C25.0503 0.961538 25.4808 1.39201 25.4808 1.92308C25.4808 2.45415 25.0503 2.88462 24.5192 2.88462C23.9882 2.88462 23.5577 2.45415 23.5577 1.92308C23.5577 1.39201 23.9882 0.961538 24.5192 0.961538ZM4.32692 0.961538C4.85799 0.961538 5.28846 1.39201 5.28846 1.92308C5.28846 2.45415 4.85799 2.88462 4.32692 2.88462C3.79585 2.88462 3.36538 2.45415 3.36538 1.92308C3.36538 1.39201 3.79585 0.961538 4.32692 0.961538ZM3.36538 3.84615H25.4808V10.5769H23.5452C23.8633 10.1633 24.0367 9.65649 24.0385 9.13461V8.17308C24.0369 6.84615 22.9615 5.77079 21.6346 5.76923H17.7885C16.4615 5.77079 15.3862 6.84615 15.3846 8.17308V9.13461C15.3864 9.65649 15.5597 10.1633 15.8779 10.5769H12.9683C13.2864 10.1633 13.4598 9.65649 13.4615 9.13461V8.17308C13.46 6.84615 12.3846 5.77079 11.0577 5.76923H7.21154C5.88461 5.77079 4.80925 6.84615 4.80769 8.17308V9.13461C4.80943 9.65649 4.98281 10.1633 5.30096 10.5769H3.36538V3.84615ZM23.0769 8.17308V9.13461C23.0769 9.93119 22.4312 10.5769 21.6346 10.5769H17.7885C16.9919 10.5769 16.3462 9.93119 16.3462 9.13461V8.17308C16.3462 7.3765 16.9919 6.73077 17.7885 6.73077H21.6346C22.4312 6.73077 23.0769 7.3765 23.0769 8.17308ZM12.5 8.17308V9.13461C12.5 9.93119 11.8543 10.5769 11.0577 10.5769H7.21154C6.41496 10.5769 5.76923 9.93119 5.76923 9.13461V8.17308C5.76923 7.3765 6.41496 6.73077 7.21154 6.73077H11.0577C11.8543 6.73077 12.5 7.3765 12.5 8.17308ZM1.92308 12.9808C1.92308 12.1842 2.56881 11.5385 3.36538 11.5385H25.4808C26.2773 11.5385 26.9231 12.1842 26.9231 12.9808V14.4231H1.92308V12.9808ZM2.88462 24.0385H1.92308V22.1154H2.88462V24.0385ZM26.9231 24.0385H25.9615V22.1154H26.9231V24.0385ZM27.8846 21.1538H0.961538V15.3846H27.8846V21.1538Z" fill="#BBBBBB"/>
</svg>
