<svg width="35" height="25" viewBox="0 0 35 25" fill="none" xmlns="http://www.w3.org/2000/svg">
<path d="M4.17232 14.8606C3.87102 15.0015 3.73808 15.3562 3.87236 15.6594L5.24864 18.6043C5.31626 18.751 5.43962 18.8652 5.59132 18.9215C5.65779 18.9455 5.72828 18.958 5.79915 18.958C5.88784 18.9587 5.97538 18.9398 6.05602 18.9033L16.4545 14.0621L15.5126 23.8781C15.4944 24.0713 15.5691 24.2613 15.7141 24.3904C16.17 24.7665 16.7382 24.9807 17.3293 25C17.4923 24.9998 17.6543 24.9794 17.8124 24.9393C18.6565 24.7197 19.3111 23.9699 19.7576 22.6893L23.8496 10.6114L31.9541 6.84312C34.3396 5.73362 35.569 3.48386 34.7434 1.72786C34.2749 0.810051 33.3775 0.185703 32.3517 0.063316C31.212 -0.108141 30.0472 0.0705714 29.0121 0.575778L19.6595 4.94717L9.6039 1.02676C8.33757 0.551338 7.33462 0.563558 6.63125 1.06972C6.04108 1.5524 5.7053 2.27794 5.71966 3.0388C5.72579 3.23183 5.82329 3.41036 5.98266 3.52071L12.7537 8.16036L8.87601 9.98949L2.37368 8.34309C2.10723 8.27779 1.82987 8.3975 1.69482 8.63578L0.0741242 11.5439C-0.00996601 11.698 -0.0231829 11.8809 0.0379214 12.0454C0.0986425 12.2102 0.227747 12.3406 0.392288 12.4036L5.20612 14.3853L4.17232 14.8606ZM6.97335 2.73407C7.00936 2.47632 7.14019 2.24166 7.34055 2.07555C7.68936 1.82543 8.3255 1.86209 9.1756 2.17903L18.1305 5.66049L14.0444 7.56275L6.97335 2.73407ZM1.4686 11.538L2.53285 9.65402L8.7902 11.2025C8.92505 11.2365 9.06737 11.2237 9.19418 11.1662L29.5321 1.6975C30.3407 1.29998 31.2513 1.15526 32.1439 1.2828C32.7699 1.34027 33.3275 1.70037 33.6365 2.24605C34.1498 3.34372 33.1407 4.94717 31.434 5.73973L24.3877 9.03235L24.816 7.76991C24.9242 7.44513 24.7474 7.0942 24.4216 6.98651C24.0954 6.87883 23.7435 7.05506 23.6355 7.37983L18.6014 22.3111C18.3016 23.1588 17.9284 23.665 17.5126 23.7744C17.255 23.8239 16.9883 23.7735 16.7663 23.6345L17.9897 10.8305C18.0217 10.4939 17.7741 10.1951 17.436 10.1632C17.0983 10.131 16.7985 10.3782 16.7663 10.7148L16.5769 12.6719L6.08035 17.5494L5.21838 15.7203L6.9429 14.9157C7.1649 14.8182 7.30799 14.5994 7.30799 14.3578C7.30799 14.1161 7.1649 13.8973 6.9429 13.7999L1.4686 11.538Z" fill="#BBBBBB"/>
</svg>
