<svg width="35" height="25" viewBox="0 0 35 25" fill="none" xmlns="http://www.w3.org/2000/svg">
<path d="M34.5428 0.0452755C34.2676 -0.0582969 33.9574 0.019524 33.7637 0.240912C33.6571 0.362502 31.1529 3.27045 30.9769 7.53918C30.8651 10.2447 30.8673 11.957 31.8381 12.9186C32.2638 13.3406 33.2414 13.4426 34 13.5V24.2925C34 24.6833 34.1101 25 34.5 25C34.8898 25 35 24.6833 35 24.2925V12.9343C35 12.9306 35 12.9271 35 12.9234V0.707366C34.9999 0.412778 34.818 0.149131 34.5428 0.0452755ZM34 12.5C33.6523 12.46 32.66 12.1583 32.5 12C31.9471 11.452 31.9129 9.60965 32 7.5C32.0745 5.69484 32.9117 3.88028 34 2V12.5Z" fill="#BBBBBB"/>
<path d="M18.4568 1C12.1305 1 6.98364 6.15893 6.98364 12.5002C6.98364 18.8411 12.1306 24 18.4568 24C24.7833 24 29.93 18.8411 29.93 12.5002C29.93 6.15893 24.7833 1 18.4568 1ZM18.4998 23C12.9692 23 7.99976 18.0434 7.99976 12.5C7.99976 6.95617 12.9692 2 18.4998 2C24.0305 2 28.9998 6.95641 28.9998 12.5002C28.9998 18.0436 24.0305 23 18.4998 23Z" fill="#BBBBBB"/>
<path d="M18.4568 4C13.7808 4 9.97656 7.81311 9.97656 12.5C9.97656 17.1869 13.7809 21 18.4568 21C23.1326 21 27 17.1869 27 12.5C27 7.81311 23.1327 4 18.4568 4ZM18.5 20C14.6545 20 11 16.3544 11 12.5C11 8.64562 14.6545 5 18.5 5C22.3455 5 26 8.64562 26 12.5C26 16.3544 22.3455 20 18.5 20Z" fill="#BBBBBB"/>
<path d="M5.51367 0C5.09765 0 5.01367 0.32118 5.01367 0.717561V4.11229H3.51367V0.717561C3.51367 0.32118 3.4225 0 3.00648 0C2.59055 0 2.51367 0.32118 2.51367 0.717561V4.11229H1.01367V0.717561C1.01367 0.32118 0.929697 0 0.513672 0C0.0977476 0 0.0136719 0.32118 0.0136719 0.717561V4.82985C0.0136719 7.3327 1.18175 9.45044 2.49951 10V24.2824C2.49951 24.6788 2.59066 25 3.00658 25C3.4226 25 3.49951 24.6788 3.49951 24.2824V10C4.81748 9.45044 5.99969 7.3328 5.99969 4.82995V0.717561C5.99959 0.321276 5.9297 0 5.51367 0ZM3.01367 9C1.64232 9 1.17625 6.84958 1.01367 5H5.01367C4.8511 6.84958 4.38503 9 3.01367 9Z" fill="#BBBBBB"/>
</svg>
