<svg width="25" height="25" viewBox="0 0 25 25" fill="none" xmlns="http://www.w3.org/2000/svg">
<path d="M12.5 25C19.3925 25 25 19.3925 25 12.5C25 5.60746 19.3925 0 12.5 0C5.60746 0 0 5.60746 0 12.5C0 19.3925 5.60746 25 12.5 25ZM12.5 1.11465C18.778 1.11465 23.8854 6.22201 23.8854 12.5C23.8854 18.778 18.778 23.8854 12.5 23.8854C6.22201 23.8854 1.11465 18.778 1.11465 12.5C1.11465 6.22201 6.22201 1.11465 12.5 1.11465Z" fill="#BBBBBB"/>
<path d="M9.41882 11.3768C10.6936 11.3768 11.7268 10.3433 11.7268 9.06879C11.7271 7.79397 10.6936 6.7605 9.41882 6.7605C8.14401 6.7605 7.11084 7.79397 7.11084 9.06848C7.11208 10.3427 8.14463 11.3752 9.41882 11.3768ZM9.41882 7.87515C10.0778 7.87515 10.6122 8.40946 10.6122 9.06848C10.6125 9.72782 10.0782 10.2621 9.41882 10.2621C8.7598 10.2621 8.22549 9.72782 8.22549 9.06848C8.22611 8.40977 8.76011 7.87608 9.41882 7.87515Z" fill="#BBBBBB"/>
<path d="M13.1333 16.0717C13.1333 17.3465 14.1668 18.3797 15.4413 18.3797C16.7161 18.3797 17.7496 17.3465 17.7496 16.0717C17.7496 14.7969 16.7161 13.7634 15.4413 13.7634C14.1671 13.765 13.1349 14.7975 13.1333 16.0717ZM16.6349 16.0717C16.6349 16.7307 16.1006 17.2651 15.4413 17.2651C14.7823 17.2651 14.2479 16.7307 14.2479 16.0717C14.2479 15.4127 14.7823 14.8784 15.4413 14.8781C16.1003 14.879 16.634 15.4127 16.6349 16.0717Z" fill="#BBBBBB"/>
<path d="M8.25639 19.007C8.51422 19.1753 8.85974 19.1025 9.02769 18.8447L16.9061 6.76451C17.0153 6.5975 17.0271 6.38508 16.9372 6.20719C16.847 6.02929 16.6688 5.91297 16.4698 5.9024C16.2707 5.89183 16.081 5.98824 15.9725 6.15556L8.09405 18.2357C7.92579 18.4938 7.99857 18.8391 8.25639 19.007Z" fill="#BBBBBB"/>
</svg>
