<svg width="45" height="45" viewBox="0 0 45 45" fill="none" xmlns="http://www.w3.org/2000/svg">
<circle cx="22.5" cy="22.5" r="22.5" fill="#F22C2C"/>
<path d="M22.5 45C34.9066 45 45 34.9066 45 22.5C45 10.0934 34.9066 0 22.5 0C10.0934 0 0 10.0934 0 22.5C0 34.9066 10.0934 45 22.5 45ZM22.5 2.00637C33.8004 2.00637 42.9936 11.1996 42.9936 22.5C42.9936 33.8004 33.8004 42.9936 22.5 42.9936C11.1996 42.9936 2.00637 33.8004 2.00637 22.5C2.00637 11.1996 11.1996 2.00637 22.5 2.00637Z" fill="#F22C2C"/>
<path d="M16.9542 20.4781C19.2489 20.4781 21.1086 18.6178 21.1086 16.3237C21.1091 14.029 19.2489 12.1688 16.9542 12.1688C14.6595 12.1688 12.7998 14.029 12.7998 16.3231C12.802 18.6167 14.6606 20.4753 16.9542 20.4781ZM16.9542 14.1751C18.1404 14.1751 19.1022 15.1369 19.1022 16.3231C19.1027 17.5099 18.141 18.4717 16.9542 18.4717C15.7679 18.4717 14.8062 17.5099 14.8062 16.3231C14.8073 15.1375 15.7685 14.1768 16.9542 14.1751Z" fill="white"/>
<path d="M23.6396 28.929C23.6396 31.2237 25.4999 33.0834 27.794 33.0834C30.0887 33.0834 31.9489 31.2237 31.9489 28.929C31.9489 26.6344 30.0887 24.7741 27.794 24.7741C25.5005 24.7769 23.6424 26.6355 23.6396 28.929ZM29.9426 28.929C29.9426 30.1153 28.9808 31.077 27.794 31.077C26.6078 31.077 25.646 30.1153 25.646 28.929C25.646 27.7428 26.6078 26.781 27.794 26.7805C28.9802 26.7822 29.9409 27.7428 29.9426 28.929Z" fill="white"/>
<path d="M14.8609 34.2127C15.325 34.5155 15.9469 34.3846 16.2492 33.9205L30.4304 12.1762C30.6269 11.8756 30.6481 11.4932 30.4863 11.173C30.324 10.8528 30.0032 10.6434 29.645 10.6244C29.2867 10.6054 28.9452 10.7789 28.7498 11.0801L14.5686 32.8244C14.2658 33.289 14.3968 33.9104 14.8609 34.2127Z" fill="white"/>
</svg>
