<svg width="38" height="38" viewBox="0 0 38 38" fill="none" xmlns="http://www.w3.org/2000/svg">
<rect width="38" height="38" rx="3" fill="#F5F5F5"/>
<g clip-path="url(#clip0)">
<path d="M7.12473 12.0277L7.12479 12.0276C8.62214 11.1549 10.3718 11.5964 11.6703 12.2019L15.6523 14.0588L15.8719 14.1612L16.0883 14.0523L22.8207 10.6662L25.6434 10.7875L20.7794 15.7185L20.2854 16.2193L20.9209 16.5212L24.525 18.2333L24.7179 18.3249L24.9174 18.249L28.4696 16.8971L30.2103 17.7087L28.3417 20.0292L28.084 20.3491L28.3479 20.6639C28.4364 20.7696 28.5023 20.8735 28.538 20.9686L28.3933 20.7706C28.3208 20.6713 28.2083 20.5464 28.0311 20.3904L28.0311 20.3904L28.0206 20.3812L29.7639 18.2165L30.1642 17.7195L29.5858 17.4497L28.6602 17.0181L28.4686 16.9287L28.2711 17.0039L24.7168 18.3567L20.2358 16.2281L24.7851 11.6161L25.5764 10.8138L24.4506 10.7654L22.9571 10.7013L22.8271 10.6957L22.711 10.7541L15.8725 14.1935L11.658 12.2284C9.96001 11.4366 8.4084 11.3135 7.13962 12.0528L7.13959 12.0528L7.08413 12.0851L7.0815 12.0877C6.94298 12.1736 6.83003 12.2637 6.74376 12.3555C6.69513 12.4072 6.64762 12.4674 6.60982 12.5354C6.57936 12.5902 6.52378 12.7053 6.52976 12.8532C6.5298 12.8542 6.52984 12.8552 6.52989 12.8562L7.02936 12.8332C7.02946 12.8369 7.06039 13.206 8.30835 13.7879L7.12473 12.0277ZM7.12473 12.0277C6.81147 12.2102 6.66023 12.386 6.58548 12.5183C6.51155 12.649 6.49638 12.7655 6.50057 12.8574C6.50844 13.0298 6.58975 13.2342 6.83806 13.4783C7.09175 13.7277 7.49556 13.9929 8.0846 14.2676C8.0846 14.2676 8.08461 14.2676 8.08461 14.2676L22.3188 20.9051C23.179 21.3062 24.6028 21.6462 25.933 21.7513L25.9331 21.7513C26.2188 21.7739 26.4822 21.7849 26.7232 21.7849H26.7233C27.3175 21.7849 27.7548 21.7177 28.0568 21.6072C28.2262 21.5452 28.3405 21.4746 28.418 21.403M7.12473 12.0277L28.418 21.403M28.418 21.403L28.2261 21.506C28.0298 21.6115 27.7313 21.6851 27.3572 21.7236C26.969 21.7636 26.4579 21.7697 25.8092 21.7115C24.553 21.5987 23.1919 21.28 22.3312 20.8786L8.09707 14.241L28.418 21.403Z" fill="#222222" stroke="#757575"/>
<path d="M30 26.7369H8M8 26.7369L11.2353 23.4474M8 26.7369L11.2353 30.0263" stroke="#757575"/>
</g>
<defs>
<clipPath id="clip0">
<rect width="25" height="25" fill="white" transform="matrix(-1 0 0 1 31 7)"/>
</clipPath>
</defs>
</svg>
