<svg width="38" height="38" viewBox="0 0 38 38" fill="none" xmlns="http://www.w3.org/2000/svg">
<rect width="38" height="38" rx="3" fill="#F5F5F5"/>
<mask id="path-2-inside-1" fill="white">
<path d="M12.932 17.5986H9.66581C9.40812 17.5986 9.19922 17.8075 9.19922 18.0652V22.7312C9.19922 22.9889 9.40812 23.1978 9.66581 23.1978H12.932C13.1897 23.1978 13.3986 22.9889 13.3986 22.7312V18.0652C13.3986 17.8075 13.1897 17.5986 12.932 17.5986ZM12.4654 22.2646H10.1324V18.5318H12.4654V22.2646Z"/>
</mask>
<path d="M12.932 17.5986H9.66581C9.40812 17.5986 9.19922 17.8075 9.19922 18.0652V22.7312C9.19922 22.9889 9.40812 23.1978 9.66581 23.1978H12.932C13.1897 23.1978 13.3986 22.9889 13.3986 22.7312V18.0652C13.3986 17.8075 13.1897 17.5986 12.932 17.5986ZM12.4654 22.2646H10.1324V18.5318H12.4654V22.2646Z" fill="#222222"/>
<path d="M12.4654 22.2646V23.2646H13.4654V22.2646H12.4654ZM10.1324 22.2646H9.13241V23.2646H10.1324V22.2646ZM10.1324 18.5318V17.5318H9.13241V18.5318H10.1324ZM12.4654 18.5318H13.4654V17.5318H12.4654V18.5318ZM12.932 16.5986H9.66581V18.5986H12.932V16.5986ZM9.66581 16.5986C8.85584 16.5986 8.19922 17.2553 8.19922 18.0652H10.1992C10.1992 18.3598 9.96041 18.5986 9.66581 18.5986V16.5986ZM8.19922 18.0652V22.7312H10.1992V18.0652H8.19922ZM8.19922 22.7312C8.19922 23.5412 8.85584 24.1978 9.66581 24.1978V22.1978C9.96041 22.1978 10.1992 22.4366 10.1992 22.7312H8.19922ZM9.66581 24.1978H12.932V22.1978H9.66581V24.1978ZM12.932 24.1978C13.742 24.1978 14.3986 23.5412 14.3986 22.7312H12.3986C12.3986 22.4366 12.6374 22.1978 12.932 22.1978V24.1978ZM14.3986 22.7312V18.0652H12.3986V22.7312H14.3986ZM14.3986 18.0652C14.3986 17.2553 13.742 16.5986 12.932 16.5986V18.5986C12.6374 18.5986 12.3986 18.3598 12.3986 18.0652H14.3986ZM12.4654 21.2646H10.1324V23.2646H12.4654V21.2646ZM11.1324 22.2646V18.5318H9.13241V22.2646H11.1324ZM10.1324 19.5318H12.4654V17.5318H10.1324V19.5318ZM11.4654 18.5318V22.2646H13.4654V18.5318H11.4654Z" fill="#757575" mask="url(#path-2-inside-1)"/>
<mask id="path-4-inside-2" fill="white">
<path d="M20.8642 17.5986H17.5979C17.3403 17.5986 17.1313 17.8075 17.1313 18.0652V22.7312C17.1313 22.9889 17.3403 23.1978 17.5979 23.1978H20.8642C21.1218 23.1978 21.3307 22.9889 21.3307 22.7312V18.0652C21.3307 17.8075 21.1218 17.5986 20.8642 17.5986ZM20.3976 22.2646H18.0646V18.5318H20.3976V22.2646Z"/>
</mask>
<path d="M20.8642 17.5986H17.5979C17.3403 17.5986 17.1313 17.8075 17.1313 18.0652V22.7312C17.1313 22.9889 17.3403 23.1978 17.5979 23.1978H20.8642C21.1218 23.1978 21.3307 22.9889 21.3307 22.7312V18.0652C21.3307 17.8075 21.1218 17.5986 20.8642 17.5986ZM20.3976 22.2646H18.0646V18.5318H20.3976V22.2646Z" fill="#222222"/>
<path d="M20.3976 22.2646V23.2646H21.3976V22.2646H20.3976ZM18.0646 22.2646H17.0646V23.2646H18.0646V22.2646ZM18.0646 18.5318V17.5318H17.0646V18.5318H18.0646ZM20.3976 18.5318H21.3976V17.5318H20.3976V18.5318ZM20.8642 16.5986H17.5979V18.5986H20.8642V16.5986ZM17.5979 16.5986C16.788 16.5986 16.1313 17.2553 16.1313 18.0652H18.1313C18.1313 18.3598 17.8925 18.5986 17.5979 18.5986V16.5986ZM16.1313 18.0652V22.7312H18.1313V18.0652H16.1313ZM16.1313 22.7312C16.1313 23.5412 16.788 24.1978 17.5979 24.1978V22.1978C17.8925 22.1978 18.1313 22.4366 18.1313 22.7312H16.1313ZM17.5979 24.1978H20.8642V22.1978H17.5979V24.1978ZM20.8642 24.1978C21.6741 24.1978 22.3307 23.5412 22.3307 22.7312H20.3307C20.3307 22.4366 20.5696 22.1978 20.8642 22.1978V24.1978ZM22.3307 22.7312V18.0652H20.3307V22.7312H22.3307ZM22.3307 18.0652C22.3307 17.2553 21.6741 16.5986 20.8642 16.5986V18.5986C20.5696 18.5986 20.3307 18.3598 20.3307 18.0652H22.3307ZM20.3976 21.2646H18.0646V23.2646H20.3976V21.2646ZM19.0646 22.2646V18.5318H17.0646V22.2646H19.0646ZM18.0646 19.5318H20.3976V17.5318H18.0646V19.5318ZM19.3976 18.5318V22.2646H21.3976V18.5318H19.3976Z" fill="#757575" mask="url(#path-4-inside-2)"/>
<mask id="path-6-inside-3" fill="white">
<path d="M20.8642 25.0642H17.5979C17.3403 25.0642 17.1313 25.2731 17.1313 25.5308V30.1968C17.1313 30.4545 17.3403 30.6634 17.5979 30.6634H20.8642C21.1218 30.6634 21.3307 30.4545 21.3307 30.1968V25.5308C21.3307 25.2732 21.1218 25.0642 20.8642 25.0642ZM20.3976 29.7302H18.0646V25.9974H20.3976V29.7302Z"/>
</mask>
<path d="M20.8642 25.0642H17.5979C17.3403 25.0642 17.1313 25.2731 17.1313 25.5308V30.1968C17.1313 30.4545 17.3403 30.6634 17.5979 30.6634H20.8642C21.1218 30.6634 21.3307 30.4545 21.3307 30.1968V25.5308C21.3307 25.2732 21.1218 25.0642 20.8642 25.0642ZM20.3976 29.7302H18.0646V25.9974H20.3976V29.7302Z" fill="#222222"/>
<path d="M20.3976 29.7302V30.7302H21.3976V29.7302H20.3976ZM18.0646 29.7302H17.0646V30.7302H18.0646V29.7302ZM18.0646 25.9974V24.9974H17.0646V25.9974H18.0646ZM20.3976 25.9974H21.3976V24.9974H20.3976V25.9974ZM20.8642 24.0642H17.5979V26.0642H20.8642V24.0642ZM17.5979 24.0642C16.788 24.0642 16.1313 24.7208 16.1313 25.5308H18.1313C18.1313 25.8254 17.8925 26.0642 17.5979 26.0642V24.0642ZM16.1313 25.5308V30.1968H18.1313V25.5308H16.1313ZM16.1313 30.1968C16.1313 31.0068 16.788 31.6634 17.5979 31.6634V29.6634C17.8925 29.6634 18.1313 29.9022 18.1313 30.1968H16.1313ZM17.5979 31.6634H20.8642V29.6634H17.5979V31.6634ZM20.8642 31.6634C21.6741 31.6634 22.3307 31.0068 22.3307 30.1968H20.3307C20.3307 29.9022 20.5696 29.6634 20.8642 29.6634V31.6634ZM22.3307 30.1968V25.5308H20.3307V30.1968H22.3307ZM22.3307 25.5308C22.3307 24.721 21.6742 24.0642 20.8642 24.0642V26.0642C20.5695 26.0642 20.3307 25.8254 20.3307 25.5308H22.3307ZM20.3976 28.7302H18.0646V30.7302H20.3976V28.7302ZM19.0646 29.7302V25.9974H17.0646V29.7302H19.0646ZM18.0646 26.9974H20.3976V24.9974H18.0646V26.9974ZM19.3976 25.9974V29.7302H21.3976V25.9974H19.3976Z" fill="#757575" mask="url(#path-6-inside-3)"/>
<mask id="path-8-inside-4" fill="white">
<path d="M28.33 17.5986H25.0638C24.8061 17.5986 24.5972 17.8075 24.5972 18.0652V22.7312C24.5972 22.9889 24.8061 23.1978 25.0638 23.1978H28.33C28.5877 23.1978 28.7966 22.9889 28.7966 22.7312V18.0652C28.7966 17.8075 28.5877 17.5986 28.33 17.5986ZM27.8634 22.2646H25.5304V18.5318H27.8634V22.2646Z"/>
</mask>
<path d="M28.33 17.5986H25.0638C24.8061 17.5986 24.5972 17.8075 24.5972 18.0652V22.7312C24.5972 22.9889 24.8061 23.1978 25.0638 23.1978H28.33C28.5877 23.1978 28.7966 22.9889 28.7966 22.7312V18.0652C28.7966 17.8075 28.5877 17.5986 28.33 17.5986ZM27.8634 22.2646H25.5304V18.5318H27.8634V22.2646Z" fill="#222222"/>
<path d="M27.8634 22.2646V23.2646H28.8634V22.2646H27.8634ZM25.5304 22.2646H24.5304V23.2646H25.5304V22.2646ZM25.5304 18.5318V17.5318H24.5304V18.5318H25.5304ZM27.8634 18.5318H28.8634V17.5318H27.8634V18.5318ZM28.33 16.5986H25.0638V18.5986H28.33V16.5986ZM25.0638 16.5986C24.2538 16.5986 23.5972 17.2553 23.5972 18.0652H25.5972C25.5972 18.3598 25.3584 18.5986 25.0638 18.5986V16.5986ZM23.5972 18.0652V22.7312H25.5972V18.0652H23.5972ZM23.5972 22.7312C23.5972 23.5412 24.2538 24.1978 25.0638 24.1978V22.1978C25.3584 22.1978 25.5972 22.4366 25.5972 22.7312H23.5972ZM25.0638 24.1978H28.33V22.1978H25.0638V24.1978ZM28.33 24.1978C29.14 24.1978 29.7966 23.5412 29.7966 22.7312H27.7966C27.7966 22.4366 28.0354 22.1978 28.33 22.1978V24.1978ZM29.7966 22.7312V18.0652H27.7966V22.7312H29.7966ZM29.7966 18.0652C29.7966 17.2553 29.1399 16.5986 28.33 16.5986V18.5986C28.0354 18.5986 27.7966 18.3598 27.7966 18.0652H29.7966ZM27.8634 21.2646H25.5304V23.2646H27.8634V21.2646ZM26.5304 22.2646V18.5318H24.5304V22.2646H26.5304ZM25.5304 19.5318H27.8634V17.5318H25.5304V19.5318ZM26.8634 18.5318V22.2646H28.8634V18.5318H26.8634Z" fill="#757575" mask="url(#path-8-inside-4)"/>
<mask id="path-10-inside-5" fill="white">
<path d="M12.932 25.0642H9.66581C9.40812 25.0642 9.19922 25.2731 9.19922 25.5308V30.1968C9.19922 30.4545 9.40812 30.6634 9.66581 30.6634H12.932C13.1897 30.6634 13.3986 30.4545 13.3986 30.1968V25.5308C13.3986 25.2732 13.1897 25.0642 12.932 25.0642ZM12.4654 29.7302H10.1324V25.9974H12.4654V29.7302Z"/>
</mask>
<path d="M12.932 25.0642H9.66581C9.40812 25.0642 9.19922 25.2731 9.19922 25.5308V30.1968C9.19922 30.4545 9.40812 30.6634 9.66581 30.6634H12.932C13.1897 30.6634 13.3986 30.4545 13.3986 30.1968V25.5308C13.3986 25.2732 13.1897 25.0642 12.932 25.0642ZM12.4654 29.7302H10.1324V25.9974H12.4654V29.7302Z" fill="#222222"/>
<path d="M12.4654 29.7302V30.7302H13.4654V29.7302H12.4654ZM10.1324 29.7302H9.13241V30.7302H10.1324V29.7302ZM10.1324 25.9974V24.9974H9.13241V25.9974H10.1324ZM12.4654 25.9974H13.4654V24.9974H12.4654V25.9974ZM12.932 24.0642H9.66581V26.0642H12.932V24.0642ZM9.66581 24.0642C8.85584 24.0642 8.19922 24.7208 8.19922 25.5308H10.1992C10.1992 25.8254 9.96041 26.0642 9.66581 26.0642V24.0642ZM8.19922 25.5308V30.1968H10.1992V25.5308H8.19922ZM8.19922 30.1968C8.19922 31.0068 8.85584 31.6634 9.66581 31.6634V29.6634C9.96041 29.6634 10.1992 29.9022 10.1992 30.1968H8.19922ZM9.66581 31.6634H12.932V29.6634H9.66581V31.6634ZM12.932 31.6634C13.742 31.6634 14.3986 31.0068 14.3986 30.1968H12.3986C12.3986 29.9022 12.6374 29.6634 12.932 29.6634V31.6634ZM14.3986 30.1968V25.5308H12.3986V30.1968H14.3986ZM14.3986 25.5308C14.3986 24.721 13.7421 24.0642 12.932 24.0642V26.0642C12.6373 26.0642 12.3986 25.8254 12.3986 25.5308H14.3986ZM12.4654 28.7302H10.1324V30.7302H12.4654V28.7302ZM11.1324 29.7302V25.9974H9.13241V29.7302H11.1324ZM10.1324 26.9974H12.4654V24.9974H10.1324V26.9974ZM11.4654 25.9974V29.7302H13.4654V25.9974H11.4654Z" fill="#757575" mask="url(#path-10-inside-5)"/>
<mask id="path-12-inside-6" fill="white">
<path d="M28.33 25.0642H25.0638C24.8061 25.0642 24.5972 25.2731 24.5972 25.5308V30.1968C24.5972 30.4545 24.8061 30.6634 25.0638 30.6634H28.33C28.5877 30.6634 28.7966 30.4545 28.7966 30.1968V25.5308C28.7966 25.2732 28.5877 25.0642 28.33 25.0642ZM27.8634 29.7302H25.5304V25.9974H27.8634V29.7302Z"/>
</mask>
<path d="M28.33 25.0642H25.0638C24.8061 25.0642 24.5972 25.2731 24.5972 25.5308V30.1968C24.5972 30.4545 24.8061 30.6634 25.0638 30.6634H28.33C28.5877 30.6634 28.7966 30.4545 28.7966 30.1968V25.5308C28.7966 25.2732 28.5877 25.0642 28.33 25.0642ZM27.8634 29.7302H25.5304V25.9974H27.8634V29.7302Z" fill="#222222"/>
<path d="M27.8634 29.7302V30.7302H28.8634V29.7302H27.8634ZM25.5304 29.7302H24.5304V30.7302H25.5304V29.7302ZM25.5304 25.9974V24.9974H24.5304V25.9974H25.5304ZM27.8634 25.9974H28.8634V24.9974H27.8634V25.9974ZM28.33 24.0642H25.0638V26.0642H28.33V24.0642ZM25.0638 24.0642C24.2538 24.0642 23.5972 24.7208 23.5972 25.5308H25.5972C25.5972 25.8254 25.3584 26.0642 25.0638 26.0642V24.0642ZM23.5972 25.5308V30.1968H25.5972V25.5308H23.5972ZM23.5972 30.1968C23.5972 31.0068 24.2538 31.6634 25.0638 31.6634V29.6634C25.3584 29.6634 25.5972 29.9022 25.5972 30.1968H23.5972ZM25.0638 31.6634H28.33V29.6634H25.0638V31.6634ZM28.33 31.6634C29.14 31.6634 29.7966 31.0068 29.7966 30.1968H27.7966C27.7966 29.9022 28.0354 29.6634 28.33 29.6634V31.6634ZM29.7966 30.1968V25.5308H27.7966V30.1968H29.7966ZM29.7966 25.5308C29.7966 24.721 29.14 24.0642 28.33 24.0642V26.0642C28.0353 26.0642 27.7966 25.8254 27.7966 25.5308H29.7966ZM27.8634 28.7302H25.5304V30.7302H27.8634V28.7302ZM26.5304 29.7302V25.9974H24.5304V29.7302H26.5304ZM25.5304 26.9974H27.8634V24.9974H25.5304V26.9974ZM26.8634 25.9974V29.7302H28.8634V25.9974H26.8634Z" fill="#757575" mask="url(#path-12-inside-6)"/>
<path d="M31.1296 32.4958H30.6964V32.0628L31.1296 32.0627V32.4958Z" fill="#222222" stroke="#757575"/>
</svg>
