<svg width="38" height="38" viewBox="0 0 38 38" fill="none" xmlns="http://www.w3.org/2000/svg">
<rect width="38" height="38" rx="3" fill="#F5F5F5"/>
<path d="M29.0264 7.67488L25.485 18.8408C25.2725 19.5107 24.5466 19.7713 24.2101 19.8178H11.3193C10.5261 19.8178 10.5166 19.1665 10.6111 18.8408C10.8472 18.3755 11.4327 17.2496 11.886 16.468C12.3393 15.6864 13.0192 15.491 13.3025 15.491L15.2857 15.3514C15.4274 15.0723 15.7674 14.3465 15.994 13.6766C16.2207 13.0066 17.1273 12.7461 17.5523 12.6995C18.4966 12.6065 20.6404 12.3925 21.6603 12.2808C22.6802 12.1692 23.313 11.4899 23.5018 11.1642C23.974 9.90806 24.9751 7.25616 25.2017 6.69787C25.4284 6.13957 26.0517 6 26.335 6H28.1765C29.3097 6 29.2153 7.11659 29.0264 7.67488Z" stroke="#757575"/>
<path d="M12.4526 21.7718V21.6076H17.8356H23.2185V22.7242C23.2185 22.9475 22.9352 23.1429 22.6519 23.1429H13.0192C12.6793 23.1429 12.4998 22.8638 12.4526 21.7718Z" stroke="#757575"/>
<path d="M30 26.7369L8 26.7369M8 26.7369L11.2353 30.0264M8 26.7369L11.2353 23.4474" stroke="#757575"/>
</svg>
