<svg width="38" height="38" viewBox="0 0 38 38" fill="none" xmlns="http://www.w3.org/2000/svg">
<rect width="38" height="38" rx="3" fill="#F5F5F5"/>
<g clip-path="url(#clip0)">
<path d="M29.8753 12.0277L29.8752 12.0276C28.3779 11.1549 26.6282 11.5964 25.3297 12.2019L21.3477 14.0588L21.1281 14.1612L20.9117 14.0523L14.1793 10.6662L11.3566 10.7875L16.2206 15.7185L16.7146 16.2193L16.0791 16.5212L12.475 18.2333L12.2821 18.3249L12.0826 18.249L8.53035 16.8971L6.78971 17.7087L8.65834 20.0292L8.91601 20.3491L8.65211 20.664C8.56356 20.7696 8.49765 20.8735 8.46203 20.9686L8.60669 20.7706C8.67925 20.6713 8.7917 20.5464 8.96889 20.3905L8.9689 20.3904L8.97935 20.3812L7.23606 18.2165L6.8358 17.7195L7.41416 17.4497L8.33976 17.0181L8.53136 16.9287L8.72894 17.0039L12.2832 18.3567L16.7642 16.2281L12.2149 11.6161L11.4236 10.8138L12.5494 10.7654L14.0429 10.7013L14.1729 10.6957L14.289 10.7541L21.1275 14.1935L25.342 12.2284C27.04 11.4366 28.5916 11.3135 29.8604 12.0528L29.8604 12.0528L29.9164 12.0854L29.919 12.0881C30.0573 12.1739 30.1701 12.2638 30.2562 12.3555C30.3049 12.4072 30.3524 12.4674 30.3902 12.5354C30.4206 12.5902 30.4762 12.7053 30.4702 12.8532C30.4702 12.8542 30.4702 12.8552 30.4701 12.8562L29.9706 12.8332C29.9705 12.8369 29.9396 13.206 28.6916 13.7879L29.8753 12.0277ZM29.8753 12.0277C30.1885 12.2102 30.3398 12.386 30.4145 12.5183C30.4884 12.649 30.5036 12.7655 30.4994 12.8574C30.4916 13.0298 30.4103 13.2342 30.1619 13.4783C29.9082 13.7277 29.5044 13.9929 28.9154 14.2676L29.8753 12.0277Z" fill="#222222" stroke="#757575"/>
<path d="M8 26.7369H30M30 26.7369L26.7647 23.4474M30 26.7369L26.7647 30.0263" stroke="#757575"/>
</g>
<defs>
<clipPath id="clip0">
<rect x="6" y="7" width="25" height="25" rx="3" fill="white"/>
</clipPath>
</defs>
</svg>
