<svg width="38" height="38" viewBox="0 0 38 38" fill="none" xmlns="http://www.w3.org/2000/svg">
<rect width="38" height="38" rx="3" fill="#F5F5F5"/>
<path d="M8.97358 7.67488L12.515 18.8408C12.7275 19.5107 13.4534 19.7713 13.7899 19.8178H26.6807C27.4739 19.8178 27.4834 19.1665 27.3889 18.8408C27.1528 18.3755 26.5673 17.2496 26.114 16.468C25.6607 15.6864 24.9808 15.491 24.6975 15.491L22.7143 15.3514C22.5726 15.0723 22.2326 14.3465 22.006 13.6766C21.7793 13.0066 20.8727 12.7461 20.4477 12.6995C19.5034 12.6065 17.3596 12.3925 16.3397 12.2808C15.3198 12.1692 14.687 11.4899 14.4982 11.1642C14.026 9.90806 13.0249 7.25616 12.7983 6.69787C12.5716 6.13957 11.9483 6 11.665 6H9.82352C8.69026 6 8.7847 7.11659 8.97358 7.67488Z" stroke="#757575"/>
<path d="M25.5474 21.7718V21.6076H20.1644H14.7815V22.7242C14.7815 22.9475 15.0648 23.1429 15.3481 23.1429H24.9808C25.3207 23.1429 25.5002 22.8638 25.5474 21.7718Z" stroke="#757575"/>
<path d="M8 26.7369L30 26.7369M30 26.7369L26.7647 30.0264M30 26.7369L26.7647 23.4474" stroke="#757575"/>
</svg>
