<svg width="85" height="50" viewBox="0 0 85 50" fill="none" xmlns="http://www.w3.org/2000/svg">
<path d="M80.2634 25C80.2634 37.0718 70.1897 47 57.6844 47C45.2949 47 35.1055 37.0718 35.1055 25C35.1055 12.9282 45.1792 3 57.5686 3C70.1897 3 80.2634 12.9282 80.2634 25Z" fill="#F9B50B"/>
<path d="M50.0421 25.1128C50.0421 23.5333 49.8105 21.9538 49.5789 20.4872H35.6842C35.8 19.6974 36.0316 19.0205 36.2632 18.1179H48.6526C48.4211 17.3282 48.0737 16.5385 47.7263 15.7487H37.1895C37.5368 14.959 38 14.2821 38.4632 13.3795H46.4526C45.9895 12.5897 45.4105 11.8 44.7158 11.0103H40.3158C41.0105 10.2205 41.7053 9.54359 42.6316 8.75385C38.6947 5.14359 33.3684 3 27.4632 3C15.1895 3.33846 5 12.9282 5 25C5 37.0718 15.0737 47 27.5789 47C33.4842 47 38.6947 44.7436 42.7474 41.2462C43.5579 40.5692 44.2526 39.7795 45.0632 38.8769H40.4316C39.8526 38.2 39.2737 37.4103 38.8105 36.6205H46.6842C47.1474 35.9436 47.6105 35.1538 47.9579 34.2513H37.4211C37.0737 33.5744 36.7263 32.7846 36.4947 31.8821H48.8842C49.5789 29.8513 50.0421 27.5949 50.0421 25.1128Z" fill="#C8191C"/>
<path d="M35.5689 30.6409L35.9163 28.6102C35.8005 28.6102 35.5689 28.723 35.3373 28.723C34.5268 28.723 34.411 28.2717 34.5268 28.0461L35.2215 23.9845H36.4952L36.8426 21.7281H35.6847L35.9163 20.3743H33.4847C33.4847 20.3743 32.0952 28.0461 32.0952 28.9486C32.0952 30.3025 32.9057 30.9794 34.0636 30.9794C34.7584 30.9794 35.3373 30.7538 35.5689 30.6409Z" fill="white"/>
<path d="M36.3784 26.9182C36.3784 30.19 38.6942 30.9797 40.5468 30.9797C42.2837 30.9797 43.0942 30.6413 43.0942 30.6413L43.5574 28.3849C43.5574 28.3849 42.2837 28.949 41.01 28.949C38.3468 28.949 38.81 27.031 38.81 27.031H43.6732C43.6732 27.031 44.0205 25.5644 44.0205 24.8874C44.0205 23.4208 43.21 21.5028 40.5468 21.5028C38.2311 21.39 36.3784 23.9849 36.3784 26.9182ZM40.5468 23.5336C41.8205 23.5336 41.5889 25.0003 41.5889 25.1131H38.9258C39.0416 25.0003 39.2732 23.5336 40.5468 23.5336Z" fill="white"/>
<path d="M55.7152 30.6407L56.1784 28.0459C56.1784 28.0459 55.0205 28.61 54.0942 28.61C52.4731 28.61 51.6626 27.3689 51.6626 25.9023C51.6626 23.0817 53.0521 21.6151 54.7889 21.6151C55.9468 21.6151 56.9889 22.292 56.9889 22.292L57.3363 19.81C57.3363 19.81 55.9468 19.2458 54.5573 19.2458C51.7784 19.2458 49.1152 21.6151 49.1152 26.0151C49.1152 28.9484 50.5047 30.8664 53.3994 30.8664C54.4416 30.9792 55.7152 30.6407 55.7152 30.6407Z" fill="white"/>
<path d="M22.4845 21.3899C20.8635 21.3899 19.5898 21.8412 19.5898 21.8412L19.2424 23.8719C19.2424 23.8719 20.2845 23.4207 21.9056 23.4207C22.7161 23.4207 23.4109 23.5335 23.4109 24.2104C23.4109 24.6617 23.2951 24.7745 23.2951 24.7745H22.253C20.1687 24.7745 17.9688 25.5643 17.9688 28.2719C17.9688 30.4155 19.3582 30.8668 20.2845 30.8668C21.9056 30.8668 22.7161 29.8514 22.8319 29.8514L22.7161 30.754H24.6845L25.6109 24.3232C25.6109 21.5027 23.2951 21.3899 22.4845 21.3899ZM22.9477 26.5796C22.9477 26.9181 22.7161 28.836 21.3266 28.836C20.6319 28.836 20.4003 28.2719 20.4003 27.9335C20.4003 27.3694 20.7477 26.5796 22.6003 26.5796C22.8319 26.5796 22.9477 26.5796 22.9477 26.5796Z" fill="white"/>
<path d="M27.926 30.8666C28.5049 30.8666 31.5155 30.9794 31.5155 27.8204C31.5155 24.8871 28.6207 25.4512 28.6207 24.323C28.6207 23.7589 29.0839 23.5333 29.8944 23.5333C30.2418 23.5333 31.5155 23.6461 31.5155 23.6461L31.8628 21.5025C31.8628 21.5025 31.0523 21.2769 29.547 21.2769C27.8102 21.2769 25.9576 21.9538 25.9576 24.323C25.9576 27.0307 28.9681 26.8051 28.9681 27.8204C28.9681 28.4974 28.1576 28.6102 27.5786 28.6102C26.5365 28.6102 25.3786 28.2717 25.3786 28.2717L25.0312 30.4153C25.2628 30.641 25.9576 30.8666 27.926 30.8666Z" fill="white"/>
<path d="M75.6309 19.5845L75.1677 22.7434C75.1677 22.7434 74.2414 21.6152 72.8519 21.6152C70.6519 21.6152 68.7993 24.2101 68.7993 27.2563C68.7993 29.1742 69.7256 31.0922 71.8098 31.0922C73.1993 31.0922 74.1256 30.1896 74.1256 30.1896L74.0098 30.9793H76.4414L78.1783 19.8101L75.6309 19.5845ZM74.473 25.6768C74.473 26.9178 73.8941 28.6101 72.5046 28.6101C71.6941 28.6101 71.2309 27.9332 71.2309 26.6922C71.2309 24.7742 72.0414 23.646 73.1993 23.646C74.0098 23.7588 74.473 24.3229 74.473 25.6768Z" fill="white"/>
<path d="M9.39977 30.7537L10.7892 22.405L11.0208 30.7537H12.6419L15.7682 22.405L14.4945 30.7537H17.0419L19.0103 19.5845H15.0735L12.6419 26.4665L12.5261 19.5845H9.05241L7.08398 30.7537H9.39977Z" fill="white"/>
<path d="M46.4527 30.7539C47.1474 26.918 47.2632 23.7591 49.0001 24.3232C49.2317 22.8565 49.579 22.1796 49.8106 21.6155H49.3474C48.3053 21.6155 47.379 22.9693 47.379 22.9693L47.6106 21.7283H45.2948L43.7896 30.7539H46.4527Z" fill="white"/>
<path d="M61.2741 21.3899C59.653 21.3899 58.3794 21.8412 58.3794 21.8412L58.032 23.8719C58.032 23.8719 59.0741 23.4207 60.6951 23.4207C61.5057 23.4207 62.2004 23.5335 62.2004 24.2104C62.2004 24.6617 62.0846 24.7745 62.0846 24.7745H61.0425C58.9583 24.7745 56.7583 25.5643 56.7583 28.2719C56.7583 30.4155 58.1478 30.8668 59.0741 30.8668C60.6951 30.8668 61.5057 29.8514 61.6215 29.8514L61.5057 30.754H63.7057L64.632 24.3232C64.632 21.5027 62.0846 21.3899 61.2741 21.3899ZM61.853 26.5796C61.853 26.9181 61.6215 28.836 60.232 28.836C59.5372 28.836 59.3057 28.2719 59.3057 27.9335C59.3057 27.3694 59.653 26.5796 61.5057 26.5796C61.7372 26.5796 61.7372 26.5796 61.853 26.5796Z" fill="white"/>
<path d="M66.484 30.7539C67.1787 26.918 67.2945 23.7591 69.0313 24.3232C69.2629 22.8565 69.6103 22.1796 69.8419 21.6155H69.3787C68.3366 21.6155 67.4103 22.9693 67.4103 22.9693L67.6419 21.7283H65.3261L63.8208 30.7539H66.484Z" fill="white"/>
</svg>
