<svg width="162" height="35" viewBox="0 0 162 35" fill="none" xmlns="http://www.w3.org/2000/svg">
<g clip-path="url(#clip0_56_10538)">
<path d="M5.30615 23.667V26.2436C4.77745 25.2526 4.11658 24.4598 3.12526 24.4598C2.53047 24.4598 1.93569 24.7901 1.40699 25.4508C0.680023 26.3097 0.812198 26.9704 1.01046 27.4329C1.3409 28.0935 2.06786 28.556 2.927 28.8203C1.73742 29.1506 0.547848 29.7452 0.151323 30.6041C-0.04694 31.0666 -0.179115 31.8594 0.613936 32.8504C1.27481 33.6432 1.93569 34.0396 2.59656 34.0396C3.78614 34.0396 4.64528 32.9165 5.24007 31.5951V34.7664H19.9115V23.667H5.30615ZM2.20004 26.9043C2.13395 26.7722 2.20004 26.5079 2.46439 26.2436C2.72874 25.9133 2.99309 25.7151 3.19135 25.7151C3.58788 25.7151 4.24875 26.5079 4.71136 28.0275C3.65396 27.7632 2.3983 27.3668 2.20004 26.9043ZM2.66265 32.7843C2.26612 32.7843 1.8696 32.3879 1.60525 32.0576C1.14264 31.463 1.27481 31.1987 1.27481 31.1326C1.60525 30.472 3.25744 29.8774 4.71136 29.6792C4.05049 31.7933 3.25744 32.7843 2.66265 32.7843Z" fill="#E7262E"/>
<path d="M40.9942 16.3998C40.0028 15.1445 38.9454 14.5499 37.822 14.5499C36.0376 14.5499 34.7158 16.2016 33.7245 18.1175V5.36646H21.9609V34.7005H33.6584V27.4331C34.4515 28.7544 35.5089 29.8776 36.8306 29.8776C37.7559 29.8776 38.6811 29.349 39.5402 28.292C40.6637 26.9706 40.4655 25.8474 40.2011 25.1868C39.7385 24.1297 38.5489 23.4029 37.2272 23.0065C39.1437 22.478 40.9942 21.553 41.655 20.0996C42.1176 19.2407 42.2498 17.9854 40.9942 16.3998ZM38.4167 25.9796C38.5489 26.2439 38.4167 26.5742 38.0202 26.9706C37.5576 27.4991 37.1611 27.8295 36.8306 27.8295C36.1698 27.8295 35.2445 26.6403 34.4515 24.2618C36.1698 24.5261 38.0863 25.1868 38.4167 25.9796ZM39.9368 19.1746C39.4081 20.2978 36.7646 21.1566 34.4515 21.487C35.575 18.0515 36.8967 16.5319 37.7559 16.5319C38.3507 16.5319 38.9454 17.1265 39.4081 17.6551C40.2011 18.6461 40.0028 19.0425 39.9368 19.1746Z" fill="#23315D"/>
<path d="M17.2682 5.43245C17.136 2.92188 15.0873 0.873779 12.576 0.873779C10.0646 0.873779 7.94982 2.92188 7.88374 5.43245H5.24023V21.7512H19.9117V5.43245H17.2682ZM12.576 2.12907C14.4264 2.12907 15.8803 3.58256 16.0125 5.36638H9.1394C9.27157 3.58256 10.7255 2.12907 12.576 2.12907Z" fill="#8AC8E8"/>
<path d="M63.9256 32.1238C63.9256 32.8505 63.0665 33.2469 62.3395 33.5112C60.8195 34.1058 58.7047 34.4361 56.9204 34.4361C52.4264 34.4361 50.3116 32.7184 48.9899 31.0006C46.6768 27.9615 46.2803 24.2617 46.2803 20.4958C46.2803 17.2585 46.6107 13.0302 48.9899 9.66073C51.1047 6.75375 54.2769 5.96094 56.9204 5.96094C59.5639 5.96094 63.5952 7.08409 63.5952 8.60365V13.8891C63.5952 14.6819 63.1326 14.5497 62.9343 14.5497H60.0265C59.2334 14.5497 59.3656 14.2194 59.3656 13.8891V10.5857C58.3743 10.2553 57.7134 10.2553 57.2508 10.2553C55.9951 10.2553 54.7395 10.5196 53.8143 11.5106C52.1621 13.2284 51.9638 16.5318 51.9638 19.5709C51.9638 23.7992 52.3603 27.1026 53.9464 28.7543C54.8056 29.6792 55.9951 30.1417 57.5812 30.1417C58.176 30.1417 58.7708 30.0757 59.696 29.8775V26.3759C59.696 26.1777 59.5639 25.7152 60.3569 25.7152H63.2648C64.0578 25.7152 63.9256 26.1777 63.9256 26.3759V32.1238Z" fill="#23315D"/>
<path d="M84.8755 33.1813C84.8755 33.4456 84.9416 33.7099 84.3468 33.7099H79.3903C78.6633 33.7099 78.3989 33.0492 78.2668 32.2564C78.2668 32.1903 78.2007 32.1243 78.2007 31.9921C76.6146 33.6438 75.2267 34.3706 73.1119 34.3706C70.2041 34.3706 67.1641 32.6528 67.1641 28.2923C67.1641 23.2712 70.9971 21.6195 76.945 21.6195H77.4737V20.3642C77.4737 19.3071 77.5398 17.4572 74.9624 17.4572C73.3102 17.4572 71.7241 17.9858 70.9311 18.25C70.2702 18.5143 70.0058 18.6464 69.6754 18.6464C69.411 18.6464 69.3449 18.3822 69.2789 18.25L68.4858 15.8055C68.3536 15.4752 68.0232 14.9467 69.2789 14.5502C70.138 14.2199 72.4511 13.4932 75.7554 13.4932C81.439 13.4932 82.0999 17.3912 82.0999 19.8357V26.7067C82.0999 28.7548 82.232 29.0851 82.4303 29.878L82.4964 30.0101H84.2147C84.8094 30.0101 84.7434 30.3404 84.7434 30.5386V33.1813H84.8755ZM77.4737 24.8568H77.2094C76.0859 24.8568 74.4998 24.8568 73.3102 25.5175C72.5172 25.98 71.8563 26.7728 71.8563 28.0281C71.8563 29.6137 72.9137 30.7368 74.4998 30.7368C75.6894 30.7368 76.5485 30.0762 77.4737 29.2173V24.8568Z" fill="#23315D"/>
<path d="M95.5165 17.4571C95.0539 17.391 94.5913 17.3249 93.9304 17.3249C91.5513 17.3249 91.4191 18.8445 91.4191 19.307C91.4191 20.3641 92.08 20.7605 92.8069 21.0908C93.5339 21.4211 94.1287 21.6193 95.4504 22.0818C96.3757 22.4122 98.0939 23.0728 99.2835 24.5263C99.9444 25.3191 100.539 26.5084 100.539 28.094C100.539 29.4814 100.143 31.1992 98.7548 32.5866C97.8296 33.5115 96.3096 34.4365 93.7322 34.4365C91.9478 34.4365 86.793 33.5776 86.793 32.1241V27.8297C86.793 27.2351 87.1234 27.3012 87.3217 27.3012H90.0313C90.6921 27.3012 90.56 27.6315 90.56 28.0279V29.9439C91.6834 30.2742 92.4765 30.4724 93.4017 30.4724C95.4504 30.4724 95.847 29.2171 95.847 28.4904C95.847 27.3672 95.12 26.9048 94.327 26.5744C93.4017 26.1119 92.2122 25.7816 91.4852 25.5173C90.1634 24.9888 89.1721 24.4603 88.3791 23.6014C87.3878 22.5443 87.0573 21.289 87.0573 20.0337C87.0573 17.7213 88.1147 16.3339 88.9078 15.475C90.1634 14.2198 91.8156 13.5591 94.4591 13.5591C95.847 13.5591 99.5479 14.0876 99.5479 15.409V19.5052C99.5479 20.1659 99.2835 20.0337 99.0192 20.0337H96.3096C96.1113 20.0337 95.7809 20.0998 95.7809 19.5052V17.4571H95.5165Z" fill="#23315D"/>
<path d="M122.942 33.1809C122.942 33.4452 123.009 33.7095 122.414 33.7095H115.937C115.739 33.7095 115.408 33.7756 115.408 33.1809V21.0245C115.408 20.2317 115.408 19.3728 115.012 18.7121C114.748 18.2496 114.219 17.655 113.162 17.655C112.038 17.655 110.65 18.5139 109.791 19.3067V30.0097H111.84C112.501 30.0097 112.368 30.274 112.368 30.5382V33.1809C112.368 33.4452 112.435 33.7095 111.84 33.7095H102.786C102.587 33.7095 102.257 33.7756 102.257 33.1809V30.6043C102.257 30.4061 102.191 30.0758 102.786 30.0758H104.834V9.06623H102.852C102.654 9.06623 102.323 9.1323 102.323 8.53769V5.89498C102.323 5.30037 102.654 5.36644 102.852 5.36644H109.328C109.989 5.36644 109.857 5.63071 109.857 5.89498V15.7391C111.84 13.9552 113.69 13.4928 115.342 13.4928C120.233 13.4928 120.497 17.4568 120.497 19.7692V30.0758H122.546C123.207 30.0758 123.075 30.34 123.075 30.6043V33.1809H122.942Z" fill="#23315D"/>
<path d="M131.137 15.2766L131.666 14.9463C132.327 14.4838 133.913 13.5588 135.962 13.5588C139.464 13.5588 142.901 15.5409 142.901 23.6011C142.901 32.3221 138.076 34.5023 134.772 34.5023C132.657 34.5023 131.335 33.6434 130.675 32.9827L130.476 32.7845L130.344 33.1149C129.683 34.7666 129.419 34.6344 128.758 34.4362L125.586 33.6434C125.255 33.5774 125.189 33.3792 125.189 33.3131C125.189 33.247 125.189 33.247 125.189 33.247C125.321 32.5203 126.048 32.7185 126.048 28.8205V9.06623H124.066C123.868 9.06623 123.537 9.1323 123.537 8.53769V5.89498C123.537 5.30037 123.868 5.36644 124.066 5.36644H130.542C131.203 5.36644 131.071 5.63071 131.071 5.89498V15.2766H131.137ZM131.137 29.6133C132.128 30.34 133.252 30.4722 133.649 30.4722C137.349 30.4722 137.944 26.5742 137.944 23.7333C137.944 21.0906 137.68 17.4568 134.309 17.4568C132.988 17.4568 131.798 18.3157 131.335 18.6461L131.137 18.7782V29.6133Z" fill="#23315D"/>
<path d="M150.302 25.319C150.302 28.226 151.36 30.2741 154.664 30.2741C156.514 30.2741 157.902 29.7456 158.629 29.3492C158.761 29.2831 158.894 29.217 159.092 29.151C159.356 29.0188 159.555 28.9528 159.753 28.9528C160.017 28.9528 160.083 29.0849 160.215 29.2831L161.207 31.5955C161.273 31.7276 161.339 31.8597 161.339 32.0579C161.339 32.3222 161.207 32.5204 160.678 32.8508C159.224 33.7757 156.581 34.4364 154.334 34.4364C151.756 34.4364 149.509 33.7757 147.923 32.124C146.601 30.7366 145.346 28.3582 145.346 24.4602C145.346 20.9586 146.073 18.3819 147.989 16.2017C149.245 14.7482 151.029 13.4929 154.069 13.4929C157.175 13.4929 162 14.8143 162 23.9977C162 25.0548 161.868 25.253 161.075 25.253H150.302V25.319ZM156.514 21.6192C156.514 21.4871 156.514 21.355 156.514 21.2228C156.514 20.6943 156.448 20.0997 156.382 19.5711C156.25 19.0426 156.052 18.3819 155.523 17.8534C155.061 17.3909 154.4 17.1266 153.607 17.1266C152.748 17.1266 151.954 17.3909 151.36 18.1837C150.633 19.1087 150.434 20.2318 150.302 21.5532H156.514V21.6192Z" fill="#23315D"/>
</g>
<defs>
<clipPath id="clip0_56_10538">
<rect width="162" height="33.8927" fill="white" transform="translate(0 0.873779)"/>
</clipPath>
</defs>
</svg>
