<svg width="188" height="50" viewBox="0 0 188 50" fill="none" xmlns="http://www.w3.org/2000/svg">
<path d="M166.382 25.1287C166.382 19.6335 162.438 15.1885 156.867 15.1885C151.407 15.1885 147.518 19.4628 147.518 25.3353C147.518 31.2376 151.516 35.5415 157.253 35.5415C160.894 35.5415 163.954 33.8256 165.858 30.3357L161.997 28.4454C161.087 30.1898 159.1 31.3242 157.253 31.3242C154.91 31.3242 152.207 29.4636 152.041 26.8768H166.244C166.335 26.299 166.381 25.7151 166.382 25.1287ZM152.123 23.4487C152.455 20.8322 154.163 19.1176 156.894 19.1176C159.597 19.1176 161.252 20.7976 161.472 23.4487H152.123ZM113.217 15.1848C107.618 15.1848 103.647 19.4306 103.647 25.4207C103.647 31.3514 107.618 35.539 113.272 35.539C118.953 35.539 122.924 31.3514 122.924 25.5085C122.925 19.4887 118.844 15.1848 113.217 15.1848ZM113.273 31.0891C110.459 31.0891 108.722 28.8797 108.722 25.4491C108.722 21.9605 110.487 19.5766 113.273 19.5766C116.086 19.5766 117.851 21.9308 117.851 25.4491C117.851 28.9094 116.113 31.0891 113.273 31.0891ZM93.2807 15.1898C90.9877 15.1898 89.2591 16.0162 87.5316 18.0636H86.9648C85.8042 16.2141 83.9101 15.1898 81.786 15.1898C79.6338 15.1675 77.6024 16.2364 76.3268 18.0636H75.76L75.7318 18.0351V15.5881H70.9849V35.1098H76.1132V25.0632C76.1132 21.8195 77.4088 19.9131 79.6502 19.9131C81.7285 19.9131 83.0781 21.5362 83.0781 24.0104V35.1098H88.2334V25.0632C88.2334 21.843 89.529 19.9131 91.7974 19.9131C93.8476 19.9131 95.1701 21.5362 95.1701 24.0401V35.1098H100.327V23.3844C100.327 18.2924 97.7343 15.1898 93.2807 15.1898ZM177.788 28.3403H177.422C177.422 27.9927 175.185 21.8108 173.719 17.9807L172.803 15.5856H167.636L174.967 35.1753L172.079 42.6401H177.21L187.765 15.5918H182.595L181.751 17.6405L178.892 25.0978C178.086 27.1811 177.756 28.1473 177.788 28.3403ZM137.15 15.1898C134.854 15.1898 132.884 16.2425 131.561 18.1217H131.02L130.967 18.0933V15.5881H126.218V35.1098H131.347V25.1213C131.347 21.9345 132.808 19.9415 135.207 19.9415C137.448 19.9415 139.094 21.7056 139.094 24.4941V35.1085H144.222V23.33C144.224 18.5485 141.255 15.1898 137.15 15.1898Z" fill="black"/>
<path d="M36.1506 4C25.0689 4 16.1654 13.4503 16.1654 25C16.1654 36.645 25.1569 46 36.1482 46C47.1395 46 56.1393 36.5497 56.1393 25C56.1393 13.4503 47.1418 4 36.1506 4ZM36.1506 32.8272C32.0632 32.8272 28.7034 29.2953 28.7034 25C28.7034 20.7047 32.0632 17.1728 36.1506 17.1728C40.238 17.1728 43.599 20.7047 43.599 25C43.5074 29.2953 40.238 32.8272 36.1506 32.8272ZM16.1654 10.1014V40.647H9.08429L0 10.1014H16.1654Z" fill="#8B3FFD"/>
</svg>
