<svg width="107" height="50" viewBox="0 0 107 50" fill="none" xmlns="http://www.w3.org/2000/svg">
<path d="M52.0522 28.3418H53.7217V32.2553H54.916L57.0761 28.3418H58.8875L56.2861 32.9178V32.9501L59.0418 37.9624H57.1532L54.916 33.7613H53.7279V37.9624H52.0584L52.0522 28.3418ZM62.7757 30.8883C64.7908 30.8883 66.4078 32.391 66.4078 34.5013C66.4078 36.6116 64.7908 38.1207 62.7881 38.1207C60.7853 38.1207 59.1683 36.6309 59.1683 34.5045C59.1683 32.3781 60.7792 30.8883 62.7757 30.8883ZM62.7757 36.6568C63.1866 36.6788 63.5944 36.5713 63.9464 36.3481C64.2984 36.125 64.5785 35.7966 64.7505 35.4052C64.9225 35.0137 64.9785 34.5773 64.9113 34.1522C64.8441 33.7271 64.6569 33.3328 64.3736 33.0203C64.0904 32.7078 63.7242 32.4913 63.3224 32.3988C62.9205 32.3063 62.5014 32.3421 62.1191 32.5015C61.7369 32.661 61.409 32.9367 61.1779 33.2931C60.9467 33.6496 60.8229 34.0704 60.8224 34.5013C60.8098 34.7797 60.8514 35.0578 60.9446 35.3189C61.0377 35.5799 61.1805 35.8185 61.3643 36.02C61.5481 36.2215 61.7691 36.3819 62.0138 36.4914C62.2585 36.6008 62.5219 36.6571 62.7881 36.6568H62.7757ZM67.7132 31.0499H69.2777V36.5049H71.3329V31.0499H72.8975V36.5049H74.9743V31.0499H76.5172V37.9559H67.7255L67.7132 31.0499ZM81.2263 30.8883C83.1149 30.8883 84.1486 32.3361 84.1486 34.162C84.1451 34.3848 84.1276 34.6072 84.0962 34.8277H79.5722C79.6741 36.0331 80.5536 36.6568 81.5503 36.6568C82.2428 36.6299 82.9071 36.3627 83.4389 35.8974L84.0838 37.1286C83.3364 37.77 82.3994 38.1195 81.433 38.1175C79.2482 38.1175 77.8781 36.4661 77.8781 34.5013C77.8781 32.3749 79.2606 30.8883 81.2386 30.8883H81.2263ZM82.5069 33.6481C82.5069 32.7271 81.9237 32.1874 81.1893 32.1874C80.7985 32.1822 80.4196 32.3284 80.1257 32.5981C79.8317 32.8678 79.6434 33.2418 79.5969 33.6481H82.5069ZM84.9263 36.5049C85.7409 36.3853 86.3088 35.6679 86.3088 33.2151V31.0499H91.1197V37.9559H89.478V32.4427H87.8733V33.2151C87.8733 36.2205 87.1111 37.9559 84.9263 38.0238V36.5049ZM95.8164 30.8883C97.7019 30.8883 98.7387 32.3361 98.7387 34.162C98.7336 34.3848 98.7161 34.607 98.6863 34.8277H94.1593C94.191 35.3445 94.417 35.8271 94.7877 36.1699C95.1584 36.5127 95.6437 36.6878 96.1373 36.6568C96.8298 36.6299 97.4942 36.3627 98.0259 35.8974L98.6739 37.1286C97.9262 37.7695 96.9894 38.119 96.0231 38.1175C93.8352 38.1175 92.4651 36.4661 92.4651 34.5013C92.4651 32.3749 93.8507 30.8883 95.8287 30.8883H95.8164ZM97.097 33.6481C97.0816 32.7271 96.5138 32.1874 95.7763 32.1874C95.3858 32.1822 95.0074 32.3286 94.7139 32.5983C94.4205 32.8681 94.2328 33.2421 94.187 33.6481H97.097ZM100.121 31.0628H101.763V33.7031H102.565L104.167 31.0628H105.991L103.895 34.3526V34.3785L106.25 37.9688H104.349L102.618 35.1638H101.763V37.9688H100.121V31.0628Z" fill="#2D3540"/>
<path d="M75.0889 7.352V23.6815C75.0889 23.7989 75.0443 23.9115 74.9651 23.9945C74.8858 24.0776 74.7783 24.1242 74.6661 24.1242H71.4815C71.4257 24.1246 71.3704 24.1135 71.3187 24.0914C71.2671 24.0694 71.2201 24.0368 71.1805 23.9957C71.141 23.9545 71.1095 23.9056 71.0881 23.8516C71.0667 23.7977 71.0556 23.7399 71.0556 23.6815V7.352C71.0556 7.29359 71.0667 7.23575 71.0881 7.18183C71.1095 7.1279 71.141 7.07895 71.1805 7.0378C71.2201 6.99664 71.2671 6.9641 71.3187 6.94204C71.3704 6.91998 71.4257 6.90884 71.4815 6.90927H74.6661C74.7783 6.90927 74.8858 6.95591 74.9651 7.03894C75.0443 7.12197 75.0889 7.23458 75.0889 7.352ZM99.9087 6.90927H96.3445C96.2528 6.90991 96.1637 6.94178 96.0908 7.00008C96.0179 7.05837 95.9651 7.13993 95.9403 7.23243L93.1198 16.8692L90.0184 7.20981C89.99 7.12205 89.936 7.04584 89.8641 6.99192C89.7921 6.938 89.7058 6.9091 89.6173 6.90927H87.1301C87.0417 6.90958 86.9556 6.93867 86.8837 6.99252C86.8118 7.04638 86.7577 7.12231 86.7289 7.20981L83.643 16.8692L80.8225 7.21951C80.7971 7.12674 80.7437 7.0451 80.6702 6.98683C80.5968 6.92856 80.5073 6.89681 80.4152 6.89634H76.8417C76.7742 6.89594 76.7076 6.91245 76.6475 6.9445C76.5874 6.97654 76.5355 7.02319 76.4961 7.08055C76.4566 7.1364 76.4306 7.20145 76.4204 7.27012C76.4102 7.33879 76.416 7.40902 76.4374 7.47481L81.6834 23.814C81.7119 23.9017 81.7659 23.9779 81.8378 24.0318C81.9098 24.0858 81.9961 24.1147 82.0846 24.1145H84.9113C85.0002 24.1149 85.087 24.0861 85.1595 24.0322C85.232 23.9783 85.2866 23.902 85.3156 23.814L88.3829 14.2677L91.4534 23.814C91.4818 23.9017 91.5358 23.9779 91.6078 24.0318C91.6798 24.0858 91.7661 24.1147 91.8546 24.1145H94.6843C94.7727 24.1142 94.8588 24.0851 94.9307 24.0312C95.0026 23.9774 95.0567 23.9015 95.0855 23.814L100.332 7.47481C100.353 7.40902 100.359 7.33879 100.349 7.27012C100.338 7.20145 100.312 7.1364 100.273 7.08055C100.231 7.02236 100.175 6.97619 100.112 6.94626C100.048 6.91634 99.9783 6.90362 99.9087 6.90927ZM105.269 6.90927H102.084C102.029 6.90884 101.973 6.91998 101.922 6.94204C101.87 6.9641 101.823 6.99664 101.783 7.0378C101.744 7.07895 101.712 7.1279 101.691 7.18183C101.669 7.23575 101.658 7.29359 101.658 7.352V23.6815C101.658 23.7399 101.669 23.7977 101.691 23.8516C101.712 23.9056 101.744 23.9545 101.783 23.9957C101.823 24.0368 101.87 24.0694 101.922 24.0914C101.973 24.1135 102.029 24.1246 102.084 24.1242H105.269C105.381 24.1242 105.489 24.0776 105.568 23.9945C105.647 23.9115 105.692 23.7989 105.692 23.6815V7.352C105.692 7.23458 105.647 7.12197 105.568 7.03894C105.489 6.95591 105.381 6.90927 105.269 6.90927ZM69.2133 23.5781C69.2631 23.624 69.2973 23.6855 69.311 23.7535C69.3247 23.8214 69.3172 23.8922 69.2895 23.9553C69.2618 24.0184 69.2154 24.0705 69.1572 24.1038C69.099 24.1371 69.0322 24.1499 68.9665 24.1404H65.0628C64.9843 24.1401 64.9069 24.1217 64.8359 24.0865C64.765 24.0513 64.7023 24.0002 64.6524 23.9368L63.992 23.103C62.2058 24.3113 60.0561 24.7851 57.9563 24.4334C55.8566 24.0816 53.9552 22.9292 52.6181 21.1977C51.2809 19.4663 50.6024 17.2781 50.7131 15.0543C50.8237 12.8304 51.7158 10.728 53.2176 9.15152C54.7194 7.57501 56.7249 6.63579 58.8481 6.51456C60.9714 6.39333 63.0625 7.09865 64.7191 8.49482C66.3756 9.89099 67.4807 11.8794 67.8216 14.0774C68.1625 16.2755 67.7151 18.5279 66.5657 20.4014L69.2133 23.5781ZM61.477 19.9263L59.7674 17.7611C59.7279 17.7101 59.703 17.6484 59.6955 17.5832C59.688 17.518 59.6982 17.4519 59.7249 17.3925C59.7517 17.3331 59.7939 17.2828 59.8467 17.2474C59.8995 17.212 59.9608 17.1929 60.0236 17.1923H63.6001C63.7751 16.6488 63.8647 16.0791 63.8655 15.5054C63.8655 12.807 61.9492 10.4802 59.3169 10.4802C56.6846 10.4802 54.7683 12.807 54.7683 15.5054C54.7683 18.2038 56.6877 20.4951 59.3169 20.4951C60.0716 20.5023 60.8154 20.3065 61.477 19.9263ZM36.7096 31.4826C36.5582 31.3987 36.3817 31.379 36.2168 31.4278C36.0518 31.4765 35.9112 31.5899 35.824 31.7444C35.5925 32.1904 35.7654 33.0726 36.2344 33.8417C36.7035 34.6109 37.117 35.018 37.4379 35.018C37.7588 35.018 38.0273 34.6141 37.8884 33.6381C37.8144 33.0564 37.5058 31.7929 36.7096 31.4826ZM32.0006 35.1215C31.8124 35.1097 31.6243 35.1432 31.4504 35.2193C31.2766 35.2955 31.1217 35.4124 30.9976 35.561C30.436 36.2848 30.6891 37.5613 31.5469 38.3466C31.9535 38.7004 32.4656 38.8937 32.9942 38.8928C33.2353 38.9044 33.4756 38.8567 33.6959 38.7535C33.9162 38.6502 34.1102 38.4942 34.2625 38.2982C34.7624 37.5969 34.4754 36.6015 33.5281 35.7645C33.1093 35.3709 32.5721 35.1434 32.0098 35.1215H32.0006ZM21.2277 44.4738C16.5398 44.4723 11.9841 42.8463 8.27109 39.8492C4.5581 36.8522 1.89655 32.6526 0.701519 27.9055C-0.493515 23.1583 -0.154851 18.1305 1.6647 13.606C3.48424 9.08157 6.68238 5.31486 10.7603 2.89333C14.8383 0.471799 19.5669 -0.468422 24.2086 0.219295C28.8503 0.907011 33.1442 3.184 36.4207 6.69517C39.6972 10.2063 41.772 14.7543 42.3216 19.6298C42.8713 24.5052 41.8648 29.4342 39.4592 33.6478C39.4455 33.6718 39.425 33.6906 39.4005 33.7016C39.3761 33.7126 39.3489 33.7153 39.3229 33.7092C39.2969 33.7031 39.2735 33.6886 39.2558 33.6677C39.2382 33.6468 39.2273 33.6206 39.2246 33.5929C38.4964 28.1282 35.3056 25.1131 30.6644 24.2244C30.2632 24.1468 30.1861 23.9012 30.7199 23.8398C32.205 23.7028 33.6998 23.732 35.179 23.9271C35.24 23.3595 35.2699 22.7887 35.2685 22.2175C35.2685 19.3094 34.445 16.4665 32.9022 14.0485C31.3594 11.6304 29.1665 9.74576 26.6009 8.63286C24.0353 7.51995 21.2121 7.22876 18.4885 7.79612C15.7648 8.36347 13.263 9.76389 11.2993 11.8203C9.33571 13.8767 7.99845 16.4966 7.45668 19.3489C6.91491 22.2012 7.19297 25.1577 8.25568 27.8445C9.3184 30.5313 11.118 32.8277 13.427 34.4434C15.736 36.0591 18.4507 36.9215 21.2277 36.9215C21.4468 36.9215 21.669 36.9215 21.8881 36.9215C21.6721 35.6092 21.5831 34.2775 21.6227 32.9466C21.6566 32.0482 21.8325 31.9254 22.2183 32.6234C24.1593 36.1297 26.949 39.3258 32.3678 40.5765C36.7991 41.5977 41.2428 42.8095 46.0475 49.1597C46.4734 49.7252 45.8223 50.2875 45.3347 49.8351C40.4436 45.3108 36.0276 43.8372 31.9574 43.8372C27.4273 43.8404 24.3383 44.4738 21.2277 44.4738Z" fill="#FF8C00"/>
</svg>
