<svg width="162" height="50" viewBox="0 0 162 50" fill="none" xmlns="http://www.w3.org/2000/svg">
<g clip-path="url(#clip0_47_8357)">
<path d="M5.30615 39.1929V41.7016C4.77745 40.7367 4.11658 39.9648 3.12526 39.9648C2.53047 39.9648 1.93569 40.2864 1.40699 40.9297C0.680023 41.766 0.812198 42.4092 1.01046 42.8595C1.3409 43.5028 2.06786 43.9531 2.927 44.2104C1.73742 44.5321 0.547848 45.111 0.151323 45.9473C-0.04694 46.3975 -0.179115 47.1695 0.613936 48.1344C1.27481 48.9063 1.93569 49.2923 2.59656 49.2923C3.78614 49.2923 4.64528 48.1987 5.24007 46.9122V49.9999H19.9115V39.1929H5.30615ZM2.20004 42.3449C2.13395 42.2163 2.20004 41.959 2.46439 41.7016C2.72874 41.38 2.99309 41.187 3.19135 41.187C3.58788 41.187 4.24875 41.959 4.71136 43.4385C3.65396 43.1812 2.3983 42.7952 2.20004 42.3449ZM2.66265 48.0701C2.26612 48.0701 1.8696 47.6841 1.60525 47.3625C1.14264 46.7835 1.27481 46.5262 1.27481 46.4619C1.60525 45.8186 3.25744 45.2397 4.71136 45.0467C4.05049 47.1052 3.25744 48.0701 2.66265 48.0701Z" fill="#E7262E"/>
<path d="M40.9937 32.117C40.0024 30.8947 38.945 30.3158 37.8215 30.3158C36.0371 30.3158 34.7154 31.924 33.724 33.7895V21.3743H21.9604V49.9357H33.6579V42.8596C34.451 44.1462 35.5084 45.2398 36.8302 45.2398C37.7554 45.2398 38.6806 44.7251 39.5397 43.6959C40.6632 42.4093 40.465 41.3158 40.2006 40.6725C39.738 39.6433 38.5484 38.9357 37.2267 38.5497C39.1432 38.0351 40.9937 37.1345 41.6545 35.7193C42.1172 34.883 42.2493 33.6608 40.9937 32.117ZM38.4163 41.4444C38.5484 41.7017 38.4163 42.0234 38.0197 42.4093C37.5571 42.924 37.1606 43.2456 36.8302 43.2456C36.1693 43.2456 35.2441 42.0877 34.451 39.7719C36.1693 40.0292 38.0858 40.6725 38.4163 41.4444ZM39.9363 34.8187C39.4076 35.9123 36.7641 36.7485 34.451 37.0702C35.5745 33.7251 36.8962 32.2456 37.7554 32.2456C38.3502 32.2456 38.945 32.8246 39.4076 33.3392C40.2006 34.3041 40.0024 34.6901 39.9363 34.8187Z" fill="#23315D"/>
<path d="M17.2677 21.4386C17.1355 18.9942 15.0868 17 12.5755 17C10.0641 17 7.94934 18.9942 7.88325 21.4386H5.23975V37.3275H19.9112V21.4386H17.2677ZM12.5755 18.2222C14.4259 18.2222 15.8798 19.6374 16.012 21.3743H9.13891C9.27109 19.6374 10.725 18.2222 12.5755 18.2222Z" fill="#8AC8E8"/>
<path d="M63.9256 47.4268C63.9256 48.1344 63.0665 48.5204 62.3395 48.7777C60.8195 49.3566 58.7047 49.6783 56.9204 49.6783C52.4264 49.6783 50.3116 48.0058 48.9899 46.3332C46.6768 43.3742 46.2803 39.7718 46.2803 36.1052C46.2803 32.9531 46.6107 28.8362 48.9899 25.5555C51.1047 22.7251 54.2769 21.9531 56.9204 21.9531C59.5639 21.9531 63.5952 23.0467 63.5952 24.5262V29.6724C63.5952 30.4444 63.1326 30.3157 62.9343 30.3157H60.0265C59.2334 30.3157 59.3656 29.9941 59.3656 29.6724V26.456C58.3743 26.1344 57.7134 26.1344 57.2508 26.1344C55.9951 26.1344 54.7395 26.3917 53.8143 27.3566C52.1621 29.0291 51.9638 32.2455 51.9638 35.2046C51.9638 39.3215 52.3603 42.5379 53.9464 44.1461C54.8056 45.0467 55.9951 45.497 57.5812 45.497C58.176 45.497 58.7708 45.4327 59.696 45.2397V41.8303C59.696 41.6373 59.5639 41.187 60.3569 41.187H63.2648C64.0578 41.187 63.9256 41.6373 63.9256 41.8303V47.4268Z" fill="#23315D"/>
<path d="M84.876 48.456C84.876 48.7133 84.9421 48.9706 84.3473 48.9706H79.3907C78.6638 48.9706 78.3994 48.3273 78.2673 47.5554C78.2673 47.491 78.2012 47.4267 78.2012 47.2981C76.6151 48.9063 75.2272 49.6139 73.1124 49.6139C70.2046 49.6139 67.1646 47.9413 67.1646 43.6957C67.1646 38.8068 70.9976 37.1987 76.9455 37.1987H77.4742V35.9764C77.4742 34.9472 77.5403 33.146 74.9629 33.146C73.3107 33.146 71.7246 33.6606 70.9315 33.918C70.2707 34.1753 70.0063 34.3039 69.6759 34.3039C69.4115 34.3039 69.3454 34.0466 69.2794 33.918L68.4863 31.5378C68.3541 31.2162 68.0237 30.7016 69.2794 30.3156C70.1385 29.994 72.4516 29.2864 75.7559 29.2864C81.4395 29.2864 82.1003 33.0817 82.1003 35.4618V42.1519C82.1003 44.146 82.2325 44.4677 82.4308 45.2396L82.4969 45.3682H84.2151C84.8099 45.3682 84.7438 45.6899 84.7438 45.8829V48.456H84.876ZM77.4742 40.3507H77.2099C76.0864 40.3507 74.5003 40.3507 73.3107 40.994C72.5176 41.4443 71.8568 42.2162 71.8568 43.4384C71.8568 44.9823 72.9142 46.0758 74.5003 46.0758C75.6898 46.0758 76.549 45.4326 77.4742 44.5963V40.3507Z" fill="#23315D"/>
<path d="M95.5165 33.1462C95.0539 33.0818 94.5913 33.0175 93.9304 33.0175C91.5513 33.0175 91.4191 34.497 91.4191 34.9473C91.4191 35.9766 92.08 36.3625 92.8069 36.6842C93.5339 37.0058 94.1287 37.1988 95.4504 37.6491C96.3757 37.9707 98.0939 38.614 99.2835 40.0292C99.9444 40.8011 100.539 41.959 100.539 43.5029C100.539 44.8538 100.143 46.5263 98.7548 47.8771C97.8296 48.7777 96.3096 49.6783 93.7322 49.6783C91.9478 49.6783 86.793 48.8421 86.793 47.4269V43.2456C86.793 42.6666 87.1234 42.7309 87.3217 42.7309H90.0313C90.6921 42.7309 90.56 43.0526 90.56 43.4385V45.304C91.6834 45.6257 92.4765 45.8187 93.4017 45.8187C95.4504 45.8187 95.847 44.5964 95.847 43.8888C95.847 42.7953 95.12 42.345 94.327 42.0233C93.4017 41.5731 92.2122 41.2514 91.4852 40.9941C90.1634 40.4795 89.1721 39.9649 88.3791 39.1286C87.3878 38.0994 87.0573 36.8771 87.0573 35.6549C87.0573 33.4035 88.1147 32.0526 88.9078 31.2163C90.1634 29.9941 91.8156 29.3508 94.4591 29.3508C95.847 29.3508 99.5479 29.8655 99.5479 31.152V35.1403C99.5479 35.7836 99.2835 35.6549 99.0192 35.6549H96.3096C96.1113 35.6549 95.7809 35.7193 95.7809 35.1403V33.1462H95.5165Z" fill="#23315D"/>
<path d="M122.942 48.4561C122.942 48.7134 123.009 48.9707 122.414 48.9707H115.937C115.739 48.9707 115.408 49.035 115.408 48.4561V36.6198C115.408 35.8479 115.408 35.0116 115.012 34.3683C114.748 33.9181 114.219 33.3391 113.162 33.3391C112.038 33.3391 110.65 34.1754 109.791 34.9473V45.3683H111.84C112.501 45.3683 112.368 45.6257 112.368 45.883V48.4561C112.368 48.7134 112.435 48.9707 111.84 48.9707H102.786C102.587 48.9707 102.257 49.035 102.257 48.4561V45.9473C102.257 45.7543 102.191 45.4327 102.786 45.4327H104.834V24.9765H102.852C102.654 24.9765 102.323 25.0409 102.323 24.4619V21.8888C102.323 21.3099 102.654 21.3742 102.852 21.3742H109.328C109.989 21.3742 109.857 21.6315 109.857 21.8888V31.4736C111.84 29.7368 113.69 29.2865 115.342 29.2865C120.233 29.2865 120.497 33.1461 120.497 35.3976V45.4327H122.546C123.207 45.4327 123.075 45.69 123.075 45.9473V48.4561H122.942Z" fill="#23315D"/>
<path d="M131.138 31.0233L131.666 30.7017C132.327 30.2514 133.913 29.3508 135.962 29.3508C139.465 29.3508 142.901 31.2806 142.901 39.1286C142.901 47.6198 138.077 49.7426 134.772 49.7426C132.658 49.7426 131.336 48.9064 130.675 48.2631L130.477 48.0701L130.345 48.3917C129.684 49.9999 129.419 49.8713 128.759 49.6783L125.586 48.9064C125.256 48.842 125.19 48.649 125.19 48.5847C125.19 48.5204 125.19 48.5204 125.19 48.5204C125.322 47.8128 126.049 48.0058 126.049 44.2105V24.9765H124.066C123.868 24.9765 123.538 25.0409 123.538 24.4619V21.8888C123.538 21.3099 123.868 21.3742 124.066 21.3742H130.543C131.204 21.3742 131.072 21.6315 131.072 21.8888V31.0233H131.138ZM131.138 44.9824C132.129 45.69 133.252 45.8186 133.649 45.8186C137.35 45.8186 137.945 42.0233 137.945 39.2572C137.945 36.6841 137.68 33.1461 134.31 33.1461C132.988 33.1461 131.799 33.9824 131.336 34.304L131.138 34.4327V44.9824Z" fill="#23315D"/>
<path d="M150.302 40.801C150.302 43.6314 151.36 45.6256 154.664 45.6256C156.514 45.6256 157.902 45.1109 158.629 44.725C158.761 44.6606 158.894 44.5963 159.092 44.532C159.356 44.4033 159.555 44.339 159.753 44.339C160.017 44.339 160.083 44.4677 160.215 44.6606L161.207 46.9121C161.273 47.0408 161.339 47.1694 161.339 47.3624C161.339 47.6197 161.207 47.8127 160.678 48.1343C159.224 49.0349 156.581 49.6782 154.334 49.6782C151.756 49.6782 149.509 49.0349 147.923 47.4267C146.601 46.0758 145.346 43.7601 145.346 39.9647C145.346 36.5554 146.073 34.0466 147.989 31.9238C149.245 30.5086 151.029 29.2864 154.069 29.2864C157.175 29.2864 162 30.5729 162 39.5144C162 40.5437 161.868 40.7367 161.075 40.7367H150.302V40.801ZM156.514 37.1987C156.514 37.07 156.514 36.9413 156.514 36.8127C156.514 36.2981 156.448 35.7191 156.382 35.2045C156.25 34.6899 156.052 34.0466 155.523 33.532C155.061 33.0817 154.4 32.8244 153.607 32.8244C152.748 32.8244 151.954 33.0817 151.36 33.8536C150.633 34.7542 150.434 35.8478 150.302 37.1343H156.514V37.1987Z" fill="#23315D"/>
<path opacity="0.9" d="M10.5205 6H6.98049V2.5H4.84049V6H1.30049V8H4.84049V11.5H6.98049V8H10.5205V6ZM11.5667 -9.53674e-07V2.18H14.5267V14H17.1267V-9.53674e-07H11.5667ZM25.7439 14.2C29.0839 14.2 31.6039 11.6 31.6039 7C31.6039 2.4 29.0839 -0.200001 25.7439 -0.200001C22.4239 -0.200001 19.9039 2.4 19.9039 7C19.9039 11.6 22.4239 14.2 25.7439 14.2ZM25.7439 11.94C23.8439 11.94 22.5239 10.38 22.5239 7C22.5239 3.62 23.8439 2.06 25.7439 2.06C27.6639 2.06 28.9839 3.62 28.9839 7C28.9839 10.38 27.6639 11.94 25.7439 11.94ZM39.201 14.2C42.541 14.2 45.061 11.6 45.061 7C45.061 2.4 42.541 -0.200001 39.201 -0.200001C35.881 -0.200001 33.361 2.4 33.361 7C33.361 11.6 35.881 14.2 39.201 14.2ZM39.201 11.94C37.301 11.94 35.981 10.38 35.981 7C35.981 3.62 37.301 2.06 39.201 2.06C41.121 2.06 42.441 3.62 42.441 7C42.441 10.38 41.121 11.94 39.201 11.94ZM54.298 9.38C57.978 9.38 60.238 7.78 60.238 4.7C60.238 1.6 57.978 -9.53674e-07 54.298 -9.53674e-07H48.538V10.52H46.538V11.92H48.538V14H51.138V11.92H55.538V10.52H51.138V9.38H54.298ZM57.618 4.72C57.618 6.34 56.418 7.28 54.278 7.28H51.138V2.2H54.278C56.418 2.2 57.618 3.08 57.618 4.72Z" fill="#E24949"/>
</g>
<defs>
<clipPath id="clip0_47_8357">
<rect width="162" height="50" fill="white"/>
</clipPath>
</defs>
</svg>
