<svg width="147" height="50" viewBox="0 0 147 50" fill="none" xmlns="http://www.w3.org/2000/svg">
<path d="M0 5.7619L0.187553 5H16.3171C18.5678 5 20.2557 5.7619 20.8184 8.2381L24.3819 25.381C20.8184 16.2381 12.5661 8.80952 0 5.7619Z" fill="#F9B50B"/>
<path d="M61.1418 5.19048L44.8246 43.8571H33.759L24.3813 11.4762C31.1333 15.8571 36.7599 22.7143 38.8229 27.4762L39.9483 31.4762L50.0761 5H61.1418V5.19048Z" fill="#3362AB"/>
<path d="M67.7064 5H78.0219L71.4575 43.8571H61.1421L67.7064 5Z" fill="#3362AB"/>
<path d="M107.843 31.6667C107.843 39.6667 100.716 45 89.6503 45C84.9614 45 80.4602 44.0476 78.022 42.9048L79.5224 34.1429L80.8353 34.7143C84.2112 36.2381 86.4619 36.8095 90.588 36.8095C93.5889 36.8095 96.7773 35.6667 96.7773 33C96.7773 31.2857 95.4644 30.1429 91.3382 28.2381C87.3996 26.3333 82.1481 23.2857 82.1481 17.7619C82.1481 10.1429 89.4627 5 99.7781 5C103.717 5 107.093 5.7619 109.156 6.71429L107.655 15.0952L106.905 14.3333C105.03 13.5714 102.591 12.8095 99.0279 12.8095C95.0893 13 93.2138 14.7143 93.2138 16.2381C93.2138 17.9524 95.4644 19.2857 99.0279 21C105.03 23.8571 107.843 27.0952 107.843 31.6667Z" fill="#3362AB"/>
<path d="M138.039 5H129.975C127.536 5 125.661 5.7619 124.536 8.2381L109.156 43.8571H120.034C120.034 43.8571 121.91 39.0952 122.285 37.9524C123.41 37.9524 134.101 37.9524 135.601 37.9524C135.976 39.2857 136.914 43.6667 136.914 43.6667H146.667L138.039 5ZM125.286 29.9524C126.224 27.6667 129.412 19.0952 129.412 19.0952C129.412 19.2857 130.35 16.8095 130.725 15.4762L131.475 18.9048C131.475 18.9048 133.538 28.2381 133.913 30.1429H125.286V29.9524Z" fill="#3362AB"/>
</svg>
