<svg width="55" height="54" viewBox="0 0 55 54" fill="none" xmlns="http://www.w3.org/2000/svg">
<g filter="url(#filter0_d_16_132)">
<path d="M27.5 44.4445C39.4969 44.4445 49.2223 34.7191 49.2223 22.7223C49.2223 10.7254 39.4969 1 27.5 1C15.5032 1 5.77777 10.7254 5.77777 22.7223C5.77777 34.7191 15.5032 44.4445 27.5 44.4445Z" fill="white" stroke="#015560" stroke-width="2" stroke-miterlimit="10"/>
<path d="M34.873 12.0517C34.8341 12.0672 34.7797 12.0828 34.733 12.1061C33.3175 12.6972 31.902 13.2805 30.4866 13.8716C28.9933 14.486 27.5 15.1004 26.0146 15.7226C25.4468 15.9637 25.5401 15.8937 25.7346 16.3604C26.7612 18.8647 27.8034 21.3612 28.8377 23.8655C28.9155 24.06 29.0089 24.0989 29.1955 24.0211C30.0899 23.6556 30.9843 23.2978 31.8787 22.9323C33.5742 22.2401 35.2697 21.5401 36.9573 20.8479C37.3151 20.7001 37.6729 20.5368 38.0306 20.3968C38.2562 20.3113 38.3028 20.1635 38.2251 19.9613C38.0617 19.5413 37.914 19.1213 37.7429 18.7091C37.0429 17.0137 36.3429 15.326 35.643 13.6305C35.4485 13.1638 35.2463 12.6894 35.0519 12.2228C35.013 12.1372 34.9897 12.0517 34.873 12.0517Z" fill="#015560"/>
<path d="M35.223 36.6905C38.0151 36.6905 40.7994 36.6905 43.5915 36.6905C44.0503 36.6905 44.4392 36.5894 44.7036 36.1694C45.1703 35.415 44.7192 34.3261 43.8481 34.1861C43.6381 34.155 43.5759 34.0695 43.5837 33.8673C43.5915 33.5484 43.5837 33.2217 43.5837 32.9029C43.5837 32.3896 43.327 32.024 42.9304 31.7363C42.8371 31.674 42.7359 31.6585 42.6348 31.6585C38.4039 31.6585 34.173 31.6507 29.9344 31.6663C29.1644 31.6663 28.3944 31.6896 27.6245 31.7207C26.9012 31.7518 26.6445 32.094 26.5667 32.8173C26.5279 33.1751 26.5512 33.5328 26.559 33.8906C26.559 34.0617 26.5045 34.1473 26.3256 34.1706C25.7423 34.225 25.1668 34.8006 25.2913 35.4772C25.3068 35.5705 25.2913 35.6716 25.3068 35.765C25.369 36.1927 25.579 36.5816 26.1001 36.6205C26.3645 36.6438 26.6212 36.6749 26.8856 36.6749C29.6544 36.6905 32.4387 36.6905 35.223 36.6905Z" fill="#015560"/>
<path d="M24.4746 19.4402C23.588 19.4558 22.7403 19.6502 21.9081 19.9224C19.1704 20.809 16.4328 21.7034 13.6952 22.5978C12.9096 22.8545 12.1008 23.0645 11.3619 23.4456C10.3275 23.9822 9.5187 24.7444 9.06761 25.841C8.59319 27.0076 9.09872 28.2364 10.2576 28.7575C11.0197 29.0997 11.8053 29.162 12.6297 29.0453C13.423 28.9364 14.1385 28.6331 14.8462 28.2831C16.4017 27.5054 17.9727 26.751 19.5204 25.9577C21.1537 25.1177 22.8103 24.3011 24.4046 23.3911C25.0035 23.0489 25.5324 22.6056 26.0068 22.1079C26.1001 22.0145 26.1157 21.9212 26.0612 21.8045C25.7579 21.0812 25.4624 20.3579 25.1668 19.6269C25.1124 19.4869 25.0268 19.4324 24.8713 19.4402C24.7391 19.448 24.6068 19.4402 24.4746 19.4402Z" fill="#015560"/>
<path d="M35.4407 10.154C35.4252 9.91289 35.3474 9.69513 35.2696 9.47736C35.1297 9.06516 34.9663 8.66851 34.7563 8.28742C34.4764 7.77411 34.2041 7.66523 33.6442 7.83633C33.0453 8.02299 32.462 8.24853 31.8787 8.48963C30.0277 9.25182 28.1767 10.014 26.3256 10.784C25.369 11.1806 24.4046 11.5773 23.448 11.9817C23.1214 12.1217 22.8958 12.5417 22.9814 12.8916C23.1369 13.5294 23.378 14.1282 23.6658 14.7115C23.8447 15.0615 24.2724 15.2326 24.6691 15.1004C25.1124 14.9526 25.5557 14.7815 25.9912 14.6104C27.5311 13.9882 29.0711 13.3738 30.6032 12.7361C32.0498 12.1372 33.4886 11.5384 34.9041 10.8851C35.223 10.7373 35.4407 10.5195 35.4407 10.154Z" fill="#015560"/>
<path d="M28.4644 26.0043C28.4878 26.1288 28.5033 26.2532 28.5422 26.3776C28.69 26.8909 28.8844 27.3809 29.1177 27.8631C29.3666 28.3764 29.7632 28.5553 30.2999 28.3531C31.3732 27.9409 32.4387 27.5131 33.5119 27.0776C34.5463 26.6576 35.573 26.2376 36.5996 25.8021C37.844 25.281 39.1039 24.7833 40.3327 24.2C40.9082 23.9278 41.0405 23.6167 40.8694 23.0022C40.7216 22.4889 40.5116 21.999 40.2705 21.5323C40.0372 21.0734 39.6405 20.9179 39.1661 21.0968C37.9217 21.5634 36.6851 22.069 35.4563 22.5745C34.2819 23.0567 33.0997 23.5311 31.9331 24.0289C30.8987 24.4644 29.841 24.8533 28.8688 25.4055C28.62 25.5221 28.4489 25.701 28.4644 26.0043Z" fill="#015560"/>
<path d="M12.9408 22.87C12.9408 22.87 13.2907 25.7477 14.8462 28.2753" stroke="#FFB300" stroke-width="2" stroke-miterlimit="10" stroke-linecap="round" stroke-linejoin="round"/>
<path d="M15.7484 22.0767C15.7484 22.0767 16.0673 24.7522 17.5139 27.1009" stroke="#FFB300" stroke-width="2" stroke-miterlimit="10" stroke-linecap="round" stroke-linejoin="round"/>
<path d="M18.346 21.1512C18.346 21.1512 18.6494 23.64 19.9948 25.8332" stroke="#FFB300" stroke-width="2" stroke-miterlimit="10" stroke-linecap="round" stroke-linejoin="round"/>
<path d="M26.5512 33.8984H43.5759" stroke="#FFB300" stroke-width="2" stroke-miterlimit="10" stroke-linecap="round" stroke-linejoin="round"/>
</g>
<defs>
<filter id="filter0_d_16_132" x="0.777771" y="0" width="53.4445" height="53.4445" filterUnits="userSpaceOnUse" color-interpolation-filters="sRGB">
<feFlood flood-opacity="0" result="BackgroundImageFix"/>
<feColorMatrix in="SourceAlpha" type="matrix" values="0 0 0 0 0 0 0 0 0 0 0 0 0 0 0 0 0 0 127 0" result="hardAlpha"/>
<feOffset dy="4"/>
<feGaussianBlur stdDeviation="2"/>
<feComposite in2="hardAlpha" operator="out"/>
<feColorMatrix type="matrix" values="0 0 0 0 0 0 0 0 0 0 0 0 0 0 0 0 0 0 0.25 0"/>
<feBlend mode="normal" in2="BackgroundImageFix" result="effect1_dropShadow_16_132"/>
<feBlend mode="normal" in="SourceGraphic" in2="effect1_dropShadow_16_132" result="shape"/>
</filter>
</defs>
</svg>
