<svg width="54" height="54" viewBox="0 0 54 54" fill="none" xmlns="http://www.w3.org/2000/svg">
<g filter="url(#filter0_d_19_196)">
<path d="M26.8088 44.4445C38.8057 44.4445 48.5311 34.7191 48.5311 22.7223C48.5311 10.7254 38.8057 1 26.8088 1C14.8119 1 5.08655 10.7254 5.08655 22.7223C5.08655 34.7191 14.8119 44.4445 26.8088 44.4445Z" fill="white" stroke="#015560" stroke-width="2" stroke-miterlimit="10"/>
<path d="M47.2633 28.042C46.7034 27.8709 46.229 27.5676 45.8634 27.0854C44.5179 25.281 43.6235 23.3444 43.5302 21.0268C43.4446 18.9736 43.2269 16.9048 42.4569 14.9604C42.2858 14.5327 42.1925 13.8949 41.5859 13.996C41.0648 14.0893 41.1659 14.6804 41.1659 15.1004C41.1736 15.8781 40.847 16.3915 40.0459 16.1192C37.8683 15.3804 36.2894 17.3403 34.2907 17.3247C34.1507 17.3247 33.9796 17.5347 33.8785 17.6903C33.1629 18.7636 33.8318 21.1201 34.9984 21.7034C37.7516 23.08 38.7471 25.7166 37.6116 28.6564C36.8261 30.7019 36.5617 30.5463 34.8662 29.2242C32.4085 27.3031 32.8207 23.9977 30.8764 21.8823C30.5108 21.4856 30.472 20.7624 29.6942 20.9023C29.002 21.0268 28.4187 21.3379 28.1854 22.0612C27.921 22.8545 27.9132 23.6711 27.9443 24.4877C27.9832 25.7321 27.4232 26.4554 26.2333 26.7976C24.7556 27.2254 23.2856 27.6765 21.8468 28.1975C20.9602 28.5164 20.7269 28.182 20.4547 27.3809C19.5681 24.8144 20.3769 22.4423 21.248 20.1246C21.7924 18.678 22.609 18.468 24.1567 18.9891C25.4244 19.4169 26.6533 19.9768 28.0532 19.868C29.4298 19.7591 30.2542 18.8413 30.8297 17.8303C31.3741 16.8737 30.0831 16.5626 29.7098 15.9015C29.6009 15.707 29.3598 15.5826 29.1809 15.4193C28.0687 14.3849 27.0655 13.3194 27.4932 11.585C27.6332 11.0095 27.2521 10.6206 26.8321 10.2473C24.9889 8.64517 24.9967 8.63739 26.3966 6.65416C26.5055 6.49861 26.6455 6.35084 26.7233 6.17974C26.8788 5.8142 27.4777 5.52644 27.1121 5.08312C26.8555 4.76425 26.3655 4.99757 26.0233 5.11423C21.1313 6.85637 16.5971 9.18181 13.1906 13.2572C11.0674 15.777 9.02191 18.3825 6.95312 20.9646C6.48648 21.5401 5.8954 21.9212 5.27321 22.2867C5.21099 22.3256 5.15654 22.3567 5.09433 22.3956C5.09433 22.5045 5.08655 22.6134 5.08655 22.7223C5.08655 31.0207 9.73743 38.2226 16.5738 41.8858C16.6049 40.688 16.7371 39.4981 16.8771 38.3082C17.0326 37.0016 17.2037 35.4694 18.5181 34.7928C21.3102 33.3617 23.7523 31.4174 26.3577 29.7141C27.9521 28.672 29.4065 27.482 30.3475 25.7865C31.2653 28.1898 32.5719 30.313 33.8785 32.4284C34.2129 32.9651 34.6795 33.5328 35.2784 33.6184C37.1372 33.875 38.1638 35.0805 39.0271 36.5582C39.2137 36.8849 39.4704 37.2271 39.7815 37.4215C40.4737 37.8493 40.9092 38.3937 41.1814 39.0003C44.3624 36.1849 46.7189 32.4596 47.8233 28.2209C47.6444 28.1587 47.4578 28.0964 47.2633 28.042Z" fill="#015560"/>
<path d="M12.8095 13.7083C12.8095 13.7083 18.9225 19.6502 21.248 20.1168C21.2946 21.2212 21.388 21.4468 20.7891 21.3846C20.1902 21.3223 12.8017 16.8348 11.9151 14.7815C11.674 13.8405 12.8095 13.7083 12.8095 13.7083Z" fill="#FFB300"/>
<path d="M37.9149 25.0788C37.9149 25.0788 42.0758 25.2033 43.8569 23.1422C44.1757 23.2589 44.1446 23.6089 43.8569 23.7178C43.5691 23.8267 42.1614 25.2344 38.0005 25.5066C37.5494 25.3899 37.9149 25.0788 37.9149 25.0788Z" fill="#FFB300"/>
<path d="M37.005 27.972C36.9428 27.972 36.8883 27.9564 36.8339 27.9331C36.7405 27.8864 36.5772 27.7542 36.5928 27.412C36.6005 27.2098 36.6628 26.9687 36.7717 26.7432C36.9816 26.3076 37.3005 26.0199 37.5805 26.0199C37.6427 26.0199 37.6972 26.0354 37.7516 26.0588C37.8216 26.0899 37.9071 26.1599 37.9616 26.3076C38.0394 26.541 37.9849 26.8987 37.8138 27.2487C37.5961 27.6842 37.285 27.972 37.005 27.972Z" fill="#FFB300"/>
<path d="M37.5805 26.2143C37.6116 26.2143 37.6349 26.2221 37.6661 26.2299C37.8527 26.3232 37.8449 26.7354 37.6427 27.1632C37.4638 27.5287 37.1994 27.7776 37.0127 27.7776C36.9816 27.7776 36.9583 27.7698 36.9272 27.762C36.7405 27.6687 36.7483 27.2565 36.9505 26.8287C37.1216 26.4632 37.3861 26.2143 37.5805 26.2143ZM37.5805 25.8254C37.1527 25.8254 36.795 26.2532 36.6005 26.6576C36.2817 27.3109 36.3439 27.9098 36.7561 28.1042C36.8339 28.1431 36.9194 28.1587 37.0127 28.1587C37.4405 28.1587 37.7983 27.7309 37.9927 27.3265C38.3116 26.6732 38.2494 26.0743 37.8372 25.8799C37.7516 25.841 37.666 25.8254 37.5805 25.8254Z" fill="#015560"/>
<path d="M37.8527 25.3277C37.8527 25.3277 38.1638 25.9888 37.4638 26.541C36.7716 27.0932 37.7049 26.2532 37.7438 25.9343C37.7827 25.6154 37.8527 25.3277 37.8527 25.3277Z" fill="#FFB300"/>
</g>
<defs>
<filter id="filter0_d_19_196" x="0.0865479" y="0" width="53.4445" height="53.4445" filterUnits="userSpaceOnUse" color-interpolation-filters="sRGB">
<feFlood flood-opacity="0" result="BackgroundImageFix"/>
<feColorMatrix in="SourceAlpha" type="matrix" values="0 0 0 0 0 0 0 0 0 0 0 0 0 0 0 0 0 0 127 0" result="hardAlpha"/>
<feOffset dy="4"/>
<feGaussianBlur stdDeviation="2"/>
<feComposite in2="hardAlpha" operator="out"/>
<feColorMatrix type="matrix" values="0 0 0 0 0 0 0 0 0 0 0 0 0 0 0 0 0 0 0.25 0"/>
<feBlend mode="normal" in2="BackgroundImageFix" result="effect1_dropShadow_19_196"/>
<feBlend mode="normal" in="SourceGraphic" in2="effect1_dropShadow_19_196" result="shape"/>
</filter>
</defs>
</svg>
