<svg width="54" height="54" viewBox="0 0 54 54" fill="none" xmlns="http://www.w3.org/2000/svg">
<g filter="url(#filter0_d_16_85)">
<path d="M27.1214 44.4742C39.1265 44.4742 48.8585 34.7422 48.8585 22.7371C48.8585 10.732 39.1265 1 27.1214 1C15.1163 1 5.38431 10.732 5.38431 22.7371C5.38431 34.7422 15.1163 44.4742 27.1214 44.4742Z" fill="white" stroke="#015560" stroke-width="2" stroke-miterlimit="10"/>
<path d="M35.7702 34.8746C32.8873 34.8746 30.0044 34.8746 27.1214 34.8746C24.2461 34.8746 21.3709 34.8746 18.5032 34.8746C18.1045 34.8746 18.0815 34.8439 18.1275 34.4529C18.3959 32.0607 18.6566 29.6761 18.9249 27.2839C19.1626 25.137 19.408 22.9978 19.6457 20.8586C19.7147 20.2528 19.7684 19.6471 19.8374 19.0414C19.8834 18.6197 19.8834 18.6197 20.2974 18.6197C24.8442 18.6197 29.391 18.6197 33.9454 18.6197C34.3518 18.6197 34.3594 18.6197 34.4054 19.0184C34.6048 20.8202 34.7965 22.6297 34.9958 24.4316C35.1722 26.0571 35.3639 27.6826 35.5402 29.3004C35.7012 30.7572 35.8546 32.2063 36.0156 33.6631C36.0463 33.9392 36.0846 34.2075 36.1153 34.4835C36.1613 34.8362 36.1306 34.8746 35.7702 34.8746Z" fill="#015560"/>
<path d="M29.0689 21.5026C28.2715 21.5103 27.6581 22.1237 27.6581 22.9135C27.6581 23.7109 28.2868 24.3473 29.0842 24.3473C29.8587 24.3473 30.5027 23.7032 30.5027 22.9288C30.5027 22.1237 29.8663 21.495 29.0689 21.5026Z" fill="#FFB300"/>
<path d="M31.9135 24.3626C31.2081 24.3549 30.6101 24.93 30.6024 25.6354C30.5947 26.3331 31.2081 26.9618 31.9059 26.9542C32.6113 26.9465 33.1863 26.3561 33.194 25.6584C33.194 24.9376 32.6266 24.3703 31.9135 24.3626Z" fill="#FFB300"/>
<path d="M25.1432 24.3396C25.9406 24.3396 26.5693 23.7185 26.5693 22.9135C26.5693 22.1237 25.956 21.5026 25.1662 21.5026C24.3688 21.495 23.7324 22.1237 23.7324 22.9211C23.7401 23.6955 24.3688 24.3319 25.1432 24.3396Z" fill="#FFB300"/>
<path d="M22.3446 24.3626C21.6239 24.3626 21.0565 24.9146 21.0488 25.6354C21.0411 26.3561 21.6315 26.9542 22.3369 26.9542C23.0193 26.9542 23.6327 26.3408 23.6327 25.6507C23.6251 24.9453 23.05 24.3703 22.3446 24.3626Z" fill="#FFB300"/>
<path d="M27.1291 25.3363C25.2735 25.3363 23.7861 26.8085 23.7861 28.6563C23.7861 30.5118 25.2582 31.9916 27.1137 31.9916C28.9616 31.9916 30.449 30.5118 30.4414 28.6563C30.449 26.8238 28.9616 25.3363 27.1291 25.3363Z" fill="#FFB300"/>
<path d="M38.3312 31.9993C38.0475 29.4307 37.7561 26.8622 37.4724 24.2936C37.2194 21.978 36.9664 19.6625 36.7133 17.3546C36.629 16.6185 36.2226 16.1968 35.4865 16.1278C35.0495 16.0895 34.6125 16.1048 34.1754 16.1048C33.7 16.1048 33.7077 16.1048 33.7 15.6447C33.6924 15.016 33.7384 14.3873 33.6387 13.7662C33.286 11.5274 32.0899 9.87886 30.104 8.80542C29.4216 8.43739 28.6702 8.26104 27.9111 8.11536C27.3744 8.11536 26.8454 8.11536 26.3087 8.11536C26.2473 8.13069 26.1783 8.15369 26.117 8.16136C23.2647 8.64441 21.1255 10.7376 20.6118 13.5439C20.4814 14.2646 20.5351 14.9854 20.5198 15.7061C20.5121 16.1048 20.5198 16.1048 20.1057 16.1125C19.7147 16.1125 19.3236 16.1048 18.9326 16.1125C18.0739 16.1355 17.5985 16.5648 17.5065 17.3622C17.3531 18.7194 17.1998 20.0842 17.0541 21.4413C16.7781 23.9332 16.5097 26.4251 16.2337 28.9247C15.9807 31.2403 15.7123 33.5481 15.4516 35.8637C15.3519 36.7761 15.881 37.3742 16.8011 37.3742C23.6711 37.3742 30.5411 37.3742 37.4111 37.3742C38.3388 37.3742 38.8679 36.7608 38.7605 35.8407C38.6225 34.5526 38.4768 33.2798 38.3312 31.9993ZM23.1497 13.5976C23.6787 11.6884 25.4116 10.4693 27.4588 10.5843C29.2683 10.6839 30.8554 12.1561 31.1621 14.0269C31.2618 14.6403 31.1928 15.2614 31.2158 15.8748C31.2235 16.1048 31.0701 16.1048 30.9091 16.1048C29.92 16.1048 28.9309 16.1048 27.9418 16.1048C27.6658 16.1048 27.3898 16.1048 27.1137 16.1048C25.8793 16.1048 24.6372 16.1048 23.4027 16.1048C23.0117 16.1048 23.004 16.1048 23.0117 15.7061C23.027 14.993 22.958 14.2876 23.1497 13.5976ZM35.7702 34.8746C32.8873 34.8746 30.0043 34.8746 27.1214 34.8746C24.2461 34.8746 21.3708 34.8746 18.5032 34.8746C18.1045 34.8746 18.0815 34.8439 18.1275 34.4529C18.3959 32.0607 18.6566 29.6761 18.9249 27.2839C19.1626 25.137 19.408 22.9978 19.6457 20.8586C19.7147 20.2529 19.7684 19.6471 19.8374 19.0414C19.8834 18.6197 19.8834 18.6197 20.2974 18.6197C24.8442 18.6197 29.391 18.6197 33.9454 18.6197C34.3518 18.6197 34.3594 18.6197 34.4054 19.0184C34.6048 20.8202 34.7965 22.6298 34.9958 24.4316C35.1722 26.0571 35.3639 27.6826 35.5402 29.3004C35.7012 30.7572 35.8546 32.2063 36.0156 33.6632C36.0463 33.9392 36.0846 34.2075 36.1153 34.4836C36.1613 34.8363 36.1306 34.8746 35.7702 34.8746Z" fill="#015560"/>
</g>
<defs>
<filter id="filter0_d_16_85" x="0.384308" y="0" width="53.4742" height="53.4742" filterUnits="userSpaceOnUse" color-interpolation-filters="sRGB">
<feFlood flood-opacity="0" result="BackgroundImageFix"/>
<feColorMatrix in="SourceAlpha" type="matrix" values="0 0 0 0 0 0 0 0 0 0 0 0 0 0 0 0 0 0 127 0" result="hardAlpha"/>
<feOffset dy="4"/>
<feGaussianBlur stdDeviation="2"/>
<feComposite in2="hardAlpha" operator="out"/>
<feColorMatrix type="matrix" values="0 0 0 0 0 0 0 0 0 0 0 0 0 0 0 0 0 0 0.25 0"/>
<feBlend mode="normal" in2="BackgroundImageFix" result="effect1_dropShadow_16_85"/>
<feBlend mode="normal" in="SourceGraphic" in2="effect1_dropShadow_16_85" result="shape"/>
</filter>
</defs>
</svg>
