<svg width="20" height="21" viewBox="0 0 20 21" fill="none" xmlns="http://www.w3.org/2000/svg">
<path d="M19 6.65883C19 6.86536 19 7.06563 19 7.27216C18.9937 7.31597 18.9875 7.35977 18.9812 7.40358C18.9249 8.18589 18.7309 8.92439 18.4054 9.61282C18.0487 10.3638 17.5918 11.046 17.0974 11.6844C16.4591 12.5167 15.8144 13.3366 15.1385 14.1314C14.2749 15.139 13.3862 16.1216 12.4912 17.0979C11.7527 17.899 10.9954 18.6813 10.2507 19.4699C10.088 19.6451 9.91898 19.8204 9.75626 19.9893C9.18048 19.3823 8.59844 18.794 8.03518 18.1869C7.17777 17.2669 6.32037 16.3469 5.48173 15.4082C4.78704 14.6321 4.11113 13.831 3.44147 13.0237C2.7593 12.1976 2.11468 11.3402 1.5389 10.4202C1.15088 9.80057 0.831698 9.13718 0.675237 8.39868C0.593877 8.02943 0.556326 7.64766 0.5 7.27216C0.5 7.07189 0.5 6.87787 0.5 6.6776C0.506258 6.63379 0.512517 6.58998 0.518775 6.54618C0.612652 5.28823 1.06326 4.19925 1.86434 3.30429C2.75304 2.30294 3.8295 1.68335 5.09997 1.53315C5.88227 1.43927 6.6458 1.55193 7.37179 1.88988C8.18539 2.27165 8.82375 2.90375 9.38075 3.64851C9.51218 3.82375 9.62483 4.00524 9.74374 4.17422C9.96905 3.87381 10.1818 3.56715 10.4134 3.27926C10.9328 2.6409 11.5399 2.1277 12.2722 1.8273C13.2985 1.40798 14.3437 1.39547 15.3826 1.75846C16.1774 2.03383 16.8784 2.50321 17.4792 3.13532C18.2052 3.89259 18.6871 4.81258 18.8936 5.8953C18.9437 6.14563 18.9687 6.40223 19 6.65883Z" fill="#E5E5E5" stroke="#FFB300" stroke-miterlimit="10" stroke-linecap="round" stroke-linejoin="round"/>
</svg>
