<svg width="25" height="25" viewBox="0 0 25 25" fill="none" xmlns="http://www.w3.org/2000/svg">
<path d="M24.5 7.55473C24.5 7.81708 24.5 8.07148 24.5 8.33383C24.4921 8.38948 24.4841 8.44513 24.4762 8.50077C24.4046 9.49452 24.1582 10.4326 23.7448 11.3071C23.2916 12.2611 22.7113 13.1276 22.0832 13.9385C21.2723 14.9959 20.4535 16.0373 19.5949 17.047C18.4978 18.3269 17.3689 19.575 16.2321 20.8152C15.294 21.8328 14.332 22.8266 13.386 23.8282C13.1793 24.0508 12.9646 24.2734 12.7579 24.4881C12.0266 23.7169 11.2872 22.9697 10.5717 22.1985C9.48258 21.0299 8.39344 19.8612 7.32815 18.6687C6.4457 17.6829 5.58711 16.6654 4.73647 15.6398C3.86993 14.5904 3.05108 13.5013 2.31969 12.3326C1.82679 11.5456 1.42135 10.7029 1.2226 9.76481C1.11925 9.29577 1.07155 8.81082 1 8.33383C1 8.07943 1 7.83298 1 7.57858C1.00795 7.52293 1.0159 7.46728 1.02385 7.41163C1.1431 5.8137 1.71549 4.43041 2.73309 3.29357C3.86198 2.02158 5.22936 1.23454 6.8432 1.04374C7.83694 0.92449 8.80683 1.06759 9.72902 1.49689C10.7625 1.98183 11.5734 2.78477 12.281 3.73082C12.4479 3.95341 12.591 4.18396 12.7421 4.39861C13.0282 4.01701 13.2985 3.62747 13.5927 3.26177C14.2525 2.45088 15.0237 1.79898 15.9538 1.41739C17.2576 0.884741 18.5853 0.868841 19.9049 1.32994C20.9146 1.67973 21.805 2.27598 22.5682 3.07892C23.4904 4.04086 24.1025 5.2095 24.3649 6.58484C24.4284 6.90284 24.4602 7.22879 24.5 7.55473Z" fill="#FFB300" stroke="white" stroke-miterlimit="10" stroke-linecap="round" stroke-linejoin="round"/>
</svg>
