<svg width="39" height="39" viewBox="0 0 39 39" fill="none" xmlns="http://www.w3.org/2000/svg">
<g filter="url(#filter0_d_16_184)">
<path d="M19.28 30.06C27.4428 30.06 34.06 23.4428 34.06 15.28C34.06 7.11723 27.4428 0.5 19.28 0.5C11.1172 0.5 4.5 7.11723 4.5 15.28C4.5 23.4428 11.1172 30.06 19.28 30.06Z" fill="white" stroke="#015560" stroke-miterlimit="10"/>
<path d="M33.03 18.52C32.49 18.92 31.92 19.27 31.25 19.41C30.58 19.56 29.91 19.58 29.24 19.5C28.68 19.44 28.15 19.27 27.7 18.9C27.49 18.72 27.26 18.55 27.07 18.34C26.13 17.28 25.2 16.21 24.26 15.16C23.73 14.56 23.18 13.96 22.64 13.37C22.09 12.78 21.46 12.29 20.72 11.95C20.51 11.85 20.32 11.71 20.22 11.49C19.82 10.68 19.95 9.78999 20.81 9.25999C21.23 8.99999 21.49 8.64999 21.67 8.20999C21.8 7.90999 21.93 7.60999 22.08 7.31999C22.32 6.84999 22.55 6.36999 22.67 5.85999C22.78 5.41999 22.86 4.96999 22.78 4.51999C22.74 4.27999 22.59 4.17999 22.36 4.23999C22.27 4.25999 22.18 4.29999 22.09 4.32999C21.5 4.52999 20.95 4.81999 20.44 5.16999C20.13 5.37999 19.84 5.38999 19.51 5.20999C19.09 4.97999 18.65 4.75999 18.15 4.75999C18 4.75999 17.94 4.63999 17.89 4.51999C17.81 4.32999 17.76 4.13999 17.66 3.95999C17.59 3.82999 17.48 3.71999 17.39 3.60999C17.37 3.60999 17.35 3.60999 17.33 3.60999C17.08 3.81999 17 4.11999 16.89 4.40999C16.82 4.57999 16.78 4.75999 16.71 4.93999C16.69 4.99999 16.63 5.06999 16.58 5.06999C16.19 5.12999 15.97 5.38999 15.77 5.68999C15.68 5.81999 15.58 5.94999 15.47 6.05999C15.31 6.21999 15.22 6.39999 15.2 6.61999C15.17 6.93999 15.16 7.25999 15.13 7.57999C15.11 7.77999 15.17 7.95999 15.27 8.11999C15.49 8.47999 15.69 8.86999 15.95 9.20999C16.22 9.57999 16.2 9.95999 16.11 10.36C16.05 10.66 15.88 10.88 15.64 11.07C15.31 11.34 15 11.62 14.71 11.93C14.39 12.27 14.29 12.72 14.22 13.17C14.18 13.45 14.15 13.74 14.1 14.02C14.07 14.22 13.99 14.25 13.82 14.14C13.2 13.72 12.58 13.3 11.96 12.87C11.62 12.63 11.25 12.45 10.85 12.38C10.44 12.3 10.06 12.45 9.76 12.74C9.69 12.8 9.68 12.93 9.64 13.02C9.64 13.12 9.64 13.22 9.64 13.32C9.67 13.47 9.71 13.62 9.74 13.77C9.79 13.99 9.92 14.14 10.12 14.22C10.45 14.36 10.78 14.51 11.12 14.64C11.34 14.72 11.51 14.84 11.67 15C12.08 15.45 12.44 15.94 12.93 16.3C13.48 16.71 14.03 17.11 14.58 17.51C14.83 17.69 15.11 17.7 15.4 17.62C15.54 17.58 15.67 17.56 15.81 17.54C15.98 17.52 16.1 17.59 16.17 17.75C16.21 17.83 16.25 17.91 16.28 18C16.37 18.25 16.53 18.44 16.76 18.56C16.79 18.57 16.81 18.59 16.84 18.61C17.4 18.93 17.42 19.03 17.4 19.76C17.37 20.83 16.9 21.76 16.52 22.72C16.32 23.23 16.13 23.74 15.93 24.25C15.89 24.35 15.84 24.44 15.81 24.54C15.71 24.8 15.55 24.99 15.29 25.11C15.01 25.23 14.93 25.42 14.96 25.72C14.99 25.97 15.14 26.14 15.42 26.21C15.58 26.25 15.74 26.27 15.89 26.29C16.05 26.29 16.21 26.29 16.37 26.29C16.59 26.25 16.81 26.23 17.02 26.18C17.48 26.06 17.64 25.82 17.54 25.36C17.49 25.14 17.54 24.95 17.62 24.75C17.94 24.02 18.23 23.28 18.54 22.55C18.76 22.04 18.98 21.53 19.21 20.99C19.49 21.34 19.79 21.66 20.02 22.01C20.45 22.64 20.98 23.15 21.61 23.56C21.69 23.61 21.77 23.67 21.84 23.74C21.94 23.83 21.93 23.9 21.8 23.93C21.59 23.98 21.37 24.02 21.16 24.02C20.65 24.03 20.13 24.02 19.62 24.03C19.37 24.03 19.12 24.02 18.9 24.15C18.82 24.2 18.73 24.24 18.65 24.3C18.46 24.43 18.34 24.61 18.39 24.85C18.44 25.1 18.6 25.28 18.85 25.32C19.09 25.37 19.34 25.37 19.58 25.37C19.92 25.37 20.26 25.34 20.61 25.35C21.13 25.36 21.65 25.33 22.17 25.2C22.17 25.37 22.16 25.53 22.17 25.7C22.18 25.92 22.27 26.03 22.49 26.06C22.79 26.09 23.09 26.09 23.39 26.09C24.2 26.08 24.99 25.96 25.72 25.56C26.03 25.39 26.3 25.18 26.54 24.92C26.77 24.67 26.82 24.38 26.7 24.08C26.6 23.83 26.46 23.6 26.33 23.37C26.11 22.98 26.14 22.79 26.48 22.48C26.63 22.34 26.78 22.21 26.94 22.08C27.36 21.73 27.71 21.31 27.99 20.84C28.04 20.75 28.1 20.72 28.21 20.73C29.17 20.86 30.13 20.9 31.09 20.87C31.84 20.85 32.53 20.59 33.18 20.22C33.46 19.45 33.67 18.64 33.81 17.81C33.58 18.08 33.31 18.31 33.03 18.52Z" fill="#015560"/>
<path d="M15.91 10.81C15.91 10.81 17.32 11.56 20.14 11.3" stroke="#FFB300" stroke-miterlimit="10" stroke-linecap="round" stroke-linejoin="round"/>
</g>
<defs>
<filter id="filter0_d_16_184" x="0" y="0" width="38.56" height="38.56" filterUnits="userSpaceOnUse" color-interpolation-filters="sRGB">
<feFlood flood-opacity="0" result="BackgroundImageFix"/>
<feColorMatrix in="SourceAlpha" type="matrix" values="0 0 0 0 0 0 0 0 0 0 0 0 0 0 0 0 0 0 127 0" result="hardAlpha"/>
<feOffset dy="4"/>
<feGaussianBlur stdDeviation="2"/>
<feComposite in2="hardAlpha" operator="out"/>
<feColorMatrix type="matrix" values="0 0 0 0 0 0 0 0 0 0 0 0 0 0 0 0 0 0 0.25 0"/>
<feBlend mode="normal" in2="BackgroundImageFix" result="effect1_dropShadow_16_184"/>
<feBlend mode="normal" in="SourceGraphic" in2="effect1_dropShadow_16_184" result="shape"/>
</filter>
</defs>
</svg>
