<svg width="262" height="83" viewBox="0 0 262 83" fill="none" xmlns="http://www.w3.org/2000/svg">
<path d="M68.6721 53.7956V51.4477C67.6802 52.1459 66.6614 52.7946 65.6406 53.4475C64.7334 54.0283 63.882 54.7059 62.9107 55.1816C61.8795 55.6883 60.7367 56.1064 59.5878 56.2279C58.3024 56.3618 57.0191 56.1311 55.7358 56.0714C54.0164 56.0714 55.4093 53.9809 56.0892 53.499C57.1431 52.7493 58.6144 52.8708 59.7304 52.1871C60.9289 51.4518 61.9374 50.2408 62.9892 49.3099C64.0308 48.3872 65.2686 47.5798 66.0332 46.3956C66.7648 45.2649 67.0851 43.8562 66.5498 42.5792C66.0125 41.2982 64.7644 40.6103 63.6361 39.9204C62.4437 39.1913 61.3877 38.248 60.092 37.6878C58.7322 37.1008 57.203 37.1338 55.7502 37.039C54.25 36.9402 53.0472 36.4356 52.5678 34.9012C52.3942 34.3472 52.1917 33.5852 52.3984 33.0188C52.6835 32.2382 53.4399 32.2629 53.9896 31.7851C54.4959 31.2805 54.7087 30.5 55.1902 29.9604C55.3597 29.7915 55.5663 29.6411 55.7874 29.5567C56.4322 29.2169 57.1865 29.3899 57.825 29.0542C59.4782 28.2839 59.3501 25.7259 61.2368 25.0874C61.8775 25.7836 62.4003 26.5971 62.7454 27.4765C62.9004 27.874 63.0202 28.2859 63.0988 28.7061C63.1649 29.0624 63.1008 29.7503 63.5286 29.9212C65.1343 30.6441 66.9693 30.6009 68.6721 30.9407C68.6721 27.4868 68.6721 24.033 68.6721 20.577H43.2375C47.2527 23.7735 49.0299 29.0583 49.1725 34.0568C49.3172 39.1027 47.2424 44.1301 43.2602 47.3347V54.0963C43.2602 56.9982 42.7643 60.2729 40.7598 62.5281H68.6721V53.7956V53.7956Z" fill="white"/>
<path d="M27.7904 61.7063C27.3936 61.1688 27.0278 60.5097 26.7096 59.7332C25.5399 56.5018 25.852 51.7545 29.0613 49.7629C30.6773 48.7599 32.8264 48.8897 34.647 48.5396C36.5172 48.1792 38.375 47.6766 40.0613 46.7725C46.3765 43.3866 47.9305 34.9527 45.769 28.5743C44.4609 24.7188 41.45 21.8766 37.6001 20.577H14.6784C16.5837 22.7725 17.0859 25.9174 17.0859 28.7226V31.0643C18.8734 30.0407 19.8322 28.4074 20.6051 26.5641C20.973 25.6868 21.3325 24.8135 21.7582 23.9629C22.0393 23.4027 22.3492 22.4821 23.1304 22.5377C24.2608 22.8055 25.2816 28.9512 25.6701 28.8544C27.6126 28.2612 29.8238 28.2798 31.5783 29.394C32.9794 30.2034 33.7977 31.6265 35.391 32.1661C36.1453 32.4215 36.945 32.5183 37.7303 32.6275C38.2903 32.7057 39.1665 32.6687 39.6872 32.9055C40.9458 33.4781 39.9104 36.2049 39.5612 37.1008C38.9412 38.6908 37.7344 39.737 35.9221 39.6238C34.4796 39.4858 33.0414 39.2922 31.5948 39.2345C28.2781 39.3025 24.7691 39.6773 22.1199 41.8728C18.5965 44.5399 17.65 48.4572 17.0879 52.5887V53.6864C17.0879 56.0158 16.7655 57.9661 16.1229 59.5335C16.096 59.6715 16.0299 59.8074 15.9493 59.9351C15.4409 61.0617 14.8644 61.9267 14.2196 62.526H28.5281C28.2719 62.2974 28.0259 62.0235 27.7904 61.7063C28.0259 62.0235 27.3915 61.1688 27.7904 61.7063Z" fill="white"/>
<path d="M80.9347 28.8358C75.6837 12.7239 60.6396 1.17808 43.6632 0.263636C26.3975 -0.663163 10.1383 9.52339 3.29811 25.3037C-3.62882 41.2817 0.62612 60.5159 13.5625 72.1729C26.5484 83.8753 46.0769 86.217 61.4393 77.7955C76.6075 69.4811 85.0946 52.1541 82.433 35.1175C82.1003 32.9879 81.6022 30.8851 80.9347 28.8358C82.2676 32.9281 79.6473 24.8835 80.9347 28.8358ZM26.4471 76.8358C26.4471 76.8358 26.5112 76.8625 26.5608 76.8852C26.5215 76.8687 26.4823 76.8543 26.4471 76.8358ZM79.7444 44.7315C78.6306 58.7838 69.3809 71.3944 56.3722 76.8667C46.9097 80.7798 35.517 80.8993 25.8892 76.5886C20.8428 74.3293 16.8193 71.4294 13.1306 67.4401C9.79522 63.8338 7.14182 59.5561 5.43488 54.953C4.3417 52.0037 3.57503 48.9062 3.24439 45.7756C2.90961 42.5978 3.17826 39.4816 3.36011 36.3635C4.17018 29.8038 6.95997 23.3904 10.9979 18.1735C12.9921 15.5991 15.3397 13.2491 17.9207 11.2596C20.6175 9.17944 23.5499 7.72128 26.5773 6.20751C26.2136 6.39081 27.2407 5.95212 27.3626 5.90681C27.718 5.76882 28.0776 5.63495 28.4372 5.50726C29.3134 5.19627 30.1978 4.91411 31.0947 4.66696C32.7397 4.2118 34.4135 3.85344 36.1039 3.61659C37.8501 3.37356 39.6211 3.26235 41.3839 3.26029C42.2869 3.26029 43.19 3.28706 44.091 3.34679C44.5415 3.37562 44.992 3.41269 45.4425 3.458C45.6016 3.47448 46.9324 3.61453 46.4902 3.58775C49.8111 3.79577 53.3159 4.96354 56.3619 6.24046C59.472 7.54416 62.2081 9.34215 64.9668 11.2472C64.5783 10.9795 65.4545 11.6138 65.531 11.6736C65.8678 11.9392 66.1881 12.2255 66.5085 12.5097C67.1367 13.0679 67.7587 13.6363 68.358 14.2233C69.54 15.3808 70.6559 16.6103 71.683 17.9078C73.5842 20.3093 75.1795 22.964 76.4587 25.7403C79.1803 31.6512 80.2569 38.2562 79.7444 44.7315C79.8271 43.6749 79.7031 45.2463 79.7444 44.7315Z" fill="white"/>
<path d="M3.35822 36.3655C3.34147 36.5138 3.34565 36.5797 3.35822 36.3655V36.3655Z" fill="white"/>
<path d="M111.886 34.0049C110.733 32.9738 109.11 32.4603 107.014 32.4603H99.8629V32.5121C100.247 32.7564 100.58 33.2057 100.858 33.86C101.136 34.5143 101.278 35.3218 101.278 36.2825V46.7347C101.278 47.7306 101.138 48.5588 100.858 49.2235C100.578 49.8881 100.247 50.3498 99.8629 50.6107V50.6625H106.28V50.6107C105.896 50.3664 105.564 49.9171 105.285 49.2628C105.005 48.6085 104.866 47.801 104.866 46.8403V44.6662H107.014C109.143 44.6662 110.776 44.1423 111.913 43.0946C113.047 42.0469 113.614 40.4754 113.614 38.38C113.614 36.4937 113.036 35.0361 111.886 34.0049ZM106.411 42.0739L104.866 42.0469V35.0526H106.411C107.598 35.0526 108.476 35.3363 109.043 35.9036C109.611 36.4709 109.895 37.3571 109.895 38.5622C109.893 40.9206 108.732 42.0904 106.411 42.0739Z" fill="white"/>
<path d="M126.879 47.4387C125.98 47.861 124.953 48.0722 123.802 48.0722H120.948V42.1277H123.358C124.108 42.1277 124.721 42.2602 125.192 42.5232C125.664 42.7882 126.005 43.2106 126.214 43.7924H126.266L127.027 39.3532C126.451 39.4236 125.901 39.4712 125.377 39.4981C124.854 39.525 124.041 39.5374 122.942 39.5374H120.952V34.887H124.409C125.439 34.887 126.304 35.0505 127.002 35.3756C127.7 35.7028 128.207 36.1914 128.52 36.8416L128.572 36.8147L128.138 32.1994H127.446C126.894 32.2657 126.196 32.2967 125.35 32.2967H115.947V32.3506C116.332 32.6156 116.664 33.0773 116.942 33.7378C117.221 34.3983 117.362 35.239 117.362 36.2618V46.6995C117.362 47.7037 117.223 48.5402 116.942 49.209C116.662 49.8778 116.332 50.3457 115.947 50.6087V50.6625H125.192C125.352 50.6625 125.504 50.6625 125.649 50.6646H128.417L129.121 45.6166L129.069 45.5896C128.508 46.4013 127.779 47.0163 126.879 47.4387Z" fill="white"/>
<path d="M131.057 32.2015L130.637 36.8043L130.689 36.8313C131.003 36.2619 131.462 35.7918 132.065 35.4191C132.667 35.0464 133.345 34.8601 134.095 34.8601H136.085V46.4552C136.085 47.5049 135.923 48.3973 135.601 49.1344C135.277 49.8716 134.907 50.3644 134.487 50.6149V50.6687H141.27V50.6149C140.815 50.3664 140.437 49.8819 140.132 49.1614C139.826 48.4408 139.673 47.5401 139.673 46.4552V34.8601H141.638C142.388 34.8601 143.065 35.0464 143.668 35.4191C144.27 35.7918 144.729 36.2639 145.043 36.8313L145.095 36.8043L144.675 32.2015H131.057Z" fill="white"/>
<path d="M156.164 40.8978C155.499 40.4816 154.65 40.0551 153.611 39.6203C152.88 39.3076 152.312 39.0426 151.914 38.8252C151.513 38.6078 151.182 38.3344 150.918 38.0052C150.655 37.676 150.522 37.2764 150.522 36.8064C150.522 35.4688 151.5 34.8 153.459 34.8C154.292 34.8 155.046 34.9574 155.72 35.27C156.393 35.5827 156.983 36.1397 157.494 36.9368H157.546L157.213 32.6632C156.372 32.4417 155.547 32.2864 154.739 32.1994H151.93C151.182 32.3029 150.509 32.4996 149.911 32.7937C148.99 33.245 148.288 33.8496 147.804 34.6054C147.318 35.3611 147.077 36.1811 147.077 37.0673C147.077 38.1957 147.297 39.1171 147.742 39.8294C148.184 40.5417 148.716 41.0924 149.337 41.4838C149.959 41.8751 150.771 42.2788 151.776 42.695C152.526 43.0077 153.116 43.2851 153.551 43.5295C153.985 43.7738 154.346 44.0906 154.635 44.4798C154.924 44.8712 155.069 45.3433 155.069 45.9002C155.069 47.4635 154.014 48.2462 151.903 48.2462C150.881 48.2462 149.959 48.0329 149.132 47.6084C148.305 47.184 147.536 46.4841 146.822 45.511L146.77 45.5379L147.204 49.915C147.748 50.2443 148.459 50.501 149.335 50.6832C150.212 50.8654 151.153 50.9565 152.157 50.9565C153.536 50.9565 154.71 50.7225 155.68 50.2525C156.65 49.7825 157.377 49.1489 157.864 48.3497C158.35 47.5505 158.591 46.6477 158.591 45.6393C158.591 44.4239 158.352 43.4342 157.876 42.6681C157.398 41.9061 156.829 41.316 156.164 40.8978Z" fill="white"/>
<path d="M162.698 46.3868C162.052 46.3868 161.501 46.6104 161.049 47.0556C160.594 47.5008 160.367 48.0474 160.367 48.6934C160.367 49.3394 160.594 49.886 161.049 50.3312C161.501 50.7764 162.052 51 162.698 51C163.344 51 163.884 50.7764 164.323 50.3312C164.759 49.886 164.977 49.3394 164.977 48.6934C164.977 48.0474 164.759 47.5008 164.323 47.0556C163.884 46.6084 163.342 46.3868 162.698 46.3868Z" fill="white"/>
<path d="M178.215 47.4097C177.316 47.8362 176.289 48.0495 175.138 48.0495H172.284V42.0532H174.694C175.444 42.0532 176.057 42.1857 176.528 42.4528C177 42.7199 177.341 43.1464 177.55 43.7324H177.602L178.363 39.2559C177.787 39.3263 177.237 39.376 176.713 39.4029C176.19 39.4298 175.377 39.4422 174.278 39.4422H172.288V34.7524H175.745C176.776 34.7524 177.64 34.916 178.338 35.2452C179.036 35.5744 179.543 36.0672 179.857 36.7236L179.908 36.6967L179.489 32.2015H167.294C167.672 32.4686 168 32.9324 168.276 33.5908C168.555 34.2576 168.696 35.1065 168.696 36.1356V46.6622C168.696 47.6747 168.557 48.5195 168.276 49.1945C167.996 49.8695 167.666 50.3395 167.281 50.6066V50.6605H176.526C176.753 50.6605 176.965 50.6625 177.164 50.6646H179.751L180.455 45.5711L180.403 45.5441C179.844 46.362 179.115 46.9832 178.215 47.4097Z" fill="white"/>
<path d="M211.703 34.0049C210.55 32.9738 208.928 32.4603 206.831 32.4603H199.68V32.5121C200.065 32.7564 200.397 33.2057 200.676 33.86C200.954 34.5143 201.095 35.3218 201.095 36.2825V46.7347C201.095 47.7306 200.956 48.5588 200.676 49.2235C200.395 49.8881 200.065 50.3498 199.68 50.6107V50.6625H206.098V50.6107C205.714 50.3664 205.381 49.9171 205.103 49.2628C204.822 48.6085 204.683 47.801 204.683 46.8403V44.6662H206.831C208.961 44.6662 210.594 44.1423 211.73 43.0946C212.865 42.0469 213.432 40.4754 213.432 38.38C213.432 36.4937 212.854 35.0361 211.703 34.0049ZM206.229 42.0739L204.683 42.0469V35.0526H206.229C207.415 35.0526 208.294 35.3363 208.861 35.9036C209.428 36.4709 209.713 37.3571 209.713 38.5622C209.711 40.9206 208.549 42.0904 206.229 42.0739Z" fill="white"/>
<path d="M226.697 47.4697C225.797 47.8879 224.771 48.0991 223.62 48.0991H220.765V42.2064H223.175C223.925 42.2064 224.538 42.3368 225.01 42.5998C225.481 42.8606 225.822 43.281 226.032 43.8566H226.084L226.844 39.4567C226.269 39.5271 225.718 39.5747 225.195 39.6016C224.671 39.6285 223.859 39.6409 222.76 39.6409H220.77V35.0278H224.227C225.257 35.0278 226.121 35.1893 226.819 35.5123C227.517 35.8353 228.024 36.3198 228.338 36.9658L228.39 36.9389L227.945 32.2512C227.335 32.392 226.408 32.4603 225.17 32.4603H215.763V32.5121C216.147 32.7729 216.479 33.2326 216.758 33.8869C217.036 34.5412 217.178 35.3756 217.178 36.3881V46.7346C217.178 47.7306 217.038 48.5588 216.758 49.2234C216.477 49.8881 216.147 50.3498 215.763 50.6107V50.6625H225.008H228.232L228.936 45.66L228.884 45.6331C228.326 46.4386 227.596 47.0494 226.697 47.4697Z" fill="white"/>
<path d="M244.416 47.8921L241.981 43.7303C243.116 43.3452 243.994 42.6971 244.613 41.7881C245.233 40.8792 245.544 39.7072 245.544 38.2744C245.544 36.4751 244.958 35.0547 243.789 34.0173C242.619 32.98 240.994 32.4603 238.917 32.4603H231.479V32.5162C231.864 32.7729 232.196 33.2471 232.474 33.9345C232.753 34.624 232.894 35.4729 232.894 36.4834V47.478C232.894 48.5257 232.755 49.4036 232.474 50.1097C232.393 50.3126 232.308 50.4969 232.221 50.6646H237.118C237.033 50.4969 236.952 50.3126 236.875 50.1097C236.613 49.4202 236.482 48.5795 236.482 47.5877V35.1872L238.316 35.1603C239.434 35.1417 240.298 35.4274 240.909 36.0154C241.52 36.6035 241.825 37.4027 241.825 38.4131C241.825 39.6078 241.528 40.4754 240.934 41.0179C240.34 41.5604 239.467 41.8316 238.314 41.8316H237.057L241.117 49.1344C241.402 49.6376 241.655 50.149 241.879 50.6667H246.899C246.001 50.0973 245.174 49.1717 244.416 47.8921Z" fill="white"/>
<path d="M261.338 32.2015H247.661L247.271 36.5621L247.323 36.589C247.636 36.0113 248.095 35.531 248.698 35.152C249.3 34.7731 249.978 34.5826 250.728 34.5826H252.718V46.3806C252.718 47.447 252.556 48.3559 252.234 49.1055C251.91 49.855 251.54 50.3582 251.12 50.6108V50.6646H257.904V50.6108C257.449 50.3582 257.07 49.8654 256.765 49.1324C256.46 48.3994 256.306 47.4822 256.306 46.3806V34.5826H258.271C259.021 34.5826 259.699 34.7731 260.301 35.152C260.903 35.531 261.363 36.0113 261.676 36.589L261.728 36.5621L261.338 32.2015Z" fill="white"/>
<path d="M192.399 32.1932C192.401 32.1953 192.401 32.1994 192.403 32.2015C192.521 32.4479 192.581 32.7046 192.581 32.9697C192.581 33.2388 192.519 33.5266 192.399 33.8331C192.276 34.1395 192.085 34.5536 191.823 35.0713L189.964 38.585L187.973 34.9284C187.712 34.448 187.518 34.036 187.398 33.6902C187.275 33.3444 187.215 33.009 187.215 32.6818C187.215 32.5866 187.232 32.4272 187.267 32.2015C187.267 32.1994 187.267 32.1953 187.269 32.1932V32.1352H181.167V32.1932C181.172 32.1953 181.176 32.1994 181.18 32.2015C181.681 32.5266 182.104 32.8723 182.449 33.243C182.798 33.6177 183.156 34.1022 183.523 34.6965L187.662 41.492L183.523 48.2296C183.156 48.8197 182.798 49.3001 182.449 49.6707C182.117 50.0227 181.714 50.354 181.24 50.6646C181.215 50.6811 181.192 50.6977 181.167 50.7122V50.7702H187.269V50.7122C187.267 50.6956 187.265 50.6791 187.263 50.6646C187.232 50.4617 187.217 50.3147 187.217 50.2277C187.217 49.9047 187.278 49.5713 187.4 49.2276C187.523 48.886 187.714 48.476 187.976 47.9998L189.966 44.3742L191.825 47.8569C192.087 48.3704 192.278 48.7804 192.401 49.0847C192.523 49.3891 192.584 49.6749 192.584 49.942C192.584 50.1904 192.53 50.4327 192.422 50.6646C192.413 50.6811 192.407 50.6977 192.399 50.7122V50.7702H198.162V50.7122C198.126 50.6977 198.091 50.6811 198.054 50.6646C197.661 50.4762 197.227 50.1117 196.747 49.5713C196.223 48.9812 195.689 48.211 195.149 47.2585L191.975 41.5769H191.981L191.933 41.5024L191.927 41.492L191.931 41.4838L191.979 41.4092H191.973L195.147 35.6779C195.687 34.7193 196.221 33.9407 196.745 33.3465C197.26 32.7605 197.725 32.3795 198.139 32.2036C198.145 32.2015 198.151 32.1973 198.16 32.1953V32.1373H192.397V32.1932H192.399Z" fill="white"/>
</svg>
