<svg width="83" height="83" viewBox="0 0 83 83" fill="none" xmlns="http://www.w3.org/2000/svg">
<path d="M68.6708 53.5903V51.2424C67.6789 51.9406 66.6601 52.5894 65.6392 53.2422C64.732 53.823 63.8806 54.5006 62.9094 54.9764C61.8782 55.483 60.7354 55.9011 59.5864 56.0226C58.301 56.1565 57.0177 55.9258 55.7344 55.8661C54.0151 55.8661 55.4079 53.7757 56.0878 53.2937C57.1417 52.5441 58.6131 52.6656 59.729 51.9818C60.9276 51.2465 61.936 50.0355 62.9879 49.1046C64.0294 48.1819 65.2673 47.3746 66.0319 46.1903C66.7634 45.0596 67.0837 43.6509 66.5485 42.374C66.0112 41.0929 64.763 40.405 63.6347 39.7151C62.4423 38.986 61.3864 38.0427 60.0906 37.4825C58.7309 36.8956 57.2017 36.9285 55.7489 36.8338C54.2486 36.7349 53.0459 36.2303 52.5665 34.696C52.3929 34.1419 52.1904 33.3799 52.397 32.8135C52.6822 32.033 53.4385 32.0577 53.9882 31.5799C54.4945 31.0753 54.7074 30.2947 55.1889 29.7551C55.3583 29.5862 55.565 29.4359 55.7861 29.3514C56.4309 29.0116 57.1851 29.1846 57.8237 28.8489C59.4769 28.0786 59.3488 25.5206 61.2355 24.8822C61.8761 25.5783 62.3989 26.3918 62.744 27.2713C62.899 27.6688 63.0189 28.0807 63.0974 28.5008C63.1635 28.8571 63.0995 29.545 63.5273 29.716C65.1329 30.4389 66.968 30.3956 68.6708 30.7354C68.6708 27.2816 68.6708 23.8277 68.6708 20.3718H43.2362C47.2514 23.5682 49.0286 28.853 49.1712 33.8515C49.3158 38.8974 47.2411 43.9248 43.2589 47.1295V53.891C43.2589 56.7929 42.7629 60.0676 40.7584 62.3228H68.6708V53.5903Z" fill="white"/>
<path d="M27.789 61.501C27.3922 60.9635 27.0265 60.3044 26.7082 59.528C25.5386 56.2965 25.8506 51.5493 29.0599 49.5577C30.6759 48.5547 32.8251 48.6844 34.6457 48.3343C36.5159 47.9739 38.3737 47.4714 40.0599 46.5672C46.3752 43.1813 47.9292 34.7474 45.7676 28.369C44.4595 24.5135 41.4486 21.6713 37.5987 20.3718H14.677C16.5823 22.5672 17.0845 25.7122 17.0845 28.5173V30.859C18.872 29.8354 19.8309 28.2022 20.6038 26.3589C20.9716 25.4815 21.3312 24.6083 21.7569 23.7577C22.0379 23.1975 22.3479 22.2769 23.129 22.3325C24.2594 22.6002 25.2803 28.7459 25.6688 28.6491C27.6113 28.056 29.8225 28.0745 31.5769 29.1887C32.978 29.9981 33.7964 31.4213 35.3896 31.9609C36.1439 32.2163 36.9436 32.3131 37.7289 32.4222C38.2889 32.5005 39.1651 32.4634 39.6859 32.7002C40.9444 33.2728 39.9091 35.9997 39.5598 36.8956C38.9399 38.4855 37.7331 39.5318 35.9207 39.4185C34.4783 39.2805 33.04 39.0869 31.5935 39.0293C28.2767 39.0972 24.7678 39.4721 22.1185 41.6675C18.5951 44.3347 17.6487 48.2519 17.0866 52.3834V53.4811C17.0866 55.8105 16.7642 57.7609 16.1215 59.3282C16.0947 59.4662 16.0285 59.6021 15.9479 59.7298C15.4396 60.8564 14.863 61.7214 14.2183 62.3207H28.5268C28.2705 62.0921 28.0246 61.8182 27.789 61.501C27.3902 60.9635 28.0246 61.8182 27.789 61.501Z" fill="white"/>
<path d="M80.9334 28.6306C75.6824 12.5187 60.6382 0.972816 43.6619 0.0583744C26.3962 -0.868425 10.1369 9.31813 3.29677 25.0984C-3.63016 41.0764 0.624777 60.3106 13.5611 71.9677C26.5471 83.6701 46.0756 86.0118 61.438 77.5903C76.6061 69.2758 85.0933 51.9488 82.4316 34.9122C82.0989 32.7826 81.6009 30.6798 80.9334 28.6306C79.646 24.6783 82.2663 32.7229 80.9334 28.6306ZM26.4458 76.6305C26.4458 76.6305 26.5099 76.6573 26.5595 76.6799C26.5202 76.6635 26.4809 76.649 26.4458 76.6305ZM79.7431 44.5262C78.6292 58.5785 69.3796 71.1892 56.3709 76.6614C46.9084 80.5745 35.5157 80.694 25.8878 76.3834C20.8414 74.124 16.8179 71.2242 13.1292 67.2348C9.79387 63.6285 7.14048 59.3509 5.43354 54.7477C4.34036 51.7985 3.57368 48.7009 3.24304 45.5704C2.90827 42.3925 3.17691 39.2764 3.35877 36.1582C4.16884 29.5985 6.95862 23.1851 10.9966 17.9683C12.9908 15.3938 15.3383 13.0439 17.9194 11.0543C20.6162 8.97418 23.5485 7.51602 26.576 6.00224C26.2123 6.18555 27.2393 5.74686 27.3613 5.70155C27.7167 5.56356 28.0763 5.42969 28.4358 5.302C29.312 4.991 30.1965 4.70885 31.0934 4.4617C32.7383 4.00654 34.4122 3.64818 36.1026 3.41133C37.8488 3.1683 39.6198 3.05708 41.3825 3.05502C42.2856 3.05502 43.1886 3.0818 44.0896 3.14153C44.5401 3.17036 44.9906 3.20743 45.4411 3.25274C45.6003 3.26922 46.9311 3.40927 46.4888 3.38249C49.8097 3.59051 53.3145 4.75828 56.3606 6.0352C59.4706 7.3389 62.2067 9.13689 64.9655 11.042C64.577 10.7742 65.4532 11.4086 65.5296 11.4683C65.8665 11.734 66.1868 12.0203 66.5071 12.3045C67.1353 12.8626 67.7573 13.4311 68.3566 14.018C69.5387 15.1755 70.6546 16.405 71.6816 17.7026C73.5828 20.104 75.1782 22.7588 76.4573 25.535C79.1789 31.446 80.2556 38.051 79.7431 44.5262C79.7018 45.0411 79.8258 43.4696 79.7431 44.5262Z" fill="white"/>
<path d="M3.35687 36.1603C3.34012 36.3086 3.34431 36.3745 3.35687 36.1603V36.1603Z" fill="white"/>
</svg>
