<svg width="40" height="40" viewBox="0 0 40 40" fill="none" xmlns="http://www.w3.org/2000/svg">
<g filter="url(#filter0_d_35_1229)">
<path d="M20 31C28.2843 31 35 24.2843 35 16C35 7.71573 28.2843 1 20 1C11.7157 1 5 7.71573 5 16C5 24.2843 11.7157 31 20 31Z" fill="white" stroke="#015560" stroke-width="2" stroke-miterlimit="10"/>
<path d="M15.376 5.69388C14.1998 6.08056 13.6896 6.99893 13.5607 8.12675C13.3674 9.78088 13.8454 11.2417 15.1289 12.348C16.434 13.4758 18.0451 13.116 18.7379 11.5371C19.42 9.99033 19.0978 8.5188 18.2331 7.13319C17.7874 6.42428 17.1644 5.91944 16.3427 5.69388C16.0151 5.69388 15.6928 5.69388 15.376 5.69388Z" fill="#FFB300" stroke="#015560" stroke-miterlimit="10"/>
<path d="M23.4748 5.69388C21.8099 6.25242 21.0849 7.54135 20.7841 9.15253C20.5962 10.1676 20.7304 11.1396 21.3158 12.0097C22.0086 13.0408 23.2868 13.2879 24.3287 12.6058C26.0741 11.4565 26.7992 8.80881 25.8754 6.92911C25.5747 6.31686 25.0806 5.9087 24.4307 5.69388C24.1139 5.69388 23.7916 5.69388 23.4748 5.69388Z" fill="#015560"/>
<path d="M28.0398 21.5478C28.0935 20.3663 27.4114 19.3781 26.3964 18.5779C25.3437 17.7454 24.318 16.8969 23.6037 15.7315C23.3835 15.3716 23.1311 15.0333 22.8625 14.7057C22.3631 14.0881 21.8099 13.5188 21.0312 13.2556C19.9356 12.8851 18.8937 12.9979 17.9431 13.696C17.2771 14.1847 16.7723 14.8185 16.3373 15.5059C15.5854 16.6928 14.6133 17.6488 13.4909 18.4866C12.449 19.2653 11.7723 20.275 11.7293 21.6337C11.6649 23.6369 13.3351 25.3985 15.376 25.479C16.2084 25.5113 17.0301 25.4039 17.8088 25.1461C19.232 24.6735 20.623 24.7057 22.0462 25.1568C23.0881 25.4844 24.1676 25.6294 25.2578 25.3394C26.9066 24.899 28.0612 23.406 28.0398 21.5478Z" fill="#015560"/>
<path d="M8.96882 13.8195C9.06012 15.377 9.70459 16.6015 11.1332 17.3265C12.2449 17.8904 13.5069 17.4447 13.9957 16.3008C14.6025 14.8829 14.1998 13.6208 13.3136 12.4608C13.0075 12.058 12.6154 11.7358 12.1536 11.5156C10.6068 10.7852 9.06012 11.7411 8.96882 13.4705C8.96345 13.5886 8.96882 13.7014 8.96882 13.8195Z" fill="#015560"/>
<path d="M30.913 13.9753C30.8861 13.1536 30.7734 12.5199 30.3169 11.9989C29.7046 11.3007 28.8614 11.0859 27.986 11.4028C26.2352 12.0365 25.1504 14.3405 25.7734 16.0967C26.2513 17.4393 27.6262 17.9549 28.8668 17.2513C30.2041 16.4995 30.8002 15.3072 30.913 13.9753Z" fill="#015560"/>
</g>
<defs>
<filter id="filter0_d_35_1229" x="0" y="0" width="40" height="40" filterUnits="userSpaceOnUse" color-interpolation-filters="sRGB">
<feFlood flood-opacity="0" result="BackgroundImageFix"/>
<feColorMatrix in="SourceAlpha" type="matrix" values="0 0 0 0 0 0 0 0 0 0 0 0 0 0 0 0 0 0 127 0" result="hardAlpha"/>
<feOffset dy="4"/>
<feGaussianBlur stdDeviation="2"/>
<feComposite in2="hardAlpha" operator="out"/>
<feColorMatrix type="matrix" values="0 0 0 0 0 0 0 0 0 0 0 0 0 0 0 0 0 0 0.25 0"/>
<feBlend mode="normal" in2="BackgroundImageFix" result="effect1_dropShadow_35_1229"/>
<feBlend mode="normal" in="SourceGraphic" in2="effect1_dropShadow_35_1229" result="shape"/>
</filter>
</defs>
</svg>
