<svg width="54" height="54" viewBox="0 0 54 54" fill="none" xmlns="http://www.w3.org/2000/svg">
<g filter="url(#filter0_d_16_38)">
<path d="M26.6698 44.3397C38.6377 44.3397 48.3397 34.6377 48.3397 22.6698C48.3397 10.7019 38.6377 1 26.6698 1C14.7019 1 5 10.7019 5 22.6698C5 34.6377 14.7019 44.3397 26.6698 44.3397Z" fill="white" stroke="#015560" stroke-width="2" stroke-miterlimit="10"/>
<path d="M19.9897 7.78104C18.2905 8.33966 17.5535 9.66638 17.3673 11.2957C17.0879 13.6853 17.7785 15.7957 19.6328 17.394C21.5181 19.0233 23.8457 18.5035 24.8466 16.2224C25.8319 13.9879 25.3664 11.8621 24.1173 9.86035C23.4733 8.83621 22.5733 8.1069 21.3862 7.78104C20.9129 7.78104 20.4474 7.78104 19.9897 7.78104Z" fill="#FFB300" stroke="#015560" stroke-miterlimit="10"/>
<path d="M31.6897 7.78104C29.2845 8.58793 28.2371 10.45 27.8026 12.7776C27.531 14.244 27.725 15.6483 28.5707 16.9052C29.5716 18.3948 31.4181 18.7517 32.9233 17.7664C35.4448 16.106 36.4923 12.281 35.1578 9.56552C34.7233 8.68104 34.0095 8.09138 33.0707 7.78104C32.6129 7.78104 32.1474 7.78104 31.6897 7.78104Z" fill="#015560"/>
<path d="M38.2845 30.6845C38.3621 28.9776 37.3767 27.55 35.9103 26.394C34.3896 25.1914 32.9077 23.9655 31.8759 22.2819C31.5577 21.7621 31.1931 21.2733 30.8052 20.8C30.0836 19.9078 29.2845 19.0853 28.1595 18.7052C26.5767 18.1698 25.0715 18.3328 23.6983 19.3414C22.7362 20.0474 22.0069 20.9629 21.3784 21.956C20.2922 23.6707 18.8879 25.0517 17.2664 26.2621C15.7612 27.3871 14.7836 28.8457 14.7215 30.8086C14.6284 33.7026 17.0414 36.2474 19.9896 36.3638C21.1922 36.4103 22.3793 36.2552 23.5043 35.8827C25.5603 35.2 27.5698 35.2465 29.6259 35.8983C31.131 36.3715 32.6905 36.581 34.2655 36.1621C36.6474 35.5259 38.3155 33.369 38.2845 30.6845Z" fill="#015560"/>
<path d="M10.7336 19.5198C10.8655 21.7698 11.7965 23.5388 13.8603 24.5862C15.4664 25.4009 17.2896 24.7569 17.9957 23.1043C18.8724 21.056 18.2905 19.2328 17.0103 17.5569C16.5681 16.975 16.0017 16.5095 15.3345 16.1914C13.1 15.1362 10.8655 16.5172 10.7336 19.0155C10.7259 19.1862 10.7336 19.3491 10.7336 19.5198Z" fill="#015560"/>
<path d="M42.4353 19.7448C42.3965 18.5578 42.2336 17.6422 41.5741 16.8897C40.6896 15.881 39.4715 15.5707 38.2069 16.0285C35.6775 16.944 34.1103 20.2724 35.0103 22.8095C35.7008 24.7491 37.687 25.494 39.4793 24.4776C41.4112 23.3914 42.2724 21.669 42.4353 19.7448Z" fill="#015560"/>
</g>
<defs>
<filter id="filter0_d_16_38" x="0" y="0" width="53.3397" height="53.3397" filterUnits="userSpaceOnUse" color-interpolation-filters="sRGB">
<feFlood flood-opacity="0" result="BackgroundImageFix"/>
<feColorMatrix in="SourceAlpha" type="matrix" values="0 0 0 0 0 0 0 0 0 0 0 0 0 0 0 0 0 0 127 0" result="hardAlpha"/>
<feOffset dy="4"/>
<feGaussianBlur stdDeviation="2"/>
<feComposite in2="hardAlpha" operator="out"/>
<feColorMatrix type="matrix" values="0 0 0 0 0 0 0 0 0 0 0 0 0 0 0 0 0 0 0.25 0"/>
<feBlend mode="normal" in2="BackgroundImageFix" result="effect1_dropShadow_16_38"/>
<feBlend mode="normal" in="SourceGraphic" in2="effect1_dropShadow_16_38" result="shape"/>
</filter>
</defs>
</svg>
