<svg width="39" height="39" viewBox="0 0 39 39" fill="none" xmlns="http://www.w3.org/2000/svg">
<g filter="url(#filter0_d_16_189)">
<path d="M19.28 30.06C27.4428 30.06 34.06 23.4428 34.06 15.28C34.06 7.11723 27.4428 0.5 19.28 0.5C11.1172 0.5 4.5 7.11723 4.5 15.28C4.5 23.4428 11.1172 30.06 19.28 30.06Z" fill="white" stroke="#015560" stroke-miterlimit="10"/>
<path d="M33.44 19.53C33.25 19.45 33.07 19.35 32.89 19.21C32.35 18.78 31.76 18.42 31.12 18.13C29.95 17.6 29.27 16.66 28.85 15.49C28.72 15.11 28.55 14.74 28.36 14.39C28.04 13.81 27.74 13.21 27.41 12.63C26.96 11.83 26.39 11.11 25.79 10.42C25.6 10.21 25.43 9.97999 25.26 9.75999C24.84 9.22999 24.3 8.82999 23.77 8.40999C23.36 8.08999 22.97 7.74999 22.52 7.48999C22.45 7.44999 22.4 7.39999 22.37 7.31999C22.04 6.52999 21.5 5.88999 20.91 5.28999C20.4 4.76999 20.12 4.12999 19.96 3.42999C19.92 3.23999 19.93 3.03999 19.97 2.84999C19.98 2.78999 19.99 2.73999 19.94 2.69999C19.88 2.64999 19.82 2.67999 19.77 2.71999C19.61 2.81999 19.47 2.93999 19.39 3.09999C19.13 3.59999 18.89 4.09999 18.93 4.68999C18.95 4.96999 19.03 5.21999 19.13 5.46999C19.3 5.87999 19.29 6.28999 19.22 6.71999C19.22 6.73999 19.2 6.74999 19.18 6.75999C19.09 6.70999 19.13 6.61999 19.12 6.54999C19.1 6.11999 19.05 5.69999 18.9 5.29999C18.76 4.92999 18.69 4.54999 18.73 4.15999C18.76 3.90999 18.82 3.65999 18.81 3.40999C18.8 3.17999 18.73 2.93999 18.82 2.70999C18.85 2.63999 18.8 2.58999 18.76 2.54999C18.69 2.54999 18.62 2.54999 18.55 2.54999C18.41 2.67999 18.22 2.73999 18.09 2.88999C17.7 3.32999 17.61 3.83999 17.65 4.39999C17.68 4.78999 17.84 5.14999 17.97 5.50999C18.1 5.84999 18.11 6.18999 18 6.53999C17.98 6.58999 17.97 6.63999 17.97 6.69999C17.99 6.95999 17.77 7.29999 17.53 7.40999C17.29 7.51999 17.02 7.57999 16.87 7.83999C16.85 7.86999 16.81 7.88999 16.77 7.90999C16.24 8.15999 15.81 8.55999 15.32 8.87999C14.91 9.14999 14.62 9.50999 14.76 10.06C14.77 10.1 14.76 10.14 14.76 10.18C14.74 10.4 14.66 10.56 14.42 10.62C14.23 10.67 14.07 10.79 13.92 10.91C13.64 11.14 13.35 11.32 13.02 11.46C12.74 11.59 12.48 11.75 12.24 11.94C11.84 12.25 11.44 12.55 11.04 12.86C10.85 13.01 10.62 13.1 10.46 13.28C10.36 13.4 10.25 13.5 10.1 13.55C10.1 13.58 10.1 13.61 10.1 13.63C10.18 13.83 10.3 14.01 10.41 14.2C10.45 14.27 10.49 14.32 10.61 14.3C10.43 14.43 10.5 14.49 10.61 14.6C10.91 14.89 11.19 15.19 11.32 15.6C11.35 15.68 11.4 15.76 11.45 15.83C11.75 16.2 12.08 16.57 12.48 16.81C13.02 17.14 13.61 17.16 14.19 16.92C14.41 16.83 14.63 16.8 14.86 16.8C14.92 16.8 14.98 16.82 15.03 16.86C15.35 17.11 15.84 17.11 16.16 16.87C16.48 16.63 16.72 16.31 16.95 15.98C17.25 15.55 17.72 15.23 18.27 15.18C18.94 15.11 19.52 15.51 19.72 16.15C20 17.08 20.44 17.95 20.7 18.88C20.79 19.18 20.79 19.51 20.91 19.81C20.97 19.96 21.02 20.12 21.07 20.28C21.18 20.64 21.22 21 21.22 21.38C21.22 22.12 21.13 22.86 21.21 23.6C21.3 24.43 21.25 25.26 21.21 26.09C21.18 26.63 21.09 27.16 21.08 27.7C21.07 28.46 21.29 29.16 21.51 29.86C27.22 29.01 31.82 24.92 33.44 19.53Z" fill="#015560"/>
<path d="M21.1 26.86C21.6909 26.86 22.17 25.9825 22.17 24.9C22.17 23.8175 21.6909 22.94 21.1 22.94C20.5091 22.94 20.03 23.8175 20.03 24.9C20.03 25.9825 20.5091 26.86 21.1 26.86Z" fill="#FFB300"/>
<path d="M23.18 24.69C23.6992 24.69 24.12 24.005 24.12 23.16C24.12 22.315 23.6992 21.63 23.18 21.63C22.6609 21.63 22.24 22.315 22.24 23.16C22.24 24.005 22.6609 24.69 23.18 24.69Z" fill="#FFB300"/>
<path d="M25.26 22.94C25.8454 22.94 26.32 22.349 26.32 21.62C26.32 20.891 25.8454 20.3 25.26 20.3C24.6746 20.3 24.2 20.891 24.2 21.62C24.2 22.349 24.6746 22.94 25.26 22.94Z" fill="#FFB300"/>
<path d="M20.93 20.9C20.93 20.9 25.6 19.93 29.41 16.65" stroke="#FFB300" stroke-width="1.5" stroke-miterlimit="10" stroke-linecap="round"/>
</g>
<defs>
<filter id="filter0_d_16_189" x="0" y="0" width="38.56" height="38.56" filterUnits="userSpaceOnUse" color-interpolation-filters="sRGB">
<feFlood flood-opacity="0" result="BackgroundImageFix"/>
<feColorMatrix in="SourceAlpha" type="matrix" values="0 0 0 0 0 0 0 0 0 0 0 0 0 0 0 0 0 0 127 0" result="hardAlpha"/>
<feOffset dy="4"/>
<feGaussianBlur stdDeviation="2"/>
<feComposite in2="hardAlpha" operator="out"/>
<feColorMatrix type="matrix" values="0 0 0 0 0 0 0 0 0 0 0 0 0 0 0 0 0 0 0.25 0"/>
<feBlend mode="normal" in2="BackgroundImageFix" result="effect1_dropShadow_16_189"/>
<feBlend mode="normal" in="SourceGraphic" in2="effect1_dropShadow_16_189" result="shape"/>
</filter>
</defs>
</svg>
