<svg width="55" height="54" viewBox="0 0 55 54" fill="none" xmlns="http://www.w3.org/2000/svg">
<g filter="url(#filter0_d_19_197)">
<path d="M27.4153 44.4445C39.4122 44.4445 49.1376 34.7191 49.1376 22.7223C49.1376 10.7254 39.4122 1 27.4153 1C15.4185 1 5.69308 10.7254 5.69308 22.7223C5.69308 34.7191 15.4185 44.4445 27.4153 44.4445Z" fill="white" stroke="#015560" stroke-width="2" stroke-miterlimit="10"/>
<path d="M45.7622 28.2131C45.3733 27.8787 45.0467 27.5131 44.7356 27.1165C44.4945 26.8132 44.1212 26.6187 43.8179 26.3621C43.5923 26.1754 43.3668 25.9888 43.1801 25.7788C42.4257 24.9466 41.8113 24.0211 41.2591 23.0489C41.0724 22.7223 40.738 22.4812 40.458 22.209C40.3103 22.069 40.1314 21.9523 39.9603 21.8434C39.5792 21.6023 39.4081 21.1979 39.1592 20.8557C38.6381 20.1246 38.1092 19.4091 37.3937 18.8491C37.2226 18.7091 37.1371 18.4525 37.0282 18.2425C36.8571 17.9314 36.686 17.6203 36.5227 17.3014C36.4216 17.0992 36.336 16.8892 36.2427 16.687C36.2116 16.6092 36.1727 16.5392 36.1338 16.4615C36.0249 16.2126 35.916 15.9637 35.8149 15.7071C35.7216 15.4504 35.6127 15.1937 35.5583 14.9293C35.4883 14.5793 35.4727 14.2216 35.4338 13.8638C35.426 13.7705 35.426 13.6772 35.4027 13.5916C35.3172 13.2572 35.0527 13.195 34.8194 13.3738C34.6405 13.5138 34.5239 13.7238 34.3372 13.9494C34.2128 13.926 34.135 14.0582 34.0417 14.2138C33.7384 14.7271 33.645 15.2949 33.5361 15.8626C33.4506 16.2981 33.3262 16.4148 32.9062 16.5237C32.5406 16.6248 32.1829 16.757 31.8484 16.9125C31.4829 17.0836 31.1329 17.2859 30.7829 17.4959C30.6663 17.5658 30.5418 17.6747 30.4796 17.7914C30.1452 18.4369 29.5463 18.608 28.893 18.7247C28.4808 18.7947 28.0764 18.9036 27.672 19.0124C27.3687 19.0902 27.0731 19.1835 26.7698 19.2691C26.5054 19.3391 26.4354 19.4402 26.482 19.7202C26.5598 20.1946 26.7465 20.6068 27.0576 20.9723C27.2442 21.1979 27.462 21.4079 27.6175 21.649C27.6875 21.7501 27.672 21.929 27.6642 22.069C27.6564 22.2245 27.742 22.2867 27.8509 22.3801C28.4108 22.8467 29.0641 22.8078 29.7252 22.7534C29.8574 22.7378 29.9974 22.7767 30.1296 22.7845C30.3863 22.8078 30.643 22.8234 30.8996 22.87C31.1485 22.9167 31.3974 22.9789 31.6307 23.0567C31.6851 23.0722 31.7551 23.1889 31.7473 23.2433C31.7085 23.5389 31.6618 23.8267 31.5918 24.1144C31.5529 24.27 31.5529 24.4022 31.654 24.5344C31.864 24.8066 31.8796 25.1099 31.6851 25.3899C31.514 25.631 31.5373 25.8721 31.6073 26.121C31.7707 26.681 31.9496 27.2331 32.1284 27.7853C32.1907 27.9798 32.1907 28.1431 32.0273 28.3298C31.7162 28.1587 31.3974 27.9953 31.0863 27.8087C30.6352 27.5365 30.1841 27.2565 29.733 26.9765C29.4375 26.7976 29.1108 26.7821 28.7842 26.8054C28.3331 26.8365 27.8898 26.9065 27.4387 26.9376C26.972 26.9687 26.5054 26.9298 26.0465 26.992C25.4399 27.0698 24.7944 26.8987 24.2266 27.2409C24.1022 27.3109 23.9855 27.3965 23.8766 27.4587C23.6511 27.2254 23.41 26.9921 23.1844 26.7354C23.0755 26.611 22.9744 26.4632 22.9278 26.3076C22.7956 25.8799 22.5622 25.5299 22.2278 25.2266C22.15 25.1566 22.1034 25.0166 22.1034 24.9155C22.0956 24.1455 22.1189 23.3833 22.0956 22.6134C22.08 22.2012 22.0023 21.789 21.9478 21.3534C22.7567 21.229 23.34 20.5446 24.211 20.6224C24.2188 20.5913 24.2188 20.5601 24.2266 20.529C24.0711 20.3968 23.9311 20.2257 23.7522 20.1324C22.9744 19.728 22.3445 19.1369 21.6756 18.5847C21.5278 18.4602 21.349 18.3669 21.1856 18.258C21.1312 18.2269 21.0845 18.188 21.0301 18.1569C21.0379 18.1336 21.0456 18.118 21.0612 18.0947C21.1623 18.1258 21.2712 18.1492 21.3645 18.1958C21.7767 18.4214 22.22 18.4525 22.6711 18.4291C22.9356 18.4136 23.1611 18.0403 23.0833 17.737C23.0289 17.5192 23.0289 17.3403 23.1767 17.1536C23.2778 17.0214 23.2311 16.8892 23.0678 16.7959C23.1144 16.757 23.1455 16.7181 23.1844 16.7026C23.4178 16.617 23.4255 16.4226 23.4022 16.2281C23.3711 15.9559 23.4255 15.847 23.6744 15.8237C24.0788 15.7848 24.1955 15.4115 23.9699 15.1549C23.8377 15.0071 23.7522 14.8204 23.6044 14.6882C23.3322 14.4393 23.3944 14.1438 23.3944 13.8249C23.4022 13.4361 23.6433 13.2494 23.9077 13.0938C24.4521 12.7672 24.4055 11.7717 24.0166 11.3984C23.8922 11.2739 23.7677 11.1495 23.6355 11.0328C23.4644 10.8773 23.3011 10.7684 23.0133 10.8151C22.6167 10.8695 22.2745 10.6751 21.9478 10.434C21.5745 10.1618 21.1623 9.93622 20.7423 9.73401C20.5946 9.66402 20.369 9.74957 20.1824 9.76512C20.1124 9.7729 20.019 9.79623 19.9724 9.76512C19.7546 9.63291 19.5524 9.49291 19.3424 9.35292C19.1402 9.35292 18.9458 9.35292 18.7435 9.35292C18.4013 9.51625 18.0669 9.69513 17.7091 9.83512C17.2581 10.0062 16.9159 10.2784 16.6981 10.714C16.4181 11.2895 16.1226 11.865 15.8426 12.4405C15.7026 12.7361 15.617 13.0239 15.6948 13.3661C15.7492 13.5994 15.6559 13.8327 15.4537 13.996C15.0882 14.2916 15.0182 14.766 15.2826 15.1549C15.3604 15.2715 15.4226 15.3882 15.477 15.5204C15.5004 15.5748 15.5081 15.6604 15.477 15.7071C15.337 15.9715 15.3993 16.2437 15.4148 16.5159C15.4226 16.6714 15.5081 16.7726 15.6792 16.8192C15.9048 16.8814 15.9515 17.0525 15.8426 17.2625C15.2204 18.468 14.4193 19.5413 13.5871 20.6068C12.7238 21.7034 11.9694 22.8778 11.3239 24.1144C11.1917 24.3711 11.215 24.6355 11.2772 24.8844C11.3706 25.2577 11.2772 25.5999 11.2072 25.9499C11.005 27.0465 10.7562 28.1353 10.5851 29.2397C10.4528 30.0719 10.3984 30.9119 10.3284 31.7518C10.3051 31.9851 10.2584 32.1796 10.1184 32.3662C9.93175 32.6151 9.96286 32.7318 10.1962 32.934C10.3128 33.0351 10.414 33.1595 10.5462 33.2295C10.7173 33.3306 10.7484 33.494 10.7717 33.6495C10.8106 33.9062 10.8339 34.1628 10.8184 34.4195C10.8106 34.6295 10.7484 34.8317 10.7095 35.0417C10.6939 35.135 10.6784 35.2361 10.6862 35.3294C10.725 35.7883 10.7639 36.2549 10.8184 36.7138C10.8184 36.7371 10.8262 36.7605 10.8262 36.7838C14.8082 41.4891 20.7579 44.4756 27.3998 44.4756C27.5475 44.4756 27.7031 44.4679 27.8509 44.4679C27.812 44.4445 27.7731 44.4212 27.7187 44.4056C27.4931 44.3279 27.2831 44.2345 27.0187 44.1334C27.112 43.9779 27.1742 43.8457 27.2753 43.729C27.7498 43.1613 27.7653 42.3835 27.2753 41.8313C26.9954 41.5047 26.6998 41.1936 26.3887 40.898C26.2254 40.7425 26.1787 40.5714 26.2098 40.3614C26.3732 39.3892 26.5443 38.417 26.6998 37.4449C26.7854 36.9316 26.972 36.4571 27.2365 36.0138C27.3298 35.8583 27.3687 35.6716 27.4309 35.5005C27.5242 35.2594 27.6098 35.0183 27.7031 34.7772C27.952 34.1473 28.1931 33.5251 28.4419 32.9029C28.5508 32.6384 28.6753 32.3896 28.8153 32.1407C29.0175 31.7674 29.1341 31.3863 29.0408 30.9585C29.0019 30.7874 29.0408 30.6008 28.9864 30.4374C28.8464 30.0719 28.6675 29.7141 28.5119 29.3564C28.4731 29.2786 28.4419 29.1931 28.4342 29.0919C28.6208 29.1775 28.8541 29.0842 28.963 29.3797C29.033 29.5741 29.243 29.7219 29.4063 29.8697C29.8963 30.3052 30.363 30.7563 30.8918 31.1374C31.3585 31.4796 31.8718 31.7674 32.3851 32.024C32.8906 32.2729 33.2873 32.654 33.6917 33.0273C33.7461 33.0818 33.7617 33.1751 33.785 33.2529C33.8628 33.5017 33.9406 33.7506 34.0028 33.9995C34.0572 34.2095 34.0806 34.4272 34.1428 34.6372C34.1739 34.7383 34.2283 34.855 34.3061 34.9094C34.5316 35.0805 34.6561 35.2672 34.6483 35.5783C34.6405 35.9438 34.7416 36.3016 34.7572 36.6671C34.765 37.0249 34.7572 37.3826 34.695 37.7326C34.5628 38.4793 34.3994 39.2259 34.2283 39.9647C34.0494 40.7425 33.8706 41.5202 33.6217 42.2669C33.505 42.6091 33.2173 42.889 32.9995 43.1924C32.9062 43.3168 32.7506 43.4023 32.6651 43.5346C32.3618 43.9857 31.8951 43.9934 31.4285 44.0168C31.094 44.0323 30.7752 44.1023 30.4952 44.2501C32.354 43.9857 34.1428 43.4879 35.8227 42.7802C36.0482 42.1891 36.2193 41.5824 36.4527 40.9914C36.8649 39.9181 37.1604 38.8059 37.7204 37.7949C37.7904 37.6704 37.8604 37.616 38.047 37.6704C38.5059 37.7949 38.8092 38.1137 39.1747 38.3782C39.7036 38.7592 40.3102 39.0392 40.8858 39.3503C40.9947 39.4125 41.1113 39.467 41.228 39.5137C44.1834 37.0716 46.4855 33.8595 47.8232 30.1808C47.1621 29.4886 46.4777 28.8353 45.7622 28.2131ZM22.43 37.9504C22.1811 37.826 21.9634 37.7093 21.7456 37.6004C22.1111 37.266 22.4611 36.9316 22.8578 36.5738C22.8111 37.0793 22.6089 37.4993 22.43 37.9504Z" fill="#00859F"/>
<path d="M45.7622 28.2131C45.3733 27.8787 45.0467 27.5131 44.7356 27.1165C44.4945 26.8132 44.1212 26.6187 43.8179 26.3621C43.5923 26.1754 43.3668 25.9888 43.1801 25.7788C42.4257 24.9466 41.8113 24.0211 41.2591 23.0489C41.0724 22.7223 40.738 22.4812 40.458 22.209C40.3103 22.069 40.1314 21.9523 39.9603 21.8434C39.5792 21.6023 39.4081 21.1979 39.1592 20.8557C38.6381 20.1246 38.1092 19.4091 37.3937 18.8491C37.2226 18.7091 37.1371 18.4525 37.0282 18.2425C36.8571 17.9314 36.686 17.6203 36.5227 17.3014C36.4216 17.0992 36.336 16.8892 36.2427 16.687C36.2116 16.6092 36.1727 16.5392 36.1338 16.4615C36.0249 16.2126 35.916 15.9637 35.8149 15.7071C35.7216 15.4504 35.6127 15.1937 35.5583 14.9293C35.4883 14.5793 35.4727 14.2216 35.4338 13.8638C35.426 13.7705 35.426 13.6772 35.4027 13.5916C35.3172 13.2572 35.0527 13.195 34.8194 13.3738C34.6405 13.5138 34.5239 13.7238 34.3372 13.9494C34.2128 13.926 34.135 14.0582 34.0417 14.2138C33.7384 14.7271 33.645 15.2949 33.5361 15.8626C33.4506 16.2981 33.3262 16.4148 32.9062 16.5237C32.5406 16.6248 32.1829 16.757 31.8484 16.9125C31.4829 17.0836 31.1329 17.2859 30.7829 17.4959C30.6663 17.5658 30.5418 17.6747 30.4796 17.7914C30.1452 18.4369 29.5463 18.608 28.893 18.7247C28.4808 18.7947 28.0764 18.9036 27.672 19.0124C27.3687 19.0902 27.0731 19.1835 26.7698 19.2691C26.5054 19.3391 26.4354 19.4402 26.482 19.7202C26.5598 20.1946 26.7465 20.6068 27.0576 20.9723C27.2442 21.1979 27.462 21.4079 27.6175 21.649C27.6875 21.7501 27.672 21.929 27.6642 22.069C27.6564 22.2245 27.742 22.2867 27.8509 22.3801C28.4108 22.8467 29.0641 22.8078 29.7252 22.7534C29.8574 22.7378 29.9974 22.7767 30.1296 22.7845C30.3863 22.8078 30.643 22.8234 30.8996 22.87C31.1485 22.9167 31.3974 22.9789 31.6307 23.0567C31.6851 23.0722 31.7551 23.1889 31.7473 23.2433C31.7085 23.5389 31.6618 23.8267 31.5918 24.1144C31.5529 24.27 31.5529 24.4022 31.654 24.5344C31.864 24.8066 31.8796 25.1099 31.6851 25.3899C31.514 25.631 31.5373 25.8721 31.6073 26.121C31.7707 26.681 31.9496 27.2331 32.1284 27.7853C32.1907 27.9798 32.1907 28.1431 32.0273 28.3298C31.7162 28.1587 31.3974 27.9953 31.0863 27.8087C30.6352 27.5365 30.1841 27.2565 29.733 26.9765C29.4375 26.7976 29.1108 26.7821 28.7842 26.8054C28.3331 26.8365 27.8898 26.9065 27.4387 26.9376C26.972 26.9687 26.5054 26.9298 26.0465 26.992C25.4399 27.0698 24.7944 26.8987 24.2266 27.2409C24.1022 27.3109 23.9855 27.3965 23.8766 27.4587C23.6511 27.2254 23.41 26.9921 23.1844 26.7354C23.0755 26.611 22.9744 26.4632 22.9278 26.3076C22.7956 25.8799 22.5622 25.5299 22.2278 25.2266C22.15 25.1566 22.1034 25.0166 22.1034 24.9155C22.0956 24.1455 22.1189 23.3833 22.0956 22.6134C22.08 22.2012 22.0023 21.789 21.9478 21.3534C22.7567 21.229 23.34 20.5446 24.211 20.6224C24.2188 20.5913 24.2188 20.5601 24.2266 20.529C24.0711 20.3968 23.9311 20.2257 23.7522 20.1324C22.9744 19.728 22.3445 19.1369 21.6756 18.5847C21.5278 18.4602 21.349 18.3669 21.1856 18.258C21.1312 18.2269 21.0845 18.188 21.0301 18.1569C21.0379 18.1336 21.0456 18.118 21.0612 18.0947C21.1623 18.1258 21.2712 18.1492 21.3645 18.1958C21.7767 18.4214 22.22 18.4525 22.6711 18.4291C22.9356 18.4136 23.1611 18.0403 23.0833 17.737C23.0289 17.5192 23.0289 17.3403 23.1767 17.1536C23.2778 17.0214 23.2311 16.8892 23.0678 16.7959C23.1144 16.757 23.1455 16.7181 23.1844 16.7026C23.4178 16.617 23.4255 16.4226 23.4022 16.2281C23.3711 15.9559 23.4255 15.847 23.6744 15.8237C24.0788 15.7848 24.1955 15.4115 23.9699 15.1549C23.8377 15.0071 23.7522 14.8204 23.6044 14.6882C23.3322 14.4393 23.3944 14.1438 23.3944 13.8249C23.4022 13.4361 23.6433 13.2494 23.9077 13.0938C24.4521 12.7672 24.4055 11.7717 24.0166 11.3984C23.8922 11.2739 23.7677 11.1495 23.6355 11.0328C23.4644 10.8773 23.3011 10.7684 23.0133 10.8151C22.6167 10.8695 22.2745 10.6751 21.9478 10.434C21.5745 10.1618 21.1623 9.93622 20.7423 9.73401C20.5946 9.66402 20.369 9.74957 20.1824 9.76512C20.1124 9.7729 20.019 9.79623 19.9724 9.76512C19.7546 9.63291 19.5524 9.49291 19.3424 9.35292C19.1402 9.35292 18.9458 9.35292 18.7435 9.35292C18.4013 9.51625 18.0669 9.69513 17.7091 9.83512C17.2581 10.0062 16.9159 10.2784 16.6981 10.714C16.4181 11.2895 16.1226 11.865 15.8426 12.4405C15.7026 12.7361 15.617 13.0239 15.6948 13.3661C15.7492 13.5994 15.6559 13.8327 15.4537 13.996C15.0882 14.2916 15.0182 14.766 15.2826 15.1549C15.3604 15.2715 15.4226 15.3882 15.477 15.5204C15.5004 15.5748 15.5081 15.6604 15.477 15.7071C15.337 15.9715 15.3993 16.2437 15.4148 16.5159C15.4226 16.6714 15.5081 16.7726 15.6792 16.8192C15.9048 16.8814 15.9515 17.0525 15.8426 17.2625C15.2204 18.468 14.4193 19.5413 13.5871 20.6068C12.7238 21.7034 11.9694 22.8778 11.3239 24.1144C11.1917 24.3711 11.215 24.6355 11.2772 24.8844C11.3706 25.2577 11.2772 25.5999 11.2072 25.9499C11.005 27.0465 10.7562 28.1353 10.5851 29.2397C10.4528 30.0719 10.3984 30.9119 10.3284 31.7518C10.3051 31.9851 10.2584 32.1796 10.1184 32.3662C9.93175 32.6151 9.96286 32.7318 10.1962 32.934C10.3128 33.0351 10.414 33.1595 10.5462 33.2295C10.7173 33.3306 10.7484 33.494 10.7717 33.6495C10.8106 33.9062 10.8339 34.1628 10.8184 34.4195C10.8106 34.6295 10.7484 34.8317 10.7095 35.0417C10.6939 35.135 10.6784 35.2361 10.6862 35.3294C10.725 35.7883 10.7639 36.2549 10.8184 36.7138C10.8184 36.7371 10.8262 36.7605 10.8262 36.7838C14.8082 41.4891 20.7579 44.4756 27.3998 44.4756C27.5475 44.4756 27.7031 44.4679 27.8509 44.4679C27.812 44.4445 27.7731 44.4212 27.7187 44.4056C27.4931 44.3279 27.2831 44.2345 27.0187 44.1334C27.112 43.9779 27.1742 43.8457 27.2753 43.729C27.7498 43.1613 27.7653 42.3835 27.2753 41.8313C26.9954 41.5047 26.6998 41.1936 26.3887 40.898C26.2254 40.7425 26.1787 40.5714 26.2098 40.3614C26.3732 39.3892 26.5443 38.417 26.6998 37.4449C26.7854 36.9316 26.972 36.4571 27.2365 36.0138C27.3298 35.8583 27.3687 35.6716 27.4309 35.5005C27.5242 35.2594 27.6098 35.0183 27.7031 34.7772C27.952 34.1473 28.1931 33.5251 28.4419 32.9029C28.5508 32.6384 28.6753 32.3896 28.8153 32.1407C29.0175 31.7674 29.1341 31.3863 29.0408 30.9585C29.0019 30.7874 29.0408 30.6008 28.9864 30.4374C28.8464 30.0719 28.6675 29.7141 28.5119 29.3564C28.4731 29.2786 28.4419 29.1931 28.4342 29.0919C28.6208 29.1775 28.8541 29.0842 28.963 29.3797C29.033 29.5741 29.243 29.7219 29.4063 29.8697C29.8963 30.3052 30.363 30.7563 30.8918 31.1374C31.3585 31.4796 31.8718 31.7674 32.3851 32.024C32.8906 32.2729 33.2873 32.654 33.6917 33.0273C33.7461 33.0818 33.7617 33.1751 33.785 33.2529C33.8628 33.5017 33.9406 33.7506 34.0028 33.9995C34.0572 34.2095 34.0806 34.4272 34.1428 34.6372C34.1739 34.7383 34.2283 34.855 34.3061 34.9094C34.5316 35.0805 34.6561 35.2672 34.6483 35.5783C34.6405 35.9438 34.7416 36.3016 34.7572 36.6671C34.765 37.0249 34.7572 37.3826 34.695 37.7326C34.5628 38.4793 34.3994 39.2259 34.2283 39.9647C34.0494 40.7425 33.8706 41.5202 33.6217 42.2669C33.505 42.6091 33.2173 42.889 32.9995 43.1924C32.9062 43.3168 32.7506 43.4023 32.6651 43.5346C32.3618 43.9857 31.8951 43.9934 31.4285 44.0168C31.094 44.0323 30.7752 44.1023 30.4952 44.2501C32.354 43.9857 34.1428 43.4879 35.8227 42.7802C36.0482 42.1891 36.2193 41.5824 36.4527 40.9914C36.8649 39.9181 37.1604 38.8059 37.7204 37.7949C37.7904 37.6704 37.8604 37.616 38.047 37.6704C38.5059 37.7949 38.8092 38.1137 39.1747 38.3782C39.7036 38.7592 40.3102 39.0392 40.8858 39.3503C40.9947 39.4125 41.1113 39.467 41.228 39.5137C44.1834 37.0716 46.4855 33.8595 47.8232 30.1808C47.1621 29.4886 46.4777 28.8353 45.7622 28.2131ZM22.43 37.9504C22.1811 37.826 21.9634 37.7093 21.7456 37.6004C22.1111 37.266 22.4611 36.9316 22.8578 36.5738C22.8111 37.0793 22.6089 37.4993 22.43 37.9504Z" fill="#015560"/>
<path d="M31.6929 23.5933C31.6929 23.5933 33.6373 23.43 35.0294 22.3956C36.4216 21.3612 38.5915 19.7669 38.8092 20.0624C39.027 20.3579 39.307 20.5757 38.7003 21.0812C38.0937 21.579 35.8849 22.4734 35.7061 23.0022C35.5272 23.5389 32.0273 24.8222 31.654 24.5188C31.2885 24.2155 31.6929 23.5933 31.6929 23.5933Z" fill="#FFB300"/>
</g>
<defs>
<filter id="filter0_d_19_197" x="0.693085" y="0" width="53.4445" height="53.4445" filterUnits="userSpaceOnUse" color-interpolation-filters="sRGB">
<feFlood flood-opacity="0" result="BackgroundImageFix"/>
<feColorMatrix in="SourceAlpha" type="matrix" values="0 0 0 0 0 0 0 0 0 0 0 0 0 0 0 0 0 0 127 0" result="hardAlpha"/>
<feOffset dy="4"/>
<feGaussianBlur stdDeviation="2"/>
<feComposite in2="hardAlpha" operator="out"/>
<feColorMatrix type="matrix" values="0 0 0 0 0 0 0 0 0 0 0 0 0 0 0 0 0 0 0.25 0"/>
<feBlend mode="normal" in2="BackgroundImageFix" result="effect1_dropShadow_19_197"/>
<feBlend mode="normal" in="SourceGraphic" in2="effect1_dropShadow_19_197" result="shape"/>
</filter>
</defs>
</svg>
