<svg width="19" height="19" viewBox="0 0 19 19" fill="none" xmlns="http://www.w3.org/2000/svg">
<path d="M16.0312 1.1875V0H14.8438V1.1875H10.0938V0H8.90625V1.1875H4.15625V0H2.96875V1.1875C1.3319 1.1875 0 2.5194 0 4.15625V16.0312C0 17.6681 1.3319 19 2.96875 19H16.0312C17.6681 19 19 17.6681 19 16.0312V4.15625C19 2.5194 17.6681 1.1875 16.0312 1.1875ZM17.8125 16.0312C17.8125 17.0135 17.0135 17.8125 16.0312 17.8125H2.96875C1.98654 17.8125 1.1875 17.0135 1.1875 16.0312V4.15625C1.1875 3.17405 1.98654 2.375 2.96875 2.375V3.5625H4.15625V2.375H8.90625V3.5625H10.0938V2.375H14.8438V3.5625H16.0312V2.375C17.0135 2.375 17.8125 3.17405 17.8125 4.15625V16.0312Z" fill="#828282"/>
<path d="M4.15625 7.42188C4.64813 7.42188 5.04688 7.02313 5.04688 6.53125C5.04688 6.03937 4.64813 5.64062 4.15625 5.64062C3.66437 5.64062 3.26562 6.03937 3.26562 6.53125C3.26562 7.02313 3.66437 7.42188 4.15625 7.42188Z" fill="#828282"/>
<path d="M7.71875 7.42188C8.21063 7.42188 8.60938 7.02313 8.60938 6.53125C8.60938 6.03937 8.21063 5.64062 7.71875 5.64062C7.22687 5.64062 6.82812 6.03937 6.82812 6.53125C6.82812 7.02313 7.22687 7.42188 7.71875 7.42188Z" fill="#828282"/>
<path d="M11.2812 7.42188C11.7731 7.42188 12.1719 7.02313 12.1719 6.53125C12.1719 6.03937 11.7731 5.64062 11.2812 5.64062C10.7894 5.64062 10.3906 6.03937 10.3906 6.53125C10.3906 7.02313 10.7894 7.42188 11.2812 7.42188Z" fill="#828282"/>
<path d="M14.8438 7.42188C15.3356 7.42188 15.7344 7.02313 15.7344 6.53125C15.7344 6.03937 15.3356 5.64062 14.8438 5.64062C14.3519 5.64062 13.9531 6.03937 13.9531 6.53125C13.9531 7.02313 14.3519 7.42188 14.8438 7.42188Z" fill="#828282"/>
<path d="M4.15625 10.9844C4.64813 10.9844 5.04688 10.5856 5.04688 10.0938C5.04688 9.60187 4.64813 9.20312 4.15625 9.20312C3.66437 9.20312 3.26562 9.60187 3.26562 10.0938C3.26562 10.5856 3.66437 10.9844 4.15625 10.9844Z" fill="#828282"/>
<path d="M7.71875 10.9844C8.21063 10.9844 8.60938 10.5856 8.60938 10.0938C8.60938 9.60187 8.21063 9.20312 7.71875 9.20312C7.22687 9.20312 6.82812 9.60187 6.82812 10.0938C6.82812 10.5856 7.22687 10.9844 7.71875 10.9844Z" fill="#828282"/>
<path d="M11.2812 10.9844C11.7731 10.9844 12.1719 10.5856 12.1719 10.0938C12.1719 9.60187 11.7731 9.20312 11.2812 9.20312C10.7894 9.20312 10.3906 9.60187 10.3906 10.0938C10.3906 10.5856 10.7894 10.9844 11.2812 10.9844Z" fill="#828282"/>
<path d="M14.8438 10.9844C15.3356 10.9844 15.7344 10.5856 15.7344 10.0938C15.7344 9.60187 15.3356 9.20312 14.8438 9.20312C14.3519 9.20312 13.9531 9.60187 13.9531 10.0938C13.9531 10.5856 14.3519 10.9844 14.8438 10.9844Z" fill="#828282"/>
<path d="M4.15625 14.5469C4.64813 14.5469 5.04688 14.1481 5.04688 13.6562C5.04688 13.1644 4.64813 12.7656 4.15625 12.7656C3.66437 12.7656 3.26562 13.1644 3.26562 13.6562C3.26562 14.1481 3.66437 14.5469 4.15625 14.5469Z" fill="#828282"/>
<path d="M7.71875 14.5469C8.21063 14.5469 8.60938 14.1481 8.60938 13.6562C8.60938 13.1644 8.21063 12.7656 7.71875 12.7656C7.22687 12.7656 6.82812 13.1644 6.82812 13.6562C6.82812 14.1481 7.22687 14.5469 7.71875 14.5469Z" fill="#828282"/>
<path d="M11.2812 14.5469C11.7731 14.5469 12.1719 14.1481 12.1719 13.6562C12.1719 13.1644 11.7731 12.7656 11.2812 12.7656C10.7894 12.7656 10.3906 13.1644 10.3906 13.6562C10.3906 14.1481 10.7894 14.5469 11.2812 14.5469Z" fill="#828282"/>
</svg>
