<svg width="18" height="18" viewBox="0 0 18 18" fill="none" xmlns="http://www.w3.org/2000/svg">
<path d="M16.4999 1.20006H15.0001V0.900041C15.0001 0.402905 14.597 0 14.1 0H13.5C13.0029 0 12.6 0.402905 12.6 0.900041V1.20006H5.40004V0.900041C5.40004 0.402905 4.99714 0 4.5 0H3.89997C3.40304 0 2.99993 0.402905 2.99993 0.900041V1.20006H1.50007C0.67199 1.20109 0.00103097 1.87204 0 2.69992V16.4999C0.00103097 17.328 0.67199 17.999 1.50007 18H16.4999C17.328 17.999 17.999 17.328 18 16.4999V2.69992C17.999 1.87204 17.328 1.20109 16.4999 1.20006ZM13.2 0.900041C13.2 0.73426 13.3342 0.600028 13.5 0.600028H14.1C14.2656 0.600028 14.4 0.73426 14.4 0.900041V2.69992C14.4 2.8657 14.2656 2.99993 14.1 2.99993H13.5C13.3342 2.99993 13.2 2.8657 13.2 2.69992V0.900041ZM3.59996 0.900041C3.59996 0.73426 3.7344 0.600028 3.89997 0.600028H4.5C4.66578 0.600028 4.80001 0.73426 4.80001 0.900041V2.69992C4.80001 2.8657 4.66557 2.99993 4.5 2.99993H3.89997C3.7344 2.99993 3.59996 2.8657 3.59996 2.69992V0.900041ZM0.600028 2.69992C0.600028 2.20299 1.00293 1.80008 1.50007 1.80008H2.99993V2.69992C2.99993 3.19705 3.40304 3.59996 3.89997 3.59996H4.5C4.99714 3.59996 5.40004 3.19705 5.40004 2.69992V1.80008H12.6V2.69992C12.6 3.19705 13.0029 3.59996 13.5 3.59996H14.1C14.597 3.59996 14.9999 3.19705 14.9999 2.69992V1.80008H16.4999C16.9971 1.80008 17.4 2.20299 17.4 2.69992V4.80001H0.600028V2.69992ZM17.4 16.4999C17.4 16.9971 16.9971 17.4 16.4999 17.4H1.50007C1.00293 17.4 0.600028 16.9971 0.600028 16.4999V5.40004H17.4V16.4999Z" fill="#BBBBBB"/>
<path d="M8.3999 7.7998H6V10.1999H8.3999V7.7998ZM7.79988 9.59989H6.59982V8.39983H7.79988V9.59989Z" fill="#BBBBBB"/>
<path d="M11.9995 7.7998H9.59961V10.1999H11.9995V7.7998ZM11.3995 9.59989H10.1996V8.39983H11.3995V9.59989Z" fill="#BBBBBB"/>
<path d="M15.5993 7.7998H13.1992V10.1999H15.5993V7.7998ZM14.9993 9.59989H13.7992V8.39983H14.9993V9.59989Z" fill="#BBBBBB"/>
<path d="M4.80049 10.8002H2.40039V13.2001H4.80049V10.8002ZM4.20047 12.6H3.00042V11.4H4.20047V12.6Z" fill="#BBBBBB"/>
<path d="M8.3999 10.8002H6V13.2001H8.3999V10.8002ZM7.79988 12.6H6.59982V11.4H7.79988V12.6Z" fill="#BBBBBB"/>
<path d="M11.9995 10.8002H9.59961V13.2001H11.9995V10.8002ZM11.3995 12.6H10.1996V11.4H11.3995V12.6Z" fill="#BBBBBB"/>
<path d="M15.5993 10.8002H13.1992V13.2001H15.5993V10.8002ZM14.9993 12.6H13.7992V11.4H14.9993V12.6Z" fill="#BBBBBB"/>
<path d="M4.80049 13.7996H2.40039V16.1995H4.80049V13.7996ZM4.20047 15.5997H3.00042V14.3996H4.20047V15.5997Z" fill="#BBBBBB"/>
<path d="M8.3999 13.7996H6V16.1995H8.3999V13.7996ZM7.79988 15.5997H6.59982V14.3996H7.79988V15.5997Z" fill="#BBBBBB"/>
<path d="M11.9995 13.7996H9.59961V16.1995H11.9995V13.7996ZM11.3995 15.5997H10.1996V14.3996H11.3995V15.5997Z" fill="#BBBBBB"/>
</svg>
