<svg width="170" height="170" viewBox="0 0 170 170" fill="none" xmlns="http://www.w3.org/2000/svg">
<path d="M42.5 0C36.6562 0 31.875 4.78125 31.875 10.625V159.375C31.875 165.219 36.6562 170 42.5 170H148.75C154.594 170 159.375 165.219 159.375 159.375V42.5L116.875 0H42.5Z" fill="#E2E5E7"/>
<path d="M127.5 42.5H159.375L116.875 0V31.875C116.875 37.7188 121.656 42.5 127.5 42.5Z" fill="#B0B7BD"/>
<path d="M159.375 74.375L127.5 42.5H159.375V74.375Z" fill="#CAD1D8"/>
<path d="M138.125 138.125C138.125 141.047 135.734 143.438 132.812 143.438H15.9375C13.0156 143.438 10.625 141.047 10.625 138.125V85C10.625 82.0781 13.0156 79.6875 15.9375 79.6875H132.812C135.734 79.6875 138.125 82.0781 138.125 85V138.125Z" fill="#F15642"/>
<path d="M33.7822 100.656C33.7822 99.2534 34.8872 97.7234 36.6669 97.7234H46.4791C52.0041 97.7234 56.9766 101.421 56.9766 108.508C56.9766 115.223 52.0041 118.963 46.4791 118.963H39.3869V124.573C39.3869 126.443 38.1969 127.5 36.6669 127.5C35.2644 127.5 33.7822 126.443 33.7822 124.573V100.656ZM39.3869 103.073V113.656H46.4791C49.3266 113.656 51.5791 111.143 51.5791 108.508C51.5791 105.538 49.3266 103.073 46.4791 103.073H39.3869Z" fill="white"/>
<path d="M65.2958 127.5C63.8933 127.5 62.3633 126.735 62.3633 124.87V100.741C62.3633 99.2163 63.8933 98.106 65.2958 98.106H75.023C94.4348 98.106 94.0098 127.5 75.4055 127.5H65.2958ZM67.9733 103.291V122.32H75.023C86.4927 122.32 87.0027 103.291 75.023 103.291H67.9733Z" fill="white"/>
<path d="M100.895 103.631V110.383H111.727C113.257 110.383 114.787 111.913 114.787 113.395C114.787 114.798 113.257 115.945 111.727 115.945H100.895V124.865C100.895 126.352 99.8376 127.495 98.3501 127.495C96.4801 127.495 95.3379 126.352 95.3379 124.865V100.736C95.3379 99.2109 96.4854 98.1006 98.3501 98.1006H113.262C115.132 98.1006 116.237 99.2109 116.237 100.736C116.237 102.096 115.132 103.626 113.262 103.626H100.895V103.631Z" fill="white"/>
<path d="M132.812 143.438H31.875V148.75H132.812C135.734 148.75 138.125 146.359 138.125 143.438V138.125C138.125 141.047 135.734 143.438 132.812 143.438Z" fill="#CAD1D8"/>
</svg>
