<svg width="170" height="170" viewBox="0 0 170 170" fill="none" xmlns="http://www.w3.org/2000/svg">
<path d="M42.5 0C36.6562 0 31.875 4.78125 31.875 10.625V159.375C31.875 165.219 36.6562 170 42.5 170H148.75C154.594 170 159.375 165.219 159.375 159.375V42.5L116.875 0H42.5Z" fill="#E2E5E7"/>
<path d="M127.5 42.5H159.375L116.875 0V31.875C116.875 37.7188 121.656 42.5 127.5 42.5Z" fill="#B0B7BD"/>
<path d="M159.375 74.375L127.5 42.5H159.375V74.375Z" fill="#CAD1D8"/>
<path d="M138.125 138.125C138.125 141.047 135.734 143.438 132.812 143.438H15.9375C13.0156 143.438 10.625 141.047 10.625 138.125V85C10.625 82.0781 13.0156 79.6875 15.9375 79.6875H132.812C135.734 79.6875 138.125 82.0781 138.125 85V138.125Z" fill="#50BEE8"/>
<path d="M30.7382 127.5C29.3357 127.5 27.8057 126.73 27.8057 124.865V100.741C27.8057 99.211 29.3357 98.106 30.7382 98.106H40.4654C59.8772 98.106 59.4469 127.5 40.8425 127.5H30.7382ZM33.4157 103.286V122.315H40.4654C51.935 122.315 52.4397 103.286 40.4654 103.286H33.4157Z" fill="white"/>
<path d="M75.7027 127.925C67.8456 128.265 59.6855 123.038 59.6855 112.63C59.6855 102.181 67.8402 97.0435 75.7027 97.0435C83.1349 97.4206 90.9071 102.563 90.9071 112.63C90.9071 122.703 83.1349 127.925 75.7027 127.925ZM75.2352 102.568C70.4752 102.568 65.2956 105.926 65.2956 112.636C65.2956 119.308 70.4805 122.708 75.2352 122.708C80.1227 122.708 85.3449 119.308 85.3449 112.636C85.3449 105.921 80.1227 102.568 75.2352 102.568Z" fill="white"/>
<path d="M95.9072 112.588C95.9072 104.391 101.05 97.3409 110.819 97.3409C114.517 97.3409 117.449 98.4459 120.547 101.123C121.694 102.181 121.822 104.051 120.674 105.241C119.527 106.255 117.784 106.133 116.764 105.113C115.027 103.286 113.242 102.781 110.819 102.781C104.28 102.781 101.14 107.413 101.14 112.593C101.14 117.863 104.237 122.703 110.819 122.703C113.242 122.703 115.494 121.72 117.449 119.983C118.762 118.963 120.589 119.467 121.354 120.493C122.034 121.428 122.369 123 120.887 124.482C117.912 127.25 114.347 127.803 110.814 127.803C100.54 127.803 95.9072 120.785 95.9072 112.588Z" fill="white"/>
<path d="M132.812 143.438H31.875V148.75H132.812C135.734 148.75 138.125 146.359 138.125 143.438V138.125C138.125 141.047 135.734 143.438 132.812 143.438Z" fill="#CAD1D8"/>
</svg>
