<svg width="31" height="21" viewBox="0 0 31 21" fill="none" xmlns="http://www.w3.org/2000/svg">
<path d="M31 0.441153C31 0.436605 31 0.432563 30.9987 0.428015C30.9974 0.423467 30.9969 0.412097 30.9963 0.404264C30.9934 0.369184 30.9861 0.334572 30.9746 0.301177C30.9731 0.296629 30.9746 0.291828 30.9717 0.28728C30.9689 0.282732 30.9691 0.28349 30.9683 0.281469C30.9534 0.244766 30.9335 0.210176 30.909 0.178634C30.9035 0.17156 30.8977 0.165243 30.8917 0.158421C30.8679 0.130563 30.8407 0.105616 30.8106 0.0841375C30.8075 0.0818635 30.8048 0.0790842 30.8017 0.0770629C30.7681 0.0556761 30.7316 0.0386844 30.6934 0.0265302C30.6845 0.0234982 30.6756 0.0209712 30.6672 0.0184445C30.627 0.00677552 30.5852 0.000567917 30.5432 0H0.456775C0.414755 0.000567917 0.373021 0.00677552 0.332771 0.0184445C0.323614 0.0209712 0.314981 0.0234982 0.306609 0.0265302C0.268356 0.0386844 0.231937 0.0556761 0.198302 0.0770629C0.195163 0.0790842 0.192547 0.0818635 0.189407 0.0841375C0.159343 0.105616 0.132108 0.130563 0.108307 0.158421C0.102552 0.165243 0.0965349 0.17156 0.0910411 0.178634C0.0665448 0.210176 0.0465691 0.244766 0.031655 0.281469C0.031655 0.28349 0.0290389 0.285259 0.0282541 0.28728C0.0274692 0.289302 0.026946 0.296629 0.0253763 0.301177C0.0138776 0.334572 0.00658719 0.369184 0.00366256 0.404264C0.00366256 0.412349 0.00130797 0.420182 0.00130797 0.428015C0.00130797 0.435847 0 0.436605 0 0.441153V20.5571C0 20.5629 0.00156967 20.5684 0.00183128 20.5743C0.00259455 20.5902 0.00425389 20.606 0.00680192 20.6218C0.00889482 20.6346 0.0107261 20.647 0.0138654 20.6602C0.0179034 20.6755 0.0227939 20.6906 0.0285157 20.7054C0.0329631 20.7173 0.0371488 20.7291 0.0426427 20.7405C0.0498974 20.7554 0.0580204 20.7699 0.0669727 20.784C0.0732514 20.7941 0.0795301 20.8044 0.0865936 20.814C0.0967365 20.8274 0.107654 20.8402 0.119295 20.8524C0.127928 20.8615 0.136562 20.8706 0.145456 20.8792C0.15095 20.884 0.155136 20.8898 0.160891 20.8946C0.166647 20.8994 0.170309 20.8989 0.174495 20.9022C0.210211 20.93 0.25008 20.9524 0.292744 20.9687C0.3019 20.9722 0.311318 20.9742 0.320737 20.977C0.362007 20.99 0.405002 20.9973 0.448403 20.9985C0.451543 20.9985 0.45442 21 0.45756 21H0.463577H30.5364H30.5424C30.5456 21 30.5485 20.9985 30.5513 20.9985C30.5948 20.9973 30.6379 20.9901 30.6793 20.977C30.6884 20.9742 30.6976 20.9722 30.7054 20.9687C30.7482 20.9524 30.7881 20.93 30.8239 20.9022C30.8281 20.8989 30.8334 20.8979 30.8375 20.8946C30.8417 20.8914 30.8475 20.884 30.853 20.8792C30.8624 20.8706 30.871 20.8618 30.8791 20.8524C30.8908 20.8402 30.9017 20.8274 30.9118 20.814C30.9189 20.8044 30.9252 20.7943 30.9315 20.784C30.9404 20.7699 30.9485 20.7554 30.9558 20.7405C30.9613 20.7291 30.9655 20.7173 30.9699 20.7054C30.9756 20.6906 30.9805 20.6755 30.9846 20.6602C30.9877 20.6475 30.9895 20.6349 30.9916 20.6218C30.9942 20.606 30.9958 20.5902 30.9966 20.5743C30.9966 20.5684 30.9984 20.5629 30.9984 20.5571L31 0.441153ZM10.7381 9.56843L15.2007 13.2768C15.2838 13.3458 15.3898 13.3837 15.4993 13.3837C15.6089 13.3837 15.7149 13.3458 15.798 13.2768L20.2608 9.56843L29.5512 20.1149H1.44802L10.7381 9.56843ZM0.914596 19.3557V1.40507L10.0449 8.99159L0.914596 19.3557ZM20.9541 8.99159L30.0844 1.40507V19.3557L20.9541 8.99159ZM29.3076 0.883317L20.0191 8.60249C20.0175 8.60375 20.0154 8.60451 20.0139 8.60602C20.0123 8.60754 20.0107 8.60956 20.0089 8.61108L15.4995 12.3584L10.9901 8.61108C10.9882 8.60956 10.9869 8.60754 10.9851 8.60602L10.9799 8.60249L1.6908 0.883317H29.3076Z" fill="white"/>
</svg>
