<svg width="27" height="27" viewBox="0 0 27 27" fill="none" xmlns="http://www.w3.org/2000/svg">
<path d="M17.4375 20.25C17.1266 20.25 16.875 20.5016 16.875 20.8125V24.75C16.875 25.3702 16.3702 25.875 15.75 25.875H2.25002C1.62986 25.875 1.12504 25.3702 1.12504 24.75V2.25002C1.12504 1.62986 1.62986 1.12504 2.25002 1.12504H15.75C16.3702 1.12504 16.875 1.62986 16.875 2.25002V6.18754C16.875 6.49846 17.1266 6.75005 17.4375 6.75005C17.7484 6.75005 18 6.49846 18 6.18754V2.25002C18 1.00907 16.9909 0 15.75 0H2.25002C1.00907 0 0 1.00907 0 2.25002V24.75C0 25.9909 1.00907 27 2.25002 27H15.75C16.9909 27 18 25.9909 18 24.75V20.8125C18 20.5016 17.7484 20.25 17.4375 20.25Z" fill="white"/>
<path d="M26.8176 13.0853L20.0676 6.89787C19.8375 6.68804 19.4832 6.70396 19.2728 6.93246C19.0629 7.16154 19.0783 7.5175 19.3074 7.72733L24.9916 12.9376H7.31252C7.0016 12.9376 6.75 13.1892 6.75 13.5001C6.75 13.811 7.0016 14.0626 7.31252 14.0626H24.9917L19.3074 19.2729C19.0783 19.4827 19.063 19.8387 19.2728 20.0677C19.3838 20.1886 19.5354 20.2501 19.6876 20.2501C19.8233 20.2501 19.9595 20.2012 20.0677 20.1023L26.8177 13.9149C26.9341 13.8083 27 13.6578 27 13.5001C27 13.3424 26.9341 13.1919 26.8176 13.0853Z" fill="white"/>
</svg>
