<svg width="16" height="30" viewBox="0 0 16 30" fill="none" xmlns="http://www.w3.org/2000/svg">
<path d="M15.3975 0.006242L11.5598 0C7.24832 0 4.46205 2.89785 4.46205 7.38304V10.7871H0.603437C0.270007 10.7871 0 11.0611 0 11.3991V16.3313C0 16.6693 0.270315 16.943 0.603437 16.943H4.46205V29.3883C4.46205 29.7263 4.73205 30 5.06548 30H10.0999C10.4333 30 10.7033 29.726 10.7033 29.3883V16.943H15.2149C15.5483 16.943 15.8184 16.6693 15.8184 16.3313L15.8202 11.3991C15.8202 11.2369 15.7565 11.0814 15.6435 10.9666C15.5305 10.8517 15.3766 10.7871 15.2165 10.7871H10.7033V7.90144C10.7033 6.51447 11.0293 5.81037 12.8116 5.81037L15.3969 5.80943C15.73 5.80943 16 5.53541 16 5.19772V0.617958C16 0.280578 15.7303 0.0068662 15.3975 0.006242Z" fill="#757575"/>
</svg>
