<svg width="67" height="49" viewBox="0 0 67 49" fill="none" xmlns="http://www.w3.org/2000/svg">
<path d="M4.41096 28.2877C5.08219 28 6.52055 27.3288 6.61644 26.8493C5.75342 27.0411 4.9863 27.5205 4.41096 28.2877ZM60.3151 27.0411L60.411 27.137C60.7945 27.5205 61.6575 27.9041 62.2329 28.1918C62.3288 28.1918 62.3288 28.2877 62.4247 28.2877C61.9452 27.6164 61.1781 27.137 60.411 26.8493C60.3151 26.8493 60.3151 26.8493 60.2192 26.7534C60.2192 26.8493 60.2192 26.9452 60.3151 27.0411ZM7.47945 24.9315C7.28767 25.5069 7.19178 26.0822 6.90411 26.6575C7.86301 26.7534 9.10959 27.0411 9.78082 26.1781C9.39726 25.8904 9.20548 25.8904 8.91781 25.9863C8.72603 25.9863 8.43836 26.0822 7.9589 25.8904C7.38356 25.6986 7.9589 24.8356 8.72603 24.3562C8.24658 24.4521 7.76712 24.5479 7.47945 24.9315ZM58.2055 24.4521C58.7808 24.8356 59.1644 25.411 59.0685 25.7945C59.0685 25.8904 58.9726 25.8904 58.8767 25.9863C58.7808 25.9863 58.7808 25.9863 58.6849 26.0822C58.3014 26.1781 58.0137 26.1781 57.8219 26.0822C57.726 26.0822 57.6301 26.0822 57.5342 26.0822C57.4384 26.0822 57.2466 26.1781 57.0548 26.274C57.5342 26.9452 58.3973 26.9452 59.1644 26.8493C59.4521 26.8493 59.6438 26.7534 59.9315 26.7534C59.6438 26.1781 59.4521 25.6027 59.3562 25.0274C59.0685 24.6438 58.589 24.4521 58.2055 24.4521C58.1096 24.3562 58.1096 24.3562 58.1096 24.3562C58.1096 24.3562 58.2055 24.3562 58.2055 24.4521ZM19.9452 43.2466C18.7945 41.8082 18.411 39.8904 18.8904 38.1644C19.3699 41.0411 20.6164 42.3836 22.1507 43.6301C22.726 44.1096 23.4932 44.3973 24.1644 44.7808C23.8767 44.7808 23.6849 44.8767 23.3973 44.8767C22.0548 44.7808 20.7123 44.3014 19.9452 43.2466ZM42.6712 44.6849C42.7671 44.589 42.9589 44.589 43.0548 44.4932C43.2466 44.3973 43.4384 44.3014 43.6301 44.2055C44.0137 44.0137 44.3014 43.8219 44.589 43.5342C44.7808 43.3425 45.0685 43.1507 45.2603 43.0548C46.5069 42 47.4658 40.6575 47.8493 38.2603C48.3288 39.9863 47.9452 41.9041 46.7945 43.2466C46.2192 44.0137 45.3562 44.4932 44.3973 44.6849C44.0137 44.7808 43.726 44.7808 43.3425 44.7808C43.1507 44.7808 42.9589 44.7808 42.6712 44.6849ZM8.43836 42.5753C7.57534 42 6.71233 41.2329 6.23288 40.274C5.84932 39.5069 5.75342 38.4521 6.32877 37.6849C6.32877 40.5616 9.20548 42.7671 9.9726 43.3425C9.39726 43.0548 8.91781 42.863 8.43836 42.5753ZM59.6438 40.3699C60.1233 39.6027 60.411 38.8356 60.5069 37.8767C60.5069 37.7808 60.5069 37.6849 60.5069 37.589C60.6027 37.6849 60.6986 37.8767 60.6986 37.9726C60.9863 38.6438 60.8904 39.5069 60.5069 40.1781C60.1233 41.0411 59.3562 41.7123 58.589 42.2877C58.4932 42.3836 58.3973 42.4795 58.3014 42.4795C57.8219 42.7671 57.3425 42.9589 56.863 43.2466C57.4384 42.863 58.7808 41.8082 59.6438 40.3699ZM32.1233 40.9452C31.3562 40.4658 30.3014 40.1781 29.8219 39.3151C29.5342 38.8356 29.5342 38.3562 29.5342 37.7808C30.2055 37.6849 30.9726 37.6849 31.6438 37.3973C32.2192 37.2055 32.6986 36.726 33.1781 36.4384C33.274 36.4384 33.274 36.3425 33.3699 36.3425C33.4658 36.3425 33.4658 36.3425 33.5616 36.4384C34.137 36.726 34.6164 37.1096 35.0959 37.3973C35.5753 37.589 36.1507 37.6849 36.726 37.6849C36.9178 37.6849 37.0137 37.6849 37.2055 37.6849C37.2055 38.1644 37.2055 38.7397 36.9178 39.2192C36.3425 40.0822 35.3836 40.274 34.6164 40.7534C34.4247 40.8493 34.2329 41.0411 34.0411 41.2329C33.9452 41.3288 33.9452 41.4247 33.8493 41.5205C33.6575 41.8082 33.4658 42.1918 33.274 42.4795C33.0822 42 32.7945 41.3288 32.1233 40.9452ZM16.6849 39.7945C17.0685 38.6438 17.2603 37.4932 17.6438 36.4384C17.6438 36.6301 17.2603 39.411 17.5479 41.9041C16.7808 42.3836 13.4247 42.9589 11.8904 41.0411C12.7534 41.3288 13.5205 41.5205 14.0959 41.5205C15.6301 41.4247 16.3973 40.5616 16.6849 39.7945ZM49.2877 41.9041C49.2877 41.6164 49.3836 41.2329 49.3836 40.9452C49.4795 38.7397 49.1918 36.6301 49.1918 36.5342C49.2877 36.8219 49.3836 37.1096 49.4795 37.3973C49.6712 38.2603 49.863 39.1233 50.1507 39.9863C50.4384 40.9452 51.6849 42.1918 54.4658 41.3288C54.6575 41.2329 54.8493 41.2329 55.0411 41.137C55.0411 41.2329 54.9452 41.2329 54.9452 41.3288C53.5069 42.9589 50.6301 42.6712 49.5753 42.1918C49.4795 42 49.3836 42 49.2877 41.9041ZM34.137 44.6849C34.5205 43.726 35.1918 43.1507 36.0548 42.3836C36.8219 41.7123 38.5479 40.5616 39.5069 36.726C39.6027 36.4384 39.6027 36.2466 39.6986 35.9589C39.6986 35.863 39.6986 35.7671 39.7945 35.7671C40.0822 37.6849 40.8493 39.7945 39.7945 41.7123C39.2192 42.7671 38.0685 43.726 37.1096 44.3014C36.8219 44.4932 36.4384 44.589 36.1507 44.7808C35.2877 45.1644 34.4247 45.8356 33.9452 46.6027C33.8493 46.6986 33.7534 46.8904 33.7534 46.9863C33.6575 46.1233 33.8493 45.3562 34.137 44.6849ZM30.3973 44.589C29.3425 44.2055 27.8082 42.863 26.9452 41.6164C25.8904 39.6986 26.7534 37.589 27.0411 35.5753C27.9041 40.274 29.9178 41.6164 30.7808 42.3836C31.6438 43.1507 32.3151 43.726 32.6986 44.6849C32.9863 45.3562 33.1781 46.1233 33.1781 46.8904C32.6986 45.9315 31.5479 45.0685 30.3973 44.589ZM2.30137 33.9452C3.16438 34.5205 5.27397 34.6164 5.75342 35.0959C5.84932 35.2877 5.84932 35.4795 5.27397 35.6712C4.60274 35.9589 2.78082 35.7671 2.39726 36.5342C1.91781 35.7671 1.91781 34.8082 2.30137 33.9452ZM64.3425 36.5342C64.2466 36.3425 64.0548 36.2466 63.7671 36.1507C63.0959 35.863 62.0411 35.9589 61.5616 35.7671C60.8904 35.5753 60.8904 35.3836 61.0822 35.1918C61.1781 35.0959 61.4658 35 61.7534 34.9041C62.0411 34.8082 62.5205 34.7123 62.9041 34.6164C63.4795 34.5205 64.0548 34.3288 64.4384 34.137C64.4384 34.137 64.5342 34.137 64.5342 34.0411C64.5342 34.0411 64.5342 34.137 64.6301 34.137C64.9178 34.9041 64.9178 35.863 64.3425 36.5342C64.4384 36.5342 64.4384 36.5342 64.3425 36.5342ZM16.3014 35.0959C16.7808 34.5205 17.0685 33.7534 17.5479 33.1781C17.4521 34.2329 17.3562 35.2877 16.589 36.0548C15.8219 37.0137 14.3836 37.2055 13.2329 37.4931C14.2877 36.726 15.5342 36.2466 16.3014 35.0959ZM53.3151 37.3973C53.0274 37.3014 52.8356 37.3014 52.5479 37.2055C51.6849 37.0137 50.8219 36.726 50.2466 35.9589C50.0548 35.7671 49.9589 35.5753 49.863 35.2877C49.863 35.1918 49.7671 35.1918 49.7671 35.0959C49.4795 34.4247 49.3836 33.6575 49.2877 32.9863C49.2877 33.0822 49.3836 33.0822 49.3836 33.1781C49.7671 33.7534 50.0548 34.4247 50.5342 35C51.2055 35.9589 52.3562 36.5342 53.3151 37.2055C53.411 37.3014 53.5069 37.3014 53.6027 37.3973C53.5069 37.4932 53.411 37.4932 53.3151 37.3973ZM24.9315 41.5205C24.0685 40.4658 23.6849 39.0274 23.6849 37.6849C23.6849 35.863 23.9726 34.0411 24.0685 32.3151C24.1644 31.8356 24.1644 31.4521 24.2603 30.9726C24.3562 30.8767 24.4521 30.9726 24.5479 31.0685C25.411 31.8356 25.8904 32.9863 25.9863 34.137C26.0822 35.4795 25.5069 36.726 25.411 37.9726C25.3151 39.0274 25.3151 40.0822 25.6986 41.137C25.9863 41.9041 26.6575 42.7671 27.137 43.2466C27.0411 43.1507 25.5069 42.2877 24.9315 41.5205ZM39.7945 43.0548C40.0822 42.7671 40.4658 42.2877 40.7534 41.8082C40.9452 41.5205 41.0411 41.3288 41.137 41.0411C41.5205 39.9863 41.5205 38.9315 41.4247 37.8767C41.3288 37.0137 41.0411 36.2466 40.9452 35.3836C40.8493 34.9041 40.8493 34.5205 40.8493 34.0411C40.9452 32.8904 41.4247 31.7397 42.2877 30.9726C42.3836 30.8767 42.4795 30.7808 42.5753 30.8767C42.6712 31.1644 42.6712 31.4521 42.6712 31.7397C42.6712 31.9315 42.6712 32.0274 42.7671 32.2192C42.863 34.0411 43.2466 35.7671 43.1507 37.589C43.1507 38.9315 42.7671 40.3699 41.9041 41.4247C41.9041 41.5205 41.8082 41.5205 41.7123 41.6164C41.0411 42.3836 39.6986 43.1507 39.6986 43.1507C39.6986 43.1507 39.7945 43.1507 39.7945 43.0548ZM1.34247 30.3014C1.34247 31.4521 1.53425 32.2192 1.72603 32.9863C1.34247 32.8904 0.671233 31.8356 1.34247 30.3014ZM65.3973 31.9315C65.4931 31.6438 65.4931 31.3562 65.4931 30.9726C65.4931 30.7808 65.4931 30.4932 65.4931 30.3014C65.589 30.4932 65.6849 30.7808 65.6849 30.9726C65.7808 31.5479 65.7808 32.0274 65.589 32.411C65.4931 32.6027 65.3973 32.7945 65.2055 32.8904H65.1096H65.0137C65.2055 32.6027 65.3014 32.3151 65.3973 31.9315ZM15.6301 29.4384C15.0548 28.863 14.3836 27.2329 14.4795 27.137C14.4795 27.137 15.5342 28.4795 16.4932 29.2466C17.9315 30.3973 17.0685 31.8356 16.3014 32.7945C16.8767 31.7397 16.7808 30.589 15.6301 29.4384ZM50.2466 29.2466C50.3425 29.1507 50.4384 29.1507 50.5342 29.0548C50.6301 28.9589 50.726 28.863 50.8219 28.7671C51.589 28 52.2603 27.137 52.2603 27.137C52.2603 27.137 52.2603 27.2329 52.2603 27.3288C52.1644 27.8082 51.589 28.9589 51.1096 29.4384C50.0548 30.4932 49.9589 31.5479 50.3425 32.6027C50.3425 32.6986 50.4384 32.6986 50.4384 32.7945C49.7671 31.8356 48.8082 30.3973 50.2466 29.2466ZM49.4795 27.6164C50.1507 27.4247 50.9178 27.137 51.3973 26.8493H51.4932C51.4932 26.9452 51.4932 26.9452 51.3973 27.0411C50.726 28.5753 49.4795 28.2877 48.8082 28C48.5205 27.9041 48.4247 27.8082 48.5206 27.8082C48.5206 27.8082 48.5205 27.8082 48.6164 27.8082C48.8082 27.7123 49.0959 27.7123 49.4795 27.6164ZM15.3425 26.8493C16.0137 27.3288 17.4521 27.8082 18.3151 27.7123C18.411 27.7123 18.2192 27.8082 18.0274 27.9041C17.7397 28 17.4521 28.0959 17.0685 28.0959C16.3973 28.1918 15.726 27.9041 15.3425 26.8493ZM27.3288 26.3699C27.4247 26.1781 27.5205 26.1781 27.7123 26.1781C27.8082 26.4658 28.1918 26.9452 28.6712 26.9452C29.2466 26.9452 29.6301 26.5616 29.726 26.3699C29.726 26.4658 29.9178 26.6575 29.9178 26.7534C29.6301 26.9452 29.2466 27.0411 28.7671 27.0411C28.2877 27.0411 27.7123 26.8493 27.3288 26.3699ZM38.5479 26.7534C38.7397 26.6575 38.9315 26.3699 39.0274 26.1781C39.1233 26.1781 39.2192 26.1781 39.3151 26.274C39.411 26.274 39.411 26.3699 39.411 26.3699C39.3151 26.4658 39.2192 26.4658 39.2192 26.5616C39.2192 26.5616 39.2192 26.5616 39.1233 26.5616C39.1233 26.5616 39.1233 26.5616 39.0274 26.5616C38.9315 26.5616 38.9315 26.6575 38.8356 26.6575C38.7397 26.7534 38.548 26.7534 38.4521 26.7534C37.8767 26.8493 37.3014 26.7534 36.9178 26.4658C36.9178 26.3699 37.1096 26.1781 37.1096 26.0822C37.1096 26.1781 37.2055 26.1781 37.2055 26.274C37.3014 26.4658 37.589 26.5616 37.8767 26.6575C37.9726 26.6575 38.0685 26.6575 38.0685 26.6575C38.2603 26.8493 38.4521 26.8493 38.5479 26.7534ZM23.0137 24.0685C23.6849 23.4932 24.5479 23.2055 25.411 23.0137C25.2192 23.589 24.5479 24.4521 24.1644 25.3151C23.8767 26.0822 23.9726 26.6575 23.6849 27.137C23.1096 28.1918 23.4932 29.4384 23.3973 30.4932C23.1096 31.2603 22.8219 31.9315 22.4384 32.6986C21.5753 34.137 21 35.6712 20.9041 37.3014C20.7123 38.3562 21 39.411 21 40.3699C16.6849 33.274 22.5342 28.4795 22.9178 27.3288C21.863 28.0959 20.8082 28.863 19.9452 29.9178C19.1781 30.6849 18.6986 31.7397 18.411 32.7945C17.2603 28.5753 19.8493 26.6575 20.0411 26.4658C19.8493 26.9452 19.5616 27.5205 19.6575 27.9041C20.4247 26.0822 21.7671 25.1233 23.0137 24.0685ZM45.8356 39.6027C45.9315 38.8356 46.0274 38.0685 45.9315 37.3014C45.8356 35.6712 45.2603 34.137 44.3973 32.6986C44.0137 32.0274 43.6301 31.2603 43.4384 30.4932C43.4384 30.2055 43.4384 29.8219 43.4384 29.5342C43.5342 28.7671 43.6301 28 43.2466 27.2329C43.2466 27.137 43.1507 27.137 43.1507 27.0411C43.0548 26.8493 42.9589 26.6575 42.9589 26.4658C42.9589 26.3699 42.9589 26.274 42.9589 26.1781C42.9589 25.8904 42.863 25.6986 42.7671 25.411V25.3151C42.4795 24.6438 42 23.9726 41.7123 23.4932C41.4247 23.3014 41.4247 23.1096 41.3288 23.0137C41.3288 23.0137 41.3288 23.0137 41.4247 23.0137C42 23.2055 42.5753 23.3973 43.0548 23.589C43.3425 23.6849 43.5342 23.8767 43.8219 24.0685C44.1096 24.3562 44.3973 24.5479 44.6849 24.8356C45.548 25.6027 46.411 26.3699 46.8904 27.6164C46.8904 27.7123 46.9863 27.8082 46.9863 27.9041C47.0822 27.5205 46.7945 26.9452 46.6027 26.4658C46.8904 26.6575 49.3836 28.5753 48.3288 32.7945C48.3288 32.6986 48.2329 32.5069 48.2329 32.411C47.9452 31.5479 47.4658 30.6849 46.7945 30.0137C46.1233 29.1507 45.2603 28.4795 44.3973 27.8082C44.2055 27.7123 44.0137 27.5205 43.8219 27.4247C43.8219 27.5205 43.9178 27.6164 44.0137 27.7123C44.6849 28.6712 46.6027 30.6849 47.1781 33.6575C47.5616 35.5753 47.274 37.7808 45.7397 40.3699C45.8356 40.0822 45.8356 39.7945 45.8356 39.6027ZM21.1918 20.7123C22.2466 20.7123 23.8767 21.5753 24.0685 21.863C24.4521 22.4384 22.0548 24.1644 20.7123 24.6438C20.9041 24.1644 20.9041 23.589 21 23.1096C23.3973 23.6849 22.5342 22.0548 21.3836 21.7671C20.6164 21.5753 19.7534 21.863 19.5616 22.1507C19.1781 22.8219 19.274 23.6849 19.1781 24.3562C18.3151 22.8219 18.6986 20.7123 21.1918 20.7123ZM44.3973 23.8767C43.3425 23.2055 42.3836 22.3425 42.6712 21.9589C42.6712 21.863 42.7671 21.863 42.9589 21.7671C43.4384 21.3836 44.589 20.9041 45.4521 20.8082C45.5479 20.8082 45.6438 20.8082 45.6438 20.8082C47.5616 20.8082 48.2329 22.0548 48.0411 23.3014C48.0411 23.6849 47.8493 23.9726 47.7534 24.3562C47.7534 24.4521 47.6575 24.5479 47.6575 24.5479C47.5616 23.7808 47.6575 23.0137 47.274 22.3425C47.1781 22.1507 46.6986 21.9589 46.2192 21.9589C46.0274 21.9589 45.7397 21.9589 45.4521 21.9589C44.589 22.1507 43.8219 23.1096 44.589 23.3973C44.7808 23.4932 45.1644 23.4932 45.5479 23.3973C45.6438 23.3973 45.7397 23.3973 45.7397 23.3014C45.7397 23.4932 45.7397 23.6849 45.8356 23.8767C45.8356 23.9726 45.8356 24.1644 45.8356 24.2603C45.8356 24.2603 45.8356 24.3562 45.9315 24.3562C45.9315 24.5479 46.0274 24.7397 46.0274 24.8356C45.5479 24.5479 44.9726 24.2603 44.3973 23.8767ZM15.726 20.8082C16.4932 20.8082 17.2603 20.8082 18.0274 21C18.0274 21.2877 17.9315 21.5753 17.8356 21.7671C16.9726 21.7671 16.2055 21.3836 15.726 20.8082ZM48.8082 21.1918C48.8082 21.0959 48.8082 21.0959 48.8082 21C49 20.9041 49.2877 20.9041 49.4795 20.9041C49.7671 20.9041 50.1507 20.8082 50.4384 20.8082C50.6301 20.8082 50.8219 20.8082 51.1096 20.8082C50.6301 21.3836 49.863 21.7671 49.1918 21.7671H49.0959C48.9041 21.5753 48.9041 21.3836 48.8082 21.1918ZM15.1507 21.0959C15.9178 21.7671 16.3973 22.6301 16.6849 23.589C16.8767 24.5479 16.4932 25.6986 14 26.0822C14.2877 25.411 14.6712 24.8356 14.7671 24.1644C14.863 23.4932 14.5753 22.726 14.0959 22.2466C13.6164 22.5342 13.0411 22.8219 12.5616 23.0137C12.6575 22.726 12.7534 22.4384 12.9452 22.2466C12.5616 22.4384 12.1781 22.5342 11.7945 22.726C13.0411 19.5616 14.6712 20.7123 15.1507 21.0959ZM50.0548 23.589C50.3425 22.6301 50.8219 21.7671 51.589 21.0959C51.8767 20.8082 52.6438 20.3288 53.5069 20.7123C53.9863 21 54.4658 21.4795 54.9452 22.6301C54.5616 22.4384 54.1781 22.3425 53.8904 22.1507C53.8904 22.1507 53.8904 22.1507 53.7945 22.1507C53.8904 22.3425 53.9863 22.6301 54.0822 22.8219V22.9178C53.8904 22.8219 53.6986 22.8219 53.6027 22.726C53.2192 22.5342 52.9315 22.4384 52.6438 22.2466C52.1644 22.726 51.8767 23.4932 51.9726 24.1644C52.0685 24.8356 52.4521 25.5069 52.7397 26.0822C50.2466 25.6986 49.863 24.5479 50.0548 23.589ZM39.3151 21.1918C39.1233 21.1918 38.9315 21.0959 38.7397 21.0959C40.274 20.7123 40.6575 19.274 41.137 19.0822C41.4247 18.9863 41.7123 18.8904 42 18.8904C42.3836 18.8904 42.7671 18.9863 43.0548 19.1781C42.9589 19.1781 42.863 19.274 42.7671 19.3699C42.4795 19.5616 42.1918 19.9452 41.8082 20.3288C41.5206 20.6164 41.3288 20.8082 41.0411 21C40.9452 21.0959 40.8493 21.0959 40.7534 21.1918C40.4658 21.2877 40.1781 21.2877 39.9863 21.2877C39.7945 21.2877 39.5069 21.1918 39.3151 21.1918ZM33.3699 21.2877C33.0822 20.3288 32.5069 19.3699 32.6027 18.3151C32.6027 17.6438 32.8904 17.0685 33.274 16.589L33.3699 16.4932C33.6575 16.2055 34.0411 16.0137 34.5205 15.9178C34.9041 15.8219 35.3836 15.8219 35.863 15.9178C35.6712 15.9178 35.3836 16.1096 35.1918 16.3014C34.8082 16.6849 34.5205 17.2603 34.8082 17.7397C35.1918 18.2192 35.3836 18.6986 35.5753 18.9863C36.3425 20.5205 35.9589 21.0959 35.6712 21.5753C38.3562 20.137 38.3562 18.8904 37.2055 17.5479C37.0137 17.3562 36.9178 17.2603 36.726 17.0685C37.3014 17.0685 37.9726 17.1644 38.5479 17.4521C38.8356 17.5479 39.0274 17.7397 39.2192 17.9315C39.3151 18.0274 39.3151 18.0274 39.411 18.1233C39.6027 18.5068 39.9863 19.1781 38.0685 20.9041C37.9726 21 37.8767 21.0959 37.7808 21.0959C37.589 21.2877 37.3973 21.3836 37.2055 21.5753C38.0685 21.5753 39.1233 21.6712 39.6986 22.2466C40.274 23.1096 40.5616 24.1644 40.8493 25.1233C40.8493 25.3151 40.9452 25.411 40.9452 25.6027H40.8493C40.7534 25.6027 40.6575 25.6027 40.5616 25.6986C40.274 25.6986 40.0822 25.7945 39.7945 25.7945C39.5069 25.7945 39.3151 25.7945 39.0274 25.6986C38.6438 25.6986 38.3562 25.6027 38.0685 25.6027C38.1644 25.5069 38.1644 25.5069 38.2603 25.411C38.4521 25.2192 38.7397 24.9315 38.9315 24.7397C38.2603 24.9315 37.6849 25.3151 37.1096 25.6027C36.5342 25.8904 36.1507 26.274 35.2877 26.0822H35.1918C34.7123 25.8904 34.5205 25.3151 34.4247 24.8356C34.4247 24.7397 34.4247 24.6438 34.4247 24.5479C34.3288 24.9315 34.2329 25.2192 34.3288 25.6027C34.5205 26.3699 35.2877 26.7534 35.3836 27.5205C35.4795 28.0959 35.6712 28.7671 35.863 29.3425C35.9589 29.8219 36.1507 30.2055 36.3425 30.589C36.3425 30.589 36.0548 28.3836 36.1507 27.3288C36.8219 27.4247 37.3973 27.6164 38.0685 27.6164C38.1644 27.6164 38.1644 27.6164 38.2603 27.6164C38.9315 27.5205 39.411 27.137 39.9863 26.7534C40.3699 26.4658 40.7534 26.0822 41.2329 26.0822C41.2329 26.1781 41.2329 26.3699 41.3288 26.4658C41.4247 26.8493 41.5205 27.2329 41.5205 27.7123C41.5205 28.0959 41.4247 28.3836 41.3288 28.6712C41.0411 29.3425 40.5616 29.8219 39.9863 30.1096C39.411 30.3973 38.7397 30.4932 38.2603 30.9726C38.1644 31.4521 38.5479 31.9315 38.6438 32.411C39.1233 33.4658 39.2192 34.7123 38.6438 35.7671C38.5479 35.9589 38.3562 36.1507 38.2603 36.2466C37.9726 36.5342 37.589 36.6301 37.2055 36.6301C36.9178 36.6301 36.6301 36.5342 36.3425 36.4384C35.0959 36.0548 34.137 35.0959 33.7534 33.9452C33.5616 33.4658 34.0411 33.0822 34.4247 32.8904C35.1918 32.5069 36.1507 32.5068 36.6301 31.7397C36.6301 31.7397 36.6301 31.6438 36.726 31.6438C35.9589 31.0685 33.5616 30.9726 33.274 30.9726H33.1781H33.0822C32.7945 30.9726 30.3973 31.0685 29.6301 31.6438C30.1096 32.5069 31.1644 32.5069 31.9315 32.8904C32.3151 33.0822 32.6986 33.4658 32.6027 33.9452C32.2192 35.0959 31.2603 36.1507 30.0137 36.4384C29.4384 36.6301 28.5753 36.726 28.0959 36.2466C27.137 35.1918 27.137 33.5616 27.7123 32.3151C27.9041 31.8356 28.1918 31.3562 28.0959 30.8767C27.7123 30.3973 26.9452 30.3014 26.3699 30.0137C25.411 29.5342 24.7397 28.4795 24.8356 27.5205C24.8356 26.9452 25.0274 26.4658 25.1233 25.8904C25.6027 25.8904 25.9863 26.274 26.3699 26.5616C26.8493 26.9452 27.4247 27.3288 28.0959 27.4247C28.863 27.5205 29.5342 27.2329 30.2055 27.137C30.3014 28.1918 30.0137 30.3973 30.0137 30.3973C30.3973 29.3425 30.7808 28.2877 30.8767 27.2329C30.9726 26.4658 31.7397 26.0822 31.9315 25.3151C32.0274 24.9315 31.9315 24.6438 31.8356 24.2603C31.8356 24.8356 31.5479 25.6986 30.9726 25.7945C30.1096 25.8904 29.726 25.6027 29.1507 25.3151C28.5753 25.0274 27.9041 24.6438 27.3288 24.4521C27.6164 24.7397 27.9041 25.0274 28.1918 25.3151C27.2329 25.411 26.274 25.6027 25.3151 25.411C25.6986 24.1644 25.9863 22.8219 26.7534 21.7671C26.8493 21.4795 27.2329 21.1918 27.0411 20.9041C26.7534 20.5205 26.274 20.2329 25.7945 20.3288C25.3151 20.4247 25.3151 21.0959 25.1233 21.4795C25.0274 21.9589 24.6438 22.2466 24.3562 22.6301C24.3562 22.4384 24.4521 22.2466 24.4521 22.0548C24.6438 21.3836 24.0685 18.6986 26.0822 18.7945C26.9452 18.8904 27.5205 19.4658 28 20.137C28.1918 20.4247 28.3836 20.9041 28.7671 20.9041C28.863 20.0411 28.9589 19.0822 28.1918 18.411C27.6164 17.8356 26.7534 17.8356 25.9863 17.7397C26.6575 17.2603 29.5342 16.3973 30.6849 18.6027C30.9726 19.1781 30.9726 19.9452 31.0685 20.6164C31.7397 20.9041 32.7945 21.3836 33.3699 22.0548C33.5616 21.6712 33.4658 21.3836 33.3699 21.2877ZM33.3699 15.4384C32.5069 15.6301 31.6438 16.1096 31.1644 16.6849C30.3014 16.3014 29.2466 16.2055 28.2877 16.4932C26.9452 16.7808 25.6027 17.2603 24.6438 18.3151C25.2192 18.2192 25.6986 18.2192 26.0822 18.3151C25.3151 18.5069 24.6438 18.7945 23.9726 19.274C23.589 19.6575 23.1096 19.4658 22.6301 19.3699C21.5753 18.9863 20.3288 18.7945 19.3699 19.3699C18.9863 19.5616 18.6986 19.8493 18.2192 19.8493C17.3562 19.7534 16.3973 19.6575 15.5342 19.5616C14.2877 19.3699 12.9452 19.1781 11.8904 20.0411C11.3151 20.6164 11.3151 21.3836 10.8356 22.0548C10.4521 22.6301 9.68493 22.9178 9.0137 23.2055C9.10959 23.3014 10.7397 23.3014 11.5068 23.1096C11.411 23.3014 11.3151 23.589 11.2192 23.7808C11.6027 23.7808 11.8904 23.7808 12.274 23.7808C12.4658 23.7808 12.7534 23.7808 12.9452 23.7808C12.4658 24.0685 11.9863 24.4521 11.6027 24.8356C12.0822 24.8356 12.4658 24.7397 12.9452 24.7397C12.9452 25.3151 12.8493 25.8904 12.9452 26.5616C13.0411 27.137 13.4247 27.6164 13.6164 28.0959C14.4795 29.5342 15.1507 31.0685 14.7671 32.7945C14.6712 33.9452 13.8082 34.8082 13.0411 35.5753C12.3699 36.1507 11.6986 36.6301 11.1233 37.3014C11.0274 36.6301 11.6027 36.1507 11.9863 35.6712C12.7534 34.9041 13.4247 33.9452 13.7123 32.8904C13.9041 32.0274 13.6164 31.1644 13.2329 30.3014C12.7534 29.4384 12.3699 28.6712 12.0822 27.7123C11.9863 28.863 12.3699 29.9178 12.8493 30.8767C13.137 32.0274 13.0411 33.3699 12.0822 34.2329C10.9315 35.3836 9.10959 35.7671 8.34247 37.2055C8.05479 37.6849 7.9589 38.3562 7.57534 38.8356C7.47945 37.9726 7.38356 36.9178 7.9589 36.1507C8.53425 35.3836 9.39726 34.9041 10.0685 34.2329C10.5479 33.7534 11.0274 33.3699 11.3151 32.7945C11.5069 32.1233 11.411 31.4521 11.411 30.8767C10.7397 31.4521 10.0685 32.1233 9.20548 32.3151C9.58904 31.8356 10.0685 31.4521 10.4521 30.9726C11.0274 30.3014 11.0274 29.3425 11.1233 28.4795C10.3562 29.4384 9.58904 30.589 8.43836 31.0685C8.15069 31.1644 7.67123 31.3562 7.67123 30.8767C7.9589 30.4932 8.34247 30.1096 8.63014 29.726C7.38356 29.8219 6.0411 29.8219 5.08219 30.7808C6.23288 31.2603 5.94521 33.6575 3.73973 33.0822C2.68493 32.7945 1.82192 31.4521 3.64384 29.726C3.35616 29.5342 3.06849 29.5342 2.78082 29.5342C1.91781 29.5342 1.15068 29.5342 0.287671 29.4384C1.24658 28.1918 2.58904 27.3288 3.93151 26.5616C4.31507 26.274 4.79452 26.0822 5.08219 25.6986C5.08219 25.2192 4.60274 24.7397 5.08219 24.3562C6.42466 23.7808 9.20548 22.0548 9.58904 21.3836C10.0685 20.5205 9.87671 19.7534 10.1644 18.8904C10.4521 18.3151 11.0274 18.0274 11.6027 18.1233C16.6849 18.9863 18.0274 18.9863 18.7945 18.411C17.9315 18.7945 16.2055 18.3151 14.3836 17.8356C12.6575 17.3562 10.9315 16.9726 9.9726 17.2603C9.30137 17.4521 9.39726 18.411 8.24658 18.411C5.75342 18.411 7.57534 20.8082 6.80822 21.9589C7.86301 21.4795 6.90411 19.0822 8.63014 19.4658C8.72603 20.0411 8.72603 20.6164 8.53425 21.1918C8.34247 21.6712 6.52055 23.3014 3.93151 24.2603C3.93151 24.7397 4.31507 25.1233 4.50685 25.5069C3.73973 26.1781 2.68493 26.4658 1.91781 27.2329C1.24658 27.9041 0 28.863 0 29.3425C0 29.726 0.383562 30.0137 0.479452 30.589C0.479452 31.3562 0.383562 32.1233 0.671233 32.7945C0.767123 33.1781 1.15068 33.4658 1.43836 33.7534C1.34247 34.6164 1.15069 35.5753 1.63014 36.4384C1.82192 36.8219 2.0137 37.2055 2.39726 37.4931C2.9726 36.6301 4.0274 36.726 4.60274 36.726C4.60274 37.3014 4.41096 37.7808 4.21918 38.2603C4.12329 39.2192 5.65753 44.589 12.8493 44.1096C8.05479 41.9041 9.39726 38.4521 9.58904 37.9726C9.39726 39.2192 9.68493 40.5616 10.4521 41.6164C11.1233 42.4795 12.0822 42.9589 13.0411 43.2466C13.2329 43.2466 13.5205 43.4384 13.8082 43.3425C15.1507 43.8219 16.4932 43.3425 17.7397 42.9589C18.3151 43.4384 18.7945 44.0137 19.3699 44.3973C20.3288 45.0685 21.5753 45.4521 22.726 45.6438C23.7808 45.7397 24.9315 45.8356 25.8904 46.1233C26.4658 46.3151 27.0411 46.6027 27.6164 46.8904C27.4247 46.1233 26.9452 45.4521 26.3699 44.7808C25.6027 43.9178 24.5479 43.6301 23.7808 42.863C22.8219 41.9041 22.4384 40.4658 22.4384 39.1233C23.1096 41.5205 24.3562 42.5753 25.2192 43.0548C25.5069 43.1507 25.7945 43.4384 26.0822 43.3425L25.9863 43.4384C28.0959 44.3014 29.3425 44.589 30.9726 46.411C31.7397 47.1781 32.3151 48.137 33.0822 49C33.8493 48.137 34.4247 47.1781 35.1918 46.411C35.9589 45.6438 36.5342 45.1644 37.3014 44.7808C37.3973 44.7808 37.3973 44.6849 37.4932 44.6849C38.2603 44.3014 39.1233 44.0137 40.274 43.5342H40.4658C40.7534 43.6301 41.0411 43.4384 41.3288 43.2466C42.1918 42.7671 43.2466 41.9041 43.9178 39.8904C44.0137 39.7945 44.0137 39.6027 44.1096 39.411C44.1096 39.6986 44.1096 40.0822 44.1096 40.3699C43.9178 41.3288 43.5342 42.2877 42.863 43.0548C42.6712 43.2466 42.3836 43.4384 42.1918 43.6301C41.9041 43.8219 41.6164 44.0137 41.4247 44.1096C41.0411 44.3973 40.6575 44.589 40.3699 44.9726C39.7945 45.5479 39.411 46.3151 39.1233 47.0822C39.1233 47.0822 39.2192 47.0822 39.2192 46.9863C39.411 46.8904 39.6027 46.7945 39.7945 46.6986C40.0822 46.5069 40.4658 46.411 40.8493 46.2192C41.3288 46.0274 41.8082 45.9315 42.2877 45.8356C42.863 45.7397 43.4384 45.7397 44.0137 45.6438C44.1096 45.6438 44.1096 45.6438 44.2055 45.6438C45.3562 45.4521 46.411 45.0685 47.3699 44.3973C47.9452 44.0137 48.4247 43.4384 49 42.9589C49.0959 42.9589 49.2877 43.0548 49.3836 43.0548C50.3425 43.3425 51.3014 43.6301 52.2603 43.4384C52.4521 43.4384 52.7397 43.3425 52.9315 43.2466C52.9315 43.2466 53.0274 43.3425 53.1233 43.3425C53.3151 43.3425 53.5069 43.2466 53.6986 43.2466C53.7945 43.2466 53.7945 43.2466 53.8904 43.1507C54.8493 42.863 55.7123 42.2877 56.2877 41.5205C57.1507 40.4658 57.3425 39.1233 57.1507 37.8767C57.2466 37.9726 57.3425 38.3562 57.4384 38.8356C57.4384 38.9315 57.4384 39.0274 57.4384 39.1233C57.5343 39.9863 57.3425 41.2329 56.2877 42.3836C55.7123 42.9589 54.9452 43.5342 53.8904 44.0137C53.9863 44.0137 54.1781 44.0137 54.274 44.0137C55.0411 44.0137 55.6164 44.0137 56.2877 43.9178C58.8767 43.6301 60.411 42.3836 61.3699 41.137C62.3288 39.8904 62.6164 38.5479 62.5205 38.0685C62.3288 37.589 62.2329 37.0137 62.137 36.5342C62.4247 36.5342 62.9041 36.5342 63.3836 36.6301C63.5753 36.726 63.863 36.8219 63.9589 37.0137C64.0548 37.1096 64.1507 37.2055 64.2466 37.3014C64.6301 37.0137 64.8219 36.6301 65.0137 36.2466C65.4931 35.3836 65.3014 34.4247 65.2055 33.5616C65.4932 33.274 65.7808 32.9863 65.9726 32.6027C66.2603 31.9315 66.1644 31.1644 66.1644 30.3973V30.3014C66.1644 30.2055 66.1644 30.2055 66.2603 30.1096C66.3562 29.726 66.6438 29.3425 66.6438 29.0548C66.6438 28.7671 65.3973 27.6164 64.726 26.9452C63.9589 26.1781 62.9041 25.8904 62.137 25.2192C62.3288 24.8356 62.7123 24.4521 62.7123 24.0685C62.6164 24.0685 62.6164 24.0685 62.5205 23.9726C61.8493 23.6849 61.274 23.3973 60.6986 23.1096C59.4521 22.4384 58.589 21.6712 58.2055 21.1918C58.1096 21.0959 58.1096 21.0959 58.1096 21C57.9178 20.4247 57.9178 19.8493 58.0137 19.274C59.1644 19.0822 59.0685 20.137 59.2603 21C59.2603 21.1918 59.3562 21.2877 59.3562 21.3836C59.4521 21.5753 59.5479 21.6712 59.7397 21.7671C59.7397 21.6712 59.6438 21.6712 59.6438 21.5753C59.2603 20.5205 60.2192 18.8904 59.1644 18.411C58.9726 18.3151 58.6849 18.2192 58.3014 18.2192C58.1096 18.2192 57.9178 18.2192 57.8219 18.1233C57.1507 17.9315 57.1507 17.2603 56.5753 17.0685C55.6164 16.7808 53.8904 17.2603 52.1644 17.6438C50.4384 18.1233 48.7123 18.5068 47.8493 18.2192C48.0411 18.3151 48.2329 18.411 48.4247 18.5068C48.8082 18.6027 49.3836 18.6027 50.2466 18.6027C51.3014 18.5068 52.8356 18.3151 55.0411 17.9315C55.3288 17.8356 55.7123 17.9315 56 18.1233C56.1918 18.2192 56.3836 18.5068 56.5753 18.6986C56.863 19.4658 56.6712 20.3288 57.1507 21.1918C57.4384 21.7671 60.2192 23.589 61.6575 24.1644C61.9452 24.3562 61.8493 24.6438 61.7534 25.0274C61.5616 25.5069 61.5616 25.6027 61.5616 25.7945C61.5616 25.7945 61.5616 25.8904 61.6575 25.8904C61.8493 26.274 62.3288 26.4658 62.7123 26.6575C64.0548 27.3288 65.3014 28.1918 66.2603 29.2466C66.3562 29.3425 66.3562 29.3425 66.452 29.4384C66.452 29.4384 66.4521 29.4384 66.3562 29.4384C66.0685 29.4384 65.7808 29.5342 65.4931 29.5342C65.0137 29.5342 64.5342 29.5342 64.0548 29.5342H63.9589C63.863 29.5342 63.6712 29.5342 63.5753 29.5342C63.4795 29.5342 63.3836 29.6301 63.2877 29.6301C63.1918 29.6301 63.1918 29.726 63.0959 29.726C64.9178 31.5479 64.0548 32.7945 63 33.0822C61.3699 33.5616 60.7945 32.3151 61.0822 31.4521C61.1781 31.1644 61.3699 30.9726 61.6575 30.7808C61.4658 30.589 61.3699 30.4932 61.1781 30.3973C60.5069 30.0137 59.7397 29.8219 58.8767 29.8219C58.589 29.8219 58.3014 29.8219 58.0137 29.726C58.3014 30.0137 58.589 30.3014 58.8767 30.6849C58.9726 30.7808 58.9726 30.7808 59.0685 30.8767V30.9726V31.0685C58.9726 31.2603 58.6849 31.1644 58.4932 31.0685H58.3973C57.1507 30.589 56.3836 29.5342 55.7123 28.4795C55.7123 28.9589 55.7123 29.5342 55.9041 30.0137C56 30.3973 56.0959 30.6849 56.3836 30.9726C56.7671 31.4521 57.2466 31.8356 57.6301 32.3151C57.4384 32.2192 57.2466 32.1233 57.0548 32.0274C56.6712 31.8356 56.2877 31.5479 55.9041 31.2603C55.7123 31.1644 55.6164 30.9726 55.4247 30.8767C55.4247 31.5479 55.3288 32.2192 55.5205 32.7945C55.7123 33.3699 56.1918 33.7534 56.6712 34.137C56.7671 34.2329 56.7671 34.2329 56.863 34.3288C57.5342 35 58.3014 35.4795 58.8767 36.1507C59.4521 36.8219 59.3562 37.6849 59.3562 38.4521C59.3562 38.5479 59.3562 38.6438 59.2603 38.7397C59.1644 38.6438 59.1644 38.5479 59.0685 38.4521C58.8767 38.0685 58.7808 37.589 58.4932 37.1096C57.9178 36.0548 56.7671 35.5753 55.8082 34.9041C55.8082 34.9041 55.8082 34.9041 55.7123 34.9041C55.3288 34.7123 55.0411 34.4247 54.6575 34.137C53.6986 33.274 53.6027 31.9315 53.8904 30.7808C54.274 29.9178 54.6575 28.9589 54.6575 28C54.6575 27.9041 54.6575 27.7123 54.6575 27.6164C54.4658 28.5753 53.9863 29.3425 53.5069 30.2055C53.1233 30.9726 52.8356 31.8356 53.0274 32.7945C53.2192 33.5616 53.6027 34.3288 54.0822 34.9041C54.0822 34.9041 54.0822 34.9041 54.0822 35C54.0822 35.0959 54.1781 35.0959 54.1781 35.1918C54.274 35.2877 54.3699 35.4795 54.5616 35.5753L54.6575 35.6712C54.9452 35.9589 55.3288 36.3425 55.5205 36.726C55.5205 36.8219 55.6164 36.9178 55.6164 37.0137C55.6164 37.1096 55.6164 37.2055 55.6164 37.3014C55.4247 37.1096 55.2329 36.9178 55.0411 36.726C54.7534 36.4384 54.4658 36.1507 54.0822 35.863C53.9863 35.7671 53.7945 35.6712 53.6986 35.4795C52.9315 34.7123 52.1644 33.7534 51.9726 32.6986C51.6849 31.0685 52.3562 29.4384 53.2192 28C53.5069 27.5205 53.7945 27.0411 53.8904 26.4658C53.9863 25.9863 53.8904 25.5069 53.8904 25.1233C53.8904 25.0274 53.8904 24.8356 53.8904 24.7397C54.274 24.7397 54.5616 24.8356 54.9452 24.8356C55.0411 24.8356 55.137 24.8356 55.3288 24.8356C55.0411 24.5479 54.7534 24.2603 54.3699 24.0685C54.1781 23.9726 54.0822 23.8767 53.8904 23.7808C53.9863 23.7808 54.0822 23.7808 54.0822 23.7808C54.274 23.7808 54.3699 23.7808 54.5616 23.7808C54.9452 23.7808 55.2329 23.7808 55.6164 23.7808C55.5205 23.589 55.5205 23.4932 55.4247 23.3014C55.4247 23.2055 55.3288 23.1096 55.3288 23.1096C55.4247 23.1096 55.4247 23.1096 55.5205 23.1096C56.1918 23.2055 57.3425 23.2055 57.726 23.2055C57.8219 23.2055 57.8219 23.2055 57.8219 23.2055C57.5342 23.1096 57.2466 22.9178 56.9589 22.8219C56.6712 22.6301 56.2877 22.4384 56.0959 22.1507C56.0959 22.1507 56.0959 22.0548 56 22.0548C55.7123 21.6712 55.5205 21.0959 55.3288 20.6164C55.2329 20.4247 55.137 20.2329 54.9452 20.0411C54.6575 19.7534 54.274 19.6575 53.8904 19.5616C53.0274 19.3699 52.1644 19.4658 51.3014 19.5616C50.4384 19.6575 49.4795 19.7534 48.6164 19.8493C48.5205 19.8493 48.4247 19.8493 48.3288 19.8493C47.9452 19.7534 47.6575 19.3699 46.8904 19.0822C45.9315 18.7945 44.9726 18.8904 44.0137 19.274C43.4384 18.3151 42.3836 17.7397 41.5205 17.5479C41.3288 17.5479 41.0411 17.4521 40.8493 17.4521C40.6575 17.2603 40.5616 16.9726 40.274 16.8767C39.7945 16.3973 39.1233 16.1096 38.4521 16.1096C38.0685 16.0137 37.4932 16.1096 37.2055 15.8219C36.726 15.3425 35.863 15.1507 35 15.1507C34.4247 15.2466 33.8493 15.2466 33.3699 15.4384ZM33.3699 11.6986C33.1781 11.6986 32.8904 11.6986 32.6986 11.6986C29.9178 11.6986 26.7534 11.7945 24.5479 12.1781C24.1644 12.274 23.7808 12.5616 23.7808 12.9452C26.9452 12.5616 30.2055 12.3699 33.4658 12.3699C36.726 12.3699 39.9863 12.5616 43.1507 12.9452C43.0548 12.5616 42.7671 12.274 42.3836 12.1781C40.1781 11.8904 37.0137 11.6986 34.2329 11.6986C33.8493 11.6986 33.6575 11.6986 33.3699 11.6986ZM27.5205 9.9726C27.5205 9.58904 27.8082 9.30137 28.1918 9.30137C28.5753 9.30137 28.863 9.58904 28.863 9.9726C28.863 10.3562 28.5753 10.6438 28.1918 10.6438C27.8082 10.6438 27.5205 10.3562 27.5205 9.9726ZM37.9726 9.9726C37.9726 9.58904 38.2603 9.30137 38.6438 9.30137C39.0274 9.30137 39.3151 9.58904 39.3151 9.9726C39.3151 10.3562 39.0274 10.6438 38.6438 10.6438C38.2603 10.6438 37.9726 10.3562 37.9726 9.9726ZM31.0685 10.1644C32.9863 8.91781 32.8904 7.9589 32.9863 7.67123C33.274 8.63014 33.0822 10.4521 31.9315 10.4521C31.6438 10.4521 31.3562 10.3562 31.0685 10.1644ZM33.8493 7.67123C33.9452 8.0548 33.8493 9.0137 35.7671 10.1644C35.4795 10.3562 35.1918 10.4521 35 10.4521C33.7534 10.4521 33.5616 8.53425 33.8493 7.67123ZM32.0274 1.53425C31.7397 2.30137 32.0274 3.06849 32.411 3.73973C32.8904 4.50685 33.0822 5.27397 33.0822 6.13699C32.2192 3.64384 31.0685 2.9726 30.1096 2.9726C27.7123 2.87671 26.5616 6.0411 29.2466 6.71233C28.863 5.84932 29.4384 4.21918 31.1644 4.9863C31.5479 5.36986 31.8356 5.94521 31.8356 6.32877C31.5479 6.42466 30.4932 6.90411 30.4932 7.09589C30.4932 7.28767 31.5479 7.76712 31.8356 7.76712C31.8356 8.24658 31.5479 8.63014 31.0685 8.63014C30.3973 8.72603 30.2055 7.9589 29.9178 7.57534C29.6301 7.9589 29.3425 8.34247 29.0548 8.82192C28.5753 8.53425 28.4795 7.9589 28.4795 7.86301C28.5753 7.76712 28.6712 7.57534 28.6712 7.38356C28.6712 7.19178 28.5753 6.90411 28.3836 6.80822C28.1918 6.71233 28 6.71233 27.9041 6.71233H27.8082C27.7123 6.71233 27.5205 6.80822 27.4247 6.80822C27.3288 6.80822 27.3288 6.90411 27.2329 7C27.137 7.09589 27.0411 7.28767 27.0411 7.47945C27.0411 7.76712 27.137 7.9589 27.3288 8.05479C27.3288 8.05479 27.3288 11.411 24.5479 10.6438C23.7808 10.4521 23.2055 9.68493 23.1096 9.10959C26.1781 12.0822 27.6164 8.34247 25.2192 8.05479C25.5069 8.53425 25.0274 9.9726 23.8767 9.10959C24.1644 8.72603 24.4521 8.05479 24.4521 7.86301C24.4521 7.76712 23.589 7.67123 23.3014 7.67123C23.2055 7.09589 23.3014 6.32877 23.9726 6.13699C24.6438 5.94521 25.5069 6.42466 25.411 7.09589C25.7945 6.71233 26.0822 6.0411 25.8904 5.46575C25.6027 4.60274 24.3562 4.21918 23.4932 4.69863C23.1096 4.9863 21.5753 5.56164 22.6301 8.15069C21.2877 7.09589 22.1507 5.75342 21.863 4.9863C21.6712 4.60274 20.7123 3.93151 20.137 3.73973C20.4247 5.75342 22.3425 9.58904 24.0685 11.7945C25.8904 11.5069 31.4521 11.2192 33.274 11.3151C35.0959 11.2192 40.6575 11.5069 42.4795 11.7945C44.2055 9.58904 46.1233 5.84932 46.411 3.73973C45.8356 3.83562 44.8767 4.50685 44.6849 4.9863C44.3973 5.75342 45.2603 7.09589 43.9178 8.15069C44.9726 5.56164 43.5342 4.9863 43.0548 4.69863C42.2877 4.21918 41.0411 4.60274 40.6575 5.46575C40.3699 6.0411 40.6575 6.71233 41.137 7.09589C41.137 6.42466 41.9041 5.94521 42.5753 6.13699C43.2466 6.32877 43.3425 7.09589 43.2466 7.67123C42.863 7.67123 42.0959 7.67123 42 7.86301C41.9041 7.9589 42.2877 8.72603 42.5753 9.10959C41.4247 9.9726 41.0411 8.53425 41.2329 8.05479C38.8356 8.34247 40.274 12.0822 43.3425 9.10959C43.2466 9.68493 42.6712 10.3562 41.9041 10.6438C39.1233 11.5069 39.1233 8.15069 39.1233 8.05479C39.3151 7.9589 39.411 7.67123 39.411 7.47945C39.411 7.28767 39.3151 7.19178 39.2192 7C39.2192 6.90411 39.1233 6.90411 39.0274 6.80822C39.3151 6.80822 39.1233 6.71233 39.0274 6.71233H38.9315C38.7397 6.71233 38.548 6.80822 38.4521 6.90411C38.2603 7 38.1644 7.28767 38.1644 7.47945C38.1644 7.67123 38.2603 7.86301 38.3562 7.9589C38.3562 8.0548 38.2603 8.63014 37.7808 8.91781C37.589 8.43836 37.3014 8.0548 37.0137 7.67123C36.726 8.0548 36.4384 8.72603 35.863 8.72603C35.3836 8.72603 35.0959 8.24658 35.0959 7.86301C35.2877 7.86301 36.4384 7.38356 36.4384 7.19178C36.4384 7 35.3836 6.52055 35.0959 6.42466C35.0959 6.0411 35.3836 5.36986 35.863 5.17808C37.589 4.41096 38.0685 6.0411 37.7808 6.90411C40.4658 6.23288 39.2192 3.06849 36.9178 3.16438C35.863 3.16438 34.7123 3.83562 33.9452 6.32877C33.8493 5.46575 34.137 4.60274 34.6164 3.93151C35 3.26027 35.3836 2.49315 35 1.72603C34.5205 0.958904 33.9452 0.479452 33.3699 0C32.8904 0.479452 32.3151 0.958904 32.0274 1.53425Z" fill="white"/>
</svg>
