<svg width="22" height="22" viewBox="0 0 22 22" fill="none" xmlns="http://www.w3.org/2000/svg">
<path d="M6.23236 9.90015H3.66605C3.46358 9.90015 3.29944 10.0643 3.29944 10.2668V13.9329C3.29944 14.1354 3.46358 14.2995 3.66605 14.2995H6.23236C6.43483 14.2995 6.59897 14.1354 6.59897 13.9329V10.2668C6.59897 10.0643 6.43483 9.90015 6.23236 9.90015ZM5.86575 13.5663H4.03266V10.6334H5.86575V13.5663Z" fill="#757575"/>
<path d="M12.4648 9.90015H9.89847C9.696 9.90015 9.53186 10.0643 9.53186 10.2668V13.9329C9.53186 14.1354 9.696 14.2995 9.89847 14.2995H12.4648C12.6672 14.2995 12.8314 14.1354 12.8314 13.9329V10.2668C12.8314 10.0643 12.6672 9.90015 12.4648 9.90015ZM12.0982 13.5663H10.2651V10.6334H12.0982V13.5663Z" fill="#757575"/>
<path d="M12.4648 15.7659H9.89847C9.696 15.7659 9.53186 15.93 9.53186 16.1325V19.7986C9.53186 20.0011 9.696 20.1652 9.89847 20.1652H12.4648C12.6672 20.1652 12.8314 20.0011 12.8314 19.7986V16.1325C12.8314 15.9301 12.6672 15.7659 12.4648 15.7659ZM12.0982 19.432H10.2651V16.4991H12.0982V19.432Z" fill="#757575"/>
<path d="M18.3306 9.90015H15.7643C15.5618 9.90015 15.3976 10.0643 15.3976 10.2668V13.9329C15.3976 14.1354 15.5618 14.2995 15.7643 14.2995H18.3306C18.533 14.2995 18.6972 14.1354 18.6972 13.9329V10.2668C18.6972 10.0643 18.533 9.90015 18.3306 9.90015ZM17.964 13.5663H16.1309V10.6334H17.964V13.5663Z" fill="#757575"/>
<path d="M6.23236 15.7659H3.66605C3.46358 15.7659 3.29944 15.93 3.29944 16.1325V19.7986C3.29944 20.0011 3.46358 20.1652 3.66605 20.1652H6.23236C6.43483 20.1652 6.59897 20.0011 6.59897 19.7986V16.1325C6.59897 15.9301 6.43483 15.7659 6.23236 15.7659ZM5.86575 19.432H4.03266V16.4991H5.86575V19.432Z" fill="#757575"/>
<path d="M18.3306 15.7659H15.7643C15.5618 15.7659 15.3976 15.93 15.3976 16.1325V19.7986C15.3976 20.0011 15.5618 20.1652 15.7643 20.1652H18.3306C18.533 20.1652 18.6972 20.0011 18.6972 19.7986V16.1325C18.6972 15.9301 18.533 15.7659 18.3306 15.7659ZM17.964 19.432H16.1309V16.4991H17.964V19.432Z" fill="#757575"/>
<path d="M20.5304 21.2649V8.80005H20.897C21.0995 8.80005 21.2636 8.63591 21.2636 8.43344V6.6004C21.2636 6.39793 21.0995 6.23379 20.897 6.23379H20.5304V4.76735C20.5304 4.56488 20.3662 4.40074 20.1638 4.40074H19.4306V0.367952C19.4306 0.165483 19.2664 0.00134277 19.0639 0.00134277H2.93292C2.73045 0.00134277 2.56631 0.165483 2.56631 0.367952V4.4007H1.83309C1.63062 4.4007 1.46648 4.56484 1.46648 4.76731V6.23374H1.09987C0.897402 6.23374 0.733262 6.39788 0.733262 6.60035V8.4334C0.733262 8.63587 0.897402 8.80001 1.09987 8.80001H1.46648V21.2649H0V21.9981H1.83309H20.1638H22V21.2649H20.5304V21.2649ZM3.29953 0.734561H18.6973V4.4007H3.29953V0.734561ZM2.1997 5.13392H2.93292H19.0639H19.7971V6.23374H2.1997V5.13392ZM19.7971 21.2649H2.1997V8.80005H19.7972V21.2649H19.7971ZM1.83309 8.06683H1.46648V6.96701H1.83309H20.1638H20.5304V8.06683H20.1638H1.83309Z" fill="#757575"/>
</svg>
