<svg width="15" height="18" viewBox="0 0 15 18" fill="none" xmlns="http://www.w3.org/2000/svg">
<path d="M12.8021 2.21364C9.87171 -0.73772 5.1286 -0.738037 2.1979 2.21364C-0.732407 5.16488 -0.732862 9.94206 2.1979 12.8937L7.10372 17.8347C7.32262 18.0551 7.67745 18.0551 7.8963 17.8347L12.8021 12.8937C15.7324 9.94248 15.7329 5.16534 12.8021 2.21364ZM12.0095 12.0955L7.5 16.6373L2.99048 12.0955C0.503944 9.59118 0.503944 5.51626 2.99048 3.01192C5.47706 0.507622 9.52287 0.507552 12.0095 3.01192C14.4961 5.51623 14.4961 9.59114 12.0095 12.0955Z" fill="#BBBBBB"/>
<path d="M7.5 4C5.56565 4 4 5.56533 4 7.5C4 9.43434 5.56539 11 7.5 11C9.43439 11 11 9.43459 11 7.5C11 5.56566 9.43465 4 7.5 4ZM9.14728 9.1473C9.12486 9.1473 8.57328 9.8296 7.5 9.8296C6.21247 9.8296 5.17039 8.78769 5.17039 7.5C5.17039 6.21249 6.21232 5.1704 7.5 5.1704C9.59151 5.1704 10.5968 7.6978 9.14728 9.1473Z" fill="#BBBBBB"/>
</svg>
