<svg width="18" height="18" viewBox="0 0 18 18" fill="none" xmlns="http://www.w3.org/2000/svg">
<path d="M17.5461 1.97938C17.7322 1.93272 17.8847 1.79977 17.9565 1.62171C18.0282 1.44366 18.0105 1.24199 17.9089 1.07917C16.8685 -0.604206 11.5979 -0.331144 9.05247 2.15342C6.4771 -0.340146 1.14347 -0.628211 0.0911367 1.08217C-0.0105287 1.24499 -0.0282248 1.44666 0.04353 1.62472C0.115285 1.80277 0.267828 1.93572 0.453907 1.98238L2.63952 2.29445L2.56757 2.35446C2.36022 2.52765 2.29414 2.8182 2.40616 3.06415C2.51818 3.3101 2.78065 3.45075 3.04727 3.4077L5.10097 3.07162L5.02601 3.14364C4.88394 3.27188 4.81155 3.46028 4.83114 3.65075C4.83471 3.67207 4.83972 3.69313 4.84613 3.71377C4.5558 3.84586 4.27259 3.9931 3.99766 4.15487C2.07588 5.28012 0.304002 7.14954 0.642788 8.53886C0.691627 8.7235 0.825364 8.87384 1.00296 8.94375C1.18055 9.01367 1.38079 8.9948 1.54222 8.89294L3.3021 7.59364C3.28412 7.69267 3.27812 7.70767 3.27512 7.73468C3.24773 8.00564 3.40609 8.26109 3.66082 8.35688C3.91555 8.45266 4.20279 8.36475 4.36044 8.14277L5.57467 6.45339V6.55241C5.56024 6.79585 5.69443 7.02383 5.91418 7.12919C6.13393 7.23455 6.39553 7.19634 6.57603 7.03252L8.207 5.6252C8.95053 9.12699 8.70768 11.5845 8.13505 13.3759C7.64036 14.9123 6.96579 15.8725 6.13531 17.0518C6.00479 17.2352 5.98789 17.4764 6.09155 17.6763C6.19521 17.8762 6.40197 18.0012 6.627 18H10.8933C11.1431 17.9996 11.3665 17.8441 11.4539 17.6099L11.5499 17.3608C12.896 13.9761 13.1389 10.6423 11.8047 7.19755C11.9702 7.19785 12.1284 7.12971 12.242 7.00924C12.3555 6.88878 12.4143 6.72672 12.4043 6.56141V6.46839C12.4043 6.43838 12.1615 6.12031 13.6246 8.15177C13.7824 8.37288 14.0689 8.46027 14.3231 8.36482C14.5875 8.26473 14.7462 7.99341 14.7039 7.71367L14.6949 7.62665L16.4398 8.90194C16.6016 9.00376 16.8023 9.02224 16.98 8.9517C17.1577 8.88115 17.2911 8.73003 17.3392 8.54486C17.669 7.15855 15.9061 5.28912 13.9933 4.16087C13.0789 3.62375 13.1928 3.81579 13.2108 3.68976C13.2414 3.46947 13.1537 3.24938 12.98 3.11063C12.938 3.06562 12.4853 3.00861 14.9647 3.4107C15.2313 3.45375 15.4938 3.3131 15.6058 3.06715C15.7179 2.8212 15.6518 2.53065 15.4444 2.35746L15.3605 2.29145C17.756 1.95237 17.5191 1.98838 17.5461 1.97938ZM5.02002 2.47749L2.95133 2.81657L3.00229 2.76255C3.19402 2.61711 3.28033 2.37106 3.22152 2.13758C3.16271 1.9041 2.97017 1.72841 2.73247 1.69131L0.603812 1.39124C1.40131 0.118958 6.30021 0.295997 8.65072 2.60052C8.54382 2.73523 8.44854 2.87877 8.3659 3.02961C7.42022 2.94746 6.4682 3.07977 5.58066 3.4167C5.71541 3.2231 5.7243 2.96843 5.60339 2.76588C5.48248 2.56333 5.25421 2.45049 5.02002 2.47749ZM6.17429 6.59742V6.5254C6.21809 6.25239 6.06984 5.98475 5.81528 5.87729C5.56072 5.76983 5.26575 5.85036 5.10097 6.0723L3.87774 7.79769L3.89573 7.70467C3.92702 7.46611 3.81293 7.2319 3.60587 7.10965C3.39881 6.9874 3.13881 7.00074 2.94533 7.14354L1.22742 8.39783C0.849657 6.81347 4.91209 3.34769 8.14104 3.61175C8.03311 4.08885 8.15603 4.21188 8.53679 4.55396L6.17429 6.59742ZM8.9985 4.95005L10.8993 6.59742C11.0854 6.9888 11.2515 7.38941 11.397 7.79769H9.16639C9.06838 6.91894 8.92125 6.04637 8.72567 5.1841L8.9985 4.95005ZM11.6188 15.2994H7.98214C8.2376 14.8165 8.45609 14.315 8.63573 13.799H11.9336C11.8564 14.3046 11.7513 14.8055 11.6188 15.2994ZM8.82161 13.1989C8.93472 12.8044 9.02482 12.4036 9.09144 11.9986H12.0895C12.087 12.3996 12.064 12.8003 12.0206 13.1989H8.82161ZM11.9696 10.1982C12.0266 10.6093 12.0596 11.0114 12.0746 11.3985H9.17839C9.22336 11.0204 9.25634 10.6213 9.26833 10.1982H11.9696ZM9.27133 9.5981C9.27133 9.21701 9.25034 8.81492 9.22036 8.39783H11.5799C11.7008 8.79238 11.8008 9.19302 11.8797 9.5981H9.27133ZM10.8903 17.3999H6.627C6.99277 16.8837 7.31057 16.4426 7.64036 15.8995H11.442C11.2081 16.6347 11.0072 17.0998 10.8933 17.3999H10.8903ZM16.7666 8.39783L15.0547 7.14354C14.8583 6.98953 14.5872 6.97326 14.3739 7.10269C14.1606 7.23213 14.0496 7.48022 14.0953 7.72567C14.1163 7.8307 14.3021 8.06175 12.8601 6.0633C12.6898 5.85959 12.406 5.7921 12.1624 5.89739C11.9188 6.00267 11.7733 6.25569 11.8047 6.5194V6.59742L8.79163 3.97183C9.53516 3.35669 11.6248 3.45271 13.7025 4.67699C15.6453 5.82324 16.9914 7.45861 16.7696 8.39783H16.7666ZM15.2945 1.70031C15.0564 1.73107 14.8595 1.90108 14.7942 2.13237C14.7289 2.36366 14.8078 2.61162 14.9947 2.76255L15.0727 2.82257L13.007 2.48049C12.7712 2.46559 12.5486 2.59066 12.4386 2.79992C12.3285 3.00918 12.3515 3.26361 12.4973 3.44971C11.1721 2.9666 9.89793 2.86458 8.9985 3.18265H8.97452C9.52317 2.33346 10.8363 1.38224 12.6172 0.920138C14.7519 0.356011 16.8895 0.57506 17.3932 1.39725L15.2945 1.70031Z" fill="#BBBBBB"/>
</svg>
