<svg width="16" height="18" viewBox="0 0 16 18" fill="none" xmlns="http://www.w3.org/2000/svg">
<path d="M8.00072 9C10.5588 9 12.6323 6.98529 12.6323 4.5C12.6323 2.01483 10.5588 0 8.00072 0C5.44288 0 3.36914 2.01483 3.36914 4.5C3.37111 6.98445 5.44362 8.99809 8.00072 9ZM8.00072 0.762694C10.1252 0.762694 11.8473 2.43587 11.8473 4.5C11.8473 6.56413 10.1252 8.23731 8.00072 8.23731C5.87648 8.23731 4.15414 6.56413 4.15414 4.5C4.1577 2.43742 5.87783 0.766036 8.00072 0.762694Z" fill="#BBBBBB"/>
<path d="M8 10C5.84016 10 3.83162 10.7679 2.3412 12.165C0.829563 13.5813 0 15.5146 0 17.6142C0.000659003 17.827 0.188873 17.9994 0.421108 18H15.579C15.8114 17.9994 15.9993 17.827 16 17.6142C16 15.5186 15.1706 13.5813 13.6591 12.1689C12.1685 10.7718 10.1601 10 8 10ZM0.850652 17.2282C0.943309 15.4839 1.68008 13.8901 2.93906 12.7091C4.2696 11.4626 6.06752 10.7758 7.99591 10.7758C9.92431 10.7758 11.7222 11.4626 13.0526 12.7091C14.3158 13.8901 15.0485 15.4839 15.1412 17.2282H0.850652Z" fill="#BBBBBB"/>
</svg>
