<svg width="30" height="17" viewBox="0 0 30 17" fill="none" xmlns="http://www.w3.org/2000/svg">
<path d="M28.7573 13.7523C27.8641 12.681 26.8129 11.7666 25.8183 10.7957C24.9211 9.92051 24.8645 9.41281 25.5858 8.40269C26.373 7.30024 27.2196 6.24007 28.0139 5.1426C28.7554 4.11694 29.5134 3.09408 29.9036 1.86602C30.151 1.08473 29.9322 0.739631 29.131 0.602835C28.9929 0.578895 28.8502 0.577652 28.7097 0.577652L23.9564 0.572056C23.3709 0.563351 23.0473 0.8186 22.8402 1.33749C22.5607 2.03888 22.2725 2.73965 21.9396 3.41648C21.1841 4.95108 20.3403 6.43439 19.1573 7.69042C18.8965 7.96743 18.608 8.31751 18.1721 8.17325C17.6268 7.97427 17.466 7.07577 17.475 6.77202L17.4704 1.28557C17.3647 0.501793 17.1909 0.152341 16.4127 0L11.475 0.000932781C10.8159 0.000932781 10.4854 0.255559 10.1334 0.667813C9.93042 0.905962 9.86918 1.06048 10.2864 1.13945C11.1059 1.2949 11.5676 1.82529 11.6901 2.647C11.8866 3.95993 11.8729 5.27815 11.7598 6.59636C11.7265 6.98126 11.6603 7.36522 11.5076 7.72462C11.2688 8.28953 10.8833 8.40456 10.3769 8.05697C9.9183 7.74234 9.59621 7.29838 9.28096 6.85255C8.09674 5.17928 7.15191 3.37482 6.3815 1.47864C6.1589 0.930835 5.77494 0.598793 5.19449 0.589777C3.76839 0.567081 2.34198 0.56335 0.915881 0.591021C0.0577973 0.607187 -0.198073 1.02379 0.151378 1.80167C1.70463 5.2567 3.43355 8.61566 5.69037 11.6755C6.8491 13.2459 8.17944 14.6322 9.89809 15.6146C11.8459 16.7283 13.9426 17.0634 16.1509 16.9602C17.185 16.9117 17.4956 16.6428 17.5434 15.6122C17.5758 14.907 17.6557 14.206 18.0036 13.5723C18.3449 12.9505 18.862 12.8321 19.458 13.2188C19.7561 13.4125 20.0073 13.6591 20.2445 13.919C20.8265 14.5557 21.3877 15.2117 21.9918 15.827C22.7495 16.598 23.647 17.0535 24.7756 16.9605L29.1444 16.9615C29.8482 16.9154 30.2132 16.0524 29.8091 15.2667C29.5252 14.7164 29.1527 14.2265 28.7573 13.7523Z" fill="#757575"/>
</svg>
