<?xml version="1.0" standalone="no"?>
<!DOCTYPE svg PUBLIC "-//W3C//DTD SVG 20010904//EN"
 "http://www.w3.org/TR/2001/REC-SVG-20010904/DTD/svg10.dtd">
<svg version="1.0" xmlns="http://www.w3.org/2000/svg"
 width="1072.000000pt" height="1072.000000pt" viewBox="0 0 1072.000000 1072.000000"
 preserveAspectRatio="xMidYMid meet">
<metadata>
Created by potrace 1.14, written by Peter Selinger 2001-2017
</metadata>
<g transform="translate(0.000000,1072.000000) scale(0.100000,-0.100000)"
fill="#000000" stroke="none">
<path d="M5260 9202 c-121 -126 -135 -147 -148 -222 -16 -90 1 -158 75 -297
65 -125 91 -203 98 -297 l6 -71 -22 55 c-29 73 -97 200 -120 226 -11 11 -19
24 -19 28 0 16 -113 117 -153 138 -59 30 -123 45 -184 43 -194 -7 -351 -147
-358 -321 -5 -111 46 -190 160 -245 74 -36 87 -37 76 -6 -12 33 -6 127 12 167
17 38 57 80 96 100 30 15 139 16 154 1 6 -6 19 -11 28 -11 37 0 128 -142 129
-200 0 -21 -7 -29 -37 -39 -53 -19 -173 -90 -173 -102 0 -13 25 -39 38 -39 5
0 15 -6 21 -13 6 -8 42 -25 81 -38 75 -25 79 -31 59 -87 -16 -48 -69 -76 -131
-70 -57 6 -77 23 -124 105 -16 29 -33 51 -39 50 -9 -3 -90 -113 -120 -163 -15
-24 -45 -11 -73 32 -32 49 -35 76 -17 132 30 86 -8 143 -99 147 -115 6 -192
-115 -123 -195 20 -24 21 -74 3 -150 -29 -113 -60 -175 -114 -227 -50 -47 -98
-66 -177 -69 -157 -6 -276 59 -341 188 -29 57 -24 73 11 38 31 -32 40 -39 105
-80 155 -99 308 -89 367 23 50 96 -3 208 -116 246 -48 16 -49 15 -46 -31 4
-64 -31 -147 -62 -148 -7 0 -13 -5 -13 -11 0 -8 -16 -10 -50 -6 -57 7 -105 34
-91 51 41 52 96 195 75 197 -5 0 -18 3 -29 5 -11 3 -48 8 -82 11 -48 4 -63 10
-64 22 -5 62 -4 81 7 120 25 86 96 127 190 110 26 -5 55 -16 64 -24 9 -8 21
-15 27 -15 11 0 53 -80 53 -100 0 -21 16 -1 45 56 32 63 34 71 35 124 1 44 -2
57 -23 96 -53 100 -208 153 -325 110 -139 -50 -233 -168 -235 -295 -2 -99 14
-186 42 -240 18 -33 -3 -25 -38 14 -59 68 -75 119 -71 235 6 210 6 214 -17
243 -41 52 -164 139 -235 166 -25 9 -26 9 -22 -17 3 -15 7 -35 10 -44 3 -9 7
-27 9 -39 7 -33 66 -212 75 -224 4 -5 13 -28 20 -50 47 -150 396 -785 442
-803 4 -2 8 -10 8 -17 0 -7 4 -15 8 -17 4 -1 18 -17 30 -35 18 -25 27 -30 50
-27 29 5 48 7 162 19 117 12 238 21 271 20 16 0 29 2 29 5 0 3 28 6 63 6 34 1
123 4 197 8 74 4 176 9 225 11 115 5 873 5 985 0 231 -9 587 -30 685 -40 28
-2 75 -7 105 -10 30 -3 75 -8 100 -10 25 -2 57 -7 71 -9 23 -5 32 3 85 77 61
84 209 314 225 351 5 12 22 44 39 71 119 204 293 633 291 720 0 2 4 18 9 35
11 40 0 39 -87 -5 -124 -63 -204 -160 -190 -231 2 -13 0 -27 -4 -30 -5 -3 -5
-13 0 -22 5 -9 8 -62 7 -117 -2 -114 -21 -169 -80 -233 l-35 -37 19 63 c11 35
23 75 26 90 12 48 8 186 -6 217 -7 17 -13 33 -12 37 3 16 -97 106 -153 138
-55 32 -67 35 -140 35 -47 0 -92 -6 -110 -14 -16 -8 -33 -14 -36 -13 -14 2
-99 -89 -114 -124 -32 -75 -14 -165 48 -231 l20 -23 17 38 c34 74 95 115 170
115 101 0 167 -78 163 -190 -2 -62 1 -60 -65 -62 -35 -1 -80 -7 -102 -12 -36
-10 -38 -12 -32 -42 7 -33 44 -118 56 -127 4 -3 12 -15 18 -26 10 -19 8 -24
-15 -39 -34 -23 -92 -29 -122 -13 -37 20 -70 94 -68 151 l2 48 -30 -7 c-118
-24 -191 -141 -147 -235 20 -43 73 -93 103 -99 54 -9 155 -2 184 14 17 9 36
16 43 16 6 0 12 5 12 10 0 6 5 10 11 10 14 0 85 50 127 89 36 34 40 26 15 -27
-20 -43 -110 -142 -130 -142 -7 0 -13 -4 -13 -9 0 -8 -34 -22 -115 -47 -30
-10 -109 -10 -155 -1 -58 12 -124 62 -164 125 -53 84 -96 302 -63 315 39 15
38 114 0 158 -8 9 -13 23 -11 30 2 10 -8 14 -38 13 -90 -4 -146 -107 -99 -181
12 -18 12 -28 -1 -65 -14 -43 -56 -98 -74 -98 -5 0 -18 19 -29 43 -21 42 -35
67 -58 96 -7 9 -19 24 -26 35 -13 17 -17 14 -60 -46 -65 -92 -106 -115 -172
-97 -36 10 -71 50 -84 97 -8 27 -7 28 73 60 89 35 143 72 132 90 -9 15 -109
73 -167 97 -44 18 -46 21 -38 47 4 16 8 31 8 33 2 18 32 74 50 92 26 28 84 58
131 69 47 10 57 10 111 -4 86 -22 133 -102 133 -225 l-1 -68 26 6 c39 10 108
53 143 88 83 86 86 215 8 337 -31 49 -49 66 -107 104 -128 85 -318 77 -440
-18 -43 -33 -133 -140 -133 -156 0 -5 -6 -15 -13 -22 -11 -11 -61 -112 -63
-127 0 -3 -4 -13 -7 -21 -4 -8 -14 -33 -22 -55 l-15 -40 4 75 c4 89 19 144 62
225 18 33 48 90 68 128 63 118 77 215 40 292 -24 51 -116 157 -194 224 -39 34
-72 61 -73 61 -1 0 -36 -35 -77 -78z m28 -1184 c25 -262 -42 -408 -186 -408
-36 0 -122 29 -122 41 0 4 26 26 58 50 120 89 199 190 224 283 12 44 23 59 26
34z m139 -20 c6 -77 111 -226 196 -276 15 -9 27 -20 27 -24 0 -4 5 -8 11 -8 6
0 22 -9 36 -20 l26 -20 -44 -20 c-154 -69 -278 56 -279 282 0 53 4 106 9 116
6 12 16 -4 18 -30z m-847 -235 c36 -33 45 -85 23 -130 -42 -87 -187 -60 -197
37 -10 100 101 159 174 93z m1653 16 c68 -31 72 -150 6 -184 -43 -23 -94 -19
-124 10 -92 84 4 226 118 174z"/>
<path d="M4757 7404 c-1 -2 -70 -6 -152 -9 -83 -3 -170 -8 -195 -10 -25 -2
-83 -7 -130 -10 -106 -8 -119 -10 -259 -30 -120 -17 -188 -47 -198 -86 -3 -10
-9 -19 -14 -19 -5 0 -6 -7 -2 -15 5 -16 12 -16 148 0 111 13 232 25 305 30 36
3 94 7 130 10 36 3 106 8 155 10 50 3 146 9 215 13 171 9 1030 8 1215 -2 83
-5 175 -10 205 -11 89 -5 208 -14 263 -20 57 -6 124 -12 232 -20 39 -3 81 -8
95 -11 14 -2 49 -7 78 -10 52 -5 54 -4 47 18 -16 51 -77 97 -137 103 -24 3
-63 7 -88 10 -25 3 -65 7 -90 10 -25 2 -70 6 -100 9 -67 7 -153 13 -285 21
-55 4 -134 9 -175 11 -83 6 -1258 13 -1263 8z"/>
<path d="M5535 6848 c-33 -4 -76 -10 -95 -12 -19 -3 -66 -15 -105 -27 -38 -12
-75 -22 -82 -23 -32 -5 -165 -82 -216 -126 l-58 -49 -42 18 c-24 10 -63 22
-88 26 -70 13 -229 10 -284 -4 -27 -7 -63 -15 -79 -18 -67 -11 -267 -85 -337
-124 -78 -44 -169 -112 -188 -141 -10 -16 -5 -17 52 -12 34 3 67 7 74 9 7 2
15 0 18 -4 3 -5 14 -7 25 -4 11 3 20 1 20 -4 0 -5 -26 -17 -57 -27 -67 -21
-166 -67 -171 -78 -2 -4 -8 -8 -14 -8 -6 0 -34 -17 -62 -37 -47 -35 -56 -38
-116 -37 -38 1 -99 12 -145 27 -100 31 -142 39 -230 43 -65 3 -167 -10 -190
-24 -5 -4 -14 -7 -20 -8 -5 -1 -38 -18 -72 -38 -35 -20 -80 -43 -100 -50 -38
-13 -51 -13 -153 -1 -30 3 -75 8 -100 10 -25 3 -63 7 -85 9 -22 3 -71 8 -110
12 -38 3 -72 8 -76 9 -10 7 -155 19 -219 19 -93 -1 -148 -9 -209 -34 -121 -48
-155 -87 -227 -265 -15 -38 -37 -86 -49 -105 -23 -37 -84 -100 -96 -100 -4 0
-14 -6 -21 -13 -7 -7 -47 -28 -88 -46 -41 -19 -78 -37 -82 -40 -23 -20 250
-16 354 5 l28 6 -20 -47 c-11 -26 -18 -50 -16 -54 3 -4 59 -7 126 -6 114 1
154 -6 111 -20 -10 -3 -28 -13 -39 -23 -11 -9 -37 -31 -59 -49 -21 -17 -49
-41 -63 -53 l-25 -22 106 6 107 6 -1 -142 c-1 -166 2 -178 86 -338 199 -380
221 -445 222 -645 0 -204 -46 -344 -155 -465 -79 -87 -140 -148 -186 -185 -27
-22 -60 -49 -73 -60 -14 -11 -59 -52 -100 -92 -70 -66 -76 -70 -79 -48 -6 46
44 127 149 240 126 135 205 259 248 386 52 158 26 280 -123 580 -47 94 -86
180 -86 190 0 10 -4 21 -10 24 -5 3 -10 15 -10 25 0 10 -5 22 -12 26 -8 5 -9
-14 -4 -77 4 -46 8 -92 9 -101 1 -10 5 -18 10 -18 4 0 6 -4 3 -8 -7 -12 27
-111 78 -224 30 -68 40 -126 40 -233 -1 -161 -40 -253 -151 -359 -54 -53 -95
-81 -330 -227 -174 -108 -247 -191 -306 -350 -31 -81 -67 -153 -74 -146 -10
10 -12 220 -3 271 22 115 85 196 268 344 139 113 292 269 322 328 21 43 25 64
27 182 2 72 -1 132 -5 132 -5 0 -17 -8 -28 -18 -10 -9 -41 -35 -69 -57 -27
-22 -52 -43 -55 -46 -12 -15 -110 -70 -149 -84 -52 -18 -50 -13 50 90 42 44
89 94 103 112 35 42 72 128 80 183 3 25 8 56 11 70 11 62 13 130 4 130 -5 0
-9 -3 -9 -8 0 -7 -42 -60 -123 -156 -65 -77 -179 -186 -195 -186 -3 0 -13 -6
-21 -13 -23 -19 -120 -57 -145 -57 -12 0 -27 5 -34 12 -26 26 -15 46 85 156
50 55 54 71 15 66 -15 -2 -52 -6 -82 -9 -112 -11 -225 -28 -225 -35 0 -1 -7
-3 -15 -5 -8 -2 -26 -7 -40 -13 -14 -5 -29 -11 -35 -12 -13 -3 -96 -60 -114
-78 -12 -12 -10 -17 17 -38 68 -53 90 -156 51 -240 -37 -78 -90 -112 -185
-118 -89 -6 -185 28 -239 84 -36 37 -62 115 -59 174 3 63 59 175 119 239 25
26 45 49 45 51 0 2 -14 9 -31 16 -19 8 -93 14 -202 16 -188 3 -286 9 -294 18
-6 5 165 180 217 221 56 45 191 135 285 191 55 32 102 61 105 64 3 3 36 25 73
50 41 27 70 54 74 68 3 13 -2 49 -11 81 -9 31 -16 66 -16 77 0 29 33 56 117
97 60 29 138 72 221 122 41 24 178 110 187 117 6 5 42 32 80 60 155 114 189
174 210 360 4 42 12 97 18 128 6 34 50 106 76 127 42 33 124 52 180 41 25 -5
62 -11 81 -14 19 -3 73 -12 120 -19 47 -8 105 -17 130 -20 25 -3 56 -7 70 -10
24 -5 48 -8 155 -21 28 -3 64 -8 80 -10 17 -2 100 -6 186 -9 134 -3 166 -1
219 15 35 11 68 24 74 31 8 9 6 9 -9 2 -33 -16 -220 -7 -305 14 -14 3 -32 7
-40 9 -32 6 -86 17 -95 20 -5 2 -19 5 -30 7 -11 3 -81 21 -155 41 -401 108
-573 134 -724 112 -49 -8 -91 -41 -148 -117 -36 -48 -81 -68 -174 -75 -107 -9
-157 -33 -185 -91 -19 -40 -21 -55 -15 -142 4 -54 9 -109 11 -122 11 -56 7
-126 -11 -181 -10 -31 17 -17 40 21 23 41 47 136 50 204 0 9 4 17 9 17 4 0 5
4 2 10 -9 15 24 78 53 100 17 14 40 20 72 20 57 0 60 -6 56 -124 -7 -169 -11
-177 -196 -336 -86 -75 -314 -208 -472 -276 -66 -28 -88 -42 -88 -56 0 -22 28
-80 65 -134 14 -20 25 -40 25 -43 0 -9 -146 -104 -205 -134 -87 -44 -160 -99
-266 -197 -208 -194 -249 -241 -249 -287 0 -10 17 -52 37 -93 36 -74 37 -76
39 -210 2 -208 20 -268 103 -351 45 -45 49 -54 45 -87 -11 -95 -13 -237 -3
-284 15 -69 81 -197 124 -240 l35 -35 40 38 c52 49 127 76 228 82 87 4 95 0
86 -45 -2 -13 -7 -36 -9 -52 -3 -15 -12 -44 -20 -62 -8 -19 -12 -34 -9 -34 2
0 -2 -13 -10 -28 -46 -89 77 -394 224 -556 77 -85 154 -156 169 -156 5 0 11
-4 13 -9 8 -22 288 -173 288 -155 0 2 12 -2 28 -9 23 -12 148 -46 192 -53 135
-20 267 -29 400 -25 l55 1 -96 53 c-216 120 -349 252 -425 423 -13 30 -24 56
-24 59 0 3 0 6 -1 8 -21 70 -29 189 -17 278 7 49 27 129 32 129 2 0 3 -37 3
-82 -1 -253 109 -478 295 -606 37 -25 126 -70 203 -102 39 -16 140 -39 170
-39 17 0 56 -6 88 -14 115 -29 323 -1 512 67 22 8 41 10 43 5 2 -5 8 -9 13 -9
5 0 22 -12 37 -28 128 -127 230 -205 338 -260 65 -33 244 -95 244 -85 0 3 7
-1 17 -8 9 -8 18 -13 20 -11 2 2 27 -1 56 -7 55 -11 109 -19 192 -26 123 -12
226 -25 235 -30 3 -2 26 -6 50 -10 50 -7 141 -37 210 -68 25 -11 64 -28 86
-38 23 -9 45 -22 48 -28 4 -6 13 -11 21 -11 12 0 12 6 1 38 -22 61 -62 135
-100 185 -20 26 -36 49 -36 52 0 2 -24 30 -52 61 -43 46 -291 224 -313 224 -3
0 -17 10 -32 22 -171 143 -255 315 -279 578 -6 63 6 58 25 -10 19 -65 77 -185
129 -265 50 -78 165 -197 228 -237 57 -36 164 -90 164 -82 0 4 8 0 18 -9 9 -8
85 -42 167 -75 199 -79 271 -113 351 -167 37 -25 68 -45 70 -45 15 0 228 -209
284 -279 19 -24 40 -48 45 -55 6 -6 32 -40 60 -76 27 -36 74 -96 103 -134 l55
-68 24 28 c13 16 72 92 130 168 59 77 146 178 193 226 72 73 111 107 215 189
15 11 109 66 115 66 3 1 28 13 55 27 28 14 88 40 135 58 47 18 99 38 115 46
120 52 164 67 198 65 47 -2 104 23 198 87 148 100 250 235 334 442 26 63 49
117 50 118 2 2 2 -36 0 -85 -4 -92 -25 -179 -68 -276 -14 -31 -26 -60 -26 -64
1 -3 -3 -9 -8 -12 -5 -3 -24 -30 -42 -59 -43 -68 -127 -140 -275 -237 -163
-107 -255 -209 -328 -365 -54 -116 -58 -112 56 -56 55 28 126 61 156 74 66 28
232 69 313 76 31 3 81 8 110 11 28 3 70 7 92 9 144 14 348 80 460 149 86 53
143 96 206 155 41 38 89 83 107 99 l33 30 82 -24 c155 -45 221 -57 327 -57
107 -1 143 3 193 23 17 7 36 7 51 1 13 -5 26 -7 28 -5 2 3 21 7 41 10 20 4 49
13 65 21 15 7 31 14 35 14 28 0 179 85 231 130 70 60 177 191 173 210 -1 3 8
21 20 40 12 19 27 55 34 80 7 25 13 47 14 50 17 59 25 212 14 273 -10 59 7 30
26 -42 22 -84 22 -237 0 -321 -21 -82 -67 -180 -116 -246 -68 -92 -206 -204
-339 -275 -25 -13 -46 -27 -48 -32 -2 -4 -11 -7 -20 -7 -11 0 -13 -3 -5 -8 23
-15 347 2 443 23 14 3 39 8 55 10 17 3 73 18 124 35 254 81 473 254 613 482
40 64 97 195 104 237 3 14 8 40 13 56 11 42 6 103 -12 155 -9 25 -19 61 -22
80 -3 19 -10 52 -14 72 -10 43 -6 45 64 42 124 -7 181 -29 232 -89 l32 -37 36
39 c37 39 92 130 88 145 -2 4 1 8 6 8 7 0 22 42 38 110 8 38 2 192 -11 264 -4
23 1 37 27 66 63 71 103 130 106 153 1 4 1 8 2 10 9 29 12 66 15 191 2 103 8
159 18 180 8 17 25 59 39 93 l25 61 -20 33 c-23 37 -72 91 -218 235 -131 129
-164 154 -305 230 -27 14 -80 47 -117 71 l-67 45 31 51 c16 29 34 57 38 62 4
6 12 23 17 40 l10 30 -189 92 c-244 119 -364 199 -487 322 -77 77 -94 147 -82
338 1 19 6 21 51 19 56 -4 90 -27 109 -74 6 -15 20 -78 31 -141 21 -114 38
-154 71 -171 17 -9 17 -8 4 17 -15 29 -15 199 0 306 22 149 -50 225 -217 232
-32 1 -64 7 -71 14 -8 6 -16 8 -19 5 -7 -6 -73 58 -124 118 -21 24 -45 40 -74
48 -44 12 -160 19 -160 10 0 -3 -15 -5 -32 -4 -18 1 -73 -7 -123 -16 -49 -10
-93 -16 -97 -13 -5 2 -8 -1 -8 -8 0 -7 -2 -10 -5 -7 -3 3 -70 -10 -148 -28
-172 -41 -166 -40 -247 -60 -36 -9 -74 -18 -85 -20 -11 -2 -40 -8 -65 -14
-101 -25 -200 -37 -292 -36 l-97 1 36 -19 c50 -25 78 -29 228 -29 107 0 260 8
260 13 0 1 14 3 30 5 99 11 240 32 240 35 0 1 23 3 50 6 57 6 90 11 90 13 0 1
13 4 29 6 16 2 61 10 100 16 137 24 196 9 269 -70 44 -48 53 -72 67 -191 27
-217 52 -265 195 -376 123 -95 359 -240 511 -314 116 -56 122 -66 97 -154 -40
-139 -40 -139 2 -184 24 -26 76 -61 139 -93 151 -78 330 -190 406 -256 55 -47
190 -178 190 -184 0 -13 -104 -22 -275 -24 -160 -1 -245 -13 -245 -34 0 -4 12
-18 26 -32 15 -13 46 -53 69 -89 121 -185 75 -352 -113 -410 -64 -20 -168 -25
-178 -9 -3 5 -14 9 -24 9 -26 0 -96 75 -105 113 -23 94 -8 162 47 215 l39 38
-24 25 c-20 21 -68 48 -142 80 -48 21 -147 40 -235 45 -52 2 -113 7 -134 9
l-40 5 35 -37 c101 -107 129 -142 129 -162 0 -72 -198 10 -324 134 -82 80
-112 116 -164 197 -20 32 -40 58 -43 58 -13 0 4 -189 19 -215 4 -5 8 -19 9
-30 9 -56 58 -127 156 -230 58 -60 104 -111 102 -113 -5 -6 -101 47 -169 92
-60 40 -75 50 -131 99 -41 34 -42 31 -39 -119 2 -157 30 -227 123 -308 36 -32
72 -65 121 -110 25 -23 90 -80 145 -126 139 -118 172 -155 207 -230 28 -59 31
-75 33 -184 4 -165 -4 -181 -48 -93 -15 29 -27 55 -27 59 0 4 -5 19 -12 35 -6
15 -12 30 -13 33 -8 32 -83 148 -120 185 -24 25 -128 105 -135 105 -5 0 -15 6
-22 13 -20 19 -197 127 -209 127 -29 0 -188 135 -228 194 -58 85 -75 152 -75
281 0 132 3 144 54 270 50 122 73 209 85 324 4 43 -9 56 -20 19 -17 -58 -55
-142 -112 -247 -163 -296 -177 -447 -66 -676 31 -65 58 -109 85 -139 10 -11
18 -26 18 -34 0 -19 45 -78 89 -117 102 -89 179 -208 157 -244 -3 -5 -43 28
-89 73 -45 44 -102 97 -126 116 -51 40 -60 49 -121 115 -67 73 -150 178 -150
192 0 6 -3 13 -7 15 -5 2 -21 29 -36 60 -26 51 -34 74 -54 158 -7 33 -7 185 1
232 26 159 103 348 216 533 22 36 36 65 32 65 -4 0 -2 4 5 8 6 4 23 41 37 82
23 68 25 87 22 208 l-4 134 67 -7 c144 -16 167 -13 136 19 -32 31 -102 83
-147 110 -27 15 -48 28 -48 29 0 1 58 2 130 2 92 0 130 3 130 11 0 6 -7 28
-15 47 -8 20 -15 39 -15 42 0 4 39 4 88 1 92 -6 203 -9 262 -7 33 2 32 3 -35
33 -146 65 -212 126 -270 252 -19 42 -35 79 -35 82 0 21 -48 102 -79 133 -67
67 -169 94 -356 95 -96 0 -151 -4 -279 -19 -17 -2 -60 -7 -96 -11 -36 -3 -78
-8 -95 -10 -241 -26 -235 -27 -331 33 -122 77 -184 95 -324 94 -75 -1 -134
-12 -246 -46 -15 -5 -25 1 -40 20 -77 107 -243 220 -351 240 -15 3 -41 8 -58
11 -16 3 -41 7 -54 9 -13 1 -40 22 -63 49 -22 25 -44 46 -49 46 -6 0 -20 11
-32 23 -25 27 -136 82 -182 91 -16 3 -61 8 -100 12 -107 10 -108 10 -147 23
-21 7 -38 17 -38 21 0 14 -84 60 -138 77 -84 26 -188 34 -277 21z m155 -107
l35 -1 -41 -28 c-79 -53 -123 -119 -131 -195 -4 -36 0 -50 29 -92 19 -27 50
-77 68 -110 18 -33 36 -64 40 -70 4 -5 19 -40 34 -76 46 -118 51 -191 19 -268
-13 -29 -23 -55 -23 -57 0 -6 23 0 35 8 5 5 44 30 86 58 86 56 176 147 204
206 24 51 30 114 16 171 -14 56 -86 169 -135 214 -20 18 -36 36 -36 42 0 12
98 2 175 -18 113 -30 214 -97 251 -167 33 -64 6 -164 -73 -263 -53 -67 -149
-161 -198 -193 -39 -27 -91 -72 -84 -72 2 -1 33 -3 69 -5 157 -10 259 -43 315
-103 51 -54 136 -260 184 -446 25 -96 25 -95 4 -95 -10 0 -38 -5 -63 -11 -55
-15 -170 -21 -190 -10 -8 4 -48 10 -88 14 -41 3 -78 9 -84 12 -5 4 12 27 39
53 26 26 54 54 62 64 12 15 11 16 -20 5 -19 -6 -90 -40 -159 -76 -263 -138
-246 -132 -333 -128 -70 2 -80 6 -108 32 -17 16 -36 43 -43 59 -31 71 -36 87
-37 113 l0 27 -10 -25 c-30 -72 -3 -170 74 -270 24 -30 50 -66 59 -80 12 -20
48 -154 64 -236 11 -59 92 -294 106 -309 9 -9 7 43 -7 155 -11 91 -14 324 -5
330 6 4 39 0 73 -7 164 -36 280 -37 351 -5 50 22 180 105 204 128 7 8 26 21
42 31 17 9 30 21 30 25 0 4 8 8 18 8 10 0 22 4 27 9 6 5 21 11 34 13 22 3 26
-3 42 -62 30 -104 36 -175 25 -259 -7 -44 -42 -136 -61 -158 -5 -6 -21 -27
-35 -46 -42 -58 -136 -117 -256 -161 -93 -34 -153 -72 -160 -103 -7 -27 6 -72
65 -233 18 -47 34 -94 36 -105 20 -87 26 -203 14 -250 -5 -16 -10 -42 -13 -56
-14 -81 -90 -190 -157 -224 -114 -60 -352 10 -500 147 -98 91 -184 246 -172
310 12 62 97 120 239 163 49 15 108 37 130 50 39 23 104 87 104 103 0 10 -88
48 -135 58 -237 55 -531 62 -755 19 -97 -18 -137 -28 -147 -37 -7 -6 -13 -8
-13 -4 0 4 -18 -3 -40 -14 -45 -23 -44 -34 7 -81 36 -34 90 -60 178 -88 39
-12 78 -26 87 -32 10 -5 23 -9 29 -9 18 0 95 -58 113 -85 9 -14 19 -39 21 -56
11 -91 -116 -278 -249 -368 -118 -79 -334 -118 -416 -76 -70 35 -133 131 -163
248 -17 65 -16 234 2 280 6 15 13 42 16 59 3 17 13 44 21 61 24 45 63 152 69
189 6 33 -11 88 -27 88 -6 0 -22 8 -36 19 -15 10 -58 30 -97 44 -138 49 -162
64 -242 145 -106 107 -137 222 -108 399 3 20 7 38 10 42 2 4 6 21 9 37 15 81
16 83 44 78 15 -3 37 -12 50 -20 12 -8 22 -11 22 -7 0 5 4 3 8 -3 18 -26 186
-145 247 -174 79 -38 178 -49 270 -30 33 7 69 14 80 15 11 1 27 5 35 8 50 18
68 17 72 -6 5 -30 2 -176 -6 -267 -4 -41 -9 -102 -12 -135 -3 -33 -7 -67 -10
-75 -3 -8 -2 -11 2 -7 7 6 59 154 70 197 2 8 12 45 23 83 18 63 26 97 36 172
7 45 12 67 24 97 11 29 97 149 115 160 6 4 7 8 2 8 -5 0 -2 8 6 18 33 36 43
136 20 192 l-11 25 -2 -25 c-1 -14 -1 -28 0 -32 0 -4 -10 -31 -23 -60 -40 -89
-79 -118 -159 -118 -69 0 -112 16 -315 117 -106 53 -195 93 -198 90 -4 -3 19
-31 50 -61 31 -31 56 -59 56 -63 0 -5 -12 -9 -27 -9 -16 -1 -59 -5 -98 -10
-85 -9 -283 -11 -307 -2 -14 6 -15 12 -7 40 6 18 12 40 14 48 2 8 13 44 24 79
12 35 21 67 21 72 0 4 5 20 12 36 6 15 12 33 13 38 7 32 70 169 97 211 17 27
40 65 51 84 55 95 54 104 -6 155 -81 70 -186 73 -217 6 -7 -14 -23 -60 -37
-101 -25 -76 -56 -130 -106 -184 l-28 -31 5 30 c3 17 7 47 10 69 4 21 9 42 12
47 3 5 1 9 -5 9 -6 0 -9 6 -6 13 2 6 6 57 9 112 4 55 8 110 11 123 3 12 7 32
10 44 2 12 17 42 32 67 36 58 102 93 170 92 43 -1 84 -6 91 -11 1 -2 5 -3 10
-4 59 -10 176 -115 240 -215 62 -96 115 -133 119 -83 14 191 -6 279 -86 363
-26 27 -52 49 -59 49 -7 0 -12 5 -12 12 0 6 -3 8 -7 5 -3 -4 -11 -3 -17 2 -26
21 -134 42 -251 50 -17 2 -15 5 10 18 34 18 123 51 157 57 13 3 23 5 23 6 0 4
77 9 150 10 248 2 418 -157 440 -412 3 -29 7 -62 9 -73 3 -11 5 -30 5 -43 1
-15 10 -26 27 -32 98 -38 253 -130 305 -183 20 -20 34 -26 40 -20 17 17 18 66
2 103 -35 82 -111 304 -119 348 -38 201 51 412 204 483 52 24 156 47 197 43
17 -1 46 -3 65 -3z m1135 -501 c22 -7 43 -14 47 -16 11 -7 -262 -274 -317
-310 -55 -37 -127 -49 -200 -34 -22 5 -62 11 -90 15 -27 3 -51 8 -53 10 -2 1
14 9 35 15 83 28 173 106 258 226 41 57 65 76 120 93 63 20 142 20 200 1z
m-4479 -287 c65 -32 149 -112 204 -193 41 -60 84 -140 75 -140 -3 0 1 -10 9
-22 31 -50 54 -184 37 -213 -3 -5 -6 -12 -6 -15 -2 -43 -108 -170 -141 -170
-8 0 -14 -3 -14 -8 0 -16 -236 -89 -260 -80 -4 2 9 37 29 78 46 95 72 157 79
195 18 95 -9 212 -69 294 l-29 41 -103 -51 c-56 -28 -110 -55 -119 -60 -10 -5
-20 -9 -22 -9 -9 0 17 65 36 92 18 26 18 27 1 21 -10 -4 -29 -13 -43 -20 -14
-7 -31 -13 -38 -13 -7 0 -27 -7 -43 -16 -17 -8 -33 -14 -35 -11 -7 6 56 129
93 182 104 147 224 186 359 118z m6185 24 c66 -12 176 -134 229 -252 12 -27
24 -53 27 -58 5 -8 -60 16 -127 49 -25 12 -47 21 -48 19 -2 -2 6 -25 17 -50
24 -54 26 -65 10 -65 -11 0 -76 29 -161 71 l-57 29 -31 -41 c-46 -57 -78 -159
-75 -234 4 -71 22 -131 76 -241 21 -45 39 -85 39 -89 0 -4 -15 -4 -32 -1 -18
4 -44 9 -57 12 -54 11 -149 49 -196 79 -165 104 -183 258 -59 484 42 76 83
131 133 181 45 44 106 91 123 94 7 2 20 6 28 9 39 15 96 17 161 4z m-5057 -21
c59 -10 185 -55 246 -89 30 -17 64 -35 75 -41 40 -22 66 -57 59 -79 -22 -72
-128 -173 -292 -281 -75 -49 -232 -129 -239 -122 -3 2 0 21 6 42 9 38 21 114
25 164 2 20 7 25 27 23 154 -14 190 -9 214 27 14 22 13 31 -6 71 -22 44 -69
85 -129 113 -54 24 -187 28 -241 6 -108 -43 -128 -87 -144 -324 -2 -38 -6 -71
-9 -73 -2 -2 -11 15 -21 39 -99 243 -12 461 205 516 79 20 137 22 224 8z
m-646 -25 c17 -5 32 -7 32 -4 0 3 7 0 15 -7 8 -7 12 -17 8 -23 -3 -6 -7 -23
-8 -39 -2 -15 -8 -35 -15 -43 -38 -46 -241 25 -321 111 l-24 27 140 -6 c77 -4
155 -11 173 -16z m4615 3 c118 -31 205 -114 236 -226 18 -64 7 -194 -23 -283
-27 -81 -32 -74 -41 55 -12 191 -40 246 -136 273 -81 22 -222 17 -275 -11 -76
-41 -129 -114 -117 -161 12 -47 72 -61 202 -48 27 2 41 -27 43 -98 1 -22 5
-42 8 -45 4 -3 10 -22 14 -42 l7 -38 -58 32 c-300 163 -499 333 -480 409 11
41 197 138 347 180 74 21 198 22 273 3z m721 4 c-45 -73 -261 -166 -312 -134
-15 9 -42 71 -42 97 0 25 7 28 101 34 46 3 85 7 86 9 2 2 42 4 89 5 68 2 84
-1 78 -11z m-4192 -516 c-79 -137 -108 -193 -110 -212 0 -3 -5 -17 -11 -31 -5
-15 -13 -47 -16 -70 -9 -64 -30 -135 -60 -207 -14 -34 -28 -79 -31 -100 -4
-38 -5 -193 0 -320 3 -76 -12 -123 -96 -312 -14 -30 -25 -57 -25 -60 0 -3 -11
-23 -25 -45 -41 -66 -146 -281 -159 -327 -7 -24 -16 -45 -19 -48 -6 -6 -50
-174 -55 -215 -2 -16 -4 -30 -5 -30 -1 0 -3 -11 -5 -25 -1 -14 -6 -56 -10 -95
-10 -89 -10 -199 -2 -295 19 -198 19 -207 2 -183 -28 39 -104 197 -139 289
-48 125 -72 224 -92 379 -9 73 -3 277 10 351 31 168 112 391 189 519 53 89
174 268 237 350 78 103 110 150 110 160 0 20 -271 -196 -365 -291 -142 -142
-204 -222 -260 -334 -38 -76 -85 -207 -77 -216 4 -4 1 -5 -7 -2 -8 2 -15 13
-17 24 -1 10 -8 46 -16 79 -13 63 -17 313 -6 377 24 131 93 289 168 382 43 53
111 118 117 112 4 -4 1 -11 -7 -16 -8 -6 -12 -10 -7 -10 4 0 1 -12 -7 -27 -18
-37 -38 -135 -29 -142 5 -4 7 -4 5 -2 -4 8 69 134 116 201 69 97 226 249 386
375 21 17 50 40 64 52 61 52 330 155 341 130 1 -4 -38 -79 -87 -165z m2768
138 c129 -45 224 -90 261 -123 13 -12 58 -51 99 -87 125 -109 200 -182 256
-250 72 -87 81 -100 119 -180 48 -102 46 -99 41 -60 -8 53 -12 70 -36 130
l-21 54 23 -19 c151 -127 246 -309 284 -545 5 -31 5 -213 0 -260 -5 -51 -15
-111 -24 -144 -8 -28 -9 -27 -31 35 -40 113 -122 257 -189 331 -17 18 -40 44
-52 58 -97 113 -256 253 -422 372 -28 20 -39 10 -15 -14 7 -7 65 -85 130 -173
64 -88 121 -165 127 -172 5 -7 10 -15 10 -19 0 -3 8 -18 18 -32 49 -71 166
-314 176 -367 2 -11 9 -32 15 -48 6 -15 13 -38 15 -50 2 -12 9 -41 16 -65 6
-24 13 -58 15 -75 2 -18 6 -43 9 -57 7 -30 9 -245 2 -280 -2 -14 -7 -47 -11
-75 -9 -73 -23 -128 -62 -245 -37 -109 -129 -310 -158 -345 -9 -11 -14 -15
-10 -8 3 7 7 43 10 80 2 37 7 95 11 128 16 128 3 358 -27 469 -6 22 -13 52
-16 65 -2 14 -6 28 -9 33 -3 4 -7 16 -9 25 -15 78 -89 239 -186 411 -33 57
-59 105 -59 107 0 2 -13 32 -29 67 -59 130 -64 158 -57 307 10 182 8 296 -4
296 -1 0 -3 9 -5 20 -1 11 -17 50 -34 87 -23 47 -34 87 -37 131 -2 35 -15 95
-27 133 -25 77 -128 256 -188 329 -33 40 -47 65 -36 65 1 0 54 -18 117 -40z
m-702 -536 c79 -22 86 -34 18 -28 -62 6 -146 37 -146 54 0 6 6 19 12 30 12 19
13 19 36 -10 16 -21 41 -35 80 -46z m-1594 49 c9 -28 48 -69 84 -87 59 -31
158 -9 204 45 21 24 22 24 42 -6 17 -25 17 -26 -21 -42 -48 -21 -55 -22 -126
-27 -72 -4 -197 31 -197 56 0 4 -6 8 -12 8 -7 0 -21 11 -31 25 -16 23 -16 24
0 34 27 16 51 13 57 -6z m1848 3 c16 -12 16 -13 0 -27 -10 -8 -39 -21 -65 -30
-44 -16 -47 -16 -35 0 7 9 16 18 19 21 3 3 11 15 18 28 13 25 37 28 63 8z
m1920 -145 c-69 -124 -147 -172 -267 -164 -54 3 -138 28 -168 49 -17 11 -12
14 40 24 32 6 83 18 113 27 30 9 61 16 68 16 6 0 12 4 12 8 0 4 15 10 33 13
17 4 66 24 107 44 41 21 78 36 82 34 4 -1 -5 -25 -20 -51z m-5587 -33 c58 -23
184 -50 241 -51 55 -2 62 -4 47 -15 -31 -23 -124 -44 -200 -47 -80 -2 -122 13
-176 63 -26 25 -77 105 -77 122 0 4 33 -9 73 -28 39 -20 81 -39 92 -44z m-275
0 c43 -59 129 -148 307 -319 75 -72 105 -132 104 -211 0 -49 -35 -171 -55
-191 -7 -7 -16 -22 -20 -32 -3 -11 -20 -36 -36 -55 l-31 -35 17 40 c58 141 15
314 -110 447 -73 77 -147 203 -191 325 -26 70 -21 79 15 31z m5979 -80 c-50
-115 -102 -196 -174 -272 -53 -56 -107 -148 -122 -211 -10 -42 -11 -158 -1
-192 16 -58 17 -73 7 -73 -5 0 -9 6 -9 13 0 7 -10 28 -23 47 -73 110 -100 231
-72 326 13 47 27 67 72 108 30 28 96 92 147 142 79 78 110 113 186 205 29 36
23 -15 -11 -93z m-8113 -445 c1 -44 5 -83 19 -183 2 -19 13 -68 23 -107 10
-40 16 -73 12 -73 -3 0 -15 7 -27 15 -25 18 -46 59 -64 125 -12 48 -6 171 10
212 5 12 12 31 15 41 9 27 11 21 12 -30z m10299 -114 c4 -88 -7 -146 -38 -194
-21 -33 -52 -53 -63 -42 -3 3 2 19 10 36 9 17 16 33 17 36 0 2 7 24 15 47 9
24 17 86 19 138 6 154 5 150 21 100 8 -25 16 -79 19 -121z m-3690 -23 c3 -48
8 -92 11 -98 4 -6 8 -30 10 -52 5 -96 15 -202 19 -216 2 -8 7 -42 10 -75 3
-33 7 -76 9 -95 28 -230 25 -584 -4 -660 -1 -3 -2 -8 -1 -12 1 -12 -46 -152
-69 -203 -51 -115 -176 -264 -271 -323 -19 -11 -43 -29 -55 -39 -11 -10 -31
-24 -45 -32 -13 -8 -35 -21 -49 -30 -16 -11 -9 3 25 44 104 128 174 256 190
347 3 17 8 34 10 38 9 14 19 139 19 230 0 116 -10 215 -28 289 -12 47 -29 126
-51 241 -30 152 -19 333 26 455 18 48 70 148 85 163 8 7 14 17 14 21 0 4 26
33 57 64 72 72 81 66 88 -57z m-2876 52 c172 -170 245 -445 188 -713 -2 -11
-8 -38 -12 -60 -5 -22 -9 -44 -11 -50 -22 -87 -42 -197 -49 -275 -15 -156 -6
-298 26 -420 31 -117 83 -210 185 -336 34 -41 39 -52 22 -43 -57 30 -217 150
-273 204 -27 26 -97 126 -125 180 -45 85 -80 196 -97 300 -10 64 -9 361 1 490
13 149 13 155 20 225 12 118 16 164 21 240 3 41 7 91 10 110 3 19 8 51 10 70
20 142 19 142 84 78z m4012 -415 c104 -180 212 -310 308 -371 14 -9 28 -19 31
-22 8 -9 252 -169 264 -173 6 -2 8 -8 4 -12 -4 -4 -53 5 -110 20 -57 15 -110
28 -118 29 -28 4 -115 40 -168 69 -64 35 -143 115 -171 171 -30 63 -57 128
-66 161 -5 17 -9 32 -10 35 -6 24 -17 76 -20 93 -1 12 -6 41 -9 65 -4 23 -5
42 -2 42 2 0 32 -48 67 -107z m-5156 65 c-2 -13 -6 -48 -9 -78 -8 -73 -14
-104 -26 -135 -5 -14 -7 -25 -4 -25 3 0 -12 -32 -32 -71 -65 -123 -158 -208
-284 -257 -48 -19 -210 -65 -279 -78 -14 -3 -29 -7 -35 -10 -6 -3 2 6 19 20
25 21 56 41 170 109 11 7 22 14 25 17 3 3 30 22 60 43 117 80 197 172 300 347
54 93 87 140 96 140 1 0 1 -10 -1 -22z m-2334 -136 c29 -11 59 -20 64 -21 19
-3 50 -11 155 -36 58 -14 116 -28 129 -31 25 -5 101 -42 101 -48 0 -3 2 -11 5
-18 9 -22 -27 -56 -75 -73 -51 -18 -76 -23 -156 -30 -53 -5 -109 -14 -184 -29
-36 -8 -71 -26 -102 -54 l-26 -24 -18 33 c-42 82 -50 215 -19 311 23 71 23 70
49 53 12 -8 47 -23 77 -33z m9876 12 c-3 -3 -1 -18 5 -33 32 -82 15 -245 -34
-314 -18 -25 -22 -27 -37 -13 -21 19 -97 53 -136 60 -36 7 -138 20 -245 30
-34 4 -139 49 -144 62 -14 36 84 85 239 119 6 2 37 8 70 16 33 7 62 13 65 14
3 1 20 5 38 9 18 4 59 18 90 31 53 22 103 33 89 19z m-6004 -310 c15 -90 73
-281 122 -399 101 -243 217 -400 445 -595 114 -98 207 -190 236 -233 16 -23
32 -44 35 -47 14 -12 69 -140 87 -205 21 -74 28 -108 37 -190 l6 -50 -37 50
c-46 63 -182 195 -199 195 -2 0 -24 14 -49 31 -25 16 -94 53 -153 80 -60 28
-129 66 -156 85 -26 19 -51 34 -56 34 -5 0 -11 3 -13 8 -1 4 -30 30 -63 57
-82 69 -167 157 -230 240 -91 119 -123 230 -122 421 0 68 3 124 6 124 3 0 7
17 8 38 2 29 34 206 47 257 2 6 7 33 11 60 5 28 10 53 11 58 1 4 2 17 3 30 2
22 2 22 11 1 5 -12 11 -34 13 -50z m2052 -99 c6 -41 14 -85 21 -115 4 -14 8
-34 9 -45 1 -11 5 -39 8 -62 15 -96 18 -125 18 -205 3 -246 -78 -421 -279
-609 -98 -91 -219 -172 -352 -236 -167 -80 -295 -176 -357 -267 -15 -22 -33
-45 -39 -51 -7 -5 -14 -17 -17 -25 -5 -14 -9 8 -10 55 0 34 13 128 24 170 12
44 69 187 78 195 3 3 19 24 35 47 35 52 117 136 216 223 102 89 202 182 216
200 7 8 24 29 38 45 15 17 34 42 44 58 9 15 20 27 24 27 4 0 8 7 8 15 0 8 3
15 8 15 4 0 12 10 18 23 6 12 31 60 55 107 24 47 52 103 61 125 35 83 109 325
122 398 12 72 20 74 33 7 7 -36 15 -78 18 -95z m-995 28 c8 -3 48 -28 88 -55
40 -26 77 -48 82 -48 6 0 10 -4 10 -9 0 -17 135 -60 210 -67 8 0 49 -2 90 -3
l76 -1 -7 -83 c-4 -45 -17 -104 -28 -130 -23 -53 -95 -126 -156 -159 -22 -11
-89 -46 -148 -76 -135 -70 -193 -128 -259 -264 -10 -21 -24 -38 -31 -38 -6 0
-23 25 -36 55 -13 30 -27 55 -32 55 -5 0 -9 6 -9 14 0 26 -100 100 -218 163
-64 34 -140 80 -169 102 -88 68 -132 158 -136 279 -2 71 -7 67 93 77 36 4 74
9 85 12 11 2 34 6 52 9 70 9 163 53 272 127 108 74 114 77 135 62 11 -8 28
-18 36 -22z m-2584 -55 c-20 -167 -29 -667 -14 -754 7 -38 5 -43 -17 -58 -58
-38 -182 -60 -345 -60 -103 0 -170 5 -200 14 -25 7 -49 13 -53 12 -14 -4 -155
65 -194 95 -37 28 -84 76 -79 81 2 1 22 -5 46 -13 24 -8 52 -17 64 -20 12 -2
32 -7 46 -10 106 -25 189 -35 196 -24 2 4 11 6 19 3 18 -7 106 13 160 37 49
22 120 72 151 108 46 51 111 209 130 317 3 15 19 77 35 138 17 61 32 116 33
123 1 7 5 16 9 19 4 4 7 16 7 26 0 10 3 18 6 18 4 0 3 -24 0 -52z m5081 -18
c14 -41 53 -196 57 -225 2 -11 9 -40 16 -65 7 -25 13 -52 15 -60 10 -50 59
-180 81 -213 54 -82 128 -130 249 -164 46 -12 204 -10 275 4 89 17 88 17 120
30 14 6 40 14 58 18 31 6 33 6 23 -13 -6 -10 -26 -32 -46 -48 -20 -16 -42 -34
-48 -39 -14 -12 -107 -58 -152 -74 -68 -25 -192 -40 -310 -36 -66 2 -131 6
-145 8 -70 13 -145 42 -174 68 -32 28 -33 30 -24 81 9 52 17 436 9 443 -2 2
-5 44 -7 92 -3 94 -11 183 -19 222 -6 33 8 14 22 -29z m1817 -162 c10 -28 19
-80 21 -115 11 -226 -190 -489 -490 -643 -102 -53 -102 -53 -2 33 253 215 434
525 437 750 0 42 13 32 34 -25z m-8699 1 c12 -97 17 -121 36 -180 30 -91 78
-181 149 -281 83 -117 269 -306 352 -358 49 -32 1 -16 -87 27 -182 91 -338
224 -430 367 -67 105 -80 151 -79 276 0 78 5 104 23 143 13 26 26 46 28 43 2
-2 6 -19 8 -37z m2016 -66 c0 -10 2 -25 4 -33 2 -8 6 -24 8 -35 12 -53 29
-112 36 -130 5 -11 17 -42 26 -70 90 -259 356 -547 625 -679 47 -22 87 -44 88
-48 2 -5 10 -8 18 -8 8 0 14 -4 14 -9 0 -18 -145 -22 -226 -7 -122 23 -273 91
-349 158 -131 115 -256 354 -270 514 -1 11 -4 24 -7 30 -8 13 -3 240 7 292 8
42 24 58 26 25z m4645 -63 c16 -110 8 -303 -13 -360 -4 -8 -5 -19 -4 -24 1 -4
-4 -14 -10 -22 -6 -8 -9 -14 -5 -14 3 0 -6 -26 -20 -57 -13 -32 -30 -70 -37
-85 -6 -16 -15 -28 -19 -28 -5 0 -8 -6 -8 -13 0 -24 -127 -173 -181 -212 -30
-22 -57 -44 -61 -50 -4 -5 -8 -7 -8 -3 0 4 -15 0 -32 -10 -37 -20 -108 -47
-153 -57 -92 -21 -269 -25 -288 -6 -8 8 -5 11 10 11 12 0 24 3 26 8 3 4 44 27
92 52 47 25 123 75 168 112 45 38 86 68 92 68 29 0 275 282 275 316 0 4 6 15
13 23 15 18 68 142 91 213 16 50 18 56 38 155 10 53 14 59 21 40 5 -12 11 -38
13 -57z"/>
<path d="M1360 5380 c-8 -4 -34 -14 -57 -21 -79 -23 -98 -49 -148 -203 -25
-77 -44 -140 -42 -141 5 -5 134 -17 197 -19 36 -1 84 3 108 10 23 7 42 10 42
8 0 -6 51 26 77 49 45 40 -12 74 -104 62 -68 -8 -66 -8 -118 -1 -50 8 -85 43
-78 80 3 14 9 26 14 26 5 0 9 7 9 16 0 8 27 42 60 76 67 67 74 78 40 58z"/>
<path d="M9330 5367 c0 -3 20 -27 45 -53 51 -53 84 -117 77 -152 -9 -48 -103
-74 -209 -58 -31 5 -52 2 -78 -12 l-36 -18 23 -24 c20 -22 64 -48 93 -56 48
-13 67 -16 115 -16 56 0 140 8 197 18 l32 6 -16 31 c-22 43 -63 165 -69 207
-3 23 -16 45 -37 63 -47 41 -50 43 -79 50 -14 4 -33 10 -42 13 -9 3 -16 4 -16
1z"/>
<path d="M9637 4972 c6 -25 97 -88 211 -147 103 -54 132 -67 132 -60 0 5 -86
90 -115 113 -28 23 -183 103 -209 108 -19 3 -23 1 -19 -14z"/>
<path d="M984 4962 c-29 -10 -77 -33 -108 -52 -57 -35 -180 -151 -155 -146 21
3 168 76 214 105 82 52 142 111 113 111 -7 -1 -36 -9 -64 -18z"/>
</g>
</svg>
