<svg width="11" height="5" viewBox="0 0 11 5" fill="none" xmlns="http://www.w3.org/2000/svg">
<path d="M10.0019 0.829615C10.0023 0.936345 9.97872 1.0418 9.93299 1.13823C9.88726 1.23466 9.82051 1.31962 9.73764 1.38686L5.45233 4.83748C5.32454 4.94256 5.16424 5 4.99881 5C4.83337 5 4.67307 4.94256 4.54528 4.83748L0.259966 1.26541C0.114111 1.14414 0.0223876 0.969891 0.00497516 0.780981C-0.0124373 0.592072 0.0458871 0.40398 0.167118 0.258084C0.288348 0.112189 0.462554 0.020441 0.651412 0.0030236C0.84027 -0.0143934 1.02831 0.0439467 1.17417 0.16521L5.00238 3.35864L8.83059 0.272372C8.93542 0.185011 9.06308 0.129518 9.19846 0.112458C9.33384 0.0953985 9.47127 0.117486 9.5945 0.176107C9.71772 0.234729 9.82157 0.327432 9.89377 0.443245C9.96597 0.55906 10.0035 0.693138 10.0019 0.829615Z" fill="white"/>
</svg>
