<svg width="419" height="62" viewBox="0 0 419 62" fill="none" xmlns="http://www.w3.org/2000/svg">
<path d="M242.243 0L216.025 59.8953H221.642L230.822 38.899H253.677L262.92 59.8953H268.466L242.243 0ZM242.212 12.8458L251.443 33.8143H233.047L242.212 12.8458ZM337.605 59.8822H342.678V1.2433H337.605V59.8822ZM178.391 27.1294L151.639 0.129411L151.668 59.8822H156.747V12.5175L178.334 34.3959L200.324 12.4056V59.8822H205.397V0.0944778L178.391 27.1294ZM363.452 8.37121V59.8826H368.53V14.4198L407.766 61.1386V1.2433H402.687V46.9189L363.452 0.254058V8.37121ZM284.636 6.37923H304.137V6.39114C309.827 6.39114 314.447 10.961 314.558 16.634V17.6026C314.447 23.2745 309.827 27.8428 304.137 27.8428V27.8626H284.637L284.636 6.37923ZM316.345 59.906L322.08 59.9044L308.04 32.4535C314.338 30.8208 319.083 25.3423 319.622 18.6609H319.637V18.3374C319.657 18.025 319.686 17.713 319.686 17.3934H319.637V16.8448H319.686C319.686 16.5241 319.658 16.2133 319.637 15.8981V15.8822C319.139 7.73169 312.4 1.27585 304.138 1.27585H279.558V59.8981H284.637V32.9473H302.548L316.345 59.906ZM36.2565 44.0207H36.2089C36.2089 49.9823 31.3831 54.8122 25.4285 54.8122V54.8162H5.07785V32.9811L26.1337 33.0624V33.0783C29.7976 33.0783 32.9834 34.8639 34.8429 37.7574C35.6246 39.3929 36.2093 41.0426 36.2093 42.985L36.2568 42.989L36.2565 44.0207ZM24.5742 6.37923V6.39114C30.2756 6.39114 34.9028 10.9733 35.0023 16.659V17.576C34.9032 23.2606 30.2756 27.8832 24.5742 27.8832H5.07785V6.37884L24.5742 6.37923ZM41.299 42.6063C41.2265 39.7648 40.5145 37.2246 39.1161 34.9603C37.7794 32.8163 35.9754 31.0979 33.8472 29.8879C37.3291 27.2818 39.6924 23.2526 40.0615 18.6609H40.0781V18.3374C40.0979 18.025 40.1257 17.7126 40.1257 17.3934H40.0781V16.8444H40.1257C40.1257 16.5237 40.0975 16.2133 40.0781 15.8977V15.8818H40.0769C39.5775 7.73169 32.8387 1.27148 24.5738 1.27148V1.2953L0 1.26354V59.9001H25.5153V59.8921C34.146 59.8445 41.1381 52.9111 41.3117 44.2997H41.3327V42.6083L41.299 42.6063ZM108.721 55.7165C96.1413 55.7165 85.7216 46.4596 83.8883 34.3728H83.8574C83.6709 33.1446 83.5779 31.9039 83.5791 30.6616C83.5791 29.5557 83.641 28.5192 83.7793 27.4506H83.7975C85.3288 15.0247 95.9007 5.4027 108.721 5.4027C121.543 5.4027 132.102 14.9731 133.632 27.3974C133.775 28.4842 133.836 29.5386 133.836 30.6616C133.836 31.9529 133.743 33.1768 133.554 34.4133C131.719 46.5005 121.301 55.7165 108.721 55.7165ZM78.7019 34.3728C80.5756 49.3106 93.2956 60.8703 108.721 60.8703C124.148 60.8703 136.877 49.2987 138.752 34.3601C138.903 33.133 138.98 31.8979 138.983 30.6616C138.983 29.5136 138.936 28.4743 138.812 27.3553C137.256 12.0769 124.389 0.252073 108.721 0.252073C93.0875 0.252073 80.2276 12.1261 78.6261 27.3553H78.6039C78.4795 28.4743 78.4335 29.5136 78.4335 30.662C78.4335 31.9109 78.5187 33.1518 78.6658 34.3601L78.7019 34.3728ZM413.979 4.9319C414.63 4.9319 415.581 5.04106 415.581 4.107C415.581 3.39127 414.998 3.30474 414.435 3.30474H413.122V4.9319H413.979ZM416.136 7.49629H415.464L414.154 5.37848H413.122V7.4959H412.558V2.90182H414.566C415.781 2.90182 416.188 3.35833 416.188 4.11852C416.188 5.01923 415.56 5.35665 414.749 5.37888L416.136 7.49629ZM417.535 5.19389C417.535 3.19557 416.083 1.63272 414.088 1.63272C412.082 1.63272 410.617 3.19557 410.617 5.1935C410.617 7.21326 412.082 8.7773 414.088 8.7773C416.083 8.7773 417.535 7.21326 417.535 5.19389ZM409.965 5.19389C409.965 2.93516 411.809 1.08768 414.088 1.08768C416.352 1.08768 418.188 2.93476 418.188 5.19389C418.188 7.47367 416.352 9.32075 414.088 9.32075C411.809 9.32075 409.965 7.47367 409.965 5.19389Z" fill="white"/>
<path fill-rule="evenodd" clip-rule="evenodd" d="M56.3613 1.48718L55.2288 2.1382L54.2347 2.89442L53.9255 3.58196L53.5132 4.1659L53.4165 4.37629L53.3828 4.58589L53.4458 4.81851L53.8232 5.84943L54.4749 6.26227L55.2284 7.12091L55.7782 7.63617L56.5671 8.01408L57.3571 8.25504H58.4547L59.1762 8.39239L59.9638 8.46106L61.0277 8.52974L62.0556 8.59841L63.3252 8.496L64.2873 8.22011L65.4539 7.73819L65.9696 7.15584L66.5515 6.60525L67.0323 5.84903L66.9959 5.05907L66.7917 3.92494L65.557 2.1382L64.4593 1.31331L63.9183 1.04734L63.5111 0.887759L63.1211 0.832978L61.8514 0.936586L60.583 0.727782L59.9634 0.626953L59.1762 0.797648L58.1455 0.936189L57.4938 1.17556L56.3613 1.48718Z" fill="#F15029"/>
<path fill-rule="evenodd" clip-rule="evenodd" d="M54.7707 20.2819L60.8776 20.4204L61.7893 20.2299L62.9638 20.2061L64.1344 20.3279L65.029 20.58L65.7132 21.0516L65.9618 21.364L66.1203 21.707L66.1592 22.0726L66.0541 22.4422L65.7786 22.809L65.3117 23.1563L64.6013 23.2964L63.3622 23.2996L60.0118 23.0463L54.8908 22.4636L54.6965 22.3783L54.5816 22.1766L54.5312 21.5494L54.7707 20.2819Z" fill="#ED192E"/>
<path fill-rule="evenodd" clip-rule="evenodd" d="M55.6293 29.2136L56.5549 29.5721L57.0222 29.74L57.4808 29.7281L61.6311 29.5403L63.2952 29.6844L64.6001 30.0052L65.1844 30.1608L65.5202 30.2981L65.7941 30.5026L66.0878 31.021L66.1354 31.5291L66.0109 31.9578L65.7846 32.2365V32.5152L61.7263 32.5072L60.367 32.5231L59.026 32.4056L57.6751 32.1674L56.478 31.9741L55.6039 31.8411L55.2642 31.7474L55.0279 31.5263L54.6854 30.8118L54.5312 30.0405L55.6293 29.2168V29.2136ZM56.4514 25.9192L56.9758 26.2455L57.3167 26.444L57.6878 26.5452L57.9573 26.4904L58.2637 26.338L58.5785 26.1867L58.8789 26.1252L59.4149 26.3142L59.9853 26.5103L60.4633 26.3646L60.9473 26.2189L61.5249 26.4333L61.8032 26.5452H62.0786L63.8573 26.3031L65.2193 26.5214L65.3077 26.5789L65.3394 26.6476L65.3021 26.8155L65.2419 26.9962L65.2966 27.1728L65.6347 27.3729L66.018 27.5229L66.1703 27.6377L66.2709 27.8072L66.2991 28.0549L66.2305 28.4002L66.1049 28.5729L65.8658 28.7059L65.0925 28.8726L62.6633 28.9679L59.1786 28.5126L56.1509 27.9552L55.7062 27.7675L55.3665 27.3725L55.154 26.8961L55.0799 26.4678L56.4514 25.9192Z" fill="#EC047C"/>
<path fill-rule="evenodd" clip-rule="evenodd" d="M55.6441 33.8879L57.4952 34.1289L58.1053 34.192L58.6436 34.1039L59.3528 34.0285L60.4726 34.121L62.0808 34.1448L63.706 34.0594L64.2538 34.0475L64.7378 34.242L65.577 34.9478L65.8509 35.2896L66.0158 35.7025L66.0566 36.1423L65.9532 36.5893L65.462 37.9699L65.1798 38.5749L64.7699 39.0608L64.542 39.166L64.2542 39.1858L63.5716 39.0572L62.8557 38.8639L62.2405 38.7869L61.8041 38.8988L61.4097 39.0878L61.0041 39.2601L60.5412 39.3117L59.2267 38.9671L58.4898 38.8579L57.6328 39.008L57.4005 39.0239L57.1892 38.9314L56.9783 38.8194L56.7417 38.7591L56.22 38.7432L56.0246 38.6857L55.9168 38.5626L55.3 37.5992L54.6206 36.8068L54.349 36.4456L54.2539 36.0184L54.4176 35.5155L54.7811 34.982L55.6441 33.8879Z" fill="#AA118E"/>
<path fill-rule="evenodd" clip-rule="evenodd" d="M58.0424 43.5103L58.7222 43.4746L59.4143 43.5417L63.3521 43.9307L64.4569 44.1006L65.5085 44.3904L65.9802 44.6802L66.3992 45.1129L66.7544 45.7333L67.0326 46.5733L67.24 48.002L67.1714 48.7146L66.9042 49.3743L66.5463 49.7987L66.0666 50.1615L64.7982 50.7145L61.449 51.1392L60.3985 51.0015L59.3667 50.7117L58.3543 50.4275L57.3574 50.3127L55.9561 50.1432L54.9116 49.6264L54.208 48.89L53.8306 48.054L53.7383 47.1172L53.9619 46.3189L54.4177 45.6563L55.0218 45.1145L56.3379 44.3876L57.2369 44.0752L57.4581 43.9633L57.6103 43.8045L57.7784 43.6409L58.0424 43.5103Z" fill="#3A3899"/>
<path fill-rule="evenodd" clip-rule="evenodd" d="M61.2655 53.1716L62.5538 53.2891L63.8976 53.7818L64.2892 54.1474L64.6103 54.4455L65.2917 54.5912L65.6064 54.6809L65.8189 54.8754L66.1614 56.4105L66.1895 57.3894L66.0329 58.196L65.7396 58.7097L65.3313 59.1511L64.2278 59.8526L62.8404 60.3162L61.2909 60.5516L59.6926 60.5754L58.1668 60.4059L56.8302 60.0526L55.8008 59.5306L55.4793 59.2242L55.2585 58.8613L54.9858 58.0376L54.8906 57.1206L55.0793 56.3223L55.4892 55.6415L56.0612 55.0691L57.441 54.2708L58.7266 53.9124L60.02 53.5218L61.2655 53.1716Z" fill="#062849"/>
</svg>
