<svg width="64" height="64" viewBox="0 0 64 64" fill="none" xmlns="http://www.w3.org/2000/svg">
<circle cx="32" cy="32" r="31.5" stroke="white"/>
<path d="M52.0706 32C52.0706 33.0997 51.5712 34.185 50.5918 35.2142C49.6099 36.2459 48.1654 37.1978 46.3423 38.0081C42.6972 39.6281 37.6266 40.6429 31.9992 40.6429C26.3717 40.6429 21.3011 39.6281 17.656 38.0081C15.8329 37.1978 14.3884 36.2459 13.4065 35.2142C12.4271 34.185 11.9277 33.0997 11.9277 32C11.9277 30.9004 12.4271 29.8151 13.4065 28.7859C14.3884 27.7542 15.8329 26.8023 17.656 25.992C21.3011 24.3719 26.3717 23.3572 31.9992 23.3572C37.6266 23.3572 42.6972 24.3719 46.3423 25.992C48.1654 26.8023 49.6099 27.7542 50.5918 28.7859C51.5712 29.8151 52.0706 30.9004 52.0706 32Z" stroke="white"/>
<circle cx="13.3332" cy="27.8096" r="4.45238" fill="#2B8DDD" stroke="white"/>
<circle cx="49.9055" cy="36.1904" r="4.45238" fill="#2B8DDD" stroke="white"/>
<circle cx="31.6203" cy="32.3808" r="4.95238" fill="white"/>
</svg>
