<svg width="75" height="61" viewBox="0 0 75 61" fill="none" xmlns="http://www.w3.org/2000/svg">
<path fill-rule="evenodd" clip-rule="evenodd" d="M33.9876 51.8098V60.8481C33.0058 60.9459 32.0025 61 30.9883 61C14.2766 61 0.650391 47.2963 0.650391 30.4999C0.650391 13.7039 14.2766 0 30.9883 0C32.0025 0 33.0058 0.0542488 33.9876 0.151901V9.19016C33.0058 9.04911 32.0025 8.97316 30.9883 8.97316C19.1964 8.97316 9.57268 18.6516 9.57268 30.4999C9.57268 42.3594 19.1964 52.027 30.9883 52.027C32.0025 52.027 33.0058 51.9507 33.9876 51.8098Z" fill="white"/>
<path fill-rule="evenodd" clip-rule="evenodd" d="M50.5113 25.8453H68.0322V35.1657H50.5113C52.6367 44.7897 61.2029 52.027 71.4092 52.027C72.4232 52.027 73.4373 51.9507 74.4192 51.8098V60.8481C73.4265 60.9459 72.4232 61 71.4092 61C54.6974 61 41.082 47.2963 41.082 30.4999C41.082 13.7039 54.6974 0 71.4092 0C72.4232 0 73.4265 0.0542488 74.4192 0.151901V9.19016C73.4265 9.04911 72.4232 8.97316 71.4092 8.97316C61.2029 8.97316 52.6367 16.2103 50.5113 25.8453Z" fill="white"/>
</svg>
