<svg width="532" height="532" viewBox="0 0 532 532" fill="none" xmlns="http://www.w3.org/2000/svg">
<circle cx="266" cy="260" r="181.5" stroke="white" stroke-width="15"/>
<path d="M385.91 412.09C366.768 427.802 344.741 439.586 321.091 446.792C317.698 447.826 314.172 445.782 313.254 442.356V442.356C312.336 438.929 314.373 435.419 317.764 434.377C339.648 427.649 360.032 416.712 377.76 402.161C397.146 386.249 412.91 366.382 423.999 343.888C435.087 321.393 441.245 296.791 442.06 271.725C442.875 246.659 438.329 221.708 428.725 198.541C419.121 175.374 404.68 154.524 386.37 137.387C368.059 120.25 346.3 107.22 322.549 99.1695C298.797 91.1186 273.6 88.2321 248.643 90.7031C225.819 92.9629 203.676 99.6561 183.451 110.385C180.317 112.047 176.394 111.008 174.618 107.937V107.937C172.843 104.866 173.888 100.927 177.018 99.2569C198.83 87.617 222.733 80.3597 247.378 77.9196C274.154 75.2684 301.189 78.3654 326.673 87.0034C352.156 95.6415 375.502 109.621 395.148 128.008C414.794 146.395 430.287 168.765 440.591 193.622C450.896 218.478 455.774 245.249 454.9 272.142C454.025 299.036 447.418 325.433 435.521 349.568C423.623 373.702 406.709 395.018 385.91 412.09Z" stroke="white" stroke-width="17"/>
<path d="M193.673 91.3868C214.624 82.7086 236.949 77.8784 259.578 77.1091C263.123 76.9886 266 79.8757 266 83.423V83.423C266 86.9703 263.123 89.8338 259.578 89.9631C238.637 90.727 217.981 95.2224 198.589 103.255C177.217 112.107 157.798 125.083 141.44 141.44C125.083 157.798 112.107 177.217 103.255 198.589C95.2224 217.981 90.727 238.637 89.9631 259.578C89.8338 263.123 86.9703 266 83.423 266V266C79.8757 266 76.9886 263.123 77.1091 259.578C77.8784 236.949 82.7086 214.624 91.3868 193.673C100.885 170.742 114.807 149.907 132.357 132.357C149.907 114.807 170.742 100.885 193.673 91.3868Z" stroke="#EB5757" stroke-width="20"/>
<path d="M305.359 94.2992C279.456 88.3615 252.544 88.3615 226.642 94.2992C223.184 95.0918 219.664 93.0705 218.746 89.644V89.644C217.828 86.2176 219.859 82.6844 223.315 81.8832C251.399 75.3721 280.602 75.3721 308.686 81.8832C312.141 82.6844 314.173 86.2176 313.255 89.6441V89.6441C312.337 93.0705 308.817 95.0918 305.359 94.2992Z" stroke="#EBA757" stroke-width="20"/>
<path d="M359.379 101.68C379.095 112.884 396.619 127.536 411.124 144.922C413.396 147.646 412.885 151.689 410.085 153.868V153.868C407.286 156.046 403.259 155.535 400.98 152.817C387.515 136.759 371.282 123.219 353.033 112.848C334.783 102.478 314.843 95.4606 294.157 92.1109C290.655 91.5439 288.155 88.3465 288.594 84.8264V84.8264C289.033 81.3064 292.245 78.7975 295.748 79.3558C318.108 82.9197 339.664 90.4755 359.379 101.68Z" stroke="#57D9EB" stroke-width="20"/>
<path d="M86.9173 326.418C76.9968 297.014 74.48 265.651 79.543 235.1C80.123 231.6 83.52 229.349 86.9979 230.047V230.047C90.4758 230.746 92.7166 234.13 92.1453 237.631C87.5211 265.969 89.8897 295.044 99.0892 322.312C108.974 351.611 126.397 377.792 149.607 398.223C172.817 418.654 200.996 432.616 231.312 438.705C259.526 444.372 288.667 443.034 316.189 434.853C319.59 433.842 323.231 435.636 324.365 438.997V438.997C325.499 442.358 323.696 446.013 320.299 447.032C290.637 455.929 259.208 457.41 228.782 451.299C196.256 444.766 166.022 429.786 141.119 407.865C116.216 385.944 97.5229 357.854 86.9173 326.418Z" stroke="#333333" stroke-width="24"/>
</svg>
