<svg width="43" height="43" viewBox="0 0 43 43" fill="none" xmlns="http://www.w3.org/2000/svg">
<path d="M23.6998 3.49841C22.7367 2.60032 21.5329 2.1765 20.0885 2.22694C18.5606 2.28029 17.2706 2.87116 16.2183 3.99956C15.1661 5.12795 14.6667 6.45606 14.72 7.98389L14.853 32.6977C14.8822 33.9344 15.223 35.0315 15.8753 35.9891C16.5276 36.9467 17.4118 37.6772 18.528 38.1806C19.6441 38.6839 20.89 38.9186 22.2655 38.8844C22.7234 38.8545 23.1867 38.7827 23.6556 38.669C24.1244 38.5553 24.5707 38.3937 24.9945 38.1842C25.4183 37.9747 25.8301 37.7205 26.2299 37.4214C26.6297 37.1224 26.9971 36.7932 27.3322 36.4338C28.7243 34.8833 29.3932 33.1286 29.3386 31.1697L29.2486 12.462C29.2532 12.1976 29.1655 11.9747 28.9853 11.7932C28.8052 11.6118 28.5865 11.5221 28.3293 11.5241C28.0721 11.5261 27.8494 11.6208 27.6613 11.8082C27.4731 11.9955 27.3767 12.2214 27.372 12.4858L27.4621 31.1936C27.5001 32.6802 26.9902 34.0052 25.9322 35.1686C24.8742 36.3319 23.6297 36.9316 22.1986 36.9677C21.2963 37.0131 20.4509 36.8966 19.6624 36.6182C18.8739 36.3398 18.1965 35.8559 17.63 35.1665C17.0636 34.477 16.7634 33.6462 16.7295 32.6739L16.5965 7.96008C16.5606 6.93226 16.8912 6.04462 17.5882 5.29715C18.2853 4.54968 19.1477 4.158 20.1755 4.12211C20.6477 4.10562 21.0846 4.17033 21.486 4.31623C21.8874 4.46214 22.2328 4.69691 22.5223 5.02056C23.1279 5.6391 23.4425 6.48335 23.466 7.55332L23.5478 27.2209C23.5527 27.3598 23.5506 27.499 23.5416 27.6383C23.5325 27.7777 23.5137 27.9348 23.485 28.1097C23.4563 28.2845 23.4066 28.4531 23.3358 28.6155C23.265 28.7779 23.1798 28.9269 23.0802 29.0625C22.9807 29.1981 22.8418 29.3037 22.6637 29.3795C22.4855 29.4552 22.2854 29.497 22.0631 29.5047C21.5219 29.5375 21.1354 29.4189 20.9034 29.1489C20.6571 28.8655 20.5156 28.3976 20.4789 27.7453L20.4207 12.9371C20.4149 12.7704 20.3713 12.6155 20.2898 12.4723C20.2083 12.3292 20.0931 12.215 19.9441 12.1298C19.7951 12.0446 19.6372 12.0049 19.4706 12.0107C19.2062 12.0061 18.9869 12.0972 18.8126 12.284C18.6384 12.4709 18.5489 12.6965 18.5442 12.9609L18.5823 27.7907C18.6355 28.9152 18.9371 29.7877 19.4872 30.4082C20.1236 31.1091 20.9974 31.4402 22.1085 31.4014C23.1507 31.3789 23.9746 30.9781 24.5801 30.1991C25.1856 29.42 25.467 28.4194 25.4244 27.1971L25.3626 7.50794C25.3083 5.95233 24.812 4.68333 23.8738 3.70093C23.845 3.67412 23.816 3.64037 23.7868 3.59967C23.7576 3.55897 23.7286 3.52522 23.6998 3.49841Z" fill="white"/>
</svg>
