<svg width="35" height="35" viewBox="0 0 35 35" fill="none" xmlns="http://www.w3.org/2000/svg">
<path d="M5 0.5H13C15.4853 0.5 17.5 2.51472 17.5 5V13C17.5 15.4853 15.4853 17.5 13 17.5H5C2.51472 17.5 0.5 15.4853 0.5 13V5C0.5 2.51472 2.51472 0.5 5 0.5Z" stroke="white"/>
<path d="M5 17.5H13C15.4853 17.5 17.5 19.5147 17.5 22V30C17.5 32.4853 15.4853 34.5 13 34.5H5C2.51472 34.5 0.5 32.4853 0.5 30V22C0.5 19.5147 2.51472 17.5 5 17.5Z" stroke="white"/>
<path d="M22 0.5H30C32.4853 0.5 34.5 2.51472 34.5 5V13C34.5 15.4853 32.4853 17.5 30 17.5H22C19.5147 17.5 17.5 15.4853 17.5 13V5C17.5 2.51472 19.5147 0.5 22 0.5Z" stroke="white"/>
<path d="M22 17.5H30C32.4853 17.5 34.5 19.5147 34.5 22V30C34.5 32.4853 32.4853 34.5 30 34.5H22C19.5147 34.5 17.5 32.4853 17.5 30V22C17.5 19.5147 19.5147 17.5 22 17.5Z" stroke="white"/>
<path d="M22 17.5C22 19.9853 19.9853 22 17.5 22C15.0147 22 13 19.9853 13 17.5C13 15.0147 15.0147 13 17.5 13C19.9853 13 22 15.0147 22 17.5Z" fill="#2BA8DD"/>
</svg>
