<svg width="35" height="35" viewBox="0 0 35 35" fill="none" xmlns="http://www.w3.org/2000/svg">
<path d="M8.35352 7.64648L18.3536 17.6464" stroke="white"/>
<path d="M26.6465 26.3535L16.6465 16.3535" stroke="white"/>
<path d="M26.6465 7.64648L16.6465 17.6465" stroke="white"/>
<path d="M8.35352 26.3535L18.3535 16.3535" stroke="white"/>
<path d="M22 17.5C22 19.9853 19.9853 22 17.5 22C15.0147 22 13 19.9853 13 17.5C13 15.0147 15.0147 13 17.5 13C19.9853 13 22 15.0147 22 17.5Z" fill="#2BA8DD"/>
<path d="M5 34.5C7.48528 34.5 9.5 32.4853 9.5 30C9.5 27.5147 7.48528 25.5 5 25.5C2.51472 25.5 0.5 27.5147 0.5 30C0.5 32.4853 2.51472 34.5 5 34.5Z" stroke="white"/>
<path d="M30 9.5C32.4853 9.5 34.5 7.48528 34.5 5C34.5 2.51472 32.4853 0.5 30 0.5C27.5147 0.5 25.5 2.51472 25.5 5C25.5 7.48528 27.5147 9.5 30 9.5Z" stroke="white"/>
<path d="M30 34.5C32.4853 34.5 34.5 32.4853 34.5 30C34.5 27.5147 32.4853 25.5 30 25.5C27.5147 25.5 25.5 27.5147 25.5 30C25.5 32.4853 27.5147 34.5 30 34.5Z" stroke="white"/>
<path d="M5 9.5C7.48528 9.5 9.5 7.48528 9.5 5C9.5 2.51472 7.48528 0.5 5 0.5C2.51472 0.5 0.5 2.51472 0.5 5C0.5 7.48528 2.51472 9.5 5 9.5Z" stroke="white"/>
<path d="M30 0.5H5C2.51472 0.5 0.5 2.51472 0.5 5V30C0.5 32.4853 2.51472 34.5 5 34.5H30C32.4853 34.5 34.5 32.4853 34.5 30V5C34.5 2.51472 32.4853 0.5 30 0.5Z" stroke="white"/>
</svg>
