<svg width="35" height="35" viewBox="0 0 35 35" fill="none" xmlns="http://www.w3.org/2000/svg">
<path d="M22 0.5H30C32.4853 0.5 34.5 2.51472 34.5 5V13C34.5 15.4853 32.4853 17.5 30 17.5H22C19.5147 17.5 17.5 15.4853 17.5 13V5C17.5 2.51472 19.5147 0.5 22 0.5Z" stroke="white"/>
<path d="M32 9C32 12.3137 29.3137 15 26 15C22.6863 15 20 12.3137 20 9C20 5.68629 22.6863 3 26 3C29.3137 3 32 5.68629 32 9Z" fill="#2BA8DD"/>
<path d="M17.5 24C17.5 27.5899 14.5899 30.5 11 30.5C7.41015 30.5 4.5 27.5899 4.5 24C4.5 20.4101 7.41015 17.5 11 17.5C14.5899 17.5 17.5 20.4101 17.5 24Z" stroke="white"/>
<path d="M30 0.5H5C2.51472 0.5 0.5 2.51472 0.5 5V30C0.5 32.4853 2.51472 34.5 5 34.5H30C32.4853 34.5 34.5 32.4853 34.5 30V5C34.5 2.51472 32.4853 0.5 30 0.5Z" stroke="white"/>
</svg>
