<svg width="64" height="64" viewBox="0 0 64 64" fill="none" xmlns="http://www.w3.org/2000/svg">
<circle cx="32" cy="32" r="31.5" stroke="white"/>
<path d="M52.0725 32C52.0725 33.0997 51.5732 34.185 50.5937 35.2142C49.6119 36.2459 48.1674 37.1978 46.3442 38.0081C42.6992 39.6281 37.6285 40.6429 32.0011 40.6429C26.3737 40.6429 21.303 39.6281 17.658 38.0081C15.8348 37.1978 14.3904 36.2459 13.4085 35.2142C12.4291 34.185 11.9297 33.0997 11.9297 32C11.9297 30.9004 12.4291 29.8151 13.4085 28.7859C14.3904 27.7542 15.8348 26.8023 17.658 25.992C21.303 24.3719 26.3737 23.3572 32.0011 23.3572C37.6285 23.3572 42.6992 24.3719 46.3442 25.992C48.1674 26.8023 49.6119 27.7542 50.5937 28.7859C51.5732 29.8151 52.0725 30.9004 52.0725 32Z" stroke="white"/>
<circle cx="13.3332" cy="27.8096" r="4.45238" fill="#2BDD88" stroke="white"/>
<circle cx="49.9055" cy="36.1904" r="4.45238" fill="#2BDD88" stroke="white"/>
<circle cx="31.6203" cy="32.3808" r="4.95238" fill="white"/>
</svg>
