<svg width="64" height="64" viewBox="0 0 64 64" fill="none" xmlns="http://www.w3.org/2000/svg">
<circle cx="32" cy="32" r="31.5" transform="rotate(90 32 32)" stroke="white"/>
<mask id="path-2-inside-1" fill="white">
<path d="M48 31.6192C48 27.2747 46.2742 23.1082 43.2021 20.0362C40.1301 16.9641 35.9635 15.2383 31.619 15.2383C27.2745 15.2383 23.108 16.9641 20.036 20.0361C16.9639 23.1082 15.2381 27.2747 15.2381 31.6192L15.9208 31.6192C15.9208 27.4558 17.5747 23.4629 20.5187 20.5189C23.4627 17.5749 27.4556 15.9209 31.619 15.9209C35.7825 15.9209 39.7754 17.5749 42.7194 20.5189C45.6634 23.4629 47.3173 27.4558 47.3173 31.6192L48 31.6192Z"/>
</mask>
<path d="M48 31.6192C48 27.2747 46.2742 23.1082 43.2021 20.0362C40.1301 16.9641 35.9635 15.2383 31.619 15.2383C27.2745 15.2383 23.108 16.9641 20.036 20.0361C16.9639 23.1082 15.2381 27.2747 15.2381 31.6192L15.9208 31.6192C15.9208 27.4558 17.5747 23.4629 20.5187 20.5189C23.4627 17.5749 27.4556 15.9209 31.619 15.9209C35.7825 15.9209 39.7754 17.5749 42.7194 20.5189C45.6634 23.4629 47.3173 27.4558 47.3173 31.6192L48 31.6192Z" stroke="white" stroke-width="2" mask="url(#path-2-inside-1)"/>
<circle cx="47.6179" cy="31.6189" r="4.95238" transform="rotate(90 47.6179 31.6189)" fill="white"/>
<circle cx="14.8562" cy="31.6189" r="4.95238" transform="rotate(90 14.8562 31.6189)" fill="white"/>
</svg>
