<svg width="408" height="68" viewBox="0 0 408 68" fill="none" xmlns="http://www.w3.org/2000/svg">
<path d="M107.092 39.3509C106.522 32.1167 102.826 27.872 95.3387 27.872C88.4204 27.872 84.1589 32.3099 83.3997 39.3509H107.092ZM118.276 42.0506C118.276 44.3682 118.087 46.7782 117.707 48.7052H83.589C84.8184 54.4951 89.6534 58.0639 98.75 58.0639C98.7989 58.0639 98.8356 58.0596 98.8723 58.0596C98.909 58.0596 98.9334 58.0552 98.9701 58.0552C99.5435 58.0552 100.105 58.0303 100.661 58.0055C100.958 57.993 101.26 57.9681 101.558 57.9432C101.796 57.9184 102.029 57.8935 102.261 57.881C106.048 57.4903 109.65 56.4544 112.954 54.8785C113.213 54.7516 113.479 54.6284 113.73 54.4965H113.734C114.403 54.1543 115.054 53.7761 115.697 53.3903H115.986V63.1529C110.991 66.2301 105.138 67.9991 98.8751 67.9991V67.9742C98.6465 67.9787 98.4227 67.9991 98.1892 67.9991C81.0312 67.9991 71.65 58.0653 71.65 43.5971C71.65 28.0665 81.316 17.843 95.3425 17.843C109.369 17.843 118.28 27.97 118.28 42.0519L118.276 42.0506ZM0.09375 67.0334H11.7524L13.9305 25.4634L14.4049 14.1777H14.5944L17.0616 25.4634L26.5377 67.0334H41.1336L50.7046 25.4634L53.0726 14.1777H53.2621L53.7365 25.4634L56.0138 67.0334H68.1426L64.1615 0.481921H44.8297L36.1083 40.4145L34.2148 50.5415H34.0253L32.0326 40.4145L23.3156 0.481921H3.97944L0.09375 67.0334ZM200.736 67.999C189.837 67.999 183.673 62.885 183.673 51.3139V28.5492H170.595V52.7581C170.595 56.3269 171.924 57.7755 174.766 57.7755C175.43 57.7755 176.185 57.7755 177.039 57.5826H177.324V67.0335C176.186 67.3235 173.912 67.6134 172.208 67.6134C165.764 67.6134 161.779 65.107 160.075 59.6068C156.664 65.0104 151.263 67.9997 144.535 67.9997C132.497 67.9997 122.736 58.4523 122.736 42.8251C122.736 27.3911 132.497 17.8436 144.535 17.8436C150.5 17.8436 155.434 20.1569 158.842 24.4018V0.482543H170.595V18.8093H183.673V7.33047H195.427V18.8093H208.034V28.5499H195.427V50.7352C195.427 55.555 197.794 57.8728 202.349 57.8728C204.433 57.8728 205.852 57.68 207.749 57.1972H208.034V67.0344C205.757 67.6143 203.009 67.999 200.736 67.999ZM146.998 57.8731C154.96 57.8731 159.411 51.6046 159.411 42.8254C159.411 34.1426 154.96 27.8743 146.998 27.8743C138.941 27.8743 134.77 34.1426 134.77 42.8254C134.77 51.6046 138.941 57.8731 146.998 57.8731ZM224.998 41.763C224.998 33.9495 228.979 29.6081 236.562 29.6081C237.886 29.6081 239.309 29.801 240.634 30.1917H240.823V18.9981C239.594 18.5191 237.981 18.2304 236.178 18.2304C230.493 18.2304 226.702 21.7992 224.523 27.5847V18.8098H213.244V67.0345H224.998L224.998 41.763ZM265.943 68C251.063 68 241.013 57.0039 241.013 42.9219C241.013 28.84 251.063 17.8439 265.943 17.8439C280.725 17.8439 290.775 28.84 290.775 42.9219C290.775 57.0039 280.725 68 265.943 68ZM265.943 57.6799C274.376 57.6799 278.736 51.4115 278.736 42.9219C278.736 34.4324 274.376 28.1639 265.943 28.1639C257.697 28.1639 253.051 34.4324 253.051 42.9219C253.051 51.4115 257.697 57.6799 265.943 57.6799ZM308.808 40.1257C308.808 32.6985 312.505 27.8743 319.328 27.8743C326.057 27.8743 329.188 32.4088 329.188 40.1257V67.0343H340.937V39.6428C340.937 28.0674 335.063 17.8439 322.27 17.8439C315.446 17.8439 310.896 21.3161 308.334 26.5266V18.8096H297.055V67.0343H308.808V40.1257ZM361.693 7.04092C361.693 10.8994 358.66 14.1785 354.684 14.1785C350.892 14.1785 347.761 10.8994 347.761 7.04092C347.761 3.18244 350.892 0 354.684 0C358.66 0 361.693 3.18244 361.693 7.04092ZM368.236 67.0343C366.433 67.42 364.349 67.7099 362.452 67.7099C353.45 67.7099 348.615 62.8858 348.615 54.0143V18.8093H360.463V53.1452C360.463 56.3276 361.977 57.8728 365.203 57.8728C365.958 57.8728 366.907 57.7733 367.951 57.5829H368.236L368.236 67.0343ZM369.37 42.9219C369.37 28.84 379.416 17.8439 394.391 17.8439C398.657 17.8439 403.492 18.9065 407.094 20.9298V31.5396H406.809C403.112 29.3228 399.416 28.2605 395.245 28.2605C386.239 28.2605 381.408 34.529 381.408 42.9219C381.408 51.3149 386.239 57.5834 395.245 57.5834C399.416 57.5834 403.112 56.5207 406.809 54.3043H407.094V64.914C403.492 66.9421 398.657 68 394.391 68C379.416 68 369.37 57.0039 369.37 42.9219Z" fill="white" fill-opacity="0.4"/>
</svg>
