<svg width="27" height="27" viewBox="0 0 27 27" fill="none" xmlns="http://www.w3.org/2000/svg">
<circle cx="13.5" cy="13.5" r="13.5" fill="#7A7F83"/>
<path d="M11.9955 7.00006C12.1236 6.99962 12.2502 7.02788 12.3659 7.08276C12.4816 7.13763 12.5835 7.21773 12.6642 7.31717L16.805 12.4595C16.9311 12.6129 17 12.8053 17 13.0038C17 13.2023 16.9311 13.3947 16.805 13.548L12.5185 18.6904C12.373 18.8654 12.1639 18.9755 11.9372 18.9964C11.7105 19.0173 11.4848 18.9473 11.3097 18.8018C11.1346 18.6563 11.0245 18.4473 11.0036 18.2206C10.9827 17.994 11.0527 17.7684 11.1983 17.5933L15.0304 12.9995L11.3268 8.40564C11.222 8.27984 11.1554 8.12664 11.1349 7.96419C11.1145 7.80173 11.141 7.63681 11.2113 7.48895C11.2817 7.34108 11.3929 7.21645 11.5319 7.12981C11.6709 7.04317 11.8318 6.99814 11.9955 7.00006Z" fill="white"/>
</svg>
