<svg width="64" height="64" viewBox="0 0 64 64" fill="none" xmlns="http://www.w3.org/2000/svg">
<circle cx="32" cy="32" r="31.5" stroke="white"/>
<mask id="path-2-inside-1" fill="white">
<path d="M41.715 14.1336C39.1159 12.633 36.2149 11.7307 33.2232 11.4923C30.2315 11.254 27.2243 11.6856 24.4204 12.7557C21.6165 13.8259 19.0864 15.5077 17.0142 17.6787C14.9421 19.8497 13.38 22.4554 12.4416 25.3061C11.5032 28.1568 11.2122 31.1809 11.5896 34.1582C11.967 37.1356 13.0035 39.9914 14.6235 42.5178C16.2435 45.0441 18.4064 47.1776 20.9547 48.7629C23.503 50.3482 26.3727 51.3455 29.355 51.6821L29.5205 50.2157C26.7562 49.9037 24.0963 48.9793 21.7342 47.5099C19.3721 46.0405 17.3673 44.0629 15.8657 41.7212C14.3641 39.3794 13.4034 36.7324 13.0536 33.9726C12.7037 31.2129 12.9735 28.4099 13.8433 25.7675C14.7131 23.1251 16.161 20.7099 18.0817 18.6976C20.0024 16.6852 22.3476 15.1264 24.9466 14.1344C27.5456 13.1425 30.333 12.7424 33.106 12.9634C35.8791 13.1843 38.568 14.0206 40.9772 15.4116L41.715 14.1336Z"/>
</mask>
<path d="M41.715 14.1336C39.1159 12.633 36.2149 11.7307 33.2232 11.4923C30.2315 11.254 27.2243 11.6856 24.4204 12.7557C21.6165 13.8259 19.0864 15.5077 17.0142 17.6787C14.9421 19.8497 13.38 22.4554 12.4416 25.3061C11.5032 28.1568 11.2122 31.1809 11.5896 34.1582C11.967 37.1356 13.0035 39.9914 14.6235 42.5178C16.2435 45.0441 18.4064 47.1776 20.9547 48.7629C23.503 50.3482 26.3727 51.3455 29.355 51.6821L29.5205 50.2157C26.7562 49.9037 24.0963 48.9793 21.7342 47.5099C19.3721 46.0405 17.3673 44.0629 15.8657 41.7212C14.3641 39.3794 13.4034 36.7324 13.0536 33.9726C12.7037 31.2129 12.9735 28.4099 13.8433 25.7675C14.7131 23.1251 16.161 20.7099 18.0817 18.6976C20.0024 16.6852 22.3476 15.1264 24.9466 14.1344C27.5456 13.1425 30.333 12.7424 33.106 12.9634C35.8791 13.1843 38.568 14.0206 40.9772 15.4116L41.715 14.1336Z" fill="#2B8DDD" stroke="white" stroke-width="2" mask="url(#path-2-inside-1)"/>
<mask id="path-3-inside-2" fill="white">
<path d="M30.3461 12.04C33.2715 11.8359 36.2056 12.2865 38.935 13.359C41.6643 14.4316 44.1203 16.0991 46.1241 18.2403C48.1278 20.3815 49.6291 22.9424 50.5186 25.7368C51.4081 28.5312 51.6634 31.4887 51.266 34.3942C50.8686 37.2997 49.8285 40.08 48.2213 42.533C46.6142 44.9859 44.4804 47.0496 41.9752 48.5741C39.4701 50.0986 36.6566 51.0454 33.7395 51.3457C30.8223 51.6459 27.875 51.2921 25.1118 50.3099L25.2887 49.8122C27.9779 50.7681 30.8464 51.1124 33.6854 50.8202C36.5244 50.5279 39.2625 49.6065 41.7006 48.1228C44.1387 46.6392 46.2153 44.6307 47.7795 42.2434C49.3436 39.8562 50.3559 37.1503 50.7426 34.3226C51.1294 31.4949 50.8809 28.6166 50.0152 25.897C49.1495 23.1775 47.6885 20.6851 45.7383 18.6013C43.7882 16.5174 41.398 14.8945 38.7418 13.8507C36.0855 12.8069 33.2299 12.3683 30.3828 12.567L30.3461 12.04Z"/>
</mask>
<path d="M30.3461 12.04C33.2715 11.8359 36.2056 12.2865 38.935 13.359C41.6643 14.4316 44.1203 16.0991 46.1241 18.2403C48.1278 20.3815 49.6291 22.9424 50.5186 25.7368C51.4081 28.5312 51.6634 31.4887 51.266 34.3942C50.8686 37.2997 49.8285 40.08 48.2213 42.533C46.6142 44.9859 44.4804 47.0496 41.9752 48.5741C39.4701 50.0986 36.6566 51.0454 33.7395 51.3457C30.8223 51.6459 27.875 51.2921 25.1118 50.3099L25.2887 49.8122C27.9779 50.7681 30.8464 51.1124 33.6854 50.8202C36.5244 50.5279 39.2625 49.6065 41.7006 48.1228C44.1387 46.6392 46.2153 44.6307 47.7795 42.2434C49.3436 39.8562 50.3559 37.1503 50.7426 34.3226C51.1294 31.4949 50.8809 28.6166 50.0152 25.897C49.1495 23.1775 47.6885 20.6851 45.7383 18.6013C43.7882 16.5174 41.398 14.8945 38.7418 13.8507C36.0855 12.8069 33.2299 12.3683 30.3828 12.567L30.3461 12.04Z" fill="#2B8DDD" stroke="white" stroke-width="2" mask="url(#path-3-inside-2)"/>
<rect x="32" y="21.3334" width="15.0849" height="15.0849" rx="7.54247" transform="rotate(45 32 21.3334)" fill="white"/>
</svg>
