<svg width="25" height="24" viewBox="0 0 25 24" fill="none" xmlns="http://www.w3.org/2000/svg">
<path d="M17.6162 15.5148C19.0688 13.5326 19.7194 11.0751 19.4378 8.63383C19.1563 6.19257 17.9633 3.94764 16.0977 2.34816C14.232 0.74868 11.8312 -0.0873826 9.37557 0.00723687C6.91994 0.101856 4.5906 1.12018 2.85354 2.85848C1.11649 4.59677 0.0998328 6.92685 0.00697052 9.38254C-0.0858918 11.8382 0.751888 14.2384 2.3527 16.1029C3.95351 17.9675 6.1993 19.1588 8.64077 19.4386C11.0822 19.7184 13.5393 19.066 15.5204 17.612H15.5189C15.564 17.672 15.612 17.729 15.666 17.7846L21.4416 23.5602C21.7228 23.8416 22.1044 23.9999 22.5024 24C22.9003 24.0001 23.282 23.8422 23.5635 23.5609C23.845 23.2796 24.0032 22.898 24.0034 22.5001C24.0035 22.1021 23.8456 21.7204 23.5643 21.4389L17.7887 15.6633C17.735 15.609 17.6774 15.5589 17.6162 15.5133V15.5148ZM18.0032 9.74823C18.0032 10.8317 17.7898 11.9047 17.3751 12.9057C16.9605 13.9067 16.3527 14.8163 15.5866 15.5825C14.8204 16.3486 13.9109 16.9564 12.9098 17.371C11.9088 17.7857 10.8359 17.9991 9.75235 17.9991C8.66884 17.9991 7.59593 17.7857 6.59489 17.371C5.59385 16.9564 4.68428 16.3486 3.91812 15.5825C3.15196 14.8163 2.5442 13.9067 2.12956 12.9057C1.71492 11.9047 1.5015 10.8317 1.5015 9.74823C1.5015 7.55997 2.37079 5.46133 3.91812 3.91399C5.46545 2.36666 7.56409 1.49738 9.75235 1.49738C11.9406 1.49738 14.0393 2.36666 15.5866 3.91399C17.1339 5.46133 18.0032 7.55997 18.0032 9.74823Z" fill="white"/>
</svg>
