<svg width="18" height="36" viewBox="0 0 18 36" fill="none" xmlns="http://www.w3.org/2000/svg">
<path d="M15.0134 0.000170348C14.6292 -0.00113424 14.2495 0.0836436 13.9024 0.248275C13.5552 0.412905 13.2494 0.653201 13.0073 0.951514L0.585073 16.3786C0.206794 16.8387 -1.62366e-06 17.4158 -1.57163e-06 18.0113C-1.5196e-06 18.6069 0.206795 19.184 0.585073 19.644L13.4445 35.0712C13.8811 35.5962 14.5084 35.9264 15.1885 35.9891C15.8685 36.0518 16.5457 35.8418 17.0709 35.4054C17.5961 34.969 17.9264 34.3418 17.9891 33.6619C18.0518 32.9821 17.8418 32.3051 17.4052 31.78L5.90889 17.9985L17.0195 4.21692C17.334 3.83951 17.5337 3.37993 17.5952 2.89257C17.6566 2.4052 17.5771 1.91044 17.366 1.46684C17.155 1.02324 16.8212 0.649363 16.4043 0.389441C15.9874 0.129519 15.5047 -0.005567 15.0134 0.000170348Z" fill="white"/>
</svg>
