<svg width="408" height="122" viewBox="0 0 408 122" fill="none" xmlns="http://www.w3.org/2000/svg">
<path fill-rule="evenodd" clip-rule="evenodd" d="M0 18.4817V5.72078H51.7125V18.4817H34.6091V73.514H17.9161V18.4817H0ZM81.8441 36.8271C73.6996 35.2312 68.4079 40.8133 68.4079 52.7783V73.5172H52.5277V23.6666H67.1863C67.1863 25.6605 66.7791 29.6483 66.3711 32.8377C69.2206 26.8561 74.922 22.4679 82.6585 22.8675L81.8425 36.8263L81.8441 36.8271ZM115.233 73.5148C115.233 71.1205 115.64 68.3306 115.64 66.3352C113.197 71.1213 106.682 74.3147 100.167 74.3147C89.5807 74.3147 84.6944 67.9319 84.6944 59.9563C84.6944 47.1954 96.91 41.2137 114.421 40.8149V38.8226C114.421 35.2328 111.57 32.8409 105.055 32.8409C100.575 32.8409 94.4677 34.0373 89.9895 36.4307L88.7663 25.6637C94.0605 24.0686 101.389 22.0747 107.497 22.0747C124.597 22.0747 129.486 30.4491 129.486 41.6149V59.5583C129.486 63.1481 129.891 68.7318 129.891 73.5172H115.232V73.5148H115.233ZM114.419 49.9868C102.61 49.9868 99.3547 54.3734 99.3547 58.7592C99.3547 61.1534 101.389 63.5445 104.648 63.5445C110.349 63.5445 114.421 59.1563 114.421 53.177V49.9868H114.419ZM392.526 73.5148C392.526 71.1205 392.933 68.3306 392.933 66.3352C390.492 71.1205 383.977 74.3139 377.053 74.3139C366.871 74.3139 361.987 67.9311 361.987 59.9555C361.987 47.1946 374.202 41.2129 391.71 40.8141V38.8218C391.71 35.232 388.862 32.8401 382.345 32.8401C377.867 32.8401 371.353 34.0365 367.279 36.4299L366.059 25.6637C371.351 24.0686 378.271 22.0747 384.79 22.0747C401.89 22.0747 406.776 30.4491 406.776 41.6149V59.5583C406.776 63.1481 407.183 68.7318 407.183 73.5172H392.525V73.5148H392.526ZM391.712 49.9868C379.903 49.9868 376.648 54.3734 376.648 58.7592C376.648 61.1534 378.682 63.5445 381.939 63.5445C387.641 63.5445 391.712 59.1563 391.712 53.177V49.9868ZM171.018 73.5148V41.6125C171.018 37.6255 169.389 35.232 165.724 35.232C160.022 35.232 156.359 40.0173 156.359 45.2015V73.518H140.887V23.6666H155.545C155.545 25.6605 155.138 29.2487 154.73 31.6422C157.581 26.8569 163.69 22.8675 171.425 22.8675C182.419 22.8675 186.898 30.4443 186.898 38.4198V73.5124H171.018V73.5148ZM208.479 74.7127C204.814 74.7127 199.114 73.9143 195.041 72.7188L195.854 61.1502C198.704 62.3466 203.998 63.1449 207.663 63.5445C212.547 63.5445 215.399 61.9494 215.399 59.1563C215.399 52.3787 195.854 52.3787 195.854 38.0227C195.854 29.6475 201.148 22.0715 216.621 22.0715C219.471 22.0715 225.17 22.8699 228.022 23.6666L227.615 34.4328C225.17 34.0333 220.285 33.2365 217.433 33.2365C213.361 33.2365 211.324 34.4328 211.324 36.8263C211.324 42.808 231.277 43.2068 231.277 57.5604C231.282 67.9311 223.543 75.1115 208.479 74.7119V74.7127ZM303.348 73.5148V0.138672H318.824V73.5148H303.348ZM268.742 36.028C267.113 31.2426 265.892 26.8569 265.484 24.0654C265.077 26.8569 263.856 31.245 262.227 36.028C253.678 61.151 249.605 73.5148 249.605 73.5148H233.321L256.527 5.72078H274.849L298.465 73.5148H281.772C281.772 73.5148 269.963 39.2206 268.742 36.028Z" fill="white" fill-opacity="0.4"/>
<path fill-rule="evenodd" clip-rule="evenodd" d="M251.454 74.7278H277.57L240.887 121.193L251.454 74.7278Z" fill="#F47836" fill-opacity="0.4"/>
<path fill-rule="evenodd" clip-rule="evenodd" d="M333.818 13.6469L349.369 9.9209V27.426H360.717V37.8546H349.369V57.9669C349.369 62.0638 351.893 63.5536 354.833 63.5536C356.936 63.5536 359.036 63.1812 360.717 62.808V72.8656C357.357 73.9829 353.574 74.7278 349.79 74.7278C338.442 74.7278 333.816 69.5135 333.816 59.4552V13.6469H333.818Z" fill="white" fill-opacity="0.4"/>
</svg>
