<svg width="64" height="64" viewBox="0 0 64 64" fill="none" xmlns="http://www.w3.org/2000/svg">
<circle cx="32" cy="32" r="31.5" stroke="white"/>
<mask id="path-2-inside-1" fill="white">
<path d="M31.6192 16C27.2747 16 23.1082 17.7258 20.0362 20.7979C16.9641 23.8699 15.2383 28.0365 15.2383 32.381C15.2383 36.7255 16.9641 40.892 20.0361 43.964C23.1082 47.0361 27.2747 48.7619 31.6192 48.7619V48.0792C27.4558 48.0792 23.4629 46.4253 20.5189 43.4813C17.5749 40.5373 15.9209 36.5444 15.9209 32.381C15.9209 28.2175 17.5749 24.2246 20.5189 21.2806C23.4629 18.3366 27.4558 16.6827 31.6192 16.6827V16Z"/>
</mask>
<path d="M31.6192 16C27.2747 16 23.1082 17.7258 20.0362 20.7979C16.9641 23.8699 15.2383 28.0365 15.2383 32.381C15.2383 36.7255 16.9641 40.892 20.0361 43.964C23.1082 47.0361 27.2747 48.7619 31.6192 48.7619V48.0792C27.4558 48.0792 23.4629 46.4253 20.5189 43.4813C17.5749 40.5373 15.9209 36.5444 15.9209 32.381C15.9209 28.2175 17.5749 24.2246 20.5189 21.2806C23.4629 18.3366 27.4558 16.6827 31.6192 16.6827V16Z" stroke="white" stroke-width="2" mask="url(#path-2-inside-1)"/>
<circle cx="31.6203" cy="16.381" r="4.95238" fill="white"/>
<circle cx="31.6203" cy="49.1428" r="4.95238" fill="white"/>
</svg>
