<svg width="24" height="24" viewBox="0 0 24 24" fill="none" xmlns="http://www.w3.org/2000/svg">
<path d="M5.49502 19.1996L5.37636 19.3827L5.54183 19.525C7.27853 21.0186 9.53251 21.9274 12 21.9274C14.4675 21.9274 16.7215 21.0186 18.4582 19.525L18.6236 19.3827L18.505 19.1996C17.7415 18.021 16.434 17.2256 14.936 17.1743L14.8935 17.1729L14.8528 17.1856C13.8688 17.4931 12.9358 17.6387 12 17.6387C11.0649 17.6387 10.1317 17.4885 9.1461 17.1852L9.1064 17.173L9.06488 17.1743C7.56562 17.2205 6.25816 18.0216 5.49502 19.1996ZM19.6752 17.7615L19.8808 18.0261L20.0759 17.7535C21.2371 16.1308 21.9274 14.1448 21.9274 12C21.9274 6.52483 17.4752 2.07258 12 2.07258C6.52483 2.07258 2.07258 6.52483 2.07258 12C2.07258 14.1448 2.76288 16.1308 3.92411 17.7535L4.11876 18.0256L4.32452 17.7619C5.46614 16.2987 7.21963 15.3468 9.2129 15.3468C9.30173 15.3468 9.41569 15.3682 9.57859 15.4111C9.65068 15.4301 9.72785 15.452 9.81362 15.4763L9.84155 15.4843C9.9377 15.5115 10.0429 15.5412 10.1568 15.5709C10.6152 15.6907 11.2106 15.8113 12 15.8113C12.7918 15.8113 13.3871 15.6907 13.8451 15.5709C13.9588 15.5411 14.0639 15.5115 14.1599 15.4842L14.1887 15.476C14.2739 15.4518 14.3506 15.43 14.4222 15.4111C14.5847 15.3682 14.6983 15.3468 14.7871 15.3468C16.7854 15.3468 18.5386 16.2989 19.6752 17.7615ZM7.60484 9.29032C7.60484 6.86388 9.57355 4.89516 12 4.89516C14.4264 4.89516 16.3952 6.86388 16.3952 9.29032C16.3952 11.7168 14.4264 13.6855 12 13.6855C9.57355 13.6855 7.60484 11.7168 7.60484 9.29032ZM9.42742 9.29032C9.42742 10.7107 10.5797 11.8629 12 11.8629C13.4203 11.8629 14.5726 10.7107 14.5726 9.29032C14.5726 7.86999 13.4203 6.71774 12 6.71774C10.5797 6.71774 9.42742 7.86999 9.42742 9.29032ZM0.25 12C0.25 5.50904 5.50904 0.25 12 0.25C18.491 0.25 23.75 5.50904 23.75 12C23.75 18.491 18.491 23.75 12 23.75C5.50904 23.75 0.25 18.491 0.25 12Z" fill="white" stroke="#010405" stroke-width="0.5"/>
</svg>
