<svg width="190" height="38" viewBox="0 0 190 38" fill="none" xmlns="http://www.w3.org/2000/svg">
<path d="M15.0381 22.2434L0 31.8172L7.6347 38.4099L22.0944 27.5175L26.6058 30.8426V18.9756H10.7002L15.0381 22.2434Z" fill="white"/>
<path d="M11.7423 0L3.81836 4.58626L15.5018 12.3829L10.7012 15.4786H26.6068V5.21687L22.6738 7.73931L11.7423 0Z" fill="white"/>
<path d="M56.971 31.8172L41.933 22.2434L46.2709 18.9756H30.3652V30.8426L34.8767 27.5175L49.3942 38.4099L56.971 31.8172Z" fill="white"/>
<path d="M41.4703 12.3829L53.1537 4.58626L45.2298 0L34.2983 7.73931L30.3652 5.21687V15.4786H46.2709L41.4703 12.3829Z" fill="white"/>
<path d="M183.464 17.6572V11.1791H183.407H178.953V17.6572H172.359V22.1288H178.895V22.1861H178.953V28.6642H183.407V22.1288H190V17.6572H183.464Z" fill="white"/>
<path d="M67.9598 4.24218V14.6759H71.1987C72.2977 8.25515 76.6934 3.84088 82.9978 3.84088C90.5747 3.84088 94.7391 9.975 94.7391 17.3703C94.7391 26.1416 89.765 31.4157 82.593 31.4157C75.9415 31.4157 71.6615 26.5429 71.0252 19.7781H67.9598V30.9571H61.8867V4.24218H67.9598ZM88.5503 17.5423C88.5503 12.7268 86.526 8.59912 82.8243 8.59912C79.007 8.59912 76.9826 12.7268 76.9826 17.657C76.9826 22.7019 79.1226 26.6575 82.7665 26.6575C86.4682 26.6002 88.5503 22.7019 88.5503 17.5423Z" fill="white"/>
<path d="M118.454 30.2119C117.355 30.7851 114.81 31.3584 111.513 31.3584C102.201 31.3584 97.4004 25.6256 97.4004 18.0009C97.4004 8.88576 103.936 3.84088 112.091 3.84088C115.273 3.84088 117.644 4.47149 118.743 5.04477L117.528 9.86034C116.314 9.34439 114.578 8.88576 112.438 8.88576C107.58 8.88576 103.878 11.7522 103.878 17.7143C103.878 23.0458 107.059 26.4282 112.496 26.4282C114.347 26.4282 116.371 26.0269 117.586 25.5683L118.454 30.2119Z" fill="white"/>
<path d="M129.096 24.0777L127.187 30.9571H120.883L129.096 4.24213H137.078L145.464 30.9571H138.928L136.788 24.0777H129.096ZM135.921 19.5488L134.244 13.8733C133.781 12.2681 133.26 10.3189 132.913 8.71373H132.855C132.451 10.3189 132.046 12.3254 131.641 13.8733L130.021 19.5488H135.921Z" fill="white"/>
<path d="M149.051 4.5864C150.902 4.24244 153.562 4.01312 157.264 4.01312C161.023 4.01312 163.684 4.70106 165.477 6.13427C167.212 7.45281 168.369 9.68861 168.369 12.3257C168.369 14.9628 167.501 17.1413 165.882 18.6891C163.8 20.6383 160.734 21.4982 157.148 21.4982C156.338 21.4982 155.644 21.4409 155.066 21.3836V30.9574H149.051V4.5864ZM155.066 16.74C155.587 16.8546 156.223 16.912 157.09 16.912C160.329 16.912 162.296 15.3068 162.296 12.555C162.296 10.0899 160.561 8.65671 157.553 8.65671C156.338 8.65671 155.471 8.77136 155.008 8.88602V16.74H155.066Z" fill="white"/>
</svg>
