<svg width="40" height="40" viewBox="0 0 40 40" fill="none" xmlns="http://www.w3.org/2000/svg">
<circle cx="20" cy="20" r="20" fill="#003457"/>
<circle cx="20" cy="20" r="14" fill="white"/>
<path d="M15.8935 24V16.902L13.9695 17.877V16.044L16.1015 14.9H17.7265V24H15.8935ZM19.2299 24V22.635L21.9079 20.204C22.5146 19.6493 22.9349 19.1987 23.1689 18.852C23.4116 18.5053 23.5329 18.137 23.5329 17.747C23.5329 17.357 23.3899 17.0493 23.1039 16.824C22.8179 16.59 22.4409 16.473 21.9729 16.473C21.1149 16.473 20.2959 16.8197 19.5159 17.513V15.589C20.2526 15.0083 21.1366 14.718 22.1679 14.718C23.0432 14.718 23.7972 14.9737 24.4299 15.485C25.0712 15.9963 25.3919 16.668 25.3919 17.5C25.3919 18.1413 25.2489 18.709 24.9629 19.203C24.6856 19.6883 24.1872 20.2647 23.4679 20.932L21.9079 22.362H25.7039V24H19.2299Z" fill="#173D50"/>
</svg>
