<svg width="40" height="40" viewBox="0 0 40 40" fill="none" xmlns="http://www.w3.org/2000/svg">
<circle cx="20" cy="20" r="20" fill="#003457"/>
<circle cx="20" cy="20" r="14" fill="white"/>
<path d="M19.5245 24.182C18.4499 24.182 17.5269 23.9393 16.7555 23.454V21.673C17.5615 22.2277 18.4499 22.505 19.4205 22.505C19.9492 22.505 20.3955 22.3707 20.7595 22.102C21.1322 21.8333 21.3185 21.4607 21.3185 20.984C21.3185 20.542 21.1582 20.1867 20.8375 19.918C20.5169 19.6407 20.0749 19.502 19.5115 19.502C19.0782 19.502 18.6492 19.5843 18.2245 19.749V18.514L20.3955 16.512H17.0415V14.9H22.7875V16.304L20.7335 18.189C21.3835 18.3103 21.9555 18.6093 22.4495 19.086C22.9435 19.5627 23.1905 20.1953 23.1905 20.984C23.1905 21.9547 22.8395 22.7303 22.1375 23.311C21.4355 23.8917 20.5645 24.182 19.5245 24.182Z" fill="#173D50"/>
</svg>
