<svg width="36" height="13" viewBox="0 0 36 13" fill="none" xmlns="http://www.w3.org/2000/svg">
<path d="M4.4375 4.70312C5.54167 4.70312 6.41927 5.01302 7.07031 5.63281C7.72656 6.2526 8.05469 7.10156 8.05469 8.17969C8.05469 9.45573 7.66146 10.4375 6.875 11.125C6.08854 11.8125 4.96354 12.1562 3.5 12.1562C2.22917 12.1562 1.20312 11.9505 0.421875 11.5391V9.45312C0.833333 9.67188 1.3125 9.85156 1.85938 9.99219C2.40625 10.1276 2.92448 10.1953 3.41406 10.1953C4.88802 10.1953 5.625 9.59115 5.625 8.38281C5.625 7.23177 4.86198 6.65625 3.33594 6.65625C3.0599 6.65625 2.75521 6.6849 2.42188 6.74219C2.08854 6.79427 1.81771 6.85156 1.60938 6.91406L0.648438 6.39844L1.07812 0.578125H7.27344V2.625H3.19531L2.98438 4.86719L3.25781 4.8125C3.57552 4.73958 3.96875 4.70312 4.4375 4.70312ZM19.9141 3.26562H22.5391L19.0781 7.45312L22.8438 12H20.1406L16.5703 7.57031V12H14.1875V3.26562H16.5703V7.50781L19.9141 3.26562ZM35.1016 12H32.875V5.11719L32.75 5.60156C32.4688 6.70052 32.2161 7.53125 31.9922 8.09375L30.4453 12H28.75L27.1797 8.0625C26.9557 7.48958 26.7161 6.6849 26.4609 5.64844L26.3125 5.11719V12H24.0938V3.26562H27.375L28.875 6.99219C29.0312 7.39323 29.1745 7.85417 29.3047 8.375C29.4401 8.89583 29.5312 9.34115 29.5781 9.71094C29.75 8.92969 29.8828 8.36979 29.9766 8.03125C30.0755 7.6875 30.1823 7.3724 30.2969 7.08594C30.4115 6.79948 30.9297 5.52604 31.8516 3.26562H35.1016V12Z" fill="#003457"/>
</svg>
