<svg width="229" height="131" viewBox="0 0 229 131" fill="none" xmlns="http://www.w3.org/2000/svg">
<rect x="0.5" y="0.5" width="227.074" height="130" rx="4.5" fill="#232C4F" stroke="#232C4F"/>
<path d="M30 55.9287H60V58.0716H30V55.9287Z" fill="#232C4F"/>
<path d="M54.1066 37.7144H36.428C35.8599 37.7149 35.3152 37.9409 34.9134 38.3426C34.5117 38.7444 34.2857 39.2891 34.2852 39.8572V48.4286C34.2869 49.8489 34.8518 51.2105 35.8561 52.2148C36.8604 53.2191 38.222 53.7841 39.6423 53.7858H48.2137C49.634 53.7841 50.9956 53.2191 51.9999 52.2148C53.0042 51.2105 53.5692 49.8489 53.5709 48.4286V47.3572H54.1066C55.3853 47.3572 56.6117 46.8492 57.5159 45.945C58.42 45.0409 58.928 43.8145 58.928 42.5358C58.928 41.2571 58.42 40.0307 57.5159 39.1265C56.6117 38.2223 55.3853 37.7144 54.1066 37.7144V37.7144ZM51.428 48.4286C51.4272 49.2809 51.0882 50.0979 50.4856 50.7005C49.883 51.3032 49.0659 51.6421 48.2137 51.6429H39.6423C38.7901 51.6421 37.973 51.3032 37.3704 50.7005C36.7678 50.0979 36.4289 49.2809 36.428 48.4286V39.8572H51.428V48.4286ZM54.1066 45.2144H53.5709V39.8572H54.1066C54.817 39.8572 55.4983 40.1394 56.0006 40.6417C56.503 41.1441 56.7852 41.8254 56.7852 42.5358C56.7852 43.2462 56.503 43.9275 56.0006 44.4298C55.4983 44.9321 54.817 45.2144 54.1066 45.2144Z" fill="white"/>
<path d="M48.214 35.5714H46.0712V35.415C46.0727 35.0168 45.9627 34.6261 45.7534 34.2873C45.5441 33.9485 45.244 33.6751 44.8872 33.4982L42.0105 32.0614C41.2971 31.7074 40.6972 31.1606 40.2787 30.483C39.8602 29.8055 39.6398 29.0242 39.6426 28.2279V27H41.7855V28.2279C41.7841 28.626 41.8943 29.0166 42.1036 29.3554C42.3128 29.6942 42.6128 29.9676 42.9694 30.1446L45.8451 31.5814C46.5586 31.9354 47.1587 32.4822 47.5773 33.1597C47.996 33.8373 48.2166 34.6185 48.214 35.415V35.5714Z" fill="white"/>
<path d="M36.408 86.69H34.068V92H31.764V79.4H34.068V84.674H36.48L40.098 79.4H42.582L38.28 85.502L42.744 92H40.098L36.408 86.69ZM47.7854 82.28C49.2014 82.28 50.2814 82.622 51.0254 83.306C51.7814 83.978 52.1594 84.998 52.1594 86.366V92H50.0354V90.83C49.7594 91.25 49.3634 91.574 48.8474 91.802C48.3434 92.018 47.7314 92.126 47.0114 92.126C46.2914 92.126 45.6614 92.006 45.1214 91.766C44.5814 91.514 44.1614 91.172 43.8614 90.74C43.5734 90.296 43.4294 89.798 43.4294 89.246C43.4294 88.382 43.7474 87.692 44.3834 87.176C45.0314 86.648 46.0454 86.384 47.4254 86.384H49.9094V86.24C49.9094 85.568 49.7054 85.052 49.2974 84.692C48.9014 84.332 48.3074 84.152 47.5154 84.152C46.9754 84.152 46.4414 84.236 45.9134 84.404C45.3974 84.572 44.9594 84.806 44.5994 85.106L43.7174 83.468C44.2214 83.084 44.8274 82.79 45.5354 82.586C46.2434 82.382 46.9934 82.28 47.7854 82.28ZM47.4794 90.488C48.0434 90.488 48.5414 90.362 48.9734 90.11C49.4174 89.846 49.7294 89.474 49.9094 88.994V87.878H47.5874C46.2914 87.878 45.6434 88.304 45.6434 89.156C45.6434 89.564 45.8054 89.888 46.1294 90.128C46.4534 90.368 46.9034 90.488 47.4794 90.488ZM67.6516 87.176C67.6516 88.664 67.1536 89.834 66.1576 90.686C65.1736 91.538 63.7636 92.024 61.9276 92.144V95.492H59.8036V92.162C57.9676 92.042 56.5576 91.556 55.5736 90.704C54.5896 89.852 54.0976 88.676 54.0976 87.176C54.0976 85.688 54.5896 84.53 55.5736 83.702C56.5576 82.862 57.9676 82.382 59.8036 82.262V78.644H61.9276V82.262C63.7636 82.382 65.1736 82.862 66.1576 83.702C67.1536 84.542 67.6516 85.7 67.6516 87.176ZM56.3116 87.176C56.3116 88.1 56.5936 88.82 57.1576 89.336C57.7336 89.852 58.6156 90.164 59.8036 90.272V84.17C58.6156 84.266 57.7336 84.566 57.1576 85.07C56.5936 85.574 56.3116 86.276 56.3116 87.176ZM61.9276 90.272C64.2796 90.056 65.4556 89.024 65.4556 87.176C65.4556 86.264 65.1616 85.562 64.5736 85.07C63.9976 84.566 63.1156 84.266 61.9276 84.17V90.272ZM78.8323 87.248C78.8323 87.404 78.8203 87.626 78.7963 87.914H71.2543C71.3863 88.622 71.7283 89.186 72.2803 89.606C72.8443 90.014 73.5403 90.218 74.3683 90.218C75.4243 90.218 76.2943 89.87 76.9783 89.174L78.1843 90.56C77.7523 91.076 77.2063 91.466 76.5463 91.73C75.8863 91.994 75.1423 92.126 74.3143 92.126C73.2583 92.126 72.3283 91.916 71.5243 91.496C70.7203 91.076 70.0963 90.494 69.6523 89.75C69.2203 88.994 69.0043 88.142 69.0043 87.194C69.0043 86.258 69.2143 85.418 69.6343 84.674C70.0663 83.918 70.6603 83.33 71.4163 82.91C72.1723 82.49 73.0243 82.28 73.9723 82.28C74.9083 82.28 75.7423 82.49 76.4743 82.91C77.2183 83.318 77.7943 83.9 78.2023 84.656C78.6223 85.4 78.8323 86.264 78.8323 87.248ZM73.9723 84.08C73.2523 84.08 72.6403 84.296 72.1363 84.728C71.6443 85.148 71.3443 85.712 71.2363 86.42H76.6903C76.5943 85.724 76.3003 85.16 75.8083 84.728C75.3163 84.296 74.7043 84.08 73.9723 84.08Z" fill="white"/>
</svg>
