<svg width="40" height="40" viewBox="0 0 40 40" fill="none" xmlns="http://www.w3.org/2000/svg">
<circle cx="20" cy="20" r="20" fill="#003457"/>
<path d="M28.3631 14.3891H27.7085V12.4106H10.9062V17.7447C10.9062 19.3498 11.3621 20.916 12.2252 22.2641C12.6131 22.8702 13.0738 23.423 13.5975 23.908H16.1385H22.4811H25.0221C25.5458 23.423 26.0065 22.8702 26.3944 22.2641C26.632 21.8907 26.8357 21.5028 27.0102 21.1052H28.3631C30.2155 21.1052 31.7236 19.5971 31.7236 17.7447C31.7236 15.8972 30.2155 14.3891 28.3631 14.3891ZM28.3631 19.631H27.4951C27.6358 19.0152 27.7085 18.3848 27.7085 17.7495V15.8632H28.3631C29.4009 15.8632 30.2446 16.707 30.2446 17.7447C30.2495 18.7873 29.4057 19.631 28.3631 19.631Z" fill="white"/>
<path d="M22.8259 25.3843H15.7947H6.89648V25.6316C6.89648 27.4064 8.33668 28.8466 10.1115 28.8466H28.5091C30.2839 28.8466 31.7241 27.4015 31.7241 25.6316V25.3843H22.8259Z" fill="white"/>
</svg>
