<svg width="24" height="23" viewBox="0 0 24 23" fill="none" xmlns="http://www.w3.org/2000/svg">
<path d="M0 3C0 2.20435 0.31607 1.44129 0.87868 0.87868C1.44129 0.31607 2.20435 0 3 0H15C15.7956 0 16.5587 0.31607 17.1213 0.87868C17.6839 1.44129 18 2.20435 18 3V4.341L22.8825 1.5945C22.9965 1.5304 23.1253 1.49724 23.2562 1.49832C23.387 1.49939 23.5152 1.53466 23.6282 1.60062C23.7411 1.66657 23.8349 1.76093 23.9001 1.87432C23.9653 1.98771 23.9998 2.11619 24 2.247V12.75C23.9999 12.881 23.9655 13.0098 23.9002 13.1233C23.8349 13.2369 23.741 13.3314 23.6278 13.3975C23.5146 13.4635 23.3861 13.4987 23.2551 13.4995C23.124 13.5004 22.9951 13.467 22.881 13.4025L18 10.65V12C18 12.7956 17.6839 13.5587 17.1213 14.1213C16.5587 14.6839 15.7956 15 15 15H12V16.5C12 18.0913 11.3679 19.6174 10.2426 20.7426C9.11742 21.8679 7.5913 22.5 6 22.5H2.25C2.05109 22.5 1.86032 22.421 1.71967 22.2803C1.57902 22.1397 1.5 21.9489 1.5 21.75V18.75C1.5 18.5511 1.57902 18.3603 1.71967 18.2197C1.86032 18.079 2.05109 18 2.25 18H5.25C5.84674 18 6.41903 17.7629 6.84099 17.341C7.26295 16.919 7.5 16.3467 7.5 15.75V15H3C2.20435 15 1.44129 14.6839 0.87868 14.1213C0.31607 13.5587 0 12.7956 0 12V3ZM9 15V15.75C9 16.7446 8.60491 17.6984 7.90165 18.4016C7.19839 19.1049 6.24456 19.5 5.25 19.5H3V21H6C7.19347 21 8.33807 20.5259 9.18198 19.682C10.0259 18.8381 10.5 17.6935 10.5 16.5V15H9ZM3 13.5H15C15.3978 13.5 15.7794 13.342 16.0607 13.0607C16.342 12.7794 16.5 12.3978 16.5 12V3C16.5 2.60218 16.342 2.22064 16.0607 1.93934C15.7794 1.65804 15.3978 1.5 15 1.5H3C2.60218 1.5 2.22064 1.65804 1.93934 1.93934C1.65804 2.22064 1.5 2.60218 1.5 3V12C1.5 12.3978 1.65804 12.7794 1.93934 13.0607C2.22064 13.342 2.60218 13.5 3 13.5ZM18.0075 6.06V8.931L22.5 11.466V3.531L18.0075 6.0585V6.06Z" fill="#232C4F"/>
</svg>
