<svg width="40" height="40" viewBox="0 0 40 40" fill="none" xmlns="http://www.w3.org/2000/svg">
<circle cx="20" cy="20" r="20" fill="#003457"/>
<path d="M16.7117 16.5487C16.6773 16.7034 16.6602 16.8638 16.6602 17.03C16.6602 18.428 17.9264 19.5682 19.4791 19.5682C21.0319 19.5682 22.2981 18.428 22.2981 17.03C22.2981 16.5544 22.1491 16.1075 21.897 15.7236C20.9402 16.2164 19.7771 16.3252 18.7285 16.331C18.0181 16.3424 17.3649 16.3653 16.7117 16.5487Z" fill="white"/>
<path d="M31.2703 25.704C30.8749 26.0191 30.3249 26.3342 29.6373 26.6322C28.7607 25.3143 27.9987 23.8991 27.4314 22.4209C27.0075 21.3093 26.6006 20.0488 26.721 18.8456C26.7897 18.1466 27.271 17.1897 28.1419 17.3616C28.4914 17.4304 28.7607 17.7283 29.0529 17.9117C29.5113 18.2096 30.027 18.2956 30.5598 18.2211C31.6083 15.7401 30.6744 12.9498 29.1217 11.4945L28.7206 9.65527C27.4887 9.67819 26.1136 9.873 25.1797 10.7554C24.5265 11.3684 24.2229 12.2107 23.9192 13.03C23.6155 13.8436 23.2717 14.663 22.6071 15.2474C22.9566 15.7688 23.1571 16.3761 23.1571 17.035C23.1571 18.9086 21.507 20.4327 19.4787 20.4327C17.4504 20.4327 15.8003 18.9086 15.8003 17.035C15.8003 16.8975 15.8118 16.7543 15.829 16.6225C12.712 15.1901 10.0134 17.7341 9.78421 17.9117L11.4458 19.6535C12.6949 18.2784 14.1731 18.0263 14.2648 18.0205C11.6578 20.4327 10.1108 24.77 9.56076 26.5176C8.9878 26.254 8.5237 25.979 8.17992 25.704L6.89648 27.3197C8.2143 28.374 9.89308 28.9584 11.5031 29.3881C13.6918 29.9668 15.9665 30.2361 18.2239 30.322C20.6361 30.4137 23.0712 30.2991 25.4547 29.9095C27.3627 29.6001 29.2936 29.1303 31.0354 28.2651C31.5682 28.0015 32.0896 27.6921 32.5537 27.3197L31.2703 25.704ZM19.2553 28.2823C16.6999 28.2479 14.1158 27.9844 11.6521 27.2796C13.3996 24.5981 16.2816 22.61 19.5819 22.8105C22.6243 22.9939 25.3 24.9419 27.0189 27.3713C27.0418 27.4057 27.0647 27.4343 27.0877 27.4687C24.538 28.0989 21.8794 28.3109 19.2553 28.2823Z" fill="white"/>
</svg>
