<svg width="25" height="25" viewBox="0 0 25 25" fill="none" xmlns="http://www.w3.org/2000/svg">
<path d="M12.5 24V9.05M6.20087 6.75C6.49125 3.52598 9.20065 1 12.5 1C15.7993 1 18.5088 3.52598 18.7991 6.75H18.825C20.1975 6.75 21.5138 7.29522 22.4843 8.26572C23.4548 9.23622 24 10.5525 24 11.925C24 13.2975 23.4548 14.6138 22.4843 15.5843C21.5138 16.5548 20.1975 17.1 18.825 17.1H6.175C4.8025 17.1 3.48622 16.5548 2.51572 15.5843C1.54522 14.6138 1 13.2975 1 11.925C1 10.5525 1.54522 9.23622 2.51572 8.26572C3.48622 7.29522 4.8025 6.75 6.175 6.75H6.20087ZM12.5 14.8L15.375 11.925L12.5 14.8ZM12.5 13.075L9.05 9.625L12.5 13.075Z" stroke="#232C4F" stroke-width="2" stroke-linecap="round" stroke-linejoin="round"/>
</svg>
