<svg width="25" height="28" viewBox="0 0 25 28" fill="none" xmlns="http://www.w3.org/2000/svg">
<path d="M5.55556 0L11.1111 5.55555H6.94444V11.1111H4.16667V5.55555H0L5.55556 0ZM19.4444 11.1111L13.8889 5.55555H18.0556V0H20.8333V5.55555H25L19.4444 11.1111ZM5.55556 13.8889H19.4444C20.1812 13.8889 20.8877 14.1815 21.4086 14.7025C21.9296 15.2234 22.2222 15.93 22.2222 16.6667V25C22.2222 25.7367 21.9296 26.4432 21.4086 26.9642C20.8877 27.4851 20.1812 27.7778 19.4444 27.7778H5.55556C4.81884 27.7778 4.1123 27.4851 3.59137 26.9642C3.07044 26.4432 2.77778 25.7367 2.77778 25V16.6667C2.77778 15.93 3.07044 15.2234 3.59137 14.7025C4.1123 14.1815 4.81884 13.8889 5.55556 13.8889ZM5.55556 16.6667V25H19.4444V16.6667H5.55556Z" fill="#232C4F"/>
</svg>
