<svg width="30" height="29" viewBox="0 0 30 29" fill="none" xmlns="http://www.w3.org/2000/svg">
<path d="M21.4286 7.80952L28.2381 10.9048V27L19.5714 23.2857L9.66667 27L1 23.2857V7.19048L7.19048 9.66667L21.4286 7.80952ZM19.5714 23.2857V14.619V23.2857ZM9.66667 27V14.619V27ZM14.619 19.9094C14.619 19.9094 7.19048 14 7.19048 8.42857C7.19048 3.78571 10.9048 1 14.619 1C18.3333 1 22.0476 3.78571 22.0476 8.42857C22.0476 14 14.619 19.9094 14.619 19.9094ZM15.8571 8.42857C15.8571 8.10021 15.7267 7.78529 15.4945 7.55311C15.2623 7.32092 14.9474 7.19048 14.619 7.19048C14.2907 7.19048 13.9758 7.32092 13.7436 7.55311C13.5114 7.78529 13.381 8.10021 13.381 8.42857C13.381 8.75694 13.5114 9.07185 13.7436 9.30404C13.9758 9.53622 14.2907 9.66667 14.619 9.66667C14.9474 9.66667 15.2623 9.53622 15.4945 9.30404C15.7267 9.07185 15.8571 8.75694 15.8571 8.42857Z" stroke="#232C4F" stroke-width="2"/>
</svg>
