<svg width="6" height="10" viewBox="0 0 6 10" fill="none" xmlns="http://www.w3.org/2000/svg">
<path d="M0.371477 5.41794H1.41697V9.72476C1.41697 9.81049 1.48592 9.87944 1.57165 9.87944H3.34581C3.43154 9.87944 3.50049 9.81049 3.50049 9.72476V5.43844H4.70253C4.7808 5.43844 4.84603 5.38066 4.85534 5.30239L5.03798 3.71645C5.04357 3.67359 5.02866 3.62886 5.00071 3.59718C4.97089 3.56364 4.92989 3.545 4.88516 3.545H3.50049V2.55169C3.50049 2.25165 3.66263 2.10069 3.97944 2.10069C4.02417 2.10069 4.88516 2.10069 4.88516 2.10069C4.97089 2.10069 5.03984 2.03174 5.03984 1.94601V0.490528C5.03984 0.404802 4.97089 0.335848 4.88516 0.335848H3.63654C3.62722 0.335848 3.60858 0.333984 3.57876 0.333984C3.36258 0.333984 2.60968 0.376848 2.01519 0.922888C1.35547 1.53229 1.44679 2.25724 1.46915 2.3821V3.545H0.371477C0.285751 3.545 0.216797 3.61395 0.216797 3.69968V5.26512C0.216797 5.34898 0.285751 5.41794 0.371477 5.41794Z" fill="#161616"/>
</svg>
