<svg width="36" height="34" viewBox="0 0 36 34" fill="none" xmlns="http://www.w3.org/2000/svg">
<path d="M29.4 20.0187C27.0093 20.021 24.6685 20.7025 22.6502 21.9838C20.6319 23.2652 19.0192 25.0936 18 27.2562C16.9808 25.0936 15.3681 23.2652 13.3498 21.9838C11.3315 20.7025 8.99069 20.021 6.6 20.0187H0V21.2187C0 28.1664 5.6523 33.8187 12.6 33.8187H23.4C30.3477 33.8187 36 28.1664 36 21.2187V20.0187H29.4ZM12.6 31.4187C7.38143 31.4187 3.0657 27.4798 2.4702 22.4187H6.6C11.8186 22.4187 16.1343 26.3576 16.7298 31.4187H12.6ZM23.4 31.4187H19.2702C19.8657 26.3576 24.1814 22.4187 29.4 22.4187H33.5298C32.9343 27.4798 28.6186 31.4187 23.4 31.4187Z" fill="white"/>
<path d="M11.4889 16.9267C11.7158 18.2762 12.3596 19.5207 13.3299 20.4857L13.6814 20.8371H14.1784C15.5469 20.8409 16.8821 20.4162 17.9969 19.6224C19.1115 20.4163 20.4468 20.8411 21.8153 20.8374H22.3123L22.6638 20.486C23.6341 19.521 24.2779 18.2765 24.5048 16.927C25.8543 16.7 27.0988 16.0562 28.0638 15.086L28.4153 14.7345V14.2374C28.4191 12.8689 27.9944 11.5335 27.2006 10.4187C27.9944 9.30405 28.4193 7.96878 28.4156 6.60032V6.1033L28.0641 5.75177C27.0991 4.7815 25.8546 4.13771 24.5051 3.91075C24.2782 2.56128 23.6344 1.31674 22.6641 0.351774L22.3126 0.000324408H21.8155C20.447 -0.00354092 19.1116 0.421234 17.9969 1.21502C16.8822 0.421178 15.5469 -0.00370084 14.1784 2.42871e-05H13.6814L13.3299 0.351474C12.3596 1.31644 11.7158 2.56098 11.4889 3.91045C10.1394 4.13741 8.89486 4.7812 7.9299 5.75147L7.57845 6.103V6.60003C7.57458 7.96855 7.99936 9.30393 8.79315 10.4187C7.9993 11.5334 7.57442 12.8687 7.57815 14.2371V14.7342L7.9296 15.0857C8.89464 16.056 10.1393 16.6998 11.4889 16.9267ZM11.2087 9.57025C10.5431 8.90872 10.1203 8.04196 10.0087 7.11025C10.7464 6.53016 11.6584 6.21603 12.5968 6.21872H13.7968V5.01872C13.7941 4.08034 14.1082 3.16849 14.6882 2.43077C15.6199 2.54243 16.4866 2.96524 17.1482 3.63078L17.9969 4.47873L18.8453 3.63025C19.5069 2.96472 20.3736 2.54191 21.3053 2.43025C21.8855 3.16808 22.1996 4.08013 22.1969 5.01872V6.21872H23.3969C24.3352 6.21602 25.2471 6.53006 25.9848 7.11003C25.8731 8.04173 25.4503 8.90849 24.7848 9.57003L23.9369 10.4187L24.7854 11.2673C25.4509 11.9288 25.8737 12.7956 25.9854 13.7273C25.2475 14.3074 24.3355 14.6215 23.3969 14.6187H22.1969V15.8187C22.1996 16.7571 21.8855 17.669 21.3056 18.4067C20.3738 18.295 19.5071 17.8722 18.8456 17.2067L17.9969 16.3587L17.1483 17.207C16.4868 17.8725 15.62 18.2953 14.6883 18.407C14.1082 17.6692 13.7941 16.7572 13.7968 15.8187V14.6187H12.5968C11.6585 14.6214 10.7466 14.3074 10.0089 13.7274C10.1206 12.7957 10.5434 11.929 11.2089 11.2674L12.0569 10.4187L11.2087 9.57025Z" fill="white"/>
</svg>
