<svg width="39" height="38" viewBox="0 0 39 38" fill="none" xmlns="http://www.w3.org/2000/svg">
<path d="M28.75 10.25L38 14.4545V36.3182L26.2273 31.2727L12.7727 36.3182L1 31.2727V9.40909L9.40909 12.7727L28.75 10.25ZM26.2273 31.2727V19.5V31.2727ZM12.7727 36.3182V19.5V36.3182ZM19.5 26.6864C19.5 26.6864 9.40909 18.6591 9.40909 11.0909C9.40909 4.78409 14.4545 1 19.5 1C24.5455 1 29.5909 4.78409 29.5909 11.0909C29.5909 18.6591 19.5 26.6864 19.5 26.6864ZM21.1818 11.0909C21.1818 10.6449 21.0046 10.2171 20.6892 9.90169C20.3738 9.58628 19.946 9.40909 19.5 9.40909C19.054 9.40909 18.6262 9.58628 18.3108 9.90169C17.9954 10.2171 17.8182 10.6449 17.8182 11.0909C17.8182 11.537 17.9954 11.9647 18.3108 12.2801C18.6262 12.5955 19.054 12.7727 19.5 12.7727C19.946 12.7727 20.3738 12.5955 20.6892 12.2801C21.0046 11.9647 21.1818 11.537 21.1818 11.0909Z" stroke="white" stroke-width="2"/>
</svg>
