<svg width="14" height="17" viewBox="0 0 14 17" fill="none" xmlns="http://www.w3.org/2000/svg">
<path d="M6.6 15C6.6 15 1 10.8 1 6.6C1 3.1 3.8 1 6.6 1C9.4 1 12.2 3.1 12.2 6.6C12.2 10.8 6.6 15 6.6 15ZM6.6 8.7C7.15695 8.7 7.6911 8.47875 8.08492 8.08492C8.47875 7.6911 8.7 7.15695 8.7 6.6C8.7 6.04305 8.47875 5.5089 8.08492 5.11508C7.6911 4.72125 7.15695 4.5 6.6 4.5C6.04305 4.5 5.5089 4.72125 5.11508 5.11508C4.72125 5.5089 4.5 6.04305 4.5 6.6C4.5 7.15695 4.72125 7.6911 5.11508 8.08492C5.5089 8.47875 6.04305 8.7 6.6 8.7V8.7Z" stroke="#003457" stroke-width="2"/>
</svg>
