<svg width="35" height="35" viewBox="0 0 35 35" fill="none" xmlns="http://www.w3.org/2000/svg">
<path d="M28.5573 32.2119H5.91016V34.7854H28.5573V32.2119Z" fill="#232C4F"/>
<path d="M21.3156 11.4954H13.3806C12.6698 11.4954 12.0938 12.0714 12.0938 12.7822C12.0938 13.4929 12.6698 14.069 13.3806 14.069H21.3156C22.0263 14.069 22.6024 13.4929 22.6024 12.7822C22.6024 12.0714 22.0263 11.4954 21.3156 11.4954Z" fill="#232C4F"/>
<path d="M27.3205 17.5H13.3805C12.6698 17.5 12.0938 18.0761 12.0938 18.7868C12.0938 19.4975 12.6698 20.0736 13.3805 20.0736H27.3206C28.0313 20.0736 28.6073 19.4975 28.6073 18.7868C28.6073 18.0761 28.0312 17.5 27.3205 17.5Z" fill="#232C4F"/>
<path d="M34.2418 0.156714C33.7798 -0.0508936 33.2398 0.0310694 32.8606 0.366031L29.2573 3.55377L25.6496 0.327818C25.161 -0.109273 24.4225 -0.109273 23.9339 0.327818L20.3309 3.54987L16.7276 0.327818C16.239 -0.109273 15.5009 -0.109273 15.0123 0.327818L11.4046 3.55377L7.80126 0.366031C7.42254 0.0314795 6.88209 -0.0504835 6.42012 0.156714C5.95862 0.364732 5.66181 0.823698 5.66181 1.32983V24.2343H1.2868C0.576066 24.2342 0 24.8103 0 25.521V28.6522C0 32.0342 2.75154 34.7857 6.13356 34.7857V32.2122C4.17041 32.2122 2.57353 30.6149 2.57353 28.6522V26.8078H22.7329V28.6522C22.7329 32.0342 25.4844 34.7858 28.8664 34.7858C32.2485 34.7858 35 32.0343 35 28.6522V1.32976C35.0001 0.823629 34.7033 0.364732 34.2418 0.156714ZM32.4265 28.6522C32.4265 30.6149 30.8293 32.2122 28.8665 32.2122C26.9038 32.2122 25.3065 30.6149 25.3065 28.6522V25.521C25.3065 24.8103 24.7304 24.2342 24.0197 24.2342H8.23534V4.18596L10.5571 6.24009C11.0461 6.67247 11.7812 6.67028 12.2672 6.23538L15.8701 3.01332L19.4731 6.23497C19.9617 6.67206 20.7002 6.67206 21.1888 6.23497L24.7921 3.01291L28.3951 6.23497C28.8815 6.66987 29.6167 6.67158 30.1052 6.23968L32.4265 4.18603V28.6522Z" fill="#232C4F"/>
</svg>
