<svg width="36" height="23" viewBox="0 0 36 23" fill="none" xmlns="http://www.w3.org/2000/svg">
<path d="M10.95 6.9C12.15 7.5 13.5 8.85 13.5 11.1C13.5 13.35 12.15 14.7 10.95 15.3C10.35 13.2 10.35 9 10.95 6.9ZM9.75 3.6C6.75 3.6 6.75 18.6 9.75 18.6C12.75 18.6 16.5 15.75 16.5 11.1C16.5 6.45 12.75 3.6 9.75 3.6ZM25.05 6.9C25.5 9 25.5 13.2 25.05 15.3C23.85 14.7 22.5 13.35 22.5 11.1C22.5 8.85 23.85 7.5 25.05 6.9ZM26.25 3.6C23.25 3.6 19.5 6.45 19.5 11.1C19.5 15.75 23.25 18.6 26.25 18.6C29.25 18.6 29.25 3.6 26.25 3.6ZM7.35 2.4L3.75 0L2.1 2.55L6 5.1C6.3 4.05 6.75 3 7.35 2.4ZM30 5.1L33.9 2.55L32.25 0L28.65 2.4C29.1 3 29.7 3.9 30 5.1ZM6 17.1L2.1 19.65L3.75 22.2L7.35 19.8C6.9 19.2 6.3 18.3 6 17.1ZM30.75 9.6V12.6H36V9.6H30.75ZM28.65 19.8L32.25 22.2L33.9 19.65L30 17.1C29.7 18.15 29.25 19.2 28.65 19.8ZM5.25 11.1V9.6H0V12.6H5.25V11.1Z" fill="#232C4F"/>
</svg>
