<svg width="1920" height="1080" viewBox="0 0 1920 1080" fill="none" xmlns="http://www.w3.org/2000/svg" xmlns:xlink="http://www.w3.org/1999/xlink">
<mask id="mask0_715_6673" style="mask-type:alpha" maskUnits="userSpaceOnUse" x="0" y="0" width="1920" height="1080">
<rect width="1920" height="1080" transform="matrix(-1 0 0 1 1920 0)" fill="#F0F5F8"/>
<defs>
<pattern id="pattern0" patternContentUnits="objectBoundingBox" width="1" height="1">
<use xlink:href="#image0_715_6673" transform="translate(-0.0652778) scale(0.000282639 0.000444444)"/>
</pattern>
<linearGradient id="paint0_linear_715_6673" x1="960" y1="0" x2="960" y2="585" gradientUnits="userSpaceOnUse">
<stop/>
<stop offset="1" stop-opacity="0"/>
</linearGradient>
<image id="image0_715_6673" width="4000" height="2250" xlink:href="img/home.png"/>
</defs>
</mask>
<g mask="url(#mask0_715_6673)">
<rect y="-88" width="1920" height="1221" fill="url(#pattern0)"/>
<rect opacity="0.44" width="1920" height="585" transform="matrix(-1 0 0 1 1920 0)" fill="url(#paint0_linear_715_6673)"/>
</g>
<path d="M1240.74 654.115L1084.33 543.939C1083.5 543.353 1083.02 542.387 1083.06 541.371L1090.92 336.101C1090.97 334.84 1091.8 333.744 1093 333.358L1167.7 309.416C1168.53 309.152 1169.43 309.257 1170.17 309.704L1235.94 349.362C1236.62 349.771 1237.43 349.895 1238.2 349.708L1346.87 323.276C1347.6 323.098 1348.36 323.201 1349.02 323.564L1424.45 365.145C1425.41 365.672 1426 366.679 1426 367.772V402.378C1426 403.39 1426.51 404.334 1427.36 404.888L1508.54 458.042C1509.44 458.634 1509.96 459.666 1509.89 460.745L1503.13 565.96C1503.05 567.191 1502.23 568.248 1501.05 568.624L1451.3 584.585C1450.47 584.849 1449.58 584.745 1448.83 584.299L1326.34 510.698C1325.6 510.254 1324.7 510.15 1323.88 510.411L1301.98 517.37C1300.79 517.749 1299.96 518.828 1299.9 520.078L1294.1 634.978C1294.04 636.2 1293.24 637.262 1292.09 637.662L1243.45 654.497C1242.54 654.813 1241.53 654.671 1240.74 654.115Z" fill="#2A95CC" fill-opacity="0.39"/>
<path d="M1241.61 652.889L1085.2 542.712C1084.78 542.42 1084.54 541.936 1084.56 541.429L1092.42 336.158C1092.44 335.527 1092.86 334.979 1093.46 334.787L1168.16 310.844L1167.7 309.416L1168.16 310.844C1168.57 310.712 1169.02 310.765 1169.39 310.988L1235.17 350.647C1236.18 351.26 1237.4 351.446 1238.55 351.166L1347.22 324.734C1347.58 324.645 1347.97 324.696 1348.3 324.877L1423.72 366.458C1424.2 366.722 1424.5 367.225 1424.5 367.772V402.378C1424.5 403.896 1425.27 405.312 1426.53 406.143L1507.72 459.297C1508.17 459.593 1508.43 460.109 1508.39 460.648L1501.63 565.864C1501.59 566.479 1501.18 567.008 1500.6 567.196L1450.84 583.156C1450.43 583.288 1449.98 583.236 1449.61 583.014L1327.11 509.412C1326 508.747 1324.66 508.59 1323.43 508.981L1301.53 515.94C1299.74 516.509 1298.49 518.128 1298.4 520.002L1292.6 634.903C1292.57 635.514 1292.17 636.045 1291.6 636.245L1242.96 653.08C1242.51 653.238 1242 653.166 1241.61 652.889Z" stroke="white" stroke-opacity="0.45" stroke-width="3"/>
<rect x="1284" y="60" width="73" height="32" rx="3" fill="white"/>
<path d="M1321 103L1313 92H1329L1321 103Z" fill="white"/>
<path d="M1303.61 68.7227V71.2227H1297.61V83H1294.58V68.7227H1303.61ZM1317.11 83H1314.09V71.2422H1308.84V83H1305.81V68.7227H1317.11V83ZM1319.51 78.8594V76.418H1324.76V78.8594H1319.51ZM1331.36 73.8789C1332.74 73.8789 1333.84 74.2663 1334.65 75.041C1335.47 75.8158 1335.88 76.877 1335.88 78.2246C1335.88 79.8197 1335.39 81.0469 1334.41 81.9062C1333.42 82.7656 1332.02 83.1953 1330.19 83.1953C1328.6 83.1953 1327.32 82.9382 1326.34 82.4238V79.8164C1326.85 80.0898 1327.45 80.3145 1328.14 80.4902C1328.82 80.6595 1329.47 80.7441 1330.08 80.7441C1331.92 80.7441 1332.84 79.9889 1332.84 78.4785C1332.84 77.0397 1331.89 76.3203 1329.98 76.3203C1329.64 76.3203 1329.26 76.3561 1328.84 76.4277C1328.42 76.4928 1328.08 76.5645 1327.82 76.6426L1326.62 75.998L1327.16 68.7227H1334.9V71.2812H1329.81L1329.54 74.084L1329.88 74.0156C1330.28 73.9245 1330.77 73.8789 1331.36 73.8789ZM1347.01 71.916C1347.01 72.8079 1346.74 73.5664 1346.2 74.1914C1345.66 74.8164 1344.9 75.2461 1343.93 75.4805V75.5391C1345.08 75.6823 1345.95 76.0339 1346.54 76.5938C1347.14 77.1471 1347.43 77.8958 1347.43 78.8398C1347.43 80.2135 1346.94 81.2845 1345.94 82.0527C1344.94 82.8145 1343.52 83.1953 1341.67 83.1953C1340.12 83.1953 1338.75 82.9382 1337.55 82.4238V79.8555C1338.1 80.1354 1338.71 80.3633 1339.38 80.5391C1340.04 80.7148 1340.7 80.8027 1341.35 80.8027C1342.35 80.8027 1343.08 80.6335 1343.56 80.2949C1344.03 79.9564 1344.27 79.4128 1344.27 78.6641C1344.27 77.9935 1344 77.5182 1343.45 77.2383C1342.9 76.9583 1342.03 76.8184 1340.83 76.8184H1339.75V74.5039H1340.85C1341.96 74.5039 1342.77 74.3607 1343.27 74.0742C1343.79 73.7812 1344.04 73.2832 1344.04 72.5801C1344.04 71.4993 1343.37 70.959 1342.01 70.959C1341.54 70.959 1341.07 71.0371 1340.58 71.1934C1340.1 71.3496 1339.56 71.6198 1338.97 72.0039L1337.57 69.9238C1338.87 68.9863 1340.43 68.5176 1342.23 68.5176C1343.71 68.5176 1344.87 68.8171 1345.72 69.416C1346.58 70.015 1347.01 70.8483 1347.01 71.916Z" fill="#173D50"/>
<rect x="1692" y="152" width="73" height="32" rx="3" fill="white"/>
<path d="M1729 195L1721 184H1737L1729 195Z" fill="white"/>
<path d="M1711.61 160.723V163.223H1705.61V175H1702.58V160.723H1711.61ZM1725.11 175H1722.09V163.242H1716.84V175H1713.81V160.723H1725.11V175ZM1727.51 170.859V168.418H1732.76V170.859H1727.51ZM1739.36 165.879C1740.74 165.879 1741.84 166.266 1742.65 167.041C1743.47 167.816 1743.88 168.877 1743.88 170.225C1743.88 171.82 1743.39 173.047 1742.41 173.906C1741.42 174.766 1740.02 175.195 1738.19 175.195C1736.6 175.195 1735.32 174.938 1734.34 174.424V171.816C1734.85 172.09 1735.45 172.314 1736.14 172.49C1736.82 172.66 1737.47 172.744 1738.08 172.744C1739.92 172.744 1740.84 171.989 1740.84 170.479C1740.84 169.04 1739.89 168.32 1737.98 168.32C1737.64 168.32 1737.26 168.356 1736.84 168.428C1736.42 168.493 1736.08 168.564 1735.82 168.643L1734.62 167.998L1735.16 160.723H1742.9V163.281H1737.81L1737.54 166.084L1737.88 166.016C1738.28 165.924 1738.77 165.879 1739.36 165.879ZM1755.89 172.041H1754.17V175H1751.22V172.041H1745.13V169.941L1751.39 160.723H1754.17V169.697H1755.89V172.041ZM1751.22 169.697V167.275C1751.22 166.872 1751.24 166.286 1751.27 165.518C1751.31 164.749 1751.33 164.303 1751.35 164.18H1751.27C1751.03 164.714 1750.74 165.234 1750.4 165.742L1747.79 169.697H1751.22Z" fill="#173D50"/>
<rect x="696" y="236" width="73" height="32" rx="3" fill="white"/>
<path d="M733 279L725 268H741L733 279Z" fill="white"/>
<path d="M715.605 244.723V247.223H709.609V259H706.582V244.723H715.605ZM729.111 259H726.094V247.242H720.84V259H717.812V244.723H729.111V259ZM731.514 254.859V252.418H736.758V254.859H731.514ZM743.359 249.879C744.74 249.879 745.837 250.266 746.65 251.041C747.471 251.816 747.881 252.877 747.881 254.225C747.881 255.82 747.389 257.047 746.406 257.906C745.423 258.766 744.017 259.195 742.188 259.195C740.599 259.195 739.316 258.938 738.34 258.424V255.816C738.854 256.09 739.453 256.314 740.137 256.49C740.82 256.66 741.468 256.744 742.08 256.744C743.923 256.744 744.844 255.989 744.844 254.479C744.844 253.04 743.89 252.32 741.982 252.32C741.637 252.32 741.257 252.356 740.84 252.428C740.423 252.493 740.085 252.564 739.824 252.643L738.623 251.998L739.16 244.723H746.904V247.281H741.807L741.543 250.084L741.885 250.016C742.282 249.924 742.773 249.879 743.359 249.879ZM754.785 249.879C756.165 249.879 757.262 250.266 758.076 251.041C758.896 251.816 759.307 252.877 759.307 254.225C759.307 255.82 758.815 257.047 757.832 257.906C756.849 258.766 755.443 259.195 753.613 259.195C752.025 259.195 750.742 258.938 749.766 258.424V255.816C750.28 256.09 750.879 256.314 751.562 256.49C752.246 256.66 752.894 256.744 753.506 256.744C755.348 256.744 756.27 255.989 756.27 254.479C756.27 253.04 755.316 252.32 753.408 252.32C753.063 252.32 752.682 252.356 752.266 252.428C751.849 252.493 751.51 252.564 751.25 252.643L750.049 251.998L750.586 244.723H758.33V247.281H753.232L752.969 250.084L753.311 250.016C753.708 249.924 754.199 249.879 754.785 249.879Z" fill="#173D50"/>
</svg>
