<svg width="28" height="27" viewBox="0 0 28 27" fill="none" xmlns="http://www.w3.org/2000/svg">
<path d="M14.1927 25.9451C14.1927 26.5277 13.7185 26.9998 13.1335 26.9998H6.88462C4.54838 26.9998 2.64782 25.1073 2.64782 22.7813V12.5679L1.80729 13.4032C1.39333 13.8146 0.722847 13.8139 0.309511 13.4017C-0.103825 12.9893 -0.102997 12.3217 0.310959 11.9101L11.4475 0.842933C11.4617 0.828719 11.4764 0.815124 11.4913 0.801734C12.7011 -0.270668 14.522 -0.266755 15.7271 0.810592C15.742 0.823982 15.7567 0.837783 15.7707 0.851997L26.8067 11.9132C27.219 12.3265 27.2167 12.9943 26.8017 13.4048C26.5952 13.6092 26.3253 13.7114 26.0553 13.7114C25.7831 13.7114 25.5108 13.6075 25.3039 13.3999L14.293 2.36358C13.8977 2.02637 13.3157 2.02513 12.919 2.36069L4.76477 10.4643C4.76498 10.4744 4.76622 10.4843 4.76622 10.4946V22.7813C4.76622 23.9443 5.7166 24.8906 6.88462 24.8906H13.1335C13.7185 24.8904 14.1927 25.3628 14.1927 25.9451ZM15.7285 19.6172C14.2684 19.6172 13.0805 18.4344 13.0805 16.9807C13.0805 15.5268 14.2684 14.344 15.7285 14.344C17.1886 14.344 18.3763 15.5268 18.3763 16.9807C18.3763 18.4344 17.1886 19.6172 15.7285 19.6172ZM16.2581 16.9807C16.2581 16.6898 16.0206 16.4533 15.7285 16.4533C15.4364 16.4533 15.1989 16.6898 15.1989 16.9807C15.1989 17.2713 15.4364 17.508 15.7285 17.508C16.0206 17.508 16.2581 17.2715 16.2581 16.9807ZM27.1145 24.3631C27.1145 25.817 25.9266 26.9998 24.4665 26.9998C23.0066 26.9998 21.8187 25.817 21.8187 24.3631C21.8187 22.9094 23.0066 21.7266 24.4665 21.7266C25.9266 21.7266 27.1145 22.9094 27.1145 24.3631ZM24.9961 24.3631C24.9961 24.0724 24.7586 23.8359 24.4665 23.8359C24.1746 23.8359 23.9369 24.0724 23.9369 24.3631C23.9369 24.6539 24.1746 24.8904 24.4665 24.8904C24.7586 24.8904 24.9961 24.6539 24.9961 24.3631ZM23.592 14.4725C23.0784 14.194 22.435 14.3827 22.1553 14.8944L16.387 25.4408C16.1073 25.9523 16.297 26.5928 16.8107 26.8715C16.9716 26.9586 17.1452 27 17.3163 27C17.6918 27 18.0552 26.8008 18.2474 26.4496L24.0155 15.9031C24.2952 15.3916 24.1057 14.751 23.592 14.4725Z" fill="#232C4F"/>
</svg>
