<svg width="11" height="11" viewBox="0 0 11 11" fill="none" xmlns="http://www.w3.org/2000/svg">
<path d="M7.93558 0.333984H3.45894C1.93322 0.333984 0.697266 1.56921 0.697266 3.09403V7.57394C0.697266 9.09285 1.93322 10.334 3.45894 10.334H7.9415C9.46131 10.334 10.7032 9.09876 10.7032 7.57394V3.09403C10.6973 1.56921 9.45539 0.333984 7.93558 0.333984ZM9.81021 7.56803C9.81021 8.60231 8.97048 9.44155 7.93558 9.44155H3.45894C2.42405 9.44155 1.58431 8.60231 1.58431 7.56803V3.09403C1.58431 2.05975 2.42405 1.22051 3.45894 1.22051H7.9415C8.97639 1.22051 9.81613 2.05975 9.81613 3.09403L9.81021 7.56803Z" fill="#161616"/>
<path d="M5.69647 2.75586C4.27719 2.75586 3.12402 3.90834 3.12402 5.32678C3.12402 6.74522 4.27719 7.90361 5.70238 7.90361C7.12757 7.90361 8.28074 6.75113 8.28074 5.32678C8.27482 3.90834 7.12166 2.75586 5.69647 2.75586ZM5.69647 7.01709C4.76802 7.01709 4.00516 6.26059 4.00516 5.32678C4.01107 4.39889 4.76802 3.64238 5.69647 3.64238C6.62491 3.64238 7.38777 4.39889 7.38777 5.33269C7.38777 6.26059 6.63082 7.01709 5.69647 7.01709Z" fill="#161616"/>
<path d="M8.37511 2.00586C8.20361 2.00586 8.03803 2.07678 7.91385 2.19498C7.78966 2.31319 7.72461 2.48458 7.72461 2.65598C7.72461 2.82737 7.79557 2.99286 7.91385 3.11697C8.03212 3.23517 8.20361 3.3061 8.37511 3.3061C8.5466 3.3061 8.71219 3.23517 8.83637 3.11697C8.96056 2.99877 9.02561 2.82737 9.02561 2.65598C9.02561 2.48458 8.95465 2.3191 8.83637 2.19498C8.7181 2.07087 8.5466 2.00586 8.37511 2.00586Z" fill="#161616"/>
</svg>
