<svg width="26" height="28" viewBox="0 0 26 28" fill="none" xmlns="http://www.w3.org/2000/svg">
<path d="M13.5208 0.0209509C12.4696 -0.0636511 11.4137 0.10879 10.444 0.523395C9.47437 0.937999 8.62018 1.58231 7.95514 2.40074C7.29009 3.21917 6.83418 4.18712 6.62674 5.22108C6.4193 6.25504 6.46657 7.32394 6.76445 8.33556L0.285982 14.8124C0.103093 14.9951 0.000227553 15.2429 0 15.5014V20.1486C0 20.4071 0.102717 20.6551 0.285553 20.838C0.46839 21.0208 0.716369 21.1235 0.974939 21.1235H5.52465C5.78322 21.1235 6.0312 21.0208 6.21404 20.838C6.39688 20.6551 6.49959 20.4071 6.49959 20.1486V17.8737H9.5869C9.84547 17.8737 10.0934 17.771 10.2763 17.5882C10.4591 17.4053 10.5618 17.1573 10.5618 16.8988V14.1478L11.7561 12.9535C11.4061 12.5249 11.0966 12.0647 10.8316 11.5789L9.22292 13.1891C9.04003 13.3718 8.93717 13.6196 8.93694 13.8781V16.2488H5.85126C5.59269 16.2488 5.34471 16.3515 5.16187 16.5344C4.97904 16.7172 4.87632 16.9652 4.87632 17.2238V19.4986H1.62652V15.7727L8.64608 8.75315L8.45435 8.26081C8.21036 7.63064 8.10001 6.95663 8.13031 6.28155C8.1606 5.60648 8.33088 4.94507 8.63033 4.33928C8.92979 3.7335 9.35188 3.19656 9.86984 2.76255C10.3878 2.32854 10.9903 2.00691 11.6391 1.81809C12.1754 1.13076 12.8091 0.524669 13.5192 0.0209509H13.5208ZM18.688 6.90565C18.848 6.90565 19.0065 6.87412 19.1543 6.81288C19.3022 6.75164 19.4365 6.66187 19.5497 6.5487C19.6629 6.43554 19.7526 6.30119 19.8139 6.15334C19.8751 6.00548 19.9066 5.84701 19.9066 5.68697C19.9066 5.52693 19.8751 5.36846 19.8139 5.22061C19.7526 5.07275 19.6629 4.9384 19.5497 4.82524C19.4365 4.71207 19.3022 4.62231 19.1543 4.56106C19.0065 4.49982 18.848 4.4683 18.688 4.4683C18.3647 4.4683 18.0548 4.59669 17.8262 4.82524C17.5977 5.05378 17.4693 5.36376 17.4693 5.68697C17.4693 6.01018 17.5977 6.32016 17.8262 6.5487C18.0548 6.77725 18.3647 6.90565 18.688 6.90565ZM11.3759 7.31187C11.376 6.04864 11.7034 4.80698 12.3261 3.7079C12.9488 2.60882 13.8457 1.68981 14.9292 1.04045C16.0128 0.391082 17.2461 0.0335095 18.5089 0.00257663C19.7718 -0.0283562 21.0211 0.268406 22.1351 0.863942C23.2492 1.45948 24.1899 2.33347 24.8657 3.40075C25.5415 4.46802 25.9293 5.69216 25.9912 6.95388C26.0531 8.21559 25.7872 9.47183 25.2192 10.6002C24.6512 11.7285 23.8006 12.6904 22.7502 13.3922V16.7233L24.0225 17.9972C24.2051 18.18 24.3076 18.4278 24.3076 18.6862C24.3076 18.9445 24.2051 19.1923 24.0225 19.3751L22.2741 21.1235L24.0095 22.8573C24.1065 22.9543 24.1819 23.0707 24.2308 23.1988C24.2797 23.327 24.301 23.464 24.2933 23.601C24.2857 23.7379 24.2492 23.8717 24.1863 23.9936C24.1234 24.1155 24.0354 24.2227 23.9283 24.3083L20.1097 27.3631C19.9368 27.5016 19.7219 27.577 19.5004 27.577C19.2789 27.577 19.064 27.5016 18.8911 27.3631L14.9913 24.2433C14.8773 24.152 14.7853 24.0363 14.722 23.9047C14.6587 23.7731 14.6258 23.6289 14.6257 23.4829V13.3922C13.6254 12.7246 12.8054 11.8202 12.2384 10.7595C11.6715 9.69882 11.3752 8.51457 11.3759 7.31187ZM18.688 1.62473C17.4355 1.62416 16.218 2.03702 15.2242 2.79923C14.2305 3.56144 13.5161 4.63037 13.192 5.84012C12.8679 7.04986 12.9522 8.33276 13.4318 9.48971C13.9114 10.6466 14.7594 11.6129 15.8444 12.2386C15.9679 12.3099 16.0704 12.4124 16.1418 12.5359C16.2131 12.6594 16.2506 12.7995 16.2506 12.9421V23.1709L19.5004 25.7707L22.3456 23.4942L20.6655 21.8125C20.4829 21.6297 20.3803 21.3819 20.3803 21.1235C20.3803 20.8651 20.4829 20.6174 20.6655 20.4345L22.4138 18.6862L21.4113 17.6836C21.2284 17.5009 21.1255 17.2531 21.1253 16.9946V12.9421C21.1253 12.7995 21.1628 12.6594 21.2342 12.5359C21.3055 12.4124 21.408 12.3099 21.5315 12.2386C22.6165 11.6129 23.4646 10.6466 23.9442 9.48971C24.4237 8.33276 24.508 7.04986 24.1839 5.84012C23.8598 4.63037 23.1455 3.56144 22.1517 2.79923C21.1579 2.03702 19.9404 1.62416 18.688 1.62473Z" fill="#232C4F"/>
</svg>
