<svg width="28" height="28" viewBox="0 0 28 28" fill="none" xmlns="http://www.w3.org/2000/svg">
<path d="M27.7358 2.94693V25.0531C27.7358 26.5324 26.5324 27.7358 25.0531 27.7358H22.4418C21.849 27.7358 21.3686 27.2555 21.3686 26.6627C21.3686 26.07 21.849 25.5896 22.4418 25.5896H25.0531C25.349 25.5896 25.5896 25.349 25.5896 25.0531V15.1274H16.6387C16.046 15.1274 15.5656 14.647 15.5656 14.0543C15.5656 13.4616 16.046 12.9812 16.6387 12.9812H25.5896V2.94693C25.5896 2.65099 25.349 2.41038 25.0531 2.41038H12.9309V5.02994C12.9309 5.62267 12.4503 6.10306 11.8578 6.10306C11.265 6.10306 10.7846 5.62267 10.7846 5.02994V2.41038H2.94693C2.65099 2.41038 2.41038 2.65099 2.41038 2.94693V12.9269H10.7846V10.3073C10.7846 9.71459 11.265 9.23421 11.8578 9.23421C12.4503 9.23421 12.9309 9.71459 12.9309 10.3073V17.6925C12.9309 18.2852 12.4503 18.7656 11.8578 18.7656C11.265 18.7656 10.7846 18.2852 10.7846 17.6925V15.0731H2.41038V25.0531C2.41038 25.349 2.65099 25.5896 2.94693 25.5896H10.7846V22.9701C10.7846 22.3773 11.265 21.8969 11.8578 21.8969C12.4503 21.8969 12.9309 22.3773 12.9309 22.9701V25.5896H17.6925C18.2852 25.5896 18.7656 26.07 18.7656 26.6627C18.7656 27.2555 18.2852 27.7358 17.6925 27.7358H2.94693C1.46763 27.7358 0.264151 26.5324 0.264151 25.0531V2.94693C0.264151 1.46763 1.46763 0.264151 2.94693 0.264151H25.0531C26.5324 0.264151 27.7358 1.46763 27.7358 2.94693Z" fill="#232C4F"/>
<path fill-rule="evenodd" clip-rule="evenodd" d="M2.94693 0.528302C1.61352 0.528302 0.528302 1.61352 0.528302 2.94693V25.0531C0.528302 26.3865 1.61352 27.4717 2.94693 27.4717H17.6925C18.1393 27.4717 18.5014 27.1096 18.5014 26.6627C18.5014 26.2159 18.1393 25.8538 17.6925 25.8538H12.6667V22.9701C12.6667 22.5232 12.3044 22.1611 11.8578 22.1611C11.4109 22.1611 11.0488 22.5232 11.0488 22.9701V25.8538H2.94693C2.5051 25.8538 2.14623 25.4949 2.14623 25.0531V14.809H11.0488V17.6925C11.0488 18.1393 11.4109 18.5014 11.8578 18.5014C12.3044 18.5014 12.6667 18.1393 12.6667 17.6925V10.3073C12.6667 9.86051 12.3044 9.49836 11.8578 9.49836C11.4109 9.49836 11.0488 9.86048 11.0488 10.3073V13.191H2.14623V2.94693C2.14623 2.5051 2.5051 2.14623 2.94693 2.14623H11.0488V5.02994C11.0488 5.47679 11.4109 5.83891 11.8578 5.83891C12.3044 5.83891 12.6667 5.47675 12.6667 5.02994V2.14623H25.0531C25.4949 2.14623 25.8538 2.5051 25.8538 2.94693V13.2453H16.6387C16.1918 13.2453 15.8297 13.6074 15.8297 14.0543C15.8297 14.5011 16.1918 14.8632 16.6387 14.8632H25.8538V25.0531C25.8538 25.4949 25.4949 25.8538 25.0531 25.8538H22.4418C21.9949 25.8538 21.6328 26.2159 21.6328 26.6627C21.6328 27.1096 21.9949 27.4717 22.4418 27.4717H25.0531C26.3865 27.4717 27.4717 26.3865 27.4717 25.0531V2.94693C27.4717 1.61352 26.3865 0.528302 25.0531 0.528302H2.94693ZM0 2.94693C0 1.32174 1.32174 0 2.94693 0H25.0531C26.6783 0 28 1.32174 28 2.94693V25.0531C28 26.6783 26.6783 28 25.0531 28H22.4418C21.7031 28 21.1045 27.4014 21.1045 26.6627C21.1045 25.9241 21.7031 25.3255 22.4418 25.3255H25.0531C25.2031 25.3255 25.3255 25.2031 25.3255 25.0531V15.3915H16.6387C15.9001 15.3915 15.3014 14.7929 15.3014 14.0543C15.3014 13.3157 15.9001 12.717 16.6387 12.717H25.3255V2.94693C25.3255 2.79688 25.2031 2.67453 25.0531 2.67453H13.195V5.02994C13.195 5.76859 12.5961 6.36721 11.8578 6.36721C11.1191 6.36721 10.5205 5.76856 10.5205 5.02994V2.67453H2.94693C2.79688 2.67453 2.67453 2.79688 2.67453 2.94693V12.6627H10.5205V10.3073C10.5205 9.56871 11.1191 8.97006 11.8578 8.97006C12.5961 8.97006 13.195 9.56867 13.195 10.3073V17.6925C13.195 18.4311 12.5961 19.0297 11.8578 19.0297C11.1191 19.0297 10.5205 18.4311 10.5205 17.6925V15.3373H2.67453V25.0531C2.67453 25.2031 2.79688 25.3255 2.94693 25.3255H10.5205V22.9701C10.5205 22.2314 11.1191 21.6328 11.8578 21.6328C12.5961 21.6328 13.195 22.2314 13.195 22.9701V25.3255H17.6925C18.4311 25.3255 19.0297 25.9241 19.0297 26.6627C19.0297 27.4014 18.4311 28 17.6925 28H2.94693C1.32174 28 0 26.6783 0 25.0531V2.94693Z" fill="#232C4F"/>
</svg>
