<svg width="20" height="28" viewBox="0 0 20 28" fill="none" xmlns="http://www.w3.org/2000/svg">
<path d="M7.42857 26.7143H12.5714H7.42857ZM1 10C1 7.61305 1.94821 5.32387 3.63604 3.63604C5.32387 1.94821 7.61305 1 10 1C12.3869 1 14.6761 1.94821 16.364 3.63604C18.0518 5.32387 19 7.61305 19 10C19.0008 11.4491 18.6504 12.8768 17.9786 14.1608C17.3068 15.4447 16.3338 16.5467 15.1429 17.3723L14.446 20.6714C14.3537 21.2795 14.0466 21.8344 13.5802 22.2354C13.1139 22.6365 12.5192 22.857 11.9041 22.8571H8.09586C7.48079 22.857 6.88615 22.6365 6.41979 22.2354C5.95343 21.8344 5.64626 21.2795 5.554 20.6714L4.85714 17.3864C3.66581 16.5579 2.69274 15.4534 2.02105 14.1671C1.34937 12.8808 0.999044 11.4511 1 10V10Z" stroke="#232C4F" stroke-width="2" stroke-linecap="round" stroke-linejoin="round"/>
</svg>
