<svg width="23" height="26" viewBox="0 0 23 26" fill="none" xmlns="http://www.w3.org/2000/svg">
<path d="M19.6667 10.333H3.33333C2.04467 10.333 1 11.3777 1 12.6663V21.9997C1 23.2883 2.04467 24.333 3.33333 24.333H19.6667C20.9553 24.333 22 23.2883 22 21.9997V12.6663C22 11.3777 20.9553 10.333 19.6667 10.333Z" stroke="#232C4F" stroke-width="2" stroke-linecap="round" stroke-linejoin="round"/>
<path d="M4.5 10.3333V4.5C4.5 3.57174 4.86875 2.6815 5.52513 2.02513C6.1815 1.36875 7.07174 1 8 1H15C15.9283 1 16.8185 1.36875 17.4749 2.02513C18.1313 2.6815 18.5 3.57174 18.5 4.5V5.66667" stroke="#232C4F" stroke-width="2" stroke-linecap="round" stroke-linejoin="round"/>
</svg>
