<svg width="167" height="41" viewBox="0 0 167 41" fill="none" xmlns="http://www.w3.org/2000/svg">
<path d="M46.0017 14.0164C45.6184 10.1291 22.8423 4.92785 17.3125 7.22736C13.042 9.03412 8.881 16.3159 6.19824 23.4882C8.881 28.8537 12.1113 33.8907 14.8488 37.121C27.6056 31.5912 46.4944 18.3964 46.0017 14.0164Z" fill="#232E56"/>
<path d="M6.19604 23.4885C3.51328 30.7703 2.41828 37.9425 4.27978 39.2018C4.71778 39.5303 5.37478 39.6398 6.14128 39.6398C8.16704 39.6398 11.2878 38.6543 14.8466 37.1213C12.109 33.9458 8.87879 28.854 6.19604 23.4885Z" fill="url(#paint0_linear_4:520)"/>
<path d="M47.2078 13.578C46.9341 11.388 45.0178 10.6215 35.4913 7.55552L28.4832 5.20127C28.4832 5.20127 15.0694 0 6.69264 0C3.62663 0 1.27237 0.711752 0.396368 2.57326C-1.13664 6.02252 1.98412 15.111 6.19989 23.4878C8.8279 16.3155 12.9889 9.03378 17.2594 7.22702C22.844 4.92751 45.6201 10.1288 46.0033 14.016C46.4413 18.3961 27.5525 31.5908 14.8504 37.1754C16.7667 39.4201 18.4092 40.7889 19.6684 40.6794C25.4172 40.3509 47.1531 16.9178 47.2078 13.6328V13.578Z" fill="url(#paint1_linear_4:520)"/>
<path d="M21.0925 36.1892C17.698 38.2697 27.8815 40.3502 32.6995 37.0104C37.5175 33.6707 45.1825 19.4904 45.073 17.3551C45.073 17.3004 45.0183 17.2456 44.9635 17.2456C44.197 17.2456 37.2438 26.3889 21.0925 36.1892Z" fill="url(#paint2_linear_4:520)"/>
<path d="M35.5423 10.0747C35.5423 9.91044 35.4876 9.74619 35.3781 9.58194C34.8853 8.04893 33.407 9.03443 32.531 9.74619C32.4215 9.74619 32.312 9.74619 32.2025 9.69144C31.436 9.30819 31.0528 10.0747 30.56 10.5127C30.56 10.3484 30.3958 10.1842 30.1768 10.2389C30.2315 10.0747 30.122 9.91044 29.903 9.96519C29.027 10.3484 27.1108 10.7317 27.056 10.7317C26.7823 10.8959 26.4538 11.3339 26.18 11.4982C26.1253 11.4434 26.0705 11.4434 26.0158 11.4434C25.7968 11.4434 25.6873 11.6624 25.6325 11.8267C25.304 12.2099 25.3588 12.5932 25.1945 13.0312C25.1398 12.4837 24.8113 12.3194 24.3185 12.7575C23.2783 13.086 23.6068 14.7832 22.6213 15.2212C22.238 15.3307 22.2928 15.6592 22.6213 15.8235C22.8403 15.9877 22.8403 16.0425 22.8403 16.0425C22.676 16.371 21.6905 16.371 21.7453 16.809C21.7453 16.9185 21.8 17.028 21.8 17.1375C21.5263 17.3565 21.4168 17.8492 21.143 18.123C21.0883 18.123 21.0883 18.0682 21.0335 18.0682C20.9788 18.0682 20.8693 18.0135 20.7598 18.0135C20.6503 18.0135 20.5408 18.0135 20.4313 18.0682L20.3218 18.123C20.048 17.8492 19.9385 17.3565 19.6648 17.1375C19.8838 16.2615 19.2268 16.2615 18.6245 15.9877C18.734 15.8782 19.172 15.714 19.1173 15.4402C19.1173 15.276 18.953 15.2212 18.8435 15.1665C17.858 14.7285 18.2413 13.0312 17.201 12.7027C16.7083 12.2647 16.325 12.429 16.325 12.9765C16.2155 12.5385 16.2155 12.1552 15.887 11.7719C15.7775 11.6077 15.7228 11.3887 15.5038 11.3887C15.449 11.3887 15.3943 11.3887 15.3395 11.4434C15.011 11.2792 14.6825 10.8412 14.4635 10.6769C14.4635 10.6769 12.5473 10.2937 11.6165 9.91044C11.4523 9.85569 11.288 10.0199 11.3428 10.1842C11.1238 10.1842 10.9595 10.2937 10.9595 10.4579C10.4668 10.0199 10.0835 9.25344 9.317 9.63669C9.2075 9.69144 9.04325 9.69144 8.9885 9.69144C8.1125 8.97969 6.57949 8.04893 6.14149 9.52719C5.59399 10.1842 6.41524 10.8412 6.96275 11.2244C6.30574 11.6077 6.63425 12.867 7.18175 13.1955C7.0175 13.524 6.74374 14.0167 7.2365 14.3452C7.94825 14.5642 8.71475 15.0022 9.4265 15.0022C9.2075 15.276 8.3315 15.3855 8.3315 15.7687C8.3315 15.9877 8.49575 16.2067 8.9885 16.5352C9.317 16.9732 9.80975 17.466 10.412 17.5755C10.5215 17.6302 10.7405 17.6302 10.7953 17.685C10.7405 18.0135 10.9048 18.1777 11.069 18.2325C11.288 18.3967 11.8355 18.2872 12.164 18.342C11.8903 18.561 11.945 18.9442 12.2188 19.1085C12.0545 19.5465 12.3283 19.7655 12.2188 20.1487C12.2188 20.2035 12.0545 20.313 11.8903 20.3677C11.5618 20.4772 11.4523 20.532 11.3428 20.6962C10.9048 20.751 10.5215 21.2985 10.9595 21.627C10.9048 21.7912 10.9595 21.9007 11.069 22.0102C11.1785 22.1745 11.1238 22.3935 11.3975 22.3387C11.507 22.284 11.5618 22.284 11.6165 22.284C11.0143 23.1052 11.8903 23.2147 11.8355 23.9812C11.8355 24.0908 11.8903 24.2003 11.945 24.3098C11.288 24.474 11.3428 24.9668 11.3428 25.2405C11.3428 25.4595 11.3428 25.4595 11.2333 25.4595C10.9595 25.5143 10.9048 25.8428 11.1238 26.007C11.8355 26.664 12.2735 27.4853 12.4925 28.4708C12.4925 28.5803 12.602 28.635 12.6568 28.635C12.9305 28.6898 12.821 28.2518 13.04 28.2518C13.2043 28.2518 13.478 28.5803 13.478 28.9088C13.5328 29.4015 13.916 29.2373 14.1898 29.0183C14.2445 29.1278 14.4088 29.073 14.5183 28.9635C14.6825 28.6898 14.792 28.3613 15.011 28.0875C14.9563 28.3065 14.8468 28.5803 14.792 28.7445C14.7373 28.9635 14.573 29.1825 14.792 29.292C15.1205 29.4015 15.3395 29.511 15.3943 29.8395C15.3943 29.949 15.5585 30.0585 15.668 30.0038C15.887 30.1133 16.106 29.8395 16.2703 29.73C16.6535 29.4015 16.8725 29.1825 17.0915 29.73C17.1463 29.8943 17.4748 29.8395 17.5295 29.7848C18.077 29.4563 17.5295 27.1568 18.1318 26.9378C18.4055 27.0473 18.6245 26.9925 18.7888 26.8283C18.8435 26.883 18.8983 26.883 19.0078 26.883C19.172 26.883 19.3363 26.7735 19.391 26.6093C19.61 25.8975 19.4458 25.2953 19.6648 24.6383C19.7195 24.474 19.7195 24.3645 19.7195 24.255C19.7743 24.0908 19.9385 23.817 19.7743 23.6527C19.5005 23.4337 19.8838 22.8862 20.1575 22.503C20.3218 22.2292 20.7598 21.9007 20.4313 21.4627C20.5408 21.2985 20.5408 20.9152 20.2123 20.9152C20.486 20.3677 20.705 19.9297 20.924 19.4917C21.143 19.9297 21.362 20.3677 21.6358 20.9152C21.3073 20.8605 21.362 21.2437 21.4168 21.408V21.4627C21.0883 21.9007 21.5263 22.1745 21.7453 22.503C22.019 22.8862 22.4023 23.4337 22.1285 23.6527C21.9643 23.817 22.1285 24.036 22.1833 24.255C22.238 24.4193 22.1833 24.474 22.238 24.6383C22.457 25.2953 22.3475 25.8975 22.5118 26.6093C22.5665 26.7735 22.7308 26.883 22.895 26.883C22.9498 26.883 23.0045 26.883 23.0593 26.8283C23.2235 26.9925 23.4425 27.0473 23.7163 26.9378C24.3185 27.1568 23.8258 29.4563 24.3185 29.7848C24.3733 29.8395 24.7018 29.8943 24.7565 29.73C24.9755 29.2373 25.1945 29.4563 25.5778 29.73C25.742 29.8395 25.961 30.168 26.18 30.0038C26.2895 30.0585 26.4538 30.0038 26.4538 29.8395C26.5085 29.5658 26.6728 29.4563 27.056 29.292C27.275 29.1825 27.1108 28.9635 27.056 28.7445C27.0013 28.5803 26.8918 28.3065 26.837 28.0875C27.0013 28.3613 27.1655 28.6898 27.3298 28.9635C27.3845 29.0183 27.494 29.073 27.5488 29.073L27.6035 29.0183C27.8225 29.292 28.2605 29.4015 28.3153 28.9088C28.3153 28.635 28.589 28.3065 28.7533 28.2518C28.9723 28.2518 28.9175 28.6898 29.1365 28.635C29.246 28.635 29.3008 28.5803 29.3008 28.4708C29.465 27.4853 29.903 26.664 30.6695 26.007C30.7243 25.9523 30.8338 25.8428 30.779 25.6785C30.7243 25.5143 30.6148 25.4595 30.5053 25.4595C30.3958 25.4595 30.3958 25.4595 30.4505 25.2405C30.5053 24.9668 30.56 24.5288 29.8483 24.3098C29.903 24.2003 29.9578 24.0908 29.9578 23.9265C29.903 23.2147 30.779 23.0505 30.1768 22.2292C30.341 22.2292 30.6148 22.3935 30.6148 22.1197C30.6148 22.065 30.6148 22.0102 30.6695 21.9555C30.779 21.846 30.779 21.7365 30.779 21.5722C31.2718 21.2437 30.8885 20.6962 30.3958 20.6415C30.2863 20.4772 30.1768 20.3677 29.8483 20.313C29.684 20.2582 29.5198 20.1487 29.5198 20.094C29.4103 19.7107 29.7388 19.4917 29.5198 19.0537C29.7935 18.8895 29.903 18.4515 29.5745 18.2872C29.903 18.2325 30.3958 18.342 30.6695 18.1777C30.779 18.123 30.9433 18.0135 30.9433 17.685C30.998 17.6302 31.217 17.5755 31.3265 17.5755C31.9835 17.4112 32.4763 16.9185 32.8048 16.5352C33.6808 16.0425 33.6808 15.5497 32.8595 15.276C32.6405 15.1665 32.4215 15.1117 32.3668 15.0022C33.0785 15.0022 33.845 14.5642 34.5568 14.3452C35.0496 14.0167 34.7758 13.524 34.6116 13.1955C35.1591 12.867 35.4328 11.6077 34.8306 11.2244C34.9401 11.0054 35.4876 10.5674 35.5423 10.0747Z" fill="white"/>
<path d="M54.4326 25.459V30.1127H55.0896V27.9227H57.2249V30.1127H57.8819V25.459H57.2249V27.43H55.0896V25.459H54.4326ZM61.6596 29.5105L61.7144 30.1675H62.4261V30.1127C62.3714 29.8937 62.3167 29.6747 62.3167 29.401V26.773C62.3167 25.897 61.7144 25.4042 60.7289 25.4042C59.9076 25.4042 59.3054 25.7327 58.9769 26.3897L59.5244 26.7182C59.7434 26.2255 60.1814 26.0065 60.6741 26.0065C61.2216 26.0065 61.6049 26.335 61.6049 26.7182V27.0467C59.6886 27.43 58.8126 27.9227 58.8126 28.963C58.8126 29.7295 59.3601 30.277 60.0719 30.277C60.7836 30.2222 61.2764 30.0032 61.6596 29.5105ZM61.7144 28.9082C61.1669 29.401 60.7289 29.62 60.2909 29.62C59.7981 29.62 59.5244 29.3462 59.5244 28.9082C59.5244 28.2512 60.2361 27.9227 61.6596 27.5942V28.9082H61.7144ZM66.6419 30.1675H67.3537V24.4735L69.3247 30.1675H69.8174L71.7884 24.4735V30.1675H72.4454V23.707H71.4052L69.5984 29.182L67.7917 23.707H66.6967V30.1675H66.6419ZM73.7594 26.9372C73.7594 29.0177 74.7997 30.277 76.3327 30.277C77.8657 30.277 78.906 29.0177 78.906 26.9372C78.906 24.8567 77.8657 23.5975 76.3327 23.5975C74.7997 23.5427 73.7594 24.8567 73.7594 26.9372ZM74.526 26.9372C74.526 25.1852 75.2377 24.1997 76.3327 24.1997C77.4825 24.1997 78.1942 25.1852 78.1942 26.9372C78.1942 28.6892 77.4825 29.6747 76.3327 29.6747C75.2377 29.62 74.526 28.6345 74.526 26.9372ZM84.5452 28.1965L83.8882 28.0322C83.724 29.0725 83.1217 29.62 82.3005 29.62C81.2055 29.62 80.4937 28.6892 80.4937 26.9372C80.4937 25.1305 81.1507 24.1997 82.2457 24.1997C83.0122 24.1997 83.5597 24.6925 83.724 25.678L84.381 25.5137C84.1072 24.2545 83.3407 23.5975 82.1362 23.5975C80.658 23.5975 79.7272 24.802 79.7272 26.9372C79.7272 29.0725 80.658 30.277 82.191 30.277C83.505 30.277 84.2715 29.5652 84.5452 28.1965ZM86.4615 26.4992V23.707H85.7498V30.1675H86.4615V27.1015H87.2827C87.666 27.1015 88.2135 27.1015 88.4873 27.649C88.7063 28.087 88.8705 29.2915 89.0895 29.7295C89.3085 30.1127 89.5275 30.2222 89.856 30.2222C90.0203 30.2222 90.1298 30.2222 90.2393 30.1127V29.5105C90.1845 29.5105 90.1298 29.5105 90.075 29.5105C89.856 29.5105 89.7465 29.401 89.6918 29.182C89.418 28.306 89.418 27.9227 89.199 27.43C89.0895 27.211 88.8705 26.773 88.2683 26.6635V26.6087C88.7063 26.4992 88.9253 26.1707 89.0348 25.8422C89.199 25.3495 89.3085 24.6925 89.418 24.4187C89.4728 24.2545 89.5823 24.1997 89.7465 24.1997C89.8013 24.1997 89.8013 24.1997 89.9655 24.1997V23.5975C89.9108 23.5975 89.8013 23.5427 89.637 23.5427C89.3633 23.5427 88.9253 23.6522 88.7063 24.1997C88.4873 24.6925 88.4873 25.459 88.2135 25.897C87.9945 26.335 87.6113 26.3897 87.228 26.3897H86.4615V26.4992ZM90.8963 26.9372C90.8963 29.0177 91.9365 30.277 93.4695 30.277C95.0025 30.277 96.0428 29.0177 96.0428 26.9372C96.0428 24.8567 95.0025 23.5975 93.4695 23.5975C91.8818 23.5427 90.8963 24.8567 90.8963 26.9372ZM91.608 26.9372C91.608 25.1852 92.3198 24.1997 93.4148 24.1997C94.5645 24.1997 95.2763 25.1852 95.2763 26.9372C95.2763 28.6892 94.5645 29.6747 93.4148 29.6747C92.3198 29.62 91.608 28.6345 91.608 26.9372ZM97.3568 30.1675H99.3278C100.97 30.1675 101.792 29.5652 101.792 28.4155C101.792 27.5942 101.299 27.0467 100.532 26.773C101.244 26.4992 101.573 26.0065 101.573 25.3495C101.573 24.145 100.751 23.707 99.0541 23.707H97.302V30.1675H97.3568ZM99.2183 24.2545C100.313 24.2545 100.861 24.583 100.861 25.2947C100.861 26.0065 100.368 26.4445 99.4373 26.4445H98.0686V24.2545H99.2183ZM99.3826 27.0467C100.478 27.0467 101.08 27.4847 101.08 28.306C101.08 29.182 100.532 29.5105 99.3826 29.5105H98.0686V27.0467H99.3826ZM107.486 28.1965L106.829 28.0322C106.664 29.0725 106.062 29.62 105.241 29.62C104.146 29.62 103.434 28.6892 103.434 26.9372C103.434 25.1305 104.091 24.1997 105.186 24.1997C105.953 24.1997 106.5 24.6925 106.664 25.678L107.321 25.5137C107.048 24.2545 106.281 23.5975 105.077 23.5975C103.598 23.5975 102.668 24.802 102.668 26.9372C102.668 29.0725 103.598 30.277 105.131 30.277C106.391 30.277 107.157 29.5652 107.486 28.1965ZM109.402 26.4992V23.707H108.69V30.1675H109.402V27.1015H110.223C110.606 27.1015 111.154 27.1015 111.428 27.649C111.647 28.087 111.811 29.2915 112.03 29.7295C112.249 30.1127 112.468 30.2222 112.796 30.2222C112.961 30.2222 113.07 30.2222 113.18 30.1127V29.5105C113.125 29.5105 113.07 29.5105 113.015 29.5105C112.796 29.5105 112.687 29.401 112.632 29.182C112.358 28.306 112.358 27.9227 112.139 27.43C112.03 27.211 111.811 26.773 111.209 26.6635V26.6087C111.647 26.4992 111.866 26.1707 111.975 25.8422C112.139 25.3495 112.249 24.6925 112.358 24.4187C112.413 24.2545 112.523 24.1997 112.742 24.1997C112.742 24.1997 112.796 24.1997 112.961 24.1997V23.5975C112.906 23.5975 112.796 23.5427 112.632 23.5427C112.358 23.5427 111.92 23.6522 111.701 24.1997C111.482 24.6925 111.482 25.459 111.209 25.897C110.99 26.335 110.606 26.3897 110.223 26.3897H109.402V26.4992ZM113.782 26.9372C113.782 29.0177 114.822 30.277 116.355 30.277C117.888 30.277 118.928 29.0177 118.928 26.9372C118.928 24.8567 117.888 23.5975 116.355 23.5975C114.822 23.5427 113.782 24.8567 113.782 26.9372ZM114.494 26.9372C114.494 25.1852 115.205 24.1997 116.3 24.1997C117.45 24.1997 118.107 25.1852 118.107 26.9372C118.107 28.6892 117.395 29.6747 116.3 29.6747C115.205 29.62 114.494 28.6345 114.494 26.9372ZM120.242 30.1675H120.954V24.4735L122.925 30.1675H123.418L125.389 24.4735V30.1675H126.101V23.707H125.06L123.254 29.182L121.447 23.707H120.352V30.1675H120.242Z" fill="#232E56"/>
<path d="M54.707 17.1917H56.3495V9.96471H59.6346V17.137H61.2771V8.48646H54.707V17.1917ZM63.3576 17.1917H65.0001V13.6877H66.5878C68.4493 13.6877 69.4348 12.757 69.4348 11.1145C69.4348 9.36246 68.4493 8.54121 66.4236 8.54121H63.3028V17.1917H63.3576ZM65.0001 12.319V9.85521H66.2046C67.3543 9.85521 67.8471 10.129 67.8471 11.0597C67.8471 11.9905 67.3543 12.2642 66.2046 12.2642H65.0001V12.319ZM71.0773 17.1917H76.8809V15.7135H72.6651V13.3592H75.5669V11.9905H72.6651V9.96471H76.6619V8.54121H71.0226V17.1917H71.0773ZM77.7569 12.8665C77.7569 15.6587 79.1256 17.356 81.3704 17.356C83.5604 17.356 84.9839 15.7135 84.9839 12.8665C84.9839 10.0195 83.6152 8.43171 81.3704 8.43171C79.1804 8.37696 77.7569 10.0195 77.7569 12.8665ZM79.4541 12.8665C79.4541 10.8955 80.1111 9.85521 81.4251 9.85521C82.6844 9.85521 83.3414 10.8955 83.3414 12.8665C83.3414 14.8375 82.6296 15.8777 81.4251 15.8777C80.1111 15.823 79.4541 14.8375 79.4541 12.8665ZM91.9919 8.48646H86.4622V17.137H89.8567C91.4992 17.137 92.7037 16.5347 92.7037 14.509C92.7037 12.538 91.2802 11.9357 89.8567 11.9357H88.0499V9.85521H91.9372V8.48646H91.9919ZM88.0499 13.2497H89.6377C90.4042 13.2497 91.1159 13.5235 91.1159 14.6185C91.1159 15.4945 90.4042 15.823 89.6924 15.823H88.0499V13.2497ZM94.4009 17.1917H96.0434V13.6877H97.6312C99.4927 13.6877 100.478 12.757 100.478 11.1145C100.478 9.36246 99.4927 8.54121 97.467 8.54121H94.3462V17.1917H94.4009ZM96.0434 12.319V9.85521H97.248C98.343 9.85521 98.8905 10.129 98.8905 11.0597C98.8905 11.9905 98.343 12.2642 97.248 12.2642H96.0434V12.319ZM100.369 17.1917H101.902L102.449 15.2755H105.46L106.008 17.1917H107.65L105.022 8.54121H102.942L100.369 17.1917ZM102.832 13.9067L103.927 10.0195L105.022 13.9067H102.832ZM114.549 8.48646H112.907V11.9357H112.469C111.593 11.9357 111.319 11.3882 111.155 11.005C110.881 10.129 110.881 9.85521 110.662 9.36246C110.333 8.59596 109.841 8.43171 109.129 8.43171C108.91 8.43171 108.691 8.48646 108.472 8.54121V9.69096H108.581C108.855 9.69096 109.238 9.69096 109.403 10.2932C109.512 10.6765 109.621 11.0597 109.731 11.3882C109.84 11.662 110.005 12.0452 110.279 12.2642C110.443 12.3737 110.662 12.538 110.881 12.5927V12.6475C110.005 12.757 109.567 13.414 109.348 14.1257C108.965 15.2207 108.965 15.604 108.691 15.8777C108.526 16.0967 108.307 16.1515 108.143 16.1515H108.088V17.3012C108.253 17.356 108.362 17.356 108.581 17.356C109.184 17.356 109.676 17.2465 110.06 16.699C110.388 16.261 110.498 15.7135 110.717 14.8375C111.1 13.4687 111.538 13.414 112.414 13.414H112.852V17.2465H114.494V13.414H114.878C115.754 13.414 116.137 13.4687 116.575 14.8375C116.849 15.7135 116.958 16.261 117.232 16.699C117.615 17.2465 118.108 17.356 118.71 17.356C118.929 17.356 119.039 17.356 119.203 17.3012V16.1515H119.148C118.984 16.1515 118.765 16.0967 118.601 15.8777C118.382 15.604 118.327 15.166 117.944 14.1257C117.725 13.414 117.287 12.757 116.411 12.6475V12.5927C116.63 12.538 116.849 12.3737 116.958 12.2642C117.287 11.9905 117.451 11.4977 117.506 11.3882C117.67 10.8955 117.67 10.7312 117.779 10.2932C117.944 9.74571 118.327 9.69096 118.601 9.69096H118.765V8.54121C118.546 8.48646 118.382 8.43171 118.163 8.43171C117.451 8.43171 116.903 8.65071 116.63 9.36246C116.411 9.85521 116.411 10.1837 116.137 11.005C116.027 11.3882 115.699 11.9357 114.823 11.9357H114.44V8.48646H114.549ZM120.626 17.1917H126.43V15.7135H122.269V13.3592H125.171V11.9905H122.269V9.96471H126.266V8.54121H120.626V17.1917ZM127.853 17.1917H129.496V13.414H132.781V17.1917H134.423V8.48646H132.781V11.9357H129.496V8.48646H127.853V17.1917ZM141.048 14.5637C140.829 15.385 140.172 15.823 139.406 15.823C138.146 15.823 137.599 14.8375 137.599 12.8665C137.599 10.786 138.146 9.74571 139.351 9.74571C140.117 9.74571 140.665 10.1837 140.884 11.005L142.362 10.6217C142.034 9.14346 140.993 8.37696 139.46 8.37696C137.27 8.37696 135.956 9.96471 135.956 12.8665C135.956 15.823 137.106 17.3012 139.351 17.3012C140.993 17.3012 142.143 16.48 142.526 15.0017L141.048 14.5637ZM145.538 11.9357V8.48646H143.95V17.137H145.538V13.2497H146.359C147.18 13.2497 147.454 13.4687 147.673 13.9067C147.837 14.2352 147.892 14.6185 148.111 15.385C148.439 16.48 148.658 17.1917 149.808 17.1917C150.082 17.1917 150.356 17.1917 150.52 17.137V15.9872H150.465C149.972 15.9872 149.863 15.7682 149.808 15.4945C149.534 14.5637 149.425 14.0162 149.096 13.3592C148.877 12.976 148.549 12.6475 147.892 12.538V12.4832C148.166 12.4285 148.549 12.2642 148.768 11.8262C148.987 11.3882 149.042 10.8955 149.261 10.129C149.425 9.63621 149.644 9.58146 149.972 9.58146H150.137V8.43171C149.972 8.37696 149.753 8.37696 149.534 8.37696C148.713 8.37696 148.166 8.76021 147.947 9.47196C147.782 9.90996 147.782 10.129 147.563 10.8955C147.454 11.2787 147.344 11.4977 147.016 11.7167C146.742 11.9357 146.523 11.9357 146.249 11.9357H145.538ZM151.67 8.48646V17.137H153.257V16.4252L156.433 11.8262C156.542 11.662 156.652 11.443 156.761 11.1692C156.707 11.4977 156.707 11.9905 156.707 12.2095V17.1917H158.294V8.48646H156.707V9.08871L153.476 13.6877C153.367 13.852 153.203 14.1805 153.148 14.3995C153.203 14.071 153.203 13.633 153.203 13.4687V8.48646H151.67ZM160.375 8.48646V17.137H161.963V16.4252L165.138 11.8262C165.248 11.662 165.357 11.443 165.467 11.1692C165.412 11.4977 165.412 11.9905 165.412 12.2095V17.1917H167V8.48646H165.412V9.08871L162.182 13.6877C162.072 13.852 161.908 14.1805 161.853 14.3995C161.908 14.071 161.908 13.633 161.908 13.4687V8.48646H160.375ZM161.525 6.02271C161.579 6.89871 162.291 7.66521 163.715 7.66521C165.193 7.66521 165.905 6.95346 165.959 6.02271H164.645C164.645 6.67971 163.988 6.78921 163.715 6.78921C163.496 6.78921 162.839 6.73446 162.784 6.02271H161.525Z" fill="#232E56"/>
<defs>
<linearGradient id="paint0_linear_4:520" x1="3.50168" y1="23.3572" x2="11.2872" y2="39.7067" gradientUnits="userSpaceOnUse">
<stop stop-color="#77C5E0"/>
<stop offset="1" stop-color="#55A8DD"/>
</linearGradient>
<linearGradient id="paint1_linear_4:520" x1="29.9742" y1="6.61768" x2="8.56408" y2="31.1421" gradientUnits="userSpaceOnUse">
<stop stop-color="#4C88C3"/>
<stop offset="1" stop-color="#3C75B6"/>
</linearGradient>
<linearGradient id="paint2_linear_4:520" x1="47.8834" y1="17.1274" x2="20.2448" y2="36.2019" gradientUnits="userSpaceOnUse">
<stop stop-color="#F8EA6A"/>
<stop offset="1" stop-color="#F2BD5E"/>
</linearGradient>
</defs>
</svg>
