<svg width="147" height="42" viewBox="0 0 147 42" fill="none" xmlns="http://www.w3.org/2000/svg">
<path d="M106.669 20.0335H108.427V6.94139H106.669V20.0335ZM114.314 6.94139L108.69 13.1799L108.602 13.2678L115.456 20.1213H117.653L110.799 13.2678L116.423 7.02929H114.314V6.94139Z" fill="#2F3438"/>
<path d="M94.7195 13.4435C94.7195 10.6318 97.004 8.34728 99.7279 8.34728C100.958 8.34728 102.1 8.61087 103.067 9.0502V7.29288C102.012 6.94141 100.958 6.6778 99.7279 6.6778C95.9496 6.6778 92.9622 9.75313 92.9622 13.4435C92.9622 17.2218 96.0375 20.2092 99.7279 20.2092C100.87 20.2092 102.012 20.0335 103.067 19.5941V17.8368C102.1 18.2761 100.958 18.5397 99.7279 18.5397C96.9162 18.6276 94.7195 16.3431 94.7195 13.4435Z" fill="#2F3438"/>
<path d="M6.50212 10.3682L8.78662 15.113H4.21762L6.50212 10.3682ZM0 20.0335H1.75732L3.4268 16.6067H9.57743L11.2469 20.0335H13.0042L6.50212 6.6778L0 20.0335Z" fill="#2F3438"/>
<path d="M26.1841 6.6778L16.8703 16.2552V6.94139H15.1129V20.2971L24.4268 10.7197V20.0335H26.1841V6.6778ZM26.887 1.31799L26.0963 0C23.8117 1.40586 21.8786 3.33891 20.5606 5.7113L21.8786 6.50206C23.1088 4.39327 24.7782 2.63598 26.887 1.31799Z" fill="#2F3438"/>
<path d="M77.3222 13.4435C77.3222 16.2552 75.0377 18.5397 72.3138 18.5397C69.59 18.5397 67.3054 16.2552 67.3054 13.4435C67.3054 10.6318 69.59 8.34728 72.3138 8.34728C75.0377 8.34728 77.3222 10.6318 77.3222 13.4435ZM78.9916 13.4435C78.9916 9.66526 75.9164 6.6778 72.226 6.6778C68.5356 6.6778 65.4602 9.75313 65.4602 13.4435C65.4602 17.2218 68.5356 20.2092 72.226 20.2092C75.9164 20.2092 78.9916 17.2218 78.9916 13.4435Z" fill="#2F3438"/>
<path d="M62.6486 10.2803C62.6486 8.25943 60.8912 6.6778 58.7824 6.6778C57.6402 6.6778 56.4979 6.94141 55.6193 7.29288V9.0502L55.7071 8.96236C56.41 8.52303 57.4645 8.25938 58.6946 8.25938C59.9247 8.25938 60.9791 9.22593 60.9791 10.3682C60.9791 11.5105 59.9247 12.477 58.6946 12.477H57.4644V14.0586H59.2218C60.5397 14.0586 61.682 15.113 61.682 16.3431C61.682 17.5732 60.5398 18.6276 59.0461 18.6276C57.3766 18.6276 55.9707 18.1883 55.1799 17.4853V19.3305C56.1465 19.9456 57.5523 20.2971 59.0461 20.2971C61.4185 20.2971 63.3514 18.6276 63.3514 16.6067C63.3514 14.9372 62.4728 13.7071 61.1548 13.1799C62.1213 12.477 62.6486 11.4226 62.6486 10.2803Z" fill="#2F3438"/>
<path d="M37.5189 16.2552C37.5189 17.4854 36.5523 18.4519 35.3222 18.4519H31.8954V14.0586H35.3222C36.5523 14.0586 37.5189 15.0251 37.5189 16.2552ZM36.1129 10.456C36.1129 11.5983 35.2343 12.477 34.0921 12.477H31.8076V8.43513H34.0921C35.1465 8.52299 36.1129 9.40164 36.1129 10.456ZM36.728 12.9163C37.431 12.3013 37.7824 11.4226 37.7824 10.456C37.7824 8.52298 36.113 6.94139 34.0921 6.94139H30.1381V20.0335H35.3222C37.431 20.0335 39.1882 18.364 39.1882 16.3431C39.1882 14.7615 38.1339 13.4435 36.728 12.9163Z" fill="#2F3438"/>
<path d="M145.77 6.6778L136.456 16.2552V6.94139H134.699V20.2971L144.013 10.7197V20.0335H145.77V6.6778ZM146.473 0.790763L145.155 0C143.925 2.10879 142.255 3.8661 140.146 5.09622L140.937 6.41422C143.134 5.09622 145.067 3.07528 146.473 0.790763Z" fill="#2F3438"/>
<path d="M47.0083 10.3682L49.2928 15.113H44.7238L47.0083 10.3682ZM40.5062 20.0335H42.2635L43.933 16.6067H49.9958L51.6652 20.0335H53.4226L46.9204 6.6778L40.5062 20.0335Z" fill="#2F3438"/>
<path d="M89.3597 16.2552C89.3597 17.4854 88.3932 18.4519 87.1631 18.4519H83.7363V14.0586H87.1631C88.3932 14.0586 89.3597 15.0251 89.3597 16.2552ZM87.9538 10.456C87.9538 11.5983 87.0752 12.477 85.9329 12.477H83.6484V8.43513H85.9329C87.0752 8.52299 87.9538 9.40164 87.9538 10.456ZM88.5689 12.9163C89.2718 12.3013 89.6233 11.4226 89.6233 10.456C89.6233 8.52298 87.9538 6.94139 85.9329 6.94139H81.979V20.0335H87.1631C89.2719 20.0335 91.0291 18.364 91.0291 16.3431C91.0291 14.7615 90.0626 13.4435 88.5689 12.9163Z" fill="#2F3438"/>
<path d="M130.833 6.6778L121.519 16.2552V6.94139H119.761V20.2971L129.075 10.7197V20.0335H130.833V6.6778Z" fill="#2F3438"/>
<path d="M15.4643 28.7322H13.707V41.8243H15.4643V28.7322Z" fill="#2F3438"/>
<path d="M28.1171 30.3138V28.7322H18.3639V30.3138H22.4058V41.8243H24.1631V30.3138H28.1171Z" fill="#2F3438"/>
<path d="M39.6275 28.7322L35.7615 34.4435L31.8953 28.7322H29.7865L34.8828 36.2009V41.8243H36.6401V36.2009L41.6485 28.7322H39.6275Z" fill="#2F3438"/>
<path d="M1.75732 35.3222C1.75732 32.5105 4.04185 30.2259 6.7657 30.2259C7.99583 30.2259 9.13808 30.4896 10.1046 30.9289V29.0837C9.05021 28.7322 7.99583 28.4686 6.7657 28.4686C2.98746 28.4686 0 31.5439 0 35.2343C0 38.9247 3.07533 42 6.7657 42C7.90796 42 9.05021 41.8243 10.1046 41.3849V39.5398C9.13808 39.9791 7.99583 40.2427 6.7657 40.2427C3.95399 40.4184 1.75732 38.1339 1.75732 35.3222Z" fill="#2F3438"/>
</svg>
