<svg width="68" height="11" viewBox="0 0 68 11" fill="none" xmlns="http://www.w3.org/2000/svg">
<path d="M17.7252 4.17507C17.474 2.23353 15.8065 0.771647 13.8421 0.771647H8.86261H3.8831C1.91871 0.771647 0.25126 2.23353 0 4.17507C0 4.22076 0 4.2436 0 4.28928H0.799462H1.30198H1.66745C1.87303 3.21572 2.80954 2.41626 3.90595 2.41626H8.88546H13.865C14.9385 2.41626 15.8522 3.1472 16.0806 4.17507C16.1035 4.2436 16.1035 4.31212 16.1035 4.40349C16.1035 4.5177 16.0121 4.60907 15.8979 4.60907H7.26369V6.25367H16.1035C16.5146 6.25367 16.9258 6.09378 17.2227 5.79683C17.4283 5.59126 17.5653 5.34 17.6339 5.08874C17.7481 4.7918 17.7252 4.28928 17.7252 4.28928C17.7252 4.26644 17.7252 4.22076 17.7252 4.17507ZM16.4461 6.57346H16.0806C15.875 7.64702 14.9385 8.44648 13.8421 8.44648H8.86261H3.8831C2.7867 8.44648 1.82734 7.64702 1.64461 6.57346H1.27914H0.799462H0C0 6.5963 0 6.64198 0 6.68767C0.25126 8.62922 1.91871 10.0911 3.8831 10.0911H8.86261H13.8421C15.8065 10.0911 17.474 8.62922 17.7252 6.68767C17.7252 6.64198 17.7252 6.61914 17.7252 6.57346H16.9258H16.4461ZM45.4095 5.43137C46.3003 4.99738 47.0769 4.38065 47.7393 3.60403L50.2519 0.703125H50.2062H48.082L46.5287 2.53047C45.3866 3.85529 43.742 4.60907 41.9832 4.60907H38.397C36.8895 4.60907 35.656 5.84252 35.656 7.35008V10.1596H37.3006V7.35008C37.3006 6.75619 37.8032 6.25367 38.397 6.25367H41.9832C43.7192 6.25367 45.3866 7.00745 46.5287 8.33227L48.0363 10.0911H50.2062L47.7393 7.25871C47.0998 6.48209 46.3003 5.86536 45.4095 5.43137ZM37.3006 0.703125H35.656V4.26644H37.3006V0.703125ZM31.2932 4.60907H22.1337C21.5398 4.60907 21.0373 4.10654 21.0373 3.51266V0.703125H19.3927V3.51266C19.3927 5.02021 20.6261 6.25367 22.1337 6.25367H31.2932C31.8871 6.25367 32.3897 6.75619 32.3897 7.35008V10.1596H34.0343V7.35008C34.0114 5.84252 32.8008 4.60907 31.2932 4.60907ZM32.3897 4.28928H34.0343V0.703125H32.3897V4.28928ZM19.3927 10.1368H21.0373V6.57346H19.3927V10.1368ZM66.3782 6.57346C66.3782 7.60134 65.5331 8.44648 64.5052 8.44648H53.7467C52.7188 8.44648 51.8737 7.60134 51.8737 6.57346V4.28928C51.8737 3.2614 52.7188 2.41626 53.7467 2.41626H64.5052C65.5331 2.41626 66.3782 3.2614 66.3782 4.28928V6.57346ZM64.5052 0.771647H53.7467C53.7239 0.771647 53.701 0.771647 53.6782 0.771647C51.7823 0.794489 50.2291 2.37057 50.2291 4.26644V6.55061C50.2291 8.46932 51.7595 10.0226 53.6782 10.0454C53.701 10.0454 53.7239 10.0454 53.7467 10.0454H54.3863H54.5233H64.5052C66.4468 10.0454 68 8.46932 68 6.55061V4.26644C68 2.34773 66.4239 0.771647 64.5052 0.771647Z" fill="white"/>
</svg>
