<svg width="68" height="69" viewBox="0 0 68 69" fill="none" xmlns="http://www.w3.org/2000/svg">
<path d="M17.7252 62.1756C17.474 60.234 15.8065 58.7721 13.8421 58.7721H8.86261H3.8831C1.91871 58.7721 0.25126 60.234 0 62.1756C0 62.2212 0 62.2441 0 62.2898H0.799462H1.30198H1.66745C1.87303 61.2162 2.80954 60.4167 3.90595 60.4167H8.88546H13.865C14.9385 60.4167 15.8522 61.1477 16.0806 62.1756C16.1035 62.2441 16.1035 62.3126 16.1035 62.404C16.1035 62.5182 16.0121 62.6096 15.8979 62.6096H7.26369V64.2542H16.1035C16.5146 64.2542 16.9258 64.0943 17.2227 63.7973C17.4283 63.5917 17.5653 63.3405 17.6339 63.0892C17.7481 62.7923 17.7252 62.2898 17.7252 62.2898C17.7252 62.2669 17.7252 62.2212 17.7252 62.1756ZM16.4461 64.5739H16.0806C15.875 65.6475 14.9385 66.447 13.8421 66.447H8.86261H3.8831C2.7867 66.447 1.82734 65.6475 1.64461 64.5739H1.27914H0.799462H0C0 64.5968 0 64.6425 0 64.6882C0.25126 66.6297 1.91871 68.0916 3.8831 68.0916H8.86261H13.8421C15.8065 68.0916 17.474 66.6297 17.7252 64.6882C17.7252 64.6425 17.7252 64.6196 17.7252 64.5739H16.9258H16.4461ZM45.4095 63.4319C46.3003 62.9979 47.0769 62.3811 47.7393 61.6045L50.2519 58.7036H50.2062H48.082L46.5287 60.531C45.3866 61.8558 43.742 62.6096 41.9832 62.6096H38.397C36.8895 62.6096 35.656 63.843 35.656 65.3506V68.1601H37.3006V65.3506C37.3006 64.7567 37.8032 64.2542 38.397 64.2542H41.9832C43.7192 64.2542 45.3866 65.0079 46.5287 66.3328L48.0363 68.0916H50.2062L47.7393 65.2592C47.0998 64.4826 46.3003 63.8659 45.4095 63.4319ZM37.3006 58.7036H35.656V62.2669H37.3006V58.7036ZM31.2932 62.6096H22.1337C21.5398 62.6096 21.0373 62.107 21.0373 61.5131V58.7036H19.3927V61.5131C19.3927 63.0207 20.6261 64.2542 22.1337 64.2542H31.2932C31.8871 64.2542 32.3897 64.7567 32.3897 65.3506V68.1601H34.0343V65.3506C34.0114 63.843 32.8008 62.6096 31.2932 62.6096ZM32.3897 62.2898H34.0343V58.7036H32.3897V62.2898ZM19.3927 68.1373H21.0373V64.5739H19.3927V68.1373ZM66.3782 64.5739C66.3782 65.6018 65.5331 66.447 64.5052 66.447H53.7467C52.7188 66.447 51.8737 65.6018 51.8737 64.5739V62.2898C51.8737 61.2619 52.7188 60.4167 53.7467 60.4167H64.5052C65.5331 60.4167 66.3782 61.2619 66.3782 62.2898V64.5739ZM64.5052 58.7721H53.7467C53.7239 58.7721 53.701 58.7721 53.6782 58.7721C51.7823 58.795 50.2291 60.3711 50.2291 62.2669V64.5511C50.2291 66.4698 51.7595 68.023 53.6782 68.0459C53.701 68.0459 53.7239 68.0459 53.7467 68.0459H54.3863H54.5233H64.5052C66.4468 68.0459 68 66.4698 68 64.5511V62.2669C68 60.3482 66.4239 58.7721 64.5052 58.7721Z" fill="white"/>
<path fill-rule="evenodd" clip-rule="evenodd" d="M25.8338 1.59892C27.3642 1.59892 28.5977 2.83238 28.5977 4.36277C28.5977 5.89317 27.3642 7.12662 25.8338 7.12662C24.3034 7.12662 23.07 5.89317 23.07 4.36277C23.07 2.83238 24.3034 1.59892 25.8338 1.59892ZM17.8392 8.63418C19.3696 8.63418 20.6031 9.86763 20.6031 11.398C20.6031 12.9284 19.3696 14.1619 17.8392 14.1619C16.3088 14.1619 15.0754 12.9056 15.0754 11.398C15.0754 9.86763 16.3088 8.63418 17.8392 8.63418ZM15.0754 18.7302C16.6058 18.7302 17.8392 19.9637 17.8392 21.4941C17.8392 23.0245 16.6058 24.2579 15.0754 24.2579C13.545 24.2579 12.3115 23.0245 12.3115 21.4941C12.3115 19.9637 13.545 18.7302 15.0754 18.7302ZM18.159 28.5979C19.6894 28.5979 20.9229 29.8313 20.9229 31.3617C20.9229 32.8921 19.6894 34.1256 18.159 34.1256C16.6286 34.1256 15.3952 32.8921 15.3952 31.3617C15.3952 29.8542 16.6286 28.5979 18.159 28.5979ZM36.7065 36.7295C38.2369 36.7295 39.4704 37.963 39.4704 39.4934C39.4704 41.0238 38.2369 42.2572 36.7065 42.2572C35.1761 42.2572 33.9427 41.0238 33.9427 39.4934C33.9427 37.9858 35.1761 36.7295 36.7065 36.7295ZM46.2315 32.2754C47.7619 32.2754 48.9954 33.5088 48.9954 35.0392C48.9954 36.5696 47.7619 37.8031 46.2315 37.8031C44.7011 37.8031 43.4677 36.5696 43.4677 35.0392C43.4448 33.5088 44.7011 32.2754 46.2315 32.2754ZM51.8049 23.3214C53.3353 23.3214 54.5687 24.5549 54.5687 26.0853C54.5687 27.6157 53.3353 28.8491 51.8049 28.8491C50.2745 28.8491 49.041 27.6157 49.041 26.0853C49.041 24.5549 50.2745 23.3214 51.8049 23.3214ZM45.8432 4.18004C47.3736 4.18004 48.6071 5.41349 48.6071 6.94389C48.6071 8.47429 47.3736 9.70774 45.8432 9.70774C44.3128 9.70774 43.0794 8.47429 43.0794 6.94389C43.0794 5.43633 44.3128 4.18004 45.8432 4.18004ZM51.6678 12.9056C53.1982 12.9056 54.4317 14.139 54.4317 15.6694C54.4317 17.1998 53.1982 18.4333 51.6678 18.4333C50.1374 18.4333 48.904 17.1998 48.904 15.6694C48.904 14.1619 50.1374 12.9056 51.6678 12.9056ZM36.2497 0C37.7801 0 39.0135 1.23345 39.0135 2.76385C39.0135 4.29425 37.7801 5.5277 36.2497 5.5277C34.7193 5.5277 33.4858 4.29425 33.4858 2.76385C33.4858 1.23345 34.7193 0 36.2497 0ZM47.9218 18.2049C49.2238 18.2049 50.2973 19.2556 50.2973 20.5804C50.2973 21.8824 49.2466 22.956 47.9218 22.956C46.6198 22.956 45.5463 21.9052 45.5463 20.5804C45.5463 19.2556 46.6198 18.2049 47.9218 18.2049ZM45.9803 25.834C47.2822 25.834 48.3558 26.8847 48.3558 28.2096C48.3558 29.5115 47.3051 30.5851 45.9803 30.5851C44.6783 30.5851 43.6047 29.5344 43.6047 28.2096C43.6047 26.8847 44.6783 25.834 45.9803 25.834ZM40.2013 31.2247C41.5033 31.2247 42.5768 32.2754 42.5768 33.6002C42.5768 34.9022 41.5261 35.9757 40.2013 35.9757C38.8993 35.9757 37.8258 34.925 37.8258 33.6002C37.8258 32.2982 38.8765 31.2247 40.2013 31.2247ZM32.3666 32.7094C33.6686 32.7094 34.7421 33.7601 34.7421 35.0849C34.7421 36.3869 33.6914 37.4605 32.3666 37.4605C31.0646 37.4605 29.991 36.4097 29.991 35.0849C30.0139 33.7829 31.0646 32.7094 32.3666 32.7094ZM24.9887 29.7171C26.2907 29.7171 27.3642 30.7678 27.3642 32.0926C27.3642 33.3946 26.3135 34.4682 24.9887 34.4682C23.6639 34.4682 22.6131 33.3946 22.6131 32.0926C22.6131 30.7907 23.6867 29.7171 24.9887 29.7171ZM20.3975 23.3214C21.6995 23.3214 22.773 24.3721 22.773 25.697C22.773 26.9989 21.7223 28.0725 20.3975 28.0725C19.0955 28.0725 18.022 27.0218 18.022 25.697C18.022 24.3721 19.0955 23.3214 20.3975 23.3214ZM20.0092 15.441C21.3112 15.441 22.3847 16.4917 22.3847 17.8166C22.3847 19.1414 21.334 20.1921 20.0092 20.1921C18.7072 20.1921 17.6336 19.1414 17.6336 17.8166C17.6336 16.4917 18.7072 15.441 20.0092 15.441ZM24.0293 8.5885C25.3313 8.5885 26.4049 9.63922 26.4049 10.964C26.4049 12.266 25.3542 13.3396 24.0293 13.3396C22.7274 13.3396 21.6538 12.2889 21.6538 10.964C21.6538 9.63922 22.7274 8.5885 24.0293 8.5885ZM31.1788 4.9795C32.4808 4.9795 33.5543 6.03022 33.5543 7.35504C33.5543 8.65702 32.5036 9.73058 31.1788 9.73058C29.854 9.73058 28.8033 8.67986 28.8033 7.35504C28.8261 6.03022 29.8768 4.9795 31.1788 4.9795ZM39.1277 5.8018C40.4297 5.8018 41.5033 6.85252 41.5033 8.17734C41.5033 9.50216 40.4526 10.5529 39.1277 10.5529C37.8258 10.5529 36.7522 9.50216 36.7522 8.17734C36.7522 6.85252 37.8258 5.8018 39.1277 5.8018ZM45.3407 10.7128C46.6427 10.7128 47.7162 11.7635 47.7162 13.0883C47.7162 14.3903 46.6655 15.4639 45.3407 15.4639C44.0387 15.4639 42.9651 14.4131 42.9651 13.0883C42.9651 11.7635 44.0387 10.7128 45.3407 10.7128ZM35.0619 9.29659C36.1355 9.29659 37.0034 10.1646 37.0034 11.2381C37.0034 12.3117 36.1355 13.1797 35.0619 13.1797C33.9883 13.1797 33.1203 12.3117 33.1203 11.2381C33.1203 10.1646 33.9883 9.29659 35.0619 9.29659ZM40.247 11.5122C41.3205 11.5122 42.1885 12.3802 42.1885 13.4538C42.1885 14.5273 41.3205 15.3953 40.247 15.3953C39.1734 15.3953 38.3054 14.5273 38.3054 13.4538C38.3054 12.3802 39.1734 11.5122 40.247 11.5122ZM43.3535 16.1948C44.427 16.1948 45.295 17.0628 45.295 18.1363C45.295 19.2099 44.427 20.0779 43.3535 20.0779C42.2799 20.0779 41.4119 19.2099 41.4119 18.1363C41.4119 17.0628 42.2799 16.1948 43.3535 16.1948ZM43.5133 21.791C44.5869 21.791 45.4549 22.659 45.4549 23.7326C45.4549 24.8061 44.5869 25.6741 43.5133 25.6741C42.4398 25.6741 41.5718 24.8061 41.5718 23.7326C41.5718 22.659 42.4398 21.791 43.5133 21.791ZM40.4754 26.5878C41.549 26.5878 42.4169 27.4558 42.4169 28.5293C42.4169 29.6029 41.549 30.4709 40.4754 30.4709C39.4018 30.4709 38.5338 29.6029 38.5338 28.5293C38.511 27.4558 39.4018 26.5878 40.4754 26.5878ZM35.3817 29.0319C36.4552 29.0319 37.3232 29.8998 37.3232 30.9734C37.3232 32.047 36.4552 32.915 35.3817 32.915C34.3081 32.915 33.4401 32.047 33.4401 30.9734C33.4401 29.8998 34.3081 29.0319 35.3817 29.0319ZM29.6941 28.3694C30.7677 28.3694 31.6356 29.2374 31.6356 30.311C31.6356 31.3846 30.7677 32.2525 29.6941 32.2525C28.6205 32.2525 27.7525 31.3846 27.7525 30.311C27.7525 29.2374 28.6205 28.3694 29.6941 28.3694ZM25.3085 24.7148C26.382 24.7148 27.25 25.5828 27.25 26.6563C27.25 27.7299 26.382 28.5979 25.3085 28.5979C24.2349 28.5979 23.3669 27.7299 23.3669 26.6563C23.3669 25.5828 24.2349 24.7148 25.3085 24.7148ZM23.641 19.4155C24.7146 19.4155 25.5826 20.2835 25.5826 21.357C25.5826 22.4306 24.7146 23.2986 23.641 23.2986C22.5675 23.2986 21.6995 22.4306 21.6995 21.357C21.6995 20.2835 22.5675 19.4155 23.641 19.4155ZM25.1943 13.9335C26.2678 13.9335 27.1358 14.8014 27.1358 15.875C27.1358 16.9486 26.2678 17.8166 25.1943 17.8166C24.1207 17.8166 23.2527 16.9486 23.2527 15.875C23.2299 14.8243 24.0979 13.9335 25.1943 13.9335ZM29.3971 10.1646C30.4707 10.1646 31.3387 11.0326 31.3387 12.1061C31.3387 13.1797 30.4707 14.0477 29.3971 14.0477C28.3236 14.0477 27.4556 13.1797 27.4556 12.1061C27.4556 11.0554 28.3236 10.1646 29.3971 10.1646ZM34.0797 14.0705C34.8792 14.0705 35.5416 14.7329 35.5416 15.5324C35.5416 16.3318 34.8792 16.9943 34.0797 16.9943C33.2802 16.9943 32.6178 16.3318 32.6178 15.5324C32.6178 14.7329 33.2802 14.0705 34.0797 14.0705ZM34.2853 24.8061C35.0847 24.8061 35.7472 25.4685 35.7472 26.268C35.7472 27.0675 35.0847 27.7299 34.2853 27.7299C33.4858 27.7299 32.8234 27.0675 32.8234 26.268C32.8006 25.4457 33.463 24.8061 34.2853 24.8061ZM38.8765 15.9435C39.4475 16.5146 39.4475 17.4511 38.8765 18.0221C38.3054 18.5932 37.3689 18.5932 36.7979 18.0221C36.2268 17.4511 36.2268 16.5146 36.7979 15.9435C37.3689 15.3725 38.3054 15.3725 38.8765 15.9435ZM31.293 24.0524C31.8641 24.6234 31.8641 25.5599 31.293 26.131C30.722 26.702 29.7855 26.702 29.2144 26.131C28.6434 25.5599 28.6434 24.6234 29.2144 24.0524C29.7855 23.4813 30.722 23.4813 31.293 24.0524ZM29.4657 20.1007C30.0367 20.6718 30.0367 21.6083 29.4657 22.1793C28.8946 22.7504 27.9581 22.7504 27.3871 22.1793C26.816 21.6083 26.816 20.6718 27.3871 20.1007C27.9581 19.5297 28.8946 19.5297 29.4657 20.1007ZM31.0874 15.8979C31.6585 16.4689 31.6585 17.4054 31.0874 17.9764C30.5164 18.5475 29.5799 18.5475 29.0088 17.9764C28.4378 17.4054 28.4378 16.4689 29.0088 15.8979C29.5799 15.3268 30.4936 15.3268 31.0874 15.8979ZM40.0871 19.6211C40.6581 20.1921 40.6581 21.1286 40.0871 21.6997C39.516 22.2707 38.5795 22.2707 38.0085 21.6997C37.4374 21.1286 37.4374 20.1921 38.0085 19.6211C38.5795 19.05 39.516 19.05 40.0871 19.6211ZM38.945 23.527C39.516 24.098 39.516 25.0345 38.945 25.6056C38.374 26.1766 37.4374 26.1766 36.8664 25.6056C36.2954 25.0345 36.2954 24.098 36.8664 23.527C37.4374 22.956 38.374 22.956 38.945 23.527ZM26.1993 35.4047C27.7297 35.4047 28.9632 36.6382 28.9632 38.1686C28.9632 39.699 27.7297 40.9324 26.1993 40.9324C24.6689 40.9324 23.4355 39.699 23.4355 38.1686C23.4355 36.6382 24.6689 35.4047 26.1993 35.4047Z" fill="white"/>
</svg>
