<svg width="177" height="24" viewBox="0 0 177 24" fill="none" xmlns="http://www.w3.org/2000/svg">
<path d="M37.1931 3.65332V20.5847L26.7584 3.65332H24.5449V23.488H26.4422V6.55666L36.8769 23.488H39.0904V3.65332H37.1931Z" fill="#D92819"/>
<path d="M53.7241 3.65332L43.5193 20.3835V3.65332H41.6221V23.488H43.5193L54.0978 6.58541V23.488H56.0238V3.65332H53.7241Z" fill="#D92819"/>
<path d="M141.547 3.65332L134.705 12.9958V3.65332H132.779V23.488H134.705V16.1578L135.74 14.7205L141.547 23.488H143.933L136.861 13.197L143.875 3.65332H141.547Z" fill="#D92819"/>
<path d="M67.2929 3.65332L60.4514 12.9958V3.65332H58.5254V23.488H60.4514V16.1578L61.4862 14.7205L67.2929 23.488H69.6788L62.6073 13.197L69.6213 3.65332H67.2929Z" fill="#D92819"/>
<path d="M68.5889 13.5688C68.5889 7.87713 72.7858 3.24902 77.9601 3.24902C83.1343 3.24902 87.3313 7.87713 87.3313 13.5688C87.3313 19.2605 83.1343 23.8886 77.9601 23.8886C72.7858 23.9174 68.5889 19.2605 68.5889 13.5688ZM85.3478 13.5401C85.3478 8.91198 82.042 5.175 77.9601 5.175C73.8781 5.175 70.5723 8.91198 70.5723 13.5401C70.5723 18.1682 73.8781 21.9627 77.9601 21.9627C82.042 21.9627 85.3478 18.1969 85.3478 13.5401Z" fill="#D92819"/>
<path d="M96.5344 3.65332H98.4604V23.488H96.5344V7.59152L87.7668 23.488H85.6396L96.5344 3.65332Z" fill="#D92819"/>
<path d="M100.961 3.65332H102.858V11.6734H106.566C109.642 11.6734 112.114 14.3181 112.114 17.5951C112.114 20.8434 109.613 23.488 106.566 23.488H100.961V3.65332ZM102.887 21.5621H106.595C108.55 21.5621 110.16 19.7798 110.16 17.5951C110.16 15.4104 108.55 13.6282 106.595 13.6282H102.887V21.5621Z" fill="#D92819"/>
<path d="M130.876 18.4269C129.784 21.4452 126.162 23.8886 122.77 23.8886C117.595 23.8886 113.398 19.2605 113.398 13.5688C113.398 7.87713 117.595 3.24902 122.77 3.24902C126.449 3.24902 130.157 5.86491 131.048 9.08446H128.979C127.915 6.92851 125.127 5.20375 122.77 5.20375C118.688 5.20375 115.382 8.94073 115.382 13.5688C115.382 18.1969 118.688 21.9914 122.77 21.9914C125.184 21.9914 127.858 20.4104 128.778 18.4556H130.876V18.4269Z" fill="#D92819"/>
<path d="M157.448 6.58541L146.87 23.488H144.973V3.65332H146.87V20.3835L157.075 3.65332H159.346V23.488H157.448V6.58541Z" fill="#D92819"/>
<path d="M174.374 6.61416L163.766 23.488H161.869V3.65332H163.766V20.3835L173.971 3.65332H176.271V23.488H174.374V6.61416Z" fill="#D92819"/>
<path d="M166.471 0C166.73 1.00611 167.65 1.55228 168.799 1.55228C169.834 1.55228 170.84 0.977363 171.157 0H172.623C172.364 1.78225 170.668 3.24829 168.799 3.24829C166.931 3.24829 165.235 1.78225 165.005 0H166.471Z" fill="#D92819"/>
<path d="M0 13.6006C0 10.1798 0 6.78777 0 3.367C0 3.30951 0 3.28076 0.0862379 3.28076C6.89903 3.28076 13.7118 3.28076 20.5246 3.28076C20.6109 3.28076 20.6109 3.30951 20.6109 3.367C20.6109 10.1798 20.6109 16.9926 20.6109 23.8054C20.6109 23.8916 20.6109 23.8916 20.5246 23.8916C13.7118 23.8916 6.89903 23.8916 0.0862379 23.8916C0 23.9204 0 23.8916 0 23.8054C0 20.4134 0 16.9926 0 13.6006Z" fill="#D92819"/>
<path d="M4.87913 9.02434V9.13932C4.87913 10.0592 4.87913 10.9791 4.87913 11.8989C4.87913 11.9852 4.85038 12.0139 4.76415 12.0139C4.33296 12.0139 3.93051 12.0139 3.49932 12.0139C3.44183 12.0139 3.41309 11.9852 3.41309 11.9277C3.41309 10.1454 3.41309 8.36318 3.41309 6.60968C3.41309 6.52344 3.44183 6.52344 3.49932 6.52344C3.93051 6.52344 4.3617 6.52344 4.79289 6.52344C4.85038 6.52344 4.87913 6.55218 4.90788 6.60968C5.4828 7.55829 6.08646 8.50691 6.66138 9.45553C6.69013 9.48427 6.69013 9.51302 6.71887 9.54176C6.74762 9.51302 6.74762 9.45553 6.74762 9.42678C6.74762 8.50691 6.74762 7.58704 6.74762 6.63842C6.74762 6.55218 6.77636 6.52344 6.8626 6.52344C7.29379 6.52344 7.69624 6.52344 8.12742 6.52344C8.18492 6.52344 8.21366 6.55218 8.21366 6.60968C8.21366 8.39192 8.21366 10.1742 8.21366 11.9564C8.21366 12.0139 8.18492 12.0427 8.12742 12.0427C7.69624 12.0427 7.26505 12.0427 6.83386 12.0427C6.77636 12.0427 6.74762 12.0139 6.71887 11.9852C6.14395 11.0366 5.54029 10.0879 4.96537 9.16807C4.93662 9.05308 4.90788 9.02434 4.87913 9.02434C4.87913 8.99559 4.87913 8.99559 4.87913 9.02434Z" fill="#FFFEFE"/>
<path d="M10.4317 9.28781L11.0354 8.51167C11.1504 8.36794 11.2654 8.19546 11.4091 8.05173C11.4378 8.02299 11.4666 7.99424 11.4953 7.99424C12.0415 7.99424 12.5877 7.99424 13.1051 7.99424C13.1051 7.99424 13.1051 7.99424 13.1339 7.99424C13.1051 8.02299 13.1051 8.05173 13.0764 8.05173C12.7027 8.45418 12.3002 8.88537 11.9265 9.28781C11.869 9.3453 11.869 9.37405 11.8978 9.46029C12.329 10.2652 12.7602 11.0701 13.1626 11.8462C13.1914 11.8749 13.1914 11.9037 13.2201 11.9324H13.1051C12.6452 11.9324 12.1852 11.9324 11.7253 11.9324C11.6391 11.9324 11.6103 11.9037 11.5816 11.8462C11.3516 11.3575 11.1216 10.8688 10.8917 10.3514C10.7767 10.4664 10.6617 10.6101 10.5467 10.6964C10.403 10.8401 10.3455 10.9838 10.3455 11.185C10.3742 11.415 10.3455 11.645 10.3455 11.8749C10.3455 11.9324 10.3168 11.9612 10.2593 11.9612C9.82807 11.9612 9.42563 11.9612 8.99444 11.9612C8.9082 11.9612 8.9082 11.9324 8.9082 11.8749C8.9082 11.1563 8.9082 10.4376 8.9082 9.74775C8.9082 8.68414 8.9082 7.62054 8.9082 6.58569C8.9082 6.49945 8.93695 6.4707 9.02319 6.4707C9.42563 6.4707 9.82807 6.4707 10.2305 6.4707C10.3168 6.4707 10.3168 6.49945 10.3168 6.55694C10.3168 7.44807 10.3168 8.31045 10.3168 9.20157L10.4317 9.28781Z" fill="#FFFEFE"/>
</svg>
