<svg width="229" height="131" viewBox="0 0 229 131" fill="none" xmlns="http://www.w3.org/2000/svg">
<rect width="228.074" height="131" rx="5" fill="#232C4F"/>
<path d="M52.6875 38.5625H34.3125C33.5876 38.5625 33 39.1501 33 39.875V56.9375C33 57.6624 33.5876 58.25 34.3125 58.25H52.6875C53.4124 58.25 54 57.6624 54 56.9375V39.875C54 39.1501 53.4124 38.5625 52.6875 38.5625Z" stroke="#BCB596" stroke-width="2" stroke-linecap="round" stroke-linejoin="round"/>
<path d="M38.9062 41.1875V36.5938C38.9062 35.9905 39.0251 35.3931 39.2559 34.8358C39.4868 34.2785 39.8252 33.772 40.2517 33.3455C40.6783 32.9189 41.1847 32.5805 41.742 32.3497C42.2994 32.1188 42.8967 32 43.5 32C44.1033 32 44.7006 32.1188 45.258 32.3497C45.8153 32.5805 46.3217 32.9189 46.7483 33.3455C47.1748 33.772 47.5132 34.2785 47.7441 34.8358C47.9749 35.3931 48.0938 35.9905 48.0938 36.5938V41.1875" stroke="#BCB596" stroke-width="2" stroke-linecap="round" stroke-linejoin="round"/>
<path fill-rule="evenodd" clip-rule="evenodd" d="M34.3125 39.5625C34.1399 39.5625 34 39.7024 34 39.875V56.9375C34 57.1101 34.1399 57.25 34.3125 57.25H52.6875C52.8601 57.25 53 57.1101 53 56.9375V39.875C53 39.7024 52.8601 39.5625 52.6875 39.5625H34.3125ZM32 39.875C32 38.5978 33.0353 37.5625 34.3125 37.5625H52.6875C53.9647 37.5625 55 38.5978 55 39.875V56.9375C55 58.2147 53.9647 59.25 52.6875 59.25H34.3125C33.0353 59.25 32 58.2147 32 56.9375V39.875Z" fill="white"/>
<path fill-rule="evenodd" clip-rule="evenodd" d="M43.5 33C43.0281 33 42.5607 33.093 42.1247 33.2736C41.6887 33.4542 41.2925 33.7189 40.9588 34.0526C40.6251 34.3863 40.3604 34.7825 40.1798 35.2185C39.9992 35.6545 39.9062 36.1218 39.9062 36.5938V41.1875C39.9062 41.7398 39.4585 42.1875 38.9062 42.1875C38.354 42.1875 37.9062 41.7398 37.9062 41.1875V36.5938C37.9062 35.8592 38.0509 35.1318 38.332 34.4531C38.6132 33.7744 39.0252 33.1578 39.5446 32.6384C40.064 32.1189 40.6807 31.7069 41.3594 31.4258C42.038 31.1447 42.7654 31 43.5 31C44.2346 31 44.962 31.1447 45.6406 31.4258C46.3193 31.7069 46.936 32.1189 47.4554 32.6384C47.9748 33.1578 48.3868 33.7744 48.668 34.4531C48.9491 35.1318 49.0938 35.8592 49.0938 36.5938V41.1875C49.0938 41.7398 48.646 42.1875 48.0938 42.1875C47.5415 42.1875 47.0938 41.7398 47.0938 41.1875V36.5938C47.0938 36.1218 47.0008 35.6545 46.8202 35.2185C46.6396 34.7825 46.3749 34.3863 46.0412 34.0526C45.7075 33.7189 45.3113 33.4542 44.8753 33.2736C44.4393 33.093 43.9719 33 43.5 33Z" fill="white"/>
<path d="M43.338 92L43.32 83.648L39.18 90.56H38.136L33.996 83.756V92H31.782V79.4H33.708L38.694 87.734L43.626 79.4H45.534L45.57 92H43.338ZM52.426 82.28C53.842 82.28 54.922 82.622 55.666 83.306C56.422 83.978 56.8 84.998 56.8 86.366V92H54.676V90.83C54.4 91.25 54.004 91.574 53.488 91.802C52.984 92.018 52.372 92.126 51.652 92.126C50.932 92.126 50.302 92.006 49.762 91.766C49.222 91.514 48.802 91.172 48.502 90.74C48.214 90.296 48.07 89.798 48.07 89.246C48.07 88.382 48.388 87.692 49.024 87.176C49.672 86.648 50.686 86.384 52.066 86.384H54.55V86.24C54.55 85.568 54.346 85.052 53.938 84.692C53.542 84.332 52.948 84.152 52.156 84.152C51.616 84.152 51.082 84.236 50.554 84.404C50.038 84.572 49.6 84.806 49.24 85.106L48.358 83.468C48.862 83.084 49.468 82.79 50.176 82.586C50.884 82.382 51.634 82.28 52.426 82.28ZM52.12 90.488C52.684 90.488 53.182 90.362 53.614 90.11C54.058 89.846 54.37 89.474 54.55 88.994V87.878H52.228C50.932 87.878 50.284 88.304 50.284 89.156C50.284 89.564 50.446 89.888 50.77 90.128C51.094 90.368 51.544 90.488 52.12 90.488ZM66.9643 84.296H61.8343V92H59.5843V82.388H66.9643V84.296ZM72.1838 82.28C73.5998 82.28 74.6798 82.622 75.4238 83.306C76.1798 83.978 76.5578 84.998 76.5578 86.366V92H74.4338V90.83C74.1578 91.25 73.7618 91.574 73.2458 91.802C72.7418 92.018 72.1298 92.126 71.4098 92.126C70.6898 92.126 70.0598 92.006 69.5198 91.766C68.9798 91.514 68.5598 91.172 68.2598 90.74C67.9718 90.296 67.8278 89.798 67.8278 89.246C67.8278 88.382 68.1458 87.692 68.7818 87.176C69.4298 86.648 70.4438 86.384 71.8238 86.384H74.3078V86.24C74.3078 85.568 74.1038 85.052 73.6958 84.692C73.2998 84.332 72.7058 84.152 71.9138 84.152C71.3738 84.152 70.8398 84.236 70.3118 84.404C69.7958 84.572 69.3578 84.806 68.9978 85.106L68.1158 83.468C68.6198 83.084 69.2258 82.79 69.9338 82.586C70.6418 82.382 71.3918 82.28 72.1838 82.28ZM71.8778 90.488C72.4418 90.488 72.9398 90.362 73.3718 90.11C73.8158 89.846 74.1278 89.474 74.3078 88.994V87.878H71.9858C70.6898 87.878 70.0418 88.304 70.0418 89.156C70.0418 89.564 70.2038 89.888 70.5278 90.128C70.8518 90.368 71.3018 90.488 71.8778 90.488ZM84.961 86.996C85.561 87.164 86.023 87.44 86.347 87.824C86.683 88.196 86.851 88.646 86.851 89.174C86.851 89.762 86.653 90.284 86.257 90.74C85.861 91.184 85.315 91.532 84.619 91.784C83.923 92.036 83.131 92.162 82.243 92.162C81.499 92.162 80.773 92.078 80.065 91.91C79.357 91.73 78.715 91.478 78.139 91.154L78.787 89.48C79.255 89.744 79.783 89.948 80.371 90.092C80.959 90.236 81.547 90.308 82.135 90.308C82.891 90.308 83.479 90.194 83.899 89.966C84.331 89.726 84.547 89.402 84.547 88.994C84.547 88.622 84.379 88.334 84.043 88.13C83.719 87.926 83.257 87.824 82.657 87.824H80.785V86.312H82.477C83.041 86.312 83.479 86.216 83.791 86.024C84.115 85.832 84.277 85.562 84.277 85.214C84.277 84.866 84.085 84.59 83.701 84.386C83.317 84.182 82.789 84.08 82.117 84.08C81.157 84.08 80.143 84.314 79.075 84.782L78.499 83.126C79.759 82.538 81.031 82.244 82.315 82.244C83.131 82.244 83.863 82.358 84.511 82.586C85.159 82.802 85.663 83.114 86.023 83.522C86.395 83.918 86.581 84.374 86.581 84.89C86.581 85.358 86.437 85.778 86.149 86.15C85.861 86.51 85.465 86.792 84.961 86.996ZM89.1858 82.388H91.4358V88.724L96.7458 82.388H98.7978V92H96.5478V85.664L91.2558 92H89.1858V82.388ZM101.825 82.388H104.075V86.294H108.917V82.388H111.167V92H108.917V88.202H104.075V92H101.825V82.388ZM40.728 102.388V112H38.496V104.296H33.762V112H31.512V102.388H40.728ZM49.092 102.28C50.028 102.28 50.862 102.484 51.594 102.892C52.338 103.3 52.92 103.876 53.34 104.62C53.76 105.364 53.97 106.222 53.97 107.194C53.97 108.166 53.76 109.03 53.34 109.786C52.92 110.53 52.338 111.106 51.594 111.514C50.862 111.922 50.028 112.126 49.092 112.126C47.796 112.126 46.77 111.694 46.014 110.83V115.492H43.764V102.388H45.906V103.648C46.278 103.192 46.734 102.85 47.274 102.622C47.826 102.394 48.432 102.28 49.092 102.28ZM48.84 110.2C49.668 110.2 50.346 109.924 50.874 109.372C51.414 108.82 51.684 108.094 51.684 107.194C51.684 106.294 51.414 105.568 50.874 105.016C50.346 104.464 49.668 104.188 48.84 104.188C48.3 104.188 47.814 104.314 47.382 104.566C46.95 104.806 46.608 105.154 46.356 105.61C46.104 106.066 45.978 106.594 45.978 107.194C45.978 107.794 46.104 108.322 46.356 108.778C46.608 109.234 46.95 109.588 47.382 109.84C47.814 110.08 48.3 110.2 48.84 110.2ZM60.4933 112.126C59.5213 112.126 58.6453 111.916 57.8653 111.496C57.0853 111.076 56.4733 110.494 56.0293 109.75C55.5973 108.994 55.3813 108.142 55.3813 107.194C55.3813 106.246 55.5973 105.4 56.0293 104.656C56.4733 103.912 57.0853 103.33 57.8653 102.91C58.6453 102.49 59.5213 102.28 60.4933 102.28C61.4773 102.28 62.3593 102.49 63.1393 102.91C63.9193 103.33 64.5253 103.912 64.9573 104.656C65.4013 105.4 65.6233 106.246 65.6233 107.194C65.6233 108.142 65.4013 108.994 64.9573 109.75C64.5253 110.494 63.9193 111.076 63.1393 111.496C62.3593 111.916 61.4773 112.126 60.4933 112.126ZM60.4933 110.2C61.3213 110.2 62.0053 109.924 62.5453 109.372C63.0853 108.82 63.3553 108.094 63.3553 107.194C63.3553 106.294 63.0853 105.568 62.5453 105.016C62.0053 104.464 61.3213 104.188 60.4933 104.188C59.6653 104.188 58.9813 104.464 58.4413 105.016C57.9133 105.568 57.6493 106.294 57.6493 107.194C57.6493 108.094 57.9133 108.82 58.4413 109.372C58.9813 109.924 59.6653 110.2 60.4933 110.2ZM78.0005 110.092V114.142H75.8945V112H68.4785V114.142H66.3905V110.092H66.8405C67.4525 110.068 67.8665 109.678 68.0825 108.922C68.3105 108.154 68.4605 107.074 68.5325 105.682L68.6585 102.388H76.5785V110.092H78.0005ZM70.5845 105.844C70.5365 106.948 70.4465 107.848 70.3145 108.544C70.1825 109.24 69.9425 109.756 69.5945 110.092H74.3285V104.296H70.6385L70.5845 105.844ZM89.082 102.388L84.582 112.774C84.162 113.818 83.652 114.55 83.052 114.97C82.452 115.402 81.726 115.618 80.874 115.618C80.394 115.618 79.92 115.54 79.452 115.384C78.984 115.228 78.6 115.012 78.3 114.736L79.2 113.08C79.416 113.284 79.668 113.446 79.956 113.566C80.256 113.686 80.556 113.746 80.856 113.746C81.252 113.746 81.576 113.644 81.828 113.44C82.092 113.236 82.332 112.894 82.548 112.414L82.71 112.036L78.516 102.388H80.856L83.88 109.498L86.922 102.388H89.082ZM94.6408 108.148H92.8948V112H90.6448V102.388H92.8948V106.276H94.6948L97.5388 102.388H99.9508L96.4588 107.014L100.185 112H97.5388L94.6408 108.148ZM109.263 104.296H105.897V112H103.647V104.296H100.263V102.388H109.263V104.296ZM114.757 112.126C113.785 112.126 112.909 111.916 112.129 111.496C111.349 111.076 110.737 110.494 110.293 109.75C109.861 108.994 109.645 108.142 109.645 107.194C109.645 106.246 109.861 105.4 110.293 104.656C110.737 103.912 111.349 103.33 112.129 102.91C112.909 102.49 113.785 102.28 114.757 102.28C115.741 102.28 116.623 102.49 117.403 102.91C118.183 103.33 118.789 103.912 119.221 104.656C119.665 105.4 119.887 106.246 119.887 107.194C119.887 108.142 119.665 108.994 119.221 109.75C118.789 110.494 118.183 111.076 117.403 111.496C116.623 111.916 115.741 112.126 114.757 112.126ZM114.757 110.2C115.585 110.2 116.269 109.924 116.809 109.372C117.349 108.82 117.619 108.094 117.619 107.194C117.619 106.294 117.349 105.568 116.809 105.016C116.269 104.464 115.585 104.188 114.757 104.188C113.929 104.188 113.245 104.464 112.705 105.016C112.177 105.568 111.913 106.294 111.913 107.194C111.913 108.094 112.177 108.82 112.705 109.372C113.245 109.924 113.929 110.2 114.757 110.2ZM129.076 106.996C130.264 107.356 130.858 108.124 130.858 109.3C130.858 110.164 130.534 110.83 129.886 111.298C129.238 111.766 128.278 112 127.006 112H122.11V102.388H126.808C127.984 102.388 128.902 102.604 129.562 103.036C130.222 103.468 130.552 104.08 130.552 104.872C130.552 105.364 130.42 105.79 130.156 106.15C129.904 106.51 129.544 106.792 129.076 106.996ZM124.252 106.402H126.61C127.774 106.402 128.356 106 128.356 105.196C128.356 104.416 127.774 104.026 126.61 104.026H124.252V106.402ZM126.826 110.362C128.062 110.362 128.68 109.96 128.68 109.156C128.68 108.736 128.536 108.424 128.248 108.22C127.96 108.004 127.51 107.896 126.898 107.896H124.252V110.362H126.826Z" fill="white"/>
</svg>
