<svg width="229" height="131" viewBox="0 0 229 131" fill="none" xmlns="http://www.w3.org/2000/svg">
<rect x="0.5" y="0.5" width="227.074" height="130" rx="4.5" fill="white" stroke="#EEEEEE"/>
<path d="M34.55 53.45H30V40.45C30 38.5 31.3 36.225 33.25 34.6C35.2 32.975 39.1 32 39.1 32H46.9C46.9 32 50.8 32.975 52.75 34.6C54.7 36.225 56 38.5 56 40.45V53.45H51.45" stroke="#373737" stroke-width="2" stroke-linecap="round" stroke-linejoin="round"/>
<path d="M46.8969 32C46.8969 33.0343 46.486 34.0263 45.7546 34.7577C45.0232 35.4891 44.0312 35.9 42.9969 35.9C41.9625 35.9 40.9706 35.4891 40.2392 34.7577C39.5078 34.0263 39.0969 33.0343 39.0969 32M51.4469 40.45V58H34.5469V40.45H51.4469Z" stroke="#373737" stroke-width="2" stroke-linecap="round" stroke-linejoin="round"/>
<path d="M43.338 92L43.32 83.648L39.18 90.56H38.136L33.996 83.756V92H31.782V79.4H33.708L38.694 87.734L43.626 79.4H45.534L45.57 92H43.338ZM52.426 82.28C53.842 82.28 54.922 82.622 55.666 83.306C56.422 83.978 56.8 84.998 56.8 86.366V92H54.676V90.83C54.4 91.25 54.004 91.574 53.488 91.802C52.984 92.018 52.372 92.126 51.652 92.126C50.932 92.126 50.302 92.006 49.762 91.766C49.222 91.514 48.802 91.172 48.502 90.74C48.214 90.296 48.07 89.798 48.07 89.246C48.07 88.382 48.388 87.692 49.024 87.176C49.672 86.648 50.686 86.384 52.066 86.384H54.55V86.24C54.55 85.568 54.346 85.052 53.938 84.692C53.542 84.332 52.948 84.152 52.156 84.152C51.616 84.152 51.082 84.236 50.554 84.404C50.038 84.572 49.6 84.806 49.24 85.106L48.358 83.468C48.862 83.084 49.468 82.79 50.176 82.586C50.884 82.382 51.634 82.28 52.426 82.28ZM52.12 90.488C52.684 90.488 53.182 90.362 53.614 90.11C54.058 89.846 54.37 89.474 54.55 88.994V87.878H52.228C50.932 87.878 50.284 88.304 50.284 89.156C50.284 89.564 50.446 89.888 50.77 90.128C51.094 90.368 51.544 90.488 52.12 90.488ZM66.9643 84.296H61.8343V92H59.5843V82.388H66.9643V84.296ZM72.1838 82.28C73.5998 82.28 74.6798 82.622 75.4238 83.306C76.1798 83.978 76.5578 84.998 76.5578 86.366V92H74.4338V90.83C74.1578 91.25 73.7618 91.574 73.2458 91.802C72.7418 92.018 72.1298 92.126 71.4098 92.126C70.6898 92.126 70.0598 92.006 69.5198 91.766C68.9798 91.514 68.5598 91.172 68.2598 90.74C67.9718 90.296 67.8278 89.798 67.8278 89.246C67.8278 88.382 68.1458 87.692 68.7818 87.176C69.4298 86.648 70.4438 86.384 71.8238 86.384H74.3078V86.24C74.3078 85.568 74.1038 85.052 73.6958 84.692C73.2998 84.332 72.7058 84.152 71.9138 84.152C71.3738 84.152 70.8398 84.236 70.3118 84.404C69.7958 84.572 69.3578 84.806 68.9978 85.106L68.1158 83.468C68.6198 83.084 69.2258 82.79 69.9338 82.586C70.6418 82.382 71.3918 82.28 72.1838 82.28ZM71.8778 90.488C72.4418 90.488 72.9398 90.362 73.3718 90.11C73.8158 89.846 74.1278 89.474 74.3078 88.994V87.878H71.9858C70.6898 87.878 70.0418 88.304 70.0418 89.156C70.0418 89.564 70.2038 89.888 70.5278 90.128C70.8518 90.368 71.3018 90.488 71.8778 90.488ZM84.961 86.996C85.561 87.164 86.023 87.44 86.347 87.824C86.683 88.196 86.851 88.646 86.851 89.174C86.851 89.762 86.653 90.284 86.257 90.74C85.861 91.184 85.315 91.532 84.619 91.784C83.923 92.036 83.131 92.162 82.243 92.162C81.499 92.162 80.773 92.078 80.065 91.91C79.357 91.73 78.715 91.478 78.139 91.154L78.787 89.48C79.255 89.744 79.783 89.948 80.371 90.092C80.959 90.236 81.547 90.308 82.135 90.308C82.891 90.308 83.479 90.194 83.899 89.966C84.331 89.726 84.547 89.402 84.547 88.994C84.547 88.622 84.379 88.334 84.043 88.13C83.719 87.926 83.257 87.824 82.657 87.824H80.785V86.312H82.477C83.041 86.312 83.479 86.216 83.791 86.024C84.115 85.832 84.277 85.562 84.277 85.214C84.277 84.866 84.085 84.59 83.701 84.386C83.317 84.182 82.789 84.08 82.117 84.08C81.157 84.08 80.143 84.314 79.075 84.782L78.499 83.126C79.759 82.538 81.031 82.244 82.315 82.244C83.131 82.244 83.863 82.358 84.511 82.586C85.159 82.802 85.663 83.114 86.023 83.522C86.395 83.918 86.581 84.374 86.581 84.89C86.581 85.358 86.437 85.778 86.149 86.15C85.861 86.51 85.465 86.792 84.961 86.996ZM89.1858 82.388H91.4358V88.724L96.7458 82.388H98.7978V92H96.5478V85.664L91.2558 92H89.1858V82.388ZM101.825 82.388H104.075V86.294H108.917V82.388H111.167V92H108.917V88.202H104.075V92H101.825V82.388ZM35.796 112.126C34.824 112.126 33.948 111.916 33.168 111.496C32.388 111.076 31.776 110.494 31.332 109.75C30.9 108.994 30.684 108.142 30.684 107.194C30.684 106.246 30.9 105.4 31.332 104.656C31.776 103.912 32.388 103.33 33.168 102.91C33.948 102.49 34.824 102.28 35.796 102.28C36.78 102.28 37.662 102.49 38.442 102.91C39.222 103.33 39.828 103.912 40.26 104.656C40.704 105.4 40.926 106.246 40.926 107.194C40.926 108.142 40.704 108.994 40.26 109.75C39.828 110.494 39.222 111.076 38.442 111.496C37.662 111.916 36.78 112.126 35.796 112.126ZM35.796 110.2C36.624 110.2 37.308 109.924 37.848 109.372C38.388 108.82 38.658 108.094 38.658 107.194C38.658 106.294 38.388 105.568 37.848 105.016C37.308 104.464 36.624 104.188 35.796 104.188C34.968 104.188 34.284 104.464 33.744 105.016C33.216 105.568 32.952 106.294 32.952 107.194C32.952 108.094 33.216 108.82 33.744 109.372C34.284 109.924 34.968 110.2 35.796 110.2ZM53.3033 110.092V114.142H51.1973V112H43.7812V114.142H41.6933V110.092H42.1433C42.7553 110.068 43.1693 109.678 43.3853 108.922C43.6133 108.154 43.7633 107.074 43.8353 105.682L43.9613 102.388H51.8813V110.092H53.3033ZM45.8873 105.844C45.8393 106.948 45.7493 107.848 45.6173 108.544C45.4853 109.24 45.2453 109.756 44.8973 110.092H49.6313V104.296H45.9413L45.8873 105.844ZM64.3128 107.248C64.3128 107.404 64.3008 107.626 64.2768 107.914H56.7348C56.8668 108.622 57.2088 109.186 57.7608 109.606C58.3248 110.014 59.0208 110.218 59.8488 110.218C60.9048 110.218 61.7748 109.87 62.4588 109.174L63.6648 110.56C63.2328 111.076 62.6868 111.466 62.0268 111.73C61.3668 111.994 60.6228 112.126 59.7948 112.126C58.7388 112.126 57.8088 111.916 57.0048 111.496C56.2008 111.076 55.5768 110.494 55.1328 109.75C54.7008 108.994 54.4848 108.142 54.4848 107.194C54.4848 106.258 54.6948 105.418 55.1148 104.674C55.5468 103.918 56.1408 103.33 56.8968 102.91C57.6528 102.49 58.5048 102.28 59.4528 102.28C60.3888 102.28 61.2228 102.49 61.9548 102.91C62.6988 103.318 63.2748 103.9 63.6828 104.656C64.1028 105.4 64.3128 106.264 64.3128 107.248ZM59.4528 104.08C58.7328 104.08 58.1208 104.296 57.6168 104.728C57.1248 105.148 56.8248 105.712 56.7168 106.42H62.1708C62.0748 105.724 61.7808 105.16 61.2888 104.728C60.7968 104.296 60.1848 104.08 59.4528 104.08ZM75.636 108.148H74.016V112H71.784V108.148H70.164L67.824 112H65.16L68.31 107.032L65.394 102.388H67.788L70.128 106.276H71.784V102.388H74.016V106.276H75.654L78.012 102.388H80.406L77.49 107.032L80.658 112H77.976L75.636 108.148ZM92.5904 110.092V114.142H90.4844V112H83.0684V114.142H80.9804V110.092H81.4304C82.0424 110.068 82.4564 109.678 82.6724 108.922C82.9004 108.154 83.0504 107.074 83.1224 105.682L83.2484 102.388H91.1684V110.092H92.5904ZM85.1744 105.844C85.1264 106.948 85.0364 107.848 84.9044 108.544C84.7724 109.24 84.5324 109.756 84.1844 110.092H88.9184V104.296H85.2284L85.1744 105.844ZM99.2799 105.556C100.504 105.556 101.44 105.832 102.088 106.384C102.736 106.936 103.06 107.716 103.06 108.724C103.06 109.78 102.7 110.596 101.98 111.172C101.272 111.748 100.264 112.03 98.9559 112.018L94.5999 112V102.388H96.8499V105.538L99.2799 105.556ZM104.302 102.388H106.552V112H104.302V102.388ZM98.7579 110.362C99.4179 110.374 99.9219 110.236 100.27 109.948C100.618 109.66 100.792 109.24 100.792 108.688C100.792 108.148 100.624 107.752 100.288 107.5C99.9519 107.248 99.4419 107.116 98.7579 107.104L96.8499 107.086V110.344L98.7579 110.362Z" fill="#373737"/>
</svg>
