<svg width="23" height="29" viewBox="0 0 23 29" fill="none" xmlns="http://www.w3.org/2000/svg">
<path d="M20.6875 7.5625H2.3125C1.58763 7.5625 1 8.15013 1 8.875V25.9375C1 26.6624 1.58763 27.25 2.3125 27.25H20.6875C21.4124 27.25 22 26.6624 22 25.9375V8.875C22 8.15013 21.4124 7.5625 20.6875 7.5625Z" stroke="#BCB596" stroke-width="2" stroke-linecap="round" stroke-linejoin="round"/>
<path d="M6.90625 10.1875V5.59375C6.90625 4.99049 7.02507 4.39314 7.25593 3.8358C7.48679 3.27846 7.82516 2.77205 8.25173 2.34548C8.6783 1.91891 9.18471 1.58054 9.74205 1.34968C10.2994 1.11882 10.8967 1 11.5 1C12.1033 1 12.7006 1.11882 13.258 1.34968C13.8153 1.58054 14.3217 1.91891 14.7483 2.34548C15.1748 2.77205 15.5132 3.27846 15.7441 3.8358C15.9749 4.39314 16.0938 4.99049 16.0938 5.59375V10.1875" stroke="#BCB596" stroke-width="2" stroke-linecap="round" stroke-linejoin="round"/>
</svg>
