<svg width="40" height="40" viewBox="0 0 40 40" fill="none" xmlns="http://www.w3.org/2000/svg">
<circle cx="20" cy="20" r="20" fill="#003457"/>
<path d="M27.4122 13.7792H25.5249V12.591C25.5249 10.9833 24.1969 9.65527 22.5892 9.65527H17.4168C15.8092 9.65527 14.4811 10.9833 14.4811 12.591V13.7093H12.5939C10.9863 13.7792 9.6582 14.8976 9.6582 16.5052V27.4092C9.6582 29.0169 10.9863 30.3449 12.5939 30.3449H27.4122C29.0198 30.3449 30.3479 29.0169 30.3479 27.4092V16.5052C30.3479 14.8976 29.0198 13.7792 27.4122 13.7792ZM16.0189 12.591C16.0189 11.892 16.648 11.193 17.4168 11.193H22.5892C23.2882 11.193 23.9872 11.8221 23.9872 12.591V13.7093H16.0189V12.591ZM24.7561 23.9843H21.6107V27.1296H18.4653V23.9843H15.25V20.07H18.3954V16.9246H21.5408V20.07H24.6862L24.7561 23.9843Z" fill="white"/>
</svg>
