<svg width="139" height="19" viewBox="0 0 139 19" fill="none" xmlns="http://www.w3.org/2000/svg">
<path d="M29.3224 2.88086V16.2322L21.094 2.88086H19.3486V18.5216H20.8447V5.1703L29.0731 18.5216H30.8185V2.88086H29.3224Z" fill="#D92819"/>
<path d="M42.3625 2.88086L34.3154 16.0735V2.88086H32.8193V18.5216H34.3154L42.6571 5.19297V18.5216H44.1759V2.88086H42.3625Z" fill="#D92819"/>
<path d="M111.618 2.88086L106.223 10.2479V2.88086H104.704V18.5216H106.223V12.7413L107.039 11.6079L111.618 18.5216H113.499L107.923 10.4066L113.454 2.88086H111.618Z" fill="#D92819"/>
<path d="M53.0641 2.88086L47.6691 10.2479V2.88086H46.1504V18.5216H47.6691V12.7413L48.4852 11.6079L53.0641 18.5216H54.9455L49.3692 10.4066L54.9001 2.88086H53.0641Z" fill="#D92819"/>
<path d="M54.0859 10.7002C54.0859 6.21201 57.3954 2.5625 61.4756 2.5625C65.5558 2.5625 68.8653 6.21201 68.8653 10.7002C68.8653 15.1884 65.5558 18.8379 61.4756 18.8379C57.3954 18.8606 54.0859 15.1884 54.0859 10.7002ZM67.3012 10.6776C67.3012 7.02805 64.6945 4.08124 61.4756 4.08124C58.2568 4.08124 55.65 7.02805 55.65 10.6776C55.65 14.3271 58.2568 17.3192 61.4756 17.3192C64.6945 17.3192 67.3012 14.3497 67.3012 10.6776Z" fill="#D92819"/>
<path d="M76.1233 2.88086H77.642V18.5216H76.1233V5.98634L69.2096 18.5216H67.5322L76.1233 2.88086Z" fill="#D92819"/>
<path d="M79.6113 2.88086H81.1074V9.20516H84.0315C86.457 9.20516 88.4064 11.2906 88.4064 13.8747C88.4064 16.4362 86.4343 18.5216 84.0315 18.5216H79.6113V2.88086ZM81.1301 17.0029H84.0542C85.5956 17.0029 86.865 15.5975 86.865 13.8747C86.865 12.152 85.5956 10.7466 84.0542 10.7466H81.1301V17.0029Z" fill="#D92819"/>
<path d="M103.201 14.5311C102.34 16.9112 99.4834 18.8379 96.8086 18.8379C92.7284 18.8379 89.4189 15.1884 89.4189 10.7002C89.4189 6.21201 92.7284 2.5625 96.8086 2.5625C99.7101 2.5625 102.634 4.62527 103.337 7.16405H101.705C100.866 5.46397 98.6674 4.10391 96.8086 4.10391C93.5898 4.10391 90.983 7.05071 90.983 10.7002C90.983 14.3497 93.5898 17.3419 96.8086 17.3419C98.7127 17.3419 100.821 16.0951 101.546 14.5537H103.201V14.5311Z" fill="#D92819"/>
<path d="M124.157 5.19297L115.815 18.5216H114.319V2.88086H115.815V16.0735L123.862 2.88086H125.653V18.5216H124.157V5.19297Z" fill="#D92819"/>
<path d="M137.503 5.21564L129.139 18.5216H127.643V2.88086H129.139V16.0735L137.186 2.88086H138.999V18.5216H137.503V5.21564Z" fill="#D92819"/>
<path d="M131.27 0C131.474 0.793371 132.2 1.22406 133.106 1.22406C133.922 1.22406 134.716 0.770703 134.965 0H136.121C135.917 1.4054 134.58 2.56146 133.106 2.56146C131.633 2.56146 130.296 1.4054 130.114 0H131.27Z" fill="#D92819"/>
<path d="M0 10.7256C0 8.02816 0 5.35336 0 2.65589C0 2.61056 0 2.58789 0.0680032 2.58789C5.44026 2.58789 10.8125 2.58789 16.1848 2.58789C16.2528 2.58789 16.2528 2.61056 16.2528 2.65589C16.2528 8.02815 16.2528 13.4004 16.2528 18.7727C16.2528 18.8407 16.2528 18.8407 16.1848 18.8407C10.8125 18.8407 5.44026 18.8407 0.0680032 18.8407C0 18.8633 0 18.8407 0 18.7727C0 16.0979 0 13.4004 0 10.7256Z" fill="#D92819"/>
<path d="M3.84551 7.11467V7.20534C3.84551 7.93071 3.84551 8.65608 3.84551 9.38145C3.84551 9.44945 3.82284 9.47212 3.75484 9.47212C3.41482 9.47212 3.09747 9.47212 2.75746 9.47212C2.71212 9.47212 2.68945 9.44945 2.68945 9.40411C2.68945 7.99871 2.68945 6.59331 2.68945 5.21058C2.68945 5.14258 2.71212 5.14258 2.75746 5.14258C3.09747 5.14258 3.43749 5.14258 3.77751 5.14258C3.82284 5.14258 3.84551 5.16525 3.86818 5.21058C4.32153 5.95862 4.79755 6.70665 5.25091 7.45469C5.27358 7.47736 5.27358 7.50002 5.29624 7.52269C5.31891 7.50002 5.31891 7.45469 5.31891 7.43202C5.31891 6.70665 5.31891 5.98128 5.31891 5.23325C5.31891 5.16525 5.34158 5.14258 5.40958 5.14258C5.7496 5.14258 6.06695 5.14258 6.40696 5.14258C6.4523 5.14258 6.47497 5.16525 6.47497 5.21058C6.47497 6.61598 6.47497 8.02138 6.47497 9.42678C6.47497 9.47212 6.4523 9.49478 6.40696 9.49478C6.06695 9.49478 5.72693 9.49478 5.38691 9.49478C5.34158 9.49478 5.31891 9.47212 5.29624 9.44945C4.84289 8.70141 4.36687 7.95338 3.91351 7.22801C3.89084 7.13734 3.86818 7.11467 3.84551 7.11467C3.84551 7.092 3.84551 7.092 3.84551 7.11467Z" fill="#FFFEFE"/>
<path d="M8.22483 7.32495L8.70085 6.71293C8.79152 6.59959 8.88219 6.46358 8.99553 6.35024C9.0182 6.32757 9.04087 6.30491 9.06353 6.30491C9.49422 6.30491 9.92491 6.30491 10.3329 6.30491C10.3329 6.30491 10.3329 6.30491 10.3556 6.30491C10.3329 6.32757 10.3329 6.35024 10.3103 6.35024C10.0156 6.66759 9.69823 7.00761 9.40355 7.32495C9.35821 7.37029 9.35822 7.39296 9.38088 7.46096C9.7209 8.09566 10.0609 8.73036 10.3783 9.34238C10.4009 9.36505 10.4009 9.38772 10.4236 9.41039H10.3329C9.97024 9.41039 9.60756 9.41039 9.24488 9.41039C9.17687 9.41039 9.1542 9.38772 9.13154 9.34238C8.9502 8.95703 8.76885 8.57168 8.58751 8.16366C8.49684 8.25433 8.40617 8.36767 8.3155 8.43567C8.20216 8.54901 8.15682 8.66235 8.15682 8.82103C8.17949 9.00237 8.15682 9.18371 8.15682 9.36505C8.15682 9.41039 8.13416 9.43306 8.08882 9.43306C7.74881 9.43306 7.43146 9.43306 7.09144 9.43306C7.02344 9.43306 7.02344 9.41039 7.02344 9.36505C7.02344 8.79836 7.02344 8.23167 7.02344 7.68764C7.02344 6.84893 7.02344 6.01023 7.02344 5.19419C7.02344 5.12618 7.04611 5.10352 7.11411 5.10352C7.43146 5.10352 7.7488 5.10352 8.06615 5.10352C8.13416 5.10352 8.13416 5.12618 8.13416 5.17152C8.13416 5.87422 8.13416 6.55425 8.13416 7.25695L8.22483 7.32495Z" fill="#FFFEFE"/>
</svg>
