<svg width="254" height="35" viewBox="0 0 254 35" fill="none" xmlns="http://www.w3.org/2000/svg">
<path d="M53.5836 5.26111V29.6594L38.547 5.26111H35.3574V33.8431H38.0914V9.44485L53.128 33.8431H56.3176V5.26111H53.5836Z" fill="white"/>
<path d="M77.4115 5.26111L62.7063 29.3694V5.26111H59.9724V33.8431H62.7063L77.9501 9.48628V33.8431H80.7254V5.26111H77.4115Z" fill="white"/>
<path d="M203.96 5.26111L194.102 18.7237V5.26111H191.326V33.8431H194.102V23.2802L195.593 21.209L203.96 33.8431H207.399L197.208 19.0136L207.316 5.26111H203.96Z" fill="white"/>
<path d="M96.9622 5.26111L87.1035 18.7237V5.26111H84.3281V33.8431H87.1035V23.2802L88.5947 21.209L96.9622 33.8431H100.4L90.2102 19.0136L100.317 5.26111H96.9622Z" fill="white"/>
<path d="M98.8304 19.5566C98.8304 11.3548 104.878 4.68568 112.334 4.68568C119.791 4.68568 125.838 11.3548 125.838 19.5566C125.838 27.7584 119.791 34.4275 112.334 34.4275C104.878 34.4689 98.8304 27.7584 98.8304 19.5566ZM122.98 19.5152C122.98 12.846 118.216 7.46103 112.334 7.46103C106.452 7.46103 101.689 12.846 101.689 19.5152C101.689 26.1843 106.452 31.6522 112.334 31.6522C118.216 31.6522 122.98 26.2257 122.98 19.5152Z" fill="white"/>
<path d="M139.098 5.26111H141.874V33.8431H139.098V10.9361L126.464 33.8431H123.399L139.098 5.26111Z" fill="white"/>
<path d="M145.476 5.26111H148.21V16.8182H153.553C157.986 16.8182 161.548 20.6291 161.548 25.3514C161.548 30.0322 157.944 33.8431 153.553 33.8431H145.476V5.26111ZM148.251 31.0678H153.595C156.412 31.0678 158.731 28.4995 158.731 25.3514C158.731 22.2032 156.412 19.635 153.595 19.635H148.251V31.0678Z" fill="white"/>
<path d="M188.585 26.5571C187.011 30.9066 181.791 34.4275 176.903 34.4275C169.447 34.4275 163.4 27.7584 163.4 19.5566C163.4 11.3548 169.447 4.68568 176.903 4.68568C182.206 4.68568 187.549 8.45519 188.833 13.0946H185.851C184.318 9.98785 180.3 7.50246 176.903 7.50246C171.021 7.50246 166.258 12.8875 166.258 19.5566C166.258 26.2257 171.021 31.6936 176.903 31.6936C180.383 31.6936 184.235 29.4153 185.561 26.5986H188.585V26.5571Z" fill="white"/>
<path d="M226.875 9.48628L211.631 33.8431H208.897V5.26111H211.631V29.3694L226.336 5.26111H229.609V33.8431H226.875V9.48628Z" fill="white"/>
<path d="M251.265 9.5277L235.98 33.8431H233.246V5.26111H235.98V29.3694L250.685 5.26111H253.999V33.8431H251.265V9.5277Z" fill="white"/>
<path d="M239.877 0C240.25 1.44981 241.575 2.23685 243.232 2.23685C244.724 2.23685 246.173 1.40839 246.629 0H248.742C248.369 2.56824 245.925 4.68082 243.232 4.68082C240.54 4.68082 238.096 2.56824 237.765 0H239.877Z" fill="white"/>
<path d="M0 19.5951C0 14.6657 0 9.77775 0 4.84839C0 4.76554 0 4.72412 0.12427 4.72412C9.94156 4.72412 19.7589 4.72412 29.5762 4.72412C29.7004 4.72412 29.7004 4.76554 29.7004 4.84839C29.7004 14.6657 29.7004 24.483 29.7004 34.3003C29.7004 34.4246 29.7004 34.4246 29.5762 34.4246C19.7589 34.4246 9.94156 34.4246 0.12427 34.4246C0 34.466 0 34.4246 0 34.3003C0 29.4124 0 24.483 0 19.5951Z" fill="#D92819"/>
<path d="M7.03641 13.0086V13.1743C7.03641 14.4998 7.03641 15.8254 7.03641 17.1509C7.03641 17.2752 6.99499 17.3166 6.87072 17.3166C6.24937 17.3166 5.66945 17.3166 5.0481 17.3166C4.96525 17.3166 4.92383 17.2752 4.92383 17.1923C4.92383 14.6241 4.92383 12.0559 4.92383 9.52905C4.92383 9.40478 4.96525 9.40479 5.0481 9.40479C5.66945 9.40479 6.29079 9.40479 6.91214 9.40479C6.99499 9.40479 7.03641 9.44621 7.07783 9.52905C7.9063 10.896 8.77618 12.263 9.60465 13.6299C9.64607 13.6714 9.64607 13.7128 9.68749 13.7542C9.72892 13.7128 9.72892 13.6299 9.72892 13.5885C9.72892 12.263 9.72892 10.9374 9.72892 9.57048C9.72892 9.44621 9.77034 9.40479 9.89461 9.40479C10.516 9.40479 11.0959 9.40479 11.7172 9.40479C11.8001 9.40479 11.8415 9.44621 11.8415 9.52905C11.8415 12.0973 11.8415 14.6655 11.8415 17.2338C11.8415 17.3166 11.8001 17.358 11.7172 17.358C11.0959 17.358 10.4745 17.358 9.85319 17.358C9.77034 17.358 9.72892 17.3166 9.68749 17.2752C8.85903 15.9082 7.98914 14.5413 7.16068 13.2157C7.11926 13.05 7.07783 13.0086 7.03641 13.0086C7.03641 12.9672 7.03641 12.9672 7.03641 13.0086Z" fill="#FFFEFE"/>
<path d="M15.0431 13.3769L15.913 12.2584C16.0787 12.0513 16.2444 11.8028 16.4515 11.5957C16.4929 11.5542 16.5343 11.5128 16.5757 11.5128C17.3628 11.5128 18.1498 11.5128 18.8954 11.5128C18.8954 11.5128 18.8954 11.5128 18.9369 11.5128C18.8954 11.5542 18.8954 11.5957 18.854 11.5957C18.3155 12.1756 17.7356 12.7969 17.1971 13.3769C17.1142 13.4597 17.1142 13.5011 17.1557 13.6254C17.777 14.7852 18.3984 15.9451 18.9783 17.0635C19.0197 17.1049 19.0197 17.1464 19.0611 17.1878H18.8954C18.2327 17.1878 17.5699 17.1878 16.9071 17.1878C16.7829 17.1878 16.7414 17.1464 16.7 17.0635C16.3686 16.3593 16.0372 15.6551 15.7059 14.9095C15.5402 15.0752 15.3745 15.2823 15.2088 15.4066C15.0017 15.6137 14.9188 15.8208 14.9188 16.1108C14.9602 16.4422 14.9188 16.7736 14.9188 17.1049C14.9188 17.1878 14.8774 17.2292 14.7945 17.2292C14.1732 17.2292 13.5933 17.2292 12.9719 17.2292C12.8477 17.2292 12.8477 17.1878 12.8477 17.1049C12.8477 16.0694 12.8477 15.0338 12.8477 14.0396C12.8477 12.507 12.8477 10.9743 12.8477 9.48308C12.8477 9.35881 12.8891 9.31738 13.0133 9.31738C13.5933 9.31738 14.1732 9.31738 14.7531 9.31738C14.8774 9.31738 14.8774 9.35881 14.8774 9.44165C14.8774 10.7258 14.8774 11.9685 14.8774 13.2526L15.0431 13.3769Z" fill="#FFFEFE"/>
</svg>
