<svg width="566" height="566" viewBox="0 0 566 566" fill="none" xmlns="http://www.w3.org/2000/svg">
<circle opacity="0.2" cx="283" cy="283" r="283" fill="url(#paint0_radial_1801_3144)"/>
<circle cx="283" cy="283" r="24" fill="#D92819"/>
<path d="M273.737 282.501V282.794C273.737 285.139 273.737 287.483 273.737 289.828C273.737 290.048 273.664 290.121 273.444 290.121C272.345 290.121 271.319 290.121 270.22 290.121C270.073 290.121 270 290.048 270 289.901C270 285.358 270 280.816 270 276.346C270 276.126 270.073 276.126 270.22 276.126C271.319 276.126 272.418 276.126 273.517 276.126C273.664 276.126 273.737 276.2 273.81 276.346C275.276 278.764 276.814 281.182 278.28 283.6C278.353 283.673 278.353 283.747 278.426 283.82C278.5 283.747 278.5 283.6 278.5 283.527C278.5 281.182 278.5 278.837 278.5 276.419C278.5 276.2 278.573 276.126 278.793 276.126C279.892 276.126 280.917 276.126 282.017 276.126C282.163 276.126 282.236 276.2 282.236 276.346C282.236 280.889 282.236 285.432 282.236 289.975C282.236 290.121 282.163 290.194 282.017 290.194C280.917 290.194 279.818 290.194 278.719 290.194C278.573 290.194 278.5 290.121 278.426 290.048C276.961 287.63 275.422 285.212 273.957 282.867C273.883 282.574 273.81 282.501 273.737 282.501C273.737 282.428 273.737 282.428 273.737 282.501Z" fill="#FFFEFE"/>
<path d="M287.893 283.181L289.431 281.202C289.724 280.836 290.018 280.396 290.384 280.03C290.457 279.957 290.53 279.883 290.604 279.883C291.996 279.883 293.388 279.883 294.707 279.883C294.707 279.883 294.707 279.883 294.78 279.883C294.707 279.957 294.707 280.03 294.634 280.03C293.681 281.056 292.655 282.155 291.703 283.181C291.556 283.327 291.556 283.4 291.63 283.62C292.729 285.672 293.828 287.723 294.853 289.702C294.927 289.775 294.927 289.848 295 289.922H294.707C293.535 289.922 292.362 289.922 291.19 289.922C290.97 289.922 290.897 289.848 290.824 289.702C290.237 288.456 289.651 287.211 289.065 285.892C288.772 286.185 288.479 286.551 288.186 286.771C287.819 287.137 287.673 287.504 287.673 288.017C287.746 288.603 287.673 289.189 287.673 289.775C287.673 289.922 287.6 289.995 287.453 289.995C286.354 289.995 285.328 289.995 284.229 289.995C284.009 289.995 284.009 289.922 284.009 289.775C284.009 287.943 284.009 286.111 284.009 284.353C284.009 281.642 284.009 278.931 284.009 276.293C284.009 276.073 284.083 276 284.302 276C285.328 276 286.354 276 287.38 276C287.6 276 287.6 276.073 287.6 276.22C287.6 278.491 287.6 280.689 287.6 282.961L287.893 283.181Z" fill="#FFFEFE"/>
<defs>
<radialGradient id="paint0_radial_1801_3144" cx="0" cy="0" r="1" gradientUnits="userSpaceOnUse" gradientTransform="translate(283 283) rotate(90) scale(283)">
<stop stop-color="#003457" stop-opacity="0"/>
<stop offset="1" stop-color="#003457"/>
</radialGradient>
</defs>
</svg>
