<svg width="48" height="48" viewBox="0 0 48 48" fill="none" xmlns="http://www.w3.org/2000/svg">
<circle cx="24" cy="24" r="24" fill="#003457"/>
<path d="M14.7369 23.5009V23.794C14.7369 26.1387 14.7369 28.4834 14.7369 30.8281C14.7369 31.0479 14.6636 31.1211 14.4438 31.1211C13.3447 31.1211 12.3189 31.1211 11.2198 31.1211C11.0733 31.1211 11 31.0479 11 30.9013C11 26.3585 11 21.8157 11 17.3461C11 17.1263 11.0733 17.1263 11.2198 17.1263C12.3189 17.1263 13.418 17.1263 14.517 17.1263C14.6636 17.1263 14.7369 17.1995 14.8101 17.3461C16.2756 19.764 17.8143 22.182 19.2797 24.6C19.353 24.6732 19.353 24.7465 19.4262 24.8198C19.4995 24.7465 19.4995 24.6 19.4995 24.5267C19.4995 22.182 19.4995 19.8373 19.4995 17.4194C19.4995 17.1995 19.5728 17.1263 19.7926 17.1263C20.8917 17.1263 21.9175 17.1263 23.0166 17.1263C23.1631 17.1263 23.2364 17.1995 23.2364 17.3461C23.2364 21.8889 23.2364 26.4318 23.2364 30.9746C23.2364 31.1211 23.1631 31.1944 23.0166 31.1944C21.9175 31.1944 20.8184 31.1944 19.7193 31.1944C19.5728 31.1944 19.4995 31.1211 19.4262 31.0479C17.9608 28.6299 16.4221 26.2119 14.9567 23.8673C14.8834 23.5742 14.8101 23.5009 14.7369 23.5009C14.7369 23.4276 14.7369 23.4276 14.7369 23.5009Z" fill="#FFFEFE"/>
<path d="M28.8927 24.1806L30.4314 22.2023C30.7244 21.8359 31.0175 21.3963 31.3839 21.0299C31.4572 20.9567 31.5304 20.8834 31.6037 20.8834C32.9959 20.8834 34.388 20.8834 35.7069 20.8834C35.7069 20.8834 35.7069 20.8834 35.7802 20.8834C35.7069 20.9567 35.7069 21.0299 35.6336 21.0299C34.6811 22.0557 33.6553 23.1548 32.7028 24.1806C32.5562 24.3272 32.5562 24.4004 32.6295 24.6203C33.7286 26.6719 34.8277 28.7235 35.8535 30.7018C35.9267 30.7751 35.9267 30.8483 36 30.9216H35.7069C34.5346 30.9216 33.3622 30.9216 32.1899 30.9216C31.9701 30.9216 31.8968 30.8483 31.8235 30.7018C31.2373 29.4562 30.6512 28.2106 30.065 26.8917C29.7719 27.1848 29.4788 27.5511 29.1857 27.7709C28.8194 28.1373 28.6728 28.5037 28.6728 29.0166C28.7461 29.6027 28.6728 30.1889 28.6728 30.7751C28.6728 30.9216 28.5996 30.9949 28.453 30.9949C27.3539 30.9949 26.3281 30.9949 25.2291 30.9949C25.0093 30.9949 25.0093 30.9216 25.0093 30.7751C25.0093 28.9433 25.0093 27.1115 25.0093 25.353C25.0093 22.6419 25.0093 19.9309 25.0093 17.2931C25.0093 17.0733 25.0825 17 25.3023 17C26.3281 17 27.3539 17 28.3797 17C28.5996 17 28.5996 17.0733 28.5996 17.2198C28.5996 19.4912 28.5996 21.6894 28.5996 23.9608L28.8927 24.1806Z" fill="#FFFEFE"/>
</svg>
