<svg width="48" height="48" viewBox="0 0 48 48" fill="none" xmlns="http://www.w3.org/2000/svg">
<circle cx="24" cy="24" r="24" fill="#003457"/>
<path d="M33.4734 25.484L33.0555 23.9C32.414 24.0686 31.7759 24.2512 31.1414 24.4362C30.8292 23.3756 30.4909 22.3243 30.1264 21.2824C28.3485 16.2353 25.9337 11.4358 22.9408 7L21.5816 7.91782C24.4974 12.2379 26.8493 16.9128 28.58 21.8291C28.939 22.8523 29.2711 23.8848 29.5762 24.9267C26.805 25.8292 24.1004 26.9245 21.4821 28.2046L25.981 19.1786L24.5153 18.4481L19.0131 29.4772C17.6497 30.2209 16.3119 31.0151 15 31.8595L15.8886 33.2374C16.4856 32.8519 17.0889 32.4776 17.6984 32.1147L15.624 36.2742L17.0932 37L20.254 30.6678C23.3811 28.997 26.6485 27.6032 30.0187 26.5025C30.923 29.9427 31.5259 33.4551 31.8204 37L33.4594 36.8572C33.153 33.1951 32.5262 29.5669 31.5863 26.0143C32.2106 25.8293 32.8413 25.6525 33.4781 25.484H33.4734Z" fill="white"/>
</svg>
