<svg width="229" height="131" viewBox="0 0 229 131" fill="none" xmlns="http://www.w3.org/2000/svg">
<rect x="0.5" y="0.5" width="227.074" height="130" rx="4.5" fill="#232C4F" stroke="#232C4F"/>
<path d="M50.6999 46.781L59.6861 38.5803C59.7888 38.4865 59.8693 38.3709 59.9217 38.2421C59.9741 38.1133 59.9971 37.9744 59.9891 37.8355C59.981 37.6967 59.9421 37.5614 59.8751 37.4395C59.8081 37.3176 59.7148 37.2121 59.6019 37.1309L57.5073 35.6347C56.9178 35.2182 56.2091 35.004 55.4876 35.0243C54.766 35.0445 54.0704 35.2981 53.5052 35.7469L43.0509 44.0879L40.0025 41.7315C40.4097 40.5296 40.3538 39.2191 39.8459 38.0562C39.3379 36.8934 38.4144 35.9618 37.2559 35.4439C36.0975 34.9259 34.7875 34.8588 33.5822 35.2556C32.3768 35.6524 31.3629 36.4846 30.7387 37.5894C30.1145 38.6942 29.9249 39.9922 30.2071 41.2294C30.4893 42.4666 31.2229 43.554 32.2644 44.279C33.3059 45.0039 34.5804 45.3142 35.8386 45.1492C37.0967 44.9841 38.2481 44.3556 39.0674 43.3866L41.5173 45.2568L37.5526 48.4828C36.4291 47.8783 35.1205 47.7145 33.8827 48.0236C32.6449 48.3328 31.5669 49.0925 30.8596 50.1543C30.1523 51.2161 29.8665 52.5036 30.0581 53.7649C30.2498 55.0262 30.905 56.1707 31.8958 56.9745C32.8865 57.7784 34.1415 58.1837 35.4153 58.1112C36.689 58.0388 37.8899 57.4938 38.7832 56.5828C39.6764 55.6719 40.1977 54.4605 40.245 53.1855C40.2924 51.9106 39.8625 50.6638 39.0394 49.6891L54.6647 37.2057C54.9134 37.0091 55.219 36.8984 55.5359 36.89C55.8528 36.8815 56.1638 36.9759 56.4226 37.1589L57.5728 37.9818L47.932 46.7903L57.5728 55.5801L56.4226 56.403C56.1638 56.5861 55.8528 56.6804 55.5359 56.672C55.219 56.6636 54.9134 56.5528 54.6647 56.3563L45.4915 49.0158L44.0982 50.2875L53.5052 57.7682C54.0713 58.2193 54.7686 58.4742 55.4922 58.4944C56.2157 58.5147 56.9263 58.2992 57.5167 57.8805L59.6113 56.3843C59.7242 56.3031 59.8175 56.1976 59.8845 56.0757C59.9514 55.9538 59.9904 55.8185 59.9984 55.6797C60.0065 55.5408 59.9835 55.4019 59.9311 55.2731C59.8786 55.1442 59.7982 55.0287 59.6954 54.9349L50.6999 46.781ZM35.1681 43.3773C34.5278 43.3791 33.9013 43.1909 33.3681 42.8365C32.8348 42.4822 32.4186 41.9775 32.1723 41.3865C31.926 40.7955 31.8606 40.1446 31.9844 39.5164C32.1082 38.8882 32.4156 38.3108 32.8677 37.8574C33.3198 37.404 33.8962 37.0949 34.5241 36.9693C35.152 36.8437 35.803 36.9072 36.3947 37.1518C36.9864 37.3964 37.4923 37.8111 37.8482 38.3434C38.2042 38.8756 38.3941 39.5016 38.3941 40.1418C38.3942 40.9983 38.0546 41.8198 37.4498 42.4263C36.8451 43.0328 36.0246 43.3748 35.1681 43.3773ZM35.1681 56.2067C34.5278 56.2085 33.9013 56.0203 33.3681 55.6659C32.8348 55.3116 32.4186 54.8069 32.1723 54.2159C31.926 53.6249 31.8606 52.974 31.9844 52.3458C32.1082 51.7176 32.4156 51.1402 32.8677 50.6868C33.3198 50.2334 33.8962 49.9243 34.5241 49.7987C35.152 49.6731 35.803 49.7366 36.3947 49.9812C36.9864 50.2258 37.4923 50.6405 37.8482 51.1728C38.2042 51.705 38.3941 52.3309 38.3941 52.9713C38.3942 53.8277 38.0546 54.6492 37.4498 55.2557C36.8451 55.8622 36.0246 56.2042 35.1681 56.2067Z" fill="white"/>
<path d="M42.924 79.4V92H40.62V81.38H34.086V92H31.782V79.4H42.924ZM49.8069 82.28C51.2229 82.28 52.3029 82.622 53.0469 83.306C53.8029 83.978 54.1809 84.998 54.1809 86.366V92H52.0569V90.83C51.7809 91.25 51.3849 91.574 50.8689 91.802C50.3649 92.018 49.7529 92.126 49.0329 92.126C48.3129 92.126 47.6829 92.006 47.1429 91.766C46.6029 91.514 46.1829 91.172 45.8829 90.74C45.5949 90.296 45.4509 89.798 45.4509 89.246C45.4509 88.382 45.7689 87.692 46.4049 87.176C47.0529 86.648 48.0669 86.384 49.4469 86.384H51.9309V86.24C51.9309 85.568 51.7269 85.052 51.3189 84.692C50.9229 84.332 50.3289 84.152 49.5369 84.152C48.9969 84.152 48.4629 84.236 47.9349 84.404C47.4189 84.572 46.9809 84.806 46.6209 85.106L45.7389 83.468C46.2429 83.084 46.8489 82.79 47.5569 82.586C48.2649 82.382 49.0149 82.28 49.8069 82.28ZM49.5009 90.488C50.0649 90.488 50.5629 90.362 50.9949 90.11C51.4389 89.846 51.7509 89.474 51.9309 88.994V87.878H49.6089C48.3129 87.878 47.6649 88.304 47.6649 89.156C47.6649 89.564 47.8269 89.888 48.1509 90.128C48.4749 90.368 48.9249 90.488 49.5009 90.488ZM62.2931 82.28C63.2291 82.28 64.0631 82.484 64.7951 82.892C65.5391 83.3 66.1211 83.876 66.5411 84.62C66.9611 85.364 67.1711 86.222 67.1711 87.194C67.1711 88.166 66.9611 89.03 66.5411 89.786C66.1211 90.53 65.5391 91.106 64.7951 91.514C64.0631 91.922 63.2291 92.126 62.2931 92.126C60.9971 92.126 59.9711 91.694 59.2151 90.83V95.492H56.9651V82.388H59.1071V83.648C59.4791 83.192 59.9351 82.85 60.4751 82.622C61.0271 82.394 61.6331 82.28 62.2931 82.28ZM62.0411 90.2C62.8691 90.2 63.5471 89.924 64.0751 89.372C64.6151 88.82 64.8851 88.094 64.8851 87.194C64.8851 86.294 64.6151 85.568 64.0751 85.016C63.5471 84.464 62.8691 84.188 62.0411 84.188C61.5011 84.188 61.0151 84.314 60.5831 84.566C60.1511 84.806 59.8091 85.154 59.5571 85.61C59.3051 86.066 59.1791 86.594 59.1791 87.194C59.1791 87.794 59.3051 88.322 59.5571 88.778C59.8091 89.234 60.1511 89.588 60.5831 89.84C61.0151 90.08 61.5011 90.2 62.0411 90.2ZM69.4104 82.388H71.6604V88.724L76.9704 82.388H79.0224V92H76.7724V85.664L71.4804 92H69.4104V82.388ZM86.0451 88.148H84.2991V92H82.0491V82.388H84.2991V86.276H86.0991L88.9431 82.388H91.3551L87.8631 87.014L91.5891 92H88.9431L86.0451 88.148ZM102.626 92V85.628L99.3861 90.992H98.4141L95.2281 85.61V92H93.1761V82.388H95.5341L98.9541 88.4L102.536 82.388H104.642L104.66 92H102.626ZM111.26 82.28C112.676 82.28 113.756 82.622 114.5 83.306C115.256 83.978 115.634 84.998 115.634 86.366V92H113.51V90.83C113.234 91.25 112.838 91.574 112.322 91.802C111.818 92.018 111.206 92.126 110.486 92.126C109.766 92.126 109.136 92.006 108.596 91.766C108.056 91.514 107.636 91.172 107.336 90.74C107.048 90.296 106.904 89.798 106.904 89.246C106.904 88.382 107.222 87.692 107.858 87.176C108.506 86.648 109.52 86.384 110.9 86.384H113.384V86.24C113.384 85.568 113.18 85.052 112.772 84.692C112.376 84.332 111.782 84.152 110.99 84.152C110.45 84.152 109.916 84.236 109.388 84.404C108.872 84.572 108.434 84.806 108.074 85.106L107.192 83.468C107.696 83.084 108.302 82.79 109.01 82.586C109.718 82.382 110.468 82.28 111.26 82.28ZM110.954 90.488C111.518 90.488 112.016 90.362 112.448 90.11C112.892 89.846 113.204 89.474 113.384 88.994V87.878H111.062C109.766 87.878 109.118 88.304 109.118 89.156C109.118 89.564 109.28 89.888 109.604 90.128C109.928 90.368 110.378 90.488 110.954 90.488ZM124.43 92L121.964 88.67L119.48 92H116.996L120.74 87.122L117.158 82.388H119.66L122.018 85.538L124.376 82.388H126.806L123.206 87.086L126.968 92H124.43ZM137.262 87.248C137.262 87.404 137.25 87.626 137.226 87.914H129.684C129.816 88.622 130.158 89.186 130.71 89.606C131.274 90.014 131.97 90.218 132.798 90.218C133.854 90.218 134.724 89.87 135.408 89.174L136.614 90.56C136.182 91.076 135.636 91.466 134.976 91.73C134.316 91.994 133.572 92.126 132.744 92.126C131.688 92.126 130.758 91.916 129.954 91.496C129.15 91.076 128.526 90.494 128.082 89.75C127.65 88.994 127.434 88.142 127.434 87.194C127.434 86.258 127.644 85.418 128.064 84.674C128.496 83.918 129.09 83.33 129.846 82.91C130.602 82.49 131.454 82.28 132.402 82.28C133.338 82.28 134.172 82.49 134.904 82.91C135.648 83.318 136.224 83.9 136.632 84.656C137.052 85.4 137.262 86.264 137.262 87.248ZM132.402 84.08C131.682 84.08 131.07 84.296 130.566 84.728C130.074 85.148 129.774 85.712 129.666 86.42H135.12C135.024 85.724 134.73 85.16 134.238 84.728C133.746 84.296 133.134 84.08 132.402 84.08ZM145.051 82.28C145.987 82.28 146.821 82.484 147.553 82.892C148.297 83.3 148.879 83.876 149.299 84.62C149.719 85.364 149.929 86.222 149.929 87.194C149.929 88.166 149.719 89.03 149.299 89.786C148.879 90.53 148.297 91.106 147.553 91.514C146.821 91.922 145.987 92.126 145.051 92.126C143.755 92.126 142.729 91.694 141.973 90.83V95.492H139.723V82.388H141.865V83.648C142.237 83.192 142.693 82.85 143.233 82.622C143.785 82.394 144.391 82.28 145.051 82.28ZM144.799 90.2C145.627 90.2 146.305 89.924 146.833 89.372C147.373 88.82 147.643 88.094 147.643 87.194C147.643 86.294 147.373 85.568 146.833 85.016C146.305 84.464 145.627 84.188 144.799 84.188C144.259 84.188 143.773 84.314 143.341 84.566C142.909 84.806 142.567 85.154 142.315 85.61C142.063 86.066 141.937 86.594 141.937 87.194C141.937 87.794 142.063 88.322 142.315 88.778C142.567 89.234 142.909 89.588 143.341 89.84C143.773 90.08 144.259 90.2 144.799 90.2ZM156.542 92.126C155.546 92.126 154.652 91.916 153.86 91.496C153.068 91.076 152.45 90.494 152.006 89.75C151.562 88.994 151.34 88.142 151.34 87.194C151.34 86.246 151.562 85.4 152.006 84.656C152.45 83.912 153.062 83.33 153.842 82.91C154.634 82.49 155.534 82.28 156.542 82.28C157.49 82.28 158.318 82.472 159.026 82.856C159.746 83.24 160.286 83.792 160.646 84.512L158.918 85.52C158.642 85.076 158.294 84.746 157.874 84.53C157.466 84.302 157.016 84.188 156.524 84.188C155.684 84.188 154.988 84.464 154.436 85.016C153.884 85.556 153.608 86.282 153.608 87.194C153.608 88.106 153.878 88.838 154.418 89.39C154.97 89.93 155.672 90.2 156.524 90.2C157.016 90.2 157.466 90.092 157.874 89.876C158.294 89.648 158.642 89.312 158.918 88.868L160.646 89.876C160.274 90.596 159.728 91.154 159.008 91.55C158.3 91.934 157.478 92.126 156.542 92.126ZM166.623 88.148H164.877V92H162.627V82.388H164.877V86.276H166.677L169.521 82.388H171.933L168.441 87.014L172.167 92H169.521L166.623 88.148ZM177.16 82.28C178.576 82.28 179.656 82.622 180.4 83.306C181.156 83.978 181.534 84.998 181.534 86.366V92H179.41V90.83C179.134 91.25 178.738 91.574 178.222 91.802C177.718 92.018 177.106 92.126 176.386 92.126C175.666 92.126 175.036 92.006 174.496 91.766C173.956 91.514 173.536 91.172 173.236 90.74C172.948 90.296 172.804 89.798 172.804 89.246C172.804 88.382 173.122 87.692 173.758 87.176C174.406 86.648 175.42 86.384 176.8 86.384H179.284V86.24C179.284 85.568 179.08 85.052 178.672 84.692C178.276 84.332 177.682 84.152 176.89 84.152C176.35 84.152 175.816 84.236 175.288 84.404C174.772 84.572 174.334 84.806 173.974 85.106L173.092 83.468C173.596 83.084 174.202 82.79 174.91 82.586C175.618 82.382 176.368 82.28 177.16 82.28ZM176.854 90.488C177.418 90.488 177.916 90.362 178.348 90.11C178.792 89.846 179.104 89.474 179.284 88.994V87.878H176.962C175.666 87.878 175.018 88.304 175.018 89.156C175.018 89.564 175.18 89.888 175.504 90.128C175.828 90.368 176.278 90.488 176.854 90.488ZM192.437 82.388V92H190.421V89.102H187.883L185.921 92H183.509L185.777 88.796C185.081 88.556 184.547 88.19 184.175 87.698C183.815 87.194 183.635 86.576 183.635 85.844C183.635 84.74 184.025 83.888 184.805 83.288C185.585 82.688 186.659 82.388 188.027 82.388H192.437ZM188.099 84.278C186.647 84.278 185.921 84.824 185.921 85.916C185.921 86.996 186.623 87.536 188.027 87.536H190.421V84.278H188.099Z" fill="white"/>
</svg>
