<svg width="31" height="40" viewBox="0 0 31 40" fill="none" xmlns="http://www.w3.org/2000/svg">
<path d="M16.3499 22.475L16.3631 22.4134C16.6185 21.361 16.9399 20.0487 16.6889 18.8598C16.5216 17.9219 15.8303 17.5564 15.2402 17.53C14.5445 17.4992 13.9236 17.8955 13.7695 18.4723C13.4788 19.5291 13.7386 20.9735 14.2142 22.8141C13.6153 24.2408 12.6598 26.3148 11.9597 27.5477C10.6562 28.2215 8.9081 29.2607 8.6483 30.5729C8.59545 30.8151 8.6571 31.1233 8.80241 31.4007C8.96534 31.709 9.22514 31.9468 9.52898 32.0612C9.66108 32.1097 9.8196 32.1493 10.0045 32.1493C10.7795 32.1493 12.0345 31.524 13.7078 28.653C13.9632 28.5693 14.2274 28.4813 14.4828 28.3932C15.6805 27.9881 16.9223 27.5654 18.0452 27.376C19.2869 28.0409 20.7004 28.4681 21.6604 28.4681C22.6115 28.4681 22.9858 27.9044 23.1267 27.5654C23.3733 26.9709 23.2544 26.2223 22.8537 25.8216C22.2724 25.2492 20.8589 25.0995 18.6572 25.3725C17.574 24.712 16.8651 23.8137 16.3499 22.475ZM11.5193 29.1638C10.9072 30.0533 10.4449 30.498 10.1939 30.6918C10.4889 30.1502 11.0658 29.5777 11.5193 29.1638ZM15.3767 18.7938C15.6057 19.1857 15.5749 20.3702 15.3987 20.969C15.183 20.0928 15.1521 18.851 15.2798 18.7057C15.3151 18.7101 15.3459 18.7365 15.3767 18.7938ZM15.3062 24.0999C15.7774 24.9145 16.3719 25.6146 17.028 26.1343C16.0768 26.35 15.2094 26.7067 14.4344 27.0237C14.2494 27.0986 14.0689 27.1735 13.8928 27.2439C14.4784 26.1827 14.9672 24.9806 15.3062 24.0999ZM22.158 26.9841C22.1624 26.9929 22.1668 27.0061 22.1403 27.0237H22.1315L22.1227 27.037C22.0875 27.059 21.7264 27.2703 20.172 26.6583C21.9598 26.5746 22.1536 26.9797 22.158 26.9841ZM30.5861 9.89006L21.1099 0.413921C20.8457 0.149716 20.4891 0 20.1148 0H1.40909C0.629687 0 0 0.629688 0 1.40909V38.0455C0 38.8249 0.629687 39.4546 1.40909 39.4546H29.5909C30.3703 39.4546 31 38.8249 31 38.0455V10.8896C31 10.5153 30.8503 10.1543 30.5861 9.89006ZM27.7503 11.5369H19.4631V3.24972L27.7503 11.5369ZM27.8295 36.2841H3.17045V3.17046H16.4688V12.6818C16.4688 13.1723 16.6636 13.6427 17.0104 13.9896C17.3573 14.3364 17.8277 14.5313 18.3182 14.5313H27.8295V36.2841Z" fill="#ADADAD"/>
</svg>
