<svg width="229" height="131" viewBox="0 0 229 131" fill="none" xmlns="http://www.w3.org/2000/svg">
<rect x="0.5" y="0.5" width="227.074" height="130" rx="4.5" fill="white" stroke="#EEEEEE"/>
<path d="M45 29C43.575 29 42.6225 30.023 42.0945 30.923C41.553 31.8515 41.25 32.984 41.25 33.875C41.25 34.616 41.3445 35.636 41.898 36.494C42.513 37.445 43.557 38 45 38C46.443 38 47.487 37.445 48.102 36.494C48.657 35.636 48.75 34.616 48.75 33.875C48.75 32.984 48.447 31.85 47.9055 30.923C47.379 30.023 46.425 29 45 29ZM43.5 33.875C43.5 33.41 43.6815 32.6675 44.037 32.06C44.409 31.424 44.7675 31.25 45 31.25C45.2325 31.25 45.591 31.424 45.963 32.06C46.3185 32.6675 46.5 33.41 46.5 33.875C46.5 34.49 46.407 34.97 46.2105 35.273C46.0755 35.483 45.8055 35.75 45 35.75C44.193 35.75 43.9245 35.483 43.7895 35.273C43.5945 34.97 43.5 34.49 43.5 33.875Z" fill="#373737"/>
<path d="M57.75 42.8757V55.2507H58.875C59.1734 55.2507 59.4595 55.3693 59.6705 55.5802C59.8815 55.7912 60 56.0774 60 56.3757C60 56.6741 59.8815 56.9603 59.6705 57.1712C59.4595 57.3822 59.1734 57.5007 58.875 57.5007H31.125C30.8266 57.5007 30.5405 57.3822 30.3295 57.1712C30.1185 56.9603 30 56.6741 30 56.3757C30 56.0774 30.1185 55.7912 30.3295 55.5802C30.5405 55.3693 30.8266 55.2507 31.125 55.2507H32.25V42.8757C32.25 41.9806 32.6056 41.1222 33.2385 40.4892C33.8715 39.8563 34.7299 39.5007 35.625 39.5007H54.375C55.2701 39.5007 56.1285 39.8563 56.7615 40.4892C57.3944 41.1222 57.75 41.9806 57.75 42.8757ZM34.5 42.8757V46.0122L38.1705 48.3822C38.4736 48.5779 38.8267 48.682 39.1875 48.682C39.5483 48.682 39.9014 48.5779 40.2045 48.3822L42.825 46.6902C43.4711 46.2736 44.2207 46.0459 44.9893 46.0326C45.7579 46.0194 46.515 46.2212 47.175 46.6152L50.1885 48.4137C50.4993 48.5993 50.8571 48.691 51.2188 48.6777C51.5806 48.6644 51.9307 48.5467 52.227 48.3387L55.5 46.0407V42.8757C55.5 42.5774 55.3815 42.2912 55.1705 42.0802C54.9595 41.8693 54.6734 41.7507 54.375 41.7507H35.625C35.3266 41.7507 35.0405 41.8693 34.8295 42.0802C34.6185 42.2912 34.5 42.5774 34.5 42.8757V42.8757ZM53.52 50.1807C52.8681 50.6383 52.0978 50.8973 51.3019 50.9266C50.506 50.9558 49.7187 50.7541 49.035 50.3457L46.023 48.5457C45.7228 48.3664 45.3784 48.2746 45.0288 48.2807C44.6792 48.2868 44.3383 48.3906 44.0445 48.5802L41.424 50.2722C40.7574 50.7024 39.9809 50.9312 39.1875 50.9312C38.3941 50.9312 37.6176 50.7024 36.951 50.2722L34.5 48.6897V55.2507H55.5V48.7902L53.52 50.1792V50.1807Z" fill="#373737"/>
<path d="M42.924 79.4V92H40.62V81.38H34.086V92H31.782V79.4H42.924ZM55.2249 87.248C55.2249 87.404 55.2129 87.626 55.1889 87.914H47.6469C47.7789 88.622 48.1209 89.186 48.6729 89.606C49.2369 90.014 49.9329 90.218 50.7609 90.218C51.8169 90.218 52.6869 89.87 53.3709 89.174L54.5769 90.56C54.1449 91.076 53.5989 91.466 52.9389 91.73C52.2789 91.994 51.5349 92.126 50.7069 92.126C49.6509 92.126 48.7209 91.916 47.9169 91.496C47.1129 91.076 46.4889 90.494 46.0449 89.75C45.6129 88.994 45.3969 88.142 45.3969 87.194C45.3969 86.258 45.6069 85.418 46.0269 84.674C46.4589 83.918 47.0529 83.33 47.8089 82.91C48.5649 82.49 49.4169 82.28 50.3649 82.28C51.3009 82.28 52.1349 82.49 52.8669 82.91C53.6109 83.318 54.1869 83.9 54.5949 84.656C55.0149 85.4 55.2249 86.264 55.2249 87.248ZM50.3649 84.08C49.6449 84.08 49.0329 84.296 48.5289 84.728C48.0369 85.148 47.7369 85.712 47.6289 86.42H53.0829C52.9869 85.724 52.6929 85.16 52.2009 84.728C51.7089 84.296 51.0969 84.08 50.3649 84.08ZM61.6818 88.148H59.9358V92H57.6858V82.388H59.9358V86.276H61.7358L64.5798 82.388H66.9918L63.4998 87.014L67.2258 92H64.5798L61.6818 88.148ZM72.219 82.28C73.635 82.28 74.715 82.622 75.459 83.306C76.215 83.978 76.593 84.998 76.593 86.366V92H74.469V90.83C74.193 91.25 73.797 91.574 73.281 91.802C72.777 92.018 72.165 92.126 71.445 92.126C70.725 92.126 70.095 92.006 69.555 91.766C69.015 91.514 68.595 91.172 68.295 90.74C68.007 90.296 67.863 89.798 67.863 89.246C67.863 88.382 68.181 87.692 68.817 87.176C69.465 86.648 70.479 86.384 71.859 86.384H74.343V86.24C74.343 85.568 74.139 85.052 73.731 84.692C73.335 84.332 72.741 84.152 71.949 84.152C71.409 84.152 70.875 84.236 70.347 84.404C69.831 84.572 69.393 84.806 69.033 85.106L68.151 83.468C68.655 83.084 69.261 82.79 69.969 82.586C70.677 82.382 71.427 82.28 72.219 82.28ZM71.913 90.488C72.477 90.488 72.975 90.362 73.407 90.11C73.851 89.846 74.163 89.474 74.343 88.994V87.878H72.021C70.725 87.878 70.077 88.304 70.077 89.156C70.077 89.564 70.239 89.888 70.563 90.128C70.887 90.368 71.337 90.488 71.913 90.488ZM84.7052 82.28C85.6412 82.28 86.4752 82.484 87.2072 82.892C87.9512 83.3 88.5332 83.876 88.9532 84.62C89.3732 85.364 89.5832 86.222 89.5832 87.194C89.5832 88.166 89.3732 89.03 88.9532 89.786C88.5332 90.53 87.9512 91.106 87.2072 91.514C86.4752 91.922 85.6412 92.126 84.7052 92.126C83.4092 92.126 82.3832 91.694 81.6272 90.83V95.492H79.3772V82.388H81.5192V83.648C81.8912 83.192 82.3472 82.85 82.8872 82.622C83.4392 82.394 84.0452 82.28 84.7052 82.28ZM84.4532 90.2C85.2812 90.2 85.9592 89.924 86.4872 89.372C87.0272 88.82 87.2972 88.094 87.2972 87.194C87.2972 86.294 87.0272 85.568 86.4872 85.016C85.9592 84.464 85.2812 84.188 84.4532 84.188C83.9132 84.188 83.4272 84.314 82.9952 84.566C82.5632 84.806 82.2212 85.154 81.9692 85.61C81.7172 86.066 81.5912 86.594 81.5912 87.194C81.5912 87.794 81.7172 88.322 81.9692 88.778C82.2212 89.234 82.5632 89.588 82.9952 89.84C83.4272 90.08 83.9132 90.2 84.4532 90.2ZM91.8225 82.388H94.0725V86.294H98.9145V82.388H101.165V92H98.9145V88.202H94.0725V92H91.8225V82.388ZM112.298 82.388V92H110.282V89.102H107.744L105.782 92H103.37L105.638 88.796C104.942 88.556 104.408 88.19 104.036 87.698C103.676 87.194 103.496 86.576 103.496 85.844C103.496 84.74 103.886 83.888 104.666 83.288C105.446 82.688 106.52 82.388 107.888 82.388H112.298ZM107.96 84.278C106.508 84.278 105.782 84.824 105.782 85.916C105.782 86.996 106.484 87.536 107.888 87.536H110.282V84.278H107.96Z" fill="#373737"/>
</svg>
