<svg width="30" height="28" viewBox="0 0 30 28" fill="none" xmlns="http://www.w3.org/2000/svg">
<path d="M22.9293 17.0429C22.4505 15.3074 21.4156 13.7769 19.9833 12.6862C18.551 11.5955 16.8004 11.0049 15.0001 11.0049C13.1998 11.0049 11.4492 11.5955 10.0169 12.6862C8.58462 13.7769 7.54971 15.3074 7.07096 17.0429L5.93009 21.1786C5.72525 21.9212 5.69469 22.701 5.84079 23.4573C5.98689 24.2137 6.30571 24.926 6.77238 25.5388C7.23905 26.1517 7.84097 26.6485 8.5312 26.9904C9.22142 27.3324 9.98131 27.5103 10.7516 27.5103H19.2486C20.0189 27.5103 20.7788 27.3324 21.4691 26.9904C22.1593 26.6485 22.7612 26.1517 23.2279 25.5388C23.6945 24.926 24.0134 24.2137 24.1595 23.4573C24.3056 22.701 24.275 21.9212 24.0702 21.1786L22.9293 17.0429ZM21.6362 24.3265C21.3575 24.6956 20.9966 24.9946 20.5821 25.2C20.1677 25.4054 19.7112 25.5114 19.2486 25.5097H10.7516C10.2894 25.5097 9.83348 25.4029 9.41934 25.1977C9.00519 24.9926 8.64403 24.6945 8.36403 24.3268C8.08402 23.9591 7.89273 23.5317 7.80507 23.0779C7.71741 22.6241 7.73575 22.1562 7.85866 21.7106L8.99953 17.5749C9.36184 16.2616 10.145 15.1034 11.229 14.2779C12.3129 13.4525 13.6377 13.0056 15.0001 13.0056C16.3625 13.0056 17.6873 13.4525 18.7713 14.2779C19.8552 15.1034 20.6384 16.2616 21.0007 17.5749L22.1416 21.7106C22.2663 22.156 22.2855 22.6243 22.1978 23.0784C22.1101 23.5325 21.9178 23.9599 21.6362 24.3268V24.3265Z" fill="#373737"/>
<path d="M8.12898 12.3998C8.30304 11.3119 8.07222 10.1474 7.47877 9.11979C6.88533 8.0922 5.99203 7.31001 4.96313 6.91682C3.86127 6.49599 2.73741 6.56302 1.79747 7.10544C-0.071077 8.1843 -0.562801 10.8432 0.701551 13.0327C1.29481 14.0603 2.18816 14.8427 3.21706 15.2357C3.67284 15.4133 4.15731 15.5059 4.64647 15.5089C5.25588 15.5112 5.85499 15.3517 6.38272 15.047C7.32209 14.5045 7.9423 13.5644 8.12898 12.3998ZM6.15334 12.0836C6.06393 12.6418 5.79009 13.0789 5.38227 13.3144C4.97445 13.5498 4.45903 13.5683 3.93073 13.3667C3.32972 13.1372 2.79817 12.6633 2.43393 12.0324C1.7337 10.8195 1.90013 9.35649 2.7978 8.83807C3.02346 8.71002 3.27903 8.64405 3.53848 8.64689C3.78186 8.64941 4.02272 8.69638 4.24921 8.78549C4.85022 9.01513 5.38177 9.48898 5.74602 10.1199C6.11026 10.7508 6.25487 11.4483 6.15334 12.0836Z" fill="#373737"/>
<path d="M8.34539 8.25507C9.05575 8.82294 9.86695 9.11867 10.6873 9.1186C10.933 9.11853 11.178 9.0921 11.4181 9.03976C13.5265 8.58143 14.8048 6.19865 14.2678 3.72815C14.0158 2.56865 13.4032 1.55137 12.543 0.863587C11.6217 0.127096 10.5305 -0.151683 9.47026 0.0788924C7.36194 0.537168 6.08359 2.91995 6.62058 5.39044C6.8726 6.55001 7.48517 7.56728 8.34539 8.25507ZM9.89515 2.03391C9.99237 2.01295 10.0915 2.00247 10.191 2.00265C10.5629 2.00265 10.9454 2.14813 11.2937 2.4266C11.7961 2.82829 12.1581 3.44156 12.3128 4.15348C12.6104 5.52236 12.006 6.86487 10.9931 7.08506C10.5329 7.1851 10.0363 7.0458 9.59474 6.69275C9.09226 6.29099 8.73033 5.67773 8.57565 4.96587C8.27799 3.59661 8.88232 2.2541 9.89515 2.03391Z" fill="#373737"/>
<path d="M28.2023 7.10544C27.2628 6.56302 26.1383 6.49599 25.0367 6.91682C24.0078 7.30989 23.1144 8.0922 22.5211 9.11979C21.9279 10.1474 21.697 11.3122 21.8709 12.3998C22.0574 13.5644 22.6774 14.5045 23.6172 15.047C24.1449 15.3518 24.744 15.5112 25.3534 15.5089C25.8426 15.5059 26.3271 15.4133 26.7829 15.2357C27.8117 14.8427 28.7051 14.0603 29.2984 13.0327C30.5626 10.8432 30.0709 8.1843 28.2023 7.10544ZM27.5659 12.0324C27.2016 12.6633 26.6701 13.1372 26.0691 13.3667C25.541 13.5685 25.0255 13.5499 24.6176 13.3144C24.2098 13.0788 23.9362 12.6418 23.8466 12.0836C23.7449 11.4483 23.8895 10.751 24.2538 10.1204C24.6181 9.48985 25.1496 9.01569 25.7506 8.78606C25.977 8.69686 26.2179 8.6498 26.4613 8.6472C26.7208 8.64436 26.9763 8.71033 27.202 8.83839C28.0997 9.35637 28.2663 10.8192 27.5659 12.0324Z" fill="#373737"/>
<path d="M18.5816 9.03966C18.8217 9.09199 19.0667 9.11842 19.3124 9.1185C20.1327 9.1185 20.9442 8.82284 21.6543 8.25496C22.5145 7.56724 23.1271 6.54991 23.3791 5.3904C23.9161 2.9199 22.6378 0.537124 20.5294 0.0788489C19.4693 -0.151602 18.378 0.12699 17.4567 0.863543C16.5965 1.55127 15.9839 2.5686 15.7319 3.72804C15.1949 6.19854 16.4732 8.58132 18.5816 9.03966ZM17.6869 4.15306C17.8416 3.44114 18.2036 2.82762 18.706 2.42618C19.0544 2.14771 19.4368 2.00223 19.8087 2.00223C19.9082 2.00205 20.0073 2.01253 20.1045 2.03349C21.1174 2.25369 21.7217 3.5965 21.4242 4.96508C21.2694 5.677 20.9074 6.29051 20.4051 6.69202C19.9636 7.04501 19.4673 7.1843 19.0067 7.08433C17.9937 6.86445 17.3893 5.52176 17.6869 4.15306Z" fill="#373737"/>
</svg>
