<svg width="36" height="36" viewBox="0 0 36 36" fill="none" xmlns="http://www.w3.org/2000/svg">
<circle cx="18" cy="18" r="17.5" fill="white" stroke="#E9E9E9"/>
<path d="M25.8989 16.9159C23.9149 15.0356 21.3176 14 18.5869 14C15.8563 14 13.259 15.0356 11.2687 16.9216C11.0948 17.0948 11 17.3268 11 17.5753C11 17.8257 11.0999 18.0641 11.2687 18.2227L12.7709 19.7256C13.118 20.0714 13.7414 20.0613 14.0639 19.7401C14.5337 19.3051 15.0515 18.9454 15.5983 18.6716C15.9372 18.5079 16.058 18.107 16.058 17.7871V16.1269C16.8641 15.91 17.7808 15.8904 18.5869 15.8904C19.4411 15.8904 20.3345 15.91 21.1159 16.125V17.7871C21.1159 18.2069 21.2854 18.5395 21.5661 18.6761C22.1376 18.9619 22.6573 19.321 23.1081 19.7439C23.2801 19.9064 23.514 20 23.7492 20C23.9977 20 24.2297 19.9052 24.403 19.7319L25.9052 18.2297C26.0784 18.0565 26.1739 17.8244 26.1739 17.5753C26.1739 17.3268 26.0791 17.0948 25.8989 16.9159Z" fill="#696969"/>
</svg>
