<svg width="129" height="32" viewBox="0 0 129 32" fill="none" xmlns="http://www.w3.org/2000/svg">
<path d="M35.5351 10.8288C35.239 7.82601 17.6451 3.80818 13.3736 5.58448C10.0747 6.98015 6.86044 12.6051 4.78809 18.1455C6.86044 22.2902 9.35573 26.1811 11.4704 28.6764C21.3246 24.4048 35.9157 14.2122 35.5351 10.8288Z" fill="#232E56"/>
<path d="M4.7805 18.1445C2.70815 23.7695 1.86229 29.3098 3.30025 30.2826C3.63859 30.5363 4.14611 30.6209 4.73821 30.6209C6.30305 30.6209 8.71374 29.8596 11.4628 28.6754C9.34814 26.2225 6.85286 22.2892 4.7805 18.1445Z" fill="url(#paint0_linear_695:69)"/>
<path d="M36.4667 10.4886C36.2552 8.79693 34.775 8.20483 27.416 5.83642L22.0025 4.01783C22.0025 4.01783 11.6407 0 5.16987 0C2.80147 0 0.982871 0.549808 0.306183 1.98777C-0.87802 4.65222 1.53268 11.6728 4.78924 18.1437C6.8193 12.6033 10.0336 6.97833 13.3324 5.58267C17.6463 3.80636 35.2402 7.82419 35.5362 10.827C35.8746 14.2104 21.2835 24.403 11.4715 28.7169C12.9518 30.4509 14.2206 31.5082 15.1933 31.4236C19.6341 31.1699 36.4244 13.0685 36.4667 10.5309V10.4886Z" fill="url(#paint1_linear_695:69)"/>
<path d="M16.2982 27.9546C13.6761 29.5618 21.5426 31.1689 25.2643 28.589C28.9861 26.0092 34.9071 15.0553 34.8225 13.4059C34.8225 13.3636 34.7802 13.3213 34.7379 13.3213C34.1458 13.3213 28.7746 20.3842 16.2982 27.9546Z" fill="url(#paint2_linear_695:69)"/>
<path d="M27.4504 7.78417C27.4504 7.65729 27.4081 7.53041 27.3235 7.40353C26.9428 6.21933 25.8009 6.9806 25.1243 7.53041C25.0397 7.53041 24.9551 7.53041 24.8705 7.48812C24.2784 7.19207 23.9823 7.78417 23.6017 8.12251C23.6017 7.99563 23.4748 7.86875 23.3057 7.91105C23.3479 7.78417 23.2634 7.65729 23.0942 7.69958C22.4175 7.99563 20.9373 8.29168 20.895 8.29168C20.6835 8.41856 20.4297 8.75691 20.2183 8.88379C20.176 8.84149 20.1337 8.84149 20.0914 8.84149C19.9222 8.84149 19.8376 9.01066 19.7953 9.13754C19.5416 9.43359 19.5839 9.72964 19.457 10.068C19.4147 9.64506 19.161 9.51818 18.7803 9.85652C17.9768 10.1103 18.2305 11.4214 17.4692 11.7597C17.1732 11.8443 17.2155 12.0981 17.4692 12.2249C17.6384 12.3518 17.6384 12.3941 17.6384 12.3941C17.5115 12.6479 16.7503 12.6479 16.7926 12.9862C16.7926 13.0708 16.8348 13.1554 16.8348 13.24C16.6234 13.4091 16.5388 13.7898 16.3273 14.0012C16.285 14.0012 16.285 13.9589 16.2427 13.9589C16.2005 13.9589 16.1159 13.9167 16.0313 13.9167C15.9467 13.9167 15.8621 13.9166 15.7775 13.9589L15.6929 14.0012C15.4815 13.7898 15.3969 13.4091 15.1854 13.24C15.3546 12.5633 14.8471 12.5633 14.3819 12.3518C14.4664 12.2672 14.8048 12.1403 14.7625 11.9289C14.7625 11.802 14.6356 11.7597 14.551 11.7174C13.7898 11.3791 14.0858 10.068 13.2822 9.81423C12.9016 9.47589 12.6056 9.60277 12.6056 10.0257C12.521 9.68735 12.521 9.3913 12.2672 9.09525C12.1826 8.96837 12.1403 8.7992 11.9712 8.7992C11.9289 8.7992 11.8866 8.7992 11.8443 8.84149C11.5905 8.71461 11.3368 8.37627 11.1676 8.24939C11.1676 8.24939 9.68735 7.95334 8.96837 7.65729C8.84149 7.615 8.71461 7.74188 8.75691 7.86875C8.58774 7.86875 8.46086 7.95334 8.46086 8.08022C8.08022 7.74188 7.78417 7.14977 7.19207 7.44582C7.10749 7.48812 6.98061 7.48812 6.93831 7.48812C6.26163 6.93831 5.07743 6.21933 4.73908 7.36124C4.31616 7.86875 4.95055 8.37627 5.37348 8.67232C4.86596 8.96837 5.11972 9.94111 5.54265 10.1949C5.41577 10.4486 5.20431 10.8293 5.58494 11.083C6.13475 11.2522 6.72685 11.5905 7.27666 11.5905C7.10749 11.802 6.4308 11.8866 6.4308 12.1826C6.4308 12.3518 6.55768 12.521 6.93831 12.7747C7.19207 13.1131 7.57271 13.4937 8.03793 13.5783C8.12251 13.6206 8.29169 13.6206 8.33398 13.6629C8.29169 13.9166 8.41856 14.0435 8.54544 14.0858C8.71461 14.2127 9.13754 14.1281 9.3913 14.1704C9.17984 14.3396 9.22213 14.6356 9.43359 14.7625C9.30671 15.1009 9.51818 15.27 9.43359 15.5661C9.43359 15.6084 9.30672 15.693 9.17984 15.7352C8.92608 15.8198 8.84149 15.8621 8.75691 15.989C8.41856 16.0313 8.12251 16.4542 8.46086 16.708C8.41856 16.8349 8.46086 16.9195 8.54544 17.004C8.63003 17.1309 8.58774 17.3001 8.7992 17.2578C8.88379 17.2155 8.92608 17.2155 8.96837 17.2155C8.50315 17.8499 9.17984 17.9345 9.13754 18.5266C9.13754 18.6112 9.17984 18.6958 9.22213 18.7803C8.71461 18.9072 8.75691 19.2879 8.75691 19.4993C8.75691 19.6685 8.75691 19.6685 8.67232 19.6685C8.46086 19.7108 8.41856 19.9645 8.58774 20.0914C9.13754 20.5989 9.47589 21.2333 9.64506 21.9946C9.64506 22.0792 9.72964 22.1215 9.77194 22.1215C9.9834 22.1638 9.89881 21.8254 10.068 21.8254C10.1949 21.8254 10.4063 22.0792 10.4063 22.333C10.4486 22.7136 10.7447 22.5867 10.9561 22.4175C10.9984 22.5021 11.1253 22.4598 11.2099 22.3752C11.3368 22.1638 11.4214 21.91 11.5905 21.6986C11.5482 21.8677 11.4637 22.0792 11.4214 22.2061C11.3791 22.3752 11.2522 22.5444 11.4214 22.629C11.6751 22.7136 11.8443 22.7982 11.8866 23.0519C11.8866 23.1365 12.0135 23.2211 12.098 23.1788C12.2672 23.2634 12.4364 23.0519 12.5633 22.9673C12.8593 22.7136 13.0285 22.5444 13.1977 22.9673C13.24 23.0942 13.4937 23.0519 13.536 23.0096C13.9589 22.7559 13.536 20.9796 14.0012 20.8104C14.2127 20.895 14.3819 20.8527 14.5087 20.7258C14.551 20.7681 14.5933 20.7681 14.6779 20.7681C14.8048 20.7681 14.9317 20.6835 14.974 20.5566C15.1431 20.0068 15.0163 19.5416 15.1854 19.0341C15.2277 18.9072 15.2277 18.8226 15.2277 18.738C15.27 18.6112 15.3969 18.3997 15.27 18.2728C15.0585 18.1037 15.3546 17.6807 15.5661 17.3847C15.6929 17.1732 16.0313 16.9195 15.7775 16.5811C15.8621 16.4542 15.8621 16.1582 15.6084 16.1582C15.8198 15.7352 15.989 15.3969 16.1582 15.0586C16.3273 15.3969 16.4965 15.7352 16.708 16.1582C16.4542 16.1159 16.4965 16.4119 16.5388 16.5388V16.5811C16.285 16.9195 16.6234 17.1309 16.7926 17.3847C17.004 17.6807 17.3001 18.1037 17.0886 18.2728C16.9617 18.3997 17.0886 18.5689 17.1309 18.738C17.1732 18.8649 17.1309 18.9072 17.1732 19.0341C17.3424 19.5416 17.2578 20.0068 17.3847 20.5566C17.4269 20.6835 17.5538 20.7681 17.6807 20.7681C17.723 20.7681 17.7653 20.7681 17.8076 20.7258C17.9345 20.8527 18.1036 20.895 18.3151 20.8104C18.7803 20.9796 18.3997 22.7559 18.7803 23.0096C18.8226 23.0519 19.0764 23.0942 19.1187 22.9673C19.2878 22.5867 19.457 22.7559 19.7531 22.9673C19.8799 23.0519 20.0491 23.3057 20.2183 23.1788C20.3029 23.2211 20.4297 23.1788 20.4297 23.0519C20.472 22.8405 20.5989 22.7559 20.895 22.629C21.0641 22.5444 20.9373 22.3752 20.895 22.2061C20.8527 22.0792 20.7681 21.8677 20.7258 21.6986C20.8527 21.91 20.9795 22.1638 21.1064 22.3752C21.1487 22.4175 21.2333 22.4598 21.2756 22.4598L21.3179 22.4175C21.4871 22.629 21.8254 22.7136 21.8677 22.333C21.8677 22.1215 22.0792 21.8677 22.206 21.8254C22.3752 21.8254 22.3329 22.1638 22.5021 22.1215C22.5867 22.1215 22.629 22.0792 22.629 21.9946C22.7558 21.2333 23.0942 20.5989 23.6863 20.0914C23.7286 20.0491 23.8132 19.9645 23.7709 19.8377C23.7286 19.7108 23.644 19.6685 23.5594 19.6685C23.4748 19.6685 23.4748 19.6685 23.5171 19.4993C23.5594 19.2879 23.6017 18.9495 23.0519 18.7803C23.0942 18.6958 23.1365 18.6112 23.1365 18.4843C23.0942 17.9345 23.7709 17.8076 23.3057 17.1732C23.4325 17.1732 23.644 17.3001 23.644 17.0886C23.644 17.0463 23.644 17.004 23.6863 16.9617C23.7709 16.8772 23.7709 16.7926 23.7709 16.6657C24.1515 16.4119 23.8555 15.989 23.4748 15.9467C23.3902 15.8198 23.3057 15.7352 23.0519 15.693C22.925 15.6507 22.7981 15.5661 22.7981 15.5238C22.7136 15.2277 22.9673 15.0586 22.7981 14.7202C23.0096 14.5933 23.0942 14.255 22.8404 14.1281C23.0942 14.0858 23.4748 14.1704 23.6863 14.0435C23.7709 14.0012 23.8978 13.9166 23.8978 13.6629C23.9401 13.6206 24.1092 13.5783 24.1938 13.5783C24.7013 13.4514 25.082 13.0708 25.3357 12.7747C26.0124 12.3941 26.0124 12.0135 25.378 11.802C25.2088 11.7174 25.0397 11.6751 24.9974 11.5905C25.5472 11.5905 26.1393 11.2522 26.6891 11.083C27.0697 10.8293 26.8583 10.4486 26.7314 10.1949C27.1543 9.94111 27.3658 8.96837 26.9006 8.67232C26.9851 8.50315 27.4081 8.1648 27.4504 7.78417Z" fill="white"/>
<path d="M42.0459 19.6658V23.2607H42.5534V21.569H44.2028V23.2607H44.7104V19.6658H44.2028V21.1883H42.5534V19.6658H42.0459ZM47.6286 22.7955L47.6709 23.303H48.2207V23.2607C48.1784 23.0915 48.1361 22.9224 48.1361 22.7109V20.6808C48.1361 20.0041 47.6709 19.6235 46.9096 19.6235C46.2752 19.6235 45.81 19.8773 45.5562 20.3848L45.9791 20.6385C46.1483 20.2579 46.4867 20.0887 46.8673 20.0887C47.2902 20.0887 47.5863 20.3425 47.5863 20.6385V20.8923C46.106 21.1883 45.4293 21.569 45.4293 22.3725C45.4293 22.9647 45.8523 23.3876 46.4021 23.3876C46.9519 23.3453 47.3325 23.1761 47.6286 22.7955ZM47.6709 22.3303C47.2479 22.7109 46.9096 22.8801 46.5712 22.8801C46.1906 22.8801 45.9791 22.6686 45.9791 22.3303C45.9791 21.8227 46.529 21.569 47.6286 21.3152V22.3303H47.6709ZM51.4772 23.303H52.027V18.9045L53.5496 23.303H53.9302L55.4528 18.9045V23.303H55.9603V18.3124H55.1567L53.761 22.5417L52.3654 18.3124H51.5195V23.303H51.4772ZM56.9753 20.8077C56.9753 22.4148 57.7789 23.3876 58.9631 23.3876C60.1473 23.3876 60.9509 22.4148 60.9509 20.8077C60.9509 19.2006 60.1473 18.2278 58.9631 18.2278C57.7789 18.1855 56.9753 19.2006 56.9753 20.8077ZM57.5674 20.8077C57.5674 19.4543 58.1172 18.6931 58.9631 18.6931C59.8512 18.6931 60.401 19.4543 60.401 20.8077C60.401 22.1611 59.8512 22.9224 58.9631 22.9224C58.1172 22.8801 57.5674 22.1188 57.5674 20.8077ZM65.307 21.7804L64.7995 21.6536C64.6726 22.4571 64.2074 22.8801 63.573 22.8801C62.7272 22.8801 62.1773 22.1611 62.1773 20.8077C62.1773 19.412 62.6849 18.6931 63.5307 18.6931C64.1228 18.6931 64.5458 19.0737 64.6726 19.835L65.1802 19.7081C64.9687 18.7354 64.3766 18.2278 63.4461 18.2278C62.3042 18.2278 61.5852 19.1583 61.5852 20.8077C61.5852 22.4571 62.3042 23.3876 63.4884 23.3876C64.5035 23.3876 65.0956 22.8378 65.307 21.7804ZM66.7873 20.4694V18.3124H66.2375V23.303H66.7873V20.9346H67.4217C67.7177 20.9346 68.1407 20.9346 68.3521 21.3575C68.5213 21.6959 68.6482 22.6263 68.8173 22.9646C68.9865 23.2607 69.1557 23.3453 69.4094 23.3453C69.5363 23.3453 69.6209 23.3453 69.7055 23.2607V22.7955C69.6632 22.7955 69.6209 22.7955 69.5786 22.7955C69.4094 22.7955 69.3249 22.7109 69.2826 22.5417C69.0711 21.865 69.0711 21.569 68.9019 21.1883C68.8173 21.0192 68.6482 20.6808 68.1829 20.5962V20.554C68.5213 20.4694 68.6905 20.2156 68.7751 19.9619C68.9019 19.5812 68.9865 19.0737 69.0711 18.8622C69.1134 18.7354 69.198 18.6931 69.3249 18.6931C69.3671 18.6931 69.3672 18.6931 69.494 18.6931V18.2278C69.4517 18.2278 69.3671 18.1855 69.2403 18.1855C69.0288 18.1855 68.6905 18.2701 68.5213 18.6931C68.3521 19.0737 68.3521 19.6658 68.1407 20.0041C67.9715 20.3425 67.6754 20.3848 67.3794 20.3848H66.7873V20.4694ZM70.213 20.8077C70.213 22.4148 71.0166 23.3876 72.2008 23.3876C73.385 23.3876 74.1885 22.4148 74.1885 20.8077C74.1885 19.2006 73.385 18.2278 72.2008 18.2278C70.9743 18.1855 70.213 19.2006 70.213 20.8077ZM70.7628 20.8077C70.7628 19.4543 71.3126 18.6931 72.1585 18.6931C73.0466 18.6931 73.5964 19.4543 73.5964 20.8077C73.5964 22.1611 73.0466 22.9224 72.1585 22.9224C71.3126 22.8801 70.7628 22.1188 70.7628 20.8077ZM75.2036 23.303H76.7261C77.9949 23.303 78.6293 22.8378 78.6293 21.9496C78.6293 21.3152 78.2487 20.8923 77.6566 20.6808C78.2064 20.4694 78.4601 20.0887 78.4601 19.5812C78.4601 18.6508 77.8257 18.3124 76.5147 18.3124H75.1613V23.303H75.2036ZM76.6415 18.7354C77.4874 18.7354 77.9103 18.9891 77.9103 19.5389C77.9103 20.0887 77.5297 20.4271 76.8107 20.4271H75.7534V18.7354H76.6415ZM76.7684 20.8923C77.6143 20.8923 78.0795 21.2306 78.0795 21.865C78.0795 22.5417 77.6566 22.7955 76.7684 22.7955H75.7534V20.8923H76.7684ZM83.0278 21.7804L82.5203 21.6536C82.3934 22.4571 81.9282 22.8801 81.2938 22.8801C80.4479 22.8801 79.8981 22.1611 79.8981 20.8077C79.8981 19.412 80.4056 18.6931 81.2515 18.6931C81.8436 18.6931 82.2665 19.0737 82.3934 19.835L82.9009 19.7081C82.6894 18.7354 82.0973 18.2278 81.1669 18.2278C80.025 18.2278 79.306 19.1583 79.306 20.8077C79.306 22.4571 80.025 23.3876 81.2092 23.3876C82.1819 23.3876 82.774 22.8378 83.0278 21.7804ZM84.508 20.4694V18.3124H83.9582V23.303H84.508V20.9346H85.1424C85.4385 20.9346 85.8614 20.9346 86.0729 21.3575C86.242 21.6959 86.3689 22.6263 86.5381 22.9646C86.7073 23.2607 86.8764 23.3453 87.1302 23.3453C87.2571 23.3453 87.3417 23.3453 87.4262 23.2607V22.7955C87.384 22.7955 87.3417 22.7955 87.2994 22.7955C87.1302 22.7955 87.0456 22.7109 87.0033 22.5417C86.7919 21.865 86.7919 21.569 86.6227 21.1883C86.5381 21.0192 86.3689 20.6808 85.9037 20.5962V20.554C86.242 20.4694 86.4112 20.2156 86.4958 19.9619C86.6227 19.5812 86.7073 19.0737 86.7919 18.8622C86.8341 18.7354 86.9187 18.6931 87.0879 18.6931C87.0879 18.6931 87.1302 18.6931 87.2571 18.6931V18.2278C87.2148 18.2278 87.1302 18.1855 87.0033 18.1855C86.7919 18.1855 86.4535 18.2701 86.2843 18.6931C86.1152 19.0737 86.1152 19.6658 85.9037 20.0041C85.7345 20.3425 85.4385 20.3848 85.1424 20.3848H84.508V20.4694ZM87.8915 20.8077C87.8915 22.4148 88.695 23.3876 89.8792 23.3876C91.0634 23.3876 91.867 22.4148 91.867 20.8077C91.867 19.2006 91.0634 18.2278 89.8792 18.2278C88.695 18.1855 87.8915 19.2006 87.8915 20.8077ZM88.4413 20.8077C88.4413 19.4543 88.9911 18.6931 89.8369 18.6931C90.7251 18.6931 91.2326 19.4543 91.2326 20.8077C91.2326 22.1611 90.6828 22.9224 89.8369 22.9224C88.9911 22.8801 88.4413 22.1188 88.4413 20.8077ZM92.882 23.303H93.4318V18.9045L94.9544 23.303H95.335L96.8576 18.9045V23.303H97.4074V18.3124H96.6038L95.2082 22.5417L93.8125 18.3124H92.9666V23.303H92.882Z" fill="#232E56"/>
<path d="M42.2578 13.2791H43.5266V7.69645H46.0642V13.2368H47.333V6.55455H42.2578V13.2791ZM48.9401 13.2791H50.2089V10.5724H51.4354C52.8733 10.5724 53.6346 9.85339 53.6346 8.5846C53.6346 7.23123 52.8733 6.59684 51.3085 6.59684H48.8978V13.2791H48.9401ZM50.2089 9.51505V7.61187H51.1393C52.0275 7.61187 52.4081 7.82333 52.4081 8.54231C52.4081 9.26129 52.0275 9.47275 51.1393 9.47275H50.2089V9.51505ZM54.9034 13.2791H59.3865V12.1372H56.1299V10.3186H58.3714V9.26129H56.1299V7.69645H59.2173V6.59684H54.8611V13.2791H54.9034ZM60.0632 9.93798C60.0632 12.0949 61.1205 13.406 62.8545 13.406C64.5462 13.406 65.6458 12.1372 65.6458 9.93798C65.6458 7.73875 64.5885 6.51225 62.8545 6.51225C61.1628 6.46996 60.0632 7.73875 60.0632 9.93798ZM61.3742 9.93798C61.3742 8.41543 61.8817 7.61187 62.8968 7.61187C63.8695 7.61187 64.377 8.41543 64.377 9.93798C64.377 11.4605 63.8272 12.2641 62.8968 12.2641C61.8817 12.2218 61.3742 11.4605 61.3742 9.93798ZM71.0593 6.55455H66.7877V13.2368H69.4099C70.6787 13.2368 71.6091 12.7716 71.6091 11.2068C71.6091 9.68422 70.5095 9.219 69.4099 9.219H68.0142V7.61187H71.017V6.55455H71.0593ZM68.0142 10.234H69.2407C69.8328 10.234 70.3826 10.4455 70.3826 11.2913C70.3826 11.968 69.8328 12.2218 69.283 12.2218H68.0142V10.234ZM72.9202 13.2791H74.189V10.5724H75.4155C76.8535 10.5724 77.6147 9.85339 77.6147 8.5846C77.6147 7.23123 76.8535 6.59684 75.2886 6.59684H72.8779V13.2791H72.9202ZM74.189 9.51505V7.61187H75.1194C75.9653 7.61187 76.3882 7.82333 76.3882 8.54231C76.3882 9.26129 75.9653 9.47275 75.1194 9.47275H74.189V9.51505ZM77.5301 13.2791H78.7144L79.1373 11.7989H81.4634L81.8863 13.2791H83.1551L81.125 6.59684H79.5179L77.5301 13.2791ZM79.4333 10.7415L80.2792 7.73875L81.125 10.7415H79.4333ZM88.484 6.55455H87.2152V9.219H86.8769C86.2002 9.219 85.9887 8.79607 85.8619 8.50002C85.6504 7.82333 85.6504 7.61187 85.4812 7.23123C85.2275 6.63913 84.8468 6.51225 84.297 6.51225C84.1278 6.51225 83.9587 6.55455 83.7895 6.59684V7.48499H83.8741C84.0856 7.48499 84.3816 7.48499 84.5085 7.95021C84.5931 8.24626 84.6777 8.54231 84.7622 8.79607C84.8468 9.00753 84.9737 9.30358 85.1852 9.47275C85.312 9.55734 85.4812 9.68422 85.6504 9.72651V9.7688C84.9737 9.85339 84.6354 10.3609 84.4662 10.9107C84.1701 11.7566 84.1701 12.0526 83.9587 12.2641C83.8318 12.4333 83.6626 12.4755 83.5357 12.4755H83.4935V13.3637C83.6203 13.406 83.7049 13.406 83.8741 13.406C84.3393 13.406 84.72 13.3214 85.016 12.8985C85.2698 12.5601 85.3543 12.1372 85.5235 11.4605C85.8196 10.4032 86.1579 10.3609 86.8346 10.3609H87.1729V13.3214H88.4417V10.3609H88.7378C89.4145 10.3609 89.7105 10.4032 90.0489 11.4605C90.2603 12.1372 90.3449 12.5601 90.5564 12.8985C90.8524 13.3214 91.2331 13.406 91.6983 13.406C91.8675 13.406 91.952 13.406 92.0789 13.3637V12.4755H92.0366C91.9098 12.4755 91.7406 12.4333 91.6137 12.2641C91.4445 12.0526 91.4022 11.7143 91.1062 10.9107C90.937 10.3609 90.5987 9.85339 89.922 9.7688V9.72651C90.0912 9.68422 90.2603 9.55734 90.3449 9.47275C90.5987 9.26129 90.7256 8.88065 90.7678 8.79607C90.8947 8.41543 90.8947 8.28855 90.9793 7.95021C91.1062 7.52728 91.4022 7.48499 91.6137 7.48499H91.7406V6.59684C91.5714 6.55455 91.4445 6.51225 91.2754 6.51225C90.7256 6.51225 90.3026 6.68143 90.0912 7.23123C89.922 7.61187 89.922 7.86563 89.7105 8.50002C89.6259 8.79607 89.3722 9.219 88.6955 9.219H88.3994V6.55455H88.484ZM93.1785 13.2791H97.6616V12.1372H94.4473V10.3186H96.6889V9.26129H94.4473V7.69645H97.5347V6.59684H93.1785V13.2791ZM98.7612 13.2791H100.03V10.3609H102.568V13.2791H103.836V6.55455H102.568V9.219H100.03V6.55455H98.7612V13.2791ZM108.954 11.2491C108.785 11.8834 108.277 12.2218 107.685 12.2218C106.712 12.2218 106.289 11.4605 106.289 9.93798C106.289 8.33085 106.712 7.52728 107.643 7.52728C108.235 7.52728 108.658 7.86563 108.827 8.50002L109.969 8.20397C109.715 7.06206 108.912 6.46996 107.727 6.46996C106.036 6.46996 105.021 7.69645 105.021 9.93798C105.021 12.2218 105.909 13.3637 107.643 13.3637C108.912 13.3637 109.8 12.7293 110.096 11.5874L108.954 11.2491ZM112.422 9.219V6.55455H111.195V13.2368H112.422V10.234H113.056C113.691 10.234 113.902 10.4032 114.071 10.7415C114.198 10.9953 114.24 11.2913 114.41 11.8834C114.663 12.7293 114.833 13.2791 115.721 13.2791C115.932 13.2791 116.144 13.2791 116.271 13.2368V12.3487H116.228C115.848 12.3487 115.763 12.1795 115.721 11.968C115.509 11.2491 115.425 10.8261 115.171 10.3186C115.002 10.0226 114.748 9.7688 114.24 9.68422V9.64193C114.452 9.59963 114.748 9.47275 114.917 9.13441C115.086 8.79607 115.129 8.41543 115.298 7.82333C115.425 7.4427 115.594 7.4004 115.848 7.4004H115.974V6.51225C115.848 6.46996 115.678 6.46996 115.509 6.46996C114.875 6.46996 114.452 6.76601 114.283 7.31582C114.156 7.65416 114.156 7.82333 113.987 8.41543C113.902 8.71148 113.818 8.88065 113.564 9.04983C113.352 9.219 113.183 9.219 112.972 9.219H112.422ZM117.159 6.55455V13.2368H118.385V12.687L120.838 9.13441C120.923 9.00753 121.007 8.83836 121.092 8.6269C121.05 8.88065 121.05 9.26129 121.05 9.43046V13.2791H122.276V6.55455H121.05V7.01977L118.554 10.5724C118.47 10.6992 118.343 10.953 118.301 11.1222C118.343 10.8684 118.343 10.5301 118.343 10.4032V6.55455H117.159ZM123.883 6.55455V13.2368H125.11V12.687L127.563 9.13441C127.647 9.00753 127.732 8.83836 127.816 8.6269C127.774 8.88065 127.774 9.26129 127.774 9.43046V13.2791H129.001V6.55455H127.774V7.01977L125.279 10.5724C125.194 10.6992 125.067 10.953 125.025 11.1222C125.067 10.8684 125.067 10.5301 125.067 10.4032V6.55455H123.883ZM124.771 4.65137C124.814 5.32805 125.363 5.92015 126.463 5.92015C127.605 5.92015 128.155 5.37035 128.197 4.65137H127.182C127.182 5.15888 126.675 5.24347 126.463 5.24347C126.294 5.24347 125.786 5.20117 125.744 4.65137H124.771Z" fill="#232E56"/>
<defs>
<linearGradient id="paint0_linear_695:69" x1="2.69919" y1="18.0431" x2="8.71326" y2="30.6726" gradientUnits="userSpaceOnUse">
<stop stop-color="#77C5E0"/>
<stop offset="1" stop-color="#55A8DD"/>
</linearGradient>
<linearGradient id="paint1_linear_695:69" x1="23.1542" y1="5.11197" x2="6.61551" y2="24.0563" gradientUnits="userSpaceOnUse">
<stop stop-color="#4C88C3"/>
<stop offset="1" stop-color="#3C75B6"/>
</linearGradient>
<linearGradient id="paint2_linear_695:69" x1="36.9935" y1="13.23" x2="15.6435" y2="27.9645" gradientUnits="userSpaceOnUse">
<stop stop-color="#F8EA6A"/>
<stop offset="1" stop-color="#F2BD5E"/>
</linearGradient>
</defs>
</svg>
