<svg width="133" height="31" viewBox="0 0 133 31" fill="none" xmlns="http://www.w3.org/2000/svg">
<path d="M21.5168 14.3168C21.5168 14.4315 21.5742 14.5461 21.5957 14.6679C21.6169 14.7212 21.6192 14.7801 21.6022 14.8349C21.5853 14.8897 21.5501 14.937 21.5025 14.9689C21.3448 14.8256 21.352 14.6106 21.5025 14.3168L21.3233 14.3885C21.2561 14.4226 21.1833 14.4445 21.1084 14.453C21.1172 14.4298 21.1292 14.4081 21.1442 14.3885C21.2015 14.3025 21.2875 14.2451 21.2804 14.1018C21.2732 13.9585 21.4022 13.8868 21.4882 13.765L21.6817 14.0588C21.6817 14.0588 21.6817 14.1233 21.6817 14.1305C21.6817 14.1376 21.6817 14.2595 21.7318 14.3096L21.8537 14.4673C21.6745 14.4673 21.5885 14.3526 21.4738 14.3096L21.5168 14.3168ZM42.8223 1.09492C42.7012 0.940744 42.6089 0.765941 42.55 0.578944C42.4984 0.396624 42.3835 0.238701 42.2258 0.133599C42.0682 0.0284979 41.8782 -0.0168782 41.6901 0.00563862C41.4395 0.0198794 41.195 0.088341 40.9734 0.206296C40.6008 0.39262 40.2568 0.60761 39.8841 0.829766C39.5115 1.05192 39.3037 1.22391 39.017 1.43174C38.9839 1.46512 38.9407 1.4867 38.8941 1.49317C38.8475 1.49964 38.8 1.49065 38.759 1.46757C38.6119 1.40778 38.4611 1.35751 38.3075 1.31708C38.0476 1.23867 37.774 1.21668 37.5049 1.25258C37.4009 1.26158 37.3027 1.30422 37.2251 1.37405C37.1475 1.44388 37.0948 1.53709 37.0749 1.63956C37.0488 1.72537 36.9961 1.80066 36.9244 1.85455L35.871 2.75034C35.7492 2.85784 35.613 2.94383 35.484 3.03699C35.5413 2.9295 35.6058 2.82917 35.656 2.71451C35.7034 2.61622 35.7395 2.51283 35.7635 2.40636C35.7635 2.2917 35.7635 2.23437 35.613 2.2272C35.4975 2.2285 35.3823 2.24049 35.269 2.26303C35.1472 2.26303 35.0325 2.32753 34.882 2.37053L35.2189 1.84022V1.79722C35.1329 1.79722 35.0397 1.84022 34.9537 1.87605L33.3413 2.59268C33.2606 2.63116 33.1767 2.66234 33.0905 2.68584C32.4889 2.86432 31.8608 2.93706 31.2344 2.90083H30.9047L31.2989 3.29498L31.0624 3.49564C30.8551 3.70134 30.5854 3.83241 30.2956 3.86829C30.0817 3.91449 29.8728 3.98171 29.6721 4.06895L29.493 4.14777L29.4715 4.11911V4.08328C29.3568 3.93279 29.2851 3.92562 29.1705 4.08328C29.0558 4.24094 29.0487 4.29827 28.9842 4.40576L28.7907 4.79275C28.7907 4.86441 28.7047 4.90741 28.6258 4.84291C28.6258 5.0364 28.6258 5.22989 28.5757 5.42338C28.5576 5.70706 28.4846 5.98453 28.3607 6.24034C28.246 6.441 28.0812 6.44816 27.9665 6.24034C27.8848 6.09195 27.8244 5.9327 27.7874 5.76736C27.7874 5.64554 27.7874 5.51654 27.7372 5.37322L27.5294 5.50938C27.3431 5.62404 27.1567 5.74587 26.9632 5.85336C26.8884 5.90402 26.8027 5.93626 26.713 5.94747C26.6233 5.95868 26.5323 5.94853 26.4473 5.91786L26.3111 6.38367V6.47683C26.132 6.47683 26.1678 6.64166 26.1248 6.73482C25.9385 7.21496 25.7736 7.69511 25.5801 8.16808C25.45 8.49412 25.2712 8.79856 25.0498 9.07104C24.9542 9.20797 24.8294 9.32203 24.6844 9.40504C24.5394 9.48805 24.3779 9.53796 24.2114 9.55119C24.3332 9.65151 24.4765 9.74468 24.5912 9.85934C24.6925 9.95429 24.7641 10.0766 24.7971 10.2115C24.8302 10.3463 24.8234 10.4879 24.7775 10.619C24.7139 10.8027 24.6082 10.9691 24.4688 11.1047C24.3295 11.2403 24.1603 11.3415 23.9749 11.4001C23.6524 11.5076 23.4947 11.3499 23.5306 11.0489C23.5306 11.0489 23.5306 10.9845 23.5306 10.963C23.5086 10.906 23.4823 10.8509 23.4517 10.7981H23.4016C23.3981 10.8554 23.3981 10.9128 23.4016 10.9701C23.4016 11.1493 23.4016 11.3284 23.4016 11.5076C23.4016 11.6868 23.4016 12.0021 23.4446 12.2242C23.3003 12.2578 23.1651 12.3228 23.0487 12.4144C22.9323 12.506 22.8375 12.6222 22.7709 12.7545C22.737 12.8205 22.7263 12.8961 22.7406 12.9689C22.7549 13.0417 22.7934 13.1076 22.8498 13.1558C22.9433 13.2447 23.0527 13.3152 23.1723 13.3637C23.3002 13.405 23.4324 13.4315 23.5664 13.4425V13.55C23.5664 13.55 23.5234 13.55 23.5162 13.55C23.3371 13.55 23.1651 13.4783 22.9859 13.4425C22.8845 13.4033 22.7721 13.4033 22.6706 13.4425C22.5864 13.4774 22.4966 13.4968 22.4055 13.4998C22.4485 13.6217 22.3338 13.679 22.2836 13.7507C22.0686 13.7507 21.9612 13.4568 21.7247 13.6073C21.6172 13.4998 21.6172 13.4998 21.4452 13.6073C21.3664 13.4998 21.2875 13.5572 21.223 13.6073C21.1464 13.6849 21.0449 13.7331 20.9364 13.7435C20.8575 13.6575 20.75 13.593 20.8145 13.4855C20.7192 13.4789 20.6253 13.4596 20.5351 13.4282C20.4851 13.4073 20.4315 13.3965 20.3774 13.3965C20.3233 13.3965 20.2697 13.4073 20.2197 13.4282L19.6966 13.5357C19.6966 13.5357 19.6966 13.5357 19.6464 13.5357C19.643 13.4951 19.643 13.4544 19.6464 13.4138H19.8184C20.0118 13.3941 20.1932 13.3109 20.3344 13.1773C20.3999 13.1229 20.4444 13.0473 20.4601 12.9635C20.4758 12.8798 20.4618 12.7932 20.4204 12.7187C20.2766 12.4715 20.043 12.2892 19.7683 12.2099C19.7683 12.1382 19.7683 12.0522 19.7683 11.9591C19.7683 11.6509 19.8041 11.3356 19.8256 11.0274C19.8397 10.9272 19.8168 10.8253 19.7611 10.7408C19.7217 10.8051 19.6926 10.8753 19.6751 10.9486C19.6751 10.9916 19.6751 11.0418 19.6751 11.0919C19.6751 11.3284 19.5533 11.4359 19.3168 11.4001C19.2359 11.3891 19.158 11.3623 19.0875 11.3213C18.9408 11.2423 18.8057 11.1434 18.6861 11.0274C18.5816 10.9484 18.4974 10.8455 18.4406 10.7273C18.3838 10.6092 18.356 10.4792 18.3595 10.3482C18.363 10.2171 18.3977 10.0888 18.4608 9.9739C18.5238 9.85897 18.6134 9.76073 18.722 9.68735L18.9226 9.55119C18.7473 9.55765 18.5733 9.51964 18.4166 9.4407C18.26 9.36176 18.1259 9.24445 18.0268 9.09971C17.8937 8.9501 17.7805 8.78389 17.69 8.60523C17.5109 8.24691 17.346 7.8886 17.1955 7.51595C17.0451 7.1433 16.9806 6.90681 16.8731 6.59866C16.8544 6.55662 16.8328 6.51591 16.8086 6.47683C16.7082 6.56283 16.7226 6.441 16.7082 6.41233C16.6581 6.24751 16.6079 6.08268 16.5649 5.91786C16.5039 5.95677 16.433 5.97745 16.3607 5.97745C16.2883 5.97745 16.2174 5.95677 16.1564 5.91786C15.9056 5.78886 15.6763 5.64554 15.4398 5.50221L15.2535 5.37322C15.2614 5.45664 15.2614 5.54062 15.2535 5.62404C15.2201 5.81141 15.1722 5.9959 15.1101 6.17584C15.0743 6.29051 15.0026 6.398 14.8665 6.398C14.7303 6.398 14.6515 6.27617 14.6157 6.16151C14.5545 5.97158 14.5066 5.77762 14.4723 5.58104C14.4293 5.34455 14.4222 5.1009 14.3935 4.86441C14.2645 4.92174 14.2287 4.82858 14.1857 4.75691C14.0782 4.55626 13.985 4.34127 13.8704 4.14777C13.7557 3.95428 13.6554 3.93995 13.5121 4.14777L13.3114 4.05461C13.1164 3.96876 12.9119 3.90622 12.7023 3.86829C12.509 3.8397 12.3233 3.77303 12.156 3.67216C11.9887 3.57129 11.8431 3.43821 11.7276 3.28065C11.8136 3.12299 11.9928 3.06566 12.0501 2.90083H11.8136C10.9845 2.96531 10.1531 2.80696 9.40575 2.44219C9.24092 2.34903 9.06893 2.27736 8.9041 2.19853L8.07281 1.82588C8.03608 1.80758 7.9956 1.79806 7.95456 1.79806C7.91353 1.79806 7.87305 1.80758 7.83632 1.82588L8.1588 2.32753C8.07807 2.34004 7.99589 2.34004 7.91515 2.32753C7.7763 2.29265 7.63493 2.26869 7.49234 2.25586C7.31318 2.25586 7.24868 2.34186 7.30601 2.50669C7.36334 2.67151 7.43501 2.77901 7.4995 2.92233C7.52765 2.97036 7.55162 3.02071 7.57117 3.07283C7.44256 3.02524 7.32361 2.95484 7.22002 2.865L6.04474 1.86172C6.00564 1.82508 5.97822 1.77771 5.96591 1.72556C5.9464 1.59388 5.87809 1.47436 5.77454 1.39072C5.67098 1.30708 5.53977 1.26545 5.40693 1.27408C5.05464 1.25349 4.70269 1.31994 4.38215 1.46757C4.30271 1.5041 4.21437 1.51677 4.12786 1.50405C4.04136 1.49132 3.96041 1.45376 3.89484 1.39591C3.42903 1.06625 2.95605 0.750936 2.46158 0.442784C2.17518 0.263559 1.86002 0.135071 1.52995 0.0629692C1.41234 0.0240283 1.2878 0.0105269 1.16458 0.0233601C1.04136 0.0361932 0.922269 0.0750673 0.815208 0.137407C0.708147 0.199746 0.615556 0.284128 0.543573 0.384958C0.47159 0.485789 0.421859 0.600766 0.397673 0.722271C0.364155 0.846632 0.302903 0.961786 0.218515 1.05909C0.104233 1.18542 0.0307723 1.34333 0.00775507 1.51212C-0.0152621 1.68091 0.013237 1.85272 0.0895211 2.00504C0.133575 2.1139 0.19399 2.2154 0.268679 2.30603C0.455507 2.53585 0.661697 2.74924 0.884984 2.94383C1.2433 3.22332 1.60161 3.45981 2.00293 3.7178L2.17492 3.83246C2.15464 3.84155 2.13266 3.84625 2.11043 3.84625C2.08819 3.84625 2.06621 3.84155 2.04593 3.83246L1.43679 3.62463C1.39731 3.60541 1.35213 3.60136 1.30986 3.61325C1.26758 3.62514 1.23114 3.65214 1.20747 3.68913C1.08834 3.82597 1.00685 3.99143 0.970979 4.16927C0.897513 4.48824 0.894066 4.81934 0.960872 5.13976C1.02768 5.46019 1.16315 5.76232 1.35796 6.02535C1.4056 6.09838 1.47029 6.15872 1.54644 6.20116C1.6226 6.24361 1.70794 6.2669 1.79511 6.26901L1.63745 6.60582C1.53884 6.77156 1.45721 6.94683 1.39379 7.12897C1.358 7.20256 1.33838 7.28296 1.33625 7.36476C1.33412 7.44657 1.34952 7.52788 1.38143 7.60324C1.41334 7.6786 1.46101 7.74625 1.52124 7.80165C1.58146 7.85705 1.65286 7.89891 1.73061 7.92443C1.85904 7.97597 1.9907 8.01906 2.12476 8.05342C2.21075 8.05342 2.29675 8.05342 2.38275 8.11792C2.7554 8.24691 3.09938 8.39741 3.49353 8.51207C3.88767 8.62673 4.38932 8.73422 4.83363 8.84172C4.91246 8.84172 4.99846 8.88472 5.07012 8.80589C5.14178 8.72706 5.03429 8.72706 5.00562 8.65539C5.22778 8.87755 5.22778 9.02088 5.00562 9.1857C4.87438 9.28666 4.73262 9.37316 4.58281 9.44369C4.32482 9.57985 4.05967 9.69451 3.80168 9.83067C3.66743 9.89831 3.54223 9.98258 3.42903 10.0815C3.38732 10.1053 3.35266 10.1397 3.32855 10.1813C3.30443 10.2228 3.29173 10.27 3.29173 10.318C3.29173 10.366 3.30443 10.4132 3.32855 10.4547C3.35266 10.4962 3.38732 10.5307 3.42903 10.5545C3.54829 10.6487 3.67536 10.7326 3.80884 10.8053C3.92348 10.8648 4.02955 10.9395 4.12416 11.0274C4.3337 11.2778 4.55616 11.517 4.79063 11.7441C5.18863 12.1783 5.70796 12.4829 6.28123 12.6184C6.43889 12.6614 6.60371 12.7044 6.7542 12.7617C7.02653 12.8549 7.09819 12.9767 7.04086 13.249C7.04086 13.3493 7.04086 13.421 7.11969 13.4568C7.26971 13.5406 7.43161 13.601 7.59983 13.636C7.85834 13.6746 8.11964 13.6913 8.38096 13.6862C8.60045 13.6819 8.81819 13.7259 9.01876 13.8151C9.15492 13.8725 9.16926 13.9441 9.06893 14.0588L8.93277 14.1878C8.8826 14.238 8.82527 14.2881 8.77511 14.3455C8.74518 14.3696 8.72105 14.4002 8.70446 14.4349C8.68788 14.4697 8.67928 14.5076 8.67928 14.5461C8.67928 14.5846 8.68788 14.6226 8.70446 14.6573C8.72105 14.692 8.74518 14.7226 8.77511 14.7468C8.8707 14.8248 8.97124 14.8967 9.0761 14.9618L9.20509 15.0549C8.9471 15.2627 8.91844 15.3416 8.98293 15.5781C9.00964 15.6609 9.04074 15.7422 9.0761 15.8217C9.0761 15.8791 9.12626 15.9364 9.15493 16.0152L8.9471 15.9722C8.99157 16.0416 9.03224 16.1134 9.06893 16.1872C9.11856 16.2746 9.14464 16.3734 9.14464 16.4739C9.14464 16.5744 9.11856 16.6731 9.06893 16.7605C8.98795 16.9102 8.87074 17.0371 8.72801 17.1298C8.58529 17.2224 8.42162 17.2778 8.25197 17.2908C7.99398 17.2908 7.91515 17.1905 8.02264 16.9468C8.02264 16.9468 8.06564 16.8895 8.06564 16.8608C8.07305 16.8206 8.07305 16.7793 8.06564 16.739C7.88613 17.0854 7.73282 17.4447 7.607 17.814C7.45033 17.8025 7.29422 17.8427 7.16269 17.9286C7.09407 17.9601 7.03593 18.0105 6.99517 18.0741C6.95441 18.1376 6.93274 18.2115 6.93274 18.2869C6.93274 18.3624 6.95441 18.4363 6.99517 18.4998C7.03593 18.5633 7.09407 18.6138 7.16269 18.6453L7.32035 18.7384C7.27018 18.8531 7.22718 18.9606 7.17702 19.0681L7.32035 19.1827C6.9692 19.0896 6.72554 19.1827 6.66821 19.3834C6.89753 19.3834 7.07669 19.2616 7.30601 19.1971L7.47801 19.5554C7.5855 19.5554 7.69299 19.5052 7.80049 19.498C8.09431 19.498 8.21614 19.6342 8.13014 19.9065C8.08487 20.0282 8.02469 20.1437 7.95098 20.2505C7.82997 20.3864 7.75476 20.5569 7.73599 20.7378L7.89365 20.7737C7.89365 20.8525 7.92948 20.96 7.97965 20.9886C8.02981 21.0173 8.13014 20.9886 8.19464 20.9886C8.2448 21.2251 8.30213 21.4545 8.34513 21.7053C8.38959 21.8919 8.42309 22.0809 8.44546 22.2714C8.46081 22.38 8.44071 22.4905 8.38813 22.5867C8.33797 22.6727 8.2233 22.7157 8.13014 22.7731L8.39529 22.8591C8.47412 22.8591 8.58162 22.8591 8.63895 23.0167L8.41679 23.1314C8.29496 23.1959 8.16597 23.246 8.04414 23.3177C7.89131 23.4028 7.77488 23.5409 7.7168 23.7059C7.65872 23.8709 7.663 24.0514 7.72883 24.2135C7.72883 24.2923 7.79332 24.3783 7.82915 24.4571L7.90082 24.622L7.50667 24.7725C7.19135 24.8943 7.16985 24.9516 7.39201 25.2168C7.61416 25.4819 7.85065 25.7399 8.10864 25.9764C8.43553 26.296 8.68124 26.6891 8.82527 27.123V27.166C9.03511 27.7046 9.19581 28.2611 9.30542 28.8286C9.30542 28.8716 9.30542 28.9074 9.35558 28.9433C9.39858 28.6208 9.44158 28.2911 9.49174 27.9758C9.94322 27.9113 10.108 27.9758 10.2657 28.3915C10.3571 28.6735 10.529 28.9226 10.7602 29.1081C10.7935 29.1298 10.8187 29.1621 10.8316 29.1997C10.8446 29.2374 10.8447 29.2782 10.8318 29.3159C10.8213 29.4375 10.8213 29.5598 10.8318 29.6814C10.8318 29.7961 10.9035 29.8247 11.0038 29.7817C11.061 29.7593 11.1143 29.7279 11.1615 29.6886L11.5556 29.3876C11.6201 29.3374 11.6918 29.3016 11.7778 29.2443C11.7903 29.3098 11.807 29.3744 11.828 29.4377L11.9355 29.2443C12.1075 28.9504 12.2651 28.6494 12.4443 28.3628C12.5303 28.2266 12.6378 28.0976 12.7381 27.9686C12.8384 27.8396 12.8599 27.811 12.9602 27.8468C13.0606 27.8826 13.0534 27.9901 13.0462 28.0833C13.0531 28.1787 13.0531 28.2745 13.0462 28.37C12.9741 28.8637 12.8367 29.3456 12.6378 29.8032C12.6218 29.8545 12.6027 29.9048 12.5804 29.9537C13.0606 30.1544 13.5121 30.355 13.5909 30.9642L13.9922 30.3765C13.9922 30.5844 13.856 30.7563 13.8775 30.9928C13.9293 30.9697 13.9796 30.9434 14.028 30.914L14.2717 30.7133C14.544 30.5055 14.8092 30.2905 15.0886 30.0899C15.2164 30.0117 15.3507 29.9445 15.49 29.8892C15.5903 30.0397 15.6691 30.1687 15.7623 30.2905C15.848 30.4086 15.9439 30.5189 16.0489 30.6202C16.2281 30.785 16.3714 30.742 16.4431 30.4984C16.4806 30.3728 16.4999 30.2425 16.5004 30.1114C16.5004 29.7172 16.5004 29.3159 16.5004 28.9146C16.5004 28.7999 16.5004 28.6924 16.5004 28.5778H16.5434C16.5864 28.7068 16.6294 28.8358 16.6796 28.9719C16.6796 28.7211 16.6796 28.499 16.6796 28.2553C16.6706 27.8412 16.7237 27.4282 16.8372 27.0299C16.8917 26.8518 16.9765 26.6845 17.0881 26.5354C17.1214 26.4727 17.1725 26.4214 17.2351 26.3879C17.2976 26.3543 17.3687 26.3401 17.4393 26.347C17.5099 26.354 17.5769 26.3817 17.6317 26.4267C17.6866 26.4717 17.7268 26.532 17.7474 26.5999C17.8104 26.7303 17.8493 26.8712 17.862 27.0155C17.8765 27.2652 17.8193 27.5139 17.6972 27.7322C17.6297 27.8599 17.6142 28.0089 17.6542 28.1478C17.9552 27.4957 18.1128 26.7862 18.3708 26.0982C18.3668 26.1195 18.3668 26.1414 18.3708 26.1627C18.3905 26.2143 18.4254 26.2586 18.4708 26.2899C18.5162 26.3212 18.5701 26.3379 18.6252 26.3379C18.6804 26.3379 18.7342 26.3212 18.7797 26.2899C18.8251 26.2586 18.86 26.2143 18.8796 26.1627C18.9278 26.0806 18.9617 25.991 18.98 25.8976C19.0865 25.4274 19.1083 24.9421 19.0445 24.4643C19.0241 24.3101 19.049 24.1532 19.1161 24.0128C19.1591 23.9268 19.1878 23.8408 19.2308 23.7692C19.2759 23.7125 19.3072 23.646 19.3221 23.5751C19.337 23.5042 19.3352 23.4308 19.3168 23.3607C19.3063 23.3135 19.3063 23.2646 19.3168 23.2174C19.3598 23.3249 19.3813 23.4395 19.4243 23.547C19.4673 23.6545 19.5103 23.6903 19.5963 23.6545C19.6637 23.6299 19.7198 23.5815 19.7539 23.5184C19.8113 23.4037 19.7539 23.2962 19.6178 23.2389C19.5408 23.2072 19.4618 23.1809 19.3813 23.16C19.4037 22.7983 19.4662 22.4402 19.5676 22.0923C19.4681 22.0389 19.3905 21.9522 19.3486 21.8474C19.3066 21.7425 19.303 21.6262 19.3383 21.5189C19.4442 20.9749 19.6913 20.4682 20.0549 20.0499C20.2484 19.8062 20.4204 19.5482 20.5924 19.2902C20.6322 19.2445 20.6541 19.186 20.6541 19.1254C20.6541 19.0648 20.6322 19.0062 20.5924 18.9606C20.5235 18.8869 20.4784 18.7941 20.4631 18.6944C20.4478 18.5946 20.4628 18.4926 20.5064 18.4016C20.5064 18.3156 20.5637 18.2296 20.5996 18.1078C20.2986 18.1938 20.0836 18.3944 19.8041 18.4804C20.0907 17.9071 20.4706 17.4055 20.793 16.8608C20.6855 16.911 20.6425 17.04 20.5136 17.0902C20.7909 16.448 21.1369 15.8377 21.5455 15.2699C21.6602 15.4706 21.782 15.6712 21.8967 15.8791C22.0901 16.2159 22.2765 16.5957 22.47 16.9038C22.497 16.9647 22.5209 17.0269 22.5416 17.0902L22.1905 16.7748C22.2203 16.8624 22.2639 16.9446 22.3195 17.0185C22.5703 17.4126 22.8354 17.8068 23.0863 18.2009C23.1387 18.283 23.1842 18.3693 23.2224 18.4589C22.9286 18.3873 22.7208 18.1723 22.427 18.1078C22.47 18.2654 22.513 18.4016 22.5488 18.5449C22.5676 18.6012 22.5709 18.6616 22.5583 18.7196C22.5457 18.7776 22.5177 18.8312 22.4771 18.8746C22.4463 18.9028 22.4216 18.9371 22.4048 18.9753C22.3879 19.0136 22.3792 19.0549 22.3792 19.0967C22.3792 19.1385 22.3879 19.1799 22.4048 19.2181C22.4216 19.2564 22.4463 19.2907 22.4771 19.3189C22.6273 19.5693 22.7949 19.8087 22.9788 20.0355C23.3145 20.4178 23.5595 20.871 23.6954 21.3613C23.7671 21.6479 23.7886 21.9274 23.4876 22.0779C23.5928 22.4179 23.6577 22.7691 23.6811 23.1242L23.4088 23.2245C23.3631 23.2423 23.3255 23.2761 23.303 23.3197C23.2806 23.3633 23.2748 23.4135 23.2869 23.461C23.2957 23.5057 23.3185 23.5465 23.352 23.5774C23.3855 23.6083 23.428 23.6278 23.4732 23.633C23.5592 23.633 23.6309 23.5829 23.6667 23.4539C23.7026 23.3249 23.6667 23.2819 23.7097 23.203C23.6852 23.3067 23.684 23.4144 23.7063 23.5186C23.7286 23.6227 23.7739 23.7206 23.8387 23.805C23.8746 23.8623 23.8961 23.9268 23.9319 23.9913C23.9807 24.0964 23.9981 24.2134 23.9821 24.3282C23.9247 24.7178 23.9247 25.1138 23.9821 25.5034C24.0145 25.6988 24.0649 25.8907 24.1326 26.0767C24.149 26.1347 24.1853 26.1851 24.235 26.2191C24.2848 26.2532 24.3449 26.2687 24.4049 26.2631C24.4613 26.2645 24.5168 26.2488 24.5641 26.2181C24.6114 26.1874 24.6483 26.1431 24.67 26.0911C24.7507 26.2754 24.8201 26.4645 24.8778 26.6572L25.3007 27.94C25.3007 28.0045 25.3007 28.0976 25.4297 28.1406C25.4434 27.9912 25.4187 27.8407 25.358 27.7035C25.2738 27.5533 25.2208 27.3876 25.2024 27.2164C25.1839 27.0452 25.2003 26.8721 25.2505 26.7074C25.2671 26.6177 25.3101 26.5351 25.3739 26.47C25.4378 26.4049 25.5195 26.3603 25.6088 26.3419C25.8238 26.3061 25.9528 26.4494 26.0531 26.6142C26.1739 26.8166 26.2542 27.0405 26.2896 27.2735C26.3745 27.7462 26.4033 28.2273 26.3756 28.7068C26.3756 28.7784 26.3756 28.8501 26.3756 28.9218C26.4114 28.8143 26.4544 28.7139 26.4903 28.6064C26.5073 28.6723 26.5073 28.7413 26.4903 28.8071C26.4903 29.1798 26.4903 29.5237 26.4903 29.9251C26.4908 30.1306 26.5173 30.3353 26.5691 30.5342C26.6264 30.742 26.7698 30.785 26.9274 30.6417C27.0532 30.523 27.1683 30.3935 27.2714 30.2547C27.3502 30.1472 27.4219 30.0325 27.5007 29.9107C27.7629 29.9908 28.0066 30.1224 28.2174 30.2977C28.4538 30.4769 28.676 30.6775 28.934 30.8638C29.0015 30.9155 29.0734 30.9611 29.149 31C29.192 30.7563 29.0415 30.5844 29.0415 30.3694L29.4428 30.9713C29.5216 30.3622 29.9803 30.1544 30.4533 29.9609L30.3888 29.7817C30.2126 29.3754 30.0851 28.9496 30.0089 28.5133C29.9871 28.3372 29.9871 28.1591 30.0089 27.983C30.0089 27.8611 30.0949 27.8397 30.1953 27.9113C30.2531 27.9583 30.3059 28.0112 30.3529 28.069C30.4548 28.1939 30.5482 28.3256 30.6324 28.4631C30.8187 28.7784 30.9979 29.1081 31.177 29.4306C31.177 29.4306 31.177 29.4807 31.2272 29.5309C31.2272 29.4234 31.2272 29.3589 31.2272 29.2729L31.4852 29.4521C31.607 29.5452 31.7289 29.6527 31.8579 29.7459C31.8865 29.7664 31.9194 29.7803 31.9541 29.7865C31.9888 29.7927 32.0245 29.7911 32.0585 29.7817C32.0819 29.7544 32.0991 29.7223 32.109 29.6876C32.1189 29.653 32.1212 29.6167 32.1158 29.5811C32.1158 29.4521 32.1158 29.3231 32.0585 29.1798C32.3494 28.9698 32.5674 28.6741 32.682 28.3341C32.7044 28.2631 32.7411 28.1974 32.7899 28.1411C32.8387 28.0848 32.8986 28.0391 32.9657 28.0068C33.0329 27.9746 33.106 27.9565 33.1805 27.9536C33.2549 27.9507 33.3292 27.9632 33.3986 27.9901C33.4337 28.3129 33.4863 28.6334 33.5563 28.9504C33.5894 28.8897 33.6135 28.8246 33.6279 28.7569C33.7616 28.0513 33.983 27.3651 34.2872 26.7145C34.3812 26.5144 34.5098 26.3325 34.667 26.1771C34.9107 25.9334 35.1544 25.6683 35.3837 25.4174C35.4625 25.3314 35.5413 25.2383 35.613 25.1451C35.6847 25.052 35.7205 24.8943 35.5127 24.8083L35.0469 24.6291C35.1042 24.4858 35.1687 24.364 35.2117 24.235C35.281 24.0704 35.2864 23.8858 35.2267 23.7175C35.1671 23.5491 35.0467 23.4091 34.8892 23.3249C34.7528 23.2447 34.6116 23.1729 34.4664 23.1099C34.4091 23.1099 34.3374 23.0669 34.3087 22.9594L34.8605 22.7587C34.5667 22.7014 34.4879 22.6082 34.4879 22.3502C34.4808 22.274 34.4808 22.1972 34.4879 22.1209L34.7244 21.0173H34.9895C34.9895 20.9241 34.9895 20.8596 34.9895 20.7952L35.1759 20.7522C35.1547 20.5753 35.0825 20.4085 34.968 20.272C34.8947 20.1727 34.8345 20.0643 34.7889 19.9495C34.6814 19.6414 34.7889 19.4837 35.1329 19.5195C35.2344 19.5317 35.335 19.5509 35.4338 19.5769C35.5055 19.455 35.4983 19.2902 35.6417 19.2257C35.8423 19.2759 36.0215 19.4335 36.2651 19.3834C36.1218 19.1756 35.9427 19.1182 35.5987 19.1827L35.7277 19.0752L35.5915 18.7527C35.6746 18.7069 35.7537 18.6542 35.828 18.5951C35.8807 18.5575 35.923 18.507 35.9507 18.4485C35.9784 18.3899 35.9907 18.3252 35.9864 18.2606C35.9821 18.196 35.9613 18.1335 35.9261 18.0792C35.8908 18.0248 35.8423 17.9804 35.785 17.9501C35.6352 17.852 35.4622 17.7951 35.2834 17.7853C35.1623 17.4218 35.0212 17.0653 34.8605 16.7175C34.7602 16.8178 34.8605 16.8823 34.8605 16.954C34.9609 17.1833 34.8605 17.3051 34.6312 17.2837C34.4903 17.2707 34.3537 17.2282 34.2303 17.1591C34.1068 17.09 33.9993 16.9957 33.9146 16.8823C33.8298 16.7853 33.7768 16.6645 33.7627 16.5364C33.7486 16.4083 33.7741 16.2789 33.8358 16.1657C33.8358 16.1012 33.9003 16.0439 33.9361 15.9722H33.7426C33.7999 15.8289 33.8501 15.7214 33.8931 15.6067C33.9193 15.5614 33.936 15.5112 33.9422 15.4592C33.9485 15.4072 33.9441 15.3545 33.9293 15.3042C33.9146 15.254 33.8898 15.2073 33.8565 15.1669C33.8231 15.1265 33.782 15.0933 33.7354 15.0693L33.7713 15.0263L33.9289 14.9259C34.0164 14.8745 34.1002 14.817 34.1797 14.7539C34.2138 14.7286 34.2415 14.6956 34.2606 14.6577C34.2797 14.6197 34.2896 14.5778 34.2896 14.5354C34.2896 14.4929 34.2797 14.451 34.2606 14.413C34.2415 14.3751 34.2138 14.3421 34.1797 14.3168C34.1081 14.238 34.0221 14.1663 33.9432 14.0875C33.8644 14.0086 33.7928 13.8438 34.0149 13.7722C34.2083 13.6949 34.4161 13.6606 34.6241 13.6718C34.7886 13.6861 34.954 13.6861 35.1185 13.6718C35.3458 13.6622 35.5682 13.6035 35.7707 13.4998C35.8302 13.4772 35.8789 13.4327 35.9068 13.3755C35.9347 13.3183 35.9399 13.2526 35.9212 13.1917C35.8782 12.9409 35.9212 12.8334 36.1863 12.7474C36.4515 12.6614 36.5375 12.6399 36.7166 12.5897C37.0749 12.5082 37.4119 12.3519 37.7056 12.1311C38.1082 11.8366 38.4718 11.4923 38.7877 11.1063C38.8883 10.9668 39.021 10.8538 39.1747 10.7766C39.2941 10.7226 39.4071 10.6553 39.5115 10.576C39.7623 10.3896 39.7695 10.189 39.5115 10.0027C39.3546 9.88986 39.1893 9.78923 39.017 9.70168C38.7662 9.57268 38.501 9.45802 38.243 9.3147C38.123 9.24824 38.0122 9.16632 37.9134 9.07104C37.8059 8.95638 37.8131 8.87755 37.9134 8.71989C37.9707 8.84889 38.0711 8.82022 38.1714 8.80589C38.9862 8.64636 39.7832 8.4063 40.5506 8.08925L40.8014 8.01043C40.9987 7.94944 41.1925 7.87767 41.3819 7.79543C41.4613 7.76015 41.5291 7.70302 41.5773 7.6307C41.6255 7.55838 41.6522 7.47385 41.6542 7.38695C41.6628 7.26297 41.6458 7.13855 41.6041 7.02147C41.5324 6.83515 41.4321 6.66316 41.3461 6.484C41.2601 6.30484 41.2672 6.31201 41.2242 6.21168C41.3279 6.19719 41.4267 6.1585 41.5126 6.09874C41.5985 6.03897 41.6691 5.95983 41.7187 5.86769C41.9814 5.46027 42.1162 4.98357 42.1057 4.49893C42.1066 4.26971 42.0526 4.04362 41.948 3.83962C41.7904 3.56014 41.7474 3.5458 41.4392 3.6533L41.0451 3.78229L40.8588 3.83246C40.9834 3.7226 41.1177 3.62426 41.2601 3.53864C41.6981 3.27822 42.1045 2.968 42.4712 2.61418C42.6872 2.415 42.8561 2.17019 42.9657 1.89755C43.0238 1.75953 43.0425 1.6081 43.0197 1.46008C42.997 1.31206 42.9336 1.17325 42.8367 1.05909" fill="url(#paint0_linear_695:77)"/>
<path d="M50.6675 7.80244H49.1124C49.0279 7.79055 48.9418 7.79721 48.8601 7.82196C48.7784 7.84671 48.7031 7.88896 48.6394 7.94576C48.5432 8.11533 48.5031 8.31098 48.5247 8.50474V12.6684C48.5069 12.8711 48.5467 13.0748 48.6394 13.256C48.764 13.3935 48.9301 13.4866 49.1124 13.5212L49.3202 13.5785L49.2127 13.8866H47.199L47.0771 13.7433L47.199 13.5785C47.343 13.3838 47.4521 13.1656 47.5215 12.9335C47.5881 12.6397 47.6194 12.339 47.6146 12.0377V9.12821C47.619 8.82934 47.5878 8.53103 47.5215 8.23958C47.455 8.00641 47.3456 7.78767 47.199 7.59461L47.0771 7.42979L47.199 7.2793H52.5809L52.7027 7.42979L52.5809 7.59461C52.4342 7.78767 52.3248 8.00641 52.2584 8.23958C52.1916 8.53095 52.1603 8.82932 52.1652 9.12821V12.7114C52.1509 12.9047 52.1906 13.0982 52.2799 13.2703C52.4005 13.4005 52.558 13.4905 52.7314 13.5283L52.9177 13.5785L52.8174 13.8723H50.5671L50.4812 13.5785L50.6961 13.5212C50.8757 13.4847 51.0389 13.3918 51.162 13.256C51.2579 13.0758 51.3002 12.8719 51.2838 12.6684V8.50474C51.3055 8.31098 51.2653 8.11533 51.1691 7.94576C51.1047 7.89015 51.0293 7.84866 50.9478 7.82398C50.8664 7.79929 50.7806 7.79195 50.6961 7.80244" fill="#1A1A18"/>
<path d="M55.1444 8.08891V12.0376C55.1387 12.3388 55.17 12.6397 55.2376 12.9334C55.3055 13.1659 55.4148 13.3844 55.5601 13.5783L55.6819 13.7431L55.5601 13.8936H53.5463L53.4317 13.5783L53.6467 13.521C53.8286 13.4854 53.9944 13.3925 54.1196 13.2558C54.2115 13.0718 54.2512 12.8661 54.2343 12.661V8.11758C54.2343 7.97425 54.1698 7.89542 54.0336 7.89542H53.4962L53.3887 7.55861C53.7271 7.43046 54.0777 7.33682 54.435 7.27912C54.8453 7.19514 55.263 7.15193 55.6819 7.15013C56.4094 7.09076 57.1322 7.31118 57.7028 7.76643C57.9187 7.96243 58.0895 8.203 58.2034 8.47151C58.3172 8.74001 58.3714 9.03003 58.3621 9.32152C58.3751 9.60528 58.3318 9.8888 58.2347 10.1557C58.1375 10.4226 57.9884 10.6677 57.796 10.8766C57.5796 11.0885 57.321 11.2523 57.0369 11.3573C56.7529 11.4622 56.4499 11.506 56.1477 11.4858C55.9537 11.4888 55.7604 11.4622 55.5744 11.4069C55.4167 11.3496 55.3451 11.2564 55.3451 11.1346C55.3451 11.0128 55.3881 10.9483 55.4884 10.9483H55.6389C55.7374 10.9725 55.8385 10.9845 55.9399 10.9841C56.1408 10.9945 56.3415 10.9601 56.5275 10.8832C56.7134 10.8064 56.8799 10.689 57.0148 10.5398C57.2861 10.2045 57.4239 9.78088 57.4018 9.35019C57.4211 8.90317 57.2758 8.46459 56.9933 8.11758C56.8521 7.95854 56.6772 7.83294 56.4813 7.74989C56.2855 7.66684 56.0736 7.62843 55.8611 7.63744C55.3809 7.63744 55.1444 7.78076 55.1444 8.06025" fill="#1A1A18"/>
<path d="M61.1521 10.7975H60.3638V12.6679C60.3506 12.8748 60.4033 13.0805 60.5143 13.2556C60.5804 13.3105 60.6572 13.351 60.7399 13.3744C60.8226 13.3979 60.9093 13.4038 60.9944 13.3917H61.9475C62.1856 13.4159 62.4251 13.3605 62.6283 13.2341C62.8034 13.0401 62.9158 12.7978 62.9508 12.5389L63.0081 12.3239L63.3235 12.4386V14.008L63.1371 14.1084L63.0655 14.008C63.0138 13.9607 62.9523 13.9253 62.8855 13.9042C62.8186 13.8832 62.748 13.877 62.6785 13.8862H58.8015L58.7012 13.5852L58.8947 13.5351C59.068 13.4973 59.2256 13.4072 59.3461 13.2771C59.4322 13.104 59.4694 12.9107 59.4536 12.7181V9.13493C59.4632 8.8335 59.4318 8.53216 59.3605 8.23914C59.3002 8.00362 59.1902 7.78372 59.038 7.59417L58.9233 7.42935L59.038 7.27886H61.8544C62.2167 7.31516 62.582 7.24807 62.9078 7.08536L63.0726 6.9707L63.216 7.08536V8.72645L62.9078 8.83395L62.8505 8.62612C62.8087 8.37989 62.6967 8.15096 62.528 7.96682C62.3258 7.83741 62.0862 7.77938 61.8472 7.80199H60.9586C60.873 7.79093 60.786 7.79797 60.7033 7.82266C60.6206 7.84735 60.544 7.88914 60.4784 7.94532C60.3857 8.11618 60.3458 8.31073 60.3638 8.5043V10.2672H61.5319C61.6764 10.2626 61.8175 10.2222 61.9425 10.1497C62.0676 10.0771 62.1727 9.9747 62.2485 9.85156L62.3202 9.74407L62.5065 9.85156V11.421L62.1912 11.5357L62.141 11.3207C62.1237 11.2338 62.0887 11.1514 62.0381 11.0787C61.9876 11.0059 61.9226 10.9444 61.8472 10.8978C61.6175 10.8164 61.3738 10.7823 61.1306 10.7975" fill="#1A1A18"/>
<path d="M68.6399 8.7263C68.5044 8.42148 68.289 8.159 68.0164 7.96667C67.7322 7.77067 67.3941 7.66798 67.049 7.67285C66.742 7.67198 66.4402 7.75159 66.1736 7.90374C65.9071 8.05588 65.685 8.27525 65.5297 8.53997C65.1407 9.17224 64.9463 9.90495 64.9707 10.6469C64.9378 11.3623 65.12 12.0712 65.4939 12.6821C65.6487 12.9302 65.8658 13.1335 66.1235 13.2718C66.3812 13.4101 66.6706 13.4785 66.963 13.4704C67.2649 13.4793 67.5641 13.41 67.8315 13.2694C68.0989 13.1288 68.3255 12.9216 68.4894 12.6678C68.8754 12.1004 69.0734 11.4261 69.0555 10.74C69.0642 10.0466 68.9224 9.35959 68.6399 8.7263ZM64.7342 13.0261C64.1951 12.3229 63.9188 11.4534 63.9531 10.568C63.9184 9.67821 64.1946 8.80407 64.7342 8.09567C65.0095 7.76787 65.3577 7.50902 65.7509 7.33979C66.1441 7.17056 66.5715 7.09565 66.9988 7.12105C67.426 7.09678 67.853 7.1722 68.246 7.34135C68.639 7.5105 68.9873 7.76874 69.2633 8.09567C69.811 8.80023 70.0904 9.67651 70.0516 10.568C70.0908 11.4552 69.8111 12.3271 69.2633 13.0261C68.9855 13.35 68.6365 13.6052 68.2437 13.7718C67.8508 13.9384 67.4247 14.0118 66.9988 13.9864C66.5728 14.0124 66.1465 13.9392 65.7536 13.7726C65.3606 13.6059 65.0117 13.3504 64.7342 13.0261Z" fill="#1A1A18"/>
<path d="M73.2597 13.4132C73.4494 13.4227 73.6388 13.3904 73.8147 13.3185C73.9905 13.2467 74.1484 13.1371 74.2773 12.9976C74.5257 12.704 74.656 12.3285 74.6428 11.9441C74.6509 11.7537 74.6193 11.5638 74.5502 11.3862C74.481 11.2086 74.3757 11.0474 74.241 10.9126C74.1063 10.7779 73.945 10.6726 73.7674 10.6034C73.5899 10.5343 73.3999 10.5028 73.2095 10.5109C73.0736 10.4997 72.9369 10.4997 72.801 10.5109H72.6004C72.5144 10.5109 72.4714 10.4392 72.4714 10.303C72.4714 10.1669 72.7938 9.98056 73.4316 9.98056C74.0106 9.95859 74.5755 10.1615 75.0082 10.5467C75.2121 10.7243 75.3738 10.9451 75.4816 11.193C75.5895 11.4409 75.6407 11.7098 75.6317 11.98C75.6413 12.235 75.595 12.4891 75.4959 12.7243C75.3969 12.9595 75.2475 13.1702 75.0584 13.3416C74.5361 13.7329 73.8885 13.919 73.2382 13.8647H70.6368L70.5508 13.5781L70.7658 13.5207C70.9453 13.4842 71.1085 13.3913 71.2316 13.2556C71.3281 13.073 71.3704 12.8666 71.3534 12.6608V9.12776C71.3646 8.82904 71.3357 8.53016 71.2674 8.23914C71.201 8.00597 71.0916 7.78723 70.9449 7.59417L70.8231 7.42935L70.9449 7.27886H73.7613C74.1214 7.31538 74.4844 7.24824 74.8076 7.08536L74.9796 6.9707L75.1229 7.08536V8.72645L74.8076 8.83395L74.7574 8.62612C74.7156 8.37989 74.6037 8.15096 74.4349 7.96682C74.2224 7.83047 73.9691 7.77221 73.7183 7.80199H72.8297C72.7452 7.79151 72.6595 7.79885 72.578 7.82354C72.4965 7.84822 72.4211 7.88971 72.3567 7.94532C72.2605 8.11489 72.2204 8.31054 72.242 8.5043V12.2021C72.242 12.7468 72.3639 13.0907 72.6218 13.2484C72.8168 13.357 73.0364 13.4138 73.2597 13.4132Z" fill="#1A1A18"/>
<path d="M77.9143 8.08891V12.0376C77.9086 12.3388 77.9399 12.6397 78.0074 12.9334C78.0754 13.1659 78.1846 13.3844 78.3299 13.5783L78.4517 13.7431L78.3299 13.8936H76.3162L76.2087 13.5783L76.4165 13.521C76.5978 13.4892 76.7624 13.3954 76.8823 13.2558C76.9804 13.0738 77.0228 12.867 77.0041 12.661V8.11758C77.0041 7.97425 76.9396 7.89542 76.8035 7.89542H76.2803L76.1729 7.55861C76.5116 7.43136 76.8621 7.33775 77.2191 7.27912C77.6178 7.19746 78.0233 7.15426 78.4302 7.15013C79.1578 7.09076 79.8806 7.31118 80.4511 7.76643C80.6684 7.96177 80.8405 8.20205 80.9556 8.47059C81.0707 8.73912 81.126 9.02949 81.1176 9.32152C81.1471 9.89 80.9543 10.4477 80.5801 10.8766C80.363 11.0894 80.1031 11.2538 79.8178 11.3588C79.5324 11.4638 79.228 11.5071 78.9247 11.4858C78.7307 11.4888 78.5374 11.4622 78.3514 11.4069C78.2009 11.3496 78.1221 11.2564 78.1221 11.1346C78.1221 11.0128 78.1651 10.9483 78.2654 10.9483H78.4159C78.5146 10.9716 78.6155 10.9837 78.7169 10.9841C78.9178 10.9945 79.1186 10.9601 79.3045 10.8832C79.4904 10.8064 79.6569 10.689 79.7918 10.5398C80.0631 10.2045 80.2009 9.78088 80.1788 9.35019C80.1982 8.90317 80.0528 8.46459 79.7703 8.11758C79.6291 7.95854 79.4542 7.83294 79.2583 7.74989C79.0625 7.66684 78.8506 7.62843 78.6381 7.63744C78.1579 7.63744 77.9214 7.78076 77.9214 8.06025" fill="#1A1A18"/>
<path d="M83.5491 8.23926L82.7321 10.8048H84.4664L83.5491 8.23926ZM85.0755 13.3775C85.1075 13.3459 85.1324 13.3078 85.1485 13.2658C85.1645 13.2237 85.1714 13.1788 85.1687 13.1339C85.1602 12.9742 85.1263 12.817 85.0683 12.668L84.6312 11.3853H82.4813L82.2591 12.0589C82.1404 12.3641 82.068 12.6854 82.0442 13.012C82.0437 13.2104 82.0878 13.4063 82.1731 13.5853L82.2591 13.7502L82.0871 13.9007H80.4102L80.3027 13.5853L80.5106 13.528C80.7096 13.4876 80.8948 13.3962 81.048 13.2629C81.1916 13.0875 81.2988 12.8853 81.3634 12.668L82.7966 8.51157C82.8543 8.36502 82.8882 8.21018 82.8969 8.05293C82.8998 8.00693 82.893 7.96085 82.877 7.91764C82.8609 7.87444 82.836 7.83508 82.8038 7.80211C82.7111 7.73069 82.6032 7.68164 82.4885 7.65878L82.2735 7.60145L82.3881 7.28613H84.1654L86.0143 12.6251C86.0808 12.8498 86.1824 13.0626 86.3153 13.2557C86.4641 13.4365 86.635 13.5978 86.8241 13.7358L86.7023 13.8863H84.6527L84.5452 13.571L84.753 13.5137C84.8721 13.4933 84.9834 13.4413 85.0755 13.3632" fill="#1A1A18"/>
<path d="M94.5529 13.2554C94.6604 13.4489 94.775 13.542 94.8969 13.542C95.0292 13.5385 95.1571 13.4933 95.2623 13.413L95.42 13.6782C95.315 13.7905 95.1887 13.8806 95.0484 13.9434C94.9081 14.0061 94.7567 14.0402 94.603 14.0437C94.3473 14.0504 94.0962 13.9751 93.8864 13.8287C93.6677 13.6406 93.4876 13.4118 93.3561 13.1551L92.2453 11.1055C92.1388 10.9177 91.9722 10.7713 91.7723 10.6898C91.7723 10.6898 91.7293 10.6468 91.7293 10.5895C91.7293 10.5322 91.7938 10.3674 91.9157 10.3674H92.1307L93.3848 8.50411C93.4916 8.36186 93.5584 8.1936 93.5782 8.0168C93.5719 7.87078 93.5378 7.72729 93.4779 7.59398L93.3919 7.42916L93.5639 7.27867H95.2265L95.3412 7.59398L95.1262 7.65131C94.8362 7.72585 94.5822 7.90113 94.4095 8.14579L92.7613 10.5393C93.0305 10.6665 93.2534 10.8744 93.3991 11.1341L94.5529 13.2554ZM90.6114 12.6606V8.50411C90.6286 8.30056 90.5863 8.09639 90.4896 7.91647C90.3667 7.77681 90.1998 7.68327 90.0166 7.65131L89.8088 7.59398L89.9163 7.27867H91.9372L92.0518 7.42916L91.9372 7.59398C91.7849 7.78353 91.675 8.00343 91.6147 8.23895C91.5444 8.52972 91.513 8.82855 91.5215 9.12757V12.7107C91.5057 12.9034 91.5429 13.0967 91.629 13.2697C91.752 13.3968 91.9086 13.4863 92.0805 13.5277L92.274 13.5779L92.1736 13.8717H89.8948L89.7873 13.5635L89.9951 13.5062C90.1756 13.4755 90.3414 13.3876 90.4681 13.2554C90.5646 13.0728 90.6069 12.8664 90.5899 12.6606H90.6114ZM90.1814 10.3888C90.3032 10.3888 90.3677 10.4605 90.3677 10.611C90.3677 10.7615 90.3677 10.697 90.3176 10.7113C90.1197 10.7932 89.9555 10.9397 89.8518 11.127L88.7553 13.1336C88.6238 13.3903 88.4437 13.6191 88.225 13.8072C88.0152 13.9536 87.7641 14.0289 87.5084 14.0222C87.3547 14.0187 87.2033 13.9846 87.063 13.9219C86.9227 13.8591 86.7964 13.769 86.6914 13.6567L86.8491 13.3915C86.9543 13.4718 87.0822 13.517 87.2145 13.5205C87.3364 13.5205 87.451 13.4274 87.5585 13.2339L88.7195 11.1055C88.8614 10.848 89.079 10.6403 89.343 10.5107L87.6947 8.11712C87.5254 7.86916 87.27 7.69294 86.9781 7.62265L86.7702 7.56531L86.8777 7.25H88.5475L88.7195 7.40049L88.6335 7.56531C88.5659 7.70425 88.5269 7.85534 88.5188 8.00963C88.5386 8.18643 88.6055 8.3547 88.7123 8.49694L89.9521 10.3888H90.1814Z" fill="#1A1A18"/>
<path d="M98.0163 10.7975H97.2352V12.6679C97.2135 12.8617 97.2536 13.0573 97.3498 13.2269C97.4146 13.2816 97.4902 13.3221 97.5718 13.3455C97.6533 13.369 97.7388 13.375 97.8228 13.3631H98.8189C99.0688 13.395 99.3221 13.3393 99.5355 13.2054C99.7043 13.0213 99.8162 12.7923 99.858 12.5461L99.9082 12.3311L100.224 12.4458V14.0152L100.037 14.1155L99.9655 14.0152C99.9144 13.967 99.853 13.931 99.786 13.9099C99.719 13.8888 99.6481 13.8832 99.5785 13.8934H95.7087L95.6084 13.5924L95.7947 13.5422C95.9681 13.5044 96.1256 13.4144 96.2462 13.2842C96.3389 13.1134 96.3788 12.9188 96.3609 12.7253V9.1421C96.3557 8.83691 96.3123 8.53357 96.2319 8.23914C96.1654 8.00597 96.0561 7.78723 95.9094 7.59417L95.7876 7.42935L95.9094 7.27886H98.7257C99.0858 7.31538 99.4488 7.24824 99.772 7.08536L99.9369 6.9707L100.087 7.08536V8.72645L99.772 8.83395L99.7219 8.62612C99.6767 8.38098 99.5652 8.15293 99.3994 7.96682C99.1868 7.83047 98.9335 7.77221 98.6828 7.80199H97.8228C97.7383 7.79105 97.6524 7.79817 97.5709 7.82288C97.4894 7.84759 97.414 7.88932 97.3498 7.94532C97.2536 8.11489 97.2135 8.31054 97.2352 8.5043V10.2672H98.4033C98.5478 10.2626 98.6889 10.2222 98.8139 10.1497C98.939 10.0771 99.0441 9.9747 99.1199 9.85156L99.2131 9.74407L99.3922 9.85156V11.421L99.0841 11.5357L99.0267 11.3207C99.0107 11.2342 98.9769 11.1521 98.9276 11.0793C98.8783 11.0065 98.8144 10.9448 98.7401 10.8978C98.51 10.8181 98.2666 10.784 98.0234 10.7975" fill="#1A1A18"/>
<path d="M105.592 12.6684V10.8195H102.582V12.7257C102.566 12.9183 102.603 13.1116 102.689 13.2847C102.812 13.4118 102.969 13.5013 103.141 13.5427L103.334 13.5928L103.234 13.8866H100.984L100.869 13.5785L101.084 13.5212C101.264 13.4847 101.427 13.3918 101.55 13.256C101.646 13.0758 101.688 12.8719 101.672 12.6684V8.50474C101.689 8.30119 101.647 8.09702 101.55 7.9171C101.428 7.7787 101.265 7.68323 101.084 7.64478L100.869 7.59461L100.984 7.2793H102.998L103.112 7.42979L102.998 7.59461C102.845 7.78416 102.735 8.00407 102.675 8.23958C102.605 8.53035 102.573 8.82918 102.582 9.12821V10.2533H105.592V8.50474C105.609 8.30119 105.567 8.09702 105.47 7.9171C105.348 7.7787 105.185 7.68323 105.004 7.64478L104.789 7.59461L104.904 7.2793H106.918L107.039 7.42979L106.918 7.59461C106.765 7.78416 106.655 8.00407 106.595 8.23958C106.525 8.53035 106.493 8.82918 106.502 9.12821V12.7114C106.486 12.904 106.523 13.0973 106.609 13.2703C106.732 13.3974 106.889 13.4869 107.061 13.5283L107.254 13.5785L107.154 13.8723H104.904L104.789 13.5642L105.004 13.5068C105.184 13.4703 105.347 13.3774 105.47 13.2417C105.566 13.0615 105.608 12.8575 105.592 12.654" fill="#1A1A18"/>
<path d="M110.679 7.15043C111.202 7.13034 111.72 7.26227 112.169 7.53025C112.344 7.62672 112.489 7.7678 112.591 7.93905C112.693 8.11029 112.748 8.30556 112.75 8.50487C112.756 8.64644 112.733 8.78779 112.684 8.92066C112.635 9.05354 112.56 9.17529 112.463 9.27883C112.373 9.3788 112.262 9.45763 112.139 9.50968C112.015 9.56172 111.881 9.58567 111.747 9.57982C111.618 9.57982 111.553 9.54399 111.553 9.47232C111.565 9.42509 111.587 9.38104 111.618 9.34333C111.758 9.13094 111.833 8.88157 111.833 8.6267C111.835 8.49704 111.807 8.36859 111.751 8.25162C111.695 8.13465 111.613 8.03241 111.51 7.95306C111.276 7.762 110.981 7.66041 110.679 7.6664C110.356 7.65947 110.039 7.74934 109.769 7.92439C109.507 8.10414 109.298 8.35189 109.167 8.64103C108.872 9.26281 108.727 9.94523 108.744 10.6333C108.721 11.3258 108.911 12.0087 109.288 12.5897C109.436 12.8379 109.646 13.0433 109.897 13.1854C110.149 13.3274 110.433 13.4012 110.722 13.3995C111.065 13.4225 111.408 13.3553 111.718 13.2044C112.027 13.0535 112.291 12.8243 112.485 12.5395C112.498 12.5331 112.513 12.5298 112.528 12.5298C112.543 12.5298 112.557 12.5331 112.571 12.5395C112.633 12.5501 112.691 12.5802 112.735 12.6255C112.807 12.6828 112.843 12.733 112.843 12.7688C112.853 12.8015 112.853 12.8365 112.843 12.8692C112.615 13.2322 112.298 13.5304 111.921 13.735C111.545 13.9396 111.122 14.0437 110.693 14.0373C110.283 14.0614 109.874 13.9861 109.499 13.8176C109.125 13.6491 108.797 13.3926 108.543 13.0698C108.049 12.3441 107.784 11.4863 107.784 10.6082C107.784 9.73003 108.049 8.87224 108.543 8.14655C108.799 7.82796 109.125 7.57244 109.495 7.39972C109.865 7.227 110.27 7.14171 110.679 7.15043Z" fill="#1A1A18"/>
<path d="M117.939 13.2551C118.047 13.4485 118.161 13.5417 118.283 13.5417C118.415 13.5381 118.543 13.493 118.649 13.4127L118.806 13.6779C118.701 13.7901 118.575 13.8803 118.435 13.943C118.294 14.0058 118.143 14.0399 117.989 14.0433C117.734 14.0501 117.482 13.9748 117.273 13.8284C117.054 13.6403 116.874 13.4115 116.742 13.1547L115.632 11.1052C115.525 10.9174 115.358 10.771 115.159 10.6895C115.159 10.6895 115.116 10.6465 115.116 10.5892C115.116 10.5318 115.173 10.367 115.302 10.367H115.524L116.771 8.50378C116.878 8.36154 116.945 8.19327 116.964 8.01647C116.953 7.86184 116.912 7.71091 116.843 7.57216L116.764 7.40733L116.936 7.25684H118.606L118.713 7.57216L118.505 7.62232C118.214 7.6981 117.96 7.87616 117.789 8.12396L116.126 10.5175C116.395 10.6447 116.618 10.8526 116.764 11.1123L117.939 13.2551ZM113.983 12.6889V8.53245C114.004 8.3287 113.962 8.1235 113.861 7.9448C113.739 7.80641 113.576 7.71093 113.396 7.67248L113.181 7.62232L113.295 7.307H115.309L115.431 7.4575L115.309 7.62232C115.162 7.81538 115.053 8.03412 114.987 8.26729C114.92 8.55866 114.889 8.85703 114.893 9.15591V12.7391C114.875 12.9157 114.904 13.0941 114.979 13.2551C115.1 13.3852 115.258 13.4753 115.431 13.513L115.624 13.5632L115.517 13.857H113.295L113.181 13.5489L113.396 13.4915C113.575 13.455 113.738 13.3621 113.861 13.2264C113.961 13.045 114.004 12.8376 113.983 12.6316" fill="#1A1A18"/>
<path d="M123.878 12.6684V8.91322L120.811 13.1342C120.835 13.2344 120.894 13.323 120.976 13.385C121.084 13.4609 121.205 13.5145 121.334 13.5427L121.528 13.5928L121.427 13.8866H119.17L119.062 13.5785L119.277 13.5212C119.457 13.4847 119.62 13.3918 119.743 13.256C119.839 13.0758 119.882 12.8719 119.865 12.6684V8.50474C119.882 8.30119 119.84 8.09702 119.743 7.9171C119.621 7.7787 119.458 7.68323 119.277 7.64478L119.062 7.59461L119.17 7.2793H121.191L121.306 7.42979L121.191 7.59461C121.039 7.78416 120.929 8.00407 120.868 8.23958C120.798 8.53035 120.767 8.82918 120.775 9.12821V12.1524L123.792 7.98159C123.672 7.80836 123.49 7.68781 123.283 7.64478L123.076 7.59461L123.183 7.2793H125.204L125.319 7.42979L125.204 7.59461C125.052 7.78416 124.942 8.00407 124.882 8.23958C124.811 8.53035 124.78 8.82918 124.788 9.12821V12.7114C124.773 12.904 124.81 13.0973 124.896 13.2703C125.016 13.4005 125.174 13.4905 125.347 13.5283L125.541 13.5785L125.441 13.8723H123.183L123.076 13.5642L123.283 13.5068C123.466 13.4723 123.632 13.3792 123.756 13.2417C123.852 13.0615 123.895 12.8575 123.878 12.654" fill="#1A1A18"/>
<path d="M130.645 6.29775C129.894 6.59398 129.059 6.59398 128.309 6.29775C128.184 6.2433 128.077 6.15439 128.001 6.04142C127.925 5.92846 127.882 5.79614 127.879 5.65995C127.877 5.56998 127.895 5.48067 127.932 5.39875C127.969 5.31682 128.025 5.24441 128.094 5.18697C128.223 5.07337 128.388 5.00979 128.56 5.00781C128.717 5.00781 128.803 5.05081 128.803 5.12964C128.782 5.18462 128.756 5.23742 128.724 5.2873C128.678 5.39107 128.654 5.5033 128.653 5.61695C128.653 5.95376 128.932 6.12576 129.484 6.12576C130.036 6.12576 130.308 5.96093 130.308 5.64561C130.312 5.52693 130.287 5.40912 130.237 5.30163C130.207 5.2469 130.183 5.18927 130.165 5.12964C130.165 5.05081 130.244 5.00781 130.409 5.00781C130.576 5.00931 130.737 5.07318 130.86 5.18697C130.929 5.24441 130.985 5.31682 131.022 5.39875C131.059 5.48067 131.077 5.56998 131.075 5.65995C131.071 5.79614 131.029 5.92846 130.953 6.04142C130.877 6.15439 130.77 6.2433 130.645 6.29775ZM130.874 12.6686V8.91346L127.807 13.1344C127.83 13.2354 127.888 13.3246 127.972 13.3852C128.08 13.4612 128.202 13.5148 128.33 13.5429L128.524 13.5931L128.423 13.8941H126.166L126.059 13.5787L126.266 13.5214C126.449 13.4868 126.615 13.3937 126.739 13.2563C126.835 13.076 126.878 12.8721 126.861 12.6686V8.50498C126.878 8.30143 126.836 8.09727 126.739 7.91734C126.615 7.77762 126.449 7.68203 126.266 7.64502L126.059 7.59485L126.166 7.27954H128.187L128.302 7.43003L128.187 7.59485C128.035 7.7844 127.925 8.00431 127.865 8.23982C127.794 8.5306 127.763 8.82942 127.771 9.12845V12.1455L130.788 7.98184C130.668 7.8086 130.486 7.68805 130.28 7.64502L130.072 7.59485L130.179 7.27954H132.179L132.293 7.43003L132.179 7.59485C132.026 7.7844 131.916 8.00431 131.856 8.23982C131.786 8.5306 131.755 8.82942 131.763 9.12845V12.7116C131.747 12.9042 131.784 13.0975 131.87 13.2706C131.991 13.4007 132.149 13.4908 132.322 13.5286L132.515 13.5787L132.415 13.8797H130.158L130.05 13.5644L130.258 13.5071C130.444 13.4794 130.615 13.3912 130.745 13.2563C130.841 13.076 130.884 12.8721 130.867 12.6686" fill="#1A1A18"/>
<path d="M114.958 17.1826H63.4395V17.3331H114.958V17.1826Z" fill="#1A1A18"/>
<path d="M63.9926 22.8939C64.0929 22.8939 64.1431 22.9369 64.1431 23.0372C64.1431 23.1376 64.0643 23.1949 63.9138 23.2594C63.7487 23.3335 63.6144 23.4627 63.534 23.6249L63.2115 24.2483C63.0883 24.529 62.924 24.7899 62.7242 25.0223C62.6512 25.0973 62.5627 25.1554 62.4649 25.1925C62.3671 25.2297 62.2624 25.245 62.158 25.2373C62.0233 25.2367 61.8902 25.2084 61.7669 25.1542C61.6436 25.0999 61.5328 25.0209 61.4414 24.922L61.5776 24.6998C61.6693 24.7669 61.7793 24.8044 61.8929 24.8073C61.9932 24.8073 62.0864 24.7285 62.1724 24.5708L62.7313 23.5245C62.8488 23.3023 63.0347 23.1239 63.2617 23.0157L62.373 21.69C62.2321 21.4789 62.0174 21.3281 61.7711 21.2672L61.5919 21.2242L61.6851 20.959H63.0395L63.1828 21.088L63.1183 21.2242C63.0545 21.3381 63.02 21.4662 63.018 21.5968C63.0281 21.7436 63.0832 21.8837 63.1757 21.9981L63.8063 22.9011H63.964L63.9926 22.8939ZM64.3223 24.105V21.9551C64.3355 21.7865 64.3007 21.6175 64.2219 21.4678C64.118 21.3531 63.9797 21.2752 63.8278 21.2457L63.6558 21.1955L63.7418 20.9375H65.4187L65.519 21.0522L65.4187 21.1955C65.3004 21.3635 65.2108 21.5499 65.1536 21.7473C65.0972 21.9819 65.0707 22.2227 65.0747 22.4639V24.148C65.0665 24.3125 65.0859 24.4772 65.1321 24.6353C65.1579 24.6827 65.1937 24.7239 65.237 24.756C65.2803 24.7882 65.3301 24.8106 65.3829 24.8216L65.5405 24.8718L65.4617 25.1155H63.7418L63.6558 24.8575L63.8278 24.8073C63.9797 24.7778 64.118 24.6998 64.2219 24.5852C64.3015 24.4357 64.3363 24.2665 64.3223 24.0978V24.105ZM67.1888 24.5708C67.2748 24.7285 67.368 24.8073 67.4683 24.8073C67.5819 24.8044 67.6919 24.7669 67.7836 24.6998L67.9198 24.922C67.8283 25.0209 67.7175 25.0999 67.5942 25.1542C67.471 25.2084 67.3378 25.2367 67.2031 25.2373C67.0979 25.2432 66.9926 25.2271 66.8939 25.1901C66.7952 25.1531 66.7052 25.096 66.6298 25.0223C66.4705 24.7817 66.3428 24.5216 66.25 24.2483L65.9275 23.6249C65.8383 23.471 65.6993 23.3522 65.5334 23.2881C65.3829 23.2236 65.3041 23.1447 65.3041 23.0516C65.3041 22.9584 65.3542 22.9226 65.4545 22.9226H65.6122L66.25 21.9981C66.3425 21.8837 66.3976 21.7436 66.4077 21.5968C66.4022 21.4667 66.3679 21.3394 66.3073 21.2242L66.25 21.088L66.3933 20.959H67.7478L67.8338 21.2242L67.6618 21.2672C67.4136 21.324 67.1975 21.4758 67.0598 21.69L66.1712 23.0157C66.3981 23.1239 66.5841 23.3023 66.7015 23.5245L67.1888 24.5708Z" fill="#1A1A18"/>
<path d="M71.8464 24.0978V22.2346L69.8327 24.4992C69.8742 24.5841 69.9357 24.6578 70.0118 24.7139C70.0879 24.7701 70.1764 24.807 70.2699 24.8216L70.4275 24.8718L70.3487 25.1155H68.4496L68.3564 24.8575L68.5356 24.8073C68.685 24.7763 68.8205 24.6985 68.9226 24.5851C69.0084 24.4379 69.046 24.2675 69.0301 24.0978V21.9838C69.046 21.8118 69.0085 21.6391 68.9226 21.4893C68.8205 21.3759 68.685 21.2981 68.5356 21.2671L68.3564 21.217L68.4496 20.959H70.1337L70.2269 21.0736L70.1337 21.217C70.0123 21.3789 69.9201 21.5608 69.8614 21.7544C69.8091 21.9896 69.785 22.2302 69.7897 22.4711V23.8613L71.7963 21.5968C71.7517 21.512 71.6886 21.4383 71.6117 21.3813C71.5348 21.3242 71.446 21.2852 71.352 21.2671L71.1728 21.217L71.266 20.959H72.9501L73.0504 21.0736L72.9501 21.217C72.8306 21.3791 72.7409 21.561 72.6849 21.7544C72.6297 21.9893 72.6033 22.2299 72.6061 22.4711V24.148C72.5899 24.3091 72.6223 24.4713 72.6992 24.6138C72.7995 24.7193 72.9295 24.7918 73.0719 24.8216L73.2367 24.8718L73.1507 25.1155H71.266L71.1728 24.8575L71.352 24.8073C71.5039 24.7778 71.6422 24.6998 71.7461 24.5851C71.8257 24.4357 71.8605 24.2665 71.8464 24.0978Z" fill="#1A1A18"/>
<path d="M77.4722 22.5069V24.148C77.4604 24.3088 77.4926 24.4699 77.5654 24.6138C77.6653 24.7234 77.799 24.7966 77.9452 24.8216L78.1029 24.8646L78.0169 25.1155H76.1393L76.0461 24.8575L76.2181 24.8073C76.371 24.7758 76.5094 24.6953 76.6123 24.578C76.6942 24.4294 76.7292 24.2595 76.7126 24.0907V21.9909C76.7327 21.8274 76.7 21.6617 76.6194 21.518C76.5642 21.4719 76.5 21.438 76.4309 21.4182C76.3618 21.3985 76.2893 21.3934 76.2181 21.4033H75.8956C75.7728 21.3963 75.65 21.4184 75.5373 21.4678C75.4951 21.4917 75.4609 21.5276 75.4392 21.571C75.4175 21.6144 75.4092 21.6633 75.4155 21.7115C75.4217 22.2623 75.3906 22.813 75.3223 23.3597C75.2876 23.7127 75.2155 24.061 75.1073 24.3988C75.0397 24.6018 74.9325 24.7893 74.792 24.9506C74.7038 25.0577 74.5906 25.1413 74.4624 25.1943C74.3625 25.2246 74.2585 25.2391 74.1542 25.2373C73.9317 25.251 73.7128 25.1763 73.5451 25.0295C73.4761 24.9637 73.4209 24.8848 73.3827 24.7974C73.3446 24.7101 73.3242 24.616 73.3229 24.5206C73.3134 24.3438 73.3453 24.1671 73.4161 24.0047C73.4377 23.9434 73.4773 23.8901 73.5298 23.8517C73.5822 23.8134 73.645 23.7918 73.7099 23.7897C73.7816 23.7897 73.8317 23.8685 73.8532 24.0262C73.8747 24.1838 73.9177 24.2698 73.9321 24.3343C73.9463 24.3944 73.98 24.4481 74.028 24.487C74.076 24.5259 74.1355 24.5478 74.1972 24.5493C74.448 24.5493 74.6129 24.3128 74.6989 23.8327C74.8077 23.196 74.8581 22.5508 74.8493 21.9049C74.8605 21.7451 74.841 21.5845 74.792 21.432C74.7198 21.3438 74.6179 21.2852 74.5054 21.2671L74.3334 21.2241L74.4194 20.959H77.809L77.9094 21.0808L77.809 21.2241C77.687 21.3846 77.5969 21.5671 77.5439 21.7616C77.4889 21.9964 77.4624 22.2371 77.4651 22.4782" fill="#1A1A18"/>
<path d="M80.9338 25.2384C80.6433 25.2515 80.3532 25.2056 80.0809 25.1034C79.8087 25.0011 79.5601 24.8447 79.35 24.6436C79.1475 24.4305 78.9909 24.178 78.8898 23.9019C78.7887 23.6258 78.7454 23.3319 78.7624 23.0384C78.7464 22.746 78.7902 22.4535 78.8913 22.1787C78.9923 21.9039 79.1484 21.6526 79.35 21.4403C79.7889 21.0605 80.3499 20.8516 80.9302 20.8516C81.5106 20.8516 82.0715 21.0605 82.5104 21.4403C82.712 21.6526 82.8681 21.9039 82.9692 22.1787C83.0702 22.4535 83.1141 22.746 83.098 23.0384C83.115 23.3319 83.0717 23.6258 82.9706 23.9019C82.8695 24.178 82.7129 24.4305 82.5104 24.6436C82.3012 24.8438 82.0537 24.9997 81.7828 25.1019C81.5119 25.2041 81.2231 25.2506 80.9338 25.2384ZM82.2166 23.0885C82.219 22.8295 82.1852 22.5714 82.1162 22.3217C82.0469 22.0521 81.9086 21.8051 81.7149 21.6051C81.6186 21.5007 81.5009 21.4185 81.3697 21.3641C81.2386 21.3096 81.0972 21.2843 80.9553 21.2898C80.7686 21.2861 80.5838 21.3287 80.4175 21.4137C80.2512 21.4987 80.1085 21.6236 80.0022 21.7771C79.7437 22.1507 79.6153 22.5989 79.6367 23.0527C79.609 23.4996 79.7299 23.943 79.9807 24.314C80.0811 24.4639 80.218 24.5859 80.3784 24.6686C80.5388 24.7514 80.7176 24.7921 80.898 24.7869C81.0832 24.791 81.2667 24.7501 81.4327 24.6677C81.5987 24.5853 81.7423 24.464 81.8511 24.314C82.1094 23.9511 82.2381 23.5119 82.2166 23.067" fill="#1A1A18"/>
<path d="M87.1684 24.0976V22.2271L85.1475 24.4989C85.1905 24.6422 85.3338 24.7497 85.5846 24.8214L85.7423 24.8715L85.6563 25.1152H83.7715L83.6855 24.8572L83.8575 24.807C84.0095 24.7775 84.1477 24.6995 84.2517 24.5849C84.3305 24.4352 84.3653 24.2662 84.352 24.0976V21.9477C84.3653 21.779 84.3305 21.61 84.2517 21.4603C84.1477 21.3457 84.0095 21.2677 83.8575 21.2382L83.6855 21.188L83.7715 20.93H85.4556L85.556 21.0447L85.4556 21.188C85.3346 21.3518 85.2448 21.5364 85.1905 21.7327C85.1341 21.9673 85.1077 22.2081 85.1116 22.4493V23.8611L87.1182 21.5965C87.0761 21.5113 87.0147 21.437 86.9388 21.3798C86.8629 21.3226 86.7746 21.2839 86.6811 21.2669L86.5019 21.2167L86.5951 20.9587H88.2792L88.3723 21.0734L88.2792 21.2167C88.1562 21.3803 88.0639 21.5648 88.0068 21.7613C87.9536 21.9964 87.9295 22.2371 87.9352 22.478V24.1477C87.919 24.3088 87.9514 24.4711 88.0283 24.6135C88.1286 24.719 88.2586 24.7915 88.401 24.8214L88.5586 24.8715L88.4798 25.1152H86.5951L86.5019 24.8572L86.6811 24.807C86.8304 24.776 86.966 24.6982 87.0681 24.5849C87.15 24.4363 87.185 24.2664 87.1684 24.0976ZM87.0896 20.1489C86.7885 20.2945 86.4562 20.3635 86.1221 20.3496C85.7926 20.3638 85.4648 20.2948 85.169 20.1489C85.0623 20.0943 84.9729 20.0111 84.9109 19.9086C84.8489 19.806 84.8167 19.6883 84.8178 19.5684C84.8155 19.4882 84.8302 19.4083 84.8611 19.3342C84.892 19.26 84.9383 19.1933 84.997 19.1385C85.0956 19.038 85.2289 18.979 85.3696 18.9736C85.5058 18.9736 85.5703 18.9736 85.5703 19.0883C85.5573 19.1383 85.5381 19.1865 85.513 19.2316C85.4747 19.3248 85.4552 19.4247 85.4556 19.5254C85.4556 19.8336 85.685 19.9912 86.1723 19.9912C86.6596 19.9912 86.8459 19.8408 86.8459 19.5541C86.8486 19.4455 86.8265 19.3376 86.7814 19.2388C86.7456 19.1456 86.7241 19.0955 86.7241 19.0883C86.7241 19.0811 86.7886 18.9736 86.9247 18.9736C87.0654 18.979 87.1987 19.038 87.2974 19.1385C87.3572 19.1924 87.4043 19.259 87.4352 19.3333C87.4662 19.4077 87.4803 19.488 87.4765 19.5684C87.4777 19.6883 87.4455 19.806 87.3834 19.9086C87.3214 20.0111 87.2321 20.0943 87.1254 20.1489" fill="#1A1A18"/>
<path d="M92.8297 21.34C92.9849 21.1763 93.1715 21.0456 93.3784 20.9558C93.5852 20.8659 93.8081 20.8186 94.0337 20.8169C94.2893 20.8034 94.5448 20.8458 94.7825 20.9411C95.0201 21.0364 95.2341 21.1823 95.4096 21.3687C95.7542 21.8058 95.9275 22.3537 95.8969 22.9095C95.9164 23.4959 95.7371 24.0717 95.3881 24.5434C95.2204 24.761 95.0023 24.9347 94.7527 25.0495C94.503 25.1644 94.2293 25.2169 93.9548 25.2027C93.6608 25.2134 93.3705 25.1333 93.1235 24.9734C93.099 24.9568 93.0789 24.9343 93.0652 24.908C93.0514 24.8818 93.0444 24.8525 93.0447 24.8229C93.0447 24.6867 93.0877 24.615 93.1737 24.615L93.36 24.6795C93.4911 24.7266 93.6293 24.7508 93.7685 24.7512C93.9469 24.7532 94.1226 24.7087 94.2785 24.622C94.4343 24.5352 94.5648 24.4093 94.6571 24.2567C94.8956 23.8912 95.0134 23.4601 94.994 23.0241C95.0108 22.6106 94.8981 22.2022 94.6715 21.856C94.5728 21.7143 94.4408 21.599 94.2871 21.5202C94.1334 21.4415 93.9627 21.4018 93.79 21.4045C93.4427 21.4007 93.1043 21.5144 92.8297 21.727V26.4138C92.8175 26.5678 92.842 26.7226 92.9014 26.8653C92.9321 26.9137 92.9731 26.9548 93.0213 26.9857C93.0696 27.0166 93.1241 27.0367 93.1809 27.0444L93.3529 27.0874L93.2597 27.3454H91.8264L91.7261 27.2164L91.8264 27.0874C92.0086 26.7576 92.0861 26.3802 92.0486 26.0053V21.9277C92.0486 21.7772 91.9913 21.684 91.8766 21.6553L91.4395 21.5622V21.2899C91.593 21.1819 91.7657 21.1041 91.9483 21.0605C92.1599 20.996 92.3792 20.9599 92.6004 20.953C92.7366 20.953 92.8082 21.082 92.8082 21.34" fill="#1A1A18"/>
<path d="M98.0528 25.2381C97.8481 25.2403 97.6457 25.1949 97.4616 25.1053C97.2775 25.0158 97.1168 24.8846 96.9922 24.7221C96.6696 24.2706 96.515 23.7205 96.5551 23.167C96.5262 22.5574 96.7371 21.9606 97.1427 21.5044C97.3457 21.2915 97.5923 21.1248 97.8656 21.016C98.139 20.9071 98.4326 20.8586 98.7264 20.8738C99.0127 20.8827 99.2978 20.9139 99.5792 20.967C99.9591 21.0315 100.231 21.0673 100.396 21.0816L100.489 21.1891L100.389 21.3396C100.322 21.437 100.285 21.5514 100.282 21.6693V24.4068C100.282 24.5788 100.36 24.6648 100.532 24.6648C100.683 24.6597 100.829 24.607 100.948 24.5143L101.106 24.7293C100.997 24.8775 100.859 25.0012 100.7 25.0926C100.54 25.1839 100.364 25.2408 100.181 25.2596C100.087 25.2684 99.9928 25.2533 99.9063 25.2157C99.8199 25.1781 99.7443 25.1192 99.6867 25.0446C99.5699 24.8404 99.5174 24.6056 99.5362 24.371C99.3816 24.6301 99.1651 24.8468 98.9063 25.0019C98.6474 25.1569 98.3542 25.2455 98.0528 25.2596V25.2381ZM97.7805 21.7696C97.5391 22.1442 97.4236 22.5861 97.4508 23.0309C97.4169 23.4437 97.5121 23.8569 97.7232 24.2133C97.796 24.3283 97.8964 24.4233 98.0153 24.4897C98.1342 24.556 98.2678 24.5916 98.404 24.5931C98.647 24.5828 98.8826 24.5058 99.0848 24.3706C99.2871 24.2353 99.4482 24.0471 99.5506 23.8263V21.5689C99.3089 21.4003 99.0211 21.3102 98.7264 21.311C98.5431 21.3027 98.3605 21.3403 98.1953 21.4204C98.0302 21.5005 97.8876 21.6205 97.7805 21.7696Z" fill="#1A1A18"/>
<path d="M105.013 24.0976V22.2271L102.992 24.4989C103.035 24.6422 103.179 24.7497 103.429 24.8214L103.587 24.8715L103.501 25.1152H101.616L101.53 24.8572L101.702 24.807C101.854 24.7775 101.992 24.6995 102.096 24.5849C102.175 24.4352 102.21 24.2662 102.197 24.0976V21.9477C102.21 21.779 102.175 21.61 102.096 21.4603C101.992 21.3457 101.854 21.2677 101.702 21.2382L101.53 21.188L101.616 20.93H103.3L103.401 21.0447L103.3 21.188C103.179 21.3518 103.089 21.5364 103.035 21.7327C102.979 21.9673 102.952 22.2081 102.956 22.4493V23.8611L104.949 21.5965C104.906 21.5104 104.843 21.4356 104.766 21.3783C104.689 21.321 104.599 21.2828 104.504 21.2669L104.332 21.2167L104.425 20.9587H106.102L106.203 21.0734L106.102 21.2167C105.984 21.3822 105.895 21.5663 105.837 21.7613C105.784 21.9964 105.76 22.2371 105.766 22.478V24.1477C105.752 24.3079 105.781 24.4689 105.852 24.6135C105.956 24.7178 106.087 24.79 106.231 24.8214L106.389 24.8715L106.303 25.1152H104.44L104.347 24.8572L104.519 24.807C104.671 24.7775 104.809 24.6995 104.913 24.5849C104.995 24.4363 105.03 24.2664 105.013 24.0976ZM104.949 20.1489C104.648 20.2945 104.315 20.3635 103.981 20.3496C103.652 20.3638 103.324 20.2948 103.028 20.1489C102.921 20.095 102.831 20.0119 102.769 19.9092C102.707 19.8066 102.675 19.6884 102.677 19.5684C102.675 19.4882 102.689 19.4083 102.72 19.3342C102.751 19.26 102.797 19.1933 102.856 19.1385C102.955 19.038 103.088 18.979 103.229 18.9736C103.365 18.9736 103.429 18.9736 103.429 19.0883C103.416 19.1383 103.397 19.1865 103.372 19.2316C103.334 19.3248 103.314 19.4247 103.315 19.5254C103.315 19.8336 103.544 19.9912 104.031 19.9912C104.519 19.9912 104.705 19.8408 104.705 19.5541C104.708 19.4455 104.686 19.3376 104.64 19.2388C104.64 19.1456 104.583 19.0955 104.583 19.0883C104.583 19.0811 104.648 18.9736 104.784 18.9736C104.924 18.979 105.058 19.038 105.156 19.1385C105.215 19.1933 105.261 19.26 105.292 19.3342C105.323 19.4083 105.338 19.4882 105.336 19.5684C105.337 19.6883 105.305 19.806 105.243 19.9086C105.18 20.0111 105.091 20.0943 104.984 20.1489" fill="#1A1A18"/>
<path d="M109.251 25.2379C108.96 25.251 108.67 25.2051 108.398 25.1028C108.126 25.0006 107.877 24.8442 107.667 24.6431C107.472 24.4261 107.321 24.1725 107.224 23.897C107.127 23.6215 107.085 23.3295 107.101 23.0378C107.085 22.7455 107.129 22.4529 107.23 22.1781C107.331 21.9033 107.487 21.6521 107.689 21.4397C108.129 21.0609 108.691 20.8525 109.272 20.8525C109.854 20.8525 110.416 21.0609 110.856 21.4397C111.05 21.6556 111.198 21.9084 111.292 22.1831C111.386 22.4577 111.423 22.7485 111.401 23.0378C111.416 23.3305 111.372 23.6232 111.272 23.8989C111.172 24.1745 111.019 24.4275 110.82 24.6431C110.61 24.8442 110.362 25.0006 110.089 25.1028C109.817 25.2051 109.527 25.251 109.237 25.2379H109.251ZM110.527 23.088C110.525 22.8292 110.492 22.5716 110.426 22.3212C110.354 22.0528 110.216 21.8065 110.025 21.6046C109.926 21.4995 109.806 21.4169 109.672 21.3625C109.539 21.3081 109.395 21.2831 109.251 21.2893C109.064 21.2862 108.88 21.329 108.714 21.414C108.547 21.499 108.405 21.6235 108.298 21.7766C108.066 22.1589 107.943 22.5977 107.943 23.045C107.943 23.4923 108.066 23.9311 108.298 24.3134C108.4 24.463 108.539 24.5846 108.7 24.6672C108.862 24.7498 109.041 24.7908 109.222 24.7864C109.406 24.7899 109.589 24.7487 109.753 24.6663C109.918 24.584 110.061 24.4629 110.168 24.3134C110.432 23.953 110.564 23.5126 110.541 23.0665" fill="#1A1A18"/>
<path d="M115.425 24.0978V23.288H113.411V24.148C113.399 24.3088 113.431 24.4699 113.504 24.6138C113.604 24.7234 113.738 24.7966 113.884 24.8216L114.041 24.8718L113.955 25.1155H112.114L112.021 24.8575L112.192 24.8073C112.344 24.7778 112.483 24.6998 112.587 24.5851C112.669 24.4369 112.705 24.2667 112.687 24.0978V21.9838C112.705 21.8126 112.67 21.6401 112.587 21.4893C112.483 21.3746 112.344 21.2967 112.192 21.2671L112.021 21.217L112.114 20.959H113.783L113.884 21.0736L113.783 21.217C113.661 21.3774 113.571 21.5599 113.518 21.7544C113.463 21.9893 113.437 22.2299 113.439 22.4711V22.7577H115.453V21.9838C115.467 21.8128 115.432 21.6414 115.353 21.4893C115.249 21.3746 115.111 21.2967 114.959 21.2671L114.78 21.217L114.873 20.959H116.542L116.643 21.0736L116.542 21.217C116.423 21.3791 116.333 21.561 116.277 21.7544C116.225 21.9896 116.201 22.2302 116.206 22.4711V24.148C116.192 24.3082 116.222 24.469 116.292 24.6138C116.392 24.7234 116.525 24.7966 116.671 24.8216L116.829 24.8718L116.75 25.1155H114.873L114.78 24.8575L114.959 24.8073C115.111 24.7778 115.249 24.6998 115.353 24.5851C115.432 24.4357 115.467 24.2665 115.453 24.0978" fill="#1A1A18"/>
<defs>
<linearGradient id="paint0_linear_695:77" x1="21.5146" y1="0" x2="21.5146" y2="31" gradientUnits="userSpaceOnUse">
<stop stop-color="#2F307D"/>
<stop offset="1" stop-color="#D43677"/>
</linearGradient>
</defs>
</svg>
