<svg width="48" height="48" viewBox="0 0 48 48" fill="none" xmlns="http://www.w3.org/2000/svg">
<circle cx="24" cy="24" r="24" fill="#919CA2"/>
<path d="M23.9641 22.6221C23.9641 22.7072 24.0066 22.7923 24.0226 22.8827C24.0383 22.9222 24.0401 22.9659 24.0275 23.0065C24.0149 23.0472 23.9888 23.0823 23.9535 23.106C23.8365 22.9996 23.8418 22.8401 23.9535 22.6221L23.8205 22.6753C23.7707 22.7007 23.7166 22.7169 23.661 22.7232C23.6676 22.706 23.6765 22.6899 23.6876 22.6753C23.7302 22.6115 23.794 22.569 23.7886 22.4626C23.7833 22.3563 23.879 22.3031 23.9428 22.2127L24.0864 22.4307C24.0864 22.4307 24.0864 22.4786 24.0864 22.4839C24.0864 22.4892 24.0864 22.5796 24.1236 22.6168L24.214 22.7338C24.0811 22.7338 24.0173 22.6487 23.9322 22.6168L23.9641 22.6221ZM39.7714 12.8124C39.6815 12.698 39.6131 12.5683 39.5694 12.4295C39.5311 12.2943 39.4458 12.1771 39.3288 12.0991C39.2119 12.0211 39.0709 11.9875 38.9313 12.0042C38.7454 12.0147 38.564 12.0655 38.3996 12.1531C38.1232 12.2913 37.8679 12.4508 37.5915 12.6156C37.315 12.7805 37.1608 12.9081 36.9481 13.0623C36.9235 13.087 36.8915 13.103 36.8569 13.1078C36.8223 13.1126 36.7871 13.106 36.7567 13.0888C36.6475 13.0445 36.5357 13.0072 36.4217 12.9772C36.2289 12.919 36.0259 12.9027 35.8262 12.9293C35.7491 12.936 35.6762 12.9676 35.6186 13.0195C35.5611 13.0713 35.5219 13.1404 35.5072 13.2164C35.4879 13.2801 35.4487 13.336 35.3956 13.376L34.614 14.0406C34.5236 14.1203 34.4226 14.1841 34.3268 14.2533C34.3694 14.1735 34.4172 14.0991 34.4545 14.014C34.4897 13.9411 34.5164 13.8644 34.5342 13.7854C34.5342 13.7003 34.5342 13.6578 34.4226 13.6524C34.3368 13.6534 34.2514 13.6623 34.1673 13.679C34.0769 13.679 33.9919 13.7269 33.8802 13.7588L34.1301 13.3653V13.3334C34.0663 13.3334 33.9972 13.3653 33.9334 13.3919L32.7371 13.9236C32.6772 13.9521 32.615 13.9753 32.551 13.9927C32.1046 14.1251 31.6387 14.1791 31.1739 14.1522H30.9293L31.2217 14.4447L31.0463 14.5935C30.8925 14.7462 30.6924 14.8434 30.4774 14.87C30.3187 14.9043 30.1637 14.9542 30.0148 15.0189L29.8819 15.0774L29.8659 15.0561V15.0295C29.7809 14.9179 29.7277 14.9126 29.6426 15.0295C29.5575 15.1465 29.5522 15.189 29.5044 15.2688L29.3608 15.5559C29.3608 15.6091 29.297 15.641 29.2385 15.5931C29.2385 15.7367 29.2385 15.8802 29.2013 16.0238C29.1879 16.2343 29.1337 16.4401 29.0418 16.6299C28.9567 16.7788 28.8344 16.7841 28.7494 16.6299C28.6887 16.5198 28.6439 16.4017 28.6164 16.279C28.6164 16.1886 28.6164 16.0929 28.5792 15.9866L28.425 16.0876C28.2868 16.1727 28.1485 16.2631 28.005 16.3428C27.9495 16.3804 27.8858 16.4043 27.8193 16.4126C27.7528 16.421 27.6852 16.4134 27.6222 16.3907L27.5211 16.7363V16.8054C27.3882 16.8054 27.4148 16.9277 27.3829 16.9968C27.2447 17.353 27.1224 17.7093 26.9788 18.0602C26.8823 18.3021 26.7496 18.528 26.5854 18.7301C26.5144 18.8317 26.4218 18.9163 26.3142 18.9779C26.2067 19.0395 26.0868 19.0765 25.9633 19.0864C26.0537 19.1608 26.16 19.2299 26.2451 19.315C26.3202 19.3854 26.3733 19.4762 26.3979 19.5763C26.4224 19.6763 26.4174 19.7814 26.3833 19.8786C26.3361 20.0149 26.2577 20.1384 26.1543 20.239C26.0509 20.3396 25.9254 20.4147 25.7878 20.4581C25.5486 20.5379 25.4316 20.4209 25.4582 20.1976C25.4582 20.1976 25.4582 20.1498 25.4582 20.1338C25.4419 20.0916 25.4223 20.0507 25.3997 20.0115H25.3625C25.3599 20.054 25.3599 20.0966 25.3625 20.1391C25.3625 20.272 25.3625 20.405 25.3625 20.5379C25.3625 20.6708 25.3625 20.9048 25.3944 21.0696C25.2873 21.0945 25.187 21.1427 25.1007 21.2107C25.0143 21.2787 24.9439 21.3648 24.8946 21.463C24.8694 21.512 24.8614 21.568 24.8721 21.6221C24.8827 21.6761 24.9112 21.725 24.9531 21.7608C25.0225 21.8267 25.1036 21.879 25.1923 21.915C25.2872 21.9457 25.3854 21.9653 25.4848 21.9735V22.0532C25.4848 22.0532 25.4529 22.0532 25.4475 22.0532C25.3146 22.0532 25.187 22.0001 25.0541 21.9735C24.9788 21.9444 24.8954 21.9444 24.8201 21.9735C24.7576 21.9993 24.691 22.0137 24.6234 22.016C24.6553 22.1064 24.5702 22.1489 24.533 22.2021C24.3735 22.2021 24.2938 21.9841 24.1183 22.0958C24.0385 22.016 24.0385 22.016 23.9109 22.0958C23.8525 22.016 23.794 22.0585 23.7461 22.0958C23.6892 22.1533 23.614 22.189 23.5334 22.1968C23.4749 22.133 23.3952 22.0851 23.443 22.0054C23.3723 22.0005 23.3026 21.9862 23.2357 21.9628C23.1986 21.9473 23.1589 21.9394 23.1187 21.9394C23.0785 21.9394 23.0388 21.9473 23.0017 21.9628L22.6136 22.0426C22.6136 22.0426 22.6136 22.0426 22.5764 22.0426C22.5738 22.0125 22.5738 21.9823 22.5764 21.9522H22.704C22.8475 21.9375 22.982 21.8758 23.0868 21.7767C23.1354 21.7364 23.1684 21.6802 23.1801 21.6181C23.1917 21.556 23.1813 21.4917 23.1506 21.4365C23.0439 21.253 22.8706 21.1178 22.6668 21.059C22.6668 21.0058 22.6668 20.942 22.6668 20.8729C22.6668 20.6442 22.6934 20.4103 22.7093 20.1817C22.7198 20.1073 22.7028 20.0317 22.6615 19.969C22.6322 20.0167 22.6107 20.0687 22.5977 20.1232C22.5977 20.1551 22.5977 20.1923 22.5977 20.2295C22.5977 20.405 22.5073 20.4847 22.3318 20.4581C22.2718 20.45 22.214 20.4301 22.1617 20.3996C22.0528 20.3411 21.9526 20.2677 21.8639 20.1817C21.7864 20.123 21.7239 20.0466 21.6818 19.959C21.6396 19.8713 21.619 19.7749 21.6216 19.6777C21.6242 19.5805 21.6499 19.4853 21.6967 19.4C21.7435 19.3147 21.8099 19.2418 21.8905 19.1874L22.0394 19.0864C21.9093 19.0912 21.7802 19.063 21.664 19.0044C21.5478 18.9458 21.4483 18.8588 21.3748 18.7514C21.276 18.6404 21.192 18.5171 21.1249 18.3845C20.9919 18.1187 20.8696 17.8528 20.758 17.5763C20.6463 17.2999 20.5985 17.1244 20.5187 16.8958C20.5049 16.8646 20.4889 16.8344 20.4709 16.8054C20.3964 16.8692 20.4071 16.7788 20.3964 16.7575C20.3592 16.6352 20.322 16.513 20.2901 16.3907C20.2448 16.4195 20.1923 16.4349 20.1386 16.4349C20.0849 16.4349 20.0323 16.4195 19.987 16.3907C19.8009 16.295 19.6308 16.1886 19.4553 16.0823L19.3171 15.9866C19.3229 16.0485 19.3229 16.1108 19.3171 16.1727C19.2923 16.3117 19.2568 16.4486 19.2108 16.5821C19.1842 16.6671 19.131 16.7469 19.03 16.7469C18.929 16.7469 18.8705 16.6565 18.8439 16.5714C18.7985 16.4305 18.763 16.2866 18.7375 16.1408C18.7056 15.9653 18.7003 15.7845 18.6791 15.6091C18.5834 15.6516 18.5568 15.5825 18.5249 15.5293C18.4451 15.3804 18.376 15.2209 18.2909 15.0774C18.2058 14.9338 18.1314 14.9232 18.0251 15.0774L17.8762 15.0083C17.7315 14.9446 17.5798 14.8982 17.4243 14.87C17.2809 14.8488 17.1431 14.7993 17.019 14.7245C16.8949 14.6497 16.7868 14.5509 16.7012 14.434C16.765 14.3171 16.8979 14.2745 16.9404 14.1522H16.765C16.1498 14.2001 15.533 14.0826 14.9785 13.8119C14.8562 13.7428 14.7286 13.6897 14.6063 13.6312L13.9895 13.3547C13.9623 13.3411 13.9322 13.334 13.9018 13.334C13.8713 13.334 13.8413 13.3411 13.814 13.3547L14.0533 13.7269C13.9934 13.7362 13.9324 13.7362 13.8725 13.7269C13.7695 13.701 13.6646 13.6832 13.5588 13.6737C13.4259 13.6737 13.3781 13.7375 13.4206 13.8598C13.4631 13.9821 13.5163 14.0618 13.5641 14.1682C13.585 14.2038 13.6028 14.2412 13.6173 14.2798C13.5219 14.2445 13.4336 14.1923 13.3568 14.1256L12.4848 13.3813C12.4558 13.3541 12.4355 13.3189 12.4263 13.2803C12.4118 13.1826 12.3612 13.0939 12.2843 13.0318C12.2075 12.9698 12.1101 12.9389 12.0116 12.9453C11.7502 12.93 11.4891 12.9793 11.2513 13.0888C11.1923 13.1159 11.1268 13.1253 11.0626 13.1159C10.9984 13.1065 10.9384 13.0786 10.8897 13.0357C10.5441 12.7911 10.1932 12.5571 9.82633 12.3285C9.61384 12.1955 9.38001 12.1002 9.13513 12.0467C9.04787 12.0178 8.95547 12.0078 8.86404 12.0173C8.77262 12.0269 8.68426 12.0557 8.60483 12.1019C8.5254 12.1482 8.4567 12.2108 8.4033 12.2856C8.34989 12.3604 8.31299 12.4457 8.29505 12.5359C8.27018 12.6281 8.22473 12.7136 8.16212 12.7858C8.07733 12.8795 8.02283 12.9967 8.00575 13.1219C7.98868 13.2471 8.00982 13.3746 8.06642 13.4876C8.0991 13.5684 8.14393 13.6437 8.19934 13.7109C8.33796 13.8814 8.49094 14.0398 8.6566 14.1841C8.92245 14.3915 9.18829 14.567 9.48604 14.7584L9.61365 14.8434C9.5986 14.8502 9.58229 14.8537 9.5658 14.8537C9.54931 14.8537 9.533 14.8502 9.51795 14.8434L9.06601 14.6892C9.03671 14.675 9.0032 14.672 8.97183 14.6808C8.94046 14.6896 8.91343 14.7097 8.89586 14.7371C8.80748 14.8386 8.74702 14.9614 8.7204 15.0933C8.6659 15.33 8.66334 15.5756 8.71291 15.8134C8.76247 16.0511 8.86298 16.2753 9.00752 16.4704C9.04286 16.5246 9.09086 16.5694 9.14736 16.6009C9.20387 16.6324 9.26718 16.6496 9.33185 16.6512L9.21488 16.9011C9.14172 17.0241 9.08115 17.1541 9.0341 17.2892C9.00755 17.3438 8.99299 17.4035 8.99141 17.4642C8.98983 17.5249 9.00126 17.5852 9.02493 17.6411C9.04861 17.697 9.08397 17.7472 9.12866 17.7883C9.17334 17.8294 9.22631 17.8605 9.284 17.8794C9.37929 17.9177 9.47697 17.9496 9.57643 17.9751C9.64024 17.9751 9.70404 17.9751 9.76784 18.023C10.0443 18.1187 10.2995 18.2303 10.592 18.3154C10.8844 18.4005 11.2566 18.4802 11.5862 18.56C11.6447 18.56 11.7085 18.5919 11.7617 18.5334C11.8149 18.4749 11.7351 18.4749 11.7138 18.4217C11.8787 18.5866 11.8787 18.6929 11.7138 18.8152C11.6165 18.8901 11.5113 18.9543 11.4001 19.0066C11.2087 19.1076 11.012 19.1927 10.8206 19.2937C10.721 19.3439 10.6281 19.4064 10.5441 19.4798C10.5132 19.4975 10.4875 19.523 10.4696 19.5538C10.4517 19.5846 10.4423 19.6196 10.4423 19.6553C10.4423 19.6909 10.4517 19.7259 10.4696 19.7567C10.4875 19.7875 10.5132 19.8131 10.5441 19.8307C10.6326 19.9006 10.7269 19.9629 10.8259 20.0168C10.911 20.061 10.9897 20.1164 11.0599 20.1817C11.2153 20.3674 11.3804 20.5448 11.5543 20.7134C11.8496 21.0355 12.2349 21.2615 12.6603 21.362C12.7772 21.3939 12.8995 21.4258 13.0112 21.4684C13.2132 21.5375 13.2664 21.6279 13.2239 21.8299C13.2239 21.9043 13.2239 21.9575 13.2824 21.9841C13.3937 22.0462 13.5138 22.0911 13.6386 22.117C13.8304 22.1456 14.0242 22.1581 14.2181 22.1542C14.381 22.1511 14.5425 22.1838 14.6913 22.2499C14.7924 22.2925 14.803 22.3457 14.7286 22.4307L14.6275 22.5264C14.5903 22.5636 14.5478 22.6009 14.5106 22.6434C14.4884 22.6613 14.4705 22.684 14.4582 22.7098C14.4458 22.7355 14.4395 22.7637 14.4395 22.7923C14.4395 22.8208 14.4458 22.849 14.4582 22.8748C14.4705 22.9005 14.4884 22.9232 14.5106 22.9412C14.5815 22.9991 14.6561 23.0524 14.7339 23.1007L14.8296 23.1698C14.6382 23.324 14.6169 23.3825 14.6648 23.5579C14.6846 23.6194 14.7076 23.6797 14.7339 23.7387C14.7339 23.7812 14.7711 23.8238 14.7924 23.8823L14.6382 23.8504C14.6712 23.9018 14.7013 23.9551 14.7286 24.0099C14.7654 24.0747 14.7847 24.148 14.7847 24.2225C14.7847 24.2971 14.7654 24.3704 14.7286 24.4352C14.6685 24.5462 14.5815 24.6404 14.4756 24.7092C14.3697 24.7779 14.2483 24.819 14.1224 24.8287C13.931 24.8287 13.8725 24.7542 13.9523 24.5735C13.9523 24.5735 13.9842 24.5309 13.9842 24.5097C13.9897 24.4798 13.9897 24.4491 13.9842 24.4193C13.851 24.6762 13.7373 24.9428 13.6439 25.2168C13.5277 25.2083 13.4118 25.2382 13.3143 25.3019C13.2633 25.3252 13.2202 25.3627 13.19 25.4098C13.1597 25.4569 13.1436 25.5117 13.1436 25.5677C13.1436 25.6237 13.1597 25.6785 13.19 25.7257C13.2202 25.7728 13.2633 25.8102 13.3143 25.8336L13.4312 25.9027C13.394 25.9878 13.3621 26.0675 13.3249 26.1473L13.4312 26.2323C13.1707 26.1632 12.9899 26.2323 12.9474 26.3812C13.1175 26.3812 13.2504 26.2908 13.4206 26.243L13.5482 26.5088C13.628 26.5088 13.7077 26.4716 13.7875 26.4663C14.0055 26.4663 14.0958 26.5673 14.032 26.7694C13.9985 26.8596 13.9538 26.9453 13.8991 27.0246C13.8093 27.1254 13.7535 27.2519 13.7396 27.3861L13.8566 27.4127C13.8566 27.4712 13.8832 27.551 13.9204 27.5722C13.9576 27.5935 14.032 27.5722 14.0799 27.5722C14.1171 27.7477 14.1596 27.9178 14.1915 28.1039C14.2245 28.2424 14.2494 28.3826 14.266 28.524C14.2774 28.6045 14.2625 28.6865 14.2235 28.7579C14.1862 28.8217 14.1012 28.8536 14.032 28.8961L14.2288 28.9599C14.2873 28.9599 14.367 28.9599 14.4095 29.0769L14.2447 29.162C14.1543 29.2098 14.0586 29.2471 13.9682 29.3002C13.8548 29.3634 13.7685 29.4658 13.7254 29.5882C13.6823 29.7106 13.6855 29.8446 13.7343 29.9648C13.7343 30.0233 13.7821 30.0871 13.8087 30.1456L13.8619 30.2679L13.5695 30.3796C13.3355 30.47 13.3196 30.5125 13.4844 30.7092C13.6492 30.9059 13.8247 31.0974 14.0161 31.2728C14.2586 31.5099 14.4409 31.8016 14.5478 32.1235V32.1554C14.7035 32.555 14.8227 32.9679 14.904 33.389C14.904 33.4209 14.904 33.4475 14.9412 33.474C14.9731 33.2348 15.005 32.9902 15.0423 32.7562C15.3772 32.7084 15.4995 32.7562 15.6165 33.0646C15.6843 33.2739 15.8118 33.4587 15.9834 33.5963C16.0081 33.6125 16.0267 33.6364 16.0364 33.6643C16.046 33.6922 16.0461 33.7226 16.0365 33.7505C16.0287 33.8407 16.0287 33.9315 16.0365 34.0217C16.0365 34.1068 16.0897 34.128 16.1641 34.0961C16.2066 34.0795 16.2461 34.0562 16.2811 34.027L16.5735 33.8037C16.6214 33.7665 16.6746 33.7399 16.7384 33.6973C16.7476 33.746 16.7601 33.7939 16.7756 33.8409L16.8553 33.6973C16.9829 33.4794 17.0999 33.256 17.2328 33.0434C17.2966 32.9423 17.3764 32.8466 17.4508 32.7509C17.5253 32.6552 17.5412 32.634 17.6157 32.6605C17.6901 32.6871 17.6848 32.7669 17.6795 32.836C17.6845 32.9068 17.6845 32.9779 17.6795 33.0487C17.6259 33.415 17.524 33.7726 17.3764 34.1121C17.3646 34.1501 17.3504 34.1874 17.3339 34.2237C17.6901 34.3726 18.0251 34.5215 18.0836 34.9734L18.3813 34.5374C18.3813 34.6916 18.2803 34.8192 18.2962 34.9947C18.3346 34.9775 18.3719 34.958 18.4079 34.9362L18.5887 34.7873C18.7907 34.6331 18.9874 34.4736 19.1948 34.3247C19.2896 34.2667 19.3892 34.2169 19.4926 34.1759C19.567 34.2875 19.6255 34.3832 19.6946 34.4736C19.7582 34.5612 19.8293 34.6431 19.9073 34.7182C20.0402 34.8405 20.1465 34.8086 20.1997 34.6278C20.2276 34.5346 20.2419 34.4379 20.2422 34.3407C20.2422 34.0483 20.2422 33.7505 20.2422 33.4528C20.2422 33.3677 20.2422 33.2879 20.2422 33.2029H20.2741C20.306 33.2986 20.3379 33.3943 20.3752 33.4953C20.3752 33.3092 20.3752 33.1444 20.3752 32.9636C20.3685 32.6564 20.4079 32.3499 20.4921 32.0544C20.5325 31.9223 20.5955 31.7982 20.6782 31.6875C20.703 31.6411 20.7409 31.603 20.7873 31.5781C20.8337 31.5532 20.8864 31.5427 20.9388 31.5478C20.9912 31.5529 21.0409 31.5735 21.0816 31.6069C21.1223 31.6403 21.1521 31.685 21.1674 31.7354C21.2142 31.8322 21.243 31.9367 21.2525 32.0438C21.2632 32.229 21.2208 32.4135 21.1302 32.5755C21.0801 32.6703 21.0686 32.7808 21.0983 32.8839C21.3216 32.4 21.4386 31.8736 21.63 31.3632C21.6269 31.379 21.6269 31.3952 21.63 31.4111C21.6446 31.4493 21.6704 31.4822 21.7041 31.5054C21.7378 31.5286 21.7778 31.541 21.8187 31.541C21.8596 31.541 21.8996 31.5286 21.9333 31.5054C21.967 31.4822 21.9929 31.4493 22.0075 31.4111C22.0432 31.3501 22.0683 31.2836 22.0819 31.2143C22.1609 30.8655 22.1771 30.5054 22.1298 30.1509C22.1146 30.0365 22.1331 29.9201 22.1829 29.816C22.2148 29.7522 22.2361 29.6884 22.268 29.6352C22.3015 29.5931 22.3247 29.5438 22.3358 29.4912C22.3468 29.4386 22.3455 29.3841 22.3318 29.3321C22.324 29.2971 22.324 29.2608 22.3318 29.2258C22.3637 29.3055 22.3797 29.3906 22.4116 29.4704C22.4435 29.5501 22.4754 29.5767 22.5392 29.5501C22.5892 29.5319 22.6308 29.4959 22.6561 29.4491C22.6987 29.364 22.6561 29.2843 22.5551 29.2417C22.498 29.2183 22.4394 29.1987 22.3797 29.1833C22.3963 28.9149 22.4427 28.6492 22.5179 28.391C22.444 28.3515 22.3865 28.2871 22.3554 28.2093C22.3243 28.1315 22.3216 28.0453 22.3478 27.9657C22.4263 27.562 22.6097 27.1861 22.8794 26.8757C23.023 26.6949 23.1506 26.5035 23.2782 26.3121C23.3078 26.2782 23.324 26.2348 23.324 26.1898C23.324 26.1448 23.3078 26.1014 23.2782 26.0675C23.2271 26.0128 23.1937 25.944 23.1823 25.87C23.1709 25.796 23.1821 25.7203 23.2144 25.6528C23.2144 25.589 23.257 25.5252 23.2835 25.4348C23.0602 25.4986 22.9007 25.6475 22.6934 25.7113C22.906 25.2859 23.1878 24.9137 23.4271 24.5097C23.3473 24.5469 23.3154 24.6426 23.2197 24.6798C23.4255 24.2033 23.6822 23.7505 23.9854 23.3293C24.0704 23.4782 24.1608 23.627 24.2459 23.7812C24.3895 24.0311 24.5277 24.3129 24.6713 24.5416C24.6913 24.5867 24.709 24.6329 24.7244 24.6798L24.4639 24.4459C24.486 24.5108 24.5183 24.5718 24.5596 24.6266C24.7457 24.9191 24.9424 25.2115 25.1285 25.5039C25.1674 25.5648 25.2012 25.6289 25.2295 25.6953C25.0115 25.6422 24.8574 25.4827 24.6394 25.4348C24.6713 25.5518 24.7032 25.6528 24.7297 25.7591C24.7437 25.8009 24.7462 25.8457 24.7368 25.8887C24.7275 25.9318 24.7066 25.9715 24.6766 26.0037C24.6537 26.0246 24.6354 26.0501 24.6229 26.0785C24.6104 26.1069 24.6039 26.1375 24.6039 26.1685C24.6039 26.1996 24.6104 26.2302 24.6229 26.2586C24.6354 26.287 24.6537 26.3124 24.6766 26.3334C24.788 26.5191 24.9124 26.6968 25.0488 26.8651C25.2979 27.1487 25.4796 27.4849 25.5805 27.8487C25.6336 28.0614 25.6496 28.2687 25.4263 28.3804C25.5043 28.6327 25.5525 28.8932 25.5698 29.1567L25.3678 29.2311C25.3339 29.2443 25.306 29.2694 25.2893 29.3017C25.2727 29.334 25.2684 29.3713 25.2774 29.4066C25.2839 29.4397 25.3009 29.47 25.3257 29.4929C25.3505 29.5159 25.382 29.5303 25.4156 29.5342C25.4794 29.5342 25.5326 29.497 25.5592 29.4012C25.5858 29.3055 25.5592 29.2736 25.5911 29.2152C25.5729 29.292 25.572 29.372 25.5885 29.4493C25.6051 29.5265 25.6387 29.5991 25.6868 29.6618C25.7134 29.7043 25.7293 29.7522 25.7559 29.8C25.7921 29.878 25.805 29.9648 25.7931 30.0499C25.7506 30.339 25.7506 30.6328 25.7931 30.9219C25.8172 31.0668 25.8546 31.2092 25.9048 31.3473C25.917 31.3903 25.9439 31.4276 25.9808 31.4529C26.0177 31.4781 26.0623 31.4897 26.1068 31.4855C26.1487 31.4866 26.1899 31.4749 26.225 31.4522C26.2601 31.4294 26.2875 31.3965 26.3036 31.3579C26.3634 31.4946 26.4149 31.6349 26.4578 31.7779L26.7715 32.7297C26.7715 32.7775 26.7715 32.8466 26.8672 32.8785C26.8773 32.7677 26.859 32.656 26.814 32.5542C26.7515 32.4428 26.7122 32.3198 26.6985 32.1928C26.6848 32.0658 26.697 31.9373 26.7342 31.8151C26.7466 31.7486 26.7785 31.6873 26.8258 31.639C26.8732 31.5907 26.9338 31.5576 27.0001 31.544C27.1596 31.5174 27.2553 31.6237 27.3297 31.746C27.4193 31.8962 27.4789 32.0623 27.5052 32.2352C27.5682 32.5859 27.5896 32.9428 27.569 33.2986C27.569 33.3517 27.569 33.4049 27.569 33.4581C27.5956 33.3783 27.6275 33.3039 27.6541 33.2241C27.6667 33.273 27.6667 33.3242 27.6541 33.373C27.6541 33.6495 27.6541 33.9047 27.6541 34.2025C27.6545 34.355 27.6741 34.5068 27.7126 34.6544C27.7551 34.8086 27.8614 34.8405 27.9784 34.7342C28.0717 34.6461 28.1571 34.55 28.2336 34.447C28.2921 34.3673 28.3453 34.2822 28.4038 34.1918C28.5983 34.2513 28.7791 34.3489 28.9355 34.4789C29.1109 34.6119 29.2757 34.7607 29.4672 34.899C29.5172 34.9373 29.5706 34.9711 29.6267 35C29.6586 34.8192 29.5469 34.6916 29.5469 34.5321L29.8447 34.9787C29.9031 34.5268 30.2434 34.3726 30.5943 34.229L30.5465 34.0961C30.4158 33.7946 30.3212 33.4787 30.2647 33.155C30.2485 33.0244 30.2485 32.8922 30.2647 32.7616C30.2647 32.6712 30.3285 32.6552 30.4029 32.7084C30.4458 32.7433 30.485 32.7825 30.5199 32.8254C30.5955 32.9181 30.6648 33.0158 30.7273 33.1178C30.8655 33.3517 30.9984 33.5963 31.1314 33.8356C31.1314 33.8356 31.1314 33.8728 31.1686 33.91C31.1686 33.8303 31.1686 33.7824 31.1686 33.7186L31.36 33.8515C31.4504 33.9207 31.5408 34.0004 31.6365 34.0695C31.6577 34.0848 31.6821 34.0951 31.7079 34.0997C31.7337 34.1043 31.7601 34.1031 31.7853 34.0961C31.8027 34.0758 31.8155 34.052 31.8228 34.0263C31.8302 34.0006 31.8319 33.9737 31.8279 33.9472C31.8279 33.8515 31.8279 33.7558 31.7853 33.6495C32.0012 33.4937 32.1629 33.2744 32.2479 33.0221C32.2645 32.9694 32.2918 32.9206 32.328 32.8788C32.3642 32.8371 32.4086 32.8032 32.4585 32.7793C32.5083 32.7553 32.5625 32.7419 32.6178 32.7398C32.673 32.7376 32.7281 32.7469 32.7796 32.7669C32.8056 33.0063 32.8447 33.2442 32.8966 33.4794C32.9211 33.4343 32.9391 33.386 32.9498 33.3358C33.0489 32.8122 33.2132 32.3032 33.4389 31.8205C33.5086 31.672 33.604 31.537 33.7207 31.4217C33.9015 31.2409 34.0823 31.0442 34.2524 30.8581C34.3109 30.7943 34.3694 30.7252 34.4226 30.656C34.4757 30.5869 34.5023 30.47 34.3481 30.4062L34.0025 30.2732C34.045 30.1669 34.0929 30.0765 34.1248 29.9808C34.1762 29.8587 34.1802 29.7217 34.136 29.5968C34.0917 29.4719 34.0024 29.368 33.8855 29.3055C33.7843 29.246 33.6796 29.1928 33.5718 29.146C33.5293 29.146 33.4761 29.1141 33.4549 29.0344L33.8643 28.8855C33.6463 28.843 33.5878 28.7738 33.5878 28.5824C33.5825 28.5258 33.5825 28.4689 33.5878 28.4123L33.7633 27.5935H33.96C33.96 27.5244 33.96 27.4765 33.96 27.4287L34.0982 27.3968C34.0825 27.2656 34.0289 27.1418 33.944 27.0405C33.8896 26.9668 33.8449 26.8864 33.8111 26.8013C33.7313 26.5726 33.8111 26.4557 34.0663 26.4822C34.1416 26.4913 34.2163 26.5055 34.2896 26.5248C34.3428 26.4344 34.3375 26.3121 34.4438 26.2642C34.5927 26.3015 34.7256 26.4184 34.9064 26.3812C34.8001 26.227 34.6671 26.1845 34.4119 26.2323L34.5076 26.1526L34.4066 25.9133C34.4683 25.8793 34.527 25.8402 34.5821 25.7964C34.6212 25.7684 34.6525 25.731 34.6731 25.6876C34.6937 25.6441 34.7028 25.5961 34.6996 25.5482C34.6964 25.5002 34.681 25.4539 34.6548 25.4136C34.6287 25.3733 34.5926 25.3403 34.5502 25.3178C34.439 25.245 34.3106 25.2028 34.178 25.1955C34.0882 24.9259 33.9835 24.6614 33.8643 24.4033C33.7898 24.4778 33.8643 24.5256 33.8643 24.5788C33.9387 24.7489 33.8643 24.8393 33.6941 24.8234C33.5896 24.8137 33.4883 24.7822 33.3967 24.7309C33.3051 24.6796 33.2253 24.6097 33.1624 24.5256C33.0995 24.4536 33.0602 24.364 33.0497 24.2689C33.0393 24.1739 33.0582 24.0779 33.1039 23.9939C33.1039 23.9461 33.1518 23.9035 33.1784 23.8504H33.0348C33.0774 23.744 33.1146 23.6643 33.1465 23.5792C33.1659 23.5455 33.1783 23.5083 33.1829 23.4697C33.1876 23.4312 33.1843 23.392 33.1734 23.3548C33.1624 23.3175 33.144 23.2828 33.1193 23.2528C33.0946 23.2229 33.064 23.1982 33.0295 23.1804L33.0561 23.1485L33.1731 23.0741C33.238 23.0359 33.3001 22.9932 33.3592 22.9465C33.3845 22.9277 33.405 22.9032 33.4192 22.8751C33.4333 22.8469 33.4407 22.8158 33.4407 22.7843C33.4407 22.7528 33.4333 22.7217 33.4192 22.6935C33.405 22.6654 33.3845 22.6409 33.3592 22.6221C33.306 22.5636 33.2422 22.5105 33.1837 22.452C33.1252 22.3935 33.072 22.2712 33.2369 22.218C33.3803 22.1607 33.5345 22.1353 33.6888 22.1436C33.8109 22.1542 33.9336 22.1542 34.0557 22.1436C34.2243 22.1365 34.3893 22.0929 34.5395 22.016C34.5837 21.9992 34.6198 21.9662 34.6405 21.9238C34.6613 21.8813 34.6651 21.8325 34.6512 21.7874C34.6193 21.6013 34.6512 21.5215 34.8479 21.4577C35.0446 21.3939 35.1084 21.378 35.2414 21.3408C35.5072 21.2803 35.7572 21.1643 35.9751 21.0005C36.2738 20.782 36.5436 20.5265 36.778 20.2401C36.8526 20.1367 36.9511 20.0528 37.0651 19.9956C37.1537 19.9555 37.2375 19.9056 37.315 19.8467C37.5011 19.7084 37.5064 19.5596 37.315 19.4213C37.1986 19.3376 37.0759 19.263 36.9481 19.198C36.762 19.1023 36.5653 19.0172 36.3739 18.9109C36.2848 18.8616 36.2026 18.8008 36.1293 18.7301C36.0495 18.6451 36.0549 18.5866 36.1293 18.4696C36.1718 18.5653 36.2463 18.544 36.3207 18.5334C36.9253 18.415 37.5166 18.2369 38.0859 18.0017L38.272 17.9432C38.4184 17.898 38.5622 17.8447 38.7027 17.7837C38.7616 17.7575 38.8119 17.7151 38.8477 17.6615C38.8835 17.6078 38.9032 17.5451 38.9047 17.4806C38.9111 17.3887 38.8985 17.2963 38.8675 17.2095C38.8144 17.0712 38.7399 16.9436 38.6761 16.8107C38.6123 16.6778 38.6176 16.6831 38.5857 16.6087C38.6626 16.5979 38.7359 16.5692 38.7996 16.5249C38.8634 16.4805 38.9158 16.4218 38.9526 16.3535C39.1475 16.0512 39.2475 15.6975 39.2397 15.3379C39.2404 15.1679 39.2003 15.0001 39.1227 14.8488C39.0058 14.6414 38.9739 14.6308 38.7452 14.7105L38.4528 14.8062L38.3146 14.8434C38.407 14.7619 38.5067 14.689 38.6123 14.6254C38.9373 14.4322 39.2388 14.2021 39.5109 13.9396C39.6711 13.7918 39.7965 13.6101 39.8777 13.4079C39.9209 13.3055 39.9348 13.1931 39.9179 13.0833C39.901 12.9735 39.854 12.8705 39.782 12.7858" fill="white"/>
</svg>
