<svg width="27" height="28" viewBox="0 0 27 28" fill="none" xmlns="http://www.w3.org/2000/svg">
<path d="M18 16.0151C18 18.4961 15.9813 20.5151 13.5 20.5151C11.019 20.5151 9 18.4961 9 16.0151C9 13.5339 11.019 11.5151 13.5 11.5151H14.625V9.26514H13.5C9.77811 9.26514 6.75 12.293 6.75 16.0151C6.75 19.737 9.77811 22.7651 13.5 22.7651C17.2222 22.7651 20.25 19.737 20.25 16.0151V14.8901H18V16.0151Z" fill="#232C4F"/>
<path d="M12.3723 13.863L10.7812 15.4539L13.4973 18.1694L19.5887 12.0789L17.9973 10.488L13.4973 14.988L12.3723 13.863Z" fill="#232C4F"/>
<path d="M24.75 10.9644V0.266144H18V3.27255L13.5 0L2.25 8.18097V25.0161H0V27.2661H27V25.0161H24.75V10.9644ZM20.25 2.51614H22.5V6.54401L20.25 4.90732V2.51614ZM4.5 25.0161V9.32684L13.5 2.78146L22.5 9.32684V25.0161H4.5Z" fill="#232C4F"/>
</svg>
