<svg width="40" height="40" viewBox="0 0 40 40" fill="none" xmlns="http://www.w3.org/2000/svg">
<circle cx="20" cy="20" r="20" fill="#003457"/>
<path d="M17.4707 20.1706H19.0151C19.4414 20.1706 19.8275 19.9149 19.993 19.5187C20.1584 19.1226 20.0682 18.6663 19.7623 18.3654L16.7336 15.3367H18.2078C18.5638 15.3367 18.8848 15.121 19.0201 14.7951C19.1555 14.4692 19.0803 14.0881 18.8296 13.8373L14.9033 9.91101C14.7328 9.74052 14.5071 9.65527 14.2815 9.65527C14.0558 9.65527 13.8302 9.74052 13.6597 9.91101L9.73838 13.8323C9.48766 14.083 9.41244 14.4591 9.54783 14.7901C9.68322 15.116 10.0041 15.3316 10.3552 15.3316H11.8294L8.80068 18.3604C8.49981 18.6612 8.40454 19.1176 8.57001 19.5137C8.73549 19.9098 9.12161 20.1656 9.54783 20.1656H11.0923L7.29133 23.9766C6.90521 24.3627 6.78988 24.9444 7.00049 25.4508C7.2111 25.9573 7.70251 26.2832 8.24909 26.2832H11.8846V29.7833C11.8846 30.0892 12.1353 30.3399 12.4412 30.3399H16.1318C16.4377 30.3399 16.6884 30.0892 16.6884 29.7833V26.2832H20.3239C20.8705 26.2832 21.3669 25.9523 21.5725 25.4508C21.7831 24.9444 21.6678 24.3627 21.2767 23.9766L17.4707 20.1706Z" fill="white"/>
<path d="M31.3996 25.2811L28.3709 22.2524H29.5994C29.9404 22.2524 30.2463 22.0468 30.3767 21.7309C30.5071 21.4149 30.4369 21.0539 30.1962 20.8132L27.7842 18.4013H28.9576C29.2384 18.4013 29.4941 18.2308 29.6045 17.97C29.7148 17.7093 29.6546 17.4084 29.454 17.2078L26.335 14.0888C26.0642 13.818 25.623 13.818 25.3472 14.0888L22.2282 17.2078C22.0276 17.4084 21.9674 17.7093 22.0777 17.97C22.1881 18.2308 22.4388 18.4013 22.7246 18.4013H23.898L21.486 20.8132C21.2704 21.0288 21.1952 21.3447 21.2804 21.6356L21.8671 22.2223C21.9373 22.2423 22.0075 22.2524 22.0828 22.2524H23.3113L22.5942 22.9694C23.3414 23.8269 23.547 25.0254 23.1057 26.0834C22.9402 26.4846 22.6945 26.8306 22.3937 27.1164H23.9331V29.7891C23.9331 30.095 24.1838 30.3457 24.4897 30.3457H27.1975C27.5034 30.3457 27.7541 30.095 27.7541 29.7891V27.1164H30.6475C31.0837 27.1164 31.4749 26.8556 31.6403 26.4545C31.8008 26.0533 31.7055 25.587 31.3996 25.2811Z" fill="white"/>
</svg>
