<svg width="229" height="131" viewBox="0 0 229 131" fill="none" xmlns="http://www.w3.org/2000/svg">
<rect x="0.5" y="0.5" width="227.074" height="130" rx="4.5" fill="#232C4F" stroke="#232C4F"/>
<path d="M35.25 34.1035C35.25 34.0442 35.2943 33.994 35.3528 33.9865L51.0615 31.96C55.0065 31.45 58.5 34.5227 58.5 38.5C58.5 42.4772 55.0058 45.5492 51.0615 45.04L35.3528 43.0135C35.3243 43.0098 35.2982 42.9959 35.2793 42.9744C35.2604 42.9529 35.2499 42.9252 35.25 42.8965V34.1035Z" stroke="white" stroke-width="2"/>
<path d="M35.25 34L30 31V46L35.25 43" stroke="white" stroke-width="2" stroke-linecap="round" stroke-linejoin="round"/>
<path d="M55.5001 43.75L50.4796 55.6735C50.1892 56.363 49.7018 56.9515 49.0785 57.3653C48.4553 57.7792 47.7237 57.9999 46.9756 58V58C44.2568 58 42.4171 55.2288 43.4716 52.723L47.2501 43.75" stroke="white" stroke-width="2"/>
<path d="M51.5 45C55.0899 45 58 42.0899 58 38.5C58 34.9101 55.0899 32 51.5 32C47.9101 32 45 34.9101 45 38.5C45 42.0899 47.9101 45 51.5 45Z" stroke="white" stroke-width="2"/>
<path d="M37.56 92.18C36.288 92.18 35.136 91.904 34.104 91.352C33.084 90.788 32.28 90.014 31.692 89.03C31.116 88.046 30.828 86.936 30.828 85.7C30.828 84.464 31.122 83.354 31.71 82.37C32.298 81.386 33.102 80.618 34.122 80.066C35.154 79.502 36.306 79.22 37.578 79.22C38.61 79.22 39.552 79.4 40.404 79.76C41.256 80.12 41.976 80.642 42.564 81.326L41.052 82.748C40.14 81.764 39.018 81.272 37.686 81.272C36.822 81.272 36.048 81.464 35.364 81.848C34.68 82.22 34.146 82.742 33.762 83.414C33.378 84.086 33.186 84.848 33.186 85.7C33.186 86.552 33.378 87.314 33.762 87.986C34.146 88.658 34.68 89.186 35.364 89.57C36.048 89.942 36.822 90.128 37.686 90.128C39.018 90.128 40.14 89.63 41.052 88.634L42.564 90.074C41.976 90.758 41.25 91.28 40.386 91.64C39.534 92 38.592 92.18 37.56 92.18ZM47.9788 82.28C49.3948 82.28 50.4748 82.622 51.2188 83.306C51.9748 83.978 52.3528 84.998 52.3528 86.366V92H50.2288V90.83C49.9528 91.25 49.5568 91.574 49.0408 91.802C48.5368 92.018 47.9248 92.126 47.2048 92.126C46.4848 92.126 45.8548 92.006 45.3148 91.766C44.7748 91.514 44.3548 91.172 44.0548 90.74C43.7668 90.296 43.6228 89.798 43.6228 89.246C43.6228 88.382 43.9408 87.692 44.5768 87.176C45.2248 86.648 46.2388 86.384 47.6188 86.384H50.1028V86.24C50.1028 85.568 49.8988 85.052 49.4908 84.692C49.0948 84.332 48.5008 84.152 47.7088 84.152C47.1688 84.152 46.6348 84.236 46.1068 84.404C45.5908 84.572 45.1528 84.806 44.7928 85.106L43.9108 83.468C44.4148 83.084 45.0208 82.79 45.7288 82.586C46.4368 82.382 47.1868 82.28 47.9788 82.28ZM47.6728 90.488C48.2368 90.488 48.7348 90.362 49.1668 90.11C49.6108 89.846 49.9228 89.474 50.1028 88.994V87.878H47.7808C46.4848 87.878 45.8368 88.304 45.8368 89.156C45.8368 89.564 45.9988 89.888 46.3228 90.128C46.6468 90.368 47.0968 90.488 47.6728 90.488ZM63.849 82.388V92H61.599V84.296H57.999L57.909 86.204C57.849 87.476 57.729 88.544 57.549 89.408C57.381 90.26 57.087 90.938 56.667 91.442C56.259 91.934 55.695 92.18 54.975 92.18C54.639 92.18 54.225 92.114 53.733 91.982L53.841 90.092C54.009 90.128 54.153 90.146 54.273 90.146C54.729 90.146 55.071 89.966 55.299 89.606C55.527 89.234 55.671 88.796 55.731 88.292C55.803 87.776 55.863 87.044 55.911 86.096L56.073 82.388H63.849ZM71.1632 92.126C70.1912 92.126 69.3152 91.916 68.5352 91.496C67.7552 91.076 67.1432 90.494 66.6992 89.75C66.2672 88.994 66.0512 88.142 66.0512 87.194C66.0512 86.246 66.2672 85.4 66.6992 84.656C67.1432 83.912 67.7552 83.33 68.5352 82.91C69.3152 82.49 70.1912 82.28 71.1632 82.28C72.1472 82.28 73.0292 82.49 73.8092 82.91C74.5892 83.33 75.1952 83.912 75.6272 84.656C76.0712 85.4 76.2932 86.246 76.2932 87.194C76.2932 88.142 76.0712 88.994 75.6272 89.75C75.1952 90.494 74.5892 91.076 73.8092 91.496C73.0292 91.916 72.1472 92.126 71.1632 92.126ZM71.1632 90.2C71.9912 90.2 72.6752 89.924 73.2152 89.372C73.7552 88.82 74.0252 88.094 74.0252 87.194C74.0252 86.294 73.7552 85.568 73.2152 85.016C72.6752 84.464 71.9912 84.188 71.1632 84.188C70.3352 84.188 69.6512 84.464 69.1112 85.016C68.5832 85.568 68.3192 86.294 68.3192 87.194C68.3192 88.094 68.5832 88.82 69.1112 89.372C69.6512 89.924 70.3352 90.2 71.1632 90.2ZM78.5159 82.388H80.7659V86.294H85.6079V82.388H87.8579V92H85.6079V88.202H80.7659V92H78.5159V82.388ZM35.508 108.148H33.762V112H31.512V102.388H33.762V106.276H35.562L38.406 102.388H40.818L37.326 107.014L41.052 112H38.406L35.508 108.148ZM47.967 102.28C48.903 102.28 49.737 102.484 50.469 102.892C51.213 103.3 51.795 103.876 52.215 104.62C52.635 105.364 52.845 106.222 52.845 107.194C52.845 108.166 52.635 109.03 52.215 109.786C51.795 110.53 51.213 111.106 50.469 111.514C49.737 111.922 48.903 112.126 47.967 112.126C46.671 112.126 45.645 111.694 44.889 110.83V115.492H42.639V102.388H44.781V103.648C45.153 103.192 45.609 102.85 46.149 102.622C46.701 102.394 47.307 102.28 47.967 102.28ZM47.715 110.2C48.543 110.2 49.221 109.924 49.749 109.372C50.289 108.82 50.559 108.094 50.559 107.194C50.559 106.294 50.289 105.568 49.749 105.016C49.221 104.464 48.543 104.188 47.715 104.188C47.175 104.188 46.689 104.314 46.257 104.566C45.825 104.806 45.483 105.154 45.231 105.61C44.979 106.066 44.853 106.594 44.853 107.194C44.853 107.794 44.979 108.322 45.231 108.778C45.483 109.234 45.825 109.588 46.257 109.84C46.689 110.08 47.175 110.2 47.715 110.2ZM58.5432 102.28C59.9592 102.28 61.0392 102.622 61.7832 103.306C62.5392 103.978 62.9172 104.998 62.9172 106.366V112H60.7932V110.83C60.5172 111.25 60.1212 111.574 59.6052 111.802C59.1012 112.018 58.4892 112.126 57.7692 112.126C57.0492 112.126 56.4192 112.006 55.8792 111.766C55.3392 111.514 54.9192 111.172 54.6192 110.74C54.3312 110.296 54.1872 109.798 54.1872 109.246C54.1872 108.382 54.5052 107.692 55.1412 107.176C55.7892 106.648 56.8032 106.384 58.1832 106.384H60.6672V106.24C60.6672 105.568 60.4632 105.052 60.0552 104.692C59.6592 104.332 59.0652 104.152 58.2732 104.152C57.7332 104.152 57.1992 104.236 56.6712 104.404C56.1552 104.572 55.7172 104.806 55.3572 105.106L54.4752 103.468C54.9792 103.084 55.5852 102.79 56.2932 102.586C57.0012 102.382 57.7512 102.28 58.5432 102.28ZM58.2372 110.488C58.8012 110.488 59.2992 110.362 59.7312 110.11C60.1752 109.846 60.4872 109.474 60.6672 108.994V107.878H58.3452C57.0492 107.878 56.4012 108.304 56.4012 109.156C56.4012 109.564 56.5632 109.888 56.8872 110.128C57.2112 110.368 57.6612 110.488 58.2372 110.488ZM70.0755 112.126C69.0795 112.126 68.1855 111.916 67.3935 111.496C66.6015 111.076 65.9835 110.494 65.5395 109.75C65.0955 108.994 64.8735 108.142 64.8735 107.194C64.8735 106.246 65.0955 105.4 65.5395 104.656C65.9835 103.912 66.5955 103.33 67.3755 102.91C68.1675 102.49 69.0675 102.28 70.0755 102.28C71.0235 102.28 71.8515 102.472 72.5595 102.856C73.2795 103.24 73.8195 103.792 74.1795 104.512L72.4515 105.52C72.1755 105.076 71.8275 104.746 71.4075 104.53C70.9995 104.302 70.5495 104.188 70.0575 104.188C69.2175 104.188 68.5215 104.464 67.9695 105.016C67.4175 105.556 67.1415 106.282 67.1415 107.194C67.1415 108.106 67.4115 108.838 67.9515 109.39C68.5035 109.93 69.2055 110.2 70.0575 110.2C70.5495 110.2 70.9995 110.092 71.4075 109.876C71.8275 109.648 72.1755 109.312 72.4515 108.868L74.1795 109.876C73.8075 110.596 73.2615 111.154 72.5415 111.55C71.8335 111.934 71.0115 112.126 70.0755 112.126ZM80.3038 112.126C79.3318 112.126 78.4558 111.916 77.6758 111.496C76.8958 111.076 76.2838 110.494 75.8398 109.75C75.4078 108.994 75.1918 108.142 75.1918 107.194C75.1918 106.246 75.4078 105.4 75.8398 104.656C76.2838 103.912 76.8958 103.33 77.6758 102.91C78.4558 102.49 79.3318 102.28 80.3038 102.28C81.2878 102.28 82.1698 102.49 82.9498 102.91C83.7298 103.33 84.3358 103.912 84.7678 104.656C85.2118 105.4 85.4338 106.246 85.4338 107.194C85.4338 108.142 85.2118 108.994 84.7678 109.75C84.3358 110.494 83.7298 111.076 82.9498 111.496C82.1698 111.916 81.2878 112.126 80.3038 112.126ZM80.3038 110.2C81.1318 110.2 81.8158 109.924 82.3558 109.372C82.8958 108.82 83.1658 108.094 83.1658 107.194C83.1658 106.294 82.8958 105.568 82.3558 105.016C81.8158 104.464 81.1318 104.188 80.3038 104.188C79.4758 104.188 78.7918 104.464 78.2518 105.016C77.7238 105.568 77.4598 106.294 77.4598 107.194C77.4598 108.094 77.7238 108.82 78.2518 109.372C78.7918 109.924 79.4758 110.2 80.3038 110.2ZM94.919 104.296H91.553V112H89.303V104.296H85.919V102.388H94.919V104.296ZM101.231 105.556C102.455 105.556 103.391 105.832 104.039 106.384C104.687 106.936 105.011 107.716 105.011 108.724C105.011 109.78 104.651 110.596 103.931 111.172C103.223 111.748 102.215 112.03 100.907 112.018L96.5511 112V102.388H98.8011V105.538L101.231 105.556ZM106.253 102.388H108.503V112H106.253V102.388ZM100.709 110.362C101.369 110.374 101.873 110.236 102.221 109.948C102.569 109.66 102.743 109.24 102.743 108.688C102.743 108.148 102.575 107.752 102.239 107.5C101.903 107.248 101.393 107.116 100.709 107.104L98.8011 107.086V110.344L100.709 110.362Z" fill="white"/>
</svg>
