<svg width="40" height="40" viewBox="0 0 40 40" fill="none" xmlns="http://www.w3.org/2000/svg">
<circle cx="20" cy="20" r="20" fill="#003457"/>
<path d="M20.6901 23.1715L12.4609 20.6387V23.1297V24.8682C12.4609 26.8227 16.147 28.4114 20.6936 28.4114C25.2402 28.4114 28.9263 26.8262 28.9263 24.8717C28.9263 24.8578 28.9228 24.8404 28.9193 24.8264V20.6387L20.6901 23.1715Z" fill="white"/>
<path d="M6.89844 17.7143L9.83892 18.7665L10.0898 18.2299L11.1698 18.1394L11.3231 18.2996L10.3964 18.5191L10.2605 18.9198C10.2605 18.9198 8.16661 23.2957 8.4732 25.4383C8.4732 25.4383 9.7797 26.2187 11.0862 25.4383L11.4346 19.5852V19.0975L13.3787 18.6585L13.2428 18.9964L11.7934 19.4668L12.4624 19.7072L20.6915 22.24L28.9207 19.7072L34.4847 17.7178L20.6915 12.4082L6.89844 17.7143Z" fill="white"/>
</svg>
