<svg width="27" height="27" viewBox="0 0 27 27" fill="none" xmlns="http://www.w3.org/2000/svg">
<path d="M25.2144 1.77675C25.8145 2.37698 26.2826 3.09584 26.5889 3.88735C26.8952 4.67886 27.033 5.52559 26.9933 6.37337C26.9537 7.22116 26.7375 8.05134 26.3587 8.81081C25.9798 9.57027 25.4466 10.2423 24.7932 10.7839C19.6974 15.0073 15.0073 19.6974 10.7839 24.7932C10.2423 25.4466 9.57027 25.9798 8.81081 26.3587C8.05134 26.7375 7.22116 26.9537 6.37337 26.9933C5.52559 27.033 4.67886 26.8952 3.88735 26.5889C3.09584 26.2826 2.37698 25.8145 1.77675 25.2144C1.17826 24.616 0.711625 23.8989 0.406867 23.1093C0.102108 22.3197 -0.0340308 21.4751 0.00720302 20.6297C0.0484369 19.7844 0.266131 18.957 0.646287 18.2008C1.02644 17.4446 1.56065 16.7764 2.21454 16.239C7.33352 12.031 12.0301 7.33393 16.2377 2.21454C16.775 1.56065 17.4433 1.02644 18.1994 0.646287C18.9556 0.266131 19.783 0.0484369 20.6284 0.00720301C21.4737 -0.0340308 22.3183 0.102109 23.1079 0.406867C23.8975 0.711625 24.6146 1.17826 25.213 1.77675H25.2144ZM23.2603 3.72955C22.9343 3.40351 22.5437 3.14932 22.1136 2.98331C21.6835 2.81731 21.2234 2.74318 20.7629 2.76568C20.3024 2.78819 19.8517 2.90683 19.4398 3.11398C19.0279 3.32113 18.664 3.6122 18.3714 3.96847C14.0494 9.22653 9.22515 14.0508 3.96709 18.3727C3.59081 18.6822 3.28762 19.071 3.07925 19.5113C2.87087 19.9517 2.76247 20.4327 2.76181 20.9198C2.76115 21.407 2.86825 21.8883 3.07543 22.3292C3.28261 22.7701 3.58474 23.1597 3.96018 23.4702C4.64137 24.0346 5.51879 24.3053 6.39957 24.223C7.28034 24.1406 8.09236 23.7119 8.65711 23.031C12.9908 17.8029 17.8035 12.9912 23.0324 8.65849C23.3898 8.36209 23.6813 7.99437 23.8885 7.57884C24.0956 7.16331 24.2137 6.70913 24.2353 6.24534C24.2569 5.78155 24.1814 5.31836 24.0138 4.8854C23.8461 4.45244 23.5899 4.05923 23.2616 3.73093L23.2603 3.72955ZM15.4477 11.5034C15.3195 11.3751 15.2178 11.2228 15.1484 11.0552C15.0791 10.8876 15.0434 10.7079 15.0435 10.5266C15.0435 10.3452 15.0793 10.1655 15.1488 9.99798C15.2183 9.83041 15.3201 9.67818 15.4484 9.54995C15.5767 9.42173 15.729 9.32004 15.8966 9.25068C16.0642 9.18132 16.2439 9.14565 16.4253 9.14572C16.6067 9.14578 16.7863 9.18157 16.9538 9.25105C17.1214 9.32053 17.2736 9.42233 17.4019 9.55064C17.6608 9.80978 17.8062 10.1612 17.8061 10.5275C17.806 10.8939 17.6603 11.2452 17.4012 11.5041C17.142 11.7631 16.7906 11.9085 16.4243 11.9084C16.0579 11.9082 15.7067 11.7626 15.4477 11.5034ZM8.61153 18.3396C8.48322 18.2113 8.38144 18.059 8.312 17.8913C8.24255 17.7237 8.20681 17.544 8.20681 17.3625C8.20681 17.181 8.24255 17.0014 8.312 16.8337C8.38144 16.6661 8.48322 16.5137 8.61153 16.3854C8.73985 16.2571 8.89218 16.1553 9.05983 16.0859C9.22748 16.0164 9.40716 15.9807 9.58862 15.9807C9.77008 15.9807 9.94977 16.0164 10.1174 16.0859C10.2851 16.1553 10.4374 16.2571 10.5657 16.3854C10.8248 16.6444 10.9705 16.9957 10.9706 17.362C10.9708 17.7284 10.8254 18.0798 10.5664 18.3389C10.3074 18.598 9.95615 18.7437 9.5898 18.7438C9.22345 18.744 8.87206 18.5986 8.61292 18.3396H8.61153Z" fill="#232C4F"/>
</svg>
