<svg width="40" height="40" viewBox="0 0 40 40" fill="none" xmlns="http://www.w3.org/2000/svg">
<circle cx="20" cy="20" r="20" fill="#003457"/>
<path d="M31.5762 14.4761V26.9626C32.4539 26.7298 33.1036 25.9297 33.1036 24.9793V16.4545C33.1036 15.5089 32.4539 14.7088 31.5762 14.4761Z" fill="white"/>
<path d="M27.9961 12.8242H27.516C26.3862 12.8242 25.4648 13.7456 25.4648 14.8754V26.5715C25.4648 27.7014 26.3862 28.6227 27.516 28.6227H27.9961C29.1259 28.6227 30.0473 27.7014 30.0473 26.5715V14.8706C30.0473 13.7407 29.1308 12.8242 27.9961 12.8242Z" fill="white"/>
<path d="M23.9441 18.1777H17.4414V23.182H23.9441V18.1777Z" fill="white"/>
<path d="M8.27539 16.0546V24.5794C8.27539 25.5298 8.92517 26.3299 9.80287 26.5627V14.0713C8.92517 14.304 8.27539 15.1042 8.27539 16.0546Z" fill="white"/>
<path d="M13.8633 12.415H13.3832C12.2485 12.415 11.332 13.3364 11.332 14.4662V26.1623C11.332 27.2922 12.2534 28.2135 13.3832 28.2135H13.8633C14.9931 28.2135 15.9145 27.2922 15.9145 26.1623V14.4662C15.9096 13.3364 14.9931 12.415 13.8633 12.415Z" fill="white"/>
</svg>
