<svg width="223" height="131" viewBox="0 0 223 131" fill="none" xmlns="http://www.w3.org/2000/svg">
<rect x="-5.5" y="0.5" width="227.074" height="130" rx="4.5" fill="white" stroke="#EEEEEE"/>
<path d="M42.069 38.2382C41.8088 38.2382 41.5593 38.3415 41.3753 38.5255C41.1913 38.7095 41.0879 38.9591 41.0879 39.2193C41.0879 39.4795 41.1913 39.7291 41.3753 39.9131C41.5593 40.0971 41.8088 40.2004 42.069 40.2004C42.5439 40.2004 42.9364 40.3417 43.2209 40.5929C43.4995 40.8421 43.7605 41.2738 43.8351 42.0215C43.848 42.1497 43.886 42.2741 43.947 42.3876C44.0079 42.5011 44.0906 42.6015 44.1904 42.683C44.2902 42.7646 44.405 42.8257 44.5284 42.8628C44.6518 42.9 44.7813 42.9125 44.9095 42.8996C45.0377 42.8867 45.1621 42.8487 45.2756 42.7877C45.3891 42.7268 45.4895 42.644 45.571 42.5443C45.6526 42.4445 45.7137 42.3297 45.7508 42.2063C45.788 42.0829 45.8005 41.9534 45.7876 41.8252C45.6738 40.6812 45.2342 39.7609 44.5258 39.129C43.8449 38.539 42.9699 38.2217 42.069 38.2382Z" fill="#373737"/>
<path d="M35.2476 35.4088C34.5463 34.8258 33.7232 34.4076 32.8389 34.1848C31.9546 33.962 31.0316 33.9404 30.1378 34.1215C28.5327 34.4355 27.1159 35.3224 26.176 36.3389L26.172 36.3448C25.1458 37.4711 24.0959 38.935 24.0057 41.068V41.0719C23.9664 42.1198 24.1156 43.6484 24.9417 44.8179L24.9535 44.8317C25.8286 46.0189 26.3172 46.7135 26.5625 47.3846C26.8431 48.1538 26.8431 48.9309 26.8431 50.0867V50.1809C26.853 51.2994 27.0904 52.8437 27.6614 54.2487C28.2266 55.6341 29.1979 57.0744 30.7991 57.6572L30.8384 57.671L30.8815 57.6827C31.8097 57.93 32.6986 57.8476 33.3736 57.2177C33.9623 56.6682 34.1978 55.8558 34.3312 55.1514C34.4529 54.5019 34.5137 53.7464 34.5746 53.0125L34.5962 52.7358C34.6668 51.8881 34.7473 51.0482 34.9121 50.2594V50.2535C35.3575 48.0891 35.9953 47.7496 36.2406 47.6731C36.9666 47.4867 37.4022 47.5848 37.6848 47.7457C37.9909 47.9203 38.2735 48.2559 38.5188 48.8092C39.0251 49.9572 39.1742 51.5839 39.3115 53.091C39.4293 54.5882 39.7432 55.9657 40.3594 56.8586C40.6832 57.3276 41.1482 57.7436 41.784 57.879C42.4257 58.0183 43.0438 57.8279 43.5795 57.4865C45.53 56.2404 46.6486 53.6679 46.9429 50.3143C47.0803 48.7229 47.2412 48.0126 47.4786 47.4396C47.6003 47.1452 47.7533 46.8626 47.9692 46.4918L48.1772 46.1386C48.3538 45.8442 48.5598 45.4949 48.7855 45.0907L48.7894 45.0887C49.2133 44.3274 49.9118 42.9341 49.9923 41.3015C50.0767 39.5982 49.4821 37.7243 47.4904 36.1113C45.5948 34.5728 43.817 34.0057 42.2177 34.0901C40.6341 34.1725 39.3685 34.8868 38.4638 35.6501L38.4324 35.6776L38.405 35.7051C37.5455 36.5645 37.1825 36.6764 36.9862 36.6666C36.7468 36.6568 36.3034 36.4645 35.3301 35.4814L35.2908 35.4421L35.2476 35.4088ZM25.966 41.1504C26.0288 39.6924 26.7176 38.6583 27.6202 37.6693C28.307 36.9276 29.3588 36.2741 30.5126 36.0485C31.1175 35.923 31.7428 35.9347 32.3425 36.0828C32.9422 36.2309 33.5011 36.5115 33.978 36.904C34.9003 37.8322 35.8265 38.5818 36.9019 38.6289C38.0204 38.676 38.9269 37.9538 39.7609 37.1238C40.4418 36.5547 41.3033 36.1034 42.3197 36.0485C43.3362 35.9955 44.6509 36.335 46.2541 37.634C47.7435 38.8408 48.0869 40.1065 48.032 41.2054C47.9751 42.369 47.4629 43.4345 47.0763 44.1292C46.8168 44.5916 46.5492 45.0496 46.2738 45.5028C46.0461 45.8952 45.8401 46.2681 45.6654 46.688C45.3122 47.5436 45.1317 48.4972 44.9865 50.1416C44.7137 53.2558 43.713 55.0729 42.5238 55.8323C42.4434 55.8874 42.3546 55.9291 42.2609 55.9559C42.2157 55.9657 42.1981 55.9618 42.1961 55.9618C42.1942 55.9618 42.1765 55.9579 42.1412 55.9324C42.0762 55.8785 42.0199 55.815 41.9744 55.744C41.6604 55.2927 41.3778 54.3468 41.268 52.932V52.9202L41.2542 52.7731C41.1286 51.3798 40.9559 49.4725 40.3143 48.0184C39.9748 47.2473 39.4607 46.4977 38.6542 46.0385C37.8261 45.5675 36.8371 45.489 35.7304 45.7795L35.7147 45.7834L35.7009 45.7873C34.3862 46.17 33.4875 47.4435 32.993 49.8591C32.7987 50.7794 32.7104 51.7272 32.6398 52.5729L32.6201 52.8476C32.5791 53.4983 32.5064 54.1467 32.4023 54.7903C32.2846 55.4261 32.1335 55.689 32.0314 55.7832V55.7852C32.0099 55.8048 31.9019 55.9147 31.429 55.7989C30.6088 55.481 29.9475 54.6588 29.4805 53.5089C29.0595 52.443 28.8309 51.3109 28.8054 50.1652V49.9631C28.8054 48.9191 28.8094 47.8183 28.4051 46.7135C28.046 45.7245 27.3631 44.7924 26.539 43.6759C26.0837 43.0283 25.9307 42.0276 25.966 41.1504Z" fill="#373737"/>
<path d="M31.56 92.18C30.288 92.18 29.136 91.904 28.104 91.352C27.084 90.788 26.28 90.014 25.692 89.03C25.116 88.046 24.828 86.936 24.828 85.7C24.828 84.464 25.122 83.354 25.71 82.37C26.298 81.386 27.102 80.618 28.122 80.066C29.154 79.502 30.306 79.22 31.578 79.22C32.61 79.22 33.552 79.4 34.404 79.76C35.256 80.12 35.976 80.642 36.564 81.326L35.052 82.748C34.14 81.764 33.018 81.272 31.686 81.272C30.822 81.272 30.048 81.464 29.364 81.848C28.68 82.22 28.146 82.742 27.762 83.414C27.378 84.086 27.186 84.848 27.186 85.7C27.186 86.552 27.378 87.314 27.762 87.986C28.146 88.658 28.68 89.186 29.364 89.57C30.048 89.942 30.822 90.128 31.686 90.128C33.018 90.128 34.14 89.63 35.052 88.634L36.564 90.074C35.976 90.758 35.25 91.28 34.386 91.64C33.534 92 32.592 92.18 31.56 92.18ZM45.835 84.296H42.469V92H40.219V84.296H36.835V82.388H45.835V84.296ZM51.3292 92.126C50.3572 92.126 49.4812 91.916 48.7012 91.496C47.9212 91.076 47.3092 90.494 46.8652 89.75C46.4332 88.994 46.2172 88.142 46.2172 87.194C46.2172 86.246 46.4332 85.4 46.8652 84.656C47.3092 83.912 47.9212 83.33 48.7012 82.91C49.4812 82.49 50.3572 82.28 51.3292 82.28C52.3132 82.28 53.1952 82.49 53.9752 82.91C54.7552 83.33 55.3612 83.912 55.7932 84.656C56.2372 85.4 56.4592 86.246 56.4592 87.194C56.4592 88.142 56.2372 88.994 55.7932 89.75C55.3612 90.494 54.7552 91.076 53.9752 91.496C53.1952 91.916 52.3132 92.126 51.3292 92.126ZM51.3292 90.2C52.1572 90.2 52.8412 89.924 53.3812 89.372C53.9212 88.82 54.1912 88.094 54.1912 87.194C54.1912 86.294 53.9212 85.568 53.3812 85.016C52.8412 84.464 52.1572 84.188 51.3292 84.188C50.5012 84.188 49.8172 84.464 49.2772 85.016C48.7492 85.568 48.4852 86.294 48.4852 87.194C48.4852 88.094 48.7492 88.82 49.2772 89.372C49.8172 89.924 50.5012 90.2 51.3292 90.2ZM68.1319 92V85.628L64.8919 90.992H63.9199L60.7339 85.61V92H58.6819V82.388H61.0399L64.4599 88.4L68.0419 82.388H70.1479L70.1659 92H68.1319ZM76.7659 82.28C78.1819 82.28 79.2619 82.622 80.0059 83.306C80.7619 83.978 81.1399 84.998 81.1399 86.366V92H79.0159V90.83C78.7399 91.25 78.3439 91.574 77.8279 91.802C77.3239 92.018 76.7119 92.126 75.9919 92.126C75.2719 92.126 74.6419 92.006 74.1019 91.766C73.5619 91.514 73.1419 91.172 72.8419 90.74C72.5539 90.296 72.4099 89.798 72.4099 89.246C72.4099 88.382 72.7279 87.692 73.3639 87.176C74.0119 86.648 75.0259 86.384 76.4059 86.384H78.8899V86.24C78.8899 85.568 78.6859 85.052 78.2779 84.692C77.8819 84.332 77.2879 84.152 76.4959 84.152C75.9559 84.152 75.4219 84.236 74.8939 84.404C74.3779 84.572 73.9399 84.806 73.5799 85.106L72.6979 83.468C73.2019 83.084 73.8079 82.79 74.5159 82.586C75.2239 82.382 75.9739 82.28 76.7659 82.28ZM76.4599 90.488C77.0239 90.488 77.5219 90.362 77.9539 90.11C78.3979 89.846 78.7099 89.474 78.8899 88.994V87.878H76.5679C75.2719 87.878 74.6239 88.304 74.6239 89.156C74.6239 89.564 74.7859 89.888 75.1099 90.128C75.4339 90.368 75.8839 90.488 76.4599 90.488ZM91.5381 84.296H88.1721V92H85.9221V84.296H82.5381V82.388H91.5381V84.296ZM97.0323 92.126C96.0603 92.126 95.1843 91.916 94.4043 91.496C93.6243 91.076 93.0123 90.494 92.5683 89.75C92.1363 88.994 91.9203 88.142 91.9203 87.194C91.9203 86.246 92.1363 85.4 92.5683 84.656C93.0123 83.912 93.6243 83.33 94.4043 82.91C95.1843 82.49 96.0603 82.28 97.0323 82.28C98.0163 82.28 98.8983 82.49 99.6783 82.91C100.458 83.33 101.064 83.912 101.496 84.656C101.94 85.4 102.162 86.246 102.162 87.194C102.162 88.142 101.94 88.994 101.496 89.75C101.064 90.494 100.458 91.076 99.6783 91.496C98.8983 91.916 98.0163 92.126 97.0323 92.126ZM97.0323 90.2C97.8603 90.2 98.5443 89.924 99.0843 89.372C99.6243 88.82 99.8943 88.094 99.8943 87.194C99.8943 86.294 99.6243 85.568 99.0843 85.016C98.5443 84.464 97.8603 84.188 97.0323 84.188C96.2043 84.188 95.5203 84.464 94.9803 85.016C94.4523 85.568 94.1883 86.294 94.1883 87.194C94.1883 88.094 94.4523 88.82 94.9803 89.372C95.5203 89.924 96.2043 90.2 97.0323 90.2ZM112.992 82.388V92H110.742V84.296H107.142L107.052 86.204C106.992 87.476 106.872 88.544 106.692 89.408C106.524 90.26 106.23 90.938 105.81 91.442C105.402 91.934 104.838 92.18 104.118 92.18C103.782 92.18 103.368 92.114 102.876 91.982L102.984 90.092C103.152 90.128 103.296 90.146 103.416 90.146C103.872 90.146 104.214 89.966 104.442 89.606C104.67 89.234 104.814 88.796 104.874 88.292C104.946 87.776 105.006 87.044 105.054 86.096L105.216 82.388H112.992ZM120.306 92.126C119.334 92.126 118.458 91.916 117.678 91.496C116.898 91.076 116.286 90.494 115.842 89.75C115.41 88.994 115.194 88.142 115.194 87.194C115.194 86.246 115.41 85.4 115.842 84.656C116.286 83.912 116.898 83.33 117.678 82.91C118.458 82.49 119.334 82.28 120.306 82.28C121.29 82.28 122.172 82.49 122.952 82.91C123.732 83.33 124.338 83.912 124.77 84.656C125.214 85.4 125.436 86.246 125.436 87.194C125.436 88.142 125.214 88.994 124.77 89.75C124.338 90.494 123.732 91.076 122.952 91.496C122.172 91.916 121.29 92.126 120.306 92.126ZM120.306 90.2C121.134 90.2 121.818 89.924 122.358 89.372C122.898 88.82 123.168 88.094 123.168 87.194C123.168 86.294 122.898 85.568 122.358 85.016C121.818 84.464 121.134 84.188 120.306 84.188C119.478 84.188 118.794 84.464 118.254 85.016C117.726 85.568 117.462 86.294 117.462 87.194C117.462 88.094 117.726 88.82 118.254 89.372C118.794 89.924 119.478 90.2 120.306 90.2ZM135.038 84.296H129.908V92H127.658V82.388H135.038V84.296ZM136.676 82.388H138.926V88.724L144.236 82.388H146.288V92H144.038V85.664L138.746 92H136.676V82.388ZM157.433 82.388V92H155.417V89.102H152.879L150.917 92H148.505L150.773 88.796C150.077 88.556 149.543 88.19 149.171 87.698C148.811 87.194 148.631 86.576 148.631 85.844C148.631 84.74 149.021 83.888 149.801 83.288C150.581 82.688 151.655 82.388 153.023 82.388H157.433ZM153.095 84.278C151.643 84.278 150.917 84.824 150.917 85.916C150.917 86.996 151.619 87.536 153.023 87.536H155.417V84.278H153.095Z" fill="#373737"/>
</svg>
