<svg width="229" height="131" viewBox="0 0 229 131" fill="none" xmlns="http://www.w3.org/2000/svg">
<rect x="0.5" y="0.5" width="227.074" height="130" rx="4.5" fill="#232C4F" stroke="#232C4F"/>
<path d="M48.069 38.2382C47.8088 38.2382 47.5593 38.3415 47.3753 38.5255C47.1913 38.7095 47.0879 38.9591 47.0879 39.2193C47.0879 39.4795 47.1913 39.7291 47.3753 39.9131C47.5593 40.0971 47.8088 40.2004 48.069 40.2004C48.5439 40.2004 48.9364 40.3417 49.2209 40.5929C49.4995 40.8421 49.7605 41.2738 49.8351 42.0215C49.848 42.1497 49.886 42.2741 49.947 42.3876C50.0079 42.5011 50.0906 42.6015 50.1904 42.683C50.2902 42.7646 50.405 42.8257 50.5284 42.8628C50.6518 42.9 50.7813 42.9125 50.9095 42.8996C51.0377 42.8867 51.1621 42.8487 51.2756 42.7877C51.3891 42.7268 51.4895 42.644 51.571 42.5443C51.6526 42.4445 51.7137 42.3297 51.7508 42.2063C51.788 42.0829 51.8005 41.9534 51.7876 41.8252C51.6738 40.6812 51.2342 39.7609 50.5258 39.129C49.8449 38.539 48.9699 38.2217 48.069 38.2382V38.2382Z" fill="white"/>
<path d="M41.2476 35.4088C40.5463 34.8258 39.7232 34.4076 38.8389 34.1848C37.9546 33.962 37.0316 33.9404 36.1378 34.1215C34.5327 34.4355 33.1159 35.3224 32.176 36.3389L32.172 36.3448C31.1458 37.4711 30.0959 38.935 30.0057 41.068V41.0719C29.9664 42.1198 30.1156 43.6484 30.9417 44.8179L30.9535 44.8317C31.8286 46.0189 32.3172 46.7135 32.5625 47.3846C32.8431 48.1538 32.8431 48.9309 32.8431 50.0867V50.1809C32.853 51.2994 33.0904 52.8437 33.6614 54.2487C34.2266 55.6341 35.1979 57.0744 36.7991 57.6572L36.8384 57.671L36.8815 57.6827C37.8097 57.93 38.6986 57.8476 39.3736 57.2177C39.9623 56.6682 40.1978 55.8558 40.3312 55.1514C40.4529 54.5019 40.5137 53.7464 40.5746 53.0125L40.5962 52.7358C40.6668 51.8881 40.7473 51.0482 40.9121 50.2594V50.2535C41.3575 48.0891 41.9953 47.7496 42.2406 47.6731C42.9666 47.4867 43.4022 47.5848 43.6848 47.7457C43.9909 47.9203 44.2735 48.2559 44.5188 48.8092C45.0251 49.9572 45.1742 51.5839 45.3115 53.091C45.4293 54.5882 45.7432 55.9657 46.3594 56.8586C46.6832 57.3276 47.1482 57.7436 47.784 57.879C48.4257 58.0183 49.0438 57.8279 49.5795 57.4865C51.53 56.2404 52.6486 53.6679 52.9429 50.3143C53.0803 48.7229 53.2412 48.0126 53.4786 47.4396C53.6003 47.1452 53.7533 46.8626 53.9692 46.4918L54.1772 46.1386C54.3538 45.8442 54.5598 45.4949 54.7855 45.0907L54.7894 45.0887C55.2133 44.3274 55.9118 42.9341 55.9923 41.3015C56.0767 39.5982 55.4821 37.7243 53.4904 36.1113C51.5948 34.5728 49.817 34.0057 48.2177 34.0901C46.6341 34.1725 45.3685 34.8868 44.4638 35.6501L44.4324 35.6776L44.405 35.7051C43.5455 36.5645 43.1825 36.6764 42.9862 36.6666C42.7468 36.6568 42.3034 36.4645 41.3301 35.4814L41.2908 35.4421L41.2476 35.4088V35.4088ZM31.966 41.1504C32.0288 39.6924 32.7176 38.6583 33.6202 37.6693C34.307 36.9276 35.3588 36.2741 36.5126 36.0485C37.1175 35.923 37.7428 35.9347 38.3425 36.0828C38.9422 36.2309 39.5011 36.5115 39.978 36.904C40.9003 37.8322 41.8265 38.5818 42.9019 38.6289C44.0204 38.676 44.9269 37.9538 45.7609 37.1238C46.4418 36.5547 47.3033 36.1034 48.3197 36.0485C49.3362 35.9955 50.6509 36.335 52.2541 37.634C53.7435 38.8408 54.0869 40.1065 54.032 41.2054C53.9751 42.369 53.4629 43.4345 53.0763 44.1292C52.8168 44.5916 52.5492 45.0496 52.2738 45.5028C52.0461 45.8952 51.8401 46.2681 51.6654 46.688C51.3122 47.5436 51.1317 48.4972 50.9865 50.1416C50.7137 53.2558 49.713 55.0729 48.5238 55.8323C48.4434 55.8874 48.3546 55.9291 48.2609 55.9559C48.2157 55.9657 48.1981 55.9618 48.1961 55.9618C48.1942 55.9618 48.1765 55.9579 48.1412 55.9324C48.0762 55.8785 48.0199 55.815 47.9744 55.744C47.6604 55.2927 47.3778 54.3468 47.2679 52.932V52.9202L47.2542 52.7731C47.1286 51.3798 46.9559 49.4725 46.3143 48.0184C45.9748 47.2473 45.4607 46.4977 44.6542 46.0385C43.8261 45.5675 42.8371 45.489 41.7304 45.7795L41.7147 45.7834L41.7009 45.7873C40.3862 46.17 39.4875 47.4435 38.993 49.8591C38.7987 50.7794 38.7104 51.7272 38.6398 52.5729L38.6201 52.8476C38.5791 53.4983 38.5064 54.1467 38.4023 54.7903C38.2846 55.4261 38.1335 55.689 38.0314 55.7832V55.7852C38.0099 55.8048 37.9019 55.9147 37.429 55.7989C36.6088 55.481 35.9475 54.6588 35.4805 53.5089C35.0595 52.443 34.8309 51.3109 34.8054 50.1652V49.9631C34.8054 48.9191 34.8094 47.8183 34.4051 46.7135C34.046 45.7245 33.3631 44.7924 32.539 43.6759C32.0837 43.0283 31.9307 42.0276 31.966 41.1504V41.1504Z" fill="white"/>
<path d="M37.56 92.18C36.288 92.18 35.136 91.904 34.104 91.352C33.084 90.788 32.28 90.014 31.692 89.03C31.116 88.046 30.828 86.936 30.828 85.7C30.828 84.464 31.122 83.354 31.71 82.37C32.298 81.386 33.102 80.618 34.122 80.066C35.154 79.502 36.306 79.22 37.578 79.22C38.61 79.22 39.552 79.4 40.404 79.76C41.256 80.12 41.976 80.642 42.564 81.326L41.052 82.748C40.14 81.764 39.018 81.272 37.686 81.272C36.822 81.272 36.048 81.464 35.364 81.848C34.68 82.22 34.146 82.742 33.762 83.414C33.378 84.086 33.186 84.848 33.186 85.7C33.186 86.552 33.378 87.314 33.762 87.986C34.146 88.658 34.68 89.186 35.364 89.57C36.048 89.942 36.822 90.128 37.686 90.128C39.018 90.128 40.14 89.63 41.052 88.634L42.564 90.074C41.976 90.758 41.25 91.28 40.386 91.64C39.534 92 38.592 92.18 37.56 92.18ZM51.835 84.296H48.469V92H46.219V84.296H42.835V82.388H51.835V84.296ZM57.3292 92.126C56.3572 92.126 55.4812 91.916 54.7012 91.496C53.9212 91.076 53.3092 90.494 52.8652 89.75C52.4332 88.994 52.2172 88.142 52.2172 87.194C52.2172 86.246 52.4332 85.4 52.8652 84.656C53.3092 83.912 53.9212 83.33 54.7012 82.91C55.4812 82.49 56.3572 82.28 57.3292 82.28C58.3132 82.28 59.1952 82.49 59.9752 82.91C60.7552 83.33 61.3612 83.912 61.7932 84.656C62.2372 85.4 62.4592 86.246 62.4592 87.194C62.4592 88.142 62.2372 88.994 61.7932 89.75C61.3612 90.494 60.7552 91.076 59.9752 91.496C59.1952 91.916 58.3132 92.126 57.3292 92.126ZM57.3292 90.2C58.1572 90.2 58.8412 89.924 59.3812 89.372C59.9212 88.82 60.1912 88.094 60.1912 87.194C60.1912 86.294 59.9212 85.568 59.3812 85.016C58.8412 84.464 58.1572 84.188 57.3292 84.188C56.5012 84.188 55.8172 84.464 55.2772 85.016C54.7492 85.568 54.4852 86.294 54.4852 87.194C54.4852 88.094 54.7492 88.82 55.2772 89.372C55.8172 89.924 56.5012 90.2 57.3292 90.2ZM74.1319 92V85.628L70.8919 90.992H69.9199L66.7339 85.61V92H64.6819V82.388H67.0399L70.4599 88.4L74.0419 82.388H76.1479L76.1659 92H74.1319ZM82.7659 82.28C84.1819 82.28 85.2619 82.622 86.0059 83.306C86.7619 83.978 87.1399 84.998 87.1399 86.366V92H85.0159V90.83C84.7399 91.25 84.3439 91.574 83.8279 91.802C83.3239 92.018 82.7119 92.126 81.9919 92.126C81.2719 92.126 80.6419 92.006 80.1019 91.766C79.5619 91.514 79.1419 91.172 78.8419 90.74C78.5539 90.296 78.4099 89.798 78.4099 89.246C78.4099 88.382 78.7279 87.692 79.3639 87.176C80.0119 86.648 81.0259 86.384 82.4059 86.384H84.8899V86.24C84.8899 85.568 84.6859 85.052 84.2779 84.692C83.8819 84.332 83.2879 84.152 82.4959 84.152C81.9559 84.152 81.4219 84.236 80.8939 84.404C80.3779 84.572 79.9399 84.806 79.5799 85.106L78.6979 83.468C79.2019 83.084 79.8079 82.79 80.5159 82.586C81.2239 82.382 81.9739 82.28 82.7659 82.28ZM82.4599 90.488C83.0239 90.488 83.5219 90.362 83.9539 90.11C84.3979 89.846 84.7099 89.474 84.8899 88.994V87.878H82.5679C81.2719 87.878 80.6239 88.304 80.6239 89.156C80.6239 89.564 80.7859 89.888 81.1099 90.128C81.4339 90.368 81.8839 90.488 82.4599 90.488ZM97.5381 84.296H94.1721V92H91.9221V84.296H88.5381V82.388H97.5381V84.296ZM103.032 92.126C102.06 92.126 101.184 91.916 100.404 91.496C99.6243 91.076 99.0123 90.494 98.5683 89.75C98.1363 88.994 97.9203 88.142 97.9203 87.194C97.9203 86.246 98.1363 85.4 98.5683 84.656C99.0123 83.912 99.6243 83.33 100.404 82.91C101.184 82.49 102.06 82.28 103.032 82.28C104.016 82.28 104.898 82.49 105.678 82.91C106.458 83.33 107.064 83.912 107.496 84.656C107.94 85.4 108.162 86.246 108.162 87.194C108.162 88.142 107.94 88.994 107.496 89.75C107.064 90.494 106.458 91.076 105.678 91.496C104.898 91.916 104.016 92.126 103.032 92.126ZM103.032 90.2C103.86 90.2 104.544 89.924 105.084 89.372C105.624 88.82 105.894 88.094 105.894 87.194C105.894 86.294 105.624 85.568 105.084 85.016C104.544 84.464 103.86 84.188 103.032 84.188C102.204 84.188 101.52 84.464 100.98 85.016C100.452 85.568 100.188 86.294 100.188 87.194C100.188 88.094 100.452 88.82 100.98 89.372C101.52 89.924 102.204 90.2 103.032 90.2ZM118.992 82.388V92H116.742V84.296H113.142L113.052 86.204C112.992 87.476 112.872 88.544 112.692 89.408C112.524 90.26 112.23 90.938 111.81 91.442C111.402 91.934 110.838 92.18 110.118 92.18C109.782 92.18 109.368 92.114 108.876 91.982L108.984 90.092C109.152 90.128 109.296 90.146 109.416 90.146C109.872 90.146 110.214 89.966 110.442 89.606C110.67 89.234 110.814 88.796 110.874 88.292C110.946 87.776 111.006 87.044 111.054 86.096L111.216 82.388H118.992ZM126.306 92.126C125.334 92.126 124.458 91.916 123.678 91.496C122.898 91.076 122.286 90.494 121.842 89.75C121.41 88.994 121.194 88.142 121.194 87.194C121.194 86.246 121.41 85.4 121.842 84.656C122.286 83.912 122.898 83.33 123.678 82.91C124.458 82.49 125.334 82.28 126.306 82.28C127.29 82.28 128.172 82.49 128.952 82.91C129.732 83.33 130.338 83.912 130.77 84.656C131.214 85.4 131.436 86.246 131.436 87.194C131.436 88.142 131.214 88.994 130.77 89.75C130.338 90.494 129.732 91.076 128.952 91.496C128.172 91.916 127.29 92.126 126.306 92.126ZM126.306 90.2C127.134 90.2 127.818 89.924 128.358 89.372C128.898 88.82 129.168 88.094 129.168 87.194C129.168 86.294 128.898 85.568 128.358 85.016C127.818 84.464 127.134 84.188 126.306 84.188C125.478 84.188 124.794 84.464 124.254 85.016C123.726 85.568 123.462 86.294 123.462 87.194C123.462 88.094 123.726 88.82 124.254 89.372C124.794 89.924 125.478 90.2 126.306 90.2ZM141.038 84.296H135.908V92H133.658V82.388H141.038V84.296ZM142.676 82.388H144.926V88.724L150.236 82.388H152.288V92H150.038V85.664L144.746 92H142.676V82.388ZM163.433 82.388V92H161.417V89.102H158.879L156.917 92H154.505L156.773 88.796C156.077 88.556 155.543 88.19 155.171 87.698C154.811 87.194 154.631 86.576 154.631 85.844C154.631 84.74 155.021 83.888 155.801 83.288C156.581 82.688 157.655 82.388 159.023 82.388H163.433ZM159.095 84.278C157.643 84.278 156.917 84.824 156.917 85.916C156.917 86.996 157.619 87.536 159.023 87.536H161.417V84.278H159.095Z" fill="white"/>
</svg>
