<svg width="40" height="40" viewBox="0 0 40 40" fill="none" xmlns="http://www.w3.org/2000/svg">
<circle cx="20" cy="20" r="20" fill="#003457"/>
<path d="M19.3937 28.4345C19.3937 29.4904 18.5379 30.3462 17.482 30.3462C16.426 30.3462 15.5703 29.4904 15.5703 28.4345C15.5703 27.3785 16.426 26.5228 17.482 26.5228C18.5379 26.5228 19.3937 27.3785 19.3937 28.4345ZM25.2224 26.5228C24.1665 26.5228 23.3107 27.3785 23.3107 28.4345C23.3107 29.4904 24.1665 30.3462 25.2224 30.3462C26.2784 30.3462 27.1341 29.4904 27.1341 28.4345C27.1341 27.3785 26.2784 26.5228 25.2224 26.5228ZM31.1556 17.5487L28.8037 24.54C28.8037 24.54 28.6088 25.5777 27.6175 25.5777C26.6261 25.5777 16.9244 25.5777 15.7404 25.5777C14.5563 25.5777 14.5068 24.2774 14.5068 24.2774C14.5068 24.2774 13.2442 14.9136 13.1817 14.3485C13.1193 13.7834 12.396 13.3636 12.396 13.3636L9.28406 11.9094C7.57903 11.0181 8.35404 9.32273 9.28406 9.71239C13.2313 11.5746 15.0644 12.4906 15.1817 13.2237C15.3012 13.9588 15.5089 15.7274 15.5089 15.7274V15.7392C15.5326 15.7317 15.5498 15.7274 15.5498 15.7274C15.5498 15.7274 27.653 15.7274 30.0975 15.7274C31.8531 15.7285 31.1556 17.5519 31.1556 17.5487ZM27.7531 21.4421L27.7294 21.4432H16.2151L16.4519 23.3247H27.1934L27.7531 21.4421ZM28.8747 17.6466H15.7382L15.9912 19.6574C18.511 19.6574 25.8898 19.6574 28.2805 19.6574L28.8747 17.6466Z" fill="white"/>
</svg>
