<svg width="40" height="40" viewBox="0 0 40 40" fill="none" xmlns="http://www.w3.org/2000/svg">
<circle cx="20" cy="20" r="20" fill="#003457"/>
<path d="M11.8101 19.1443V16.5581C12.0485 16.5581 12.2425 16.3642 12.2425 16.1257C12.2425 15.8873 12.0485 15.6934 11.8101 15.6934C10.622 15.6934 9.65625 16.6632 9.65625 17.8512V18.7119C9.65625 19.4232 10.2381 20.0051 10.9494 20.0051H11.8101C12.0485 20.0051 12.2425 19.8111 12.2425 19.5727C12.2425 19.3343 12.0485 19.1443 11.8101 19.1443Z" fill="white"/>
<path d="M28.1902 15.6934C27.9518 15.6934 27.7578 15.8873 27.7578 16.1257C27.7578 16.3642 27.9518 16.5581 28.1902 16.5581V19.1443C27.9518 19.1443 27.7578 19.3383 27.7578 19.5767C27.7578 19.8151 27.9518 20.0091 28.1902 20.0091H29.0509C29.7621 20.0091 30.344 19.4272 30.344 18.716V17.8553C30.344 16.6632 29.3782 15.6934 28.1902 15.6934Z" fill="white"/>
<path d="M16.983 27.7607C16.7445 27.7607 16.5506 27.9547 16.5506 28.1931H13.9644C13.9644 27.9547 13.7704 27.7607 13.532 27.7607C13.2936 27.7607 13.0996 27.9547 13.0996 28.1931V29.0538C13.0996 29.7651 13.6815 30.3469 14.3927 30.3469H16.1222C16.8334 30.3469 17.4153 29.7651 17.4153 29.0538V28.1931C17.4153 27.9547 17.2214 27.7607 16.983 27.7607Z" fill="white"/>
<path d="M26.4654 27.7607C26.227 27.7607 26.033 27.9547 26.033 28.1931H23.4468C23.4468 27.9547 23.2528 27.7607 23.0144 27.7607C22.776 27.7607 22.582 27.9547 22.582 28.1931V29.0538C22.582 29.7651 23.1639 30.3469 23.8751 30.3469H25.6006C26.3118 30.3469 26.8937 29.7651 26.8937 29.0538V28.1931C26.8978 27.9547 26.7038 27.7607 26.4654 27.7607Z" fill="white"/>
<path d="M26.4657 9.65674H13.5347C12.3466 9.65674 11.3809 10.6225 11.3809 11.8106V26.4671C11.3809 27.6551 12.3466 28.6209 13.5347 28.6209H26.4657C27.6538 28.6209 28.6195 27.6551 28.6195 26.4671V11.8106C28.6195 10.6225 27.6538 9.65674 26.4657 9.65674ZM15.2602 11.3822H24.7443C25.4555 11.3822 26.0374 11.9641 26.0374 12.6753C26.0374 13.3865 25.4555 13.9684 24.7443 13.9684H15.2602C14.549 13.9684 13.9671 13.3865 13.9671 12.6753C13.9671 11.9601 14.5449 11.3822 15.2602 11.3822ZM15.2602 26.0347C14.549 26.0347 13.9671 25.4528 13.9671 24.7416C13.9671 24.0304 14.549 23.4485 15.2602 23.4485C15.9714 23.4485 16.5533 24.0304 16.5533 24.7416C16.5533 25.4528 15.9714 26.0347 15.2602 26.0347ZM24.7402 26.0347C24.029 26.0347 23.4471 25.4528 23.4471 24.7416C23.4471 24.0304 24.029 23.4485 24.7402 23.4485C25.4514 23.4485 26.0333 24.0304 26.0333 24.7416C26.0333 25.4528 25.4555 26.0347 24.7402 26.0347ZM26.8981 20.4339C26.8981 21.1452 26.3162 21.727 25.605 21.727H14.3954C13.6842 21.727 13.1023 21.1452 13.1023 20.4339V16.1223C13.1023 15.411 13.6842 14.8292 14.3954 14.8292H25.601C26.3122 14.8292 26.8941 15.411 26.8941 16.1223L26.8981 20.4339Z" fill="white"/>
</svg>
