<svg width="21" height="27" viewBox="0 0 21 27" fill="none" xmlns="http://www.w3.org/2000/svg">
<path d="M14.4375 22.3125H6.5625V24.9375C6.5625 25.2856 6.42422 25.6194 6.17808 25.8656C5.93194 26.1117 5.5981 26.25 5.25 26.25H3.9375C3.5894 26.25 3.25556 26.1117 3.00942 25.8656C2.76328 25.6194 2.625 25.2856 2.625 24.9375V21.6103C1.82655 21.1496 1.16354 20.4867 0.702721 19.6884C0.2419 18.89 -0.000472663 17.9843 6.9202e-07 17.0625V5.25C6.9202e-07 3.85761 0.553124 2.52226 1.53769 1.53769C2.52226 0.553123 3.85761 0 5.25 0H15.75C17.1424 0 18.4777 0.553123 19.4623 1.53769C20.4469 2.52226 21 3.85761 21 5.25V17.0625C21 19.005 19.9448 20.7021 18.375 21.6103V24.9375C18.375 25.2856 18.2367 25.6194 17.9906 25.8656C17.7444 26.1117 17.4106 26.25 17.0625 26.25H15.75C15.4019 26.25 15.0681 26.1117 14.8219 25.8656C14.5758 25.6194 14.4375 25.2856 14.4375 24.9375V22.3125ZM18.375 11.8125V5.25C18.375 4.55381 18.0984 3.88613 17.6062 3.39384C17.1139 2.90156 16.4462 2.625 15.75 2.625H5.25C4.55381 2.625 3.88613 2.90156 3.39385 3.39384C2.90156 3.88613 2.625 4.55381 2.625 5.25V11.8125H18.375ZM18.375 14.4375H2.625V17.0625C2.625 17.7587 2.90156 18.4264 3.39385 18.9187C3.88613 19.4109 4.55381 19.6875 5.25 19.6875H15.75C16.4462 19.6875 17.1139 19.4109 17.6062 18.9187C18.0984 18.4264 18.375 17.7587 18.375 17.0625V14.4375ZM5.25 3.9375C5.5981 3.9375 5.93194 4.07578 6.17808 4.32192C6.42422 4.56806 6.5625 4.9019 6.5625 5.25V9.1875C6.5625 9.5356 6.42422 9.86944 6.17808 10.1156C5.93194 10.3617 5.5981 10.5 5.25 10.5C4.9019 10.5 4.56806 10.3617 4.32192 10.1156C4.07578 9.86944 3.9375 9.5356 3.9375 9.1875V5.25C3.9375 4.9019 4.07578 4.56806 4.32192 4.32192C4.56806 4.07578 4.9019 3.9375 5.25 3.9375ZM5.25 18.375C4.9019 18.375 4.56806 18.2367 4.32192 17.9906C4.07578 17.7444 3.9375 17.4106 3.9375 17.0625C3.9375 16.7144 4.07578 16.3806 4.32192 16.1344C4.56806 15.8883 4.9019 15.75 5.25 15.75C5.5981 15.75 5.93194 15.8883 6.17808 16.1344C6.42422 16.3806 6.5625 16.7144 6.5625 17.0625C6.5625 17.4106 6.42422 17.7444 6.17808 17.9906C5.93194 18.2367 5.5981 18.375 5.25 18.375ZM15.75 18.375C15.4019 18.375 15.0681 18.2367 14.8219 17.9906C14.5758 17.7444 14.4375 17.4106 14.4375 17.0625C14.4375 16.7144 14.5758 16.3806 14.8219 16.1344C15.0681 15.8883 15.4019 15.75 15.75 15.75C16.0981 15.75 16.4319 15.8883 16.6781 16.1344C16.9242 16.3806 17.0625 16.7144 17.0625 17.0625C17.0625 17.4106 16.9242 17.7444 16.6781 17.9906C16.4319 18.2367 16.0981 18.375 15.75 18.375Z" fill="#232C4F"/>
</svg>
