<svg width="229" height="131" viewBox="0 0 229 131" fill="none" xmlns="http://www.w3.org/2000/svg">
<rect x="0.5" y="0.5" width="227.074" height="130" rx="4.5" fill="#232C4F" stroke="#232C4F"/>
<path d="M52.9293 47.0429C52.4505 45.3074 51.4156 43.7769 49.9833 42.6862C48.551 41.5955 46.8004 41.0049 45.0001 41.0049C43.1998 41.0049 41.4492 41.5955 40.0169 42.6862C38.5846 43.7769 37.5497 45.3074 37.071 47.0429L35.9301 51.1786C35.7252 51.9212 35.6947 52.701 35.8408 53.4573C35.9869 54.2137 36.3057 54.926 36.7724 55.5388C37.2391 56.1517 37.841 56.6485 38.5312 56.9904C39.2214 57.3324 39.9813 57.5103 40.7516 57.5103H49.2486C50.0189 57.5103 50.7788 57.3324 51.4691 56.9904C52.1593 56.6485 52.7612 56.1517 53.2279 55.5388C53.6945 54.926 54.0134 54.2137 54.1595 53.4573C54.3056 52.701 54.275 51.9212 54.0702 51.1786L52.9293 47.0429ZM51.6362 54.3265C51.3575 54.6956 50.9966 54.9946 50.5821 55.2C50.1677 55.4054 49.7112 55.5114 49.2486 55.5097H40.7516C40.2894 55.5097 39.8335 55.4029 39.4193 55.1977C39.0052 54.9926 38.644 54.6945 38.364 54.3268C38.084 53.9591 37.8927 53.5317 37.8051 53.0779C37.7174 52.6241 37.7357 52.1562 37.8587 51.7106L38.9995 47.5749C39.3618 46.2616 40.145 45.1034 41.229 44.2779C42.3129 43.4525 43.6377 43.0056 45.0001 43.0056C46.3625 43.0056 47.6873 43.4525 48.7713 44.2779C49.8552 45.1034 50.6384 46.2616 51.0007 47.5749L52.1416 51.7106C52.2663 52.156 52.2855 52.6243 52.1978 53.0784C52.1101 53.5325 51.9178 53.9599 51.6362 54.3268V54.3265Z" fill="white"/>
<path d="M38.129 42.3998C38.303 41.3119 38.0722 40.1474 37.4788 39.1198C36.8853 38.0922 35.992 37.31 34.9631 36.9168C33.8613 36.496 32.7374 36.563 31.7975 37.1054C29.9289 38.1843 29.4372 40.8432 30.7016 43.0327C31.2948 44.0603 32.1882 44.8427 33.2171 45.2357C33.6728 45.4133 34.1573 45.5059 34.6465 45.5089C35.2559 45.5112 35.855 45.3517 36.3827 45.047C37.3221 44.5045 37.9423 43.5644 38.129 42.3998ZM36.1533 42.0836C36.0639 42.6418 35.7901 43.0789 35.3823 43.3144C34.9745 43.5498 34.459 43.5683 33.9307 43.3667C33.3297 43.1372 32.7982 42.6633 32.4339 42.0324C31.7337 40.8195 31.9001 39.3565 32.7978 38.8381C33.0235 38.71 33.279 38.644 33.5385 38.6469C33.7819 38.6494 34.0227 38.6964 34.2492 38.7855C34.8502 39.0151 35.3818 39.489 35.746 40.1199C36.1103 40.7508 36.2549 41.4483 36.1533 42.0836Z" fill="white"/>
<path d="M38.3454 38.2551C39.0557 38.8229 39.867 39.1187 40.6873 39.1186C40.933 39.1185 41.178 39.0921 41.4181 39.0398C43.5265 38.5814 44.8048 36.1986 44.2678 33.7282C44.0158 32.5686 43.4032 31.5514 42.543 30.8636C41.6217 30.1271 40.5305 29.8483 39.4703 30.0789C37.3619 30.5372 36.0836 32.9199 36.6206 35.3904C36.8726 36.55 37.4852 37.5673 38.3454 38.2551ZM39.8951 32.0339C39.9924 32.0129 40.0915 32.0025 40.191 32.0026C40.5629 32.0026 40.9454 32.1481 41.2937 32.4266C41.7961 32.8283 42.1581 33.4416 42.3128 34.1535C42.6104 35.5224 42.006 36.8649 40.9931 37.0851C40.5329 37.1851 40.0363 37.0458 39.5947 36.6927C39.0923 36.291 38.7303 35.6777 38.5757 34.9659C38.278 33.5966 38.8823 32.2541 39.8951 32.0339Z" fill="white"/>
<path d="M58.2023 37.1054C57.2628 36.563 56.1383 36.496 55.0367 36.9168C54.0078 37.3099 53.1144 38.0922 52.5211 39.1198C51.9279 40.1474 51.697 41.3122 51.8709 42.3998C52.0574 43.5644 52.6774 44.5045 53.6172 45.047C54.1449 45.3518 54.744 45.5112 55.3534 45.5089C55.8426 45.5059 56.3271 45.4133 56.7829 45.2357C57.8117 44.8427 58.7051 44.0603 59.2984 43.0327C60.5626 40.8432 60.0709 38.1843 58.2023 37.1054ZM57.5659 42.0324C57.2016 42.6633 56.6701 43.1372 56.0691 43.3667C55.541 43.5685 55.0255 43.5499 54.6176 43.3144C54.2098 43.0788 53.9362 42.6418 53.8466 42.0836C53.7449 41.4483 53.8895 40.751 54.2538 40.1204C54.6181 39.4899 55.1496 39.0157 55.7506 38.7861C55.977 38.6969 56.2179 38.6498 56.4613 38.6472C56.7208 38.6444 56.9763 38.7103 57.202 38.8384C58.0997 39.3564 58.2663 40.8192 57.5659 42.0324Z" fill="white"/>
<path d="M48.5816 39.0397C48.8217 39.092 49.0667 39.1184 49.3124 39.1185C50.1327 39.1185 50.9442 38.8228 51.6543 38.255C52.5145 37.5672 53.1271 36.5499 53.3791 35.3904C53.9161 32.9199 52.6378 30.5371 50.5294 30.0788C49.4693 29.8484 48.378 30.127 47.4567 30.8635C46.5965 31.5513 45.9839 32.5686 45.7319 33.728C45.1949 36.1985 46.4732 38.5813 48.5816 39.0397ZM47.6869 34.1531C47.8416 33.4411 48.2036 32.8276 48.706 32.4262C49.0544 32.1477 49.4368 32.0022 49.8087 32.0022C49.9082 32.002 50.0073 32.0125 50.1045 32.0335C51.1174 32.2537 51.7217 33.5965 51.4242 34.9651C51.2694 35.677 50.9074 36.2905 50.4051 36.692C49.9636 37.045 49.4673 37.1843 49.0067 37.0843C47.9937 36.8644 47.3893 35.5218 47.6869 34.1531Z" fill="white"/>
<path d="M40.062 85.448C40.866 85.664 41.478 86.036 41.898 86.564C42.318 87.08 42.528 87.728 42.528 88.508C42.528 89.612 42.12 90.47 41.304 91.082C40.488 91.694 39.306 92 37.758 92H31.782V79.4H37.416C38.832 79.4 39.936 79.682 40.728 80.246C41.52 80.81 41.916 81.608 41.916 82.64C41.916 83.3 41.754 83.87 41.43 84.35C41.118 84.83 40.662 85.196 40.062 85.448ZM34.086 84.782H37.218C37.974 84.782 38.55 84.632 38.946 84.332C39.342 84.032 39.54 83.588 39.54 83C39.54 82.412 39.342 81.968 38.946 81.668C38.55 81.356 37.974 81.2 37.218 81.2H34.086V84.782ZM37.686 90.2C39.342 90.2 40.17 89.576 40.17 88.328C40.17 87.104 39.342 86.492 37.686 86.492H34.086V90.2H37.686ZM53.9417 87.248C53.9417 87.404 53.9297 87.626 53.9057 87.914H46.3637C46.4957 88.622 46.8377 89.186 47.3897 89.606C47.9537 90.014 48.6497 90.218 49.4777 90.218C50.5337 90.218 51.4037 89.87 52.0877 89.174L53.2937 90.56C52.8617 91.076 52.3157 91.466 51.6557 91.73C50.9957 91.994 50.2517 92.126 49.4237 92.126C48.3677 92.126 47.4377 91.916 46.6337 91.496C45.8297 91.076 45.2057 90.494 44.7617 89.75C44.3297 88.994 44.1137 88.142 44.1137 87.194C44.1137 86.258 44.3237 85.418 44.7437 84.674C45.1757 83.918 45.7697 83.33 46.5257 82.91C47.2817 82.49 48.1337 82.28 49.0817 82.28C50.0177 82.28 50.8517 82.49 51.5837 82.91C52.3277 83.318 52.9037 83.9 53.3117 84.656C53.7317 85.4 53.9417 86.264 53.9417 87.248ZM49.0817 84.08C48.3617 84.08 47.7497 84.296 47.2457 84.728C46.7537 85.148 46.4537 85.712 46.3457 86.42H51.7997C51.7037 85.724 51.4097 85.16 50.9177 84.728C50.4257 84.296 49.8137 84.08 49.0817 84.08ZM63.6651 84.296H60.2991V92H58.0491V84.296H54.6651V82.388H63.6651V84.296ZM73.8753 87.248C73.8753 87.404 73.8633 87.626 73.8393 87.914H66.2973C66.4293 88.622 66.7713 89.186 67.3233 89.606C67.8873 90.014 68.5833 90.218 69.4113 90.218C70.4673 90.218 71.3373 89.87 72.0213 89.174L73.2273 90.56C72.7953 91.076 72.2493 91.466 71.5893 91.73C70.9293 91.994 70.1853 92.126 69.3573 92.126C68.3013 92.126 67.3713 91.916 66.5673 91.496C65.7633 91.076 65.1393 90.494 64.6953 89.75C64.2633 88.994 64.0473 88.142 64.0473 87.194C64.0473 86.258 64.2573 85.418 64.6773 84.674C65.1093 83.918 65.7033 83.33 66.4593 82.91C67.2153 82.49 68.0673 82.28 69.0153 82.28C69.9513 82.28 70.7853 82.49 71.5173 82.91C72.2613 83.318 72.8373 83.9 73.2453 84.656C73.6653 85.4 73.8753 86.264 73.8753 87.248ZM69.0153 84.08C68.2953 84.08 67.6833 84.296 67.1793 84.728C66.6873 85.148 66.3873 85.712 66.2793 86.42H71.7333C71.6373 85.724 71.3433 85.16 70.8513 84.728C70.3593 84.296 69.7473 84.08 69.0153 84.08ZM81.6642 82.28C82.6002 82.28 83.4342 82.484 84.1662 82.892C84.9102 83.3 85.4922 83.876 85.9122 84.62C86.3322 85.364 86.5422 86.222 86.5422 87.194C86.5422 88.166 86.3322 89.03 85.9122 89.786C85.4922 90.53 84.9102 91.106 84.1662 91.514C83.4342 91.922 82.6002 92.126 81.6642 92.126C80.3682 92.126 79.3422 91.694 78.5862 90.83V95.492H76.3362V82.388H78.4782V83.648C78.8502 83.192 79.3062 82.85 79.8462 82.622C80.3982 82.394 81.0042 82.28 81.6642 82.28ZM81.4122 90.2C82.2402 90.2 82.9182 89.924 83.4462 89.372C83.9862 88.82 84.2562 88.094 84.2562 87.194C84.2562 86.294 83.9862 85.568 83.4462 85.016C82.9182 84.464 82.2402 84.188 81.4122 84.188C80.8722 84.188 80.3862 84.314 79.9542 84.566C79.5222 84.806 79.1802 85.154 78.9282 85.61C78.6762 86.066 78.5502 86.594 78.5502 87.194C78.5502 87.794 78.6762 88.322 78.9282 88.778C79.1802 89.234 79.5222 89.588 79.9542 89.84C80.3862 90.08 80.8722 90.2 81.4122 90.2ZM88.7815 82.388H91.0315V88.724L96.3415 82.388H98.3935V92H96.1435V85.664L90.8515 92H88.7815V82.388ZM101.42 82.388H103.67V86.294H108.512V82.388H110.762V92H108.512V88.202H103.67V92H101.42V82.388ZM117.36 82.28C118.776 82.28 119.856 82.622 120.6 83.306C121.356 83.978 121.734 84.998 121.734 86.366V92H119.61V90.83C119.334 91.25 118.938 91.574 118.422 91.802C117.918 92.018 117.306 92.126 116.586 92.126C115.866 92.126 115.236 92.006 114.696 91.766C114.156 91.514 113.736 91.172 113.436 90.74C113.148 90.296 113.004 89.798 113.004 89.246C113.004 88.382 113.322 87.692 113.958 87.176C114.606 86.648 115.62 86.384 117 86.384H119.484V86.24C119.484 85.568 119.28 85.052 118.872 84.692C118.476 84.332 117.882 84.152 117.09 84.152C116.55 84.152 116.016 84.236 115.488 84.404C114.972 84.572 114.534 84.806 114.174 85.106L113.292 83.468C113.796 83.084 114.402 82.79 115.11 82.586C115.818 82.382 116.568 82.28 117.36 82.28ZM117.054 90.488C117.618 90.488 118.116 90.362 118.548 90.11C118.992 89.846 119.304 89.474 119.484 88.994V87.878H117.162C115.866 87.878 115.218 88.304 115.218 89.156C115.218 89.564 115.38 89.888 115.704 90.128C116.028 90.368 116.478 90.488 117.054 90.488ZM129.846 82.28C130.782 82.28 131.616 82.484 132.348 82.892C133.092 83.3 133.674 83.876 134.094 84.62C134.514 85.364 134.724 86.222 134.724 87.194C134.724 88.166 134.514 89.03 134.094 89.786C133.674 90.53 133.092 91.106 132.348 91.514C131.616 91.922 130.782 92.126 129.846 92.126C128.55 92.126 127.524 91.694 126.768 90.83V95.492H124.518V82.388H126.66V83.648C127.032 83.192 127.488 82.85 128.028 82.622C128.58 82.394 129.186 82.28 129.846 82.28ZM129.594 90.2C130.422 90.2 131.1 89.924 131.628 89.372C132.168 88.82 132.438 88.094 132.438 87.194C132.438 86.294 132.168 85.568 131.628 85.016C131.1 84.464 130.422 84.188 129.594 84.188C129.054 84.188 128.568 84.314 128.136 84.566C127.704 84.806 127.362 85.154 127.11 85.61C126.858 86.066 126.732 86.594 126.732 87.194C126.732 87.794 126.858 88.322 127.11 88.778C127.362 89.234 127.704 89.588 128.136 89.84C128.568 90.08 129.054 90.2 129.594 90.2ZM136.963 82.388H139.213V86.294H144.055V82.388H146.305V92H144.055V88.202H139.213V92H136.963V82.388ZM154.001 85.556C155.225 85.556 156.161 85.832 156.809 86.384C157.457 86.936 157.781 87.716 157.781 88.724C157.781 89.78 157.421 90.596 156.701 91.172C155.993 91.748 154.985 92.03 153.677 92.018L149.321 92V82.388H151.571V85.538L154.001 85.556ZM159.023 82.388H161.273V92H159.023V82.388ZM153.479 90.362C154.139 90.374 154.643 90.236 154.991 89.948C155.339 89.66 155.513 89.24 155.513 88.688C155.513 88.148 155.345 87.752 155.009 87.5C154.673 87.248 154.163 87.116 153.479 87.104L151.571 87.086V90.344L153.479 90.362ZM173.297 87.248C173.297 87.404 173.285 87.626 173.261 87.914H165.719C165.851 88.622 166.193 89.186 166.745 89.606C167.309 90.014 168.005 90.218 168.833 90.218C169.889 90.218 170.759 89.87 171.443 89.174L172.649 90.56C172.217 91.076 171.671 91.466 171.011 91.73C170.351 91.994 169.607 92.126 168.779 92.126C167.723 92.126 166.793 91.916 165.989 91.496C165.185 91.076 164.561 90.494 164.117 89.75C163.685 88.994 163.469 88.142 163.469 87.194C163.469 86.258 163.679 85.418 164.099 84.674C164.531 83.918 165.125 83.33 165.881 82.91C166.637 82.49 167.489 82.28 168.437 82.28C169.373 82.28 170.207 82.49 170.939 82.91C171.683 83.318 172.259 83.9 172.667 84.656C173.087 85.4 173.297 86.264 173.297 87.248ZM168.437 84.08C167.717 84.08 167.105 84.296 166.601 84.728C166.109 85.148 165.809 85.712 165.701 86.42H171.155C171.059 85.724 170.765 85.16 170.273 84.728C169.781 84.296 169.169 84.08 168.437 84.08ZM39.126 104.296H35.76V112H33.51V104.296H30.126V102.388H39.126V104.296ZM44.6202 112.126C43.6482 112.126 42.7722 111.916 41.9922 111.496C41.2122 111.076 40.6002 110.494 40.1562 109.75C39.7242 108.994 39.5082 108.142 39.5082 107.194C39.5082 106.246 39.7242 105.4 40.1562 104.656C40.6002 103.912 41.2122 103.33 41.9922 102.91C42.7722 102.49 43.6482 102.28 44.6202 102.28C45.6042 102.28 46.4862 102.49 47.2662 102.91C48.0462 103.33 48.6522 103.912 49.0842 104.656C49.5282 105.4 49.7502 106.246 49.7502 107.194C49.7502 108.142 49.5282 108.994 49.0842 109.75C48.6522 110.494 48.0462 111.076 47.2662 111.496C46.4862 111.916 45.6042 112.126 44.6202 112.126ZM44.6202 110.2C45.4482 110.2 46.1322 109.924 46.6722 109.372C47.2122 108.82 47.4822 108.094 47.4822 107.194C47.4822 106.294 47.2122 105.568 46.6722 105.016C46.1322 104.464 45.4482 104.188 44.6202 104.188C43.7922 104.188 43.1082 104.464 42.5682 105.016C42.0402 105.568 41.7762 106.294 41.7762 107.194C41.7762 108.094 42.0402 108.82 42.5682 109.372C43.1082 109.924 43.7922 110.2 44.6202 110.2ZM58.9389 106.996C60.1269 107.356 60.7209 108.124 60.7209 109.3C60.7209 110.164 60.3969 110.83 59.7489 111.298C59.1009 111.766 58.1409 112 56.8689 112H51.9729V102.388H56.6709C57.8469 102.388 58.7649 102.604 59.4249 103.036C60.0849 103.468 60.4149 104.08 60.4149 104.872C60.4149 105.364 60.2829 105.79 60.0189 106.15C59.7669 106.51 59.4069 106.792 58.9389 106.996ZM54.1149 106.402H56.4729C57.6369 106.402 58.2189 106 58.2189 105.196C58.2189 104.416 57.6369 104.026 56.4729 104.026H54.1149V106.402ZM56.6889 110.362C57.9249 110.362 58.5429 109.96 58.5429 109.156C58.5429 108.736 58.3989 108.424 58.1109 108.22C57.8229 108.004 57.3729 107.896 56.7609 107.896H54.1149V110.362H56.6889ZM66.6995 102.28C68.1155 102.28 69.1955 102.622 69.9395 103.306C70.6955 103.978 71.0735 104.998 71.0735 106.366V112H68.9495V110.83C68.6735 111.25 68.2775 111.574 67.7615 111.802C67.2575 112.018 66.6455 112.126 65.9255 112.126C65.2055 112.126 64.5755 112.006 64.0355 111.766C63.4955 111.514 63.0755 111.172 62.7755 110.74C62.4875 110.296 62.3435 109.798 62.3435 109.246C62.3435 108.382 62.6615 107.692 63.2975 107.176C63.9455 106.648 64.9595 106.384 66.3395 106.384H68.8235V106.24C68.8235 105.568 68.6195 105.052 68.2115 104.692C67.8155 104.332 67.2215 104.152 66.4295 104.152C65.8895 104.152 65.3555 104.236 64.8275 104.404C64.3115 104.572 63.8735 104.806 63.5135 105.106L62.6315 103.468C63.1355 103.084 63.7415 102.79 64.4495 102.586C65.1575 102.382 65.9075 102.28 66.6995 102.28ZM66.3935 110.488C66.9575 110.488 67.4555 110.362 67.8875 110.11C68.3315 109.846 68.6435 109.474 68.8235 108.994V107.878H66.5015C65.2055 107.878 64.5575 108.304 64.5575 109.156C64.5575 109.564 64.7195 109.888 65.0435 110.128C65.3675 110.368 65.8175 110.488 66.3935 110.488ZM79.1857 102.28C80.1217 102.28 80.9557 102.484 81.6877 102.892C82.4317 103.3 83.0137 103.876 83.4337 104.62C83.8537 105.364 84.0637 106.222 84.0637 107.194C84.0637 108.166 83.8537 109.03 83.4337 109.786C83.0137 110.53 82.4317 111.106 81.6877 111.514C80.9557 111.922 80.1217 112.126 79.1857 112.126C77.8897 112.126 76.8637 111.694 76.1077 110.83V115.492H73.8577V102.388H75.9997V103.648C76.3717 103.192 76.8277 102.85 77.3677 102.622C77.9197 102.394 78.5257 102.28 79.1857 102.28ZM78.9337 110.2C79.7617 110.2 80.4397 109.924 80.9677 109.372C81.5077 108.82 81.7777 108.094 81.7777 107.194C81.7777 106.294 81.5077 105.568 80.9677 105.016C80.4397 104.464 79.7617 104.188 78.9337 104.188C78.3937 104.188 77.9077 104.314 77.4757 104.566C77.0437 104.806 76.7017 105.154 76.4497 105.61C76.1977 106.066 76.0717 106.594 76.0717 107.194C76.0717 107.794 76.1977 108.322 76.4497 108.778C76.7017 109.234 77.0437 109.588 77.4757 109.84C77.9077 110.08 78.3937 110.2 78.9337 110.2ZM90.983 105.556C92.207 105.556 93.143 105.832 93.791 106.384C94.439 106.936 94.763 107.716 94.763 108.724C94.763 109.78 94.403 110.596 93.683 111.172C92.975 111.748 91.967 112.03 90.659 112.018L86.303 112V102.388H88.553V105.538L90.983 105.556ZM96.005 102.388H98.255V112H96.005V102.388ZM90.461 110.362C91.121 110.374 91.625 110.236 91.973 109.948C92.321 109.66 92.495 109.24 92.495 108.688C92.495 108.148 92.327 107.752 91.991 107.5C91.655 107.248 91.145 107.116 90.461 107.104L88.553 107.086V110.344L90.461 110.362Z" fill="white"/>
</svg>
