<svg width="427" height="346" viewBox="0 0 427 346" fill="none" xmlns="http://www.w3.org/2000/svg">
<path d="M157.743 345.115L1.33252 234.939C0.501537 234.353 0.0234654 233.387 0.0623441 232.371L7.9196 27.1005C7.96786 25.8395 8.80007 24.7436 10.0017 24.3584L84.7023 0.415927C85.5269 0.151636 86.4255 0.256526 87.167 0.703633L152.942 40.3622C153.62 40.7708 154.431 40.8951 155.2 40.708L263.865 14.276C264.595 14.0985 265.365 14.2012 266.023 14.5638L341.448 56.1446C342.406 56.6723 343 57.6788 343 58.7718V93.3784C343 94.3903 343.51 95.334 344.357 95.8883L425.538 149.042C426.441 149.634 426.957 150.666 426.888 151.745L420.131 256.96C420.052 258.191 419.228 259.248 418.053 259.624L368.295 275.585C367.472 275.849 366.575 275.745 365.834 275.299L243.335 201.698C242.597 201.254 241.703 201.15 240.882 201.411L218.983 208.37C217.79 208.749 216.958 209.828 216.895 211.078L211.102 325.978C211.04 327.2 210.243 328.262 209.087 328.662L160.452 345.497C159.54 345.813 158.532 345.671 157.743 345.115Z" fill="#2A95CC" fill-opacity="0.39"/>
<path d="M158.607 343.889L2.19634 233.712C1.78085 233.42 1.54181 232.936 1.56125 232.429L9.4185 27.1579C9.44263 26.5274 9.85873 25.9794 10.4596 25.7868L85.1601 1.84435L84.7023 0.415927L85.1601 1.84435C85.5724 1.7122 86.0217 1.76465 86.3925 1.9882L152.168 41.6468C153.184 42.2596 154.402 42.4461 155.555 42.1655L264.22 15.7335C264.585 15.6448 264.97 15.6961 265.298 15.8774L340.724 57.4582C341.203 57.7221 341.5 58.2253 341.5 58.7718V93.3784C341.5 94.8962 342.265 96.3118 343.535 97.1432L424.716 150.297C425.168 150.593 425.426 151.109 425.391 151.648L418.634 256.864C418.595 257.479 418.182 258.008 417.595 258.196L367.837 274.156C367.426 274.288 366.977 274.236 366.606 274.014L244.108 200.412C243 199.747 241.659 199.59 240.427 199.981L218.529 206.94C216.74 207.509 215.492 209.128 215.397 211.002L209.604 325.903C209.573 326.514 209.174 327.045 208.596 327.245L159.962 344.08C159.506 344.238 159.002 344.166 158.607 343.889Z" stroke="white" stroke-opacity="0.45" stroke-width="3"/>
</svg>
