<svg width="16" height="9" viewBox="0 0 16 9" fill="none" xmlns="http://www.w3.org/2000/svg">
<path d="M13.7845 5.72882C14.2905 6.22477 14.8265 6.68565 15.2774 7.2317C15.4778 7.47216 15.6682 7.72264 15.8134 8.00318C16.0188 8.40395 15.8335 8.83979 15.4778 8.86484H13.2585C12.6874 8.90992 12.2266 8.67948 11.8458 8.28873C11.5402 7.97312 11.2547 7.64249 10.9591 7.31686C10.8389 7.18661 10.7086 7.06138 10.5584 6.96118C10.2528 6.76581 9.99227 6.82592 9.81693 7.14153C9.6416 7.46214 9.60152 7.81783 9.58148 8.17852C9.55644 8.69952 9.40114 8.83979 8.87513 8.86484C7.75297 8.91994 6.68593 8.74961 5.69903 8.18353C4.82736 7.68257 4.15106 6.98122 3.55993 6.17968C2.40772 4.62169 1.53103 2.91341 0.739515 1.16005C0.564178 0.764291 0.694428 0.553887 1.13026 0.543868C1.85666 0.528839 2.57804 0.528839 3.30444 0.543868C3.6 0.548877 3.79538 0.719204 3.90559 0.994733C4.29634 1.95658 4.77726 2.87835 5.37842 3.72497C5.53872 3.9504 5.70404 4.17584 5.93448 4.33614C6.18997 4.51148 6.39036 4.45638 6.51059 4.16582C6.58573 3.98547 6.6208 3.7901 6.64084 3.59472C6.69595 2.92343 6.70597 2.25716 6.60577 1.58587C6.54566 1.17007 6.31021 0.89955 5.89441 0.819396C5.684 0.779319 5.71406 0.699166 5.81425 0.578935C5.9946 0.368531 6.15992 0.238281 6.49556 0.238281H9.00538C9.40114 0.318435 9.4863 0.493772 9.54141 0.889531V3.67989C9.5364 3.83518 9.61655 4.29106 9.89709 4.39125C10.1175 4.46139 10.2678 4.28605 10.3981 4.14578C10.9992 3.50956 11.43 2.75311 11.8108 1.97161C11.9811 1.62594 12.1264 1.27026 12.2666 0.914579C12.3718 0.64907 12.5372 0.51882 12.8327 0.523829H15.2474C15.3175 0.523829 15.3926 0.523829 15.4628 0.538858C15.8685 0.608993 15.9838 0.784329 15.8535 1.18009C15.6531 1.80629 15.2724 2.32228 14.8917 2.84829C14.4909 3.40436 14.0601 3.94539 13.6593 4.50647C13.3036 5.02747 13.3287 5.28296 13.7845 5.72882Z" fill="#161616"/>
</svg>
