<svg width="15" height="10" viewBox="0 0 15 10" fill="none" xmlns="http://www.w3.org/2000/svg">
<path d="M13.9697 1.5621C13.8885 1.25962 13.7293 0.983765 13.508 0.762159C13.2866 0.540553 13.011 0.380964 12.7086 0.299363C11.5955 6.07436e-08 7.13376 0 7.13376 0C7.13376 0 2.67197 -6.07436e-08 1.55892 0.297771C1.2564 0.379107 0.980612 0.538607 0.759245 0.760254C0.537877 0.981901 0.378725 1.25789 0.297771 1.56051C-6.07436e-08 2.67516 0 5 0 5C0 5 -6.07436e-08 7.32484 0.297771 8.4379C0.461783 9.05255 0.94586 9.53662 1.55892 9.70064C2.67197 10 7.13376 10 7.13376 10C7.13376 10 11.5955 10 12.7086 9.70064C13.3232 9.53662 13.8057 9.05255 13.9697 8.4379C14.2675 7.32484 14.2675 5 14.2675 5C14.2675 5 14.2675 2.67516 13.9697 1.5621ZM5.71656 7.13376V2.86624L9.41083 4.98408L5.71656 7.13376Z" fill="#161616"/>
</svg>
