<svg xmlns="http://www.w3.org/2000/svg">
    <g id="logo">
        <path d="M52.4622 103.924C80.884 103.924 103.924 80.884 103.924 52.4622C103.924 24.0404 80.884 1 52.4622 1C24.0404 1 1 24.0404 1 52.4622C1 80.884 24.0404 103.924 52.4622 103.924Z"
              fill="#27536B" stroke-width="0.178428"/>
        <path d="M31.1699 36.0713L38.4886 35.2622L31.1699 34.4531L30.3608 27.1342L29.5517 34.4531L22.2329 35.2622L29.5517 36.0713L30.3608 43.39L31.1699 36.0713Z"
              stroke-width="0.134771"/>
        <path d="M65.4056 59.0286L71.0232 58.4076L65.4056 57.7865L64.7845 52.1688L64.1636 57.7865L58.5459 58.4076L64.1636 59.0286L64.7845 64.6461L65.4056 59.0286Z"
              stroke-width="0.134771"/>
        <path d="M34.5723 71.7443L38.9356 71.2621L34.5723 70.7797L34.0899 66.4163L33.6073 70.7797L29.2441 71.2621L33.6073 71.7443L34.0899 76.1076L34.5723 71.7443Z"
              stroke-width="0.134771"/>
        <path d="M35.7556 41.5339L36.8682 42.6464L37.9807 41.5339L36.8682 40.4213L35.7556 41.5339Z"
              stroke-width="0.134771"/>
        <path d="M50.4402 71.8273L51.5527 72.9399L52.6653 71.8273L51.5527 70.7148L50.4402 71.8273Z"
              stroke-width="0.134771"/>
        <path d="M68.7473 36.071L69.8599 37.1835L70.9724 36.071L69.8599 34.9585L68.7473 36.071Z"
              stroke-width="0.134771"/>
        <path d="M51.9573 43.5051L53.0698 44.6177L54.1824 43.5051L53.0698 42.3926L51.9573 43.5051Z"
              stroke-width="0.134771"/>
        <path d="M75.2214 50.4846L76.334 51.5971L77.4465 50.4846L76.334 49.372L75.2214 50.4846Z"
              stroke-width="0.134771"/>
        <path d="M62.5774 26.5634L63.6899 27.676L64.8025 26.5634L63.6899 25.4509L62.5774 26.5634Z"
              stroke-width="0.134771"/>
        <path d="M20.5999 74.761L21.7124 75.8735L22.8249 74.761L21.7124 73.6485L20.5999 74.761Z"
              stroke-width="0.134771"/>
        <path d="M47.8084 21.4041L48.9209 22.5167L50.0334 21.4041L48.9209 20.2916L47.8084 21.4041Z"
              stroke-width="0.134771"/>
        <path d="M63.5891 87.0014L64.7017 88.1139L65.8142 87.0014L64.7017 85.8888L63.5891 87.0014Z"
              stroke-width="0.134771"/>
        <path d="M17.969 38.3466L19.0815 39.4592L20.1941 38.3466L19.0815 37.2341L17.969 38.3466Z"
              stroke-width="0.134771"/>
        <path d="M15.7702 58.8087L18.2928 57.146L25.7224 63.8953L26.1219 63.709L25.5239 54.2605L28.5336 52.3706L34.2535 62.1948C34.4556 62.5434 34.6407 62.813 34.8086 63.0036C34.9766 63.1942 35.1395 63.3317 35.2976 63.4162C35.4591 63.4911 35.6249 63.5245 35.7951 63.5163C35.9687 63.4986 36.159 63.4573 36.366 63.3925L36.7778 63.2835L37.6008 65.201C37.3289 65.2962 37.0277 65.405 36.6973 65.5275C36.4154 65.6352 36.0797 65.7719 35.6904 65.9377C35.2981 66.0969 34.8713 66.284 34.4101 66.4991C33.9684 66.7051 33.484 66.9468 32.9569 67.2242C32.4333 67.4921 31.8312 67.8203 31.1504 68.2089L30.3566 66.2777C30.5164 66.1795 30.6827 66.0782 30.8555 65.9739C31.0053 65.8882 31.1714 65.795 31.3537 65.6941C31.5395 65.5838 31.7266 65.4847 31.915 65.3968L28.4595 59.3093L28.06 59.4956L28.6223 68.6642L26.6638 69.5774L19.8848 63.3077L19.4853 63.494C19.8263 64.2761 20.1112 64.938 20.3401 65.4798C20.5755 66.0185 20.7685 66.4663 20.9191 66.8231C21.0762 67.1769 21.1969 67.4528 21.2813 67.6507C21.3691 67.8391 21.4325 67.9835 21.4715 68.084C21.5139 68.1749 21.5411 68.2334 21.5532 68.2594C21.5623 68.2789 21.5699 68.2951 21.576 68.3081C21.7274 68.6329 21.8793 68.8823 22.0317 69.0565C22.181 69.2241 22.3349 69.3421 22.4934 69.4106C22.6583 69.476 22.8276 69.4999 23.0013 69.4822C23.1814 69.4614 23.3717 69.4201 23.5722 69.3583L24.0035 69.2402L24.8071 71.1669C24.5221 71.2681 24.2177 71.3784 23.8938 71.4979C23.6118 71.6056 23.2892 71.7363 22.9259 71.8899C22.5595 72.037 22.1717 72.206 21.7625 72.3968C21.5351 72.5028 21.3255 72.6045 21.1337 72.7019C20.9483 72.7962 20.7515 72.8999 20.5432 73.0128C20.3318 73.1193 20.1023 73.2461 19.8546 73.3932C19.6103 73.5308 19.3189 73.6944 18.9802 73.884L18.1767 71.9573C18.3365 71.8591 18.5028 71.7578 18.6756 71.6535C18.8254 71.5678 18.9915 71.4745 19.1738 71.3737C19.3596 71.2633 19.5467 71.1642 19.7351 71.0764L15.7702 58.8087ZM48.3928 55.044C48.7456 55.3935 49.0507 55.6664 49.3083 55.8627C49.5694 56.0494 49.8029 56.1856 50.009 56.2714C50.2151 56.3572 50.4045 56.4073 50.5773 56.4216C50.7535 56.4264 50.9317 56.4185 51.1118 56.3977L51.6471 56.3498L52.4506 58.2765C52.0037 58.4374 51.4998 58.6289 50.939 58.8509C50.3782 59.0728 49.7925 59.3262 49.1819 59.6109C48.5323 59.9138 47.9162 60.2209 47.3338 60.532C46.7578 60.8401 46.2353 61.1273 45.7662 61.3934L44.9627 59.4668C45.2793 59.2638 45.5565 59.095 45.7942 58.9604C46.032 58.8258 46.2743 58.701 46.5211 58.5859L44.957 56.8597C44.3784 57.1453 43.7199 57.48 42.9816 57.8639C42.2466 58.2382 41.4853 58.6407 40.6975 59.0713C40.7126 59.341 40.7383 59.5742 40.7746 59.7708C40.8174 59.9644 40.8706 60.1294 40.9343 60.2658C41.0584 60.5321 41.2208 60.6937 41.4212 60.7505C41.6187 60.8007 41.8564 60.7848 42.1344 60.7026L42.5462 60.5936L43.3497 62.5203C43.1363 62.5882 42.8838 62.6743 42.5923 62.7786C42.3429 62.8711 42.0398 62.9927 41.6829 63.1433C41.3296 63.2844 40.9223 63.4624 40.4611 63.6775C40.2337 63.7835 40.0273 63.8837 39.842 63.978C39.6601 64.0628 39.4715 64.1587 39.2762 64.2656C39.0778 64.366 38.8565 64.485 38.6123 64.6226C38.3745 64.7572 38.0893 64.9258 37.7567 65.1283L36.9532 63.2017C37.0251 63.1523 37.115 63.0907 37.2228 63.0166C37.3142 62.9582 37.4283 62.8892 37.5652 62.8095C37.7085 62.7269 37.8714 62.6351 38.0537 62.5343L37.8012 48.5354L40.1094 46.9728L48.3928 55.044ZM40.3983 56.2926L43.2435 54.9658L40.3444 51.7506L39.9449 51.9369L40.3983 56.2926ZM50.5242 47.0986C50.3576 46.7413 50.1936 46.4659 50.0321 46.2723C49.8772 46.0756 49.7157 45.9414 49.5477 45.8694C49.3832 45.788 49.2141 45.7561 49.0405 45.7738C48.8638 45.785 48.6704 45.8198 48.4604 45.8782L48.0044 46.0197L47.1866 44.0878C47.4001 44.0199 47.6511 43.9305 47.9395 43.8198C48.1859 43.7207 48.4875 43.5958 48.8443 43.4453C49.2012 43.2947 49.6102 43.1119 50.0714 42.8968C50.721 42.5939 51.3113 42.291 51.8422 41.988C52.3767 41.6755 52.9037 41.3981 53.4234 41.1558C54.1834 40.8014 54.8904 40.5706 55.5442 40.4634C56.1981 40.3562 56.7848 40.3594 57.3044 40.473C57.824 40.5866 58.2781 40.8059 58.6669 41.1307C59.0526 41.4491 59.362 41.8584 59.5953 42.3586C59.7407 42.6704 59.8473 42.9923 59.9152 43.3245C59.9896 43.6536 60.0289 43.9753 60.0331 44.2897C60.0374 44.604 60.0132 44.9 59.9608 45.1775C59.9083 45.4551 59.8359 45.6984 59.7436 45.9075C60.1255 45.8955 60.4951 45.9248 60.8523 45.9955C61.2095 46.0662 61.5459 46.194 61.8615 46.379C62.1836 46.561 62.4784 46.8031 62.7459 47.1054C63.0199 47.4047 63.2614 47.7785 63.4705 48.2267C63.7522 48.8308 63.9022 49.441 63.9207 50.0571C63.9361 50.6668 63.8157 51.2567 63.5597 51.8269C63.3036 52.3971 62.9122 52.9315 62.3855 53.4302C61.8589 53.9289 61.1928 54.366 60.3873 54.7416C60.0235 54.9113 59.6489 55.0662 59.2635 55.2063C58.8876 55.35 58.5087 55.4871 58.1267 55.6178C57.7513 55.7454 57.3789 55.8795 57.0095 56.0202C56.6435 56.1512 56.2949 56.294 55.9636 56.4485C55.5154 56.6575 55.07 56.881 54.6274 57.1191C54.1818 57.3506 53.6933 57.6258 53.1619 57.9448L52.3584 56.0181C52.5182 55.9199 52.6845 55.8186 52.8573 55.7143C53.0071 55.6286 53.1732 55.5354 53.3555 55.4345C53.5413 55.3242 53.7284 55.2251 53.9168 55.1372C53.7974 54.8133 53.6507 54.4309 53.4768 53.9901C53.2998 53.5427 53.1075 53.0709 52.8998 52.5746C52.689 52.0718 52.4738 51.5593 52.254 51.037C52.0311 50.5083 51.8141 50.0005 51.603 49.5138C51.3918 49.027 51.1925 48.5742 51.0052 48.1555C50.8178 47.7367 50.6575 47.3844 50.5242 47.0986ZM59.884 49.9228C59.7598 49.6565 59.6008 49.4341 59.4068 49.2556C59.2099 49.0707 58.9776 48.9457 58.71 48.8806C58.4394 48.8091 58.1318 48.8023 57.7871 48.8602C57.4459 48.9086 57.0674 49.0298 56.6516 49.2236C56.4698 49.3084 56.2747 49.4073 56.0664 49.5203C55.8615 49.6237 55.6987 49.7154 55.5778 49.7955L57.0733 53.1552C57.2266 53.1786 57.3916 53.1847 57.5682 53.1735C57.7484 53.1528 57.924 53.1223 58.095 53.0821C58.2661 53.0419 58.4228 52.9965 58.5653 52.9459C58.7143 52.8922 58.8277 52.8472 58.9057 52.8109C59.1655 52.6897 59.3909 52.5371 59.5819 52.3532C59.7764 52.1597 59.9235 51.9408 60.0232 51.6966C60.1228 51.4524 60.1638 51.1842 60.1461 50.8919C60.1319 50.5901 60.0446 50.2671 59.884 49.9228ZM55.6267 47.1274C55.8476 47.0244 56.0699 46.9246 56.2938 46.8281C56.5212 46.7221 56.7498 46.6274 56.9798 46.5439C57.0478 46.2828 57.0735 45.9901 57.0567 45.6657C57.0464 45.3384 56.9731 45.0286 56.8368 44.7362C56.6853 44.4114 56.4986 44.1466 56.2765 43.9417C56.0514 43.7304 55.8005 43.5824 55.5238 43.4979C55.2506 43.4039 54.9564 43.375 54.6412 43.4113C54.3229 43.441 53.9949 43.5347 53.6571 43.6922C53.6051 43.7164 53.5174 43.7573 53.394 43.8149C53.2771 43.8694 53.1957 43.9153 53.1498 43.9525C53.3211 44.3708 53.494 44.7924 53.6684 45.2172C53.8155 45.5836 53.9762 45.9792 54.1506 46.404C54.325 46.8289 54.492 47.2294 54.6516 47.6058C54.7071 47.572 54.777 47.5354 54.8615 47.4961C54.9494 47.4472 55.0388 47.4015 55.1298 47.3591C55.2272 47.3137 55.3181 47.2712 55.4026 47.2319C55.4935 47.1895 55.5682 47.1546 55.6267 47.1274ZM76.2019 42.0764C76.5547 42.4259 76.8599 42.6988 77.1175 42.895C77.3785 43.0817 77.6121 43.218 77.8182 43.3038C78.0243 43.3896 78.2137 43.4396 78.3865 43.454C78.5627 43.4588 78.7409 43.4508 78.921 43.4301L79.4562 43.3822L80.2597 45.3089C79.8128 45.4698 79.309 45.6613 78.7482 45.8832C78.1874 46.1052 77.6016 46.3586 76.991 46.6433C76.3414 46.9462 75.7254 47.2532 75.1429 47.5644C74.5669 47.8725 74.0444 48.1597 73.5754 48.4258L72.7719 46.4992C73.0885 46.2962 73.3656 46.1274 73.6034 45.9928C73.8412 45.8582 74.0835 45.7333 74.3303 45.6182L72.7662 43.892C72.1876 44.1776 71.5291 44.5124 70.7907 44.8962C70.0558 45.2706 69.2945 45.673 68.5067 46.1036C68.5218 46.3734 68.5475 46.6066 68.5838 46.8032C68.6266 46.9968 68.6798 47.1617 68.7434 47.2982C68.8676 47.5645 69.0299 47.726 69.2304 47.7828C69.4278 47.8331 69.6656 47.8172 69.9436 47.735L70.3554 47.626L71.1589 49.5527C70.9454 49.6206 70.6929 49.7067 70.4015 49.8109C70.1521 49.9035 69.8489 50.0251 69.4921 50.1757C69.1387 50.3167 68.7314 50.4948 68.2702 50.7099C68.0429 50.8159 67.8365 50.9161 67.6511 51.0104C67.4693 51.0952 67.2807 51.1911 67.0853 51.298C66.887 51.3984 66.6657 51.5174 66.4214 51.655C66.1837 51.7896 65.8985 51.9582 65.5659 52.1607L64.7624 50.234C64.8343 50.1847 64.9241 50.123 65.032 50.049C65.1234 49.9906 65.2375 49.9216 65.3743 49.8419C65.5177 49.7593 65.6805 49.6675 65.8628 49.5667L65.6104 35.5678L67.9186 34.0051L76.2019 42.0764ZM68.2074 43.325L71.0527 41.9982L68.1536 38.783L67.7541 38.9693L68.2074 43.325ZM84.3275 38.8449C84.4972 39.2087 84.6595 39.4889 84.8144 39.6855C84.9759 39.8791 85.1389 40.0166 85.3034 40.0981C85.4714 40.17 85.6437 40.2004 85.8204 40.1892C86.0005 40.1684 86.1941 40.1256 86.4011 40.0607L86.8129 39.9517L87.6164 41.8784C87.312 41.9887 86.9815 42.1112 86.6251 42.2457C86.3172 42.3656 85.9621 42.5114 85.5598 42.6832C85.161 42.8454 84.7309 43.0341 84.2697 43.2492C83.8215 43.4582 83.3244 43.6979 82.7783 43.9684C82.2387 44.2358 81.6362 44.5721 80.971 44.9772L80.1675 43.0505C80.3273 42.9523 80.4936 42.851 80.6664 42.7467C80.8163 42.661 80.9824 42.5677 81.1647 42.4669C81.3505 42.3565 81.5376 42.2574 81.7259 42.1696C81.5762 41.7807 81.4051 41.3544 81.2126 40.8906C81.017 40.4203 80.8153 39.937 80.6076 39.4407C80.4034 38.9349 80.1912 38.4289 79.9709 37.9226C79.7572 37.4133 79.5508 36.9283 79.3517 36.4675C79.1497 36.0003 78.9595 35.567 78.7812 35.1677C78.6029 34.7684 78.4471 34.4259 78.3139 34.14C78.1473 33.7828 77.9832 33.5073 77.8218 33.3137C77.6603 33.1201 77.4956 32.9874 77.3276 32.9154C77.1631 32.834 76.9908 32.8036 76.8106 32.8244C76.6275 32.8386 76.4309 32.8749 76.2209 32.9333L75.8136 33.052L75.0153 31.1111C75.3392 30.9917 75.6616 30.869 75.9825 30.7431C76.2614 30.6289 76.5597 30.5055 76.8776 30.3731C77.202 30.2377 77.5038 30.1049 77.7831 29.9746C78.056 29.8474 78.3453 29.7046 78.651 29.5462C78.9537 29.3813 79.2677 29.2151 79.5929 29.0477C79.9151 28.8737 80.2389 28.703 80.5641 28.5355C80.8928 28.3585 81.2195 28.1942 81.5443 28.0428C82.3563 27.6642 83.1181 27.4236 83.8295 27.3212C84.541 27.2188 85.1864 27.2461 85.7657 27.403C86.3515 27.5569 86.8697 27.8372 87.3203 28.2439C87.7679 28.6441 88.1387 29.1593 88.4325 29.7894C88.6445 30.2441 88.7784 30.6839 88.8341 31.1087C88.8899 31.5335 88.8835 31.9437 88.8149 32.3395C88.7464 32.7352 88.619 33.1149 88.4327 33.4786C88.2529 33.8392 88.0255 34.1825 87.7504 34.5085L89.3725 35.6976C89.8284 36.0307 90.265 36.3056 90.6823 36.5222C91.1062 36.7358 91.4978 36.8972 91.8572 37.0064C92.2135 37.1091 92.5343 37.1612 92.8197 37.1626C93.1115 37.1609 93.3581 37.1132 93.5595 37.0193L94.254 38.7121C94.1656 38.777 94.0643 38.848 93.9499 38.925C93.8456 38.9895 93.7217 39.0631 93.5784 39.1457C93.435 39.2284 93.2659 39.3152 93.071 39.406C92.6033 39.6241 92.1341 39.7797 91.6634 39.8726C91.1962 39.9561 90.7119 39.9605 90.2105 39.8858C89.7091 39.8112 89.1876 39.6511 88.6459 39.4054C88.1078 39.1502 87.5387 38.7947 86.9387 38.339L84.7991 36.727C84.7337 36.7733 84.6652 36.8131 84.5938 36.8464C84.5288 36.8767 84.4606 36.9085 84.3892 36.9419C84.2462 37.0085 84.1051 37.0704 83.9656 37.1275C83.8262 37.1846 83.711 37.2344 83.62 37.2768C83.7403 37.5687 83.8671 37.8575 84.0004 38.1433C84.1306 38.4227 84.2397 38.6565 84.3275 38.8449ZM81.0174 30.9576C81.1039 31.1941 81.2069 31.4742 81.3263 31.7982C81.4492 32.1126 81.5842 32.4529 81.7313 32.8193C81.8784 33.1857 82.0346 33.5715 82.1999 33.9769C82.3717 34.3792 82.545 34.7847 82.7198 35.1935C82.8423 35.168 82.9603 35.1328 83.0738 35.0878C83.1907 35.0333 83.3142 34.9757 83.4441 34.9151C84.2366 34.5456 84.7736 34.0777 85.0553 33.5114C85.3339 32.9386 85.3111 32.3047 84.987 31.6096C84.8143 31.2393 84.6024 30.9546 84.3514 30.7553C84.0972 30.5496 83.8186 30.4185 83.5156 30.3621C83.2159 30.2962 82.8986 30.2939 82.5634 30.3553C82.2282 30.4167 81.8885 30.5277 81.5442 30.6882C81.4468 30.7337 81.3493 30.7791 81.2519 30.8245C81.161 30.8669 81.0828 30.9113 81.0174 30.9576Z"
        />
    </g>

    <g id="react">
        <linearGradient id="9GkdZLxQa1XTDblOFwLcpa_t4YbEbA834uH_gr1" x1="32" x2="32" y1="25.213" y2="36.722"
                        gradientUnits="userSpaceOnUse">
            <stop offset="0" stop-color="#6dc7ff"></stop>
            <stop offset="1" stop-color="#e6abff"></stop>
        </linearGradient>
        <circle cx="32" cy="32" r="6" fill="url(#9GkdZLxQa1XTDblOFwLcpa_t4YbEbA834uH_gr1)"></circle>
        <linearGradient id="9GkdZLxQa1XTDblOFwLcpb_t4YbEbA834uH_gr2" x1="32" x2="32" y1="7.426" y2="53.44"
                        gradientUnits="userSpaceOnUse">
            <stop offset="0" stop-color="#1a6dff"></stop>
            <stop offset="1" stop-color="#c822ff"></stop>
        </linearGradient>
        <path fill="url(#9GkdZLxQa1XTDblOFwLcpb_t4YbEbA834uH_gr2)"
              d="M58,32c0-3.758-4.243-7.017-10.853-8.992c0.221-1.031,0.407-2.045,0.524-3.015	c0.657-5.483-0.483-9.323-3.211-10.813c-2.729-1.489-6.574-0.372-10.831,3.146c-0.544,0.449-1.087,0.938-1.629,1.45	c-0.542-0.513-1.085-1.001-1.629-1.45C26.114,8.808,22.267,7.692,19.54,9.18c-2.728,1.489-3.868,5.329-3.211,10.813	c0.116,0.971,0.303,1.984,0.524,3.015C10.243,24.983,6,28.242,6,32s4.243,7.017,10.853,8.992c-0.221,1.031-0.407,2.045-0.524,3.015	c-0.657,5.483,0.483,9.323,3.211,10.813c0.789,0.431,1.67,0.643,2.628,0.643c2.357,0,5.177-1.287,8.203-3.788	c0.544-0.449,1.087-0.938,1.629-1.45c0.542,0.513,1.085,1.001,1.629,1.45c3.026,2.501,5.846,3.788,8.203,3.788	c0.958,0,1.84-0.213,2.628-0.643c2.728-1.489,3.868-5.329,3.211-10.813c-0.116-0.971-0.303-1.984-0.524-3.015	C53.757,39.017,58,35.758,58,32z M34.902,13.866c3.53-2.917,6.665-3.987,8.599-2.931c1.934,1.055,2.729,4.27,2.184,8.818	c-0.105,0.879-0.273,1.796-0.469,2.729c-2.117-0.519-4.43-0.915-6.892-1.166c-1.564-2.275-3.215-4.351-4.908-6.132	C33.91,14.718,34.406,14.276,34.902,13.866z M39.899,36.313c-0.853,1.562-1.76,3.055-2.702,4.474C35.546,40.925,33.811,41,32,41	s-3.546-0.075-5.198-0.213c-0.941-1.42-1.849-2.912-2.702-4.474c-0.784-1.435-1.499-2.878-2.142-4.313	c0.643-1.434,1.358-2.877,2.142-4.313c0.853-1.562,1.76-3.055,2.702-4.474C28.454,23.075,30.189,23,32,23s3.546,0.075,5.198,0.213	c0.941,1.42,1.849,2.912,2.702,4.474c0.784,1.435,1.499,2.878,2.142,4.313C41.399,33.434,40.683,34.877,39.899,36.313z M43.078,34.487c0.68,1.739,1.238,3.444,1.676,5.096c-1.544,0.376-3.21,0.694-5.009,0.929c0.657-1.05,1.3-2.124,1.909-3.241	C42.161,36.346,42.629,35.416,43.078,34.487z M32,47.403c-1.272-1.341-2.522-2.863-3.729-4.513C29.487,42.961,30.73,43,32,43	s2.513-0.039,3.729-0.11C34.522,44.54,33.272,46.062,32,47.403z M24.254,40.512c-1.799-0.235-3.465-0.553-5.009-0.929	c0.438-1.652,0.996-3.358,1.676-5.096c0.45,0.93,0.918,1.859,1.423,2.785C22.954,38.388,23.597,39.462,24.254,40.512z M20.922,29.513c-0.68-1.739-1.238-3.445-1.676-5.096c1.544-0.376,3.21-0.694,5.009-0.929c-0.657,1.05-1.3,2.124-1.909,3.241	C21.839,27.654,21.371,28.584,20.922,29.513z M32,16.597c1.272,1.341,2.522,2.863,3.729,4.513C34.513,21.039,33.27,21,32,21	s-2.513,0.039-3.729,0.11C29.478,19.46,30.728,17.938,32,16.597z M41.655,26.729c-0.609-1.116-1.252-2.19-1.909-3.241	c1.799,0.235,3.465,0.553,5.009,0.929c-0.438,1.652-0.996,3.358-1.676,5.096C42.629,28.584,42.161,27.654,41.655,26.729z M18.315,19.754c-0.546-4.549,0.25-7.764,2.184-8.818c0.488-0.267,1.053-0.397,1.681-0.397c1.86,0,4.278,1.147,6.918,3.328	c0.496,0.41,0.993,0.852,1.488,1.319c-1.693,1.781-3.345,3.856-4.908,6.132c-2.463,0.251-4.776,0.648-6.892,1.166	C18.588,21.55,18.421,20.633,18.315,19.754z M8,32c0-2.6,3.47-5.303,9.317-7.06c0.606,2.279,1.437,4.654,2.471,7.06	c-1.034,2.407-1.865,4.782-2.471,7.06C11.47,37.303,8,34.6,8,32z M29.098,50.134c-3.53,2.917-6.662,3.989-8.599,2.931	c-1.934-1.055-2.729-4.27-2.184-8.818c0.105-0.879,0.273-1.796,0.469-2.729c2.117,0.519,4.43,0.915,6.892,1.166	c1.564,2.275,3.215,4.351,4.908,6.132C30.09,49.282,29.594,49.724,29.098,50.134z M45.685,44.246	c0.546,4.549-0.25,7.764-2.184,8.818c-1.934,1.059-5.068-0.014-8.599-2.931c-0.496-0.41-0.993-0.852-1.488-1.319	c1.693-1.781,3.345-3.856,4.908-6.132c2.463-0.251,4.776-0.648,6.892-1.166C45.412,42.45,45.579,43.367,45.685,44.246z M46.683,39.06c-0.606-2.279-1.437-4.654-2.471-7.06c1.034-2.407,1.865-4.782,2.471-7.06C52.53,26.697,56,29.4,56,32	S52.53,37.303,46.683,39.06z"></path>
    </g>

    <g id="jquery">
        <path d="M 30.03125 3 C 29.867188 2.996094 29.703125 3.03125 29.554688 3.105469 C 28.925781 3.417969 28.523438 3.878906 28.160156 4.28125 C 27.800781 4.683594 27.53125 5.042969 27.53125 5.042969 C 27.519531 5.058594 27.507813 5.074219 27.5 5.089844 C 26.507813 6.582031 26.019531 8.28125 26 9.992188 C 25.988281 11.308594 26.253906 12.632813 26.769531 13.878906 C 28.03125 16.90625 30.566406 19.246094 33.546875 20.363281 C 33.546875 20.363281 33.550781 20.363281 33.550781 20.363281 C 33.6875 20.417969 33.808594 20.460938 33.90625 20.496094 C 33.921875 20.5 33.9375 20.503906 33.953125 20.511719 C 33.972656 20.515625 34.015625 20.53125 34.089844 20.550781 C 34.203125 20.589844 34.394531 20.667969 34.675781 20.722656 C 35.492188 20.886719 36.253906 20.972656 36.96875 20.996094 C 40.132813 21.09375 42.324219 19.875 43.691406 18.542969 C 44.375 17.875 44.863281 17.183594 45.207031 16.621094 C 45.554688 16.058594 45.820313 15.550781 45.824219 15.546875 C 45.824219 15.546875 45.828125 15.546875 45.828125 15.546875 C 46.128906 15.089844 46.007813 14.476563 45.558594 14.167969 C 45.105469 13.859375 44.488281 13.972656 44.171875 14.421875 C 43.398438 15.558594 42.4375 16.210938 41.210938 16.527344 C 39.984375 16.84375 38.476563 16.796875 36.746094 16.367188 C 36.511719 16.308594 36.222656 16.214844 35.960938 16.117188 C 35.960938 16.117188 35.957031 16.117188 35.953125 16.113281 C 35.636719 16 35.3125 15.863281 34.996094 15.710938 L 34.992188 15.707031 L 34.984375 15.703125 C 34.394531 15.410156 33.824219 15.058594 33.304688 14.652344 C 31.867188 13.535156 30.75 11.707031 30.273438 9.796875 C 29.796875 7.886719 29.960938 5.941406 30.847656 4.53125 C 31.039063 4.226563 31.050781 3.84375 30.882813 3.527344 C 30.714844 3.210938 30.390625 3.011719 30.03125 3 Z M 20.996094 5 C 20.765625 5 20.542969 5.082031 20.367188 5.226563 C 18.765625 6.53125 17.242188 8.558594 17.242188 8.558594 C 17.230469 8.570313 17.222656 8.585938 17.214844 8.601563 C 14.253906 12.90625 14.4375 18.566406 16.691406 23.03125 C 17.0625 23.769531 17.484375 24.488281 17.957031 25.171875 C 17.960938 25.175781 17.960938 25.175781 17.960938 25.175781 C 18.332031 25.722656 18.78125 26.4375 19.429688 27.035156 C 19.640625 27.277344 19.859375 27.503906 20.078125 27.71875 C 20.128906 27.773438 20.183594 27.828125 20.234375 27.878906 C 20.238281 27.886719 20.242188 27.890625 20.246094 27.890625 C 20.453125 28.09375 20.667969 28.296875 20.890625 28.496094 C 20.890625 28.496094 20.894531 28.5 20.894531 28.5 C 20.902344 28.507813 20.914063 28.519531 20.921875 28.527344 L 20.9375 28.535156 C 20.949219 28.550781 20.964844 28.5625 20.980469 28.574219 C 21.214844 28.785156 21.453125 28.984375 21.699219 29.175781 C 21.710938 29.1875 21.71875 29.195313 21.730469 29.203125 C 21.730469 29.203125 21.785156 29.25 21.898438 29.332031 C 22.148438 29.527344 22.402344 29.714844 22.652344 29.894531 C 22.683594 29.917969 22.71875 29.941406 22.75 29.957031 C 22.773438 29.972656 22.789063 29.984375 22.808594 30 C 22.808594 30 22.8125 30 22.8125 30 C 22.902344 30.0625 22.992188 30.121094 23.066406 30.171875 C 23.089844 30.1875 23.144531 30.226563 23.234375 30.285156 C 23.429688 30.414063 23.621094 30.53125 23.820313 30.652344 C 23.839844 30.664063 23.863281 30.675781 23.882813 30.6875 C 23.882813 30.6875 23.914063 30.703125 23.949219 30.71875 C 23.957031 30.726563 23.957031 30.722656 23.96875 30.730469 C 24.125 30.824219 24.285156 30.917969 24.453125 31.003906 C 24.511719 31.039063 24.582031 31.074219 24.601563 31.085938 C 24.613281 31.09375 24.625 31.097656 24.636719 31.105469 C 24.738281 31.15625 24.847656 31.214844 24.960938 31.277344 C 25.058594 31.328125 25.085938 31.332031 25.078125 31.332031 C 25.328125 31.453125 25.566406 31.5625 25.789063 31.667969 C 25.804688 31.671875 25.820313 31.679688 25.839844 31.6875 C 25.886719 31.707031 25.925781 31.722656 25.976563 31.746094 C 26.175781 31.828125 26.382813 31.921875 26.601563 32.003906 C 26.613281 32.007813 26.628906 32.015625 26.640625 32.019531 C 26.683594 32.035156 26.757813 32.0625 26.871094 32.105469 C 26.871094 32.105469 26.875 32.105469 26.875 32.109375 C 27.0625 32.175781 27.253906 32.238281 27.441406 32.300781 C 27.539063 32.335938 27.625 32.363281 27.699219 32.390625 C 27.699219 32.390625 27.699219 32.390625 27.703125 32.390625 C 27.910156 32.457031 28.21875 32.585938 28.636719 32.65625 C 28.636719 32.65625 28.636719 32.652344 28.640625 32.65625 C 30.21875 32.917969 31.675781 33.023438 33.019531 32.996094 C 38.515625 32.875 42.078125 30.453125 44.167969 28.070313 C 46.253906 25.6875 46.957031 23.28125 46.957031 23.28125 C 47.097656 22.808594 46.871094 22.308594 46.425781 22.097656 C 45.984375 21.886719 45.453125 22.03125 45.171875 22.4375 C 42.515625 26.320313 37.351563 28.316406 31.703125 26.828125 C 31.453125 26.765625 31.210938 26.695313 30.972656 26.613281 C 30.957031 26.609375 30.9375 26.601563 30.917969 26.597656 C 30.882813 26.589844 30.835938 26.574219 30.753906 26.546875 C 30.746094 26.542969 30.738281 26.539063 30.734375 26.535156 C 30.550781 26.476563 30.378906 26.421875 30.222656 26.359375 C 30.222656 26.359375 30.222656 26.359375 30.21875 26.359375 C 30.128906 26.324219 30.050781 26.296875 29.984375 26.269531 C 29.785156 26.191406 29.597656 26.117188 29.4375 26.046875 C 29.425781 26.039063 29.417969 26.035156 29.40625 26.03125 C 29.320313 25.996094 29.28125 25.976563 29.335938 26.003906 C 29.3125 25.992188 29.289063 25.984375 29.265625 25.972656 C 29.046875 25.875 28.820313 25.769531 28.59375 25.65625 L 28.578125 25.652344 C 28.578125 25.648438 28.574219 25.648438 28.570313 25.644531 C 28.457031 25.585938 28.347656 25.53125 28.234375 25.46875 C 28.230469 25.46875 28.226563 25.464844 28.21875 25.464844 C 28.148438 25.425781 28.082031 25.390625 28.023438 25.359375 L 28.023438 25.363281 C 27.894531 25.296875 27.761719 25.214844 27.605469 25.121094 C 27.59375 25.117188 27.585938 25.113281 27.578125 25.109375 C 27.53125 25.082031 27.515625 25.074219 27.507813 25.066406 L 27.503906 25.066406 C 27.503906 25.066406 27.496094 25.0625 27.496094 25.0625 C 27.304688 24.945313 27.125 24.835938 26.984375 24.738281 C 26.964844 24.726563 26.941406 24.714844 26.921875 24.703125 C 26.9375 24.710938 26.894531 24.679688 26.792969 24.613281 C 26.6875 24.546875 26.578125 24.476563 26.460938 24.394531 L 26.457031 24.394531 C 26.453125 24.390625 26.449219 24.386719 26.441406 24.386719 C 26.222656 24.226563 25.996094 24.054688 25.765625 23.878906 L 25.746094 23.859375 C 25.691406 23.816406 25.644531 23.78125 25.613281 23.753906 C 25.605469 23.75 25.597656 23.742188 25.589844 23.734375 C 23.097656 21.746094 21.136719 19.023438 20.214844 15.980469 C 20.214844 15.980469 20.214844 15.976563 20.214844 15.976563 C 19.289063 12.980469 20.242188 9.300781 21.863281 6.5 C 22.042969 6.191406 22.042969 5.808594 21.863281 5.496094 C 21.683594 5.1875 21.351563 5 20.996094 5 Z M 10.003906 8 C 9.757813 8 9.515625 8.089844 9.332031 8.257813 C 9.277344 8.304688 9.25 8.355469 9.195313 8.40625 C 7.253906 10.203125 5.871094 12.390625 5.84375 12.4375 C 1.820313 18.285156 2.355469 27.257813 5.359375 33.316406 C 5.359375 33.320313 5.359375 33.324219 5.359375 33.328125 C 5.4375 33.492188 5.515625 33.636719 5.578125 33.75 C 5.609375 33.820313 5.644531 33.886719 5.679688 33.953125 C 5.753906 34.121094 5.808594 34.191406 5.816406 34.203125 C 5.863281 34.292969 5.910156 34.382813 5.945313 34.449219 C 5.949219 34.457031 5.957031 34.46875 5.960938 34.476563 C 6.050781 34.621094 6.136719 34.78125 6.234375 34.941406 C 6.234375 34.945313 6.238281 34.949219 6.242188 34.953125 C 6.285156 35.023438 6.339844 35.125 6.425781 35.25 C 6.535156 35.429688 6.636719 35.589844 6.710938 35.707031 C 6.714844 35.714844 6.71875 35.71875 6.71875 35.722656 C 6.757813 35.78125 6.804688 35.859375 6.863281 35.941406 C 6.867188 35.949219 6.871094 35.953125 6.875 35.957031 C 6.878906 35.964844 6.878906 35.96875 6.886719 35.980469 C 7.023438 36.1875 7.167969 36.402344 7.328125 36.625 C 7.34375 36.644531 7.339844 36.636719 7.351563 36.65625 C 7.363281 36.671875 7.363281 36.671875 7.371094 36.683594 C 7.375 36.6875 7.382813 36.699219 7.386719 36.707031 C 7.386719 36.707031 7.390625 36.710938 7.390625 36.710938 C 7.398438 36.722656 7.429688 36.761719 7.429688 36.761719 C 7.429688 36.765625 7.433594 36.769531 7.4375 36.769531 C 7.578125 36.964844 7.722656 37.164063 7.875 37.359375 C 7.933594 37.4375 7.984375 37.503906 8.011719 37.539063 C 8.019531 37.550781 8.03125 37.5625 8.039063 37.578125 C 8.167969 37.730469 8.292969 37.886719 8.421875 38.046875 C 8.425781 38.054688 8.429688 38.058594 8.433594 38.0625 C 8.472656 38.109375 8.523438 38.167969 8.578125 38.234375 C 8.746094 38.4375 8.917969 38.632813 9.09375 38.828125 C 9.109375 38.84375 9.125 38.863281 9.140625 38.878906 L 9.132813 38.867188 C 9.183594 38.925781 9.273438 39.023438 9.363281 39.082031 L 9.175781 38.921875 C 9.359375 39.125 9.546875 39.324219 9.734375 39.523438 C 9.738281 39.527344 9.742188 39.527344 9.742188 39.53125 C 9.808594 39.597656 9.875 39.664063 9.945313 39.734375 C 10.078125 39.867188 10.21875 40.011719 10.382813 40.167969 C 10.445313 40.226563 10.507813 40.28125 10.550781 40.328125 C 10.554688 40.332031 10.554688 40.332031 10.558594 40.332031 C 10.738281 40.503906 10.933594 40.6875 11.140625 40.871094 C 11.160156 40.882813 11.171875 40.898438 11.1875 40.910156 C 11.1875 40.914063 11.1875 40.914063 11.1875 40.914063 C 11.242188 40.960938 11.273438 40.988281 11.265625 40.980469 C 11.277344 40.988281 11.285156 41 11.296875 41.007813 C 11.480469 41.167969 11.664063 41.324219 11.847656 41.480469 C 11.9375 41.550781 12.015625 41.613281 12.082031 41.671875 C 12.085938 41.671875 12.085938 41.671875 12.089844 41.671875 C 12.253906 41.808594 12.410156 41.925781 12.558594 42.039063 C 12.558594 42.042969 12.5625 42.042969 12.5625 42.046875 C 12.636719 42.101563 12.714844 42.160156 12.800781 42.226563 C 12.804688 42.230469 12.808594 42.230469 12.8125 42.234375 C 12.988281 42.367188 13.164063 42.492188 13.332031 42.613281 C 13.382813 42.652344 13.441406 42.691406 13.503906 42.734375 C 13.5 42.730469 13.523438 42.75 13.515625 42.746094 C 13.542969 42.765625 13.570313 42.785156 13.59375 42.800781 C 13.757813 42.910156 13.917969 43.019531 14.085938 43.128906 C 14.085938 43.132813 14.089844 43.132813 14.089844 43.132813 C 14.164063 43.179688 14.230469 43.226563 14.296875 43.269531 C 14.300781 43.273438 14.304688 43.277344 14.3125 43.28125 C 14.578125 43.453125 14.839844 43.613281 15.097656 43.769531 C 15.113281 43.78125 15.128906 43.789063 15.144531 43.796875 C 15.207031 43.832031 15.265625 43.863281 15.320313 43.894531 C 15.324219 43.898438 15.324219 43.898438 15.328125 43.902344 C 15.527344 44.015625 15.726563 44.132813 15.9375 44.246094 L 15.917969 44.234375 C 16.058594 44.3125 16.183594 44.371094 16.285156 44.421875 C 16.410156 44.492188 16.542969 44.566406 16.683594 44.636719 C 16.703125 44.648438 16.726563 44.660156 16.75 44.671875 C 16.824219 44.699219 16.824219 44.707031 16.746094 44.660156 C 16.773438 44.679688 16.800781 44.691406 16.828125 44.703125 C 16.839844 44.710938 16.882813 44.730469 16.957031 44.769531 C 16.960938 44.769531 16.960938 44.769531 16.964844 44.769531 C 17.195313 44.886719 17.421875 44.992188 17.65625 45.09375 C 17.710938 45.121094 17.746094 45.136719 17.734375 45.128906 C 17.757813 45.140625 17.777344 45.152344 17.796875 45.160156 C 18.058594 45.277344 18.324219 45.386719 18.59375 45.496094 C 18.597656 45.496094 18.605469 45.5 18.609375 45.5 C 18.625 45.503906 18.703125 45.539063 18.78125 45.566406 C 18.796875 45.574219 18.8125 45.578125 18.828125 45.582031 C 18.835938 45.585938 18.832031 45.585938 18.839844 45.589844 C 19.054688 45.671875 19.269531 45.753906 19.484375 45.828125 C 19.542969 45.855469 19.59375 45.871094 19.628906 45.886719 C 19.910156 45.980469 20.183594 46.070313 20.464844 46.15625 C 20.472656 46.160156 20.480469 46.164063 20.492188 46.167969 C 20.507813 46.171875 20.582031 46.195313 20.664063 46.21875 C 20.667969 46.21875 20.671875 46.222656 20.675781 46.222656 C 20.695313 46.226563 20.691406 46.226563 20.710938 46.234375 C 20.949219 46.308594 21.230469 46.414063 21.597656 46.484375 C 21.601563 46.484375 21.601563 46.484375 21.605469 46.484375 C 23.535156 46.839844 25.328125 47 27 47 C 41.335938 47.003906 45.933594 35.355469 45.933594 35.355469 C 46.109375 34.890625 45.917969 34.367188 45.484375 34.125 C 45.050781 33.886719 44.503906 34 44.203125 34.394531 C 40.121094 39.761719 32.800781 40.847656 25.660156 39.207031 C 25.445313 39.15625 25.191406 39.078125 24.898438 38.988281 C 24.894531 38.988281 24.886719 38.984375 24.882813 38.984375 C 24.832031 38.96875 24.777344 38.953125 24.75 38.941406 C 24.734375 38.9375 24.71875 38.933594 24.703125 38.929688 C 24.453125 38.851563 24.199219 38.765625 23.945313 38.679688 C 23.941406 38.675781 23.933594 38.675781 23.925781 38.671875 C 23.910156 38.667969 23.894531 38.664063 23.882813 38.65625 C 23.867188 38.652344 23.851563 38.644531 23.832031 38.640625 C 23.636719 38.570313 23.425781 38.492188 23.207031 38.40625 L 23.171875 38.390625 C 23.085938 38.359375 23.011719 38.332031 22.980469 38.316406 C 22.746094 38.222656 22.503906 38.121094 22.265625 38.015625 C 22.242188 38.003906 22.222656 37.996094 22.203125 37.988281 C 22.207031 37.988281 22.15625 37.96875 22.125 37.957031 C 21.917969 37.859375 21.714844 37.761719 21.503906 37.660156 C 21.488281 37.65625 21.476563 37.648438 21.460938 37.640625 C 21.449219 37.636719 21.414063 37.621094 21.34375 37.582031 C 21.335938 37.578125 21.328125 37.574219 21.316406 37.570313 C 21.179688 37.503906 21.027344 37.425781 20.871094 37.339844 C 20.867188 37.335938 20.859375 37.332031 20.855469 37.328125 C 20.730469 37.265625 20.632813 37.21875 20.5625 37.175781 C 20.554688 37.175781 20.550781 37.171875 20.542969 37.167969 C 20.359375 37.070313 20.167969 36.957031 19.964844 36.84375 L 20.042969 36.890625 C 19.910156 36.804688 19.816406 36.757813 19.761719 36.726563 L 19.792969 36.742188 C 19.539063 36.589844 19.289063 36.4375 19.050781 36.285156 C 19.046875 36.28125 19.042969 36.28125 19.042969 36.277344 C 18.996094 36.25 18.941406 36.214844 18.875 36.167969 C 18.863281 36.15625 18.847656 36.148438 18.835938 36.140625 C 18.671875 36.035156 18.503906 35.917969 18.328125 35.800781 L 18.316406 35.792969 C 18.28125 35.765625 18.226563 35.726563 18.152344 35.671875 C 17.996094 35.5625 17.839844 35.449219 17.679688 35.328125 L 17.671875 35.328125 C 17.664063 35.320313 17.660156 35.316406 17.652344 35.308594 C 17.589844 35.257813 17.519531 35.207031 17.449219 35.152344 C 17.292969 35.03125 17.144531 34.917969 17.011719 34.808594 L 16.992188 34.796875 C 16.914063 34.730469 16.84375 34.671875 16.792969 34.628906 C 16.792969 34.628906 16.789063 34.628906 16.785156 34.625 C 16.601563 34.476563 16.425781 34.320313 16.234375 34.15625 L 16.316406 34.238281 C 16.15625 34.058594 16.082031 34.035156 16.121094 34.0625 L 16.175781 34.109375 C 15.984375 33.9375 15.789063 33.753906 15.589844 33.566406 L 15.578125 33.558594 C 15.546875 33.527344 15.496094 33.476563 15.429688 33.414063 L 15.402344 33.386719 C 15.257813 33.246094 15.125 33.113281 15.003906 32.992188 C 15 32.988281 15 32.988281 14.996094 32.984375 C 14.941406 32.929688 14.890625 32.875 14.828125 32.8125 C 14.65625 32.640625 14.488281 32.457031 14.320313 32.269531 C 14.3125 32.261719 14.300781 32.25 14.292969 32.238281 L 14.289063 32.238281 C 14.113281 32.046875 13.941406 31.847656 13.765625 31.640625 C 13.765625 31.636719 13.765625 31.632813 13.761719 31.628906 C 13.734375 31.597656 13.6875 31.539063 13.613281 31.453125 C 13.492188 31.304688 13.371094 31.148438 13.238281 30.988281 C 13.238281 30.988281 13.234375 30.984375 13.234375 30.984375 C 13.191406 30.925781 13.144531 30.863281 13.117188 30.828125 L 13.113281 30.824219 C 12.964844 30.628906 12.824219 30.4375 12.683594 30.242188 C 12.683594 30.242188 12.679688 30.238281 12.679688 30.238281 C 10.796875 27.644531 9.496094 23.449219 9.132813 19.410156 C 8.765625 15.375 9.394531 11.5 10.800781 9.59375 C 11.027344 9.292969 11.0625 8.890625 10.894531 8.554688 C 10.726563 8.214844 10.382813 8.003906 10.003906 8 Z M 28.203125 8.648438 C 28.257813 9.195313 28.199219 9.746094 28.332031 10.28125 C 28.914063 12.597656 30.214844 14.785156 32.078125 16.234375 C 32.714844 16.726563 33.398438 17.152344 34.105469 17.5 C 34.109375 17.503906 34.113281 17.507813 34.117188 17.507813 C 34.492188 17.6875 34.878906 17.851563 35.273438 17.996094 L 35.265625 17.992188 C 35.570313 18.105469 35.914063 18.222656 36.261719 18.308594 C 37.164063 18.53125 38.035156 18.648438 38.878906 18.695313 C 38.285156 18.816406 37.789063 19.019531 37.03125 18.996094 C 36.4375 18.976563 35.78125 18.902344 35.066406 18.761719 C 35.066406 18.761719 35.0625 18.761719 35.0625 18.761719 C 35.015625 18.753906 34.894531 18.707031 34.6875 18.644531 C 34.664063 18.636719 34.617188 18.621094 34.566406 18.605469 C 34.445313 18.5625 34.347656 18.53125 34.273438 18.5 C 34.265625 18.496094 34.261719 18.496094 34.253906 18.492188 C 31.785156 17.566406 29.648438 15.589844 28.617188 13.109375 C 28.199219 12.101563 27.988281 11.046875 28 10.011719 C 28.003906 9.546875 28.113281 9.097656 28.203125 8.648438 Z M 18.039063 11.46875 C 17.785156 13.160156 17.789063 14.894531 18.300781 16.5625 C 19.355469 20.039063 21.558594 23.074219 24.34375 25.296875 C 24.402344 25.347656 24.460938 25.394531 24.5 25.429688 C 24.507813 25.433594 24.515625 25.441406 24.523438 25.445313 C 24.773438 25.640625 25.035156 25.839844 25.308594 26.03125 C 25.3125 26.035156 25.320313 26.039063 25.328125 26.042969 C 25.453125 26.128906 25.578125 26.210938 25.714844 26.296875 C 25.714844 26.300781 25.714844 26.300781 25.714844 26.300781 C 25.722656 26.304688 25.792969 26.359375 25.925781 26.4375 C 26.113281 26.558594 26.300781 26.671875 26.457031 26.769531 C 26.464844 26.773438 26.46875 26.777344 26.472656 26.78125 C 26.542969 26.820313 26.589844 26.847656 26.609375 26.855469 C 26.75 26.941406 26.90625 27.035156 27.09375 27.132813 C 27.09375 27.132813 27.09375 27.132813 27.09375 27.136719 C 27.167969 27.171875 27.242188 27.210938 27.316406 27.246094 C 27.4375 27.308594 27.554688 27.371094 27.671875 27.433594 C 27.679688 27.4375 27.6875 27.441406 27.699219 27.445313 C 27.917969 27.554688 28.152344 27.664063 28.394531 27.769531 C 28.523438 27.835938 28.578125 27.855469 28.613281 27.867188 C 28.839844 27.96875 29.054688 28.050781 29.25 28.128906 C 29.347656 28.167969 29.441406 28.203125 29.515625 28.234375 L 29.511719 28.230469 C 29.71875 28.308594 29.921875 28.375 30.113281 28.4375 C 30.171875 28.460938 30.253906 28.484375 30.34375 28.511719 C 30.621094 28.605469 30.90625 28.691406 31.195313 28.765625 C 34.945313 29.753906 38.519531 29.246094 41.539063 27.828125 C 39.703125 29.472656 37.039063 30.90625 32.976563 30.996094 C 31.765625 31.023438 30.433594 30.929688 28.964844 30.683594 C 28.960938 30.679688 28.957031 30.679688 28.953125 30.679688 C 28.832031 30.660156 28.621094 30.582031 28.316406 30.484375 C 28.230469 30.460938 28.15625 30.433594 28.078125 30.40625 C 27.90625 30.351563 27.730469 30.289063 27.558594 30.226563 L 27.550781 30.222656 C 27.507813 30.207031 27.421875 30.175781 27.320313 30.140625 L 27.296875 30.128906 C 27.289063 30.125 27.289063 30.125 27.28125 30.125 C 27.117188 30.058594 26.945313 29.984375 26.765625 29.90625 C 26.765625 29.90625 26.765625 29.90625 26.761719 29.90625 C 26.710938 29.882813 26.660156 29.859375 26.601563 29.839844 C 26.367188 29.730469 26.144531 29.628906 25.9375 29.523438 C 25.925781 29.519531 25.914063 29.515625 25.902344 29.511719 C 25.800781 29.453125 25.6875 29.394531 25.566406 29.335938 L 25.554688 29.328125 C 25.546875 29.324219 25.542969 29.320313 25.535156 29.316406 C 25.488281 29.292969 25.4375 29.265625 25.4375 29.265625 C 25.414063 29.25 25.390625 29.238281 25.371094 29.226563 C 25.226563 29.152344 25.078125 29.066406 24.9375 28.980469 C 24.910156 28.964844 24.886719 28.953125 24.859375 28.9375 C 24.859375 28.9375 24.835938 28.925781 24.824219 28.921875 C 24.652344 28.816406 24.488281 28.714844 24.320313 28.605469 C 24.316406 28.601563 24.3125 28.597656 24.308594 28.59375 C 24.292969 28.585938 24.242188 28.550781 24.15625 28.496094 C 24.03125 28.414063 23.929688 28.347656 23.851563 28.292969 C 23.828125 28.273438 23.800781 28.257813 23.773438 28.238281 C 23.773438 28.238281 23.769531 28.238281 23.765625 28.234375 C 23.539063 28.070313 23.316406 27.90625 23.105469 27.738281 C 23.09375 27.730469 23.082031 27.722656 23.074219 27.714844 C 23.070313 27.710938 23.011719 27.664063 22.9375 27.605469 C 22.714844 27.429688 22.503906 27.253906 22.296875 27.070313 C 22.292969 27.066406 22.292969 27.066406 22.289063 27.0625 C 22.28125 27.054688 22.269531 27.046875 22.261719 27.039063 C 22.257813 27.035156 22.25 27.03125 22.246094 27.027344 C 22.238281 27.019531 22.234375 27.015625 22.230469 27.011719 C 22.035156 26.835938 21.84375 26.65625 21.652344 26.46875 L 21.640625 26.457031 C 21.589844 26.40625 21.542969 26.359375 21.5 26.3125 C 21.496094 26.3125 21.496094 26.308594 21.492188 26.308594 C 21.285156 26.101563 21.097656 25.90625 20.933594 25.714844 C 20.902344 25.679688 20.871094 25.648438 20.835938 25.621094 C 20.453125 25.285156 20.027344 24.652344 19.609375 24.042969 C 19.605469 24.039063 19.605469 24.039063 19.605469 24.035156 C 19.183594 23.433594 18.808594 22.796875 18.480469 22.136719 C 18.480469 22.132813 18.480469 22.132813 18.480469 22.128906 C 16.804688 18.820313 16.582031 14.816406 18.039063 11.46875 Z M 7.269531 14.078125 C 7.046875 15.824219 6.96875 17.675781 7.140625 19.59375 C 7.53125 23.917969 8.847656 28.363281 11.0625 31.410156 C 11.214844 31.628906 11.371094 31.835938 11.53125 32.046875 C 11.589844 32.125 11.628906 32.171875 11.640625 32.1875 C 11.65625 32.210938 11.671875 32.234375 11.691406 32.253906 C 11.816406 32.410156 11.945313 32.570313 12.078125 32.738281 C 12.089844 32.75 12.097656 32.757813 12.109375 32.769531 C 12.132813 32.796875 12.175781 32.855469 12.246094 32.9375 C 12.425781 33.148438 12.613281 33.367188 12.808594 33.582031 C 12.816406 33.589844 12.824219 33.601563 12.832031 33.609375 C 13.015625 33.8125 13.207031 34.015625 13.402344 34.214844 C 13.453125 34.265625 13.507813 34.324219 13.574219 34.390625 C 13.578125 34.394531 13.578125 34.394531 13.578125 34.394531 L 13.582031 34.398438 C 13.738281 34.554688 13.882813 34.699219 14.019531 34.832031 C 14.027344 34.839844 14.039063 34.851563 14.046875 34.859375 C 14.078125 34.886719 14.125 34.9375 14.207031 35.015625 C 14.210938 35.019531 14.214844 35.019531 14.21875 35.023438 C 14.417969 35.210938 14.625 35.40625 14.839844 35.59375 C 14.855469 35.613281 14.875 35.628906 14.894531 35.644531 C 14.976563 35.707031 14.957031 35.714844 14.832031 35.578125 C 14.859375 35.605469 14.886719 35.632813 14.914063 35.65625 C 15.109375 35.832031 15.308594 36.003906 15.527344 36.179688 C 15.605469 36.242188 15.667969 36.292969 15.714844 36.332031 C 15.71875 36.335938 15.726563 36.34375 15.730469 36.347656 C 15.898438 36.484375 16.058594 36.605469 16.207031 36.722656 C 16.21875 36.734375 16.230469 36.742188 16.238281 36.75 C 16.304688 36.792969 16.367188 36.84375 16.4375 36.894531 C 16.445313 36.90625 16.453125 36.914063 16.464844 36.921875 C 16.640625 37.046875 16.8125 37.175781 17 37.308594 C 17.039063 37.335938 17.097656 37.382813 17.171875 37.4375 C 17.175781 37.4375 17.179688 37.441406 17.1875 37.441406 C 17.367188 37.566406 17.558594 37.699219 17.765625 37.828125 C 17.820313 37.867188 17.882813 37.914063 17.964844 37.964844 C 17.96875 37.96875 17.972656 37.96875 17.972656 37.96875 C 18.238281 38.140625 18.503906 38.304688 18.761719 38.457031 C 18.769531 38.460938 18.777344 38.46875 18.789063 38.472656 C 18.875 38.519531 18.914063 38.542969 18.90625 38.539063 C 18.929688 38.554688 18.957031 38.574219 18.984375 38.589844 C 19.171875 38.691406 19.367188 38.804688 19.574219 38.917969 C 19.574219 38.917969 19.578125 38.921875 19.578125 38.921875 C 19.582031 38.921875 19.585938 38.925781 19.59375 38.925781 C 19.722656 39 19.839844 39.058594 19.9375 39.109375 C 20.089844 39.191406 20.253906 39.277344 20.425781 39.359375 C 20.429688 39.363281 20.441406 39.367188 20.441406 39.371094 C 20.449219 39.371094 20.449219 39.371094 20.453125 39.375 C 20.511719 39.402344 20.578125 39.441406 20.683594 39.484375 C 20.878906 39.582031 21.078125 39.675781 21.285156 39.769531 C 21.300781 39.777344 21.316406 39.785156 21.332031 39.792969 C 21.335938 39.792969 21.402344 39.820313 21.453125 39.84375 C 21.703125 39.953125 21.96875 40.066406 22.246094 40.175781 C 22.246094 40.179688 22.25 40.179688 22.25 40.179688 C 22.339844 40.214844 22.394531 40.234375 22.40625 40.238281 C 22.421875 40.246094 22.433594 40.25 22.449219 40.253906 C 22.679688 40.347656 22.921875 40.441406 23.179688 40.53125 C 23.222656 40.546875 23.269531 40.5625 23.3125 40.578125 C 23.558594 40.664063 23.8125 40.746094 24.074219 40.828125 C 24.175781 40.863281 24.265625 40.886719 24.34375 40.910156 C 24.601563 40.988281 24.886719 41.082031 25.214844 41.15625 C 30.507813 42.375 36.046875 42.066406 40.546875 39.777344 C 37.945313 42.382813 33.679688 45 27 45 C 25.457031 45 23.785156 44.851563 21.96875 44.515625 C 21.789063 44.480469 21.558594 44.402344 21.25 44.308594 C 21.234375 44.300781 21.21875 44.296875 21.203125 44.292969 C 21.199219 44.292969 21.136719 44.273438 21.0625 44.25 L 21.03125 44.242188 C 20.78125 44.164063 20.535156 44.082031 20.285156 43.996094 C 20.277344 43.992188 20.273438 43.992188 20.265625 43.988281 C 20.238281 43.980469 20.246094 43.984375 20.253906 43.984375 C 20.242188 43.980469 20.226563 43.972656 20.214844 43.96875 C 19.976563 43.882813 19.738281 43.792969 19.515625 43.707031 C 19.5 43.699219 19.480469 43.695313 19.460938 43.6875 C 19.46875 43.691406 19.414063 43.667969 19.332031 43.636719 L 19.316406 43.628906 C 19.074219 43.53125 18.839844 43.433594 18.601563 43.328125 C 18.554688 43.308594 18.492188 43.277344 18.484375 43.277344 C 18.480469 43.273438 18.476563 43.269531 18.472656 43.269531 C 18.253906 43.171875 18.050781 43.078125 17.855469 42.980469 L 17.847656 42.980469 C 17.832031 42.96875 17.773438 42.941406 17.734375 42.921875 C 17.644531 42.871094 17.632813 42.871094 17.601563 42.859375 L 17.585938 42.855469 C 17.460938 42.789063 17.335938 42.722656 17.214844 42.65625 C 17.203125 42.648438 17.191406 42.640625 17.179688 42.636719 C 17.0625 42.578125 16.972656 42.53125 16.902344 42.492188 C 16.898438 42.488281 16.890625 42.484375 16.886719 42.484375 C 16.707031 42.386719 16.527344 42.285156 16.347656 42.179688 L 16.339844 42.175781 C 16.261719 42.128906 16.1875 42.085938 16.109375 42.046875 L 16.089844 42.03125 C 15.855469 41.890625 15.625 41.746094 15.394531 41.597656 C 15.328125 41.550781 15.261719 41.511719 15.195313 41.46875 L 15.191406 41.464844 C 15.191406 41.464844 15.191406 41.464844 15.1875 41.464844 C 15.035156 41.359375 14.886719 41.257813 14.726563 41.152344 C 14.703125 41.132813 14.675781 41.113281 14.648438 41.09375 C 14.609375 41.070313 14.5625 41.035156 14.507813 40.996094 C 14.503906 40.992188 14.5 40.988281 14.496094 40.984375 C 14.332031 40.871094 14.171875 40.753906 14.019531 40.640625 L 14.015625 40.636719 C 14.015625 40.636719 14.011719 40.636719 14.011719 40.636719 C 13.9375 40.578125 13.863281 40.519531 13.78125 40.457031 L 13.777344 40.453125 C 13.621094 40.335938 13.476563 40.226563 13.34375 40.117188 L 13.339844 40.113281 C 13.261719 40.050781 13.195313 40 13.140625 39.953125 C 13.140625 39.949219 13.136719 39.949219 13.136719 39.949219 C 12.957031 39.796875 12.78125 39.644531 12.605469 39.496094 C 12.582031 39.472656 12.5625 39.457031 12.546875 39.449219 C 12.53125 39.429688 12.511719 39.414063 12.496094 39.398438 C 12.316406 39.246094 12.132813 39.070313 11.941406 38.890625 L 11.9375 38.882813 C 11.871094 38.820313 11.8125 38.769531 11.761719 38.71875 C 11.757813 38.714844 11.753906 38.710938 11.75 38.707031 C 11.625 38.589844 11.496094 38.453125 11.351563 38.308594 C 11.34375 38.300781 11.335938 38.292969 11.328125 38.28125 C 11.273438 38.230469 11.226563 38.1875 11.179688 38.140625 C 11.003906 37.953125 10.832031 37.769531 10.660156 37.582031 C 10.65625 37.578125 10.652344 37.574219 10.652344 37.574219 C 10.644531 37.5625 10.636719 37.554688 10.625 37.546875 C 10.453125 37.351563 10.285156 37.160156 10.125 36.964844 C 10.117188 36.957031 10.109375 36.949219 10.101563 36.9375 C 10.070313 36.902344 10.027344 36.851563 9.980469 36.796875 L 9.976563 36.792969 C 9.976563 36.789063 9.972656 36.785156 9.96875 36.78125 C 9.847656 36.628906 9.71875 36.46875 9.585938 36.308594 C 9.539063 36.246094 9.496094 36.1875 9.476563 36.15625 C 9.464844 36.144531 9.457031 36.132813 9.449219 36.125 C 9.320313 35.957031 9.191406 35.789063 9.0625 35.609375 L 9.054688 35.597656 C 9.019531 35.546875 8.996094 35.519531 9.007813 35.535156 C 9 35.523438 8.992188 35.511719 8.984375 35.5 C 8.976563 35.488281 8.96875 35.480469 8.960938 35.46875 C 8.957031 35.464844 8.953125 35.457031 8.949219 35.453125 C 8.949219 35.453125 8.949219 35.453125 8.945313 35.453125 C 8.8125 35.265625 8.679688 35.066406 8.539063 34.855469 C 8.535156 34.84375 8.527344 34.832031 8.515625 34.820313 C 8.492188 34.785156 8.460938 34.734375 8.421875 34.671875 L 8.410156 34.65625 C 8.292969 34.464844 8.1875 34.308594 8.117188 34.1875 C 8.109375 34.171875 8.097656 34.152344 8.085938 34.136719 C 8.054688 34.089844 8.015625 34.019531 7.957031 33.925781 L 7.953125 33.917969 C 7.871094 33.78125 7.785156 33.636719 7.695313 33.484375 L 7.695313 33.476563 C 7.6875 33.46875 7.6875 33.464844 7.679688 33.457031 C 7.640625 33.378906 7.605469 33.3125 7.578125 33.257813 C 7.566406 33.234375 7.554688 33.214844 7.539063 33.191406 C 7.496094 33.113281 7.480469 33.078125 7.515625 33.152344 C 7.5 33.117188 7.484375 33.085938 7.46875 33.058594 C 7.433594 32.996094 7.398438 32.9375 7.375 32.875 C 7.367188 32.859375 7.359375 32.84375 7.351563 32.828125 C 7.273438 32.679688 7.210938 32.5625 7.164063 32.46875 C 7.160156 32.457031 7.15625 32.445313 7.152344 32.4375 C 4.546875 27.183594 4.179688 19.085938 7.269531 14.078125 Z M 22.316406 27.105469 L 22.328125 27.109375 C 22.34375 27.132813 22.339844 27.125 22.359375 27.15625 C 22.347656 27.136719 22.332031 27.121094 22.316406 27.105469 Z M 10.667969 37.605469 C 10.667969 37.605469 10.679688 37.617188 10.683594 37.621094 C 10.695313 37.632813 10.691406 37.628906 10.703125 37.644531 C 10.703125 37.644531 10.707031 37.648438 10.707031 37.648438 L 10.707031 37.652344 C 10.714844 37.65625 10.71875 37.667969 10.722656 37.675781 C 10.691406 37.632813 10.679688 37.617188 10.667969 37.605469 Z M 14.746094 41.171875 L 14.78125 41.191406 C 14.710938 41.140625 14.714844 41.136719 14.78125 41.199219 C 14.769531 41.1875 14.757813 41.179688 14.746094 41.171875 Z"></path>
    </g>

    <g id="css3">
        <linearGradient id="WLIJulVjW6wsxbwoEFfWIa_5cVdiiKKi0vX_gr1" x1="31.94" x2="31.94" y1="8.534" y2="56.18"
                        gradientUnits="userSpaceOnUse">
            <stop offset="0" stop-color="#6dc7ff"></stop>
            <stop offset=".492" stop-color="#aab9ff"></stop>
            <stop offset="1" stop-color="#e6abff"></stop>
        </linearGradient>
        <polygon fill="url(#WLIJulVjW6wsxbwoEFfWIa_5cVdiiKKi0vX_gr1)"
                 points="49.42,11.71 46.2,48.53 31.9,52.45 17.78,48.44 14.46,11.71"></polygon>
        <polygon fill="#fff"
                 points="19.153,17.377 44.404,17.377 42.176,42.734 31.885,46.129 21.699,43.158 21.063,35.838 25.837,35.838 26.474,39.657 31.991,41.142 37.614,39.445 38.038,32.867 20.851,32.973 20.426,27.774 38.569,27.774 38.887,22.363 19.684,22.257"></polygon>
        <linearGradient id="WLIJulVjW6wsxbwoEFfWIb_5cVdiiKKi0vX_gr2" x1="31.939" x2="31.939" y1="3.214" y2="58.258"
                        gradientUnits="userSpaceOnUse">
            <stop offset="0" stop-color="#1a6dff"></stop>
            <stop offset="1" stop-color="#c822ff"></stop>
        </linearGradient>
        <path fill="url(#WLIJulVjW6wsxbwoEFfWIb_5cVdiiKKi0vX_gr2)"
              d="M52.777,8.635 c-0.161-0.178-0.39-0.28-0.628-0.28H11.722c-0.238,0-0.458,0.102-0.62,0.28s-0.246,0.416-0.221,0.645l3.709,41.165 c0.034,0.357,0.28,0.645,0.62,0.747l16.441,4.668c0.076,0.017,0.153,0.025,0.238,0.025c0.068,0,0.144-0.008,0.221-0.025 l16.653-4.566c0.348-0.093,0.594-0.39,0.628-0.738L52.998,9.28C53.015,9.042,52.938,8.813,52.777,8.635z M31.04,53.916 l-14.811-4.201l-3.573-39.663H31.04v6.476H19.149c-0.238,0-0.467,0.102-0.628,0.28c-0.161,0.178-0.238,0.407-0.221,0.645 l0.475,4.982c0.042,0.441,0.407,0.772,0.849,0.772H31.04v3.718H20.134c-0.238,0-0.467,0.102-0.628,0.28 c-0.161,0.178-0.238,0.407-0.221,0.645l0.484,5.093c0.042,0.441,0.407,0.772,0.849,0.772H31.04v6.213l-3.887-1.137l-0.365-3.37 c-0.042-0.433-0.407-0.755-0.84-0.755h-5.076c-0.238,0-0.467,0.102-0.628,0.28c-0.161,0.178-0.238,0.407-0.221,0.645l0.721,7.639 c0.034,0.348,0.28,0.645,0.62,0.738l9.676,2.767V53.916z M32.738,33.716h4.481l-0.407,4.965l-4.074,1.188V33.716z M32.016,41.847 l0.721-0.212l5.11-1.485c0.339-0.102,0.577-0.399,0.611-0.747l0.526-6.468c0.017-0.238-0.068-0.467-0.221-0.645 c-0.161-0.17-0.39-0.272-0.628-0.272h-5.398H31.04h-9.65l-0.323-3.395h9.973h1.698h5.814c0.441,0,0.806-0.34,0.849-0.781 l0.441-5.415c0.017-0.238-0.068-0.467-0.221-0.645c-0.161-0.17-0.39-0.272-0.628-0.272h-6.255H31.04H20.397l-0.314-3.285H31.04 h1.698h10.941L41.387,42.5l-8.649,2.521l-0.747,0.221L31.04,44.97l-8.657-2.47l-0.577-6.137h3.378l0.348,3.174 c0.034,0.34,0.272,0.628,0.603,0.721l4.906,1.443l0.501,0.144C31.694,41.889,31.863,41.889,32.016,41.847z M32.738,23.208h5.339 l-0.306,3.718h-5.033V23.208z M47.744,49.817l-15.006,4.108v-7.13l9.676-2.826c0.331-0.093,0.577-0.39,0.611-0.738l2.436-25.777 c0.017-0.238-0.059-0.467-0.221-0.645c-0.161-0.178-0.39-0.28-0.628-0.28H32.738v-6.476h18.486L47.744,49.817z"></path>
    </g>

    <g id="sass">
        <g clip-path="url(#clip0_15_2272)">
            <path d="M100.673 50.0767C96.6031 50.0975 93.0654 51.0695 90.1035 52.5064C89.0163 50.3721 87.9295 48.4708 87.738 47.0761C87.5246 45.4494 87.2691 44.4561 87.5246 42.5122C87.7805 40.5683 88.9313 37.8002 88.9098 37.589C88.8888 37.3779 88.6539 36.3846 86.3099 36.3638C83.9659 36.3425 81.9413 36.8074 81.7069 37.42C81.4724 38.0326 81.025 39.4274 80.7266 40.8638C80.3217 42.9771 76.0386 50.5199 73.5881 54.4711C72.7993 52.9291 72.1175 51.5765 71.968 50.499C71.7551 48.8723 71.4991 47.879 71.7551 45.9351C72.011 43.9912 73.1617 41.2235 73.1403 41.0119C73.1188 40.8008 72.8843 39.8075 70.5403 39.7867C68.1959 39.7654 66.1713 40.2303 65.9373 40.8429C65.7029 41.456 65.447 42.8924 64.9571 44.2871C64.4667 45.6818 58.7769 58.2751 57.2853 61.5285C56.6824 62.8454 56.0501 64.1487 55.3887 65.4376C55.3887 65.4376 55.3672 65.5011 55.3032 65.6067C55.0954 66.0108 54.8824 66.4123 54.6643 66.8111V66.8319C54.3444 67.4028 54.0035 67.9307 53.833 67.9307C53.7051 67.9307 53.4706 66.4096 53.8755 64.3388C54.7278 59.9652 56.7524 53.1616 56.7314 52.9291C56.7314 52.8022 57.1148 51.6191 55.4102 51.0061C53.7476 50.3934 53.1512 51.4075 53.0017 51.4075C52.8527 51.4075 52.7458 51.7669 52.7458 51.7669C52.7458 51.7669 54.6003 44.1181 49.2085 44.1181C45.8418 44.1181 41.1958 47.7735 38.8943 51.0695C36.278 52.4812 33.6639 53.8969 31.0521 55.3166C29.7953 56.014 28.4951 56.7114 27.2804 57.3661C27.1949 57.2818 27.1099 57.1758 27.0245 57.0915C20.5034 50.1823 8.44203 45.3012 8.95342 36.0257C9.14537 32.645 10.3171 23.7705 32.1178 12.9948C50.0609 4.22589 64.3392 6.65555 66.8111 12.0437C70.3484 19.735 59.1608 34.0184 40.6204 36.0887C33.5455 36.8708 29.8373 34.1661 28.9 33.152C27.9197 32.0953 27.7703 32.0319 27.4079 32.2435C26.8115 32.5607 27.1949 33.5114 27.4079 34.0605C27.9622 35.497 30.2422 38.0326 34.0994 39.2796C37.5091 40.378 45.7988 40.9911 55.8361 37.1454C67.0666 32.8348 75.8467 20.8547 73.2682 10.8184C70.6893 0.633969 53.6411 -2.7255 37.5091 2.95805C27.9197 6.33927 17.52 11.6635 10.0402 18.594C1.15366 26.8341 -0.253009 33.9971 0.322365 36.9977C2.38987 47.6466 17.2006 54.5771 23.1248 59.7115C22.8264 59.8805 22.549 60.0287 22.315 60.1556C19.3526 61.6133 8.05815 67.4658 5.24526 73.6569C2.04894 80.6717 5.75711 85.7009 8.20759 86.3765C15.8154 88.4686 23.6362 84.7077 27.8343 78.4953C32.0323 72.2834 31.521 64.2119 29.5819 60.5144C29.5604 60.4723 29.5394 60.4297 29.4964 60.3876C30.2637 59.9439 31.0521 59.479 31.8194 59.0354C33.2297 58.2088 34.6578 57.4127 36.1029 56.6475C35.3781 58.6127 34.8452 60.958 34.5898 64.3388C34.2699 68.3114 35.9105 73.4666 38.063 75.4947C39.0223 76.3829 40.1516 76.4037 40.8764 76.4037C43.3908 76.4037 44.5206 74.3329 45.7778 71.882C47.312 68.8818 48.6972 65.3955 48.6972 65.3955C48.6972 65.3955 46.971 74.8191 51.6595 74.8191C53.3641 74.8191 55.0902 72.6215 55.8576 71.5018V71.5227C55.8576 71.5227 55.9001 71.4592 55.9855 71.3115C56.156 71.0369 56.2625 70.8674 56.2625 70.8674V70.8257C56.9443 69.6422 58.479 66.9588 60.759 62.5005C63.6998 56.7535 66.5342 49.5697 66.5342 49.5697C66.5342 49.5697 66.7901 51.3232 67.6635 54.2391C68.1753 55.9506 69.2401 57.831 70.0929 59.6481C69.4111 60.5992 68.9847 61.1271 68.9847 61.1271L69.0061 61.1484C68.4518 61.8666 67.8554 62.6482 67.1946 63.4095C64.8716 66.1558 62.1017 69.3046 61.7178 70.2127C61.2699 71.2902 61.3769 72.0723 62.2296 72.7062C62.8475 73.1711 63.9553 73.2341 65.085 73.1711C67.1735 73.0229 68.6437 72.5159 69.3681 72.1992C70.4978 71.7977 71.819 71.1846 73.0548 70.2761C75.3353 68.6068 76.72 66.2193 76.5925 63.0714C76.5285 61.3387 75.9531 59.6059 75.2498 57.9787C75.4632 57.6833 75.6547 57.3874 75.8681 57.0915C79.4694 51.8724 82.2612 46.1463 82.2612 46.1463C82.2612 46.1463 82.5172 47.8999 83.3905 50.8162C83.8169 52.2952 84.6907 53.9011 85.4575 55.4644C82.0693 58.1904 79.9808 61.3595 79.2349 63.4303C77.8927 67.276 78.9365 69.0083 80.9185 69.4097C81.8134 69.6 83.0921 69.1773 84.0298 68.7758C85.2231 68.3956 86.6298 67.7409 87.9725 66.7685C90.2529 65.0996 92.4475 62.7751 92.3195 59.6272C92.2555 58.1904 91.8721 56.7743 91.3392 55.4009C94.2161 54.2183 97.9243 53.563 102.655 54.1122C112.799 55.2953 114.802 61.5707 114.418 64.2124C114.035 66.8532 111.904 68.2901 111.201 68.7337C110.497 69.1777 110.263 69.3254 110.327 69.6422C110.412 70.1071 110.753 70.0862 111.35 70.0015C112.181 69.8538 116.678 67.8673 116.869 63.0075C117.189 56.7956 111.222 50.0133 100.673 50.0767ZM22.4215 76.2347C19.0542 79.8688 14.3662 81.2422 12.3417 80.0804C10.1682 78.8334 11.0205 73.4666 15.1546 69.6213C17.669 67.276 20.9083 65.0992 23.0608 63.7683C23.5507 63.4724 24.2755 63.0501 25.1493 62.5218C25.2983 62.437 25.3838 62.3949 25.3838 62.3949L25.8952 62.0777C27.4079 67.5714 25.9592 72.4103 22.4215 76.2347ZM46.9285 59.7115C45.7563 62.5431 43.3058 69.7904 41.8142 69.3889C40.5354 69.0509 39.7467 63.5572 41.5582 58.1269C42.4745 55.4009 44.4136 52.147 45.5433 50.8796C47.3759 48.851 49.4005 48.1745 49.8904 48.9992C50.5087 50.0767 47.6529 57.9366 46.9285 59.7115ZM67.1521 69.3042C66.6617 69.5579 66.1933 69.7269 65.9798 69.6C65.8309 69.5153 66.1933 69.1773 66.1933 69.1773C66.1933 69.1773 68.7292 66.473 69.7305 65.2473C70.3063 64.5291 70.9877 63.684 71.7126 62.7329V63.0075C71.7126 66.2406 68.5583 68.4169 67.1516 69.3042H67.1521ZM82.7511 65.7757C82.3887 65.5219 82.4527 64.6768 83.6674 62.0356C84.1363 61.0002 85.2441 59.2679 87.1412 57.5986C87.3541 58.2746 87.5036 58.9299 87.4821 59.5425C87.4606 63.6206 84.5202 65.1417 82.7511 65.7757Z"
                  fill="#CD6799"/>
        </g>
        <defs>
            <clipPath id="clip0_15_2272">
                <rect width="117" height="87" fill="white"/>
            </clipPath>
        </defs>
    </g>

    <g id="abstract">
        <rect x="585.236" y="470.58" width="443" height="443" transform="rotate(165 585.236 470.58)"
              stroke-opacity="1"/>
        <rect x="616.53" y="395.03" width="443" height="443" transform="rotate(150 616.53 395.03)"
              stroke-opacity="1"/>
        <rect x="627.204" y="313.956" width="443" height="443" transform="rotate(135 627.204 313.956)"
              stroke-opacity="1"/>
        <rect x="616.53" y="232.881" width="443" height="443" transform="rotate(120 616.53 232.881)"
              stroke-opacity="1"/>
        <rect x="585.236" y="157.331" width="443" height="443" transform="rotate(105 585.236 157.331)"
              stroke-opacity="1"/>

    </g>

    <g id="soc-git">
        <path d="M17.791,46.836C18.502,46.53,19,45.823,19,45v-5.4c0-0.197,0.016-0.402,0.041-0.61C19.027,38.994,19.014,38.997,19,39 c0,0-3,0-3.6,0c-1.5,0-2.8-0.6-3.4-1.8c-0.7-1.3-1-3.5-2.8-4.7C8.9,32.3,9.1,32,9.7,32c0.6,0.1,1.9,0.9,2.7,2c0.9,1.1,1.8,2,3.4,2 c2.487,0,3.82-0.125,4.622-0.555C21.356,34.056,22.649,33,24,33v-0.025c-5.668-0.182-9.289-2.066-10.975-4.975 c-3.665,0.042-6.856,0.405-8.677,0.707c-0.058-0.327-0.108-0.656-0.151-0.987c1.797-0.296,4.843-0.647,8.345-0.714 c-0.112-0.276-0.209-0.559-0.291-0.849c-3.511-0.178-6.541-0.039-8.187,0.097c-0.02-0.332-0.047-0.663-0.051-0.999 c1.649-0.135,4.597-0.27,8.018-0.111c-0.079-0.5-0.13-1.011-0.13-1.543c0-1.7,0.6-3.5,1.7-5c-0.5-1.7-1.2-5.3,0.2-6.6 c2.7,0,4.6,1.3,5.5,2.1C21,13.4,22.9,13,25,13s4,0.4,5.6,1.1c0.9-0.8,2.8-2.1,5.5-2.1c1.5,1.4,0.7,5,0.2,6.6c1.1,1.5,1.7,3.2,1.6,5 c0,0.484-0.045,0.951-0.11,1.409c3.499-0.172,6.527-0.034,8.204,0.102c-0.002,0.337-0.033,0.666-0.051,0.999 c-1.671-0.138-4.775-0.28-8.359-0.089c-0.089,0.336-0.197,0.663-0.325,0.98c3.546,0.046,6.665,0.389,8.548,0.689 c-0.043,0.332-0.093,0.661-0.151,0.987c-1.912-0.306-5.171-0.664-8.879-0.682C35.112,30.873,31.557,32.75,26,32.969V33 c2.6,0,5,3.9,5,6.6V45c0,0.823,0.498,1.53,1.209,1.836C41.37,43.804,48,35.164,48,25C48,12.318,37.683,2,25,2S2,12.318,2,25 C2,35.164,8.63,43.804,17.791,46.836z"></path>
    </g>

    <g id="soc-telegram">
        <path d="M25,2c12.703,0,23,10.297,23,23S37.703,48,25,48S2,37.703,2,25S12.297,2,25,2z M32.934,34.375	c0.423-1.298,2.405-14.234,2.65-16.783c0.074-0.772-0.17-1.285-0.648-1.514c-0.578-0.278-1.434-0.139-2.427,0.219	c-1.362,0.491-18.774,7.884-19.78,8.312c-0.954,0.405-1.856,0.847-1.856,1.487c0,0.45,0.267,0.703,1.003,0.966	c0.766,0.273,2.695,0.858,3.834,1.172c1.097,0.303,2.346,0.04,3.046-0.395c0.742-0.461,9.305-6.191,9.92-6.693	c0.614-0.502,1.104,0.141,0.602,0.644c-0.502,0.502-6.38,6.207-7.155,6.997c-0.941,0.959-0.273,1.953,0.358,2.351	c0.721,0.454,5.906,3.932,6.687,4.49c0.781,0.558,1.573,0.811,2.298,0.811C32.191,36.439,32.573,35.484,32.934,34.375z"></path>
    </g>

    <g id="soc-linkedin">
        <path d="M25,2C12.318,2,2,12.317,2,25s10.318,23,23,23s23-10.317,23-23S37.682,2,25,2z M18,35h-4V20h4V35z M16,17 c-1.105,0-2-0.895-2-2c0-1.105,0.895-2,2-2s2,0.895,2,2C18,16.105,17.105,17,16,17z M37,35h-4v-5v-2.5c0-1.925-1.575-3.5-3.5-3.5 S26,25.575,26,27.5V35h-4V20h4v1.816C27.168,20.694,28.752,20,30.5,20c3.59,0,6.5,2.91,6.5,6.5V35z"></path>
    </g>


    <g id="building">
        <path d="M3.33325 1.5V10.5H7.33325V8.75H8.66659V10.5H12.6666V1.5H3.33325ZM4.66659 2.5H5.99992V3.5H4.66659V2.5ZM7.33325 2.5H8.66659V3.5H7.33325V2.5ZM9.99992 2.5H11.3333V3.5H9.99992V2.5ZM4.66659 4.5H5.99992V5.5H4.66659V4.5ZM7.33325 4.5H8.66659V5.5H7.33325V4.5ZM9.99992 4.5H11.3333V5.5H9.99992V4.5ZM4.66659 6.5H5.99992V7.5H4.66659V6.5ZM7.33325 6.5H8.66659V7.5H7.33325V6.5ZM9.99992 6.5H11.3333V7.5H9.99992V6.5ZM4.66659 8.5H5.99992V9.5H4.66659V8.5ZM9.99992 8.5H11.3333V9.5H9.99992V8.5Z"
              fill="#A7A7A7"/>
    </g>
    <g id="location">
        <path d="M8 6.75C7.50555 6.75 7.0222 6.64003 6.61108 6.43401C6.19995 6.22798 5.87952 5.93514 5.6903 5.59253C5.50108 5.24992 5.45157 4.87292 5.54804 4.50921C5.6445 4.14549 5.8826 3.8114 6.23223 3.54918C6.58187 3.28695 7.02732 3.10838 7.51228 3.03603C7.99723 2.96368 8.4999 3.00081 8.95671 3.14273C9.41353 3.28464 9.80397 3.52496 10.0787 3.83331C10.3534 4.14165 10.5 4.50416 10.5 4.875C10.4992 5.3721 10.2356 5.84867 9.76689 6.20017C9.29822 6.55167 8.6628 6.74941 8 6.75ZM8 3.75C7.70333 3.75 7.41332 3.81598 7.16665 3.9396C6.91997 4.06321 6.72771 4.23892 6.61418 4.44448C6.50065 4.65005 6.47095 4.87625 6.52882 5.09448C6.5867 5.31271 6.72956 5.51316 6.93934 5.6705C7.14912 5.82783 7.41639 5.93498 7.70737 5.97838C7.99834 6.02179 8.29994 5.99951 8.57403 5.91437C8.84812 5.82922 9.08238 5.68502 9.24721 5.50002C9.41203 5.31501 9.5 5.09751 9.5 4.875C9.4996 4.57672 9.34144 4.29075 9.06022 4.07983C8.779 3.86892 8.3977 3.7503 8 3.75Z"
              fill="#A7A7A7"/>
        <path d="M8.00001 11.25L3.78201 7.51912C3.7234 7.4631 3.66539 7.40673 3.60801 7.35C2.8875 6.63817 2.49826 5.76871 2.50001 4.875C2.50001 3.78098 3.07947 2.73177 4.11092 1.95818C5.14237 1.1846 6.54132 0.75 8.00001 0.75C9.4587 0.75 10.8576 1.1846 11.8891 1.95818C12.9205 2.73177 13.5 3.78098 13.5 4.875C13.5018 5.7683 13.1127 6.63737 12.3925 7.34888L12.392 7.35C12.392 7.35 12.242 7.49775 12.2195 7.51763L8.00001 11.25ZM4.40601 6.89813C4.40701 6.89813 4.52301 7.01362 4.54951 7.03837L8.00001 10.0905L11.455 7.03425C11.477 7.01362 11.594 6.89738 11.5945 6.897C12.1831 6.31542 12.5012 5.60514 12.5 4.875C12.5 3.97989 12.0259 3.12145 11.182 2.48851C10.3381 1.85558 9.19348 1.5 8.00001 1.5C6.80653 1.5 5.66194 1.85558 4.81803 2.48851C3.97411 3.12145 3.50001 3.97989 3.50001 4.875C3.49896 5.60559 3.81739 6.31628 4.40651 6.89813H4.40601Z"
              fill="#A7A7A7"/>
    </g>
    <g id="calendar">
        <path d="M5.33329 6.5C5.15648 6.5 4.98691 6.44732 4.86189 6.35355C4.73686 6.25979 4.66663 6.13261 4.66663 6C4.66663 5.86739 4.73686 5.74021 4.86189 5.64645C4.98691 5.55268 5.15648 5.5 5.33329 5.5C5.5101 5.5 5.67967 5.55268 5.8047 5.64645C5.92972 5.74021 5.99996 5.86739 5.99996 6C5.99996 6.13261 5.92972 6.25979 5.8047 6.35355C5.67967 6.44732 5.5101 6.5 5.33329 6.5ZM5.33329 8.5C5.15648 8.5 4.98691 8.44732 4.86189 8.35355C4.73686 8.25979 4.66663 8.13261 4.66663 8C4.66663 7.86739 4.73686 7.74021 4.86189 7.64645C4.98691 7.55268 5.15648 7.5 5.33329 7.5C5.5101 7.5 5.67967 7.55268 5.8047 7.64645C5.92972 7.74021 5.99996 7.86739 5.99996 8C5.99996 8.13261 5.92972 8.25979 5.8047 8.35355C5.67967 8.44732 5.5101 8.5 5.33329 8.5ZM7.33329 8C7.33329 8.13261 7.40353 8.25979 7.52855 8.35355C7.65358 8.44732 7.82315 8.5 7.99996 8.5C8.17677 8.5 8.34634 8.44732 8.47136 8.35355C8.59639 8.25979 8.66663 8.13261 8.66663 8C8.66663 7.86739 8.59639 7.74021 8.47136 7.64645C8.34634 7.55268 8.17677 7.5 7.99996 7.5C7.82315 7.5 7.65358 7.55268 7.52855 7.64645C7.40353 7.74021 7.33329 7.86739 7.33329 8ZM10.6666 8.5C10.4898 8.5 10.3202 8.44732 10.1952 8.35355C10.0702 8.25979 9.99996 8.13261 9.99996 8C9.99996 7.86739 10.0702 7.74021 10.1952 7.64645C10.3202 7.55268 10.4898 7.5 10.6666 7.5C10.8434 7.5 11.013 7.55268 11.138 7.64645C11.2631 7.74021 11.3333 7.86739 11.3333 8C11.3333 8.13261 11.2631 8.25979 11.138 8.35355C11.013 8.44732 10.8434 8.5 10.6666 8.5ZM7.33329 6C7.33329 6.13261 7.40353 6.25979 7.52855 6.35355C7.65358 6.44732 7.82315 6.5 7.99996 6.5C8.17677 6.5 8.34634 6.44732 8.47136 6.35355C8.59639 6.25979 8.66663 6.13261 8.66663 6C8.66663 5.86739 8.59639 5.74021 8.47136 5.64645C8.34634 5.55268 8.17677 5.5 7.99996 5.5C7.82315 5.5 7.65358 5.55268 7.52855 5.64645C7.40353 5.74021 7.33329 5.86739 7.33329 6ZM10.6666 6.5C10.4898 6.5 10.3202 6.44732 10.1952 6.35355C10.0702 6.25979 9.99996 6.13261 9.99996 6C9.99996 5.86739 10.0702 5.74021 10.1952 5.64645C10.3202 5.55268 10.4898 5.5 10.6666 5.5C10.8434 5.5 11.013 5.55268 11.138 5.64645C11.2631 5.74021 11.3333 5.86739 11.3333 6C11.3333 6.13261 11.2631 6.25979 11.138 6.35355C11.013 6.44732 10.8434 6.5 10.6666 6.5ZM5.33329 3.5C5.15648 3.5 4.98691 3.55268 4.86189 3.64645C4.73686 3.74021 4.66663 3.86739 4.66663 4C4.66663 4.13261 4.73686 4.25979 4.86189 4.35355C4.98691 4.44732 5.15648 4.5 5.33329 4.5H10.6666C10.8434 4.5 11.013 4.44732 11.138 4.35355C11.2631 4.25979 11.3333 4.13261 11.3333 4C11.3333 3.86739 11.2631 3.74021 11.138 3.64645C11.013 3.55268 10.8434 3.5 10.6666 3.5H5.33329Z"
              fill="#A7A7A7"/>
        <path fill-rule="evenodd" clip-rule="evenodd"
              d="M4 1.5C3.46957 1.5 2.96086 1.65804 2.58579 1.93934C2.21071 2.22064 2 2.60218 2 3V9C2 9.39782 2.21071 9.77936 2.58579 10.0607C2.96086 10.342 3.46957 10.5 4 10.5H12C12.5304 10.5 13.0391 10.342 13.4142 10.0607C13.7893 9.77936 14 9.39782 14 9V3C14 2.60218 13.7893 2.22064 13.4142 1.93934C13.0391 1.65804 12.5304 1.5 12 1.5H4ZM12 2.5H4C3.82319 2.5 3.65362 2.55268 3.5286 2.64645C3.40357 2.74021 3.33333 2.86739 3.33333 3V9C3.33333 9.13261 3.40357 9.25979 3.5286 9.35355C3.65362 9.44732 3.82319 9.5 4 9.5H12C12.1768 9.5 12.3464 9.44732 12.4714 9.35355C12.5964 9.25979 12.6667 9.13261 12.6667 9V3C12.6667 2.86739 12.5964 2.74021 12.4714 2.64645C12.3464 2.55268 12.1768 2.5 12 2.5Z"
              fill="#A7A7A7"/>
    </g>
    <g id="project-card-link-icon">
        <path d="M11.2867 8.71333C10.6041 8.03103 9.67846 7.64774 8.71334 7.64774C7.74821 7.64774 6.82259 8.03103 6.14 8.71333L3.56584 11.2867C2.88324 11.9693 2.49976 12.8951 2.49976 13.8604C2.49976 14.8258 2.88324 15.7516 3.56584 16.4342C4.24844 17.1168 5.17424 17.5002 6.13959 17.5002C7.10493 17.5002 8.03074 17.1168 8.71334 16.4342L10 15.1475"
              stroke-width="1.66667"/>
        <path d="M8.71338 11.2867C9.39597 11.969 10.3216 12.3523 11.2867 12.3523C12.2518 12.3523 13.1775 11.969 13.86 11.2867L16.4342 8.71334C17.1168 8.03074 17.5003 7.10493 17.5003 6.13959C17.5003 5.17424 17.1168 4.24844 16.4342 3.56584C15.7516 2.88324 14.8258 2.49976 13.8605 2.49976C12.8951 2.49976 11.9693 2.88324 11.2867 3.56584L10 4.8525"
              stroke-width="1.66667"/>
    </g>
</svg>

