<svg width="308" height="308" viewBox="0 0 308 308" fill="none" xmlns="http://www.w3.org/2000/svg">
<path d="M154 308C112.887 308 74.2127 291.973 45.0618 262.938C16.0271 233.903 0 195.229 0 154C0 112.887 16.0271 74.2127 45.0618 45.0618C74.0965 15.911 112.771 0 154 0C195.113 0 233.787 16.0272 262.938 45.0618C291.973 74.0965 308 112.771 308 154C308 195.113 291.973 233.787 262.938 262.938C233.787 291.973 195.113 308 154 308ZM154 1.27753C113.235 1.27753 74.7934 17.1885 45.991 45.9909C17.1885 74.9095 1.27752 113.235 1.27752 154C1.27752 194.765 17.1885 233.207 45.991 262.009C74.9095 290.928 113.235 306.722 154 306.722C194.765 306.722 233.207 290.811 262.009 262.009C290.811 233.207 306.723 194.765 306.723 154C306.723 113.235 290.811 74.7934 262.009 45.9909C233.091 17.0724 194.765 1.27753 154 1.27753Z" fill="#1D1D1B"/>
<path d="M132 193.286V114.714L193.286 153.943L132 193.286Z" fill="black"/>
</svg>
