<svg width="12" height="14" viewBox="0 0 12 14" fill="none" xmlns="http://www.w3.org/2000/svg">
<path d="M8.50001 4.4415V3.44528C8.50001 2.08679 7.48305 1 6.21186 1H5.74577C4.47459 1 3.45762 2.08679 3.45762 3.44528V4.4415H1V11.3245C1 12.2302 1.67797 13 2.5678 13H9.4322C10.2797 13 11 12.2302 11 11.3245V4.4415H8.50001ZM3.9661 3.44528C3.9661 2.40377 4.77118 1.58867 5.70338 1.58867H6.1695C7.14408 1.58867 7.90678 2.44905 7.90678 3.44528V4.4415H3.9661V3.44528ZM10.4068 11.2792C10.4068 11.8679 9.94068 12.366 9.38983 12.366H2.52541C1.97457 12.366 1.50848 11.8679 1.50848 11.2792V4.9849H3.41526V7.02264H3.9661V4.9849H7.90678V7.02264H8.45762V4.9849H10.3644V11.2792H10.4068Z" fill="white" stroke="white" stroke-width="0.2" stroke-miterlimit="10"/>
</svg>
